<svg width="795" height="951" viewBox="0 0 795 951" fill="none" xmlns="http://www.w3.org/2000/svg">
<rect width="795" height="951" rx="32" fill="white"/>
<path d="M162.212 287L160.532 282.056H153.764L152.084 287H150.044L155.9 270.248H158.468L164.324 287H162.212ZM157.196 272.12H157.076L154.244 280.28H160.028L157.196 272.12ZM168.947 287C168.275 287 167.763 286.816 167.411 286.448C167.075 286.064 166.907 285.584 166.907 285.008V269.24H168.827V285.32H170.651V287H168.947ZM175.369 287C174.697 287 174.185 286.816 173.833 286.448C173.497 286.064 173.329 285.584 173.329 285.008V269.24H175.249V285.32H177.073V287H175.369ZM189.26 287.288C188.108 287.288 187.14 287.072 186.356 286.64C185.588 286.192 184.924 285.6 184.364 284.864L185.732 283.76C186.212 284.368 186.748 284.84 187.34 285.176C187.932 285.496 188.62 285.656 189.404 285.656C190.22 285.656 190.852 285.48 191.3 285.128C191.764 284.776 191.996 284.28 191.996 283.64C191.996 283.16 191.836 282.752 191.516 282.416C191.212 282.064 190.652 281.824 189.836 281.696L188.852 281.552C188.276 281.472 187.748 281.352 187.268 281.192C186.788 281.016 186.364 280.792 185.996 280.52C185.644 280.232 185.364 279.88 185.156 279.464C184.964 279.048 184.868 278.552 184.868 277.976C184.868 277.368 184.98 276.84 185.204 276.392C185.428 275.928 185.732 275.544 186.116 275.24C186.516 274.936 186.988 274.712 187.532 274.568C188.076 274.408 188.66 274.328 189.284 274.328C190.292 274.328 191.132 274.504 191.804 274.856C192.492 275.208 193.092 275.696 193.604 276.32L192.332 277.472C192.06 277.088 191.66 276.744 191.132 276.44C190.604 276.12 189.94 275.96 189.14 275.96C188.34 275.96 187.732 276.136 187.316 276.488C186.916 276.824 186.716 277.288 186.716 277.88C186.716 278.488 186.916 278.928 187.316 279.2C187.732 279.472 188.324 279.672 189.092 279.8L190.052 279.944C191.428 280.152 192.404 280.552 192.98 281.144C193.556 281.72 193.844 282.48 193.844 283.424C193.844 284.624 193.436 285.568 192.62 286.256C191.804 286.944 190.684 287.288 189.26 287.288ZM199.807 287C199.135 287 198.623 286.816 198.271 286.448C197.935 286.064 197.767 285.568 197.767 284.96V276.296H195.727V274.616H196.879C197.295 274.616 197.575 274.536 197.719 274.376C197.879 274.2 197.959 273.904 197.959 273.488V271.184H199.687V274.616H202.399V276.296H199.687V285.32H202.207V287H199.807ZM213.117 284.984H213.021C212.893 285.272 212.733 285.56 212.541 285.848C212.365 286.12 212.141 286.368 211.869 286.592C211.597 286.8 211.269 286.968 210.885 287.096C210.501 287.224 210.053 287.288 209.541 287.288C208.261 287.288 207.245 286.88 206.493 286.064C205.741 285.232 205.365 284.064 205.365 282.56V274.616H207.285V282.224C207.285 284.448 208.229 285.56 210.117 285.56C210.501 285.56 210.869 285.512 211.221 285.416C211.589 285.32 211.909 285.176 212.181 284.984C212.469 284.792 212.693 284.552 212.853 284.264C213.029 283.96 213.117 283.6 213.117 283.184V274.616H215.037V287H213.117V284.984ZM227.046 284.984H226.95C226.198 286.52 224.99 287.288 223.326 287.288C222.558 287.288 221.862 287.136 221.238 286.832C220.614 286.528 220.078 286.096 219.63 285.536C219.198 284.976 218.862 284.296 218.622 283.496C218.398 282.696 218.286 281.8 218.286 280.808C218.286 279.816 218.398 278.92 218.622 278.12C218.862 277.32 219.198 276.64 219.63 276.08C220.078 275.52 220.614 275.088 221.238 274.784C221.862 274.48 222.558 274.328 223.326 274.328C224.19 274.328 224.926 274.52 225.534 274.904C226.158 275.272 226.63 275.848 226.95 276.632H227.046V269.24H228.966V287H227.046V284.984ZM223.854 285.56C224.286 285.56 224.694 285.504 225.078 285.392C225.478 285.28 225.822 285.12 226.11 284.912C226.398 284.688 226.622 284.424 226.782 284.12C226.958 283.8 227.046 283.44 227.046 283.04V278.432C227.046 278.096 226.958 277.784 226.782 277.496C226.622 277.192 226.398 276.936 226.11 276.728C225.822 276.52 225.478 276.36 225.078 276.248C224.694 276.12 224.286 276.056 223.854 276.056C222.766 276.056 221.91 276.4 221.286 277.088C220.662 277.76 220.35 278.648 220.35 279.752V281.864C220.35 282.968 220.662 283.864 221.286 284.552C221.91 285.224 222.766 285.56 223.854 285.56ZM237.704 287.288C236.856 287.288 236.088 287.136 235.4 286.832C234.728 286.528 234.144 286.096 233.648 285.536C233.168 284.96 232.792 284.28 232.52 283.496C232.264 282.696 232.136 281.8 232.136 280.808C232.136 279.832 232.264 278.944 232.52 278.144C232.792 277.344 233.168 276.664 233.648 276.104C234.144 275.528 234.728 275.088 235.4 274.784C236.088 274.48 236.856 274.328 237.704 274.328C238.536 274.328 239.28 274.48 239.936 274.784C240.592 275.088 241.152 275.512 241.616 276.056C242.08 276.584 242.432 277.216 242.672 277.952C242.928 278.688 243.056 279.496 243.056 280.376V281.288H234.152V281.864C234.152 282.392 234.232 282.888 234.392 283.352C234.568 283.8 234.808 284.192 235.112 284.528C235.432 284.864 235.816 285.128 236.264 285.32C236.728 285.512 237.248 285.608 237.824 285.608C238.608 285.608 239.288 285.424 239.864 285.056C240.456 284.688 240.912 284.16 241.232 283.472L242.6 284.456C242.2 285.304 241.576 285.992 240.728 286.52C239.88 287.032 238.872 287.288 237.704 287.288ZM237.704 275.936C237.176 275.936 236.696 276.032 236.264 276.224C235.832 276.4 235.456 276.656 235.136 276.992C234.832 277.328 234.592 277.728 234.416 278.192C234.24 278.64 234.152 279.136 234.152 279.68V279.848H240.992V279.584C240.992 278.48 240.688 277.6 240.08 276.944C239.488 276.272 238.696 275.936 237.704 275.936ZM246.22 287V274.616H248.14V276.632H248.236C248.54 275.928 248.964 275.368 249.508 274.952C250.068 274.536 250.812 274.328 251.74 274.328C253.02 274.328 254.028 274.744 254.764 275.576C255.516 276.392 255.892 277.552 255.892 279.056V287H253.972V279.392C253.972 277.168 253.036 276.056 251.164 276.056C250.78 276.056 250.404 276.104 250.036 276.2C249.684 276.296 249.364 276.44 249.076 276.632C248.788 276.824 248.556 277.072 248.38 277.376C248.22 277.664 248.14 278.008 248.14 278.408V287H246.22ZM262.596 287C261.924 287 261.412 286.816 261.06 286.448C260.724 286.064 260.556 285.568 260.556 284.96V276.296H258.516V274.616H259.668C260.084 274.616 260.364 274.536 260.508 274.376C260.668 274.2 260.748 273.904 260.748 273.488V271.184H262.476V274.616H265.188V276.296H262.476V285.32H264.996V287H262.596ZM277.666 287.288C276.514 287.288 275.546 287.072 274.762 286.64C273.994 286.192 273.33 285.6 272.77 284.864L274.138 283.76C274.618 284.368 275.154 284.84 275.746 285.176C276.338 285.496 277.026 285.656 277.81 285.656C278.626 285.656 279.258 285.48 279.706 285.128C280.17 284.776 280.402 284.28 280.402 283.64C280.402 283.16 280.242 282.752 279.922 282.416C279.618 282.064 279.058 281.824 278.242 281.696L277.258 281.552C276.682 281.472 276.154 281.352 275.674 281.192C275.194 281.016 274.77 280.792 274.402 280.52C274.05 280.232 273.77 279.88 273.562 279.464C273.37 279.048 273.274 278.552 273.274 277.976C273.274 277.368 273.386 276.84 273.61 276.392C273.834 275.928 274.138 275.544 274.522 275.24C274.922 274.936 275.394 274.712 275.938 274.568C276.482 274.408 277.066 274.328 277.69 274.328C278.698 274.328 279.538 274.504 280.21 274.856C280.898 275.208 281.498 275.696 282.01 276.32L280.738 277.472C280.466 277.088 280.066 276.744 279.538 276.44C279.01 276.12 278.346 275.96 277.546 275.96C276.746 275.96 276.138 276.136 275.722 276.488C275.322 276.824 275.122 277.288 275.122 277.88C275.122 278.488 275.322 278.928 275.722 279.2C276.138 279.472 276.73 279.672 277.498 279.8L278.458 279.944C279.834 280.152 280.81 280.552 281.386 281.144C281.962 281.72 282.25 282.48 282.25 283.424C282.25 284.624 281.842 285.568 281.026 286.256C280.21 286.944 279.09 287.288 277.666 287.288ZM290.298 287.288C289.45 287.288 288.682 287.136 287.994 286.832C287.322 286.528 286.738 286.096 286.242 285.536C285.762 284.96 285.386 284.28 285.114 283.496C284.858 282.696 284.73 281.8 284.73 280.808C284.73 279.832 284.858 278.944 285.114 278.144C285.386 277.344 285.762 276.664 286.242 276.104C286.738 275.528 287.322 275.088 287.994 274.784C288.682 274.48 289.45 274.328 290.298 274.328C291.13 274.328 291.874 274.48 292.53 274.784C293.186 275.088 293.746 275.512 294.21 276.056C294.674 276.584 295.026 277.216 295.266 277.952C295.522 278.688 295.65 279.496 295.65 280.376V281.288H286.746V281.864C286.746 282.392 286.826 282.888 286.986 283.352C287.162 283.8 287.402 284.192 287.706 284.528C288.026 284.864 288.41 285.128 288.858 285.32C289.322 285.512 289.842 285.608 290.418 285.608C291.202 285.608 291.882 285.424 292.458 285.056C293.05 284.688 293.506 284.16 293.826 283.472L295.194 284.456C294.794 285.304 294.17 285.992 293.322 286.52C292.474 287.032 291.466 287.288 290.298 287.288ZM290.298 275.936C289.77 275.936 289.29 276.032 288.858 276.224C288.426 276.4 288.05 276.656 287.73 276.992C287.426 277.328 287.186 277.728 287.01 278.192C286.834 278.64 286.746 279.136 286.746 279.68V279.848H293.586V279.584C293.586 278.48 293.282 277.6 292.674 276.944C292.082 276.272 291.29 275.936 290.298 275.936ZM298.813 287V274.616H300.733V276.896H300.853C301.077 276.304 301.477 275.776 302.053 275.312C302.629 274.848 303.421 274.616 304.429 274.616H305.173V276.536H304.045C303.005 276.536 302.189 276.736 301.597 277.136C301.021 277.52 300.733 278.008 300.733 278.6V287H298.813ZM310.596 287L306.252 274.616H308.172L310.332 280.76L311.676 284.984H311.796L313.14 280.76L315.348 274.616H317.196L312.828 287H310.596ZM320.633 271.712C320.217 271.712 319.913 271.616 319.721 271.424C319.545 271.216 319.457 270.952 319.457 270.632V270.32C319.457 270 319.545 269.744 319.721 269.552C319.913 269.344 320.217 269.24 320.633 269.24C321.049 269.24 321.345 269.344 321.521 269.552C321.713 269.744 321.809 270 321.809 270.32V270.632C321.809 270.952 321.713 271.216 321.521 271.424C321.345 271.616 321.049 271.712 320.633 271.712ZM319.673 274.616H321.593V287H319.673V274.616ZM330.281 287.288C329.417 287.288 328.641 287.136 327.953 286.832C327.265 286.528 326.681 286.096 326.201 285.536C325.737 284.976 325.377 284.296 325.121 283.496C324.881 282.696 324.761 281.8 324.761 280.808C324.761 279.816 324.881 278.92 325.121 278.12C325.377 277.32 325.737 276.64 326.201 276.08C326.681 275.52 327.265 275.088 327.953 274.784C328.641 274.48 329.417 274.328 330.281 274.328C331.513 274.328 332.497 274.6 333.233 275.144C333.985 275.672 334.545 276.368 334.913 277.232L333.305 278.048C333.081 277.408 332.713 276.912 332.201 276.56C331.689 276.208 331.049 276.032 330.281 276.032C329.705 276.032 329.201 276.128 328.769 276.32C328.337 276.496 327.977 276.752 327.689 277.088C327.401 277.408 327.185 277.8 327.041 278.264C326.897 278.712 326.825 279.208 326.825 279.752V281.864C326.825 282.952 327.113 283.848 327.689 284.552C328.281 285.24 329.145 285.584 330.281 285.584C331.833 285.584 332.953 284.864 333.641 283.424L335.033 284.36C334.633 285.256 334.033 285.968 333.233 286.496C332.449 287.024 331.465 287.288 330.281 287.288ZM342.259 287.288C341.411 287.288 340.643 287.136 339.955 286.832C339.283 286.528 338.699 286.096 338.203 285.536C337.723 284.96 337.347 284.28 337.075 283.496C336.819 282.696 336.691 281.8 336.691 280.808C336.691 279.832 336.819 278.944 337.075 278.144C337.347 277.344 337.723 276.664 338.203 276.104C338.699 275.528 339.283 275.088 339.955 274.784C340.643 274.48 341.411 274.328 342.259 274.328C343.091 274.328 343.835 274.48 344.491 274.784C345.147 275.088 345.707 275.512 346.171 276.056C346.635 276.584 346.987 277.216 347.227 277.952C347.483 278.688 347.611 279.496 347.611 280.376V281.288H338.707V281.864C338.707 282.392 338.787 282.888 338.947 283.352C339.123 283.8 339.363 284.192 339.667 284.528C339.987 284.864 340.371 285.128 340.819 285.32C341.283 285.512 341.803 285.608 342.379 285.608C343.163 285.608 343.843 285.424 344.419 285.056C345.011 284.688 345.467 284.16 345.787 283.472L347.155 284.456C346.755 285.304 346.131 285.992 345.283 286.52C344.435 287.032 343.427 287.288 342.259 287.288ZM342.259 275.936C341.731 275.936 341.251 276.032 340.819 276.224C340.387 276.4 340.011 276.656 339.691 276.992C339.387 277.328 339.147 277.728 338.971 278.192C338.795 278.64 338.707 279.136 338.707 279.68V279.848H345.547V279.584C345.547 278.48 345.243 277.6 344.635 276.944C344.043 276.272 343.251 275.936 342.259 275.936ZM354.494 287.288C353.342 287.288 352.374 287.072 351.59 286.64C350.822 286.192 350.158 285.6 349.598 284.864L350.966 283.76C351.446 284.368 351.982 284.84 352.574 285.176C353.166 285.496 353.854 285.656 354.638 285.656C355.454 285.656 356.086 285.48 356.534 285.128C356.998 284.776 357.23 284.28 357.23 283.64C357.23 283.16 357.07 282.752 356.75 282.416C356.446 282.064 355.886 281.824 355.07 281.696L354.086 281.552C353.51 281.472 352.982 281.352 352.502 281.192C352.022 281.016 351.598 280.792 351.23 280.52C350.878 280.232 350.598 279.88 350.39 279.464C350.198 279.048 350.102 278.552 350.102 277.976C350.102 277.368 350.214 276.84 350.438 276.392C350.662 275.928 350.966 275.544 351.35 275.24C351.75 274.936 352.222 274.712 352.766 274.568C353.31 274.408 353.894 274.328 354.518 274.328C355.526 274.328 356.366 274.504 357.038 274.856C357.726 275.208 358.326 275.696 358.838 276.32L357.566 277.472C357.294 277.088 356.894 276.744 356.366 276.44C355.838 276.12 355.174 275.96 354.374 275.96C353.574 275.96 352.966 276.136 352.55 276.488C352.15 276.824 351.95 277.288 351.95 277.88C351.95 278.488 352.15 278.928 352.55 279.2C352.966 279.472 353.558 279.672 354.326 279.8L355.286 279.944C356.662 280.152 357.638 280.552 358.214 281.144C358.79 281.72 359.078 282.48 359.078 283.424C359.078 284.624 358.67 285.568 357.854 286.256C357.038 286.944 355.918 287.288 354.494 287.288ZM368.814 276.296H366.798V274.616H368.814V272.12C368.814 271.256 369.038 270.56 369.486 270.032C369.934 269.504 370.614 269.24 371.526 269.24H373.398V270.92H370.734V274.616H373.398V276.296H370.734V287H368.814V276.296ZM380.509 287.288C379.677 287.288 378.917 287.136 378.229 286.832C377.541 286.528 376.949 286.096 376.453 285.536C375.973 284.96 375.597 284.28 375.325 283.496C375.053 282.696 374.917 281.8 374.917 280.808C374.917 279.832 375.053 278.944 375.325 278.144C375.597 277.344 375.973 276.664 376.453 276.104C376.949 275.528 377.541 275.088 378.229 274.784C378.917 274.48 379.677 274.328 380.509 274.328C381.341 274.328 382.093 274.48 382.765 274.784C383.453 275.088 384.045 275.528 384.541 276.104C385.037 276.664 385.421 277.344 385.693 278.144C385.965 278.944 386.101 279.832 386.101 280.808C386.101 281.8 385.965 282.696 385.693 283.496C385.421 284.28 385.037 284.96 384.541 285.536C384.045 286.096 383.453 286.528 382.765 286.832C382.093 287.136 381.341 287.288 380.509 287.288ZM380.509 285.584C381.549 285.584 382.397 285.264 383.053 284.624C383.709 283.984 384.037 283.008 384.037 281.696V279.92C384.037 278.608 383.709 277.632 383.053 276.992C382.397 276.352 381.549 276.032 380.509 276.032C379.469 276.032 378.621 276.352 377.965 276.992C377.309 277.632 376.981 278.608 376.981 279.92V281.696C376.981 283.008 377.309 283.984 377.965 284.624C378.621 285.264 379.469 285.584 380.509 285.584ZM389.259 287V274.616H391.179V276.896H391.299C391.523 276.304 391.923 275.776 392.499 275.312C393.075 274.848 393.867 274.616 394.875 274.616H395.619V276.536H394.491C393.451 276.536 392.635 276.736 392.043 277.136C391.467 277.52 391.179 278.008 391.179 278.6V287H389.259ZM403.143 287V285.32H405.495V271.928H403.143V270.248H409.863V271.928H407.511V285.32H409.863V287H403.143ZM419.449 287.288C417.321 287.288 415.665 286.568 414.48 285.128C413.297 283.672 412.705 281.536 412.705 278.72C412.705 275.904 413.297 273.744 414.48 272.24C415.665 270.72 417.321 269.96 419.449 269.96C420.857 269.96 422.033 270.28 422.977 270.92C423.937 271.56 424.681 272.464 425.209 273.632L423.577 274.616C423.241 273.752 422.729 273.064 422.041 272.552C421.353 272.024 420.489 271.76 419.449 271.76C418.729 271.76 418.081 271.896 417.505 272.168C416.945 272.44 416.465 272.832 416.065 273.344C415.681 273.84 415.385 274.44 415.177 275.144C414.969 275.832 414.865 276.608 414.865 277.472V279.968C414.865 281.696 415.265 283.048 416.065 284.024C416.865 285 417.993 285.488 419.449 285.488C420.521 285.488 421.417 285.216 422.137 284.672C422.857 284.112 423.385 283.376 423.721 282.464L425.329 283.472C424.801 284.656 424.041 285.592 423.049 286.28C422.057 286.952 420.857 287.288 419.449 287.288ZM434.091 272.024V287H432.075V272.024H426.747V270.248H439.419V272.024H434.091ZM451.385 287.288C450.233 287.288 449.265 287.072 448.481 286.64C447.713 286.192 447.049 285.6 446.489 284.864L447.857 283.76C448.337 284.368 448.873 284.84 449.465 285.176C450.057 285.496 450.745 285.656 451.529 285.656C452.345 285.656 452.977 285.48 453.425 285.128C453.889 284.776 454.121 284.28 454.121 283.64C454.121 283.16 453.961 282.752 453.641 282.416C453.337 282.064 452.777 281.824 451.961 281.696L450.977 281.552C450.401 281.472 449.873 281.352 449.393 281.192C448.913 281.016 448.489 280.792 448.121 280.52C447.769 280.232 447.489 279.88 447.281 279.464C447.089 279.048 446.993 278.552 446.993 277.976C446.993 277.368 447.105 276.84 447.329 276.392C447.553 275.928 447.857 275.544 448.241 275.24C448.641 274.936 449.113 274.712 449.657 274.568C450.201 274.408 450.785 274.328 451.409 274.328C452.417 274.328 453.257 274.504 453.929 274.856C454.617 275.208 455.217 275.696 455.729 276.32L454.457 277.472C454.185 277.088 453.785 276.744 453.257 276.44C452.729 276.12 452.065 275.96 451.265 275.96C450.465 275.96 449.857 276.136 449.441 276.488C449.041 276.824 448.841 277.288 448.841 277.88C448.841 278.488 449.041 278.928 449.441 279.2C449.857 279.472 450.449 279.672 451.217 279.8L452.177 279.944C453.553 280.152 454.529 280.552 455.105 281.144C455.681 281.72 455.969 282.48 455.969 283.424C455.969 284.624 455.561 285.568 454.745 286.256C453.929 286.944 452.809 287.288 451.385 287.288ZM461.932 287C461.26 287 460.748 286.816 460.396 286.448C460.06 286.064 459.892 285.568 459.892 284.96V276.296H457.852V274.616H459.004C459.42 274.616 459.7 274.536 459.844 274.376C460.004 274.2 460.084 273.904 460.084 273.488V271.184H461.812V274.616H464.524V276.296H461.812V285.32H464.332V287H461.932ZM475.242 284.984H475.146C475.018 285.272 474.858 285.56 474.666 285.848C474.49 286.12 474.266 286.368 473.994 286.592C473.722 286.8 473.394 286.968 473.01 287.096C472.626 287.224 472.178 287.288 471.666 287.288C470.386 287.288 469.37 286.88 468.618 286.064C467.866 285.232 467.49 284.064 467.49 282.56V274.616H469.41V282.224C469.41 284.448 470.354 285.56 472.242 285.56C472.626 285.56 472.994 285.512 473.346 285.416C473.714 285.32 474.034 285.176 474.306 284.984C474.594 284.792 474.818 284.552 474.978 284.264C475.154 283.96 475.242 283.6 475.242 283.184V274.616H477.162V287H475.242V284.984ZM489.171 284.984H489.075C488.323 286.52 487.115 287.288 485.451 287.288C484.683 287.288 483.987 287.136 483.363 286.832C482.739 286.528 482.203 286.096 481.755 285.536C481.323 284.976 480.987 284.296 480.747 283.496C480.523 282.696 480.411 281.8 480.411 280.808C480.411 279.816 480.523 278.92 480.747 278.12C480.987 277.32 481.323 276.64 481.755 276.08C482.203 275.52 482.739 275.088 483.363 274.784C483.987 274.48 484.683 274.328 485.451 274.328C486.315 274.328 487.051 274.52 487.659 274.904C488.283 275.272 488.755 275.848 489.075 276.632H489.171V269.24H491.091V287H489.171V284.984ZM485.979 285.56C486.411 285.56 486.819 285.504 487.203 285.392C487.603 285.28 487.947 285.12 488.235 284.912C488.523 284.688 488.747 284.424 488.907 284.12C489.083 283.8 489.171 283.44 489.171 283.04V278.432C489.171 278.096 489.083 277.784 488.907 277.496C488.747 277.192 488.523 276.936 488.235 276.728C487.947 276.52 487.603 276.36 487.203 276.248C486.819 276.12 486.411 276.056 485.979 276.056C484.891 276.056 484.035 276.4 483.411 277.088C482.787 277.76 482.475 278.648 482.475 279.752V281.864C482.475 282.968 482.787 283.864 483.411 284.552C484.035 285.224 484.891 285.56 485.979 285.56ZM499.829 287.288C498.981 287.288 498.213 287.136 497.525 286.832C496.853 286.528 496.269 286.096 495.773 285.536C495.293 284.96 494.917 284.28 494.645 283.496C494.389 282.696 494.261 281.8 494.261 280.808C494.261 279.832 494.389 278.944 494.645 278.144C494.917 277.344 495.293 276.664 495.773 276.104C496.269 275.528 496.853 275.088 497.525 274.784C498.213 274.48 498.981 274.328 499.829 274.328C500.661 274.328 501.405 274.48 502.061 274.784C502.717 275.088 503.277 275.512 503.741 276.056C504.205 276.584 504.557 277.216 504.797 277.952C505.053 278.688 505.181 279.496 505.181 280.376V281.288H496.277V281.864C496.277 282.392 496.357 282.888 496.517 283.352C496.693 283.8 496.933 284.192 497.237 284.528C497.557 284.864 497.941 285.128 498.389 285.32C498.853 285.512 499.373 285.608 499.949 285.608C500.733 285.608 501.413 285.424 501.989 285.056C502.581 284.688 503.037 284.16 503.357 283.472L504.725 284.456C504.325 285.304 503.701 285.992 502.853 286.52C502.005 287.032 500.997 287.288 499.829 287.288ZM499.829 275.936C499.301 275.936 498.821 276.032 498.389 276.224C497.957 276.4 497.581 276.656 497.261 276.992C496.957 277.328 496.717 277.728 496.541 278.192C496.365 278.64 496.277 279.136 496.277 279.68V279.848H503.117V279.584C503.117 278.48 502.813 277.6 502.205 276.944C501.613 276.272 500.821 275.936 499.829 275.936ZM508.345 287V274.616H510.265V276.632H510.361C510.665 275.928 511.089 275.368 511.633 274.952C512.193 274.536 512.937 274.328 513.865 274.328C515.145 274.328 516.153 274.744 516.889 275.576C517.641 276.392 518.017 277.552 518.017 279.056V287H516.097V279.392C516.097 277.168 515.161 276.056 513.289 276.056C512.905 276.056 512.529 276.104 512.161 276.2C511.809 276.296 511.489 276.44 511.201 276.632C510.913 276.824 510.681 277.072 510.505 277.376C510.345 277.664 510.265 278.008 510.265 278.408V287H508.345ZM524.721 287C524.049 287 523.537 286.816 523.185 286.448C522.849 286.064 522.681 285.568 522.681 284.96V276.296H520.641V274.616H521.793C522.209 274.616 522.489 274.536 522.633 274.376C522.793 274.2 522.873 273.904 522.873 273.488V271.184H524.601V274.616H527.313V276.296H524.601V285.32H527.121V287H524.721ZM534.119 287.288C532.967 287.288 531.999 287.072 531.215 286.64C530.447 286.192 529.783 285.6 529.223 284.864L530.591 283.76C531.071 284.368 531.607 284.84 532.199 285.176C532.791 285.496 533.479 285.656 534.263 285.656C535.079 285.656 535.711 285.48 536.159 285.128C536.623 284.776 536.855 284.28 536.855 283.64C536.855 283.16 536.695 282.752 536.375 282.416C536.071 282.064 535.511 281.824 534.695 281.696L533.711 281.552C533.135 281.472 532.607 281.352 532.127 281.192C531.647 281.016 531.223 280.792 530.855 280.52C530.503 280.232 530.223 279.88 530.015 279.464C529.823 279.048 529.727 278.552 529.727 277.976C529.727 277.368 529.839 276.84 530.063 276.392C530.287 275.928 530.591 275.544 530.975 275.24C531.375 274.936 531.847 274.712 532.391 274.568C532.935 274.408 533.519 274.328 534.143 274.328C535.151 274.328 535.991 274.504 536.663 274.856C537.351 275.208 537.951 275.696 538.463 276.32L537.191 277.472C536.919 277.088 536.519 276.744 535.991 276.44C535.463 276.12 534.799 275.96 533.999 275.96C533.199 275.96 532.591 276.136 532.175 276.488C531.775 276.824 531.575 277.288 531.575 277.88C531.575 278.488 531.775 278.928 532.175 279.2C532.591 279.472 533.183 279.672 533.951 279.8L534.911 279.944C536.287 280.152 537.263 280.552 537.839 281.144C538.415 281.72 538.703 282.48 538.703 283.424C538.703 284.624 538.295 285.568 537.479 286.256C536.663 286.944 535.543 287.288 534.119 287.288ZM556.767 287C556.047 287 555.527 286.808 555.207 286.424C554.903 286.04 554.711 285.56 554.631 284.984H554.511C554.239 285.752 553.791 286.328 553.167 286.712C552.543 287.096 551.799 287.288 550.935 287.288C549.623 287.288 548.599 286.952 547.863 286.28C547.143 285.608 546.783 284.696 546.783 283.544C546.783 282.376 547.207 281.48 548.055 280.856C548.919 280.232 550.255 279.92 552.063 279.92H554.511V278.696C554.511 277.816 554.271 277.144 553.791 276.68C553.311 276.216 552.575 275.984 551.583 275.984C550.831 275.984 550.199 276.152 549.687 276.488C549.191 276.824 548.775 277.272 548.439 277.832L547.287 276.752C547.623 276.08 548.159 275.512 548.895 275.048C549.631 274.568 550.559 274.328 551.679 274.328C553.183 274.328 554.351 274.696 555.183 275.432C556.015 276.168 556.431 277.192 556.431 278.504V285.32H557.847V287H556.767ZM551.247 285.656C551.727 285.656 552.167 285.6 552.567 285.488C552.967 285.376 553.311 285.216 553.599 285.008C553.887 284.8 554.111 284.56 554.271 284.288C554.431 284.016 554.511 283.72 554.511 283.4V281.36H551.967C550.863 281.36 550.055 281.52 549.543 281.84C549.047 282.16 548.799 282.624 548.799 283.232V283.736C548.799 284.344 549.015 284.816 549.447 285.152C549.895 285.488 550.495 285.656 551.247 285.656ZM560.587 287V274.616H562.507V276.896H562.627C562.851 276.304 563.251 275.776 563.827 275.312C564.403 274.848 565.195 274.616 566.203 274.616H566.947V276.536H565.819C564.779 276.536 563.963 276.736 563.371 277.136C562.795 277.52 562.507 278.008 562.507 278.6V287H560.587ZM573.938 287.288C573.09 287.288 572.322 287.136 571.634 286.832C570.962 286.528 570.378 286.096 569.882 285.536C569.402 284.96 569.026 284.28 568.754 283.496C568.498 282.696 568.37 281.8 568.37 280.808C568.37 279.832 568.498 278.944 568.754 278.144C569.026 277.344 569.402 276.664 569.882 276.104C570.378 275.528 570.962 275.088 571.634 274.784C572.322 274.48 573.09 274.328 573.938 274.328C574.77 274.328 575.514 274.48 576.17 274.784C576.826 275.088 577.386 275.512 577.85 276.056C578.314 276.584 578.666 277.216 578.906 277.952C579.162 278.688 579.29 279.496 579.29 280.376V281.288H570.386V281.864C570.386 282.392 570.466 282.888 570.626 283.352C570.802 283.8 571.042 284.192 571.346 284.528C571.666 284.864 572.05 285.128 572.498 285.32C572.962 285.512 573.482 285.608 574.058 285.608C574.842 285.608 575.522 285.424 576.098 285.056C576.69 284.688 577.146 284.16 577.466 283.472L578.834 284.456C578.434 285.304 577.81 285.992 576.962 286.52C576.114 287.032 575.106 287.288 573.938 287.288ZM573.938 275.936C573.41 275.936 572.93 276.032 572.498 276.224C572.066 276.4 571.69 276.656 571.37 276.992C571.066 277.328 570.826 277.728 570.65 278.192C570.474 278.64 570.386 279.136 570.386 279.68V279.848H577.226V279.584C577.226 278.48 576.922 277.6 576.314 276.944C575.722 276.272 574.93 275.936 573.938 275.936ZM588.126 269.24H590.046V276.632H590.142C590.446 275.928 590.87 275.368 591.414 274.952C591.974 274.536 592.718 274.328 593.646 274.328C594.926 274.328 595.934 274.744 596.67 275.576C597.422 276.392 597.798 277.552 597.798 279.056V287H595.878V279.392C595.878 277.168 594.942 276.056 593.07 276.056C592.686 276.056 592.31 276.104 591.942 276.2C591.59 276.296 591.27 276.44 590.982 276.632C590.694 276.824 590.462 277.072 590.286 277.376C590.126 277.664 590.046 278.008 590.046 278.408V287H588.126V269.24ZM606.423 287.288C605.575 287.288 604.807 287.136 604.119 286.832C603.447 286.528 602.863 286.096 602.367 285.536C601.887 284.96 601.511 284.28 601.239 283.496C600.983 282.696 600.855 281.8 600.855 280.808C600.855 279.832 600.983 278.944 601.239 278.144C601.511 277.344 601.887 276.664 602.367 276.104C602.863 275.528 603.447 275.088 604.119 274.784C604.807 274.48 605.575 274.328 606.423 274.328C607.255 274.328 607.999 274.48 608.655 274.784C609.311 275.088 609.871 275.512 610.335 276.056C610.799 276.584 611.151 277.216 611.391 277.952C611.647 278.688 611.775 279.496 611.775 280.376V281.288H602.871V281.864C602.871 282.392 602.951 282.888 603.111 283.352C603.287 283.8 603.527 284.192 603.831 284.528C604.151 284.864 604.535 285.128 604.983 285.32C605.447 285.512 605.967 285.608 606.543 285.608C607.327 285.608 608.007 285.424 608.583 285.056C609.175 284.688 609.631 284.16 609.951 283.472L611.319 284.456C610.919 285.304 610.295 285.992 609.447 286.52C608.599 287.032 607.591 287.288 606.423 287.288ZM606.423 275.936C605.895 275.936 605.415 276.032 604.983 276.224C604.551 276.4 604.175 276.656 603.855 276.992C603.551 277.328 603.311 277.728 603.135 278.192C602.959 278.64 602.871 279.136 602.871 279.68V279.848H609.711V279.584C609.711 278.48 609.407 277.6 608.799 276.944C608.207 276.272 607.415 275.936 606.423 275.936ZM614.938 287V274.616H616.858V276.896H616.978C617.202 276.304 617.602 275.776 618.178 275.312C618.754 274.848 619.546 274.616 620.554 274.616H621.298V276.536H620.17C619.13 276.536 618.314 276.736 617.722 277.136C617.146 277.52 616.858 278.008 616.858 278.6V287H614.938ZM628.29 287.288C627.442 287.288 626.674 287.136 625.986 286.832C625.314 286.528 624.73 286.096 624.234 285.536C623.754 284.96 623.378 284.28 623.106 283.496C622.85 282.696 622.722 281.8 622.722 280.808C622.722 279.832 622.85 278.944 623.106 278.144C623.378 277.344 623.754 276.664 624.234 276.104C624.73 275.528 625.314 275.088 625.986 274.784C626.674 274.48 627.442 274.328 628.29 274.328C629.122 274.328 629.866 274.48 630.522 274.784C631.178 275.088 631.738 275.512 632.202 276.056C632.666 276.584 633.018 277.216 633.258 277.952C633.514 278.688 633.642 279.496 633.642 280.376V281.288H624.738V281.864C624.738 282.392 624.818 282.888 624.978 283.352C625.154 283.8 625.394 284.192 625.698 284.528C626.018 284.864 626.402 285.128 626.85 285.32C627.314 285.512 627.834 285.608 628.41 285.608C629.194 285.608 629.874 285.424 630.45 285.056C631.042 284.688 631.498 284.16 631.818 283.472L633.186 284.456C632.786 285.304 632.162 285.992 631.314 286.52C630.466 287.032 629.458 287.288 628.29 287.288ZM628.29 275.936C627.762 275.936 627.282 276.032 626.85 276.224C626.418 276.4 626.042 276.656 625.722 276.992C625.418 277.328 625.178 277.728 625.002 278.192C624.826 278.64 624.738 279.136 624.738 279.68V279.848H631.578V279.584C631.578 278.48 631.274 277.6 630.666 276.944C630.074 276.272 629.282 275.936 628.29 275.936ZM637.561 284.192C638.073 284.192 638.441 284.328 638.665 284.6C638.905 284.856 639.025 285.192 639.025 285.608V285.944C639.025 286.6 638.833 287.32 638.449 288.104C638.065 288.904 637.529 289.6 636.841 290.192H635.233C635.713 289.68 636.097 289.192 636.385 288.728C636.689 288.28 636.905 287.776 637.033 287.216C636.713 287.136 636.473 286.984 636.313 286.76C636.169 286.536 636.097 286.264 636.097 285.944V285.608C636.097 285.192 636.209 284.856 636.433 284.6C636.673 284.328 637.049 284.192 637.561 284.192ZM363.143 327.288C361.991 327.288 361.023 327.072 360.239 326.64C359.471 326.192 358.807 325.6 358.247 324.864L359.615 323.76C360.095 324.368 360.631 324.84 361.223 325.176C361.815 325.496 362.503 325.656 363.287 325.656C364.103 325.656 364.735 325.48 365.183 325.128C365.647 324.776 365.879 324.28 365.879 323.64C365.879 323.16 365.719 322.752 365.399 322.416C365.095 322.064 364.535 321.824 363.719 321.696L362.735 321.552C362.159 321.472 361.631 321.352 361.151 321.192C360.671 321.016 360.247 320.792 359.879 320.52C359.527 320.232 359.247 319.88 359.039 319.464C358.847 319.048 358.751 318.552 358.751 317.976C358.751 317.368 358.863 316.84 359.087 316.392C359.311 315.928 359.615 315.544 359.999 315.24C360.399 314.936 360.871 314.712 361.415 314.568C361.959 314.408 362.543 314.328 363.167 314.328C364.175 314.328 365.015 314.504 365.687 314.856C366.375 315.208 366.975 315.696 367.487 316.32L366.215 317.472C365.943 317.088 365.543 316.744 365.015 316.44C364.487 316.12 363.823 315.96 363.023 315.96C362.223 315.96 361.615 316.136 361.199 316.488C360.799 316.824 360.599 317.288 360.599 317.88C360.599 318.488 360.799 318.928 361.199 319.2C361.615 319.472 362.207 319.672 362.975 319.8L363.935 319.944C365.311 320.152 366.287 320.552 366.863 321.144C367.439 321.72 367.727 322.48 367.727 323.424C367.727 324.624 367.319 325.568 366.503 326.256C365.687 326.944 364.567 327.288 363.143 327.288ZM378.75 324.984H378.654C378.526 325.272 378.366 325.56 378.174 325.848C377.998 326.12 377.774 326.368 377.502 326.592C377.23 326.8 376.902 326.968 376.518 327.096C376.134 327.224 375.686 327.288 375.174 327.288C373.894 327.288 372.878 326.88 372.126 326.064C371.374 325.232 370.998 324.064 370.998 322.56V314.616H372.918V322.224C372.918 324.448 373.862 325.56 375.75 325.56C376.134 325.56 376.502 325.512 376.854 325.416C377.222 325.32 377.542 325.176 377.814 324.984C378.102 324.792 378.326 324.552 378.486 324.264C378.662 323.96 378.75 323.6 378.75 323.184V314.616H380.67V327H378.75V324.984ZM389.367 327.288C388.503 327.288 387.727 327.136 387.039 326.832C386.351 326.528 385.767 326.096 385.287 325.536C384.823 324.976 384.463 324.296 384.207 323.496C383.967 322.696 383.847 321.8 383.847 320.808C383.847 319.816 383.967 318.92 384.207 318.12C384.463 317.32 384.823 316.64 385.287 316.08C385.767 315.52 386.351 315.088 387.039 314.784C387.727 314.48 388.503 314.328 389.367 314.328C390.599 314.328 391.583 314.6 392.319 315.144C393.071 315.672 393.631 316.368 393.999 317.232L392.391 318.048C392.167 317.408 391.799 316.912 391.287 316.56C390.775 316.208 390.135 316.032 389.367 316.032C388.791 316.032 388.287 316.128 387.855 316.32C387.423 316.496 387.063 316.752 386.775 317.088C386.487 317.408 386.271 317.8 386.127 318.264C385.983 318.712 385.911 319.208 385.911 319.752V321.864C385.911 322.952 386.199 323.848 386.775 324.552C387.367 325.24 388.231 325.584 389.367 325.584C390.919 325.584 392.039 324.864 392.727 323.424L394.119 324.36C393.719 325.256 393.119 325.968 392.319 326.496C391.535 327.024 390.551 327.288 389.367 327.288ZM396.829 309.24H398.749V316.632H398.845C399.149 315.928 399.573 315.368 400.117 314.952C400.677 314.536 401.421 314.328 402.349 314.328C403.629 314.328 404.637 314.744 405.373 315.576C406.125 316.392 406.501 317.552 406.501 319.056V327H404.581V319.392C404.581 317.168 403.645 316.056 401.773 316.056C401.389 316.056 401.013 316.104 400.645 316.2C400.293 316.296 399.973 316.44 399.685 316.632C399.397 316.824 399.165 317.072 398.989 317.376C398.829 317.664 398.749 318.008 398.749 318.408V327H396.829V309.24ZM425.142 327C424.422 327 423.902 326.808 423.582 326.424C423.278 326.04 423.086 325.56 423.006 324.984H422.886C422.614 325.752 422.166 326.328 421.542 326.712C420.918 327.096 420.174 327.288 419.31 327.288C417.998 327.288 416.974 326.952 416.238 326.28C415.518 325.608 415.158 324.696 415.158 323.544C415.158 322.376 415.582 321.48 416.43 320.856C417.294 320.232 418.63 319.92 420.438 319.92H422.886V318.696C422.886 317.816 422.646 317.144 422.166 316.68C421.686 316.216 420.95 315.984 419.958 315.984C419.206 315.984 418.574 316.152 418.062 316.488C417.566 316.824 417.15 317.272 416.814 317.832L415.662 316.752C415.998 316.08 416.534 315.512 417.27 315.048C418.006 314.568 418.934 314.328 420.054 314.328C421.558 314.328 422.726 314.696 423.558 315.432C424.39 316.168 424.806 317.192 424.806 318.504V325.32H426.222V327H425.142ZM419.622 325.656C420.102 325.656 420.542 325.6 420.942 325.488C421.342 325.376 421.686 325.216 421.974 325.008C422.262 324.8 422.486 324.56 422.646 324.288C422.806 324.016 422.886 323.72 422.886 323.4V321.36H420.342C419.238 321.36 418.43 321.52 417.918 321.84C417.422 322.16 417.174 322.624 417.174 323.232V323.736C417.174 324.344 417.39 324.816 417.822 325.152C418.27 325.488 418.87 325.656 419.622 325.656ZM432.682 327.288C431.53 327.288 430.562 327.072 429.778 326.64C429.01 326.192 428.346 325.6 427.786 324.864L429.154 323.76C429.634 324.368 430.17 324.84 430.762 325.176C431.354 325.496 432.042 325.656 432.826 325.656C433.642 325.656 434.274 325.48 434.722 325.128C435.186 324.776 435.418 324.28 435.418 323.64C435.418 323.16 435.258 322.752 434.938 322.416C434.634 322.064 434.074 321.824 433.258 321.696L432.274 321.552C431.698 321.472 431.17 321.352 430.69 321.192C430.21 321.016 429.786 320.792 429.418 320.52C429.066 320.232 428.786 319.88 428.578 319.464C428.386 319.048 428.29 318.552 428.29 317.976C428.29 317.368 428.402 316.84 428.626 316.392C428.85 315.928 429.154 315.544 429.538 315.24C429.938 314.936 430.41 314.712 430.954 314.568C431.498 314.408 432.082 314.328 432.706 314.328C433.714 314.328 434.554 314.504 435.226 314.856C435.914 315.208 436.514 315.696 437.026 316.32L435.754 317.472C435.482 317.088 435.082 316.744 434.554 316.44C434.026 316.12 433.362 315.96 432.562 315.96C431.762 315.96 431.154 316.136 430.738 316.488C430.338 316.824 430.138 317.288 430.138 317.88C430.138 318.488 430.338 318.928 430.738 319.2C431.154 319.472 431.746 319.672 432.514 319.8L433.474 319.944C434.85 320.152 435.826 320.552 436.402 321.144C436.978 321.72 437.266 322.48 437.266 323.424C437.266 324.624 436.858 325.568 436.042 326.256C435.226 326.944 434.106 327.288 432.682 327.288Z" fill="#1D1D1F"/>
<path d="M194.814 226L190.782 213.904H174.078L170.174 226H162.814L178.046 181.328H187.134L202.366 226H194.814ZM182.59 187.984H182.27L175.806 207.696H188.99L182.59 187.984ZM221.674 187.728V226H214.442V187.728H201.13V181.328H234.986V187.728H221.674ZM255.411 205.136L249.267 212.176V226H242.035V181.328H249.267V203.984H249.523L255.923 195.856L267.955 181.328H276.403L260.467 200.144L277.683 226H268.979L255.411 205.136ZM312.786 226.768C309.032 226.768 305.832 226.085 303.186 224.72C300.584 223.355 298.344 221.52 296.466 219.216L301.458 214.544C303.037 216.464 304.765 217.915 306.642 218.896C308.562 219.877 310.738 220.368 313.17 220.368C316.029 220.368 318.184 219.728 319.634 218.448C321.085 217.168 321.81 215.44 321.81 213.264C321.81 211.515 321.298 210.128 320.274 209.104C319.25 208.08 317.437 207.312 314.834 206.8L310.866 206.096C306.514 205.285 303.25 203.856 301.074 201.808C298.898 199.76 297.81 196.944 297.81 193.36C297.81 191.397 298.173 189.627 298.898 188.048C299.666 186.427 300.712 185.083 302.034 184.016C303.4 182.907 305.042 182.053 306.962 181.456C308.882 180.859 311.037 180.56 313.426 180.56C316.797 180.56 319.72 181.157 322.194 182.352C324.669 183.504 326.781 185.189 328.53 187.408L323.474 191.888C322.322 190.395 320.914 189.2 319.25 188.304C317.586 187.408 315.517 186.96 313.042 186.96C310.482 186.96 308.498 187.472 307.09 188.496C305.682 189.52 304.978 191.013 304.978 192.976C304.978 194.853 305.554 196.261 306.706 197.2C307.858 198.096 309.65 198.779 312.082 199.248L316.05 200.08C320.53 200.933 323.794 202.384 325.842 204.432C327.933 206.48 328.978 209.296 328.978 212.88C328.978 214.971 328.616 216.869 327.89 218.576C327.165 220.283 326.098 221.755 324.69 222.992C323.325 224.187 321.64 225.125 319.634 225.808C317.629 226.448 315.346 226.768 312.786 226.768ZM357.308 220.496H357.052C356.754 221.307 356.348 222.096 355.836 222.864C355.367 223.632 354.748 224.315 353.98 224.912C353.255 225.467 352.359 225.915 351.292 226.256C350.268 226.597 349.074 226.768 347.708 226.768C344.252 226.768 341.564 225.659 339.644 223.44C337.767 221.221 336.828 218.043 336.828 213.904V192.72H343.804V213.008C343.804 218.171 345.938 220.752 350.204 220.752C351.1 220.752 351.975 220.645 352.828 220.432C353.682 220.176 354.428 219.813 355.068 219.344C355.751 218.875 356.284 218.277 356.668 217.552C357.095 216.827 357.308 215.973 357.308 214.992V192.72H364.284V226H357.308V220.496ZM374.273 178.64H381.249V198.224H381.569C382.295 196.219 383.468 194.683 385.089 193.616C386.753 192.507 388.695 191.952 390.913 191.952C395.137 191.952 398.401 193.488 400.705 196.56C403.009 199.589 404.161 203.856 404.161 209.36C404.161 214.864 403.009 219.152 400.705 222.224C398.401 225.253 395.137 226.768 390.913 226.768C388.695 226.768 386.753 226.213 385.089 225.104C383.468 223.995 382.295 222.459 381.569 220.496H381.249V226H374.273V178.64ZM388.801 220.752C391.233 220.752 393.175 219.984 394.625 218.448C396.076 216.869 396.801 214.8 396.801 212.24V206.48C396.801 203.92 396.076 201.872 394.625 200.336C393.175 198.757 391.233 197.968 388.801 197.968C386.668 197.968 384.876 198.501 383.425 199.568C381.975 200.592 381.249 201.957 381.249 203.664V215.056C381.249 216.763 381.975 218.149 383.425 219.216C384.876 220.24 386.668 220.752 388.801 220.752ZM412.148 226V192.72H419.124V198.224H419.444C419.786 197.371 420.191 196.56 420.66 195.792C421.172 195.024 421.77 194.363 422.452 193.808C423.178 193.211 424.01 192.763 424.948 192.464C425.93 192.123 427.06 191.952 428.34 191.952C430.602 191.952 432.607 192.507 434.356 193.616C436.106 194.725 437.386 196.432 438.196 198.736H438.388C438.986 196.859 440.138 195.259 441.844 193.936C443.551 192.613 445.748 191.952 448.436 191.952C451.764 191.952 454.346 193.083 456.18 195.344C458.015 197.563 458.932 200.741 458.932 204.88V226H451.956V205.712C451.956 203.152 451.466 201.232 450.484 199.952C449.503 198.629 447.946 197.968 445.812 197.968C444.916 197.968 444.063 198.096 443.252 198.352C442.442 198.565 441.716 198.907 441.076 199.376C440.479 199.845 439.988 200.443 439.604 201.168C439.22 201.893 439.028 202.725 439.028 203.664V226H432.052V205.712C432.052 200.549 430.026 197.968 425.972 197.968C425.119 197.968 424.266 198.096 423.412 198.352C422.602 198.565 421.876 198.907 421.236 199.376C420.596 199.845 420.084 200.443 419.7 201.168C419.316 201.893 419.124 202.725 419.124 203.664V226H412.148ZM472.106 186.768C470.655 186.768 469.588 186.427 468.906 185.744C468.266 185.061 467.946 184.187 467.946 183.12V182.032C467.946 180.965 468.266 180.091 468.906 179.408C469.588 178.725 470.655 178.384 472.106 178.384C473.556 178.384 474.602 178.725 475.242 179.408C475.882 180.091 476.202 180.965 476.202 182.032V183.12C476.202 184.187 475.882 185.061 475.242 185.744C474.602 186.427 473.556 186.768 472.106 186.768ZM468.586 192.72H475.562V226H468.586V192.72ZM496.083 226.768C492.926 226.768 490.281 226.213 488.147 225.104C486.014 223.995 484.158 222.459 482.579 220.496L487.059 216.4C488.297 217.893 489.662 219.067 491.155 219.92C492.691 220.731 494.462 221.136 496.467 221.136C498.515 221.136 500.03 220.752 501.011 219.984C502.035 219.173 502.547 218.064 502.547 216.656C502.547 215.589 502.185 214.693 501.459 213.968C500.777 213.2 499.561 212.709 497.811 212.496L494.739 212.112C491.326 211.685 488.638 210.704 486.675 209.168C484.755 207.589 483.795 205.264 483.795 202.192C483.795 200.571 484.094 199.141 484.691 197.904C485.289 196.624 486.121 195.557 487.187 194.704C488.297 193.808 489.598 193.125 491.091 192.656C492.627 192.187 494.313 191.952 496.147 191.952C499.134 191.952 501.566 192.421 503.443 193.36C505.363 194.299 507.07 195.6 508.563 197.264L504.275 201.36C503.422 200.336 502.291 199.461 500.883 198.736C499.518 197.968 497.939 197.584 496.147 197.584C494.227 197.584 492.798 197.968 491.859 198.736C490.963 199.504 490.515 200.507 490.515 201.744C490.515 203.024 490.921 203.984 491.731 204.624C492.542 205.264 493.843 205.733 495.635 206.032L498.707 206.416C502.377 206.971 505.043 208.059 506.707 209.68C508.414 211.259 509.267 213.392 509.267 216.08C509.267 217.701 508.947 219.173 508.307 220.496C507.71 221.776 506.835 222.885 505.683 223.824C504.531 224.763 503.145 225.488 501.523 226C499.902 226.512 498.089 226.768 496.083 226.768ZM527.333 226.768C524.176 226.768 521.531 226.213 519.397 225.104C517.264 223.995 515.408 222.459 513.829 220.496L518.309 216.4C519.547 217.893 520.912 219.067 522.405 219.92C523.941 220.731 525.712 221.136 527.717 221.136C529.765 221.136 531.28 220.752 532.261 219.984C533.285 219.173 533.797 218.064 533.797 216.656C533.797 215.589 533.435 214.693 532.709 213.968C532.027 213.2 530.811 212.709 529.061 212.496L525.989 212.112C522.576 211.685 519.888 210.704 517.925 209.168C516.005 207.589 515.045 205.264 515.045 202.192C515.045 200.571 515.344 199.141 515.941 197.904C516.539 196.624 517.371 195.557 518.437 194.704C519.547 193.808 520.848 193.125 522.341 192.656C523.877 192.187 525.563 191.952 527.397 191.952C530.384 191.952 532.816 192.421 534.693 193.36C536.613 194.299 538.32 195.6 539.813 197.264L535.525 201.36C534.672 200.336 533.541 199.461 532.133 198.736C530.768 197.968 529.189 197.584 527.397 197.584C525.477 197.584 524.048 197.968 523.109 198.736C522.213 199.504 521.765 200.507 521.765 201.744C521.765 203.024 522.171 203.984 522.981 204.624C523.792 205.264 525.093 205.733 526.885 206.032L529.957 206.416C533.627 206.971 536.293 208.059 537.957 209.68C539.664 211.259 540.517 213.392 540.517 216.08C540.517 217.701 540.197 219.173 539.557 220.496C538.96 221.776 538.085 222.885 536.933 223.824C535.781 224.763 534.395 225.488 532.773 226C531.152 226.512 529.339 226.768 527.333 226.768ZM551.918 186.768C550.468 186.768 549.401 186.427 548.718 185.744C548.078 185.061 547.758 184.187 547.758 183.12V182.032C547.758 180.965 548.078 180.091 548.718 179.408C549.401 178.725 550.468 178.384 551.918 178.384C553.369 178.384 554.414 178.725 555.054 179.408C555.694 180.091 556.014 180.965 556.014 182.032V183.12C556.014 184.187 555.694 185.061 555.054 185.744C554.414 186.427 553.369 186.768 551.918 186.768ZM548.398 192.72H555.374V226H548.398V192.72ZM578.392 226.768C576.088 226.768 573.976 226.363 572.056 225.552C570.178 224.741 568.578 223.589 567.256 222.096C565.933 220.56 564.909 218.725 564.184 216.592C563.458 214.416 563.096 212.005 563.096 209.36C563.096 206.715 563.458 204.325 564.184 202.192C564.909 200.016 565.933 198.181 567.256 196.688C568.578 195.152 570.178 193.979 572.056 193.168C573.976 192.357 576.088 191.952 578.392 191.952C580.696 191.952 582.786 192.357 584.664 193.168C586.584 193.979 588.205 195.152 589.528 196.688C590.85 198.181 591.874 200.016 592.6 202.192C593.325 204.325 593.688 206.715 593.688 209.36C593.688 212.005 593.325 214.416 592.6 216.592C591.874 218.725 590.85 220.56 589.528 222.096C588.205 223.589 586.584 224.741 584.664 225.552C582.786 226.363 580.696 226.768 578.392 226.768ZM578.392 221.008C580.781 221.008 582.701 220.283 584.152 218.832C585.602 217.339 586.328 215.12 586.328 212.176V206.544C586.328 203.6 585.602 201.403 584.152 199.952C582.701 198.459 580.781 197.712 578.392 197.712C576.002 197.712 574.082 198.459 572.632 199.952C571.181 201.403 570.456 203.6 570.456 206.544V212.176C570.456 215.12 571.181 217.339 572.632 218.832C574.082 220.283 576.002 221.008 578.392 221.008ZM601.461 226V192.72H608.437V198.224H608.757C609.482 196.432 610.57 194.939 612.021 193.744C613.514 192.549 615.541 191.952 618.101 191.952C621.514 191.952 624.159 193.083 626.037 195.344C627.957 197.563 628.917 200.741 628.917 204.88V226H621.941V205.776C621.941 200.571 619.85 197.968 615.669 197.968C614.773 197.968 613.877 198.096 612.981 198.352C612.127 198.565 611.359 198.907 610.677 199.376C609.994 199.845 609.439 200.443 609.013 201.168C608.629 201.893 608.437 202.747 608.437 203.728V226H601.461Z" fill="#1D1D1F"/>
<rect x="344" y="128" width="38" height="25" rx="6" fill="#006C6C"/>
<path d="M351.38 146V144.528H352.9V136.304H351.38V134.832H356.244V136.304H354.708V144.528H356.244V146H351.38ZM362.709 146.192C361.247 146.192 360.101 145.701 359.269 144.72C358.437 143.728 358.021 142.293 358.021 140.416C358.021 139.477 358.127 138.651 358.341 137.936C358.554 137.221 358.863 136.619 359.269 136.128C359.674 135.637 360.165 135.269 360.741 135.024C361.327 134.768 361.983 134.64 362.709 134.64C363.679 134.64 364.49 134.853 365.141 135.28C365.802 135.707 366.319 136.336 366.693 137.168L365.173 138C364.981 137.467 364.682 137.045 364.277 136.736C363.882 136.416 363.359 136.256 362.709 136.256C361.845 136.256 361.167 136.549 360.677 137.136C360.186 137.723 359.941 138.533 359.941 139.568V141.264C359.941 142.299 360.186 143.109 360.677 143.696C361.167 144.283 361.845 144.576 362.709 144.576C363.381 144.576 363.925 144.405 364.341 144.064C364.767 143.712 365.082 143.264 365.285 142.72L366.741 143.6C366.367 144.411 365.845 145.045 365.173 145.504C364.501 145.963 363.679 146.192 362.709 146.192ZM372.801 136.432V146H370.993V136.432H367.665V134.832H376.129V136.432H372.801Z" fill="white"/>
<rect x="382" y="128" width="69" height="25" rx="6" fill="#0035AD"/>
<path d="M397.225 137.456H397.145L396.265 139.264L393.817 143.728L391.369 139.264L390.489 137.456H390.409V146H388.681V134.832H390.825L393.817 140.512H393.913L396.905 134.832H398.953V146H397.225V137.456ZM407.68 146C407.221 146 406.869 145.872 406.624 145.616C406.379 145.349 406.229 145.013 406.176 144.608H406.096C405.936 145.131 405.643 145.525 405.216 145.792C404.789 146.059 404.272 146.192 403.664 146.192C402.8 146.192 402.133 145.968 401.664 145.52C401.205 145.072 400.976 144.469 400.976 143.712C400.976 142.88 401.275 142.256 401.872 141.84C402.48 141.424 403.365 141.216 404.528 141.216H406.032V140.512C406.032 140 405.893 139.605 405.616 139.328C405.339 139.051 404.907 138.912 404.32 138.912C403.829 138.912 403.429 139.019 403.12 139.232C402.811 139.445 402.549 139.717 402.336 140.048L401.296 139.104C401.573 138.635 401.963 138.251 402.464 137.952C402.965 137.643 403.621 137.488 404.432 137.488C405.509 137.488 406.336 137.739 406.912 138.24C407.488 138.741 407.776 139.461 407.776 140.4V144.576H408.656V146H407.68ZM404.16 144.864C404.704 144.864 405.152 144.747 405.504 144.512C405.856 144.267 406.032 143.941 406.032 143.536V142.336H404.56C403.355 142.336 402.752 142.709 402.752 143.456V143.744C402.752 144.117 402.875 144.4 403.12 144.592C403.376 144.773 403.723 144.864 404.16 144.864ZM410.365 134.16H412.109V139.056H412.189C412.371 138.608 412.643 138.235 413.005 137.936C413.379 137.637 413.885 137.488 414.525 137.488C415.379 137.488 416.04 137.771 416.509 138.336C416.989 138.891 417.229 139.685 417.229 140.72V146H415.485V140.928C415.485 139.637 414.963 138.992 413.917 138.992C413.693 138.992 413.469 139.024 413.245 139.088C413.032 139.141 412.84 139.227 412.669 139.344C412.499 139.461 412.36 139.611 412.253 139.792C412.157 139.973 412.109 140.181 412.109 140.416V146H410.365V134.16ZM420.526 136.192C420.164 136.192 419.897 136.107 419.726 135.936C419.566 135.765 419.486 135.547 419.486 135.28V135.008C419.486 134.741 419.566 134.523 419.726 134.352C419.897 134.181 420.164 134.096 420.526 134.096C420.889 134.096 421.15 134.181 421.31 134.352C421.47 134.523 421.55 134.741 421.55 135.008V135.28C421.55 135.547 421.47 135.765 421.31 135.936C421.15 136.107 420.889 136.192 420.526 136.192ZM419.646 137.68H421.39V146H419.646V137.68ZM429.113 144.624H429.033C428.851 145.115 428.553 145.499 428.137 145.776C427.731 146.053 427.251 146.192 426.697 146.192C425.641 146.192 424.825 145.813 424.249 145.056C423.673 144.288 423.385 143.216 423.385 141.84C423.385 140.464 423.673 139.397 424.249 138.64C424.825 137.872 425.641 137.488 426.697 137.488C427.251 137.488 427.731 137.627 428.137 137.904C428.553 138.171 428.851 138.555 429.033 139.056H429.113V134.16H430.857V146H429.113V144.624ZM427.225 144.688C427.758 144.688 428.206 144.56 428.569 144.304C428.931 144.037 429.113 143.691 429.113 143.264V140.416C429.113 139.989 428.931 139.648 428.569 139.392C428.206 139.125 427.758 138.992 427.225 138.992C426.617 138.992 426.131 139.189 425.769 139.584C425.406 139.968 425.225 140.48 425.225 141.12V142.56C425.225 143.2 425.406 143.717 425.769 144.112C426.131 144.496 426.617 144.688 427.225 144.688ZM436.614 146.192C436.038 146.192 435.51 146.091 435.03 145.888C434.56 145.685 434.16 145.397 433.83 145.024C433.499 144.64 433.243 144.181 433.062 143.648C432.88 143.104 432.79 142.501 432.79 141.84C432.79 141.179 432.88 140.581 433.062 140.048C433.243 139.504 433.499 139.045 433.83 138.672C434.16 138.288 434.56 137.995 435.03 137.792C435.51 137.589 436.038 137.488 436.614 137.488C437.19 137.488 437.712 137.589 438.182 137.792C438.662 137.995 439.067 138.288 439.398 138.672C439.728 139.045 439.984 139.504 440.166 140.048C440.347 140.581 440.438 141.179 440.438 141.84C440.438 142.501 440.347 143.104 440.166 143.648C439.984 144.181 439.728 144.64 439.398 145.024C439.067 145.397 438.662 145.685 438.182 145.888C437.712 146.091 437.19 146.192 436.614 146.192ZM436.614 144.752C437.211 144.752 437.691 144.571 438.054 144.208C438.416 143.835 438.598 143.28 438.598 142.544V141.136C438.598 140.4 438.416 139.851 438.054 139.488C437.691 139.115 437.211 138.928 436.614 138.928C436.016 138.928 435.536 139.115 435.174 139.488C434.811 139.851 434.63 140.4 434.63 141.136V142.544C434.63 143.28 434.811 143.835 435.174 144.208C435.536 144.571 436.016 144.752 436.614 144.752ZM444.157 146C443.559 146 443.111 145.851 442.813 145.552C442.525 145.243 442.381 144.816 442.381 144.272V134.16H444.125V144.576H445.277V146H444.157Z" fill="white"/>
<rect x="384" y="466" width="7" height="485" fill="#D9D9D9"/>
<rect x="374" y="366" width="26" height="101" rx="13" fill="#D9D9D9"/>
</svg>
