<svg width="795" height="951" viewBox="0 0 795 951" fill="none" xmlns="http://www.w3.org/2000/svg">
<rect width="795" height="951" rx="32" fill="white"/>
<path d="M119.069 287.288C117.709 287.288 116.549 287.032 115.589 286.52C114.629 285.992 113.813 285.272 113.141 284.36L114.629 283.112C115.221 283.896 115.877 284.496 116.597 284.912C117.317 285.312 118.165 285.512 119.141 285.512C120.341 285.512 121.253 285.224 121.877 284.648C122.517 284.072 122.837 283.304 122.837 282.344C122.837 281.544 122.597 280.928 122.117 280.496C121.637 280.064 120.845 279.72 119.741 279.464L118.373 279.152C116.837 278.8 115.661 278.272 114.845 277.568C114.045 276.848 113.645 275.84 113.645 274.544C113.645 273.808 113.781 273.152 114.053 272.576C114.325 272 114.701 271.52 115.181 271.136C115.677 270.752 116.261 270.464 116.933 270.272C117.621 270.064 118.373 269.96 119.189 269.96C120.453 269.96 121.533 270.192 122.429 270.656C123.341 271.12 124.109 271.8 124.733 272.696L123.221 273.8C122.757 273.16 122.197 272.656 121.541 272.288C120.885 271.92 120.069 271.736 119.093 271.736C118.021 271.736 117.173 271.968 116.549 272.432C115.941 272.88 115.637 273.56 115.637 274.472C115.637 275.272 115.893 275.88 116.405 276.296C116.933 276.696 117.725 277.016 118.781 277.256L120.149 277.568C121.797 277.936 122.989 278.496 123.725 279.248C124.461 280 124.829 281 124.829 282.248C124.829 283.016 124.693 283.712 124.421 284.336C124.165 284.96 123.789 285.488 123.293 285.92C122.797 286.352 122.189 286.688 121.469 286.928C120.765 287.168 119.965 287.288 119.069 287.288ZM132.774 287.288C131.926 287.288 131.158 287.136 130.47 286.832C129.798 286.528 129.214 286.096 128.718 285.536C128.238 284.96 127.862 284.28 127.59 283.496C127.334 282.696 127.206 281.8 127.206 280.808C127.206 279.832 127.334 278.944 127.59 278.144C127.862 277.344 128.238 276.664 128.718 276.104C129.214 275.528 129.798 275.088 130.47 274.784C131.158 274.48 131.926 274.328 132.774 274.328C133.606 274.328 134.35 274.48 135.006 274.784C135.662 275.088 136.222 275.512 136.686 276.056C137.15 276.584 137.502 277.216 137.742 277.952C137.998 278.688 138.126 279.496 138.126 280.376V281.288H129.222V281.864C129.222 282.392 129.302 282.888 129.462 283.352C129.638 283.8 129.878 284.192 130.182 284.528C130.502 284.864 130.886 285.128 131.334 285.32C131.798 285.512 132.318 285.608 132.894 285.608C133.678 285.608 134.358 285.424 134.934 285.056C135.526 284.688 135.982 284.16 136.302 283.472L137.67 284.456C137.27 285.304 136.646 285.992 135.798 286.52C134.95 287.032 133.942 287.288 132.774 287.288ZM132.774 275.936C132.246 275.936 131.766 276.032 131.334 276.224C130.902 276.4 130.526 276.656 130.206 276.992C129.902 277.328 129.662 277.728 129.486 278.192C129.31 278.64 129.222 279.136 129.222 279.68V279.848H136.062V279.584C136.062 278.48 135.758 277.6 135.15 276.944C134.558 276.272 133.766 275.936 132.774 275.936ZM141.29 287V274.616H143.21V276.632H143.306C143.61 275.928 144.034 275.368 144.578 274.952C145.138 274.536 145.882 274.328 146.81 274.328C148.09 274.328 149.098 274.744 149.834 275.576C150.586 276.392 150.962 277.552 150.962 279.056V287H149.042V279.392C149.042 277.168 148.106 276.056 146.234 276.056C145.85 276.056 145.474 276.104 145.106 276.2C144.754 276.296 144.434 276.44 144.146 276.632C143.858 276.824 143.626 277.072 143.45 277.376C143.29 277.664 143.21 278.008 143.21 278.408V287H141.29ZM162.851 284.984H162.755C162.003 286.52 160.795 287.288 159.131 287.288C158.363 287.288 157.667 287.136 157.043 286.832C156.419 286.528 155.883 286.096 155.435 285.536C155.003 284.976 154.667 284.296 154.427 283.496C154.203 282.696 154.091 281.8 154.091 280.808C154.091 279.816 154.203 278.92 154.427 278.12C154.667 277.32 155.003 276.64 155.435 276.08C155.883 275.52 156.419 275.088 157.043 274.784C157.667 274.48 158.363 274.328 159.131 274.328C159.995 274.328 160.731 274.52 161.339 274.904C161.963 275.272 162.435 275.848 162.755 276.632H162.851V269.24H164.771V287H162.851V284.984ZM159.659 285.56C160.091 285.56 160.499 285.504 160.883 285.392C161.283 285.28 161.627 285.12 161.915 284.912C162.203 284.688 162.427 284.424 162.587 284.12C162.763 283.8 162.851 283.44 162.851 283.04V278.432C162.851 278.096 162.763 277.784 162.587 277.496C162.427 277.192 162.203 276.936 161.915 276.728C161.627 276.52 161.283 276.36 160.883 276.248C160.499 276.12 160.091 276.056 159.659 276.056C158.571 276.056 157.715 276.4 157.091 277.088C156.467 277.76 156.155 278.648 156.155 279.752V281.864C156.155 282.968 156.467 283.864 157.091 284.552C157.715 285.224 158.571 285.56 159.659 285.56ZM177.26 287C176.588 287 176.076 286.816 175.724 286.448C175.388 286.064 175.22 285.568 175.22 284.96V276.296H173.18V274.616H174.332C174.748 274.616 175.028 274.536 175.172 274.376C175.332 274.2 175.412 273.904 175.412 273.488V271.184H177.14V274.616H179.852V276.296H177.14V285.32H179.66V287H177.26ZM182.938 269.24H184.858V276.632H184.954C185.258 275.928 185.682 275.368 186.226 274.952C186.786 274.536 187.53 274.328 188.458 274.328C189.738 274.328 190.746 274.744 191.482 275.576C192.234 276.392 192.61 277.552 192.61 279.056V287H190.69V279.392C190.69 277.168 189.754 276.056 187.882 276.056C187.498 276.056 187.122 276.104 186.754 276.2C186.402 276.296 186.082 276.44 185.794 276.632C185.506 276.824 185.274 277.072 185.098 277.376C184.938 277.664 184.858 278.008 184.858 278.408V287H182.938V269.24ZM201.235 287.288C200.387 287.288 199.619 287.136 198.931 286.832C198.259 286.528 197.675 286.096 197.179 285.536C196.699 284.96 196.323 284.28 196.051 283.496C195.795 282.696 195.667 281.8 195.667 280.808C195.667 279.832 195.795 278.944 196.051 278.144C196.323 277.344 196.699 276.664 197.179 276.104C197.675 275.528 198.259 275.088 198.931 274.784C199.619 274.48 200.387 274.328 201.235 274.328C202.067 274.328 202.811 274.48 203.467 274.784C204.123 275.088 204.683 275.512 205.147 276.056C205.611 276.584 205.963 277.216 206.203 277.952C206.459 278.688 206.587 279.496 206.587 280.376V281.288H197.683V281.864C197.683 282.392 197.763 282.888 197.923 283.352C198.099 283.8 198.339 284.192 198.643 284.528C198.963 284.864 199.347 285.128 199.795 285.32C200.259 285.512 200.779 285.608 201.355 285.608C202.139 285.608 202.819 285.424 203.395 285.056C203.987 284.688 204.443 284.16 204.763 283.472L206.131 284.456C205.731 285.304 205.107 285.992 204.259 286.52C203.411 287.032 202.403 287.288 201.235 287.288ZM201.235 275.936C200.707 275.936 200.227 276.032 199.795 276.224C199.363 276.4 198.987 276.656 198.667 276.992C198.363 277.328 198.123 277.728 197.947 278.192C197.771 278.64 197.683 279.136 197.683 279.68V279.848H204.523V279.584C204.523 278.48 204.219 277.6 203.611 276.944C203.019 276.272 202.227 275.936 201.235 275.936ZM226.103 287L224.423 282.056H217.655L215.975 287H213.935L219.791 270.248H222.359L228.215 287H226.103ZM221.087 272.12H220.967L218.135 280.28H223.919L221.087 272.12ZM235.06 272.024V287H233.044V272.024H227.716V270.248H240.388V272.024H235.06ZM247.546 278.768L245.17 281.408V287H243.154V270.248H245.17V279.152H245.242L247.642 276.248L252.706 270.248H255.178L248.938 277.424L255.61 287H253.114L247.546 278.768ZM266.581 287C265.909 287 265.397 286.816 265.045 286.448C264.709 286.064 264.541 285.568 264.541 284.96V276.296H262.501V274.616H263.653C264.069 274.616 264.349 274.536 264.493 274.376C264.653 274.2 264.733 273.904 264.733 273.488V271.184H266.461V274.616H269.173V276.296H266.461V285.32H268.981V287H266.581ZM276.821 287.288C275.973 287.288 275.205 287.136 274.517 286.832C273.845 286.528 273.261 286.096 272.765 285.536C272.285 284.96 271.909 284.28 271.637 283.496C271.381 282.696 271.253 281.8 271.253 280.808C271.253 279.832 271.381 278.944 271.637 278.144C271.909 277.344 272.285 276.664 272.765 276.104C273.261 275.528 273.845 275.088 274.517 274.784C275.205 274.48 275.973 274.328 276.821 274.328C277.653 274.328 278.397 274.48 279.053 274.784C279.709 275.088 280.269 275.512 280.733 276.056C281.197 276.584 281.549 277.216 281.789 277.952C282.045 278.688 282.173 279.496 282.173 280.376V281.288H273.269V281.864C273.269 282.392 273.349 282.888 273.509 283.352C273.685 283.8 273.925 284.192 274.229 284.528C274.549 284.864 274.933 285.128 275.381 285.32C275.845 285.512 276.365 285.608 276.941 285.608C277.725 285.608 278.405 285.424 278.981 285.056C279.573 284.688 280.029 284.16 280.349 283.472L281.717 284.456C281.317 285.304 280.693 285.992 279.845 286.52C278.997 287.032 277.989 287.288 276.821 287.288ZM276.821 275.936C276.293 275.936 275.813 276.032 275.381 276.224C274.949 276.4 274.573 276.656 274.253 276.992C273.949 277.328 273.709 277.728 273.533 278.192C273.357 278.64 273.269 279.136 273.269 279.68V279.848H280.109V279.584C280.109 278.48 279.805 277.6 279.197 276.944C278.605 276.272 277.813 275.936 276.821 275.936ZM289.057 287.288C287.905 287.288 286.937 287.072 286.153 286.64C285.385 286.192 284.721 285.6 284.161 284.864L285.529 283.76C286.009 284.368 286.545 284.84 287.137 285.176C287.729 285.496 288.417 285.656 289.201 285.656C290.017 285.656 290.649 285.48 291.097 285.128C291.561 284.776 291.793 284.28 291.793 283.64C291.793 283.16 291.633 282.752 291.313 282.416C291.009 282.064 290.449 281.824 289.633 281.696L288.649 281.552C288.073 281.472 287.545 281.352 287.065 281.192C286.585 281.016 286.161 280.792 285.793 280.52C285.441 280.232 285.161 279.88 284.953 279.464C284.761 279.048 284.665 278.552 284.665 277.976C284.665 277.368 284.777 276.84 285.001 276.392C285.225 275.928 285.529 275.544 285.913 275.24C286.313 274.936 286.785 274.712 287.329 274.568C287.873 274.408 288.457 274.328 289.081 274.328C290.089 274.328 290.929 274.504 291.601 274.856C292.289 275.208 292.889 275.696 293.401 276.32L292.129 277.472C291.857 277.088 291.457 276.744 290.929 276.44C290.401 276.12 289.737 275.96 288.937 275.96C288.137 275.96 287.529 276.136 287.113 276.488C286.713 276.824 286.513 277.288 286.513 277.88C286.513 278.488 286.713 278.928 287.113 279.2C287.529 279.472 288.121 279.672 288.889 279.8L289.849 279.944C291.225 280.152 292.201 280.552 292.777 281.144C293.353 281.72 293.641 282.48 293.641 283.424C293.641 284.624 293.233 285.568 292.417 286.256C291.601 286.944 290.481 287.288 289.057 287.288ZM299.604 287C298.932 287 298.42 286.816 298.068 286.448C297.732 286.064 297.564 285.568 297.564 284.96V276.296H295.524V274.616H296.676C297.092 274.616 297.372 274.536 297.516 274.376C297.676 274.2 297.756 273.904 297.756 273.488V271.184H299.484V274.616H302.196V276.296H299.484V285.32H302.004V287H299.604ZM310.954 287V274.616H312.874V276.896H312.994C313.218 276.304 313.618 275.776 314.194 275.312C314.77 274.848 315.562 274.616 316.57 274.616H317.314V276.536H316.186C315.146 276.536 314.33 276.736 313.738 277.136C313.162 277.52 312.874 278.008 312.874 278.6V287H310.954ZM324.305 287.288C323.457 287.288 322.689 287.136 322.001 286.832C321.329 286.528 320.745 286.096 320.249 285.536C319.769 284.96 319.393 284.28 319.121 283.496C318.865 282.696 318.737 281.8 318.737 280.808C318.737 279.832 318.865 278.944 319.121 278.144C319.393 277.344 319.769 276.664 320.249 276.104C320.745 275.528 321.329 275.088 322.001 274.784C322.689 274.48 323.457 274.328 324.305 274.328C325.137 274.328 325.881 274.48 326.537 274.784C327.193 275.088 327.753 275.512 328.217 276.056C328.681 276.584 329.033 277.216 329.273 277.952C329.529 278.688 329.657 279.496 329.657 280.376V281.288H320.753V281.864C320.753 282.392 320.833 282.888 320.993 283.352C321.169 283.8 321.409 284.192 321.713 284.528C322.033 284.864 322.417 285.128 322.865 285.32C323.329 285.512 323.849 285.608 324.425 285.608C325.209 285.608 325.889 285.424 326.465 285.056C327.057 284.688 327.513 284.16 327.833 283.472L329.201 284.456C328.801 285.304 328.177 285.992 327.329 286.52C326.481 287.032 325.473 287.288 324.305 287.288ZM324.305 275.936C323.777 275.936 323.297 276.032 322.865 276.224C322.433 276.4 322.057 276.656 321.737 276.992C321.433 277.328 321.193 277.728 321.017 278.192C320.841 278.64 320.753 279.136 320.753 279.68V279.848H327.593V279.584C327.593 278.48 327.289 277.6 326.681 276.944C326.089 276.272 325.297 275.936 324.305 275.936ZM336.541 287.288C335.389 287.288 334.421 287.072 333.637 286.64C332.869 286.192 332.205 285.6 331.645 284.864L333.013 283.76C333.493 284.368 334.029 284.84 334.621 285.176C335.213 285.496 335.901 285.656 336.685 285.656C337.501 285.656 338.133 285.48 338.581 285.128C339.045 284.776 339.277 284.28 339.277 283.64C339.277 283.16 339.117 282.752 338.797 282.416C338.493 282.064 337.933 281.824 337.117 281.696L336.133 281.552C335.557 281.472 335.029 281.352 334.549 281.192C334.069 281.016 333.645 280.792 333.277 280.52C332.925 280.232 332.645 279.88 332.437 279.464C332.245 279.048 332.149 278.552 332.149 277.976C332.149 277.368 332.261 276.84 332.485 276.392C332.709 275.928 333.013 275.544 333.397 275.24C333.797 274.936 334.269 274.712 334.813 274.568C335.357 274.408 335.941 274.328 336.565 274.328C337.573 274.328 338.413 274.504 339.085 274.856C339.773 275.208 340.373 275.696 340.885 276.32L339.613 277.472C339.341 277.088 338.941 276.744 338.413 276.44C337.885 276.12 337.221 275.96 336.421 275.96C335.621 275.96 335.013 276.136 334.597 276.488C334.197 276.824 333.997 277.288 333.997 277.88C333.997 278.488 334.197 278.928 334.597 279.2C335.013 279.472 335.605 279.672 336.373 279.8L337.333 279.944C338.709 280.152 339.685 280.552 340.261 281.144C340.837 281.72 341.125 282.48 341.125 283.424C341.125 284.624 340.717 285.568 339.901 286.256C339.085 286.944 337.965 287.288 336.541 287.288ZM352.149 284.984H352.053C351.925 285.272 351.765 285.56 351.573 285.848C351.397 286.12 351.173 286.368 350.901 286.592C350.629 286.8 350.301 286.968 349.917 287.096C349.533 287.224 349.085 287.288 348.573 287.288C347.293 287.288 346.277 286.88 345.525 286.064C344.773 285.232 344.397 284.064 344.397 282.56V274.616H346.317V282.224C346.317 284.448 347.261 285.56 349.149 285.56C349.533 285.56 349.901 285.512 350.253 285.416C350.621 285.32 350.941 285.176 351.213 284.984C351.501 284.792 351.725 284.552 351.885 284.264C352.061 283.96 352.149 283.6 352.149 283.184V274.616H354.069V287H352.149V284.984ZM360.197 287C359.525 287 359.013 286.816 358.661 286.448C358.325 286.064 358.157 285.584 358.157 285.008V269.24H360.077V285.32H361.901V287H360.197ZM367.315 287C366.643 287 366.131 286.816 365.779 286.448C365.443 286.064 365.275 285.568 365.275 284.96V276.296H363.235V274.616H364.387C364.803 274.616 365.083 274.536 365.227 274.376C365.387 274.2 365.467 273.904 365.467 273.488V271.184H367.195V274.616H369.907V276.296H367.195V285.32H369.715V287H367.315ZM381.401 287C380.729 287 380.217 286.816 379.865 286.448C379.529 286.064 379.361 285.568 379.361 284.96V276.296H377.321V274.616H378.473C378.889 274.616 379.169 274.536 379.313 274.376C379.473 274.2 379.553 273.904 379.553 273.488V271.184H381.281V274.616H383.993V276.296H381.281V285.32H383.801V287H381.401ZM391.665 287.288C390.833 287.288 390.073 287.136 389.385 286.832C388.697 286.528 388.105 286.096 387.609 285.536C387.129 284.96 386.753 284.28 386.481 283.496C386.209 282.696 386.073 281.8 386.073 280.808C386.073 279.832 386.209 278.944 386.481 278.144C386.753 277.344 387.129 276.664 387.609 276.104C388.105 275.528 388.697 275.088 389.385 274.784C390.073 274.48 390.833 274.328 391.665 274.328C392.497 274.328 393.249 274.48 393.921 274.784C394.609 275.088 395.201 275.528 395.697 276.104C396.193 276.664 396.577 277.344 396.849 278.144C397.121 278.944 397.257 279.832 397.257 280.808C397.257 281.8 397.121 282.696 396.849 283.496C396.577 284.28 396.193 284.96 395.697 285.536C395.201 286.096 394.609 286.528 393.921 286.832C393.249 287.136 392.497 287.288 391.665 287.288ZM391.665 285.584C392.705 285.584 393.553 285.264 394.209 284.624C394.865 283.984 395.193 283.008 395.193 281.696V279.92C395.193 278.608 394.865 277.632 394.209 276.992C393.553 276.352 392.705 276.032 391.665 276.032C390.625 276.032 389.777 276.352 389.121 276.992C388.465 277.632 388.137 278.608 388.137 279.92V281.696C388.137 283.008 388.465 283.984 389.121 284.624C389.777 285.264 390.625 285.584 391.665 285.584ZM406.087 269.24H408.007V276.632H408.103C408.423 275.848 408.887 275.272 409.495 274.904C410.119 274.52 410.863 274.328 411.727 274.328C412.495 274.328 413.191 274.48 413.815 274.784C414.439 275.088 414.967 275.52 415.399 276.08C415.847 276.64 416.183 277.32 416.407 278.12C416.647 278.92 416.767 279.816 416.767 280.808C416.767 281.8 416.647 282.696 416.407 283.496C416.183 284.296 415.847 284.976 415.399 285.536C414.967 286.096 414.439 286.528 413.815 286.832C413.191 287.136 412.495 287.288 411.727 287.288C410.047 287.288 408.839 286.52 408.103 284.984H408.007V287H406.087V269.24ZM411.199 285.56C412.287 285.56 413.143 285.224 413.767 284.552C414.391 283.864 414.703 282.968 414.703 281.864V279.752C414.703 278.648 414.391 277.76 413.767 277.088C413.143 276.4 412.287 276.056 411.199 276.056C410.767 276.056 410.351 276.12 409.951 276.248C409.567 276.36 409.231 276.52 408.943 276.728C408.655 276.936 408.423 277.192 408.247 277.496C408.087 277.784 408.007 278.096 408.007 278.432V283.04C408.007 283.44 408.087 283.8 408.247 284.12C408.423 284.424 408.655 284.688 408.943 284.912C409.231 285.12 409.567 285.28 409.951 285.392C410.351 285.504 410.767 285.56 411.199 285.56ZM424.665 287.288C423.817 287.288 423.049 287.136 422.361 286.832C421.689 286.528 421.105 286.096 420.609 285.536C420.129 284.96 419.753 284.28 419.481 283.496C419.225 282.696 419.097 281.8 419.097 280.808C419.097 279.832 419.225 278.944 419.481 278.144C419.753 277.344 420.129 276.664 420.609 276.104C421.105 275.528 421.689 275.088 422.361 274.784C423.049 274.48 423.817 274.328 424.665 274.328C425.497 274.328 426.241 274.48 426.897 274.784C427.553 275.088 428.113 275.512 428.577 276.056C429.041 276.584 429.393 277.216 429.633 277.952C429.889 278.688 430.017 279.496 430.017 280.376V281.288H421.113V281.864C421.113 282.392 421.193 282.888 421.353 283.352C421.529 283.8 421.769 284.192 422.073 284.528C422.393 284.864 422.777 285.128 423.225 285.32C423.689 285.512 424.209 285.608 424.785 285.608C425.569 285.608 426.249 285.424 426.825 285.056C427.417 284.688 427.873 284.16 428.193 283.472L429.561 284.456C429.161 285.304 428.537 285.992 427.689 286.52C426.841 287.032 425.833 287.288 424.665 287.288ZM424.665 275.936C424.137 275.936 423.657 276.032 423.225 276.224C422.793 276.4 422.417 276.656 422.097 276.992C421.793 277.328 421.553 277.728 421.377 278.192C421.201 278.64 421.113 279.136 421.113 279.68V279.848H427.953V279.584C427.953 278.48 427.649 277.6 427.041 276.944C426.449 276.272 425.657 275.936 424.665 275.936ZM447.853 287C447.133 287 446.613 286.808 446.293 286.424C445.989 286.04 445.797 285.56 445.717 284.984H445.597C445.325 285.752 444.877 286.328 444.253 286.712C443.629 287.096 442.885 287.288 442.021 287.288C440.709 287.288 439.685 286.952 438.949 286.28C438.229 285.608 437.869 284.696 437.869 283.544C437.869 282.376 438.293 281.48 439.141 280.856C440.005 280.232 441.341 279.92 443.148 279.92H445.597V278.696C445.597 277.816 445.357 277.144 444.877 276.68C444.397 276.216 443.661 275.984 442.669 275.984C441.917 275.984 441.285 276.152 440.773 276.488C440.277 276.824 439.861 277.272 439.525 277.832L438.373 276.752C438.709 276.08 439.245 275.512 439.98 275.048C440.717 274.568 441.645 274.328 442.765 274.328C444.269 274.328 445.437 274.696 446.269 275.432C447.101 276.168 447.517 277.192 447.517 278.504V285.32H448.932V287H447.853ZM442.333 285.656C442.813 285.656 443.253 285.6 443.653 285.488C444.053 285.376 444.397 285.216 444.685 285.008C444.973 284.8 445.197 284.56 445.357 284.288C445.517 284.016 445.597 283.72 445.597 283.4V281.36H443.053C441.949 281.36 441.141 281.52 440.629 281.84C440.133 282.16 439.885 282.624 439.885 283.232V283.736C439.885 284.344 440.101 284.816 440.533 285.152C440.981 285.488 441.581 285.656 442.333 285.656ZM451.673 269.24H453.593V276.632H453.689C454.009 275.848 454.473 275.272 455.081 274.904C455.705 274.52 456.449 274.328 457.313 274.328C458.081 274.328 458.777 274.48 459.401 274.784C460.025 275.088 460.553 275.52 460.985 276.08C461.433 276.64 461.769 277.32 461.993 278.12C462.233 278.92 462.353 279.816 462.353 280.808C462.353 281.8 462.233 282.696 461.993 283.496C461.769 284.296 461.433 284.976 460.985 285.536C460.553 286.096 460.025 286.528 459.401 286.832C458.777 287.136 458.081 287.288 457.313 287.288C455.633 287.288 454.425 286.52 453.689 284.984H453.593V287H451.673V269.24ZM456.785 285.56C457.873 285.56 458.729 285.224 459.353 284.552C459.977 283.864 460.289 282.968 460.289 281.864V279.752C460.289 278.648 459.977 277.76 459.353 277.088C458.729 276.4 457.873 276.056 456.785 276.056C456.353 276.056 455.937 276.12 455.537 276.248C455.153 276.36 454.817 276.52 454.529 276.728C454.241 276.936 454.009 277.192 453.833 277.496C453.673 277.784 453.593 278.096 453.593 278.432V283.04C453.593 283.44 453.673 283.8 453.833 284.12C454.009 284.424 454.241 284.688 454.529 284.912C454.817 285.12 455.153 285.28 455.537 285.392C455.937 285.504 456.353 285.56 456.785 285.56ZM467.635 287C466.963 287 466.451 286.816 466.099 286.448C465.763 286.064 465.595 285.584 465.595 285.008V269.24H467.515V285.32H469.339V287H467.635ZM476.79 287.288C475.942 287.288 475.174 287.136 474.486 286.832C473.814 286.528 473.23 286.096 472.734 285.536C472.254 284.96 471.878 284.28 471.606 283.496C471.35 282.696 471.222 281.8 471.222 280.808C471.222 279.832 471.35 278.944 471.606 278.144C471.878 277.344 472.254 276.664 472.734 276.104C473.23 275.528 473.814 275.088 474.486 274.784C475.174 274.48 475.942 274.328 476.79 274.328C477.622 274.328 478.366 274.48 479.022 274.784C479.678 275.088 480.238 275.512 480.702 276.056C481.166 276.584 481.518 277.216 481.758 277.952C482.014 278.688 482.142 279.496 482.142 280.376V281.288H473.238V281.864C473.238 282.392 473.318 282.888 473.478 283.352C473.654 283.8 473.894 284.192 474.198 284.528C474.518 284.864 474.902 285.128 475.35 285.32C475.814 285.512 476.334 285.608 476.91 285.608C477.694 285.608 478.374 285.424 478.95 285.056C479.542 284.688 479.998 284.16 480.318 283.472L481.686 284.456C481.286 285.304 480.662 285.992 479.814 286.52C478.966 287.032 477.958 287.288 476.79 287.288ZM476.79 275.936C476.262 275.936 475.782 276.032 475.35 276.224C474.918 276.4 474.542 276.656 474.222 276.992C473.918 277.328 473.678 277.728 473.502 278.192C473.326 278.64 473.238 279.136 473.238 279.68V279.848H480.078V279.584C480.078 278.48 479.774 277.6 479.166 276.944C478.574 276.272 477.782 275.936 476.79 275.936ZM493.714 287C493.042 287 492.53 286.816 492.178 286.448C491.842 286.064 491.674 285.568 491.674 284.96V276.296H489.634V274.616H490.786C491.202 274.616 491.482 274.536 491.626 274.376C491.786 274.2 491.866 273.904 491.866 273.488V271.184H493.594V274.616H496.306V276.296H493.594V285.32H496.114V287H493.714ZM503.978 287.288C503.146 287.288 502.386 287.136 501.698 286.832C501.01 286.528 500.418 286.096 499.922 285.536C499.442 284.96 499.066 284.28 498.794 283.496C498.522 282.696 498.386 281.8 498.386 280.808C498.386 279.832 498.522 278.944 498.794 278.144C499.066 277.344 499.442 276.664 499.922 276.104C500.418 275.528 501.01 275.088 501.698 274.784C502.386 274.48 503.146 274.328 503.978 274.328C504.81 274.328 505.562 274.48 506.234 274.784C506.922 275.088 507.514 275.528 508.01 276.104C508.506 276.664 508.89 277.344 509.162 278.144C509.434 278.944 509.57 279.832 509.57 280.808C509.57 281.8 509.434 282.696 509.162 283.496C508.89 284.28 508.506 284.96 508.01 285.536C507.514 286.096 506.922 286.528 506.234 286.832C505.562 287.136 504.81 287.288 503.978 287.288ZM503.978 285.584C505.018 285.584 505.866 285.264 506.522 284.624C507.178 283.984 507.506 283.008 507.506 281.696V279.92C507.506 278.608 507.178 277.632 506.522 276.992C505.866 276.352 505.018 276.032 503.978 276.032C502.938 276.032 502.09 276.352 501.434 276.992C500.778 277.632 500.45 278.608 500.45 279.92V281.696C500.45 283.008 500.778 283.984 501.434 284.624C502.09 285.264 502.938 285.584 503.978 285.584ZM523.007 287.288C522.143 287.288 521.367 287.136 520.679 286.832C519.991 286.528 519.407 286.096 518.927 285.536C518.463 284.976 518.103 284.296 517.847 283.496C517.607 282.696 517.487 281.8 517.487 280.808C517.487 279.816 517.607 278.92 517.847 278.12C518.103 277.32 518.463 276.64 518.927 276.08C519.407 275.52 519.991 275.088 520.679 274.784C521.367 274.48 522.143 274.328 523.007 274.328C524.239 274.328 525.223 274.6 525.959 275.144C526.711 275.672 527.271 276.368 527.639 277.232L526.031 278.048C525.807 277.408 525.439 276.912 524.927 276.56C524.415 276.208 523.775 276.032 523.007 276.032C522.431 276.032 521.927 276.128 521.495 276.32C521.063 276.496 520.703 276.752 520.415 277.088C520.127 277.408 519.911 277.8 519.767 278.264C519.623 278.712 519.551 279.208 519.551 279.752V281.864C519.551 282.952 519.839 283.848 520.415 284.552C521.007 285.24 521.871 285.584 523.007 285.584C524.559 285.584 525.679 284.864 526.367 283.424L527.759 284.36C527.359 285.256 526.759 285.968 525.959 286.496C525.175 287.024 524.191 287.288 523.007 287.288ZM530.47 269.24H532.39V276.632H532.486C532.79 275.928 533.214 275.368 533.758 274.952C534.318 274.536 535.062 274.328 535.99 274.328C537.27 274.328 538.278 274.744 539.014 275.576C539.766 276.392 540.142 277.552 540.142 279.056V287H538.222V279.392C538.222 277.168 537.286 276.056 535.414 276.056C535.03 276.056 534.654 276.104 534.286 276.2C533.934 276.296 533.614 276.44 533.326 276.632C533.038 276.824 532.806 277.072 532.63 277.376C532.47 277.664 532.39 278.008 532.39 278.408V287H530.47V269.24ZM548.766 287.288C547.918 287.288 547.15 287.136 546.462 286.832C545.79 286.528 545.206 286.096 544.71 285.536C544.23 284.96 543.854 284.28 543.582 283.496C543.326 282.696 543.198 281.8 543.198 280.808C543.198 279.832 543.326 278.944 543.582 278.144C543.854 277.344 544.23 276.664 544.71 276.104C545.206 275.528 545.79 275.088 546.462 274.784C547.15 274.48 547.918 274.328 548.766 274.328C549.598 274.328 550.342 274.48 550.998 274.784C551.654 275.088 552.214 275.512 552.678 276.056C553.142 276.584 553.494 277.216 553.734 277.952C553.99 278.688 554.118 279.496 554.118 280.376V281.288H545.214V281.864C545.214 282.392 545.294 282.888 545.454 283.352C545.63 283.8 545.87 284.192 546.174 284.528C546.494 284.864 546.878 285.128 547.326 285.32C547.79 285.512 548.31 285.608 548.886 285.608C549.67 285.608 550.35 285.424 550.926 285.056C551.518 284.688 551.974 284.16 552.294 283.472L553.662 284.456C553.262 285.304 552.638 285.992 551.79 286.52C550.942 287.032 549.934 287.288 548.766 287.288ZM548.766 275.936C548.238 275.936 547.758 276.032 547.326 276.224C546.894 276.4 546.518 276.656 546.198 276.992C545.894 277.328 545.654 277.728 545.478 278.192C545.302 278.64 545.214 279.136 545.214 279.68V279.848H552.054V279.584C552.054 278.48 551.75 277.6 551.142 276.944C550.55 276.272 549.758 275.936 548.766 275.936ZM561.89 287.288C561.026 287.288 560.25 287.136 559.562 286.832C558.874 286.528 558.29 286.096 557.81 285.536C557.346 284.976 556.986 284.296 556.73 283.496C556.49 282.696 556.37 281.8 556.37 280.808C556.37 279.816 556.49 278.92 556.73 278.12C556.986 277.32 557.346 276.64 557.81 276.08C558.29 275.52 558.874 275.088 559.562 274.784C560.25 274.48 561.026 274.328 561.89 274.328C563.122 274.328 564.106 274.6 564.842 275.144C565.594 275.672 566.154 276.368 566.522 277.232L564.914 278.048C564.69 277.408 564.322 276.912 563.81 276.56C563.298 276.208 562.658 276.032 561.89 276.032C561.314 276.032 560.81 276.128 560.378 276.32C559.946 276.496 559.586 276.752 559.298 277.088C559.01 277.408 558.794 277.8 558.65 278.264C558.506 278.712 558.434 279.208 558.434 279.752V281.864C558.434 282.952 558.722 283.848 559.298 284.552C559.89 285.24 560.754 285.584 561.89 285.584C563.442 285.584 564.562 284.864 565.25 283.424L566.642 284.36C566.242 285.256 565.642 285.968 564.842 286.496C564.058 287.024 563.074 287.288 561.89 287.288ZM569.353 269.24H571.273V280.496H571.369L573.265 278.384L576.769 274.616H579.097L574.513 279.512L579.553 287H577.225L573.121 280.688L571.273 282.584V287H569.353V269.24ZM580.547 280.736V278.672H586.811V280.736H580.547ZM591.477 271.712C591.061 271.712 590.757 271.616 590.565 271.424C590.389 271.216 590.301 270.952 590.301 270.632V270.32C590.301 270 590.389 269.744 590.565 269.552C590.757 269.344 591.061 269.24 591.477 269.24C591.893 269.24 592.189 269.344 592.365 269.552C592.557 269.744 592.653 270 592.653 270.32V270.632C592.653 270.952 592.557 271.216 592.365 271.424C592.189 271.616 591.893 271.712 591.477 271.712ZM590.517 274.616H592.437V287H590.517V274.616ZM596.517 287V274.616H598.437V276.632H598.533C598.837 275.928 599.261 275.368 599.805 274.952C600.365 274.536 601.109 274.328 602.037 274.328C603.317 274.328 604.325 274.744 605.061 275.576C605.813 276.392 606.189 277.552 606.189 279.056V287H604.269V279.392C604.269 277.168 603.333 276.056 601.461 276.056C601.077 276.056 600.701 276.104 600.333 276.2C599.981 276.296 599.661 276.44 599.373 276.632C599.085 276.824 598.853 277.072 598.677 277.376C598.517 277.664 598.437 278.008 598.437 278.408V287H596.517ZM615.829 269.24H617.749V276.632H617.845C618.165 275.848 618.629 275.272 619.237 274.904C619.861 274.52 620.605 274.328 621.469 274.328C622.237 274.328 622.933 274.48 623.557 274.784C624.181 275.088 624.709 275.52 625.141 276.08C625.589 276.64 625.925 277.32 626.149 278.12C626.389 278.92 626.509 279.816 626.509 280.808C626.509 281.8 626.389 282.696 626.149 283.496C625.925 284.296 625.589 284.976 625.141 285.536C624.709 286.096 624.181 286.528 623.557 286.832C622.933 287.136 622.237 287.288 621.469 287.288C619.789 287.288 618.581 286.52 617.845 284.984H617.749V287H615.829V269.24ZM620.941 285.56C622.029 285.56 622.885 285.224 623.509 284.552C624.133 283.864 624.445 282.968 624.445 281.864V279.752C624.445 278.648 624.133 277.76 623.509 277.088C622.885 276.4 622.029 276.056 620.941 276.056C620.509 276.056 620.093 276.12 619.693 276.248C619.309 276.36 618.973 276.52 618.685 276.728C618.397 276.936 618.165 277.192 617.989 277.496C617.829 277.784 617.749 278.096 617.749 278.432V283.04C617.749 283.44 617.829 283.8 617.989 284.12C618.165 284.424 618.397 284.688 618.685 284.912C618.973 285.12 619.309 285.28 619.693 285.392C620.093 285.504 620.509 285.56 620.941 285.56ZM634.407 287.288C633.559 287.288 632.791 287.136 632.103 286.832C631.431 286.528 630.847 286.096 630.351 285.536C629.871 284.96 629.495 284.28 629.223 283.496C628.967 282.696 628.839 281.8 628.839 280.808C628.839 279.832 628.967 278.944 629.223 278.144C629.495 277.344 629.871 276.664 630.351 276.104C630.847 275.528 631.431 275.088 632.103 274.784C632.791 274.48 633.559 274.328 634.407 274.328C635.239 274.328 635.983 274.48 636.639 274.784C637.295 275.088 637.855 275.512 638.319 276.056C638.783 276.584 639.135 277.216 639.375 277.952C639.631 278.688 639.759 279.496 639.759 280.376V281.288H630.855V281.864C630.855 282.392 630.935 282.888 631.095 283.352C631.271 283.8 631.511 284.192 631.815 284.528C632.135 284.864 632.519 285.128 632.967 285.32C633.431 285.512 633.951 285.608 634.527 285.608C635.311 285.608 635.991 285.424 636.567 285.056C637.159 284.688 637.615 284.16 637.935 283.472L639.303 284.456C638.903 285.304 638.279 285.992 637.431 286.52C636.583 287.032 635.575 287.288 634.407 287.288ZM634.407 275.936C633.879 275.936 633.399 276.032 632.967 276.224C632.535 276.4 632.159 276.656 631.839 276.992C631.535 277.328 631.295 277.728 631.119 278.192C630.943 278.64 630.855 279.136 630.855 279.68V279.848H637.695V279.584C637.695 278.48 637.391 277.6 636.783 276.944C636.191 276.272 635.399 275.936 634.407 275.936ZM643.595 276.296H641.579V274.616H643.595V272.12C643.595 271.256 643.819 270.56 644.267 270.032C644.715 269.504 645.395 269.24 646.307 269.24H648.179V270.92H645.515V274.616H648.179V276.296H645.515V287H643.595V276.296ZM655.29 287.288C654.458 287.288 653.698 287.136 653.01 286.832C652.322 286.528 651.73 286.096 651.234 285.536C650.754 284.96 650.378 284.28 650.106 283.496C649.834 282.696 649.698 281.8 649.698 280.808C649.698 279.832 649.834 278.944 650.106 278.144C650.378 277.344 650.754 276.664 651.234 276.104C651.73 275.528 652.322 275.088 653.01 274.784C653.698 274.48 654.458 274.328 655.29 274.328C656.122 274.328 656.874 274.48 657.546 274.784C658.234 275.088 658.826 275.528 659.322 276.104C659.818 276.664 660.202 277.344 660.474 278.144C660.746 278.944 660.882 279.832 660.882 280.808C660.882 281.8 660.746 282.696 660.474 283.496C660.202 284.28 659.818 284.96 659.322 285.536C658.826 286.096 658.234 286.528 657.546 286.832C656.874 287.136 656.122 287.288 655.29 287.288ZM655.29 285.584C656.33 285.584 657.178 285.264 657.834 284.624C658.49 283.984 658.818 283.008 658.818 281.696V279.92C658.818 278.608 658.49 277.632 657.834 276.992C657.178 276.352 656.33 276.032 655.29 276.032C654.25 276.032 653.402 276.352 652.746 276.992C652.09 277.632 651.762 278.608 651.762 279.92V281.696C651.762 283.008 652.09 283.984 652.746 284.624C653.402 285.264 654.25 285.584 655.29 285.584ZM664.04 287V274.616H665.96V276.896H666.08C666.304 276.304 666.704 275.776 667.28 275.312C667.856 274.848 668.648 274.616 669.656 274.616H670.4V276.536H669.272C668.232 276.536 667.416 276.736 666.824 277.136C666.248 277.52 665.96 278.008 665.96 278.6V287H664.04ZM677.391 287.288C676.543 287.288 675.775 287.136 675.087 286.832C674.415 286.528 673.831 286.096 673.335 285.536C672.855 284.96 672.479 284.28 672.207 283.496C671.951 282.696 671.823 281.8 671.823 280.808C671.823 279.832 671.951 278.944 672.207 278.144C672.479 277.344 672.855 276.664 673.335 276.104C673.831 275.528 674.415 275.088 675.087 274.784C675.775 274.48 676.543 274.328 677.391 274.328C678.223 274.328 678.967 274.48 679.623 274.784C680.279 275.088 680.839 275.512 681.303 276.056C681.767 276.584 682.119 277.216 682.359 277.952C682.615 278.688 682.743 279.496 682.743 280.376V281.288H673.839V281.864C673.839 282.392 673.919 282.888 674.079 283.352C674.255 283.8 674.495 284.192 674.799 284.528C675.119 284.864 675.503 285.128 675.951 285.32C676.415 285.512 676.935 285.608 677.511 285.608C678.295 285.608 678.975 285.424 679.551 285.056C680.143 284.688 680.599 284.16 680.919 283.472L682.287 284.456C681.887 285.304 681.263 285.992 680.415 286.52C679.567 287.032 678.559 287.288 677.391 287.288ZM677.391 275.936C676.863 275.936 676.383 276.032 675.951 276.224C675.519 276.4 675.143 276.656 674.823 276.992C674.519 277.328 674.279 277.728 674.103 278.192C673.927 278.64 673.839 279.136 673.839 279.68V279.848H680.679V279.584C680.679 278.48 680.375 277.6 679.767 276.944C679.175 276.272 678.383 275.936 677.391 275.936ZM103.958 327.288C103.11 327.288 102.342 327.136 101.654 326.832C100.982 326.528 100.398 326.096 99.9017 325.536C99.4217 324.96 99.0457 324.28 98.7737 323.496C98.5177 322.696 98.3897 321.8 98.3897 320.808C98.3897 319.832 98.5177 318.944 98.7737 318.144C99.0457 317.344 99.4217 316.664 99.9017 316.104C100.398 315.528 100.982 315.088 101.654 314.784C102.342 314.48 103.11 314.328 103.958 314.328C104.79 314.328 105.534 314.48 106.19 314.784C106.846 315.088 107.406 315.512 107.87 316.056C108.334 316.584 108.686 317.216 108.926 317.952C109.182 318.688 109.31 319.496 109.31 320.376V321.288H100.406V321.864C100.406 322.392 100.486 322.888 100.646 323.352C100.822 323.8 101.062 324.192 101.366 324.528C101.686 324.864 102.07 325.128 102.518 325.32C102.982 325.512 103.502 325.608 104.078 325.608C104.862 325.608 105.542 325.424 106.118 325.056C106.71 324.688 107.166 324.16 107.486 323.472L108.854 324.456C108.454 325.304 107.83 325.992 106.982 326.52C106.134 327.032 105.126 327.288 103.958 327.288ZM103.958 315.936C103.43 315.936 102.95 316.032 102.518 316.224C102.086 316.4 101.71 316.656 101.39 316.992C101.086 317.328 100.846 317.728 100.67 318.192C100.494 318.64 100.406 319.136 100.406 319.68V319.848H107.246V319.584C107.246 318.48 106.942 317.6 106.334 316.944C105.742 316.272 104.95 315.936 103.958 315.936ZM112.474 327V314.616H114.394V316.632H114.49C114.794 315.928 115.218 315.368 115.762 314.952C116.322 314.536 117.066 314.328 117.994 314.328C119.274 314.328 120.282 314.744 121.018 315.576C121.77 316.392 122.146 317.552 122.146 319.056V327H120.226V319.392C120.226 317.168 119.29 316.056 117.418 316.056C117.034 316.056 116.658 316.104 116.29 316.2C115.938 316.296 115.618 316.44 115.33 316.632C115.042 316.824 114.81 317.072 114.634 317.376C114.474 317.664 114.394 318.008 114.394 318.408V327H112.474ZM128.85 327C128.178 327 127.666 326.816 127.314 326.448C126.978 326.064 126.81 325.568 126.81 324.96V316.296H124.77V314.616H125.922C126.338 314.616 126.618 314.536 126.762 314.376C126.922 314.2 127.002 313.904 127.002 313.488V311.184H128.73V314.616H131.442V316.296H128.73V325.32H131.25V327H128.85ZM139.091 327.288C138.243 327.288 137.475 327.136 136.787 326.832C136.115 326.528 135.531 326.096 135.035 325.536C134.555 324.96 134.179 324.28 133.907 323.496C133.651 322.696 133.523 321.8 133.523 320.808C133.523 319.832 133.651 318.944 133.907 318.144C134.179 317.344 134.555 316.664 135.035 316.104C135.531 315.528 136.115 315.088 136.787 314.784C137.475 314.48 138.243 314.328 139.091 314.328C139.923 314.328 140.667 314.48 141.323 314.784C141.979 315.088 142.539 315.512 143.003 316.056C143.467 316.584 143.819 317.216 144.059 317.952C144.315 318.688 144.443 319.496 144.443 320.376V321.288H135.539V321.864C135.539 322.392 135.619 322.888 135.779 323.352C135.955 323.8 136.195 324.192 136.499 324.528C136.819 324.864 137.203 325.128 137.651 325.32C138.115 325.512 138.635 325.608 139.211 325.608C139.995 325.608 140.675 325.424 141.251 325.056C141.843 324.688 142.299 324.16 142.619 323.472L143.987 324.456C143.587 325.304 142.963 325.992 142.115 326.52C141.267 327.032 140.259 327.288 139.091 327.288ZM139.091 315.936C138.563 315.936 138.083 316.032 137.651 316.224C137.219 316.4 136.843 316.656 136.523 316.992C136.219 317.328 135.979 317.728 135.803 318.192C135.627 318.64 135.539 319.136 135.539 319.68V319.848H142.379V319.584C142.379 318.48 142.075 317.6 141.467 316.944C140.875 316.272 140.083 315.936 139.091 315.936ZM147.606 327V314.616H149.526V316.896H149.646C149.87 316.304 150.27 315.776 150.846 315.312C151.422 314.848 152.214 314.616 153.222 314.616H153.966V316.536H152.838C151.798 316.536 150.982 316.736 150.39 317.136C149.814 317.52 149.526 318.008 149.526 318.6V327H147.606ZM157.379 311.712C156.963 311.712 156.659 311.616 156.467 311.424C156.291 311.216 156.203 310.952 156.203 310.632V310.32C156.203 310 156.291 309.744 156.467 309.552C156.659 309.344 156.963 309.24 157.379 309.24C157.795 309.24 158.091 309.344 158.267 309.552C158.459 309.744 158.555 310 158.555 310.32V310.632C158.555 310.952 158.459 311.216 158.267 311.424C158.091 311.616 157.795 311.712 157.379 311.712ZM156.419 314.616H158.339V327H156.419V314.616ZM162.419 327V314.616H164.339V316.632H164.435C164.739 315.928 165.163 315.368 165.707 314.952C166.267 314.536 167.011 314.328 167.939 314.328C169.219 314.328 170.227 314.744 170.963 315.576C171.715 316.392 172.091 317.552 172.091 319.056V327H170.171V319.392C170.171 317.168 169.235 316.056 167.363 316.056C166.979 316.056 166.603 316.104 166.235 316.2C165.883 316.296 165.563 316.44 165.275 316.632C164.987 316.824 164.755 317.072 164.579 317.376C164.419 317.664 164.339 318.008 164.339 318.408V327H162.419ZM186.5 328.368C186.5 329.648 185.996 330.584 184.988 331.176C183.996 331.784 182.5 332.088 180.5 332.088C178.564 332.088 177.172 331.824 176.324 331.296C175.476 330.768 175.052 330.016 175.052 329.04C175.052 328.368 175.228 327.84 175.58 327.456C175.932 327.088 176.412 326.816 177.02 326.64V326.376C176.284 326.024 175.916 325.448 175.916 324.648C175.916 324.024 176.116 323.552 176.516 323.232C176.916 322.896 177.428 322.648 178.052 322.488V322.392C177.316 322.04 176.74 321.536 176.324 320.88C175.924 320.224 175.724 319.464 175.724 318.6C175.724 317.976 175.836 317.4 176.06 316.872C176.284 316.344 176.596 315.896 176.996 315.528C177.412 315.144 177.9 314.848 178.46 314.64C179.036 314.432 179.676 314.328 180.38 314.328C181.26 314.328 182.044 314.488 182.732 314.808V314.592C182.732 314.112 182.844 313.72 183.068 313.416C183.292 313.096 183.66 312.936 184.172 312.936H186.02V314.616H183.668V315.408C184.116 315.792 184.46 316.256 184.7 316.8C184.956 317.328 185.084 317.928 185.084 318.6C185.084 319.224 184.972 319.8 184.748 320.328C184.524 320.856 184.204 321.312 183.788 321.696C183.388 322.064 182.9 322.352 182.324 322.56C181.748 322.768 181.108 322.872 180.404 322.872C180.004 322.872 179.604 322.832 179.204 322.752C178.788 322.864 178.412 323.032 178.076 323.256C177.74 323.464 177.572 323.76 177.572 324.144C177.572 324.512 177.748 324.76 178.1 324.888C178.452 325.016 178.908 325.08 179.468 325.08H182.108C183.644 325.08 184.756 325.376 185.444 325.968C186.148 326.544 186.5 327.344 186.5 328.368ZM184.7 328.512C184.7 328.016 184.508 327.616 184.124 327.312C183.756 327.024 183.092 326.88 182.132 326.88H178.004C177.236 327.232 176.852 327.792 176.852 328.56C176.852 329.104 177.052 329.568 177.452 329.952C177.868 330.336 178.564 330.528 179.54 330.528H181.316C182.388 330.528 183.22 330.36 183.812 330.024C184.404 329.688 184.7 329.184 184.7 328.512ZM180.404 321.336C181.22 321.336 181.868 321.144 182.348 320.76C182.828 320.36 183.068 319.752 183.068 318.936V318.264C183.068 317.448 182.828 316.848 182.348 316.464C181.868 316.064 181.22 315.864 180.404 315.864C179.588 315.864 178.94 316.064 178.46 316.464C177.98 316.848 177.74 317.448 177.74 318.264V318.936C177.74 319.752 177.98 320.36 178.46 320.76C178.94 321.144 179.588 321.336 180.404 321.336ZM197.147 327C196.475 327 195.963 326.816 195.611 326.448C195.275 326.064 195.107 325.568 195.107 324.96V316.296H193.067V314.616H194.219C194.635 314.616 194.915 314.536 195.059 314.376C195.219 314.2 195.299 313.904 195.299 313.488V311.184H197.027V314.616H199.739V316.296H197.027V325.32H199.547V327H197.147ZM202.825 309.24H204.745V316.632H204.841C205.145 315.928 205.569 315.368 206.113 314.952C206.673 314.536 207.417 314.328 208.345 314.328C209.625 314.328 210.633 314.744 211.369 315.576C212.121 316.392 212.497 317.552 212.497 319.056V327H210.577V319.392C210.577 317.168 209.641 316.056 207.769 316.056C207.385 316.056 207.009 316.104 206.641 316.2C206.289 316.296 205.969 316.44 205.681 316.632C205.393 316.824 205.161 317.072 204.985 317.376C204.825 317.664 204.745 318.008 204.745 318.408V327H202.825V309.24ZM221.122 327.288C220.274 327.288 219.506 327.136 218.818 326.832C218.146 326.528 217.562 326.096 217.066 325.536C216.586 324.96 216.21 324.28 215.938 323.496C215.682 322.696 215.554 321.8 215.554 320.808C215.554 319.832 215.682 318.944 215.938 318.144C216.21 317.344 216.586 316.664 217.066 316.104C217.562 315.528 218.146 315.088 218.818 314.784C219.506 314.48 220.274 314.328 221.122 314.328C221.954 314.328 222.698 314.48 223.354 314.784C224.01 315.088 224.57 315.512 225.034 316.056C225.498 316.584 225.85 317.216 226.09 317.952C226.346 318.688 226.474 319.496 226.474 320.376V321.288H217.57V321.864C217.57 322.392 217.65 322.888 217.81 323.352C217.986 323.8 218.226 324.192 218.53 324.528C218.85 324.864 219.234 325.128 219.682 325.32C220.146 325.512 220.666 325.608 221.242 325.608C222.026 325.608 222.706 325.424 223.282 325.056C223.874 324.688 224.33 324.16 224.65 323.472L226.018 324.456C225.618 325.304 224.994 325.992 224.146 326.52C223.298 327.032 222.29 327.288 221.122 327.288ZM221.122 315.936C220.594 315.936 220.114 316.032 219.682 316.224C219.25 316.4 218.874 316.656 218.554 316.992C218.25 317.328 218.01 317.728 217.834 318.192C217.658 318.64 217.57 319.136 217.57 319.68V319.848H224.41V319.584C224.41 318.48 224.106 317.6 223.498 316.944C222.906 316.272 222.114 315.936 221.122 315.936ZM235.31 309.24H237.23V316.632H237.326C237.646 315.848 238.11 315.272 238.718 314.904C239.342 314.52 240.086 314.328 240.95 314.328C241.718 314.328 242.414 314.48 243.038 314.784C243.662 315.088 244.19 315.52 244.622 316.08C245.07 316.64 245.406 317.32 245.63 318.12C245.87 318.92 245.99 319.816 245.99 320.808C245.99 321.8 245.87 322.696 245.63 323.496C245.406 324.296 245.07 324.976 244.622 325.536C244.19 326.096 243.662 326.528 243.038 326.832C242.414 327.136 241.718 327.288 240.95 327.288C239.27 327.288 238.062 326.52 237.326 324.984H237.23V327H235.31V309.24ZM240.422 325.56C241.51 325.56 242.366 325.224 242.99 324.552C243.614 323.864 243.926 322.968 243.926 321.864V319.752C243.926 318.648 243.614 317.76 242.99 317.088C242.366 316.4 241.51 316.056 240.422 316.056C239.99 316.056 239.574 316.12 239.174 316.248C238.79 316.36 238.454 316.52 238.166 316.728C237.878 316.936 237.646 317.192 237.47 317.496C237.31 317.784 237.23 318.096 237.23 318.432V323.04C237.23 323.44 237.31 323.8 237.47 324.12C237.646 324.424 237.878 324.688 238.166 324.912C238.454 325.12 238.79 325.28 239.174 325.392C239.574 325.504 239.99 325.56 240.422 325.56ZM256.863 324.984H256.767C256.639 325.272 256.479 325.56 256.287 325.848C256.111 326.12 255.887 326.368 255.615 326.592C255.343 326.8 255.015 326.968 254.631 327.096C254.247 327.224 253.799 327.288 253.287 327.288C252.007 327.288 250.991 326.88 250.239 326.064C249.487 325.232 249.111 324.064 249.111 322.56V314.616H251.031V322.224C251.031 324.448 251.975 325.56 253.863 325.56C254.247 325.56 254.615 325.512 254.967 325.416C255.335 325.32 255.655 325.176 255.927 324.984C256.215 324.792 256.439 324.552 256.599 324.264C256.775 323.96 256.863 323.6 256.863 323.184V314.616H258.783V327H256.863V324.984ZM263.832 311.712C263.416 311.712 263.112 311.616 262.92 311.424C262.744 311.216 262.656 310.952 262.656 310.632V310.32C262.656 310 262.744 309.744 262.92 309.552C263.112 309.344 263.416 309.24 263.832 309.24C264.248 309.24 264.544 309.344 264.72 309.552C264.912 309.744 265.008 310 265.008 310.32V310.632C265.008 310.952 264.912 311.216 264.72 311.424C264.544 311.616 264.248 311.712 263.832 311.712ZM262.872 314.616H264.792V327H262.872V314.616ZM270.912 327C270.24 327 269.728 326.816 269.376 326.448C269.04 326.064 268.872 325.584 268.872 325.008V309.24H270.792V325.32H272.616V327H270.912ZM283.331 324.984H283.235C282.483 326.52 281.275 327.288 279.611 327.288C278.843 327.288 278.147 327.136 277.523 326.832C276.899 326.528 276.363 326.096 275.915 325.536C275.483 324.976 275.147 324.296 274.907 323.496C274.683 322.696 274.571 321.8 274.571 320.808C274.571 319.816 274.683 318.92 274.907 318.12C275.147 317.32 275.483 316.64 275.915 316.08C276.363 315.52 276.899 315.088 277.523 314.784C278.147 314.48 278.843 314.328 279.611 314.328C280.475 314.328 281.211 314.52 281.819 314.904C282.443 315.272 282.915 315.848 283.235 316.632H283.331V309.24H285.251V327H283.331V324.984ZM280.139 325.56C280.571 325.56 280.979 325.504 281.363 325.392C281.763 325.28 282.107 325.12 282.395 324.912C282.683 324.688 282.907 324.424 283.067 324.12C283.243 323.8 283.331 323.44 283.331 323.04V318.432C283.331 318.096 283.243 317.784 283.067 317.496C282.907 317.192 282.683 316.936 282.395 316.728C282.107 316.52 281.763 316.36 281.363 316.248C280.979 316.12 280.571 316.056 280.139 316.056C279.051 316.056 278.195 316.4 277.571 317.088C276.947 317.76 276.635 318.648 276.635 319.752V321.864C276.635 322.968 276.947 323.864 277.571 324.552C278.195 325.224 279.051 325.56 280.139 325.56ZM290.293 311.712C289.877 311.712 289.573 311.616 289.381 311.424C289.205 311.216 289.117 310.952 289.117 310.632V310.32C289.117 310 289.205 309.744 289.381 309.552C289.573 309.344 289.877 309.24 290.293 309.24C290.709 309.24 291.005 309.344 291.181 309.552C291.373 309.744 291.469 310 291.469 310.32V310.632C291.469 310.952 291.373 311.216 291.181 311.424C291.005 311.616 290.709 311.712 290.293 311.712ZM289.333 314.616H291.253V327H289.333V314.616ZM295.333 327V314.616H297.253V316.632H297.349C297.653 315.928 298.077 315.368 298.621 314.952C299.181 314.536 299.925 314.328 300.853 314.328C302.133 314.328 303.141 314.744 303.877 315.576C304.629 316.392 305.005 317.552 305.005 319.056V327H303.085V319.392C303.085 317.168 302.149 316.056 300.277 316.056C299.893 316.056 299.517 316.104 299.149 316.2C298.797 316.296 298.477 316.44 298.189 316.632C297.901 316.824 297.669 317.072 297.493 317.376C297.333 317.664 297.253 318.008 297.253 318.408V327H295.333ZM319.414 328.368C319.414 329.648 318.91 330.584 317.902 331.176C316.91 331.784 315.414 332.088 313.414 332.088C311.478 332.088 310.086 331.824 309.238 331.296C308.39 330.768 307.966 330.016 307.966 329.04C307.966 328.368 308.142 327.84 308.494 327.456C308.846 327.088 309.326 326.816 309.934 326.64V326.376C309.198 326.024 308.83 325.448 308.83 324.648C308.83 324.024 309.03 323.552 309.43 323.232C309.83 322.896 310.342 322.648 310.966 322.488V322.392C310.23 322.04 309.654 321.536 309.238 320.88C308.838 320.224 308.638 319.464 308.638 318.6C308.638 317.976 308.75 317.4 308.974 316.872C309.198 316.344 309.51 315.896 309.91 315.528C310.326 315.144 310.814 314.848 311.374 314.64C311.95 314.432 312.59 314.328 313.294 314.328C314.174 314.328 314.958 314.488 315.646 314.808V314.592C315.646 314.112 315.758 313.72 315.982 313.416C316.206 313.096 316.574 312.936 317.086 312.936H318.934V314.616H316.582V315.408C317.03 315.792 317.374 316.256 317.614 316.8C317.87 317.328 317.998 317.928 317.998 318.6C317.998 319.224 317.886 319.8 317.662 320.328C317.438 320.856 317.118 321.312 316.702 321.696C316.302 322.064 315.814 322.352 315.238 322.56C314.662 322.768 314.022 322.872 313.318 322.872C312.918 322.872 312.518 322.832 312.118 322.752C311.702 322.864 311.326 323.032 310.99 323.256C310.654 323.464 310.486 323.76 310.486 324.144C310.486 324.512 310.662 324.76 311.014 324.888C311.366 325.016 311.822 325.08 312.382 325.08H315.022C316.558 325.08 317.67 325.376 318.358 325.968C319.062 326.544 319.414 327.344 319.414 328.368ZM317.614 328.512C317.614 328.016 317.422 327.616 317.038 327.312C316.67 327.024 316.006 326.88 315.046 326.88H310.918C310.15 327.232 309.766 327.792 309.766 328.56C309.766 329.104 309.966 329.568 310.366 329.952C310.782 330.336 311.478 330.528 312.454 330.528H314.23C315.302 330.528 316.134 330.36 316.726 330.024C317.318 329.688 317.614 329.184 317.614 328.512ZM313.318 321.336C314.134 321.336 314.782 321.144 315.262 320.76C315.742 320.36 315.982 319.752 315.982 318.936V318.264C315.982 317.448 315.742 316.848 315.262 316.464C314.782 316.064 314.134 315.864 313.318 315.864C312.502 315.864 311.854 316.064 311.374 316.464C310.894 316.848 310.654 317.448 310.654 318.264V318.936C310.654 319.752 310.894 320.36 311.374 320.76C311.854 321.144 312.502 321.336 313.318 321.336ZM330.061 327C329.389 327 328.877 326.816 328.525 326.448C328.189 326.064 328.021 325.568 328.021 324.96V316.296H325.981V314.616H327.133C327.549 314.616 327.829 314.536 327.973 314.376C328.133 314.2 328.213 313.904 328.213 313.488V311.184H329.941V314.616H332.653V316.296H329.941V325.32H332.461V327H330.061ZM340.325 327.288C339.493 327.288 338.733 327.136 338.045 326.832C337.357 326.528 336.765 326.096 336.269 325.536C335.789 324.96 335.413 324.28 335.141 323.496C334.869 322.696 334.733 321.8 334.733 320.808C334.733 319.832 334.869 318.944 335.141 318.144C335.413 317.344 335.789 316.664 336.269 316.104C336.765 315.528 337.357 315.088 338.045 314.784C338.733 314.48 339.493 314.328 340.325 314.328C341.157 314.328 341.909 314.48 342.581 314.784C343.269 315.088 343.861 315.528 344.357 316.104C344.853 316.664 345.237 317.344 345.509 318.144C345.781 318.944 345.917 319.832 345.917 320.808C345.917 321.8 345.781 322.696 345.509 323.496C345.237 324.28 344.853 324.96 344.357 325.536C343.861 326.096 343.269 326.528 342.581 326.832C341.909 327.136 341.157 327.288 340.325 327.288ZM340.325 325.584C341.365 325.584 342.213 325.264 342.869 324.624C343.525 323.984 343.853 323.008 343.853 321.696V319.92C343.853 318.608 343.525 317.632 342.869 316.992C342.213 316.352 341.365 316.032 340.325 316.032C339.285 316.032 338.437 316.352 337.781 316.992C337.125 317.632 336.797 318.608 336.797 319.92V321.696C336.797 323.008 337.125 323.984 337.781 324.624C338.437 325.264 339.285 325.584 340.325 325.584ZM354.747 314.616H356.667V316.632H356.763C357.083 315.848 357.547 315.272 358.155 314.904C358.779 314.52 359.523 314.328 360.387 314.328C361.155 314.328 361.851 314.48 362.475 314.784C363.099 315.088 363.627 315.52 364.059 316.08C364.507 316.64 364.843 317.32 365.067 318.12C365.307 318.92 365.427 319.816 365.427 320.808C365.427 321.8 365.307 322.696 365.067 323.496C364.843 324.296 364.507 324.976 364.059 325.536C363.627 326.096 363.099 326.528 362.475 326.832C361.851 327.136 361.155 327.288 360.387 327.288C358.707 327.288 357.499 326.52 356.763 324.984H356.667V331.8H354.747V314.616ZM359.859 325.56C360.947 325.56 361.803 325.224 362.427 324.552C363.051 323.864 363.363 322.968 363.363 321.864V319.752C363.363 318.648 363.051 317.76 362.427 317.088C361.803 316.4 360.947 316.056 359.859 316.056C359.427 316.056 359.011 316.12 358.611 316.248C358.227 316.36 357.891 316.52 357.603 316.728C357.315 316.936 357.083 317.192 356.907 317.496C356.747 317.784 356.667 318.096 356.667 318.432V323.04C356.667 323.44 356.747 323.8 356.907 324.12C357.083 324.424 357.315 324.688 357.603 324.912C357.891 325.12 358.227 325.28 358.611 325.392C359.011 325.504 359.427 325.56 359.859 325.56ZM368.669 327V314.616H370.589V316.896H370.709C370.933 316.304 371.333 315.776 371.909 315.312C372.485 314.848 373.277 314.616 374.285 314.616H375.029V316.536H373.901C372.861 316.536 372.045 316.736 371.453 317.136C370.877 317.52 370.589 318.008 370.589 318.6V327H368.669ZM382.02 327.288C381.172 327.288 380.404 327.136 379.716 326.832C379.044 326.528 378.46 326.096 377.964 325.536C377.484 324.96 377.108 324.28 376.836 323.496C376.58 322.696 376.452 321.8 376.452 320.808C376.452 319.832 376.58 318.944 376.836 318.144C377.108 317.344 377.484 316.664 377.964 316.104C378.46 315.528 379.044 315.088 379.716 314.784C380.404 314.48 381.172 314.328 382.02 314.328C382.852 314.328 383.596 314.48 384.252 314.784C384.908 315.088 385.468 315.512 385.932 316.056C386.396 316.584 386.748 317.216 386.988 317.952C387.244 318.688 387.372 319.496 387.372 320.376V321.288H378.468V321.864C378.468 322.392 378.548 322.888 378.708 323.352C378.884 323.8 379.124 324.192 379.428 324.528C379.748 324.864 380.132 325.128 380.58 325.32C381.044 325.512 381.564 325.608 382.14 325.608C382.924 325.608 383.604 325.424 384.18 325.056C384.772 324.688 385.228 324.16 385.548 323.472L386.916 324.456C386.516 325.304 385.892 325.992 385.044 326.52C384.196 327.032 383.188 327.288 382.02 327.288ZM382.02 315.936C381.492 315.936 381.012 316.032 380.58 316.224C380.148 316.4 379.772 316.656 379.452 316.992C379.148 317.328 378.908 317.728 378.732 318.192C378.556 318.64 378.468 319.136 378.468 319.68V319.848H385.308V319.584C385.308 318.48 385.004 317.6 384.396 316.944C383.804 316.272 383.012 315.936 382.02 315.936ZM393.085 327L388.741 314.616H390.661L392.821 320.76L394.165 324.984H394.285L395.629 320.76L397.837 314.616H399.685L395.317 327H393.085ZM406.63 327.288C405.782 327.288 405.014 327.136 404.326 326.832C403.654 326.528 403.07 326.096 402.574 325.536C402.094 324.96 401.718 324.28 401.446 323.496C401.19 322.696 401.062 321.8 401.062 320.808C401.062 319.832 401.19 318.944 401.446 318.144C401.718 317.344 402.094 316.664 402.574 316.104C403.07 315.528 403.654 315.088 404.326 314.784C405.014 314.48 405.782 314.328 406.63 314.328C407.462 314.328 408.206 314.48 408.862 314.784C409.518 315.088 410.078 315.512 410.542 316.056C411.006 316.584 411.358 317.216 411.598 317.952C411.854 318.688 411.982 319.496 411.982 320.376V321.288H403.078V321.864C403.078 322.392 403.158 322.888 403.318 323.352C403.494 323.8 403.734 324.192 404.038 324.528C404.358 324.864 404.742 325.128 405.19 325.32C405.654 325.512 406.174 325.608 406.75 325.608C407.534 325.608 408.214 325.424 408.79 325.056C409.382 324.688 409.838 324.16 410.158 323.472L411.526 324.456C411.126 325.304 410.502 325.992 409.654 326.52C408.806 327.032 407.798 327.288 406.63 327.288ZM406.63 315.936C406.102 315.936 405.622 316.032 405.19 316.224C404.758 316.4 404.382 316.656 404.062 316.992C403.758 317.328 403.518 317.728 403.342 318.192C403.166 318.64 403.078 319.136 403.078 319.68V319.848H409.918V319.584C409.918 318.48 409.614 317.6 409.006 316.944C408.414 316.272 407.622 315.936 406.63 315.936ZM415.145 327V314.616H417.065V316.632H417.161C417.465 315.928 417.889 315.368 418.433 314.952C418.993 314.536 419.737 314.328 420.665 314.328C421.945 314.328 422.953 314.744 423.689 315.576C424.441 316.392 424.817 317.552 424.817 319.056V327H422.897V319.392C422.897 317.168 421.961 316.056 420.089 316.056C419.705 316.056 419.329 316.104 418.961 316.2C418.609 316.296 418.289 316.44 418.001 316.632C417.713 316.824 417.481 317.072 417.305 317.376C417.145 317.664 417.065 318.008 417.065 318.408V327H415.145ZM431.522 327C430.85 327 430.338 326.816 429.986 326.448C429.65 326.064 429.482 325.568 429.482 324.96V316.296H427.442V314.616H428.594C429.01 314.616 429.29 314.536 429.434 314.376C429.594 314.2 429.674 313.904 429.674 313.488V311.184H431.402V314.616H434.114V316.296H431.402V325.32H433.922V327H431.522ZM445.608 327C444.936 327 444.424 326.816 444.072 326.448C443.736 326.064 443.568 325.568 443.568 324.96V316.296H441.528V314.616H442.68C443.096 314.616 443.376 314.536 443.52 314.376C443.68 314.2 443.76 313.904 443.76 313.488V311.184H445.488V314.616H448.2V316.296H445.488V325.32H448.008V327H445.608ZM451.286 309.24H453.206V316.632H453.302C453.606 315.928 454.03 315.368 454.574 314.952C455.134 314.536 455.878 314.328 456.806 314.328C458.086 314.328 459.094 314.744 459.83 315.576C460.582 316.392 460.958 317.552 460.958 319.056V327H459.038V319.392C459.038 317.168 458.102 316.056 456.23 316.056C455.846 316.056 455.47 316.104 455.102 316.2C454.75 316.296 454.43 316.44 454.142 316.632C453.854 316.824 453.622 317.072 453.446 317.376C453.286 317.664 453.206 318.008 453.206 318.408V327H451.286V309.24ZM469.583 327.288C468.735 327.288 467.967 327.136 467.279 326.832C466.607 326.528 466.023 326.096 465.527 325.536C465.047 324.96 464.671 324.28 464.399 323.496C464.143 322.696 464.015 321.8 464.015 320.808C464.015 319.832 464.143 318.944 464.399 318.144C464.671 317.344 465.047 316.664 465.527 316.104C466.023 315.528 466.607 315.088 467.279 314.784C467.967 314.48 468.735 314.328 469.583 314.328C470.415 314.328 471.159 314.48 471.815 314.784C472.471 315.088 473.031 315.512 473.495 316.056C473.959 316.584 474.311 317.216 474.551 317.952C474.807 318.688 474.935 319.496 474.935 320.376V321.288H466.031V321.864C466.031 322.392 466.111 322.888 466.271 323.352C466.447 323.8 466.687 324.192 466.991 324.528C467.311 324.864 467.695 325.128 468.143 325.32C468.607 325.512 469.127 325.608 469.703 325.608C470.487 325.608 471.167 325.424 471.743 325.056C472.335 324.688 472.791 324.16 473.111 323.472L474.479 324.456C474.079 325.304 473.455 325.992 472.607 326.52C471.759 327.032 470.751 327.288 469.583 327.288ZM469.583 315.936C469.055 315.936 468.575 316.032 468.143 316.224C467.711 316.4 467.335 316.656 467.015 316.992C466.711 317.328 466.471 317.728 466.295 318.192C466.119 318.64 466.031 319.136 466.031 319.68V319.848H472.871V319.584C472.871 318.48 472.567 317.6 471.959 316.944C471.367 316.272 470.575 315.936 469.583 315.936ZM487.49 327.288C486.338 327.288 485.37 327.072 484.586 326.64C483.818 326.192 483.154 325.6 482.594 324.864L483.962 323.76C484.442 324.368 484.978 324.84 485.57 325.176C486.162 325.496 486.85 325.656 487.634 325.656C488.45 325.656 489.082 325.48 489.53 325.128C489.994 324.776 490.226 324.28 490.226 323.64C490.226 323.16 490.066 322.752 489.746 322.416C489.442 322.064 488.882 321.824 488.066 321.696L487.082 321.552C486.506 321.472 485.978 321.352 485.498 321.192C485.018 321.016 484.594 320.792 484.226 320.52C483.874 320.232 483.594 319.88 483.386 319.464C483.194 319.048 483.098 318.552 483.098 317.976C483.098 317.368 483.21 316.84 483.434 316.392C483.658 315.928 483.962 315.544 484.346 315.24C484.746 314.936 485.218 314.712 485.762 314.568C486.306 314.408 486.89 314.328 487.514 314.328C488.522 314.328 489.362 314.504 490.034 314.856C490.722 315.208 491.322 315.696 491.834 316.32L490.562 317.472C490.29 317.088 489.89 316.744 489.362 316.44C488.834 316.12 488.17 315.96 487.37 315.96C486.57 315.96 485.962 316.136 485.546 316.488C485.146 316.824 484.946 317.288 484.946 317.88C484.946 318.488 485.146 318.928 485.546 319.2C485.962 319.472 486.554 319.672 487.322 319.8L488.282 319.944C489.658 320.152 490.634 320.552 491.21 321.144C491.786 321.72 492.074 322.48 492.074 323.424C492.074 324.624 491.666 325.568 490.85 326.256C490.034 326.944 488.914 327.288 487.49 327.288ZM495.466 314.616H497.386V316.632H497.482C497.802 315.848 498.266 315.272 498.874 314.904C499.498 314.52 500.242 314.328 501.106 314.328C501.874 314.328 502.57 314.48 503.194 314.784C503.818 315.088 504.346 315.52 504.778 316.08C505.226 316.64 505.562 317.32 505.786 318.12C506.026 318.92 506.146 319.816 506.146 320.808C506.146 321.8 506.026 322.696 505.786 323.496C505.562 324.296 505.226 324.976 504.778 325.536C504.346 326.096 503.818 326.528 503.194 326.832C502.57 327.136 501.874 327.288 501.106 327.288C499.426 327.288 498.218 326.52 497.482 324.984H497.386V331.8H495.466V314.616ZM500.578 325.56C501.666 325.56 502.522 325.224 503.146 324.552C503.77 323.864 504.082 322.968 504.082 321.864V319.752C504.082 318.648 503.77 317.76 503.146 317.088C502.522 316.4 501.666 316.056 500.578 316.056C500.146 316.056 499.73 316.12 499.33 316.248C498.946 316.36 498.61 316.52 498.322 316.728C498.034 316.936 497.802 317.192 497.626 317.496C497.466 317.784 497.386 318.096 497.386 318.432V323.04C497.386 323.44 497.466 323.8 497.626 324.12C497.802 324.424 498.034 324.688 498.322 324.912C498.61 325.12 498.946 325.28 499.33 325.392C499.73 325.504 500.146 325.56 500.578 325.56ZM509.388 327V314.616H511.308V316.896H511.428C511.652 316.304 512.052 315.776 512.628 315.312C513.204 314.848 513.996 314.616 515.004 314.616H515.748V316.536H514.62C513.58 316.536 512.764 316.736 512.172 317.136C511.596 317.52 511.308 318.008 511.308 318.6V327H509.388ZM522.739 327.288C521.891 327.288 521.123 327.136 520.435 326.832C519.763 326.528 519.179 326.096 518.683 325.536C518.203 324.96 517.827 324.28 517.555 323.496C517.299 322.696 517.171 321.8 517.171 320.808C517.171 319.832 517.299 318.944 517.555 318.144C517.827 317.344 518.203 316.664 518.683 316.104C519.179 315.528 519.763 315.088 520.435 314.784C521.123 314.48 521.891 314.328 522.739 314.328C523.571 314.328 524.315 314.48 524.971 314.784C525.627 315.088 526.187 315.512 526.651 316.056C527.115 316.584 527.467 317.216 527.707 317.952C527.963 318.688 528.091 319.496 528.091 320.376V321.288H519.187V321.864C519.187 322.392 519.267 322.888 519.427 323.352C519.603 323.8 519.843 324.192 520.147 324.528C520.467 324.864 520.851 325.128 521.299 325.32C521.763 325.512 522.283 325.608 522.859 325.608C523.643 325.608 524.323 325.424 524.899 325.056C525.491 324.688 525.947 324.16 526.267 323.472L527.635 324.456C527.235 325.304 526.611 325.992 525.763 326.52C524.915 327.032 523.907 327.288 522.739 327.288ZM522.739 315.936C522.211 315.936 521.731 316.032 521.299 316.224C520.867 316.4 520.491 316.656 520.171 316.992C519.867 317.328 519.627 317.728 519.451 318.192C519.275 318.64 519.187 319.136 519.187 319.68V319.848H526.027V319.584C526.027 318.48 525.723 317.6 525.115 316.944C524.523 316.272 523.731 315.936 522.739 315.936ZM540.255 327C539.535 327 539.015 326.808 538.695 326.424C538.391 326.04 538.199 325.56 538.119 324.984H537.999C537.727 325.752 537.279 326.328 536.655 326.712C536.031 327.096 535.287 327.288 534.423 327.288C533.111 327.288 532.087 326.952 531.351 326.28C530.631 325.608 530.271 324.696 530.271 323.544C530.271 322.376 530.695 321.48 531.543 320.856C532.407 320.232 533.743 319.92 535.551 319.92H537.999V318.696C537.999 317.816 537.759 317.144 537.279 316.68C536.799 316.216 536.063 315.984 535.071 315.984C534.319 315.984 533.687 316.152 533.175 316.488C532.679 316.824 532.263 317.272 531.927 317.832L530.775 316.752C531.111 316.08 531.647 315.512 532.383 315.048C533.119 314.568 534.047 314.328 535.167 314.328C536.671 314.328 537.839 314.696 538.671 315.432C539.503 316.168 539.919 317.192 539.919 318.504V325.32H541.335V327H540.255ZM534.735 325.656C535.215 325.656 535.655 325.6 536.055 325.488C536.455 325.376 536.799 325.216 537.087 325.008C537.375 324.8 537.599 324.56 537.759 324.288C537.919 324.016 537.999 323.72 537.999 323.4V321.36H535.455C534.351 321.36 533.543 321.52 533.031 321.84C532.535 322.16 532.287 322.624 532.287 323.232V323.736C532.287 324.344 532.503 324.816 532.935 325.152C533.383 325.488 533.983 325.656 534.735 325.656ZM551.995 324.984H551.899C551.147 326.52 549.939 327.288 548.275 327.288C547.507 327.288 546.811 327.136 546.187 326.832C545.563 326.528 545.027 326.096 544.579 325.536C544.147 324.976 543.811 324.296 543.571 323.496C543.347 322.696 543.235 321.8 543.235 320.808C543.235 319.816 543.347 318.92 543.571 318.12C543.811 317.32 544.147 316.64 544.579 316.08C545.027 315.52 545.563 315.088 546.187 314.784C546.811 314.48 547.507 314.328 548.275 314.328C549.139 314.328 549.875 314.52 550.483 314.904C551.107 315.272 551.579 315.848 551.899 316.632H551.995V309.24H553.915V327H551.995V324.984ZM548.803 325.56C549.235 325.56 549.643 325.504 550.027 325.392C550.427 325.28 550.771 325.12 551.059 324.912C551.347 324.688 551.571 324.424 551.731 324.12C551.907 323.8 551.995 323.44 551.995 323.04V318.432C551.995 318.096 551.907 317.784 551.731 317.496C551.571 317.192 551.347 316.936 551.059 316.728C550.771 316.52 550.427 316.36 550.027 316.248C549.643 316.12 549.235 316.056 548.803 316.056C547.715 316.056 546.859 316.4 546.235 317.088C545.611 317.76 545.299 318.648 545.299 319.752V321.864C545.299 322.968 545.611 323.864 546.235 324.552C546.859 325.224 547.715 325.56 548.803 325.56ZM568.349 327.288C567.517 327.288 566.757 327.136 566.069 326.832C565.381 326.528 564.789 326.096 564.293 325.536C563.813 324.96 563.437 324.28 563.165 323.496C562.893 322.696 562.757 321.8 562.757 320.808C562.757 319.832 562.893 318.944 563.165 318.144C563.437 317.344 563.813 316.664 564.293 316.104C564.789 315.528 565.381 315.088 566.069 314.784C566.757 314.48 567.517 314.328 568.349 314.328C569.181 314.328 569.933 314.48 570.605 314.784C571.293 315.088 571.885 315.528 572.381 316.104C572.877 316.664 573.261 317.344 573.533 318.144C573.805 318.944 573.941 319.832 573.941 320.808C573.941 321.8 573.805 322.696 573.533 323.496C573.261 324.28 572.877 324.96 572.381 325.536C571.885 326.096 571.293 326.528 570.605 326.832C569.933 327.136 569.181 327.288 568.349 327.288ZM568.349 325.584C569.389 325.584 570.237 325.264 570.893 324.624C571.549 323.984 571.877 323.008 571.877 321.696V319.92C571.877 318.608 571.549 317.632 570.893 316.992C570.237 316.352 569.389 316.032 568.349 316.032C567.309 316.032 566.461 316.352 565.805 316.992C565.149 317.632 564.821 318.608 564.821 319.92V321.696C564.821 323.008 565.149 323.984 565.805 324.624C566.461 325.264 567.309 325.584 568.349 325.584ZM577.63 316.296H575.614V314.616H577.63V312.12C577.63 311.256 577.854 310.56 578.302 310.032C578.75 309.504 579.43 309.24 580.342 309.24H582.214V310.92H579.55V314.616H582.214V316.296H579.55V327H577.63V316.296ZM596.507 327.288C594.379 327.288 592.723 326.568 591.539 325.128C590.355 323.672 589.763 321.536 589.763 318.72C589.763 315.904 590.355 313.744 591.539 312.24C592.723 310.72 594.379 309.96 596.507 309.96C597.915 309.96 599.091 310.28 600.035 310.92C600.995 311.56 601.739 312.464 602.267 313.632L600.635 314.616C600.299 313.752 599.787 313.064 599.099 312.552C598.411 312.024 597.547 311.76 596.507 311.76C595.787 311.76 595.139 311.896 594.563 312.168C594.003 312.44 593.523 312.832 593.123 313.344C592.739 313.84 592.443 314.44 592.235 315.144C592.027 315.832 591.923 316.608 591.923 317.472V319.968C591.923 321.696 592.323 323.048 593.123 324.024C593.923 325 595.051 325.488 596.507 325.488C597.579 325.488 598.475 325.216 599.195 324.672C599.915 324.112 600.443 323.376 600.779 322.464L602.387 323.472C601.859 324.656 601.099 325.592 600.107 326.28C599.115 326.952 597.915 327.288 596.507 327.288ZM611.469 327.288C610.381 327.288 609.397 327.104 608.517 326.736C607.653 326.352 606.909 325.8 606.285 325.08C605.677 324.344 605.205 323.44 604.869 322.368C604.533 321.28 604.365 320.032 604.365 318.624C604.365 317.216 604.533 315.976 604.869 314.904C605.205 313.832 605.677 312.928 606.285 312.192C606.909 311.456 607.653 310.904 608.517 310.536C609.397 310.152 610.381 309.96 611.469 309.96C612.541 309.96 613.517 310.152 614.397 310.536C615.277 310.904 616.021 311.456 616.629 312.192C617.253 312.928 617.733 313.832 618.069 314.904C618.405 315.976 618.573 317.216 618.573 318.624C618.573 320.032 618.405 321.28 618.069 322.368C617.733 323.44 617.253 324.344 616.629 325.08C616.021 325.8 615.277 326.352 614.397 326.736C613.517 327.104 612.541 327.288 611.469 327.288ZM611.469 325.488C612.189 325.488 612.853 325.36 613.461 325.104C614.069 324.848 614.589 324.48 615.021 324C615.469 323.52 615.813 322.944 616.053 322.272C616.293 321.6 616.413 320.848 616.413 320.016V317.232C616.413 316.4 616.293 315.648 616.053 314.976C615.813 314.304 615.469 313.728 615.021 313.248C614.589 312.768 614.069 312.4 613.461 312.144C612.853 311.888 612.189 311.76 611.469 311.76C610.749 311.76 610.085 311.888 609.477 312.144C608.869 312.4 608.341 312.768 607.893 313.248C607.461 313.728 607.125 314.304 606.885 314.976C606.645 315.648 606.525 316.4 606.525 317.232V320.016C606.525 320.848 606.645 321.6 606.885 322.272C607.125 322.944 607.461 323.52 607.893 324C608.341 324.48 608.869 324.848 609.477 325.104C610.085 325.36 610.749 325.488 611.469 325.488ZM625.732 327L620.164 310.248H622.324L625.084 318.696L626.932 324.984H627.052L628.948 318.696L631.732 310.248H633.82L628.18 327H625.732ZM635.749 327V325.32H638.101V311.928H635.749V310.248H642.469V311.928H640.117V325.32H642.469V327H635.749ZM646.15 310.248H651.766C652.806 310.248 653.75 310.424 654.598 310.776C655.446 311.128 656.166 311.656 656.758 312.36C657.366 313.048 657.83 313.92 658.15 314.976C658.47 316.016 658.63 317.232 658.63 318.624C658.63 320.016 658.47 321.24 658.15 322.296C657.83 323.336 657.366 324.208 656.758 324.912C656.166 325.6 655.446 326.12 654.598 326.472C653.75 326.824 652.806 327 651.766 327H646.15V310.248ZM651.766 325.224C652.454 325.224 653.086 325.112 653.662 324.888C654.238 324.648 654.734 324.304 655.15 323.856C655.566 323.408 655.886 322.864 656.11 322.224C656.35 321.568 656.47 320.824 656.47 319.992V317.256C656.47 316.424 656.35 315.688 656.11 315.048C655.886 314.392 655.566 313.84 655.15 313.392C654.734 312.944 654.238 312.608 653.662 312.384C653.086 312.144 652.454 312.024 651.766 312.024H648.166V325.224H651.766ZM662.027 320.736V318.672H668.291V320.736H662.027ZM672.069 327V325.224H676.749V311.736H676.581L672.357 315.672L671.181 314.4L675.621 310.248H678.765V325.224H683.085V327H672.069ZM697.14 316.392C697.14 317.64 696.956 318.816 696.588 319.92C696.22 321.008 695.74 322.008 695.148 322.92C694.572 323.816 693.932 324.616 693.228 325.32C692.524 326.008 691.836 326.568 691.164 327H688.572C689.468 326.344 690.268 325.704 690.972 325.08C691.676 324.456 692.292 323.808 692.82 323.136C693.348 322.448 693.796 321.72 694.164 320.952C694.532 320.168 694.828 319.288 695.052 318.312L694.932 318.264C694.532 318.952 694.012 319.528 693.372 319.992C692.748 320.44 691.924 320.664 690.9 320.664C690.18 320.664 689.516 320.544 688.908 320.304C688.3 320.064 687.78 319.72 687.348 319.272C686.916 318.824 686.572 318.288 686.316 317.664C686.076 317.024 685.956 316.304 685.956 315.504C685.956 314.688 686.084 313.944 686.34 313.272C686.612 312.584 686.988 312 687.468 311.52C687.964 311.024 688.548 310.64 689.22 310.368C689.908 310.096 690.676 309.96 691.524 309.96C692.388 309.96 693.164 310.112 693.852 310.416C694.556 310.704 695.148 311.128 695.628 311.688C696.124 312.232 696.5 312.904 696.756 313.704C697.012 314.504 697.14 315.4 697.14 316.392ZM691.548 318.96C692.652 318.96 693.508 318.656 694.116 318.048C694.74 317.44 695.052 316.568 695.052 315.432V315.24C695.052 314.104 694.74 313.232 694.116 312.624C693.508 312.016 692.652 311.712 691.548 311.712C690.444 311.712 689.58 312.016 688.956 312.624C688.348 313.232 688.044 314.104 688.044 315.24V315.432C688.044 316.568 688.348 317.44 688.956 318.048C689.58 318.656 690.444 318.96 691.548 318.96Z" fill="#1D1D1F"/>
<path d="M194.814 226L190.782 213.904H174.078L170.174 226H162.814L178.046 181.328H187.134L202.366 226H194.814ZM182.59 187.984H182.27L175.806 207.696H188.99L182.59 187.984ZM221.674 187.728V226H214.442V187.728H201.13V181.328H234.986V187.728H221.674ZM255.411 205.136L249.267 212.176V226H242.035V181.328H249.267V203.984H249.523L255.923 195.856L267.955 181.328H276.403L260.467 200.144L277.683 226H268.979L255.411 205.136ZM312.786 226.768C309.032 226.768 305.832 226.085 303.186 224.72C300.584 223.355 298.344 221.52 296.466 219.216L301.458 214.544C303.037 216.464 304.765 217.915 306.642 218.896C308.562 219.877 310.738 220.368 313.17 220.368C316.029 220.368 318.184 219.728 319.634 218.448C321.085 217.168 321.81 215.44 321.81 213.264C321.81 211.515 321.298 210.128 320.274 209.104C319.25 208.08 317.437 207.312 314.834 206.8L310.866 206.096C306.514 205.285 303.25 203.856 301.074 201.808C298.898 199.76 297.81 196.944 297.81 193.36C297.81 191.397 298.173 189.627 298.898 188.048C299.666 186.427 300.712 185.083 302.034 184.016C303.4 182.907 305.042 182.053 306.962 181.456C308.882 180.859 311.037 180.56 313.426 180.56C316.797 180.56 319.72 181.157 322.194 182.352C324.669 183.504 326.781 185.189 328.53 187.408L323.474 191.888C322.322 190.395 320.914 189.2 319.25 188.304C317.586 187.408 315.517 186.96 313.042 186.96C310.482 186.96 308.498 187.472 307.09 188.496C305.682 189.52 304.978 191.013 304.978 192.976C304.978 194.853 305.554 196.261 306.706 197.2C307.858 198.096 309.65 198.779 312.082 199.248L316.05 200.08C320.53 200.933 323.794 202.384 325.842 204.432C327.933 206.48 328.978 209.296 328.978 212.88C328.978 214.971 328.616 216.869 327.89 218.576C327.165 220.283 326.098 221.755 324.69 222.992C323.325 224.187 321.64 225.125 319.634 225.808C317.629 226.448 315.346 226.768 312.786 226.768ZM357.308 220.496H357.052C356.754 221.307 356.348 222.096 355.836 222.864C355.367 223.632 354.748 224.315 353.98 224.912C353.255 225.467 352.359 225.915 351.292 226.256C350.268 226.597 349.074 226.768 347.708 226.768C344.252 226.768 341.564 225.659 339.644 223.44C337.767 221.221 336.828 218.043 336.828 213.904V192.72H343.804V213.008C343.804 218.171 345.938 220.752 350.204 220.752C351.1 220.752 351.975 220.645 352.828 220.432C353.682 220.176 354.428 219.813 355.068 219.344C355.751 218.875 356.284 218.277 356.668 217.552C357.095 216.827 357.308 215.973 357.308 214.992V192.72H364.284V226H357.308V220.496ZM374.273 178.64H381.249V198.224H381.569C382.295 196.219 383.468 194.683 385.089 193.616C386.753 192.507 388.695 191.952 390.913 191.952C395.137 191.952 398.401 193.488 400.705 196.56C403.009 199.589 404.161 203.856 404.161 209.36C404.161 214.864 403.009 219.152 400.705 222.224C398.401 225.253 395.137 226.768 390.913 226.768C388.695 226.768 386.753 226.213 385.089 225.104C383.468 223.995 382.295 222.459 381.569 220.496H381.249V226H374.273V178.64ZM388.801 220.752C391.233 220.752 393.175 219.984 394.625 218.448C396.076 216.869 396.801 214.8 396.801 212.24V206.48C396.801 203.92 396.076 201.872 394.625 200.336C393.175 198.757 391.233 197.968 388.801 197.968C386.668 197.968 384.876 198.501 383.425 199.568C381.975 200.592 381.249 201.957 381.249 203.664V215.056C381.249 216.763 381.975 218.149 383.425 219.216C384.876 220.24 386.668 220.752 388.801 220.752ZM412.148 226V192.72H419.124V198.224H419.444C419.786 197.371 420.191 196.56 420.66 195.792C421.172 195.024 421.77 194.363 422.452 193.808C423.178 193.211 424.01 192.763 424.948 192.464C425.93 192.123 427.06 191.952 428.34 191.952C430.602 191.952 432.607 192.507 434.356 193.616C436.106 194.725 437.386 196.432 438.196 198.736H438.388C438.986 196.859 440.138 195.259 441.844 193.936C443.551 192.613 445.748 191.952 448.436 191.952C451.764 191.952 454.346 193.083 456.18 195.344C458.015 197.563 458.932 200.741 458.932 204.88V226H451.956V205.712C451.956 203.152 451.466 201.232 450.484 199.952C449.503 198.629 447.946 197.968 445.812 197.968C444.916 197.968 444.063 198.096 443.252 198.352C442.442 198.565 441.716 198.907 441.076 199.376C440.479 199.845 439.988 200.443 439.604 201.168C439.22 201.893 439.028 202.725 439.028 203.664V226H432.052V205.712C432.052 200.549 430.026 197.968 425.972 197.968C425.119 197.968 424.266 198.096 423.412 198.352C422.602 198.565 421.876 198.907 421.236 199.376C420.596 199.845 420.084 200.443 419.7 201.168C419.316 201.893 419.124 202.725 419.124 203.664V226H412.148ZM472.106 186.768C470.655 186.768 469.588 186.427 468.906 185.744C468.266 185.061 467.946 184.187 467.946 183.12V182.032C467.946 180.965 468.266 180.091 468.906 179.408C469.588 178.725 470.655 178.384 472.106 178.384C473.556 178.384 474.602 178.725 475.242 179.408C475.882 180.091 476.202 180.965 476.202 182.032V183.12C476.202 184.187 475.882 185.061 475.242 185.744C474.602 186.427 473.556 186.768 472.106 186.768ZM468.586 192.72H475.562V226H468.586V192.72ZM496.083 226.768C492.926 226.768 490.281 226.213 488.147 225.104C486.014 223.995 484.158 222.459 482.579 220.496L487.059 216.4C488.297 217.893 489.662 219.067 491.155 219.92C492.691 220.731 494.462 221.136 496.467 221.136C498.515 221.136 500.03 220.752 501.011 219.984C502.035 219.173 502.547 218.064 502.547 216.656C502.547 215.589 502.185 214.693 501.459 213.968C500.777 213.2 499.561 212.709 497.811 212.496L494.739 212.112C491.326 211.685 488.638 210.704 486.675 209.168C484.755 207.589 483.795 205.264 483.795 202.192C483.795 200.571 484.094 199.141 484.691 197.904C485.289 196.624 486.121 195.557 487.187 194.704C488.297 193.808 489.598 193.125 491.091 192.656C492.627 192.187 494.313 191.952 496.147 191.952C499.134 191.952 501.566 192.421 503.443 193.36C505.363 194.299 507.07 195.6 508.563 197.264L504.275 201.36C503.422 200.336 502.291 199.461 500.883 198.736C499.518 197.968 497.939 197.584 496.147 197.584C494.227 197.584 492.798 197.968 491.859 198.736C490.963 199.504 490.515 200.507 490.515 201.744C490.515 203.024 490.921 203.984 491.731 204.624C492.542 205.264 493.843 205.733 495.635 206.032L498.707 206.416C502.377 206.971 505.043 208.059 506.707 209.68C508.414 211.259 509.267 213.392 509.267 216.08C509.267 217.701 508.947 219.173 508.307 220.496C507.71 221.776 506.835 222.885 505.683 223.824C504.531 224.763 503.145 225.488 501.523 226C499.902 226.512 498.089 226.768 496.083 226.768ZM527.333 226.768C524.176 226.768 521.531 226.213 519.397 225.104C517.264 223.995 515.408 222.459 513.829 220.496L518.309 216.4C519.547 217.893 520.912 219.067 522.405 219.92C523.941 220.731 525.712 221.136 527.717 221.136C529.765 221.136 531.28 220.752 532.261 219.984C533.285 219.173 533.797 218.064 533.797 216.656C533.797 215.589 533.435 214.693 532.709 213.968C532.027 213.2 530.811 212.709 529.061 212.496L525.989 212.112C522.576 211.685 519.888 210.704 517.925 209.168C516.005 207.589 515.045 205.264 515.045 202.192C515.045 200.571 515.344 199.141 515.941 197.904C516.539 196.624 517.371 195.557 518.437 194.704C519.547 193.808 520.848 193.125 522.341 192.656C523.877 192.187 525.563 191.952 527.397 191.952C530.384 191.952 532.816 192.421 534.693 193.36C536.613 194.299 538.32 195.6 539.813 197.264L535.525 201.36C534.672 200.336 533.541 199.461 532.133 198.736C530.768 197.968 529.189 197.584 527.397 197.584C525.477 197.584 524.048 197.968 523.109 198.736C522.213 199.504 521.765 200.507 521.765 201.744C521.765 203.024 522.171 203.984 522.981 204.624C523.792 205.264 525.093 205.733 526.885 206.032L529.957 206.416C533.627 206.971 536.293 208.059 537.957 209.68C539.664 211.259 540.517 213.392 540.517 216.08C540.517 217.701 540.197 219.173 539.557 220.496C538.96 221.776 538.085 222.885 536.933 223.824C535.781 224.763 534.395 225.488 532.773 226C531.152 226.512 529.339 226.768 527.333 226.768ZM551.918 186.768C550.468 186.768 549.401 186.427 548.718 185.744C548.078 185.061 547.758 184.187 547.758 183.12V182.032C547.758 180.965 548.078 180.091 548.718 179.408C549.401 178.725 550.468 178.384 551.918 178.384C553.369 178.384 554.414 178.725 555.054 179.408C555.694 180.091 556.014 180.965 556.014 182.032V183.12C556.014 184.187 555.694 185.061 555.054 185.744C554.414 186.427 553.369 186.768 551.918 186.768ZM548.398 192.72H555.374V226H548.398V192.72ZM578.392 226.768C576.088 226.768 573.976 226.363 572.056 225.552C570.178 224.741 568.578 223.589 567.256 222.096C565.933 220.56 564.909 218.725 564.184 216.592C563.458 214.416 563.096 212.005 563.096 209.36C563.096 206.715 563.458 204.325 564.184 202.192C564.909 200.016 565.933 198.181 567.256 196.688C568.578 195.152 570.178 193.979 572.056 193.168C573.976 192.357 576.088 191.952 578.392 191.952C580.696 191.952 582.786 192.357 584.664 193.168C586.584 193.979 588.205 195.152 589.528 196.688C590.85 198.181 591.874 200.016 592.6 202.192C593.325 204.325 593.688 206.715 593.688 209.36C593.688 212.005 593.325 214.416 592.6 216.592C591.874 218.725 590.85 220.56 589.528 222.096C588.205 223.589 586.584 224.741 584.664 225.552C582.786 226.363 580.696 226.768 578.392 226.768ZM578.392 221.008C580.781 221.008 582.701 220.283 584.152 218.832C585.602 217.339 586.328 215.12 586.328 212.176V206.544C586.328 203.6 585.602 201.403 584.152 199.952C582.701 198.459 580.781 197.712 578.392 197.712C576.002 197.712 574.082 198.459 572.632 199.952C571.181 201.403 570.456 203.6 570.456 206.544V212.176C570.456 215.12 571.181 217.339 572.632 218.832C574.082 220.283 576.002 221.008 578.392 221.008ZM601.461 226V192.72H608.437V198.224H608.757C609.482 196.432 610.57 194.939 612.021 193.744C613.514 192.549 615.541 191.952 618.101 191.952C621.514 191.952 624.159 193.083 626.037 195.344C627.957 197.563 628.917 200.741 628.917 204.88V226H621.941V205.776C621.941 200.571 619.85 197.968 615.669 197.968C614.773 197.968 613.877 198.096 612.981 198.352C612.127 198.565 611.359 198.907 610.677 199.376C609.994 199.845 609.439 200.443 609.013 201.168C608.629 201.893 608.437 202.747 608.437 203.728V226H601.461Z" fill="#1D1D1F"/>
<rect x="344" y="128" width="38" height="25" rx="6" fill="#006C6C"/>
<path d="M351.38 146V144.528H352.9V136.304H351.38V134.832H356.244V136.304H354.708V144.528H356.244V146H351.38ZM362.709 146.192C361.247 146.192 360.101 145.701 359.269 144.72C358.437 143.728 358.021 142.293 358.021 140.416C358.021 139.477 358.127 138.651 358.341 137.936C358.554 137.221 358.863 136.619 359.269 136.128C359.674 135.637 360.165 135.269 360.741 135.024C361.327 134.768 361.983 134.64 362.709 134.64C363.679 134.64 364.49 134.853 365.141 135.28C365.802 135.707 366.319 136.336 366.693 137.168L365.173 138C364.981 137.467 364.682 137.045 364.277 136.736C363.882 136.416 363.359 136.256 362.709 136.256C361.845 136.256 361.167 136.549 360.677 137.136C360.186 137.723 359.941 138.533 359.941 139.568V141.264C359.941 142.299 360.186 143.109 360.677 143.696C361.167 144.283 361.845 144.576 362.709 144.576C363.381 144.576 363.925 144.405 364.341 144.064C364.767 143.712 365.082 143.264 365.285 142.72L366.741 143.6C366.367 144.411 365.845 145.045 365.173 145.504C364.501 145.963 363.679 146.192 362.709 146.192ZM372.801 136.432V146H370.993V136.432H367.665V134.832H376.129V136.432H372.801Z" fill="white"/>
<rect x="382" y="128" width="69" height="25" rx="6" fill="#0035AD"/>
<path d="M397.225 137.456H397.145L396.265 139.264L393.817 143.728L391.369 139.264L390.489 137.456H390.409V146H388.681V134.832H390.825L393.817 140.512H393.913L396.905 134.832H398.953V146H397.225V137.456ZM407.68 146C407.221 146 406.869 145.872 406.624 145.616C406.379 145.349 406.229 145.013 406.176 144.608H406.096C405.936 145.131 405.643 145.525 405.216 145.792C404.789 146.059 404.272 146.192 403.664 146.192C402.8 146.192 402.133 145.968 401.664 145.52C401.205 145.072 400.976 144.469 400.976 143.712C400.976 142.88 401.275 142.256 401.872 141.84C402.48 141.424 403.365 141.216 404.528 141.216H406.032V140.512C406.032 140 405.893 139.605 405.616 139.328C405.339 139.051 404.907 138.912 404.32 138.912C403.829 138.912 403.429 139.019 403.12 139.232C402.811 139.445 402.549 139.717 402.336 140.048L401.296 139.104C401.573 138.635 401.963 138.251 402.464 137.952C402.965 137.643 403.621 137.488 404.432 137.488C405.509 137.488 406.336 137.739 406.912 138.24C407.488 138.741 407.776 139.461 407.776 140.4V144.576H408.656V146H407.68ZM404.16 144.864C404.704 144.864 405.152 144.747 405.504 144.512C405.856 144.267 406.032 143.941 406.032 143.536V142.336H404.56C403.355 142.336 402.752 142.709 402.752 143.456V143.744C402.752 144.117 402.875 144.4 403.12 144.592C403.376 144.773 403.723 144.864 404.16 144.864ZM410.365 134.16H412.109V139.056H412.189C412.371 138.608 412.643 138.235 413.005 137.936C413.379 137.637 413.885 137.488 414.525 137.488C415.379 137.488 416.04 137.771 416.509 138.336C416.989 138.891 417.229 139.685 417.229 140.72V146H415.485V140.928C415.485 139.637 414.963 138.992 413.917 138.992C413.693 138.992 413.469 139.024 413.245 139.088C413.032 139.141 412.84 139.227 412.669 139.344C412.499 139.461 412.36 139.611 412.253 139.792C412.157 139.973 412.109 140.181 412.109 140.416V146H410.365V134.16ZM420.526 136.192C420.164 136.192 419.897 136.107 419.726 135.936C419.566 135.765 419.486 135.547 419.486 135.28V135.008C419.486 134.741 419.566 134.523 419.726 134.352C419.897 134.181 420.164 134.096 420.526 134.096C420.889 134.096 421.15 134.181 421.31 134.352C421.47 134.523 421.55 134.741 421.55 135.008V135.28C421.55 135.547 421.47 135.765 421.31 135.936C421.15 136.107 420.889 136.192 420.526 136.192ZM419.646 137.68H421.39V146H419.646V137.68ZM429.113 144.624H429.033C428.851 145.115 428.553 145.499 428.137 145.776C427.731 146.053 427.251 146.192 426.697 146.192C425.641 146.192 424.825 145.813 424.249 145.056C423.673 144.288 423.385 143.216 423.385 141.84C423.385 140.464 423.673 139.397 424.249 138.64C424.825 137.872 425.641 137.488 426.697 137.488C427.251 137.488 427.731 137.627 428.137 137.904C428.553 138.171 428.851 138.555 429.033 139.056H429.113V134.16H430.857V146H429.113V144.624ZM427.225 144.688C427.758 144.688 428.206 144.56 428.569 144.304C428.931 144.037 429.113 143.691 429.113 143.264V140.416C429.113 139.989 428.931 139.648 428.569 139.392C428.206 139.125 427.758 138.992 427.225 138.992C426.617 138.992 426.131 139.189 425.769 139.584C425.406 139.968 425.225 140.48 425.225 141.12V142.56C425.225 143.2 425.406 143.717 425.769 144.112C426.131 144.496 426.617 144.688 427.225 144.688ZM436.614 146.192C436.038 146.192 435.51 146.091 435.03 145.888C434.56 145.685 434.16 145.397 433.83 145.024C433.499 144.64 433.243 144.181 433.062 143.648C432.88 143.104 432.79 142.501 432.79 141.84C432.79 141.179 432.88 140.581 433.062 140.048C433.243 139.504 433.499 139.045 433.83 138.672C434.16 138.288 434.56 137.995 435.03 137.792C435.51 137.589 436.038 137.488 436.614 137.488C437.19 137.488 437.712 137.589 438.182 137.792C438.662 137.995 439.067 138.288 439.398 138.672C439.728 139.045 439.984 139.504 440.166 140.048C440.347 140.581 440.438 141.179 440.438 141.84C440.438 142.501 440.347 143.104 440.166 143.648C439.984 144.181 439.728 144.64 439.398 145.024C439.067 145.397 438.662 145.685 438.182 145.888C437.712 146.091 437.19 146.192 436.614 146.192ZM436.614 144.752C437.211 144.752 437.691 144.571 438.054 144.208C438.416 143.835 438.598 143.28 438.598 142.544V141.136C438.598 140.4 438.416 139.851 438.054 139.488C437.691 139.115 437.211 138.928 436.614 138.928C436.016 138.928 435.536 139.115 435.174 139.488C434.811 139.851 434.63 140.4 434.63 141.136V142.544C434.63 143.28 434.811 143.835 435.174 144.208C435.536 144.571 436.016 144.752 436.614 144.752ZM444.157 146C443.559 146 443.111 145.851 442.813 145.552C442.525 145.243 442.381 144.816 442.381 144.272V134.16H444.125V144.576H445.277V146H444.157Z" fill="white"/>
<rect x="395" y="466" width="7" height="485" fill="#D9D9D9"/>
<rect x="385" y="366" width="26" height="101" rx="13" fill="#D9D9D9"/>
</svg>
