<svg width="795" height="951" viewBox="0 0 795 951" fill="none" xmlns="http://www.w3.org/2000/svg">
<rect width="795" height="951" rx="32" fill="#1D1D1F"/>
<path d="M334.773 483.288C332.645 483.288 330.989 482.568 329.805 481.128C328.621 479.672 328.029 477.536 328.029 474.72C328.029 471.904 328.621 469.744 329.805 468.24C330.989 466.72 332.645 465.96 334.773 465.96C336.181 465.96 337.357 466.28 338.301 466.92C339.261 467.56 340.005 468.464 340.533 469.632L338.901 470.616C338.565 469.752 338.053 469.064 337.365 468.552C336.677 468.024 335.813 467.76 334.773 467.76C334.053 467.76 333.405 467.896 332.829 468.168C332.269 468.44 331.789 468.832 331.389 469.344C331.005 469.84 330.709 470.44 330.501 471.144C330.293 471.832 330.189 472.608 330.189 473.472V475.968C330.189 477.696 330.589 479.048 331.389 480.024C332.189 481 333.317 481.488 334.773 481.488C335.845 481.488 336.741 481.216 337.461 480.672C338.181 480.112 338.709 479.376 339.045 478.464L340.653 479.472C340.125 480.656 339.365 481.592 338.373 482.28C337.381 482.952 336.181 483.288 334.773 483.288ZM348.263 483.288C347.431 483.288 346.671 483.136 345.983 482.832C345.295 482.528 344.703 482.096 344.207 481.536C343.727 480.96 343.351 480.28 343.079 479.496C342.807 478.696 342.671 477.8 342.671 476.808C342.671 475.832 342.807 474.944 343.079 474.144C343.351 473.344 343.727 472.664 344.207 472.104C344.703 471.528 345.295 471.088 345.983 470.784C346.671 470.48 347.431 470.328 348.263 470.328C349.095 470.328 349.847 470.48 350.519 470.784C351.207 471.088 351.799 471.528 352.295 472.104C352.791 472.664 353.175 473.344 353.447 474.144C353.719 474.944 353.855 475.832 353.855 476.808C353.855 477.8 353.719 478.696 353.447 479.496C353.175 480.28 352.791 480.96 352.295 481.536C351.799 482.096 351.207 482.528 350.519 482.832C349.847 483.136 349.095 483.288 348.263 483.288ZM348.263 481.584C349.303 481.584 350.151 481.264 350.807 480.624C351.463 479.984 351.791 479.008 351.791 477.696V475.92C351.791 474.608 351.463 473.632 350.807 472.992C350.151 472.352 349.303 472.032 348.263 472.032C347.223 472.032 346.375 472.352 345.719 472.992C345.063 473.632 344.735 474.608 344.735 475.92V477.696C344.735 479.008 345.063 479.984 345.719 480.624C346.375 481.264 347.223 481.584 348.263 481.584ZM357.013 483V470.616H358.933V472.632H359.029C359.173 472.312 359.333 472.016 359.509 471.744C359.701 471.456 359.925 471.208 360.181 471C360.453 470.792 360.765 470.632 361.117 470.52C361.469 470.392 361.885 470.328 362.365 470.328C363.181 470.328 363.933 470.528 364.621 470.928C365.309 471.312 365.821 471.952 366.157 472.848H366.205C366.429 472.176 366.845 471.592 367.453 471.096C368.077 470.584 368.917 470.328 369.973 470.328C371.237 470.328 372.221 470.744 372.925 471.576C373.645 472.392 374.005 473.552 374.005 475.056V483H372.085V475.392C372.085 474.288 371.869 473.456 371.437 472.896C371.005 472.336 370.317 472.056 369.373 472.056C368.989 472.056 368.621 472.104 368.269 472.2C367.933 472.296 367.629 472.44 367.357 472.632C367.085 472.824 366.869 473.072 366.709 473.376C366.549 473.664 366.469 474.008 366.469 474.408V483H364.549V475.392C364.549 474.288 364.333 473.456 363.901 472.896C363.469 472.336 362.797 472.056 361.885 472.056C361.501 472.056 361.133 472.104 360.781 472.2C360.429 472.296 360.117 472.44 359.845 472.632C359.573 472.824 359.349 473.072 359.173 473.376C359.013 473.664 358.933 474.008 358.933 474.408V483H357.013ZM378.926 467.712C378.51 467.712 378.206 467.616 378.014 467.424C377.838 467.216 377.75 466.952 377.75 466.632V466.32C377.75 466 377.838 465.744 378.014 465.552C378.206 465.344 378.51 465.24 378.926 465.24C379.342 465.24 379.638 465.344 379.814 465.552C380.006 465.744 380.102 466 380.102 466.32V466.632C380.102 466.952 380.006 467.216 379.814 467.424C379.638 467.616 379.342 467.712 378.926 467.712ZM377.966 470.616H379.886V483H377.966V470.616ZM383.966 483V470.616H385.886V472.632H385.982C386.286 471.928 386.71 471.368 387.254 470.952C387.814 470.536 388.558 470.328 389.486 470.328C390.766 470.328 391.774 470.744 392.51 471.576C393.262 472.392 393.638 473.552 393.638 475.056V483H391.718V475.392C391.718 473.168 390.782 472.056 388.91 472.056C388.526 472.056 388.15 472.104 387.782 472.2C387.43 472.296 387.11 472.44 386.822 472.632C386.534 472.824 386.302 473.072 386.126 473.376C385.966 473.664 385.886 474.008 385.886 474.408V483H383.966ZM408.046 484.368C408.046 485.648 407.542 486.584 406.534 487.176C405.542 487.784 404.046 488.088 402.046 488.088C400.11 488.088 398.718 487.824 397.87 487.296C397.022 486.768 396.598 486.016 396.598 485.04C396.598 484.368 396.774 483.84 397.126 483.456C397.478 483.088 397.958 482.816 398.566 482.64V482.376C397.83 482.024 397.462 481.448 397.462 480.648C397.462 480.024 397.662 479.552 398.062 479.232C398.462 478.896 398.974 478.648 399.598 478.488V478.392C398.862 478.04 398.286 477.536 397.87 476.88C397.47 476.224 397.27 475.464 397.27 474.6C397.27 473.976 397.382 473.4 397.606 472.872C397.83 472.344 398.142 471.896 398.542 471.528C398.958 471.144 399.446 470.848 400.006 470.64C400.582 470.432 401.222 470.328 401.926 470.328C402.806 470.328 403.59 470.488 404.278 470.808V470.592C404.278 470.112 404.39 469.72 404.614 469.416C404.838 469.096 405.206 468.936 405.718 468.936H407.566V470.616H405.214V471.408C405.662 471.792 406.006 472.256 406.246 472.8C406.502 473.328 406.63 473.928 406.63 474.6C406.63 475.224 406.518 475.8 406.294 476.328C406.07 476.856 405.75 477.312 405.334 477.696C404.934 478.064 404.446 478.352 403.87 478.56C403.294 478.768 402.654 478.872 401.95 478.872C401.55 478.872 401.15 478.832 400.75 478.752C400.334 478.864 399.958 479.032 399.622 479.256C399.286 479.464 399.118 479.76 399.118 480.144C399.118 480.512 399.294 480.76 399.646 480.888C399.998 481.016 400.454 481.08 401.014 481.08H403.654C405.19 481.08 406.302 481.376 406.99 481.968C407.694 482.544 408.046 483.344 408.046 484.368ZM406.246 484.512C406.246 484.016 406.054 483.616 405.67 483.312C405.302 483.024 404.638 482.88 403.678 482.88H399.55C398.782 483.232 398.398 483.792 398.398 484.56C398.398 485.104 398.598 485.568 398.998 485.952C399.414 486.336 400.11 486.528 401.086 486.528H402.862C403.934 486.528 404.766 486.36 405.358 486.024C405.95 485.688 406.246 485.184 406.246 484.512ZM401.95 477.336C402.766 477.336 403.414 477.144 403.894 476.76C404.374 476.36 404.614 475.752 404.614 474.936V474.264C404.614 473.448 404.374 472.848 403.894 472.464C403.414 472.064 402.766 471.864 401.95 471.864C401.134 471.864 400.486 472.064 400.006 472.464C399.526 472.848 399.286 473.448 399.286 474.264V474.936C399.286 475.752 399.526 476.36 400.006 476.76C400.486 477.144 401.134 477.336 401.95 477.336ZM420.854 483.288C419.494 483.288 418.334 483.032 417.374 482.52C416.414 481.992 415.598 481.272 414.926 480.36L416.414 479.112C417.006 479.896 417.662 480.496 418.382 480.912C419.102 481.312 419.95 481.512 420.926 481.512C422.126 481.512 423.038 481.224 423.662 480.648C424.302 480.072 424.622 479.304 424.622 478.344C424.622 477.544 424.382 476.928 423.902 476.496C423.422 476.064 422.63 475.72 421.526 475.464L420.158 475.152C418.622 474.8 417.446 474.272 416.63 473.568C415.83 472.848 415.43 471.84 415.43 470.544C415.43 469.808 415.566 469.152 415.838 468.576C416.11 468 416.486 467.52 416.966 467.136C417.462 466.752 418.046 466.464 418.718 466.272C419.406 466.064 420.158 465.96 420.974 465.96C422.238 465.96 423.318 466.192 424.214 466.656C425.126 467.12 425.894 467.8 426.518 468.696L425.006 469.8C424.542 469.16 423.982 468.656 423.326 468.288C422.67 467.92 421.854 467.736 420.878 467.736C419.806 467.736 418.958 467.968 418.334 468.432C417.726 468.88 417.422 469.56 417.422 470.472C417.422 471.272 417.678 471.88 418.19 472.296C418.718 472.696 419.51 473.016 420.566 473.256L421.934 473.568C423.582 473.936 424.774 474.496 425.51 475.248C426.246 476 426.614 477 426.614 478.248C426.614 479.016 426.478 479.712 426.206 480.336C425.95 480.96 425.574 481.488 425.078 481.92C424.582 482.352 423.974 482.688 423.254 482.928C422.55 483.168 421.75 483.288 420.854 483.288ZM434.583 483.288C433.751 483.288 432.991 483.136 432.303 482.832C431.615 482.528 431.023 482.096 430.527 481.536C430.047 480.96 429.671 480.28 429.399 479.496C429.127 478.696 428.991 477.8 428.991 476.808C428.991 475.832 429.127 474.944 429.399 474.144C429.671 473.344 430.047 472.664 430.527 472.104C431.023 471.528 431.615 471.088 432.303 470.784C432.991 470.48 433.751 470.328 434.583 470.328C435.415 470.328 436.167 470.48 436.839 470.784C437.527 471.088 438.119 471.528 438.615 472.104C439.111 472.664 439.495 473.344 439.767 474.144C440.039 474.944 440.175 475.832 440.175 476.808C440.175 477.8 440.039 478.696 439.767 479.496C439.495 480.28 439.111 480.96 438.615 481.536C438.119 482.096 437.527 482.528 436.839 482.832C436.167 483.136 435.415 483.288 434.583 483.288ZM434.583 481.584C435.623 481.584 436.471 481.264 437.127 480.624C437.783 479.984 438.111 479.008 438.111 477.696V475.92C438.111 474.608 437.783 473.632 437.127 472.992C436.471 472.352 435.623 472.032 434.583 472.032C433.543 472.032 432.695 472.352 432.039 472.992C431.383 473.632 431.055 474.608 431.055 475.92V477.696C431.055 479.008 431.383 479.984 432.039 480.624C432.695 481.264 433.543 481.584 434.583 481.584ZM448.013 483.288C447.181 483.288 446.421 483.136 445.733 482.832C445.045 482.528 444.453 482.096 443.957 481.536C443.477 480.96 443.101 480.28 442.829 479.496C442.557 478.696 442.421 477.8 442.421 476.808C442.421 475.832 442.557 474.944 442.829 474.144C443.101 473.344 443.477 472.664 443.957 472.104C444.453 471.528 445.045 471.088 445.733 470.784C446.421 470.48 447.181 470.328 448.013 470.328C448.845 470.328 449.597 470.48 450.269 470.784C450.957 471.088 451.549 471.528 452.045 472.104C452.541 472.664 452.925 473.344 453.197 474.144C453.469 474.944 453.605 475.832 453.605 476.808C453.605 477.8 453.469 478.696 453.197 479.496C452.925 480.28 452.541 480.96 452.045 481.536C451.549 482.096 450.957 482.528 450.269 482.832C449.597 483.136 448.845 483.288 448.013 483.288ZM448.013 481.584C449.053 481.584 449.901 481.264 450.557 480.624C451.213 479.984 451.541 479.008 451.541 477.696V475.92C451.541 474.608 451.213 473.632 450.557 472.992C449.901 472.352 449.053 472.032 448.013 472.032C446.973 472.032 446.125 472.352 445.469 472.992C444.813 473.632 444.485 474.608 444.485 475.92V477.696C444.485 479.008 444.813 479.984 445.469 480.624C446.125 481.264 446.973 481.584 448.013 481.584ZM456.763 483V470.616H458.683V472.632H458.779C459.083 471.928 459.507 471.368 460.051 470.952C460.611 470.536 461.355 470.328 462.283 470.328C463.563 470.328 464.571 470.744 465.307 471.576C466.059 472.392 466.435 473.552 466.435 475.056V483H464.515V475.392C464.515 473.168 463.579 472.056 461.707 472.056C461.323 472.056 460.947 472.104 460.579 472.2C460.227 472.296 459.907 472.44 459.619 472.632C459.331 472.824 459.099 473.072 458.923 473.376C458.763 473.664 458.683 474.008 458.683 474.408V483H456.763Z" fill="#F5F5F7"/>
<g filter="url(#filter0_f_533_45)">
<path d="M240.966 257L239.286 252.056H232.518L230.838 257H228.798L234.654 240.248H237.222L243.078 257H240.966ZM235.95 242.12H235.83L232.998 250.28H238.782L235.95 242.12ZM247.701 257C247.029 257 246.517 256.816 246.165 256.448C245.829 256.064 245.661 255.584 245.661 255.008V239.24H247.581V255.32H249.405V257H247.701ZM254.123 257C253.451 257 252.939 256.816 252.587 256.448C252.251 256.064 252.083 255.584 252.083 255.008V239.24H254.003V255.32H255.827V257H254.123ZM268.014 257.288C266.862 257.288 265.894 257.072 265.11 256.64C264.342 256.192 263.678 255.6 263.118 254.864L264.486 253.76C264.966 254.368 265.502 254.84 266.094 255.176C266.686 255.496 267.374 255.656 268.158 255.656C268.974 255.656 269.606 255.48 270.054 255.128C270.518 254.776 270.75 254.28 270.75 253.64C270.75 253.16 270.59 252.752 270.27 252.416C269.966 252.064 269.406 251.824 268.59 251.696L267.606 251.552C267.03 251.472 266.502 251.352 266.022 251.192C265.542 251.016 265.118 250.792 264.75 250.52C264.398 250.232 264.118 249.88 263.91 249.464C263.718 249.048 263.622 248.552 263.622 247.976C263.622 247.368 263.734 246.84 263.958 246.392C264.182 245.928 264.486 245.544 264.87 245.24C265.27 244.936 265.742 244.712 266.286 244.568C266.83 244.408 267.414 244.328 268.038 244.328C269.046 244.328 269.886 244.504 270.558 244.856C271.246 245.208 271.846 245.696 272.358 246.32L271.086 247.472C270.814 247.088 270.414 246.744 269.886 246.44C269.358 246.12 268.694 245.96 267.894 245.96C267.094 245.96 266.486 246.136 266.07 246.488C265.67 246.824 265.47 247.288 265.47 247.88C265.47 248.488 265.67 248.928 266.07 249.2C266.486 249.472 267.078 249.672 267.846 249.8L268.806 249.944C270.182 250.152 271.158 250.552 271.734 251.144C272.31 251.72 272.598 252.48 272.598 253.424C272.598 254.624 272.19 255.568 271.374 256.256C270.558 256.944 269.438 257.288 268.014 257.288ZM280.645 257.288C279.797 257.288 279.029 257.136 278.341 256.832C277.669 256.528 277.085 256.096 276.589 255.536C276.109 254.96 275.733 254.28 275.461 253.496C275.205 252.696 275.077 251.8 275.077 250.808C275.077 249.832 275.205 248.944 275.461 248.144C275.733 247.344 276.109 246.664 276.589 246.104C277.085 245.528 277.669 245.088 278.341 244.784C279.029 244.48 279.797 244.328 280.645 244.328C281.477 244.328 282.221 244.48 282.877 244.784C283.533 245.088 284.093 245.512 284.557 246.056C285.021 246.584 285.373 247.216 285.613 247.952C285.869 248.688 285.997 249.496 285.997 250.376V251.288H277.093V251.864C277.093 252.392 277.173 252.888 277.333 253.352C277.509 253.8 277.749 254.192 278.053 254.528C278.373 254.864 278.757 255.128 279.205 255.32C279.669 255.512 280.189 255.608 280.765 255.608C281.549 255.608 282.229 255.424 282.805 255.056C283.397 254.688 283.853 254.16 284.173 253.472L285.541 254.456C285.141 255.304 284.517 255.992 283.669 256.52C282.821 257.032 281.813 257.288 280.645 257.288ZM280.645 245.936C280.117 245.936 279.637 246.032 279.205 246.224C278.773 246.4 278.397 246.656 278.077 246.992C277.773 247.328 277.533 247.728 277.357 248.192C277.181 248.64 277.093 249.136 277.093 249.68V249.848H283.933V249.584C283.933 248.48 283.629 247.6 283.021 246.944C282.429 246.272 281.637 245.936 280.645 245.936ZM289.161 257V244.616H291.081V246.896H291.201C291.425 246.304 291.825 245.776 292.401 245.312C292.977 244.848 293.769 244.616 294.777 244.616H295.521V246.536H294.393C293.353 246.536 292.537 246.736 291.945 247.136C291.369 247.52 291.081 248.008 291.081 248.6V257H289.161ZM300.944 257L296.6 244.616H298.52L300.68 250.76L302.024 254.984H302.144L303.488 250.76L305.696 244.616H307.544L303.176 257H300.944ZM310.98 241.712C310.564 241.712 310.26 241.616 310.068 241.424C309.892 241.216 309.804 240.952 309.804 240.632V240.32C309.804 240 309.892 239.744 310.068 239.552C310.26 239.344 310.564 239.24 310.98 239.24C311.396 239.24 311.692 239.344 311.868 239.552C312.06 239.744 312.156 240 312.156 240.32V240.632C312.156 240.952 312.06 241.216 311.868 241.424C311.692 241.616 311.396 241.712 310.98 241.712ZM310.02 244.616H311.94V257H310.02V244.616ZM320.628 257.288C319.764 257.288 318.988 257.136 318.3 256.832C317.612 256.528 317.028 256.096 316.548 255.536C316.084 254.976 315.724 254.296 315.468 253.496C315.228 252.696 315.108 251.8 315.108 250.808C315.108 249.816 315.228 248.92 315.468 248.12C315.724 247.32 316.084 246.64 316.548 246.08C317.028 245.52 317.612 245.088 318.3 244.784C318.988 244.48 319.764 244.328 320.628 244.328C321.86 244.328 322.844 244.6 323.58 245.144C324.332 245.672 324.892 246.368 325.26 247.232L323.652 248.048C323.428 247.408 323.06 246.912 322.548 246.56C322.036 246.208 321.396 246.032 320.628 246.032C320.052 246.032 319.548 246.128 319.116 246.32C318.684 246.496 318.324 246.752 318.036 247.088C317.748 247.408 317.532 247.8 317.388 248.264C317.244 248.712 317.172 249.208 317.172 249.752V251.864C317.172 252.952 317.46 253.848 318.036 254.552C318.628 255.24 319.492 255.584 320.628 255.584C322.18 255.584 323.3 254.864 323.988 253.424L325.38 254.36C324.98 255.256 324.38 255.968 323.58 256.496C322.796 257.024 321.812 257.288 320.628 257.288ZM332.606 257.288C331.758 257.288 330.99 257.136 330.302 256.832C329.63 256.528 329.046 256.096 328.55 255.536C328.07 254.96 327.694 254.28 327.422 253.496C327.166 252.696 327.038 251.8 327.038 250.808C327.038 249.832 327.166 248.944 327.422 248.144C327.694 247.344 328.07 246.664 328.55 246.104C329.046 245.528 329.63 245.088 330.302 244.784C330.99 244.48 331.758 244.328 332.606 244.328C333.438 244.328 334.182 244.48 334.838 244.784C335.494 245.088 336.054 245.512 336.518 246.056C336.982 246.584 337.334 247.216 337.574 247.952C337.83 248.688 337.958 249.496 337.958 250.376V251.288H329.054V251.864C329.054 252.392 329.134 252.888 329.294 253.352C329.47 253.8 329.71 254.192 330.014 254.528C330.334 254.864 330.718 255.128 331.166 255.32C331.63 255.512 332.15 255.608 332.726 255.608C333.51 255.608 334.19 255.424 334.766 255.056C335.358 254.688 335.814 254.16 336.134 253.472L337.502 254.456C337.102 255.304 336.478 255.992 335.63 256.52C334.782 257.032 333.774 257.288 332.606 257.288ZM332.606 245.936C332.078 245.936 331.598 246.032 331.166 246.224C330.734 246.4 330.358 246.656 330.038 246.992C329.734 247.328 329.494 247.728 329.318 248.192C329.142 248.64 329.054 249.136 329.054 249.68V249.848H335.894V249.584C335.894 248.48 335.59 247.6 334.982 246.944C334.39 246.272 333.598 245.936 332.606 245.936ZM347.754 241.712C347.338 241.712 347.034 241.616 346.842 241.424C346.666 241.216 346.578 240.952 346.578 240.632V240.32C346.578 240 346.666 239.744 346.842 239.552C347.034 239.344 347.338 239.24 347.754 239.24C348.17 239.24 348.466 239.344 348.642 239.552C348.834 239.744 348.93 240 348.93 240.32V240.632C348.93 240.952 348.834 241.216 348.642 241.424C348.466 241.616 348.17 241.712 347.754 241.712ZM346.794 244.616H348.714V257H346.794V244.616ZM352.794 257V244.616H354.714V246.632H354.81C355.114 245.928 355.538 245.368 356.082 244.952C356.642 244.536 357.386 244.328 358.314 244.328C359.594 244.328 360.602 244.744 361.338 245.576C362.09 246.392 362.466 247.552 362.466 249.056V257H360.546V249.392C360.546 247.168 359.61 246.056 357.738 246.056C357.354 246.056 356.978 246.104 356.61 246.2C356.258 246.296 355.938 246.44 355.65 246.632C355.362 246.824 355.13 247.072 354.954 247.376C354.794 247.664 354.714 248.008 354.714 248.408V257H352.794ZM385.354 242.888H385.234L383.818 245.696L379.81 252.992L375.802 245.696L374.386 242.888H374.266V257H372.298V240.248H374.986L379.786 249.272H379.906L384.73 240.248H387.322V257H385.354V242.888ZM400.583 257C399.863 257 399.343 256.808 399.023 256.424C398.719 256.04 398.527 255.56 398.447 254.984H398.327C398.055 255.752 397.607 256.328 396.983 256.712C396.359 257.096 395.615 257.288 394.751 257.288C393.439 257.288 392.415 256.952 391.679 256.28C390.959 255.608 390.599 254.696 390.599 253.544C390.599 252.376 391.023 251.48 391.871 250.856C392.735 250.232 394.071 249.92 395.879 249.92H398.327V248.696C398.327 247.816 398.087 247.144 397.607 246.68C397.127 246.216 396.391 245.984 395.399 245.984C394.647 245.984 394.015 246.152 393.503 246.488C393.007 246.824 392.591 247.272 392.255 247.832L391.103 246.752C391.439 246.08 391.975 245.512 392.711 245.048C393.447 244.568 394.375 244.328 395.495 244.328C396.999 244.328 398.167 244.696 398.999 245.432C399.831 246.168 400.247 247.192 400.247 248.504V255.32H401.663V257H400.583ZM395.063 255.656C395.543 255.656 395.983 255.6 396.383 255.488C396.783 255.376 397.127 255.216 397.415 255.008C397.703 254.8 397.927 254.56 398.087 254.288C398.247 254.016 398.327 253.72 398.327 253.4V251.36H395.783C394.679 251.36 393.871 251.52 393.359 251.84C392.863 252.16 392.615 252.624 392.615 253.232V253.736C392.615 254.344 392.831 254.816 393.263 255.152C393.711 255.488 394.311 255.656 395.063 255.656ZM404.403 239.24H406.323V246.632H406.419C406.723 245.928 407.147 245.368 407.691 244.952C408.251 244.536 408.995 244.328 409.923 244.328C411.203 244.328 412.211 244.744 412.947 245.576C413.699 246.392 414.075 247.552 414.075 249.056V257H412.155V249.392C412.155 247.168 411.219 246.056 409.347 246.056C408.963 246.056 408.587 246.104 408.219 246.2C407.867 246.296 407.547 246.44 407.259 246.632C406.971 246.824 406.739 247.072 406.563 247.376C406.403 247.664 406.323 248.008 406.323 248.408V257H404.403V239.24ZM419.004 241.712C418.588 241.712 418.284 241.616 418.092 241.424C417.916 241.216 417.828 240.952 417.828 240.632V240.32C417.828 240 417.916 239.744 418.092 239.552C418.284 239.344 418.588 239.24 419.004 239.24C419.42 239.24 419.716 239.344 419.892 239.552C420.084 239.744 420.18 240 420.18 240.32V240.632C420.18 240.952 420.084 241.216 419.892 241.424C419.716 241.616 419.42 241.712 419.004 241.712ZM418.044 244.616H419.964V257H418.044V244.616ZM431.964 254.984H431.868C431.116 256.52 429.908 257.288 428.244 257.288C427.476 257.288 426.78 257.136 426.156 256.832C425.532 256.528 424.996 256.096 424.548 255.536C424.116 254.976 423.78 254.296 423.54 253.496C423.316 252.696 423.204 251.8 423.204 250.808C423.204 249.816 423.316 248.92 423.54 248.12C423.78 247.32 424.116 246.64 424.548 246.08C424.996 245.52 425.532 245.088 426.156 244.784C426.78 244.48 427.476 244.328 428.244 244.328C429.108 244.328 429.844 244.52 430.452 244.904C431.076 245.272 431.548 245.848 431.868 246.632H431.964V239.24H433.884V257H431.964V254.984ZM428.772 255.56C429.204 255.56 429.612 255.504 429.996 255.392C430.396 255.28 430.74 255.12 431.028 254.912C431.316 254.688 431.54 254.424 431.7 254.12C431.876 253.8 431.964 253.44 431.964 253.04V248.432C431.964 248.096 431.876 247.784 431.7 247.496C431.54 247.192 431.316 246.936 431.028 246.728C430.74 246.52 430.396 246.36 429.996 246.248C429.612 246.12 429.204 246.056 428.772 246.056C427.684 246.056 426.828 246.4 426.204 247.088C425.58 247.76 425.268 248.648 425.268 249.752V251.864C425.268 252.968 425.58 253.864 426.204 254.552C426.828 255.224 427.684 255.56 428.772 255.56ZM442.646 257.288C441.814 257.288 441.054 257.136 440.366 256.832C439.678 256.528 439.086 256.096 438.59 255.536C438.11 254.96 437.734 254.28 437.462 253.496C437.19 252.696 437.054 251.8 437.054 250.808C437.054 249.832 437.19 248.944 437.462 248.144C437.734 247.344 438.11 246.664 438.59 246.104C439.086 245.528 439.678 245.088 440.366 244.784C441.054 244.48 441.814 244.328 442.646 244.328C443.478 244.328 444.23 244.48 444.902 244.784C445.59 245.088 446.182 245.528 446.678 246.104C447.174 246.664 447.558 247.344 447.83 248.144C448.102 248.944 448.238 249.832 448.238 250.808C448.238 251.8 448.102 252.696 447.83 253.496C447.558 254.28 447.174 254.96 446.678 255.536C446.182 256.096 445.59 256.528 444.902 256.832C444.23 257.136 443.478 257.288 442.646 257.288ZM442.646 255.584C443.686 255.584 444.534 255.264 445.19 254.624C445.846 253.984 446.174 253.008 446.174 251.696V249.92C446.174 248.608 445.846 247.632 445.19 246.992C444.534 246.352 443.686 246.032 442.646 246.032C441.606 246.032 440.758 246.352 440.102 246.992C439.446 247.632 439.118 248.608 439.118 249.92V251.696C439.118 253.008 439.446 253.984 440.102 254.624C440.758 255.264 441.606 255.584 442.646 255.584ZM453.435 257C452.763 257 452.251 256.816 451.899 256.448C451.563 256.064 451.395 255.584 451.395 255.008V239.24H453.315V255.32H455.139V257H453.435ZM474.046 258.368C474.046 259.648 473.542 260.584 472.534 261.176C471.542 261.784 470.046 262.088 468.046 262.088C466.11 262.088 464.718 261.824 463.87 261.296C463.022 260.768 462.598 260.016 462.598 259.04C462.598 258.368 462.774 257.84 463.126 257.456C463.478 257.088 463.958 256.816 464.566 256.64V256.376C463.83 256.024 463.462 255.448 463.462 254.648C463.462 254.024 463.662 253.552 464.062 253.232C464.462 252.896 464.974 252.648 465.598 252.488V252.392C464.862 252.04 464.286 251.536 463.87 250.88C463.47 250.224 463.27 249.464 463.27 248.6C463.27 247.976 463.382 247.4 463.606 246.872C463.83 246.344 464.142 245.896 464.542 245.528C464.958 245.144 465.446 244.848 466.006 244.64C466.582 244.432 467.222 244.328 467.926 244.328C468.806 244.328 469.59 244.488 470.278 244.808V244.592C470.278 244.112 470.39 243.72 470.614 243.416C470.838 243.096 471.206 242.936 471.718 242.936H473.566V244.616H471.214V245.408C471.662 245.792 472.006 246.256 472.246 246.8C472.502 247.328 472.63 247.928 472.63 248.6C472.63 249.224 472.518 249.8 472.294 250.328C472.07 250.856 471.75 251.312 471.334 251.696C470.934 252.064 470.446 252.352 469.87 252.56C469.294 252.768 468.654 252.872 467.95 252.872C467.55 252.872 467.15 252.832 466.75 252.752C466.334 252.864 465.958 253.032 465.622 253.256C465.286 253.464 465.118 253.76 465.118 254.144C465.118 254.512 465.294 254.76 465.646 254.888C465.998 255.016 466.454 255.08 467.014 255.08H469.654C471.19 255.08 472.302 255.376 472.99 255.968C473.694 256.544 474.046 257.344 474.046 258.368ZM472.246 258.512C472.246 258.016 472.054 257.616 471.67 257.312C471.302 257.024 470.638 256.88 469.678 256.88H465.55C464.782 257.232 464.398 257.792 464.398 258.56C464.398 259.104 464.598 259.568 464.998 259.952C465.414 260.336 466.11 260.528 467.086 260.528H468.862C469.934 260.528 470.766 260.36 471.358 260.024C471.95 259.688 472.246 259.184 472.246 258.512ZM467.95 251.336C468.766 251.336 469.414 251.144 469.894 250.76C470.374 250.36 470.614 249.752 470.614 248.936V248.264C470.614 247.448 470.374 246.848 469.894 246.464C469.414 246.064 468.766 245.864 467.95 245.864C467.134 245.864 466.486 246.064 466.006 246.464C465.526 246.848 465.286 247.448 465.286 248.264V248.936C465.286 249.752 465.526 250.36 466.006 250.76C466.486 251.144 467.134 251.336 467.95 251.336ZM480.825 257.288C479.993 257.288 479.233 257.136 478.545 256.832C477.857 256.528 477.265 256.096 476.769 255.536C476.289 254.96 475.913 254.28 475.641 253.496C475.369 252.696 475.233 251.8 475.233 250.808C475.233 249.832 475.369 248.944 475.641 248.144C475.913 247.344 476.289 246.664 476.769 246.104C477.265 245.528 477.857 245.088 478.545 244.784C479.233 244.48 479.993 244.328 480.825 244.328C481.657 244.328 482.409 244.48 483.081 244.784C483.769 245.088 484.361 245.528 484.857 246.104C485.353 246.664 485.737 247.344 486.009 248.144C486.281 248.944 486.417 249.832 486.417 250.808C486.417 251.8 486.281 252.696 486.009 253.496C485.737 254.28 485.353 254.96 484.857 255.536C484.361 256.096 483.769 256.528 483.081 256.832C482.409 257.136 481.657 257.288 480.825 257.288ZM480.825 255.584C481.865 255.584 482.713 255.264 483.369 254.624C484.025 253.984 484.353 253.008 484.353 251.696V249.92C484.353 248.608 484.025 247.632 483.369 246.992C482.713 246.352 481.865 246.032 480.825 246.032C479.785 246.032 478.937 246.352 478.281 246.992C477.625 247.632 477.297 248.608 477.297 249.92V251.696C477.297 253.008 477.625 253.984 478.281 254.624C478.937 255.264 479.785 255.584 480.825 255.584ZM494.231 257.288C493.383 257.288 492.615 257.136 491.927 256.832C491.255 256.528 490.671 256.096 490.175 255.536C489.695 254.96 489.319 254.28 489.047 253.496C488.791 252.696 488.663 251.8 488.663 250.808C488.663 249.832 488.791 248.944 489.047 248.144C489.319 247.344 489.695 246.664 490.175 246.104C490.671 245.528 491.255 245.088 491.927 244.784C492.615 244.48 493.383 244.328 494.231 244.328C495.063 244.328 495.807 244.48 496.463 244.784C497.119 245.088 497.679 245.512 498.143 246.056C498.607 246.584 498.959 247.216 499.199 247.952C499.455 248.688 499.583 249.496 499.583 250.376V251.288H490.679V251.864C490.679 252.392 490.759 252.888 490.919 253.352C491.095 253.8 491.335 254.192 491.639 254.528C491.959 254.864 492.343 255.128 492.791 255.32C493.255 255.512 493.775 255.608 494.351 255.608C495.135 255.608 495.815 255.424 496.391 255.056C496.983 254.688 497.439 254.16 497.759 253.472L499.127 254.456C498.727 255.304 498.103 255.992 497.255 256.52C496.407 257.032 495.399 257.288 494.231 257.288ZM494.231 245.936C493.703 245.936 493.223 246.032 492.791 246.224C492.359 246.4 491.983 246.656 491.663 246.992C491.359 247.328 491.119 247.728 490.943 248.192C490.767 248.64 490.679 249.136 490.679 249.68V249.848H497.519V249.584C497.519 248.48 497.215 247.6 496.607 246.944C496.015 246.272 495.223 245.936 494.231 245.936ZM506.467 257.288C505.315 257.288 504.347 257.072 503.563 256.64C502.795 256.192 502.131 255.6 501.571 254.864L502.939 253.76C503.419 254.368 503.955 254.84 504.547 255.176C505.139 255.496 505.827 255.656 506.611 255.656C507.427 255.656 508.059 255.48 508.507 255.128C508.971 254.776 509.203 254.28 509.203 253.64C509.203 253.16 509.043 252.752 508.723 252.416C508.419 252.064 507.859 251.824 507.043 251.696L506.059 251.552C505.483 251.472 504.955 251.352 504.475 251.192C503.995 251.016 503.571 250.792 503.203 250.52C502.851 250.232 502.571 249.88 502.363 249.464C502.171 249.048 502.075 248.552 502.075 247.976C502.075 247.368 502.187 246.84 502.411 246.392C502.635 245.928 502.939 245.544 503.323 245.24C503.723 244.936 504.195 244.712 504.739 244.568C505.283 244.408 505.867 244.328 506.491 244.328C507.499 244.328 508.339 244.504 509.011 244.856C509.699 245.208 510.299 245.696 510.811 246.32L509.539 247.472C509.267 247.088 508.867 246.744 508.339 246.44C507.811 246.12 507.147 245.96 506.347 245.96C505.547 245.96 504.939 246.136 504.523 246.488C504.123 246.824 503.923 247.288 503.923 247.88C503.923 248.488 504.123 248.928 504.523 249.2C504.939 249.472 505.531 249.672 506.299 249.8L507.259 249.944C508.635 250.152 509.611 250.552 510.187 251.144C510.763 251.72 511.051 252.48 511.051 253.424C511.051 254.624 510.643 255.568 509.827 256.256C509.011 256.944 507.891 257.288 506.467 257.288ZM520.114 239.24H522.034V246.632H522.13C522.434 245.928 522.858 245.368 523.402 244.952C523.962 244.536 524.706 244.328 525.634 244.328C526.914 244.328 527.922 244.744 528.658 245.576C529.41 246.392 529.786 247.552 529.786 249.056V257H527.866V249.392C527.866 247.168 526.93 246.056 525.058 246.056C524.674 246.056 524.298 246.104 523.93 246.2C523.578 246.296 523.258 246.44 522.97 246.632C522.682 246.824 522.45 247.072 522.274 247.376C522.114 247.664 522.034 248.008 522.034 248.408V257H520.114V239.24ZM538.411 257.288C537.563 257.288 536.795 257.136 536.107 256.832C535.435 256.528 534.851 256.096 534.355 255.536C533.875 254.96 533.499 254.28 533.227 253.496C532.971 252.696 532.843 251.8 532.843 250.808C532.843 249.832 532.971 248.944 533.227 248.144C533.499 247.344 533.875 246.664 534.355 246.104C534.851 245.528 535.435 245.088 536.107 244.784C536.795 244.48 537.563 244.328 538.411 244.328C539.243 244.328 539.987 244.48 540.643 244.784C541.299 245.088 541.859 245.512 542.323 246.056C542.787 246.584 543.139 247.216 543.379 247.952C543.635 248.688 543.763 249.496 543.763 250.376V251.288H534.859V251.864C534.859 252.392 534.939 252.888 535.099 253.352C535.275 253.8 535.515 254.192 535.819 254.528C536.139 254.864 536.523 255.128 536.971 255.32C537.435 255.512 537.955 255.608 538.531 255.608C539.315 255.608 539.995 255.424 540.571 255.056C541.163 254.688 541.619 254.16 541.939 253.472L543.307 254.456C542.907 255.304 542.283 255.992 541.435 256.52C540.587 257.032 539.579 257.288 538.411 257.288ZM538.411 245.936C537.883 245.936 537.403 246.032 536.971 246.224C536.539 246.4 536.163 246.656 535.843 246.992C535.539 247.328 535.299 247.728 535.123 248.192C534.947 248.64 534.859 249.136 534.859 249.68V249.848H541.699V249.584C541.699 248.48 541.395 247.6 540.787 246.944C540.195 246.272 539.403 245.936 538.411 245.936ZM546.927 257V244.616H548.847V246.896H548.967C549.191 246.304 549.591 245.776 550.167 245.312C550.743 244.848 551.535 244.616 552.543 244.616H553.287V246.536H552.159C551.119 246.536 550.303 246.736 549.711 247.136C549.135 247.52 548.847 248.008 548.847 248.6V257H546.927ZM560.278 257.288C559.43 257.288 558.662 257.136 557.974 256.832C557.302 256.528 556.718 256.096 556.222 255.536C555.742 254.96 555.366 254.28 555.094 253.496C554.838 252.696 554.71 251.8 554.71 250.808C554.71 249.832 554.838 248.944 555.094 248.144C555.366 247.344 555.742 246.664 556.222 246.104C556.718 245.528 557.302 245.088 557.974 244.784C558.662 244.48 559.43 244.328 560.278 244.328C561.11 244.328 561.854 244.48 562.51 244.784C563.166 245.088 563.726 245.512 564.19 246.056C564.654 246.584 565.006 247.216 565.246 247.952C565.502 248.688 565.63 249.496 565.63 250.376V251.288H556.726V251.864C556.726 252.392 556.806 252.888 556.966 253.352C557.142 253.8 557.382 254.192 557.686 254.528C558.006 254.864 558.39 255.128 558.838 255.32C559.302 255.512 559.822 255.608 560.398 255.608C561.182 255.608 561.862 255.424 562.438 255.056C563.03 254.688 563.486 254.16 563.806 253.472L565.174 254.456C564.774 255.304 564.15 255.992 563.302 256.52C562.454 257.032 561.446 257.288 560.278 257.288ZM560.278 245.936C559.75 245.936 559.27 246.032 558.838 246.224C558.406 246.4 558.03 246.656 557.71 246.992C557.406 247.328 557.166 247.728 556.99 248.192C556.814 248.64 556.726 249.136 556.726 249.68V249.848H563.566V249.584C563.566 248.48 563.262 247.6 562.654 246.944C562.062 246.272 561.27 245.936 560.278 245.936Z" fill="#F5F5F7"/>
</g>
<g filter="url(#filter1_f_533_45)">
<path d="M170.222 196.768C167.32 196.768 164.675 196.277 162.286 195.296C159.939 194.272 157.912 192.8 156.206 190.88C154.542 188.917 153.24 186.507 152.302 183.648C151.406 180.747 150.958 177.419 150.958 173.664C150.958 169.909 151.406 166.603 152.302 163.744C153.24 160.843 154.542 158.432 156.206 156.512C157.912 154.549 159.939 153.077 162.286 152.096C164.675 151.072 167.32 150.56 170.222 150.56C173.123 150.56 175.747 151.072 178.094 152.096C180.483 153.077 182.51 154.549 184.174 156.512C185.88 158.432 187.182 160.843 188.078 163.744C189.016 166.603 189.486 169.909 189.486 173.664C189.486 177.419 189.016 180.747 188.078 183.648C187.182 186.507 185.88 188.917 184.174 190.88C182.51 192.8 180.483 194.272 178.094 195.296C175.747 196.277 173.123 196.768 170.222 196.768ZM170.222 190.304C171.928 190.304 173.486 190.005 174.894 189.408C176.344 188.811 177.56 187.957 178.542 186.848C179.566 185.696 180.355 184.309 180.91 182.688C181.464 181.067 181.742 179.232 181.742 177.184V170.144C181.742 168.096 181.464 166.261 180.91 164.64C180.355 163.019 179.566 161.653 178.542 160.544C177.56 159.392 176.344 158.517 174.894 157.92C173.486 157.323 171.928 157.024 170.222 157.024C168.472 157.024 166.894 157.323 165.486 157.92C164.078 158.517 162.862 159.392 161.838 160.544C160.856 161.653 160.088 163.019 159.534 164.64C158.979 166.261 158.702 168.096 158.702 170.144V177.184C158.702 179.232 158.979 181.067 159.534 182.688C160.088 184.309 160.856 185.696 161.838 186.848C162.862 187.957 164.078 188.811 165.486 189.408C166.894 190.005 168.472 190.304 170.222 190.304ZM197.992 196V162.72H204.968V168.224H205.288C206.013 166.432 207.101 164.939 208.552 163.744C210.045 162.549 212.072 161.952 214.632 161.952C218.045 161.952 220.691 163.083 222.568 165.344C224.488 167.563 225.448 170.741 225.448 174.88V196H218.472V175.776C218.472 170.571 216.381 167.968 212.2 167.968C211.304 167.968 210.408 168.096 209.512 168.352C208.659 168.565 207.891 168.907 207.208 169.376C206.525 169.845 205.971 170.443 205.544 171.168C205.16 171.893 204.968 172.747 204.968 173.728V196H197.992ZM248.173 196.768C245.784 196.768 243.65 196.363 241.773 195.552C239.896 194.741 238.296 193.589 236.973 192.096C235.65 190.56 234.626 188.725 233.901 186.592C233.218 184.416 232.877 182.005 232.877 179.36C232.877 176.715 233.218 174.325 233.901 172.192C234.626 170.016 235.65 168.181 236.973 166.688C238.296 165.152 239.896 163.979 241.773 163.168C243.65 162.357 245.784 161.952 248.173 161.952C250.605 161.952 252.738 162.379 254.573 163.232C256.45 164.085 258.008 165.28 259.245 166.816C260.482 168.309 261.4 170.059 261.997 172.064C262.637 174.069 262.957 176.224 262.957 178.528V181.152H240.109V182.24C240.109 184.8 240.856 186.912 242.349 188.576C243.885 190.197 246.061 191.008 248.877 191.008C250.925 191.008 252.653 190.56 254.061 189.664C255.469 188.768 256.664 187.552 257.645 186.016L261.741 190.048C260.504 192.096 258.712 193.739 256.365 194.976C254.018 196.171 251.288 196.768 248.173 196.768ZM248.173 167.392C246.978 167.392 245.869 167.605 244.845 168.032C243.864 168.459 243.01 169.056 242.285 169.824C241.602 170.592 241.069 171.509 240.685 172.576C240.301 173.643 240.109 174.816 240.109 176.096V176.544H255.597V175.904C255.597 173.344 254.936 171.296 253.613 169.76C252.29 168.181 250.477 167.392 248.173 167.392ZM299.693 196.768C295.938 196.768 292.738 196.085 290.093 194.72C287.49 193.355 285.25 191.52 283.373 189.216L288.365 184.544C289.943 186.464 291.671 187.915 293.549 188.896C295.469 189.877 297.645 190.368 300.077 190.368C302.935 190.368 305.09 189.728 306.541 188.448C307.991 187.168 308.717 185.44 308.717 183.264C308.717 181.515 308.205 180.128 307.181 179.104C306.157 178.08 304.343 177.312 301.741 176.8L297.773 176.096C293.421 175.285 290.157 173.856 287.981 171.808C285.805 169.76 284.717 166.944 284.717 163.36C284.717 161.397 285.079 159.627 285.805 158.048C286.573 156.427 287.618 155.083 288.941 154.016C290.306 152.907 291.949 152.053 293.869 151.456C295.789 150.859 297.943 150.56 300.333 150.56C303.703 150.56 306.626 151.157 309.101 152.352C311.575 153.504 313.687 155.189 315.437 157.408L310.381 161.888C309.229 160.395 307.821 159.2 306.157 158.304C304.493 157.408 302.423 156.96 299.949 156.96C297.389 156.96 295.405 157.472 293.997 158.496C292.589 159.52 291.885 161.013 291.885 162.976C291.885 164.853 292.461 166.261 293.613 167.2C294.765 168.096 296.557 168.779 298.989 169.248L302.957 170.08C307.437 170.933 310.701 172.384 312.749 174.432C314.839 176.48 315.885 179.296 315.885 182.88C315.885 184.971 315.522 186.869 314.797 188.576C314.071 190.283 313.005 191.755 311.597 192.992C310.231 194.187 308.546 195.125 306.541 195.808C304.535 196.448 302.253 196.768 299.693 196.768ZM333.146 196C330.714 196 328.879 195.381 327.642 194.144C326.404 192.864 325.786 191.072 325.786 188.768V168.416H320.602V162.72H323.418C324.57 162.72 325.359 162.464 325.786 161.952C326.255 161.44 326.49 160.608 326.49 159.456V153.632H332.762V162.72H339.738V168.416H332.762V190.304H339.226V196H333.146ZM360.111 196.768C357.807 196.768 355.695 196.363 353.775 195.552C351.897 194.741 350.297 193.589 348.975 192.096C347.652 190.56 346.628 188.725 345.903 186.592C345.177 184.416 344.815 182.005 344.815 179.36C344.815 176.715 345.177 174.325 345.903 172.192C346.628 170.016 347.652 168.181 348.975 166.688C350.297 165.152 351.897 163.979 353.775 163.168C355.695 162.357 357.807 161.952 360.111 161.952C362.415 161.952 364.505 162.357 366.383 163.168C368.303 163.979 369.924 165.152 371.247 166.688C372.569 168.181 373.593 170.016 374.319 172.192C375.044 174.325 375.407 176.715 375.407 179.36C375.407 182.005 375.044 184.416 374.319 186.592C373.593 188.725 372.569 190.56 371.247 192.096C369.924 193.589 368.303 194.741 366.383 195.552C364.505 196.363 362.415 196.768 360.111 196.768ZM360.111 191.008C362.5 191.008 364.42 190.283 365.871 188.832C367.321 187.339 368.047 185.12 368.047 182.176V176.544C368.047 173.6 367.321 171.403 365.871 169.952C364.42 168.459 362.5 167.712 360.111 167.712C357.721 167.712 355.801 168.459 354.351 169.952C352.9 171.403 352.175 173.6 352.175 176.544V182.176C352.175 185.12 352.9 187.339 354.351 188.832C355.801 190.283 357.721 191.008 360.111 191.008ZM383.18 162.72H390.156V168.224H390.476C391.201 166.219 392.374 164.683 393.996 163.616C395.66 162.507 397.601 161.952 399.82 161.952C404.044 161.952 407.308 163.488 409.612 166.56C411.916 169.589 413.068 173.856 413.068 179.36C413.068 184.864 411.916 189.152 409.612 192.224C407.308 195.253 404.044 196.768 399.82 196.768C397.601 196.768 395.66 196.213 393.996 195.104C392.374 193.995 391.201 192.459 390.476 190.496H390.156V208.8H383.18V162.72ZM397.708 190.752C400.14 190.752 402.081 189.984 403.532 188.448C404.982 186.869 405.708 184.8 405.708 182.24V176.48C405.708 173.92 404.982 171.872 403.532 170.336C402.081 168.757 400.14 167.968 397.708 167.968C395.574 167.968 393.782 168.501 392.332 169.568C390.881 170.592 390.156 171.957 390.156 173.664V185.056C390.156 186.763 390.881 188.149 392.332 189.216C393.782 190.24 395.574 190.752 397.708 190.752ZM450.068 196.768C446.313 196.768 443.113 196.085 440.468 194.72C437.865 193.355 435.625 191.52 433.748 189.216L438.74 184.544C440.318 186.464 442.046 187.915 443.924 188.896C445.844 189.877 448.02 190.368 450.452 190.368C453.31 190.368 455.465 189.728 456.916 188.448C458.366 187.168 459.092 185.44 459.092 183.264C459.092 181.515 458.58 180.128 457.556 179.104C456.532 178.08 454.718 177.312 452.116 176.8L448.148 176.096C443.796 175.285 440.532 173.856 438.356 171.808C436.18 169.76 435.092 166.944 435.092 163.36C435.092 161.397 435.454 159.627 436.18 158.048C436.948 156.427 437.993 155.083 439.316 154.016C440.681 152.907 442.324 152.053 444.244 151.456C446.164 150.859 448.318 150.56 450.708 150.56C454.078 150.56 457.001 151.157 459.476 152.352C461.95 153.504 464.062 155.189 465.812 157.408L460.756 161.888C459.604 160.395 458.196 159.2 456.532 158.304C454.868 157.408 452.798 156.96 450.324 156.96C447.764 156.96 445.78 157.472 444.372 158.496C442.964 159.52 442.26 161.013 442.26 162.976C442.26 164.853 442.836 166.261 443.988 167.2C445.14 168.096 446.932 168.779 449.364 169.248L453.332 170.08C457.812 170.933 461.076 172.384 463.124 174.432C465.214 176.48 466.26 179.296 466.26 182.88C466.26 184.971 465.897 186.869 465.172 188.576C464.446 190.283 463.38 191.755 461.972 192.992C460.606 194.187 458.921 195.125 456.916 195.808C454.91 196.448 452.628 196.768 450.068 196.768ZM487.486 196.768C485.096 196.768 482.963 196.363 481.086 195.552C479.208 194.741 477.608 193.589 476.286 192.096C474.963 190.56 473.939 188.725 473.214 186.592C472.531 184.416 472.19 182.005 472.19 179.36C472.19 176.715 472.531 174.325 473.214 172.192C473.939 170.016 474.963 168.181 476.286 166.688C477.608 165.152 479.208 163.979 481.086 163.168C482.963 162.357 485.096 161.952 487.486 161.952C489.918 161.952 492.051 162.379 493.886 163.232C495.763 164.085 497.32 165.28 498.558 166.816C499.795 168.309 500.712 170.059 501.31 172.064C501.95 174.069 502.27 176.224 502.27 178.528V181.152H479.422V182.24C479.422 184.8 480.168 186.912 481.662 188.576C483.198 190.197 485.374 191.008 488.19 191.008C490.238 191.008 491.966 190.56 493.374 189.664C494.782 188.768 495.976 187.552 496.958 186.016L501.054 190.048C499.816 192.096 498.024 193.739 495.678 194.976C493.331 196.171 490.6 196.768 487.486 196.768ZM487.486 167.392C486.291 167.392 485.182 167.605 484.158 168.032C483.176 168.459 482.323 169.056 481.598 169.824C480.915 170.592 480.382 171.509 479.998 172.576C479.614 173.643 479.422 174.816 479.422 176.096V176.544H494.91V175.904C494.91 173.344 494.248 171.296 492.926 169.76C491.603 168.181 489.79 167.392 487.486 167.392ZM509.992 196V162.72H516.968V169.12H517.288C517.757 167.413 518.739 165.92 520.232 164.64C521.725 163.36 523.795 162.72 526.44 162.72H528.296V169.44H525.544C522.771 169.44 520.637 169.888 519.144 170.784C517.693 171.68 516.968 173.003 516.968 174.752V196H509.992ZM542.287 196L530.959 162.72H537.871L542.927 177.888L546.319 189.536H546.703L550.095 177.888L555.279 162.72H561.935L550.479 196H542.287ZM571.325 156.768C569.874 156.768 568.807 156.427 568.125 155.744C567.485 155.061 567.165 154.187 567.165 153.12V152.032C567.165 150.965 567.485 150.091 568.125 149.408C568.807 148.725 569.874 148.384 571.325 148.384C572.775 148.384 573.821 148.725 574.461 149.408C575.101 150.091 575.421 150.965 575.421 152.032V153.12C575.421 154.187 575.101 155.061 574.461 155.744C573.821 156.427 572.775 156.768 571.325 156.768ZM567.805 162.72H574.781V196H567.805V162.72ZM597.606 196.768C595.217 196.768 593.083 196.363 591.206 195.552C589.329 194.741 587.75 193.589 586.47 192.096C585.19 190.56 584.209 188.725 583.526 186.592C582.843 184.416 582.502 182.005 582.502 179.36C582.502 176.715 582.843 174.325 583.526 172.192C584.209 170.016 585.19 168.181 586.47 166.688C587.75 165.152 589.329 163.979 591.206 163.168C593.083 162.357 595.217 161.952 597.606 161.952C600.934 161.952 603.665 162.699 605.798 164.192C607.931 165.685 609.489 167.669 610.47 170.144L604.71 172.832C604.241 171.296 603.409 170.08 602.214 169.184C601.062 168.245 599.526 167.776 597.606 167.776C595.046 167.776 593.105 168.587 591.782 170.208C590.502 171.787 589.862 173.856 589.862 176.416V182.368C589.862 184.928 590.502 187.019 591.782 188.64C593.105 190.219 595.046 191.008 597.606 191.008C599.654 191.008 601.275 190.517 602.47 189.536C603.707 188.512 604.689 187.168 605.414 185.504L610.726 188.32C609.617 191.051 607.953 193.141 605.734 194.592C603.515 196.043 600.806 196.768 597.606 196.768ZM630.048 196.768C627.659 196.768 625.525 196.363 623.648 195.552C621.771 194.741 620.171 193.589 618.848 192.096C617.525 190.56 616.501 188.725 615.776 186.592C615.093 184.416 614.752 182.005 614.752 179.36C614.752 176.715 615.093 174.325 615.776 172.192C616.501 170.016 617.525 168.181 618.848 166.688C620.171 165.152 621.771 163.979 623.648 163.168C625.525 162.357 627.659 161.952 630.048 161.952C632.48 161.952 634.613 162.379 636.448 163.232C638.325 164.085 639.883 165.28 641.12 166.816C642.357 168.309 643.275 170.059 643.872 172.064C644.512 174.069 644.832 176.224 644.832 178.528V181.152H621.984V182.24C621.984 184.8 622.731 186.912 624.224 188.576C625.76 190.197 627.936 191.008 630.752 191.008C632.8 191.008 634.528 190.56 635.936 189.664C637.344 188.768 638.539 187.552 639.52 186.016L643.616 190.048C642.379 192.096 640.587 193.739 638.24 194.976C635.893 196.171 633.163 196.768 630.048 196.768ZM630.048 167.392C628.853 167.392 627.744 167.605 626.72 168.032C625.739 168.459 624.885 169.056 624.16 169.824C623.477 170.592 622.944 171.509 622.56 172.576C622.176 173.643 621.984 174.816 621.984 176.096V176.544H637.472V175.904C637.472 173.344 636.811 171.296 635.488 169.76C634.165 168.181 632.352 167.392 630.048 167.392Z" fill="#F5F5F7"/>
</g>
<rect x="363" y="98" width="69" height="25" rx="6" fill="#0035AD"/>
<path d="M378.225 107.456H378.145L377.265 109.264L374.817 113.728L372.369 109.264L371.489 107.456H371.409V116H369.681V104.832H371.825L374.817 110.512H374.913L377.905 104.832H379.953V116H378.225V107.456ZM388.68 116C388.221 116 387.869 115.872 387.624 115.616C387.379 115.349 387.229 115.013 387.176 114.608H387.096C386.936 115.131 386.643 115.525 386.216 115.792C385.789 116.059 385.272 116.192 384.664 116.192C383.8 116.192 383.133 115.968 382.664 115.52C382.205 115.072 381.976 114.469 381.976 113.712C381.976 112.88 382.275 112.256 382.872 111.84C383.48 111.424 384.365 111.216 385.528 111.216H387.032V110.512C387.032 110 386.893 109.605 386.616 109.328C386.339 109.051 385.907 108.912 385.32 108.912C384.829 108.912 384.429 109.019 384.12 109.232C383.811 109.445 383.549 109.717 383.336 110.048L382.296 109.104C382.573 108.635 382.963 108.251 383.464 107.952C383.965 107.643 384.621 107.488 385.432 107.488C386.509 107.488 387.336 107.739 387.912 108.24C388.488 108.741 388.776 109.461 388.776 110.4V114.576H389.656V116H388.68ZM385.16 114.864C385.704 114.864 386.152 114.747 386.504 114.512C386.856 114.267 387.032 113.941 387.032 113.536V112.336H385.56C384.355 112.336 383.752 112.709 383.752 113.456V113.744C383.752 114.117 383.875 114.4 384.12 114.592C384.376 114.773 384.723 114.864 385.16 114.864ZM391.365 104.16H393.109V109.056H393.189C393.371 108.608 393.643 108.235 394.005 107.936C394.379 107.637 394.885 107.488 395.525 107.488C396.379 107.488 397.04 107.771 397.509 108.336C397.989 108.891 398.229 109.685 398.229 110.72V116H396.485V110.928C396.485 109.637 395.963 108.992 394.917 108.992C394.693 108.992 394.469 109.024 394.245 109.088C394.032 109.141 393.84 109.227 393.669 109.344C393.499 109.461 393.36 109.611 393.253 109.792C393.157 109.973 393.109 110.181 393.109 110.416V116H391.365V104.16ZM401.526 106.192C401.164 106.192 400.897 106.107 400.726 105.936C400.566 105.765 400.486 105.547 400.486 105.28V105.008C400.486 104.741 400.566 104.523 400.726 104.352C400.897 104.181 401.164 104.096 401.526 104.096C401.889 104.096 402.15 104.181 402.31 104.352C402.47 104.523 402.55 104.741 402.55 105.008V105.28C402.55 105.547 402.47 105.765 402.31 105.936C402.15 106.107 401.889 106.192 401.526 106.192ZM400.646 107.68H402.39V116H400.646V107.68ZM410.113 114.624H410.033C409.851 115.115 409.553 115.499 409.137 115.776C408.731 116.053 408.251 116.192 407.697 116.192C406.641 116.192 405.825 115.813 405.249 115.056C404.673 114.288 404.385 113.216 404.385 111.84C404.385 110.464 404.673 109.397 405.249 108.64C405.825 107.872 406.641 107.488 407.697 107.488C408.251 107.488 408.731 107.627 409.137 107.904C409.553 108.171 409.851 108.555 410.033 109.056H410.113V104.16H411.857V116H410.113V114.624ZM408.225 114.688C408.758 114.688 409.206 114.56 409.569 114.304C409.931 114.037 410.113 113.691 410.113 113.264V110.416C410.113 109.989 409.931 109.648 409.569 109.392C409.206 109.125 408.758 108.992 408.225 108.992C407.617 108.992 407.131 109.189 406.769 109.584C406.406 109.968 406.225 110.48 406.225 111.12V112.56C406.225 113.2 406.406 113.717 406.769 114.112C407.131 114.496 407.617 114.688 408.225 114.688ZM417.614 116.192C417.038 116.192 416.51 116.091 416.03 115.888C415.56 115.685 415.16 115.397 414.83 115.024C414.499 114.64 414.243 114.181 414.062 113.648C413.88 113.104 413.79 112.501 413.79 111.84C413.79 111.179 413.88 110.581 414.062 110.048C414.243 109.504 414.499 109.045 414.83 108.672C415.16 108.288 415.56 107.995 416.03 107.792C416.51 107.589 417.038 107.488 417.614 107.488C418.19 107.488 418.712 107.589 419.182 107.792C419.662 107.995 420.067 108.288 420.398 108.672C420.728 109.045 420.984 109.504 421.166 110.048C421.347 110.581 421.438 111.179 421.438 111.84C421.438 112.501 421.347 113.104 421.166 113.648C420.984 114.181 420.728 114.64 420.398 115.024C420.067 115.397 419.662 115.685 419.182 115.888C418.712 116.091 418.19 116.192 417.614 116.192ZM417.614 114.752C418.211 114.752 418.691 114.571 419.054 114.208C419.416 113.835 419.598 113.28 419.598 112.544V111.136C419.598 110.4 419.416 109.851 419.054 109.488C418.691 109.115 418.211 108.928 417.614 108.928C417.016 108.928 416.536 109.115 416.174 109.488C415.811 109.851 415.63 110.4 415.63 111.136V112.544C415.63 113.28 415.811 113.835 416.174 114.208C416.536 114.571 417.016 114.752 417.614 114.752ZM425.157 116C424.559 116 424.111 115.851 423.813 115.552C423.525 115.243 423.381 114.816 423.381 114.272V104.16H425.125V114.576H426.277V116H425.157Z" fill="white"/>
<defs>
<filter id="filter0_f_533_45" x="172.798" y="183.24" width="448.832" height="134.848" filterUnits="userSpaceOnUse" color-interpolation-filters="sRGB">
<feFlood flood-opacity="0" result="BackgroundImageFix"/>
<feBlend mode="normal" in="SourceGraphic" in2="BackgroundImageFix" result="shape"/>
<feGaussianBlur stdDeviation="28" result="effect1_foregroundBlur_533_45"/>
</filter>
<filter id="filter1_f_533_45" x="118.958" y="116.384" width="557.875" height="124.416" filterUnits="userSpaceOnUse" color-interpolation-filters="sRGB">
<feFlood flood-opacity="0" result="BackgroundImageFix"/>
<feBlend mode="normal" in="SourceGraphic" in2="BackgroundImageFix" result="shape"/>
<feGaussianBlur stdDeviation="16" result="effect1_foregroundBlur_533_45"/>
</filter>
</defs>
</svg>
