<svg width="795" height="951" viewBox="0 0 795 951" fill="none" xmlns="http://www.w3.org/2000/svg">
<rect width="795" height="951" rx="32" fill="#1D1D1F"/>
<path d="M279.961 141.824H279.641L276.121 149.056L266.329 166.912L256.537 149.056L253.017 141.824H252.697V176H245.785V131.328H254.361L266.329 154.048H266.713L278.681 131.328H286.873V176H279.961V141.824ZM317.814 142.72H324.534L310.518 182.592C310.134 183.701 309.686 184.64 309.174 185.408C308.705 186.219 308.129 186.859 307.446 187.328C306.806 187.84 306.017 188.203 305.078 188.416C304.14 188.672 303.03 188.8 301.75 188.8H297.718V183.104H303.35L305.27 177.472L293.174 142.72H300.15L306.806 162.304L308.726 169.536H309.046L311.158 162.304L317.814 142.72ZM342.762 176.768C340.373 176.768 338.24 176.363 336.362 175.552C334.485 174.741 332.906 173.589 331.626 172.096C330.346 170.56 329.365 168.725 328.682 166.592C328 164.416 327.658 162.005 327.658 159.36C327.658 156.715 328 154.325 328.682 152.192C329.365 150.016 330.346 148.181 331.626 146.688C332.906 145.152 334.485 143.979 336.362 143.168C338.24 142.357 340.373 141.952 342.762 141.952C346.09 141.952 348.821 142.699 350.954 144.192C353.088 145.685 354.645 147.669 355.626 150.144L349.866 152.832C349.397 151.296 348.565 150.08 347.37 149.184C346.218 148.245 344.682 147.776 342.762 147.776C340.202 147.776 338.261 148.587 336.938 150.208C335.658 151.787 335.018 153.856 335.018 156.416V162.368C335.018 164.928 335.658 167.019 336.938 168.64C338.261 170.219 340.202 171.008 342.762 171.008C344.81 171.008 346.432 170.517 347.626 169.536C348.864 168.512 349.845 167.168 350.57 165.504L355.882 168.32C354.773 171.051 353.109 173.141 350.89 174.592C348.672 176.043 345.962 176.768 342.762 176.768ZM375.204 176.768C372.9 176.768 370.788 176.363 368.868 175.552C366.991 174.741 365.391 173.589 364.068 172.096C362.746 170.56 361.722 168.725 360.996 166.592C360.271 164.416 359.908 162.005 359.908 159.36C359.908 156.715 360.271 154.325 360.996 152.192C361.722 150.016 362.746 148.181 364.068 146.688C365.391 145.152 366.991 143.979 368.868 143.168C370.788 142.357 372.9 141.952 375.204 141.952C377.508 141.952 379.599 142.357 381.476 143.168C383.396 143.979 385.018 145.152 386.34 146.688C387.663 148.181 388.687 150.016 389.412 152.192C390.138 154.325 390.5 156.715 390.5 159.36C390.5 162.005 390.138 164.416 389.412 166.592C388.687 168.725 387.663 170.56 386.34 172.096C385.018 173.589 383.396 174.741 381.476 175.552C379.599 176.363 377.508 176.768 375.204 176.768ZM375.204 171.008C377.594 171.008 379.514 170.283 380.964 168.832C382.415 167.339 383.14 165.12 383.14 162.176V156.544C383.14 153.6 382.415 151.403 380.964 149.952C379.514 148.459 377.594 147.712 375.204 147.712C372.815 147.712 370.895 148.459 369.444 149.952C367.994 151.403 367.268 153.6 367.268 156.544V162.176C367.268 165.12 367.994 167.339 369.444 168.832C370.895 170.283 372.815 171.008 375.204 171.008ZM418.433 170.496H418.177C417.879 171.307 417.473 172.096 416.961 172.864C416.492 173.632 415.873 174.315 415.105 174.912C414.38 175.467 413.484 175.915 412.417 176.256C411.393 176.597 410.199 176.768 408.833 176.768C405.377 176.768 402.689 175.659 400.769 173.44C398.892 171.221 397.953 168.043 397.953 163.904V142.72H404.929V163.008C404.929 168.171 407.063 170.752 411.329 170.752C412.225 170.752 413.1 170.645 413.953 170.432C414.807 170.176 415.553 169.813 416.193 169.344C416.876 168.875 417.409 168.277 417.793 167.552C418.22 166.827 418.433 165.973 418.433 164.992V142.72H425.409V176H418.433V170.496ZM435.398 176V142.72H442.374V149.12H442.694C443.164 147.413 444.145 145.92 445.638 144.64C447.132 143.36 449.201 142.72 451.846 142.72H453.702V149.44H450.95C448.177 149.44 446.044 149.888 444.55 150.784C443.1 151.68 442.374 153.003 442.374 154.752V176H435.398ZM470.458 176.768C467.301 176.768 464.656 176.213 462.522 175.104C460.389 173.995 458.533 172.459 456.954 170.496L461.434 166.4C462.672 167.893 464.037 169.067 465.53 169.92C467.066 170.731 468.837 171.136 470.842 171.136C472.89 171.136 474.405 170.752 475.386 169.984C476.41 169.173 476.922 168.064 476.922 166.656C476.922 165.589 476.56 164.693 475.834 163.968C475.152 163.2 473.936 162.709 472.186 162.496L469.114 162.112C465.701 161.685 463.013 160.704 461.05 159.168C459.13 157.589 458.17 155.264 458.17 152.192C458.17 150.571 458.469 149.141 459.066 147.904C459.664 146.624 460.496 145.557 461.562 144.704C462.672 143.808 463.973 143.125 465.466 142.656C467.002 142.187 468.688 141.952 470.522 141.952C473.509 141.952 475.941 142.421 477.818 143.36C479.738 144.299 481.445 145.6 482.938 147.264L478.65 151.36C477.797 150.336 476.666 149.461 475.258 148.736C473.893 147.968 472.314 147.584 470.522 147.584C468.602 147.584 467.173 147.968 466.234 148.736C465.338 149.504 464.89 150.507 464.89 151.744C464.89 153.024 465.296 153.984 466.106 154.624C466.917 155.264 468.218 155.733 470.01 156.032L473.082 156.416C476.752 156.971 479.418 158.059 481.082 159.68C482.789 161.259 483.642 163.392 483.642 166.08C483.642 167.701 483.322 169.173 482.682 170.496C482.085 171.776 481.21 172.885 480.058 173.824C478.906 174.763 477.52 175.488 475.898 176C474.277 176.512 472.464 176.768 470.458 176.768ZM504.579 176.768C502.19 176.768 500.057 176.363 498.179 175.552C496.302 174.741 494.702 173.589 493.379 172.096C492.057 170.56 491.033 168.725 490.307 166.592C489.625 164.416 489.283 162.005 489.283 159.36C489.283 156.715 489.625 154.325 490.307 152.192C491.033 150.016 492.057 148.181 493.379 146.688C494.702 145.152 496.302 143.979 498.179 143.168C500.057 142.357 502.19 141.952 504.579 141.952C507.011 141.952 509.145 142.379 510.979 143.232C512.857 144.085 514.414 145.28 515.651 146.816C516.889 148.309 517.806 150.059 518.403 152.064C519.043 154.069 519.363 156.224 519.363 158.528V161.152H496.515V162.24C496.515 164.8 497.262 166.912 498.755 168.576C500.291 170.197 502.467 171.008 505.283 171.008C507.331 171.008 509.059 170.56 510.467 169.664C511.875 168.768 513.07 167.552 514.051 166.016L518.147 170.048C516.91 172.096 515.118 173.739 512.771 174.976C510.425 176.171 507.694 176.768 504.579 176.768ZM504.579 147.392C503.385 147.392 502.275 147.605 501.251 148.032C500.27 148.459 499.417 149.056 498.691 149.824C498.009 150.592 497.475 151.509 497.091 152.576C496.707 153.643 496.515 154.816 496.515 156.096V156.544H512.003V155.904C512.003 153.344 511.342 151.296 510.019 149.76C508.697 148.181 506.883 147.392 504.579 147.392ZM537.646 176.768C534.488 176.768 531.843 176.213 529.71 175.104C527.576 173.995 525.72 172.459 524.142 170.496L528.622 166.4C529.859 167.893 531.224 169.067 532.718 169.92C534.254 170.731 536.024 171.136 538.03 171.136C540.078 171.136 541.592 170.752 542.574 169.984C543.598 169.173 544.11 168.064 544.11 166.656C544.11 165.589 543.747 164.693 543.022 163.968C542.339 163.2 541.123 162.709 539.374 162.496L536.302 162.112C532.888 161.685 530.2 160.704 528.238 159.168C526.318 157.589 525.358 155.264 525.358 152.192C525.358 150.571 525.656 149.141 526.254 147.904C526.851 146.624 527.683 145.557 528.75 144.704C529.859 143.808 531.16 143.125 532.654 142.656C534.19 142.187 535.875 141.952 537.71 141.952C540.696 141.952 543.128 142.421 545.006 143.36C546.926 144.299 548.632 145.6 550.126 147.264L545.838 151.36C544.984 150.336 543.854 149.461 542.446 148.736C541.08 147.968 539.502 147.584 537.71 147.584C535.79 147.584 534.36 147.968 533.422 148.736C532.526 149.504 532.078 150.507 532.078 151.744C532.078 153.024 532.483 153.984 533.294 154.624C534.104 155.264 535.406 155.733 537.198 156.032L540.27 156.416C543.939 156.971 546.606 158.059 548.27 159.68C549.976 161.259 550.83 163.392 550.83 166.08C550.83 167.701 550.51 169.173 549.87 170.496C549.272 171.776 548.398 172.885 547.246 173.824C546.094 174.763 544.707 175.488 543.086 176C541.464 176.512 539.651 176.768 537.646 176.768Z" fill="#F5F5F7"/>
<path d="M152.443 251L146.875 234.248H149.035L151.795 242.696L153.643 248.984H153.763L155.659 242.696L158.443 234.248H160.531L154.891 251H152.443ZM164.02 235.712C163.604 235.712 163.3 235.616 163.108 235.424C162.932 235.216 162.844 234.952 162.844 234.632V234.32C162.844 234 162.932 233.744 163.108 233.552C163.3 233.344 163.604 233.24 164.02 233.24C164.436 233.24 164.732 233.344 164.908 233.552C165.1 233.744 165.196 234 165.196 234.32V234.632C165.196 234.952 165.1 235.216 164.908 235.424C164.732 235.616 164.436 235.712 164.02 235.712ZM163.06 238.616H164.98V251H163.06V238.616ZM173.716 251.288C172.868 251.288 172.1 251.136 171.412 250.832C170.74 250.528 170.156 250.096 169.66 249.536C169.18 248.96 168.804 248.28 168.532 247.496C168.276 246.696 168.148 245.8 168.148 244.808C168.148 243.832 168.276 242.944 168.532 242.144C168.804 241.344 169.18 240.664 169.66 240.104C170.156 239.528 170.74 239.088 171.412 238.784C172.1 238.48 172.868 238.328 173.716 238.328C174.548 238.328 175.292 238.48 175.948 238.784C176.604 239.088 177.164 239.512 177.628 240.056C178.092 240.584 178.444 241.216 178.684 241.952C178.94 242.688 179.068 243.496 179.068 244.376V245.288H170.164V245.864C170.164 246.392 170.244 246.888 170.404 247.352C170.58 247.8 170.82 248.192 171.124 248.528C171.444 248.864 171.828 249.128 172.276 249.32C172.74 249.512 173.26 249.608 173.836 249.608C174.62 249.608 175.3 249.424 175.876 249.056C176.468 248.688 176.924 248.16 177.244 247.472L178.612 248.456C178.212 249.304 177.588 249.992 176.74 250.52C175.892 251.032 174.884 251.288 173.716 251.288ZM173.716 239.936C173.188 239.936 172.708 240.032 172.276 240.224C171.844 240.4 171.468 240.656 171.148 240.992C170.844 241.328 170.604 241.728 170.428 242.192C170.252 242.64 170.164 243.136 170.164 243.68V243.848H177.004V243.584C177.004 242.48 176.7 241.6 176.092 240.944C175.5 240.272 174.708 239.936 173.716 239.936ZM180.818 238.616H182.69L184.01 243.968L185.33 249.392H185.378L186.89 243.968L188.45 238.616H190.154L191.762 243.968L193.298 249.392H193.346L194.618 243.968L195.962 238.616H197.762L194.474 251H192.098L190.37 245.048L189.29 241.28H189.242L188.186 245.048L186.458 251H184.13L180.818 238.616ZM215.208 251C214.488 251 213.968 250.808 213.648 250.424C213.344 250.04 213.152 249.56 213.072 248.984H212.952C212.68 249.752 212.232 250.328 211.608 250.712C210.984 251.096 210.24 251.288 209.376 251.288C208.064 251.288 207.04 250.952 206.304 250.28C205.584 249.608 205.224 248.696 205.224 247.544C205.224 246.376 205.648 245.48 206.496 244.856C207.36 244.232 208.696 243.92 210.504 243.92H212.952V242.696C212.952 241.816 212.712 241.144 212.232 240.68C211.752 240.216 211.016 239.984 210.024 239.984C209.272 239.984 208.64 240.152 208.128 240.488C207.632 240.824 207.216 241.272 206.88 241.832L205.728 240.752C206.064 240.08 206.6 239.512 207.336 239.048C208.072 238.568 209 238.328 210.12 238.328C211.624 238.328 212.792 238.696 213.624 239.432C214.456 240.168 214.872 241.192 214.872 242.504V249.32H216.288V251H215.208ZM209.688 249.656C210.168 249.656 210.608 249.6 211.008 249.488C211.408 249.376 211.752 249.216 212.04 249.008C212.328 248.8 212.552 248.56 212.712 248.288C212.872 248.016 212.952 247.72 212.952 247.4V245.36H210.408C209.304 245.36 208.496 245.52 207.984 245.84C207.488 246.16 207.24 246.624 207.24 247.232V247.736C207.24 248.344 207.456 248.816 207.888 249.152C208.336 249.488 208.936 249.656 209.688 249.656ZM219.028 251V238.616H220.948V240.632H221.044C221.348 239.928 221.772 239.368 222.316 238.952C222.876 238.536 223.62 238.328 224.548 238.328C225.828 238.328 226.836 238.744 227.572 239.576C228.324 240.392 228.7 241.552 228.7 243.056V251H226.78V243.392C226.78 241.168 225.844 240.056 223.972 240.056C223.588 240.056 223.212 240.104 222.844 240.2C222.492 240.296 222.172 240.44 221.884 240.632C221.596 240.824 221.364 241.072 221.188 241.376C221.028 241.664 220.948 242.008 220.948 242.408V251H219.028ZM240.589 248.984H240.493C239.741 250.52 238.533 251.288 236.869 251.288C236.101 251.288 235.405 251.136 234.781 250.832C234.157 250.528 233.621 250.096 233.173 249.536C232.741 248.976 232.405 248.296 232.165 247.496C231.941 246.696 231.829 245.8 231.829 244.808C231.829 243.816 231.941 242.92 232.165 242.12C232.405 241.32 232.741 240.64 233.173 240.08C233.621 239.52 234.157 239.088 234.781 238.784C235.405 238.48 236.101 238.328 236.869 238.328C237.733 238.328 238.469 238.52 239.077 238.904C239.701 239.272 240.173 239.848 240.493 240.632H240.589V233.24H242.509V251H240.589V248.984ZM237.397 249.56C237.829 249.56 238.237 249.504 238.621 249.392C239.021 249.28 239.365 249.12 239.653 248.912C239.941 248.688 240.165 248.424 240.325 248.12C240.501 247.8 240.589 247.44 240.589 247.04V242.432C240.589 242.096 240.501 241.784 240.325 241.496C240.165 241.192 239.941 240.936 239.653 240.728C239.365 240.52 239.021 240.36 238.621 240.248C238.237 240.12 237.829 240.056 237.397 240.056C236.309 240.056 235.453 240.4 234.829 241.088C234.205 241.76 233.893 242.648 233.893 243.752V245.864C233.893 246.968 234.205 247.864 234.829 248.552C235.453 249.224 236.309 249.56 237.397 249.56ZM252.263 251V238.616H254.183V240.632H254.279C254.423 240.312 254.583 240.016 254.759 239.744C254.951 239.456 255.175 239.208 255.431 239C255.703 238.792 256.015 238.632 256.367 238.52C256.719 238.392 257.135 238.328 257.615 238.328C258.431 238.328 259.183 238.528 259.871 238.928C260.559 239.312 261.071 239.952 261.407 240.848H261.455C261.679 240.176 262.095 239.592 262.703 239.096C263.327 238.584 264.167 238.328 265.223 238.328C266.487 238.328 267.471 238.744 268.175 239.576C268.895 240.392 269.255 241.552 269.255 243.056V251H267.335V243.392C267.335 242.288 267.119 241.456 266.687 240.896C266.255 240.336 265.567 240.056 264.623 240.056C264.239 240.056 263.871 240.104 263.519 240.2C263.183 240.296 262.879 240.44 262.607 240.632C262.335 240.824 262.119 241.072 261.959 241.376C261.799 241.664 261.719 242.008 261.719 242.408V251H259.799V243.392C259.799 242.288 259.583 241.456 259.151 240.896C258.719 240.336 258.047 240.056 257.135 240.056C256.751 240.056 256.383 240.104 256.031 240.2C255.679 240.296 255.367 240.44 255.095 240.632C254.823 240.824 254.599 241.072 254.423 241.376C254.263 241.664 254.183 242.008 254.183 242.408V251H252.263ZM282.216 251C281.496 251 280.976 250.808 280.656 250.424C280.352 250.04 280.16 249.56 280.08 248.984H279.96C279.688 249.752 279.24 250.328 278.616 250.712C277.992 251.096 277.248 251.288 276.384 251.288C275.072 251.288 274.048 250.952 273.312 250.28C272.592 249.608 272.232 248.696 272.232 247.544C272.232 246.376 272.656 245.48 273.504 244.856C274.368 244.232 275.704 243.92 277.512 243.92H279.96V242.696C279.96 241.816 279.72 241.144 279.24 240.68C278.76 240.216 278.024 239.984 277.032 239.984C276.28 239.984 275.648 240.152 275.136 240.488C274.64 240.824 274.224 241.272 273.888 241.832L272.736 240.752C273.072 240.08 273.608 239.512 274.344 239.048C275.08 238.568 276.008 238.328 277.128 238.328C278.632 238.328 279.8 238.696 280.632 239.432C281.464 240.168 281.88 241.192 281.88 242.504V249.32H283.296V251H282.216ZM276.696 249.656C277.176 249.656 277.616 249.6 278.016 249.488C278.416 249.376 278.76 249.216 279.048 249.008C279.336 248.8 279.56 248.56 279.72 248.288C279.88 248.016 279.96 247.72 279.96 247.4V245.36H277.416C276.312 245.36 275.504 245.52 274.992 245.84C274.496 246.16 274.248 246.624 274.248 247.232V247.736C274.248 248.344 274.464 248.816 274.896 249.152C275.344 249.488 275.944 249.656 276.696 249.656ZM286.036 251V238.616H287.956V240.632H288.052C288.356 239.928 288.78 239.368 289.324 238.952C289.884 238.536 290.628 238.328 291.556 238.328C292.836 238.328 293.844 238.744 294.58 239.576C295.332 240.392 295.708 241.552 295.708 243.056V251H293.788V243.392C293.788 241.168 292.852 240.056 290.98 240.056C290.596 240.056 290.22 240.104 289.852 240.2C289.5 240.296 289.18 240.44 288.892 240.632C288.604 240.824 288.372 241.072 288.196 241.376C288.036 241.664 287.956 242.008 287.956 242.408V251H286.036ZM308.677 251C307.957 251 307.437 250.808 307.117 250.424C306.813 250.04 306.621 249.56 306.541 248.984H306.421C306.149 249.752 305.701 250.328 305.077 250.712C304.453 251.096 303.709 251.288 302.845 251.288C301.533 251.288 300.509 250.952 299.773 250.28C299.053 249.608 298.693 248.696 298.693 247.544C298.693 246.376 299.117 245.48 299.965 244.856C300.829 244.232 302.165 243.92 303.973 243.92H306.421V242.696C306.421 241.816 306.181 241.144 305.701 240.68C305.221 240.216 304.485 239.984 303.493 239.984C302.741 239.984 302.109 240.152 301.597 240.488C301.101 240.824 300.685 241.272 300.349 241.832L299.197 240.752C299.533 240.08 300.069 239.512 300.805 239.048C301.541 238.568 302.469 238.328 303.589 238.328C305.093 238.328 306.261 238.696 307.093 239.432C307.925 240.168 308.341 241.192 308.341 242.504V249.32H309.757V251H308.677ZM303.157 249.656C303.637 249.656 304.077 249.6 304.477 249.488C304.877 249.376 305.221 249.216 305.509 249.008C305.797 248.8 306.021 248.56 306.181 248.288C306.341 248.016 306.421 247.72 306.421 247.4V245.36H303.877C302.773 245.36 301.965 245.52 301.453 245.84C300.957 246.16 300.709 246.624 300.709 247.232V247.736C300.709 248.344 300.925 248.816 301.357 249.152C301.805 249.488 302.405 249.656 303.157 249.656ZM322.937 252.368C322.937 253.648 322.433 254.584 321.425 255.176C320.433 255.784 318.937 256.088 316.937 256.088C315.001 256.088 313.609 255.824 312.761 255.296C311.913 254.768 311.489 254.016 311.489 253.04C311.489 252.368 311.665 251.84 312.017 251.456C312.369 251.088 312.849 250.816 313.457 250.64V250.376C312.721 250.024 312.353 249.448 312.353 248.648C312.353 248.024 312.553 247.552 312.953 247.232C313.353 246.896 313.865 246.648 314.489 246.488V246.392C313.753 246.04 313.177 245.536 312.761 244.88C312.361 244.224 312.161 243.464 312.161 242.6C312.161 241.976 312.273 241.4 312.497 240.872C312.721 240.344 313.033 239.896 313.433 239.528C313.849 239.144 314.337 238.848 314.897 238.64C315.473 238.432 316.113 238.328 316.817 238.328C317.697 238.328 318.481 238.488 319.169 238.808V238.592C319.169 238.112 319.281 237.72 319.505 237.416C319.729 237.096 320.097 236.936 320.609 236.936H322.457V238.616H320.105V239.408C320.553 239.792 320.897 240.256 321.137 240.8C321.393 241.328 321.521 241.928 321.521 242.6C321.521 243.224 321.409 243.8 321.185 244.328C320.961 244.856 320.641 245.312 320.225 245.696C319.825 246.064 319.337 246.352 318.761 246.56C318.185 246.768 317.545 246.872 316.841 246.872C316.441 246.872 316.041 246.832 315.641 246.752C315.225 246.864 314.849 247.032 314.513 247.256C314.177 247.464 314.009 247.76 314.009 248.144C314.009 248.512 314.185 248.76 314.537 248.888C314.889 249.016 315.345 249.08 315.905 249.08H318.545C320.081 249.08 321.193 249.376 321.881 249.968C322.585 250.544 322.937 251.344 322.937 252.368ZM321.137 252.512C321.137 252.016 320.945 251.616 320.561 251.312C320.193 251.024 319.529 250.88 318.569 250.88H314.441C313.673 251.232 313.289 251.792 313.289 252.56C313.289 253.104 313.489 253.568 313.889 253.952C314.305 254.336 315.001 254.528 315.977 254.528H317.753C318.825 254.528 319.657 254.36 320.249 254.024C320.841 253.688 321.137 253.184 321.137 252.512ZM316.841 245.336C317.657 245.336 318.305 245.144 318.785 244.76C319.265 244.36 319.505 243.752 319.505 242.936V242.264C319.505 241.448 319.265 240.848 318.785 240.464C318.305 240.064 317.657 239.864 316.841 239.864C316.025 239.864 315.377 240.064 314.897 240.464C314.417 240.848 314.177 241.448 314.177 242.264V242.936C314.177 243.752 314.417 244.36 314.897 244.76C315.377 245.144 316.025 245.336 316.841 245.336ZM329.692 251.288C328.844 251.288 328.076 251.136 327.388 250.832C326.716 250.528 326.132 250.096 325.636 249.536C325.156 248.96 324.78 248.28 324.508 247.496C324.252 246.696 324.124 245.8 324.124 244.808C324.124 243.832 324.252 242.944 324.508 242.144C324.78 241.344 325.156 240.664 325.636 240.104C326.132 239.528 326.716 239.088 327.388 238.784C328.076 238.48 328.844 238.328 329.692 238.328C330.524 238.328 331.268 238.48 331.924 238.784C332.58 239.088 333.14 239.512 333.604 240.056C334.068 240.584 334.42 241.216 334.66 241.952C334.916 242.688 335.044 243.496 335.044 244.376V245.288H326.14V245.864C326.14 246.392 326.22 246.888 326.38 247.352C326.556 247.8 326.796 248.192 327.1 248.528C327.42 248.864 327.804 249.128 328.252 249.32C328.716 249.512 329.236 249.608 329.812 249.608C330.596 249.608 331.276 249.424 331.852 249.056C332.444 248.688 332.9 248.16 333.22 247.472L334.588 248.456C334.188 249.304 333.564 249.992 332.716 250.52C331.868 251.032 330.86 251.288 329.692 251.288ZM329.692 239.936C329.164 239.936 328.684 240.032 328.252 240.224C327.82 240.4 327.444 240.656 327.124 240.992C326.82 241.328 326.58 241.728 326.404 242.192C326.228 242.64 326.14 243.136 326.14 243.68V243.848H332.98V243.584C332.98 242.48 332.676 241.6 332.068 240.944C331.476 240.272 330.684 239.936 329.692 239.936ZM352.88 251C352.16 251 351.64 250.808 351.32 250.424C351.016 250.04 350.824 249.56 350.744 248.984H350.624C350.352 249.752 349.904 250.328 349.28 250.712C348.656 251.096 347.912 251.288 347.048 251.288C345.736 251.288 344.712 250.952 343.976 250.28C343.256 249.608 342.896 248.696 342.896 247.544C342.896 246.376 343.32 245.48 344.168 244.856C345.032 244.232 346.368 243.92 348.176 243.92H350.624V242.696C350.624 241.816 350.384 241.144 349.904 240.68C349.424 240.216 348.688 239.984 347.696 239.984C346.944 239.984 346.312 240.152 345.8 240.488C345.304 240.824 344.888 241.272 344.552 241.832L343.4 240.752C343.736 240.08 344.272 239.512 345.008 239.048C345.744 238.568 346.672 238.328 347.792 238.328C349.296 238.328 350.464 238.696 351.296 239.432C352.128 240.168 352.544 241.192 352.544 242.504V249.32H353.96V251H352.88ZM347.36 249.656C347.84 249.656 348.28 249.6 348.68 249.488C349.08 249.376 349.424 249.216 349.712 249.008C350 248.8 350.224 248.56 350.384 248.288C350.544 248.016 350.624 247.72 350.624 247.4V245.36H348.08C346.976 245.36 346.168 245.52 345.656 245.84C345.16 246.16 344.912 246.624 344.912 247.232V247.736C344.912 248.344 345.128 248.816 345.56 249.152C346.008 249.488 346.608 249.656 347.36 249.656ZM358.74 251C358.068 251 357.556 250.816 357.204 250.448C356.868 250.064 356.7 249.584 356.7 249.008V233.24H358.62V249.32H360.444V251H358.74ZM365.162 251C364.49 251 363.978 250.816 363.626 250.448C363.29 250.064 363.122 249.584 363.122 249.008V233.24H365.042V249.32H366.866V251H365.162ZM382.965 238.616H384.861L379.317 253.88C379.173 254.248 379.029 254.552 378.885 254.792C378.741 255.048 378.565 255.248 378.357 255.392C378.149 255.536 377.885 255.64 377.565 255.704C377.261 255.768 376.885 255.8 376.437 255.8H375.453V254.12H377.397L378.333 251.48L373.701 238.616H375.621L378.597 247.04L379.173 249.056H379.293L379.965 247.04L382.965 238.616ZM391.872 251.288C391.04 251.288 390.28 251.136 389.592 250.832C388.904 250.528 388.312 250.096 387.816 249.536C387.336 248.96 386.96 248.28 386.688 247.496C386.416 246.696 386.28 245.8 386.28 244.808C386.28 243.832 386.416 242.944 386.688 242.144C386.96 241.344 387.336 240.664 387.816 240.104C388.312 239.528 388.904 239.088 389.592 238.784C390.28 238.48 391.04 238.328 391.872 238.328C392.704 238.328 393.456 238.48 394.128 238.784C394.816 239.088 395.408 239.528 395.904 240.104C396.4 240.664 396.784 241.344 397.056 242.144C397.328 242.944 397.464 243.832 397.464 244.808C397.464 245.8 397.328 246.696 397.056 247.496C396.784 248.28 396.4 248.96 395.904 249.536C395.408 250.096 394.816 250.528 394.128 250.832C393.456 251.136 392.704 251.288 391.872 251.288ZM391.872 249.584C392.912 249.584 393.76 249.264 394.416 248.624C395.072 247.984 395.4 247.008 395.4 245.696V243.92C395.4 242.608 395.072 241.632 394.416 240.992C393.76 240.352 392.912 240.032 391.872 240.032C390.832 240.032 389.984 240.352 389.328 240.992C388.672 241.632 388.344 242.608 388.344 243.92V245.696C388.344 247.008 388.672 247.984 389.328 248.624C389.984 249.264 390.832 249.584 391.872 249.584ZM408.254 248.984H408.158C408.03 249.272 407.87 249.56 407.678 249.848C407.502 250.12 407.278 250.368 407.006 250.592C406.734 250.8 406.406 250.968 406.022 251.096C405.638 251.224 405.19 251.288 404.678 251.288C403.398 251.288 402.382 250.88 401.63 250.064C400.878 249.232 400.502 248.064 400.502 246.56V238.616H402.422V246.224C402.422 248.448 403.366 249.56 405.254 249.56C405.638 249.56 406.006 249.512 406.358 249.416C406.726 249.32 407.046 249.176 407.318 248.984C407.606 248.792 407.83 248.552 407.99 248.264C408.166 247.96 408.254 247.6 408.254 247.184V238.616H410.174V251H408.254V248.984ZM414.263 251V238.616H416.183V240.896H416.303C416.527 240.304 416.927 239.776 417.503 239.312C418.079 238.848 418.871 238.616 419.879 238.616H420.623V240.536H419.495C418.455 240.536 417.639 240.736 417.047 241.136C416.471 241.52 416.183 242.008 416.183 242.6V251H414.263ZM433.355 251.288C432.491 251.288 431.715 251.136 431.027 250.832C430.339 250.528 429.755 250.096 429.275 249.536C428.811 248.976 428.451 248.296 428.195 247.496C427.955 246.696 427.835 245.8 427.835 244.808C427.835 243.816 427.955 242.92 428.195 242.12C428.451 241.32 428.811 240.64 429.275 240.08C429.755 239.52 430.339 239.088 431.027 238.784C431.715 238.48 432.491 238.328 433.355 238.328C434.587 238.328 435.571 238.6 436.307 239.144C437.059 239.672 437.619 240.368 437.987 241.232L436.379 242.048C436.155 241.408 435.787 240.912 435.275 240.56C434.763 240.208 434.123 240.032 433.355 240.032C432.779 240.032 432.275 240.128 431.843 240.32C431.411 240.496 431.051 240.752 430.763 241.088C430.475 241.408 430.259 241.8 430.115 242.264C429.971 242.712 429.899 243.208 429.899 243.752V245.864C429.899 246.952 430.187 247.848 430.763 248.552C431.355 249.24 432.219 249.584 433.355 249.584C434.907 249.584 436.027 248.864 436.715 247.424L438.107 248.36C437.707 249.256 437.107 249.968 436.307 250.496C435.523 251.024 434.539 251.288 433.355 251.288ZM442.857 251C442.185 251 441.673 250.816 441.321 250.448C440.985 250.064 440.817 249.584 440.817 249.008V233.24H442.737V249.32H444.561V251H442.857ZM456.356 251C455.636 251 455.116 250.808 454.796 250.424C454.492 250.04 454.3 249.56 454.22 248.984H454.1C453.828 249.752 453.38 250.328 452.756 250.712C452.132 251.096 451.388 251.288 450.524 251.288C449.212 251.288 448.188 250.952 447.452 250.28C446.732 249.608 446.372 248.696 446.372 247.544C446.372 246.376 446.796 245.48 447.644 244.856C448.508 244.232 449.844 243.92 451.652 243.92H454.1V242.696C454.1 241.816 453.86 241.144 453.38 240.68C452.9 240.216 452.164 239.984 451.172 239.984C450.42 239.984 449.788 240.152 449.276 240.488C448.78 240.824 448.364 241.272 448.028 241.832L446.876 240.752C447.212 240.08 447.748 239.512 448.484 239.048C449.22 238.568 450.148 238.328 451.268 238.328C452.772 238.328 453.94 238.696 454.772 239.432C455.604 240.168 456.02 241.192 456.02 242.504V249.32H457.436V251H456.356ZM450.836 249.656C451.316 249.656 451.756 249.6 452.156 249.488C452.556 249.376 452.9 249.216 453.188 249.008C453.476 248.8 453.7 248.56 453.86 248.288C454.02 248.016 454.1 247.72 454.1 247.4V245.36H451.556C450.452 245.36 449.644 245.52 449.132 245.84C448.636 246.16 448.388 246.624 448.388 247.232V247.736C448.388 248.344 448.604 248.816 449.036 249.152C449.484 249.488 450.084 249.656 450.836 249.656ZM463.897 251.288C462.745 251.288 461.777 251.072 460.993 250.64C460.225 250.192 459.561 249.6 459.001 248.864L460.369 247.76C460.849 248.368 461.385 248.84 461.977 249.176C462.569 249.496 463.257 249.656 464.041 249.656C464.857 249.656 465.489 249.48 465.937 249.128C466.401 248.776 466.633 248.28 466.633 247.64C466.633 247.16 466.473 246.752 466.153 246.416C465.849 246.064 465.289 245.824 464.473 245.696L463.489 245.552C462.913 245.472 462.385 245.352 461.905 245.192C461.425 245.016 461.001 244.792 460.633 244.52C460.281 244.232 460.001 243.88 459.793 243.464C459.601 243.048 459.505 242.552 459.505 241.976C459.505 241.368 459.617 240.84 459.841 240.392C460.065 239.928 460.369 239.544 460.753 239.24C461.153 238.936 461.625 238.712 462.169 238.568C462.713 238.408 463.297 238.328 463.921 238.328C464.929 238.328 465.769 238.504 466.441 238.856C467.129 239.208 467.729 239.696 468.241 240.32L466.969 241.472C466.697 241.088 466.297 240.744 465.769 240.44C465.241 240.12 464.577 239.96 463.777 239.96C462.977 239.96 462.369 240.136 461.953 240.488C461.553 240.824 461.353 241.288 461.353 241.88C461.353 242.488 461.553 242.928 461.953 243.2C462.369 243.472 462.961 243.672 463.729 243.8L464.689 243.944C466.065 244.152 467.041 244.552 467.617 245.144C468.193 245.72 468.481 246.48 468.481 247.424C468.481 248.624 468.073 249.568 467.257 250.256C466.441 250.944 465.321 251.288 463.897 251.288ZM475.451 251.288C474.299 251.288 473.331 251.072 472.547 250.64C471.779 250.192 471.115 249.6 470.555 248.864L471.923 247.76C472.403 248.368 472.939 248.84 473.531 249.176C474.123 249.496 474.811 249.656 475.595 249.656C476.411 249.656 477.043 249.48 477.491 249.128C477.955 248.776 478.187 248.28 478.187 247.64C478.187 247.16 478.027 246.752 477.707 246.416C477.403 246.064 476.843 245.824 476.027 245.696L475.043 245.552C474.467 245.472 473.939 245.352 473.459 245.192C472.979 245.016 472.555 244.792 472.187 244.52C471.835 244.232 471.555 243.88 471.347 243.464C471.155 243.048 471.059 242.552 471.059 241.976C471.059 241.368 471.171 240.84 471.395 240.392C471.619 239.928 471.923 239.544 472.307 239.24C472.707 238.936 473.179 238.712 473.723 238.568C474.267 238.408 474.851 238.328 475.475 238.328C476.483 238.328 477.323 238.504 477.995 238.856C478.683 239.208 479.283 239.696 479.795 240.32L478.523 241.472C478.251 241.088 477.851 240.744 477.323 240.44C476.795 240.12 476.131 239.96 475.331 239.96C474.531 239.96 473.923 240.136 473.507 240.488C473.107 240.824 472.907 241.288 472.907 241.88C472.907 242.488 473.107 242.928 473.507 243.2C473.923 243.472 474.515 243.672 475.283 243.8L476.243 243.944C477.619 244.152 478.595 244.552 479.171 245.144C479.747 245.72 480.035 246.48 480.035 247.424C480.035 248.624 479.627 249.568 478.811 250.256C477.995 250.944 476.875 251.288 475.451 251.288ZM488.083 251.288C487.235 251.288 486.467 251.136 485.779 250.832C485.107 250.528 484.523 250.096 484.027 249.536C483.547 248.96 483.171 248.28 482.899 247.496C482.643 246.696 482.515 245.8 482.515 244.808C482.515 243.832 482.643 242.944 482.899 242.144C483.171 241.344 483.547 240.664 484.027 240.104C484.523 239.528 485.107 239.088 485.779 238.784C486.467 238.48 487.235 238.328 488.083 238.328C488.915 238.328 489.659 238.48 490.315 238.784C490.971 239.088 491.531 239.512 491.995 240.056C492.459 240.584 492.811 241.216 493.051 241.952C493.307 242.688 493.435 243.496 493.435 244.376V245.288H484.531V245.864C484.531 246.392 484.611 246.888 484.771 247.352C484.947 247.8 485.187 248.192 485.491 248.528C485.811 248.864 486.195 249.128 486.643 249.32C487.107 249.512 487.627 249.608 488.203 249.608C488.987 249.608 489.667 249.424 490.243 249.056C490.835 248.688 491.291 248.16 491.611 247.472L492.979 248.456C492.579 249.304 491.955 249.992 491.107 250.52C490.259 251.032 489.251 251.288 488.083 251.288ZM488.083 239.936C487.555 239.936 487.075 240.032 486.643 240.224C486.211 240.4 485.835 240.656 485.515 240.992C485.211 241.328 484.971 241.728 484.795 242.192C484.619 242.64 484.531 243.136 484.531 243.68V243.848H491.371V243.584C491.371 242.48 491.067 241.6 490.459 240.944C489.867 240.272 489.075 239.936 488.083 239.936ZM500.319 251.288C499.167 251.288 498.199 251.072 497.415 250.64C496.647 250.192 495.983 249.6 495.423 248.864L496.791 247.76C497.271 248.368 497.807 248.84 498.399 249.176C498.991 249.496 499.679 249.656 500.463 249.656C501.279 249.656 501.911 249.48 502.359 249.128C502.823 248.776 503.055 248.28 503.055 247.64C503.055 247.16 502.895 246.752 502.575 246.416C502.271 246.064 501.711 245.824 500.895 245.696L499.911 245.552C499.335 245.472 498.807 245.352 498.327 245.192C497.847 245.016 497.423 244.792 497.055 244.52C496.703 244.232 496.423 243.88 496.215 243.464C496.023 243.048 495.927 242.552 495.927 241.976C495.927 241.368 496.039 240.84 496.263 240.392C496.487 239.928 496.791 239.544 497.175 239.24C497.575 238.936 498.047 238.712 498.591 238.568C499.135 238.408 499.719 238.328 500.343 238.328C501.351 238.328 502.191 238.504 502.863 238.856C503.551 239.208 504.151 239.696 504.663 240.32L503.391 241.472C503.119 241.088 502.719 240.744 502.191 240.44C501.663 240.12 500.999 239.96 500.199 239.96C499.399 239.96 498.791 240.136 498.375 240.488C497.975 240.824 497.775 241.288 497.775 241.88C497.775 242.488 497.975 242.928 498.375 243.2C498.791 243.472 499.383 243.672 500.151 243.8L501.111 243.944C502.487 244.152 503.463 244.552 504.039 245.144C504.615 245.72 504.903 246.48 504.903 247.424C504.903 248.624 504.495 249.568 503.679 250.256C502.863 250.944 501.743 251.288 500.319 251.288ZM514.926 235.712C514.51 235.712 514.206 235.616 514.014 235.424C513.838 235.216 513.75 234.952 513.75 234.632V234.32C513.75 234 513.838 233.744 514.014 233.552C514.206 233.344 514.51 233.24 514.926 233.24C515.342 233.24 515.638 233.344 515.814 233.552C516.006 233.744 516.102 234 516.102 234.32V234.632C516.102 234.952 516.006 235.216 515.814 235.424C515.638 235.616 515.342 235.712 514.926 235.712ZM513.966 238.616H515.886V251H513.966V238.616ZM519.966 251V238.616H521.886V240.632H521.982C522.286 239.928 522.71 239.368 523.254 238.952C523.814 238.536 524.558 238.328 525.486 238.328C526.766 238.328 527.774 238.744 528.51 239.576C529.262 240.392 529.638 241.552 529.638 243.056V251H527.718V243.392C527.718 241.168 526.782 240.056 524.91 240.056C524.526 240.056 524.15 240.104 523.782 240.2C523.43 240.296 523.11 240.44 522.822 240.632C522.534 240.824 522.302 241.072 522.126 241.376C521.966 241.664 521.886 242.008 521.886 242.408V251H519.966ZM543.958 251.288C543.126 251.288 542.366 251.136 541.678 250.832C540.99 250.528 540.398 250.096 539.902 249.536C539.422 248.96 539.046 248.28 538.774 247.496C538.502 246.696 538.366 245.8 538.366 244.808C538.366 243.832 538.502 242.944 538.774 242.144C539.046 241.344 539.422 240.664 539.902 240.104C540.398 239.528 540.99 239.088 541.678 238.784C542.366 238.48 543.126 238.328 543.958 238.328C544.79 238.328 545.542 238.48 546.214 238.784C546.902 239.088 547.494 239.528 547.99 240.104C548.486 240.664 548.87 241.344 549.142 242.144C549.414 242.944 549.55 243.832 549.55 244.808C549.55 245.8 549.414 246.696 549.142 247.496C548.87 248.28 548.486 248.96 547.99 249.536C547.494 250.096 546.902 250.528 546.214 250.832C545.542 251.136 544.79 251.288 543.958 251.288ZM543.958 249.584C544.998 249.584 545.846 249.264 546.502 248.624C547.158 247.984 547.486 247.008 547.486 245.696V243.92C547.486 242.608 547.158 241.632 546.502 240.992C545.846 240.352 544.998 240.032 543.958 240.032C542.918 240.032 542.07 240.352 541.414 240.992C540.758 241.632 540.43 242.608 540.43 243.92V245.696C540.43 247.008 540.758 247.984 541.414 248.624C542.07 249.264 542.918 249.584 543.958 249.584ZM552.708 251V238.616H554.628V240.632H554.724C555.028 239.928 555.452 239.368 555.996 238.952C556.556 238.536 557.3 238.328 558.228 238.328C559.508 238.328 560.516 238.744 561.252 239.576C562.004 240.392 562.38 241.552 562.38 243.056V251H560.46V243.392C560.46 241.168 559.524 240.056 557.652 240.056C557.268 240.056 556.892 240.104 556.524 240.2C556.172 240.296 555.852 240.44 555.564 240.632C555.276 240.824 555.044 241.072 554.868 241.376C554.708 241.664 554.628 242.008 554.628 242.408V251H552.708ZM571.005 251.288C570.157 251.288 569.389 251.136 568.701 250.832C568.029 250.528 567.445 250.096 566.949 249.536C566.469 248.96 566.093 248.28 565.821 247.496C565.565 246.696 565.437 245.8 565.437 244.808C565.437 243.832 565.565 242.944 565.821 242.144C566.093 241.344 566.469 240.664 566.949 240.104C567.445 239.528 568.029 239.088 568.701 238.784C569.389 238.48 570.157 238.328 571.005 238.328C571.837 238.328 572.581 238.48 573.237 238.784C573.893 239.088 574.453 239.512 574.917 240.056C575.381 240.584 575.733 241.216 575.973 241.952C576.229 242.688 576.357 243.496 576.357 244.376V245.288H567.453V245.864C567.453 246.392 567.533 246.888 567.693 247.352C567.869 247.8 568.109 248.192 568.413 248.528C568.733 248.864 569.117 249.128 569.565 249.32C570.029 249.512 570.549 249.608 571.125 249.608C571.909 249.608 572.589 249.424 573.165 249.056C573.757 248.688 574.213 248.16 574.533 247.472L575.901 248.456C575.501 249.304 574.877 249.992 574.029 250.52C573.181 251.032 572.173 251.288 571.005 251.288ZM571.005 239.936C570.477 239.936 569.997 240.032 569.565 240.224C569.133 240.4 568.757 240.656 568.437 240.992C568.133 241.328 567.893 241.728 567.717 242.192C567.541 242.64 567.453 243.136 567.453 243.68V243.848H574.293V243.584C574.293 242.48 573.989 241.6 573.381 240.944C572.789 240.272 571.997 239.936 571.005 239.936ZM585.192 238.616H587.112V240.632H587.208C587.528 239.848 587.992 239.272 588.6 238.904C589.224 238.52 589.968 238.328 590.832 238.328C591.6 238.328 592.296 238.48 592.92 238.784C593.544 239.088 594.072 239.52 594.504 240.08C594.952 240.64 595.288 241.32 595.512 242.12C595.752 242.92 595.872 243.816 595.872 244.808C595.872 245.8 595.752 246.696 595.512 247.496C595.288 248.296 594.952 248.976 594.504 249.536C594.072 250.096 593.544 250.528 592.92 250.832C592.296 251.136 591.6 251.288 590.832 251.288C589.152 251.288 587.944 250.52 587.208 248.984H587.112V255.8H585.192V238.616ZM590.304 249.56C591.392 249.56 592.248 249.224 592.872 248.552C593.496 247.864 593.808 246.968 593.808 245.864V243.752C593.808 242.648 593.496 241.76 592.872 241.088C592.248 240.4 591.392 240.056 590.304 240.056C589.872 240.056 589.456 240.12 589.056 240.248C588.672 240.36 588.336 240.52 588.048 240.728C587.76 240.936 587.528 241.192 587.352 241.496C587.192 241.784 587.112 242.096 587.112 242.432V247.04C587.112 247.44 587.192 247.8 587.352 248.12C587.528 248.424 587.76 248.688 588.048 248.912C588.336 249.12 588.672 249.28 589.056 249.392C589.456 249.504 589.872 249.56 590.304 249.56ZM601.154 251C600.482 251 599.97 250.816 599.618 250.448C599.282 250.064 599.114 249.584 599.114 249.008V233.24H601.034V249.32H602.858V251H601.154ZM614.653 251C613.933 251 613.413 250.808 613.093 250.424C612.789 250.04 612.597 249.56 612.517 248.984H612.397C612.125 249.752 611.677 250.328 611.053 250.712C610.429 251.096 609.685 251.288 608.821 251.288C607.509 251.288 606.485 250.952 605.749 250.28C605.029 249.608 604.669 248.696 604.669 247.544C604.669 246.376 605.093 245.48 605.941 244.856C606.805 244.232 608.141 243.92 609.949 243.92H612.397V242.696C612.397 241.816 612.157 241.144 611.677 240.68C611.197 240.216 610.461 239.984 609.469 239.984C608.717 239.984 608.085 240.152 607.573 240.488C607.077 240.824 606.661 241.272 606.325 241.832L605.173 240.752C605.509 240.08 606.045 239.512 606.781 239.048C607.517 238.568 608.445 238.328 609.565 238.328C611.069 238.328 612.237 238.696 613.069 239.432C613.901 240.168 614.317 241.192 614.317 242.504V249.32H615.733V251H614.653ZM609.133 249.656C609.613 249.656 610.053 249.6 610.453 249.488C610.853 249.376 611.197 249.216 611.485 249.008C611.773 248.8 611.997 248.56 612.157 248.288C612.317 248.016 612.397 247.72 612.397 247.4V245.36H609.853C608.749 245.36 607.941 245.52 607.429 245.84C606.933 246.16 606.685 246.624 606.685 247.232V247.736C606.685 248.344 606.901 248.816 607.333 249.152C607.781 249.488 608.381 249.656 609.133 249.656ZM623.082 251.288C622.218 251.288 621.442 251.136 620.754 250.832C620.066 250.528 619.482 250.096 619.002 249.536C618.538 248.976 618.178 248.296 617.922 247.496C617.682 246.696 617.562 245.8 617.562 244.808C617.562 243.816 617.682 242.92 617.922 242.12C618.178 241.32 618.538 240.64 619.002 240.08C619.482 239.52 620.066 239.088 620.754 238.784C621.442 238.48 622.218 238.328 623.082 238.328C624.314 238.328 625.298 238.6 626.034 239.144C626.786 239.672 627.346 240.368 627.714 241.232L626.106 242.048C625.882 241.408 625.514 240.912 625.002 240.56C624.49 240.208 623.85 240.032 623.082 240.032C622.506 240.032 622.002 240.128 621.57 240.32C621.138 240.496 620.778 240.752 620.49 241.088C620.202 241.408 619.986 241.8 619.842 242.264C619.698 242.712 619.626 243.208 619.626 243.752V245.864C619.626 246.952 619.914 247.848 620.49 248.552C621.082 249.24 621.946 249.584 623.082 249.584C624.634 249.584 625.754 248.864 626.442 247.424L627.834 248.36C627.434 249.256 626.834 249.968 626.034 250.496C625.25 251.024 624.266 251.288 623.082 251.288ZM635.059 251.288C634.211 251.288 633.443 251.136 632.755 250.832C632.083 250.528 631.499 250.096 631.003 249.536C630.523 248.96 630.147 248.28 629.875 247.496C629.619 246.696 629.491 245.8 629.491 244.808C629.491 243.832 629.619 242.944 629.875 242.144C630.147 241.344 630.523 240.664 631.003 240.104C631.499 239.528 632.083 239.088 632.755 238.784C633.443 238.48 634.211 238.328 635.059 238.328C635.891 238.328 636.635 238.48 637.291 238.784C637.947 239.088 638.507 239.512 638.971 240.056C639.435 240.584 639.787 241.216 640.027 241.952C640.283 242.688 640.411 243.496 640.411 244.376V245.288H631.507V245.864C631.507 246.392 631.587 246.888 631.747 247.352C631.923 247.8 632.163 248.192 632.467 248.528C632.787 248.864 633.171 249.128 633.619 249.32C634.083 249.512 634.603 249.608 635.179 249.608C635.963 249.608 636.643 249.424 637.219 249.056C637.811 248.688 638.267 248.16 638.587 247.472L639.955 248.456C639.555 249.304 638.931 249.992 638.083 250.52C637.235 251.032 636.227 251.288 635.059 251.288ZM635.059 239.936C634.531 239.936 634.051 240.032 633.619 240.224C633.187 240.4 632.811 240.656 632.491 240.992C632.187 241.328 631.947 241.728 631.771 242.192C631.595 242.64 631.507 243.136 631.507 243.68V243.848H638.347V243.584C638.347 242.48 638.043 241.6 637.435 240.944C636.843 240.272 636.051 239.936 635.059 239.936ZM644.33 251.288C643.818 251.288 643.442 251.16 643.202 250.904C642.978 250.648 642.866 250.312 642.866 249.896V249.584C642.866 249.168 642.978 248.832 643.202 248.576C643.442 248.32 643.818 248.192 644.33 248.192C644.842 248.192 645.21 248.32 645.434 248.576C645.674 248.832 645.794 249.168 645.794 249.584V249.896C645.794 250.312 645.674 250.648 645.434 250.904C645.21 251.16 644.842 251.288 644.33 251.288Z" fill="#F5F5F7"/>
<rect x="344" y="78" width="38" height="25" rx="6" fill="#006C6C"/>
<path d="M351.38 96V94.528H352.9V86.304H351.38V84.832H356.244V86.304H354.708V94.528H356.244V96H351.38ZM362.709 96.192C361.247 96.192 360.101 95.7013 359.269 94.72C358.437 93.728 358.021 92.2933 358.021 90.416C358.021 89.4773 358.127 88.6507 358.341 87.936C358.554 87.2213 358.863 86.6187 359.269 86.128C359.674 85.6373 360.165 85.2693 360.741 85.024C361.327 84.768 361.983 84.64 362.709 84.64C363.679 84.64 364.49 84.8533 365.141 85.28C365.802 85.7067 366.319 86.336 366.693 87.168L365.173 88C364.981 87.4667 364.682 87.0453 364.277 86.736C363.882 86.416 363.359 86.256 362.709 86.256C361.845 86.256 361.167 86.5493 360.677 87.136C360.186 87.7227 359.941 88.5333 359.941 89.568V91.264C359.941 92.2987 360.186 93.1093 360.677 93.696C361.167 94.2827 361.845 94.576 362.709 94.576C363.381 94.576 363.925 94.4053 364.341 94.064C364.767 93.712 365.082 93.264 365.285 92.72L366.741 93.6C366.367 94.4107 365.845 95.0453 365.173 95.504C364.501 95.9627 363.679 96.192 362.709 96.192ZM372.801 86.432V96H370.993V86.432H367.665V84.832H376.129V86.432H372.801Z" fill="white"/>
<rect x="382" y="78" width="69" height="25" rx="6" fill="#0035AD"/>
<path d="M397.225 87.456H397.145L396.265 89.264L393.817 93.728L391.369 89.264L390.489 87.456H390.409V96H388.681V84.832H390.825L393.817 90.512H393.913L396.905 84.832H398.953V96H397.225V87.456ZM407.68 96C407.221 96 406.869 95.872 406.624 95.616C406.379 95.3493 406.229 95.0133 406.176 94.608H406.096C405.936 95.1307 405.643 95.5253 405.216 95.792C404.789 96.0587 404.272 96.192 403.664 96.192C402.8 96.192 402.133 95.968 401.664 95.52C401.205 95.072 400.976 94.4693 400.976 93.712C400.976 92.88 401.275 92.256 401.872 91.84C402.48 91.424 403.365 91.216 404.528 91.216H406.032V90.512C406.032 90 405.893 89.6053 405.616 89.328C405.339 89.0507 404.907 88.912 404.32 88.912C403.829 88.912 403.429 89.0187 403.12 89.232C402.811 89.4453 402.549 89.7173 402.336 90.048L401.296 89.104C401.573 88.6347 401.963 88.2507 402.464 87.952C402.965 87.6427 403.621 87.488 404.432 87.488C405.509 87.488 406.336 87.7387 406.912 88.24C407.488 88.7413 407.776 89.4613 407.776 90.4V94.576H408.656V96H407.68ZM404.16 94.864C404.704 94.864 405.152 94.7467 405.504 94.512C405.856 94.2667 406.032 93.9413 406.032 93.536V92.336H404.56C403.355 92.336 402.752 92.7093 402.752 93.456V93.744C402.752 94.1173 402.875 94.4 403.12 94.592C403.376 94.7733 403.723 94.864 404.16 94.864ZM410.365 84.16H412.109V89.056H412.189C412.371 88.608 412.643 88.2347 413.005 87.936C413.379 87.6373 413.885 87.488 414.525 87.488C415.379 87.488 416.04 87.7707 416.509 88.336C416.989 88.8907 417.229 89.6853 417.229 90.72V96H415.485V90.928C415.485 89.6373 414.963 88.992 413.917 88.992C413.693 88.992 413.469 89.024 413.245 89.088C413.032 89.1413 412.84 89.2267 412.669 89.344C412.499 89.4613 412.36 89.6107 412.253 89.792C412.157 89.9733 412.109 90.1813 412.109 90.416V96H410.365V84.16ZM420.526 86.192C420.164 86.192 419.897 86.1067 419.726 85.936C419.566 85.7653 419.486 85.5467 419.486 85.28V85.008C419.486 84.7413 419.566 84.5227 419.726 84.352C419.897 84.1813 420.164 84.096 420.526 84.096C420.889 84.096 421.15 84.1813 421.31 84.352C421.47 84.5227 421.55 84.7413 421.55 85.008V85.28C421.55 85.5467 421.47 85.7653 421.31 85.936C421.15 86.1067 420.889 86.192 420.526 86.192ZM419.646 87.68H421.39V96H419.646V87.68ZM429.113 94.624H429.033C428.851 95.1147 428.553 95.4987 428.137 95.776C427.731 96.0533 427.251 96.192 426.697 96.192C425.641 96.192 424.825 95.8133 424.249 95.056C423.673 94.288 423.385 93.216 423.385 91.84C423.385 90.464 423.673 89.3973 424.249 88.64C424.825 87.872 425.641 87.488 426.697 87.488C427.251 87.488 427.731 87.6267 428.137 87.904C428.553 88.1707 428.851 88.5547 429.033 89.056H429.113V84.16H430.857V96H429.113V94.624ZM427.225 94.688C427.758 94.688 428.206 94.56 428.569 94.304C428.931 94.0373 429.113 93.6907 429.113 93.264V90.416C429.113 89.9893 428.931 89.648 428.569 89.392C428.206 89.1253 427.758 88.992 427.225 88.992C426.617 88.992 426.131 89.1893 425.769 89.584C425.406 89.968 425.225 90.48 425.225 91.12V92.56C425.225 93.2 425.406 93.7173 425.769 94.112C426.131 94.496 426.617 94.688 427.225 94.688ZM436.614 96.192C436.038 96.192 435.51 96.0907 435.03 95.888C434.56 95.6853 434.16 95.3973 433.83 95.024C433.499 94.64 433.243 94.1813 433.062 93.648C432.88 93.104 432.79 92.5013 432.79 91.84C432.79 91.1787 432.88 90.5813 433.062 90.048C433.243 89.504 433.499 89.0453 433.83 88.672C434.16 88.288 434.56 87.9947 435.03 87.792C435.51 87.5893 436.038 87.488 436.614 87.488C437.19 87.488 437.712 87.5893 438.182 87.792C438.662 87.9947 439.067 88.288 439.398 88.672C439.728 89.0453 439.984 89.504 440.166 90.048C440.347 90.5813 440.438 91.1787 440.438 91.84C440.438 92.5013 440.347 93.104 440.166 93.648C439.984 94.1813 439.728 94.64 439.398 95.024C439.067 95.3973 438.662 95.6853 438.182 95.888C437.712 96.0907 437.19 96.192 436.614 96.192ZM436.614 94.752C437.211 94.752 437.691 94.5707 438.054 94.208C438.416 93.8347 438.598 93.28 438.598 92.544V91.136C438.598 90.4 438.416 89.8507 438.054 89.488C437.691 89.1147 437.211 88.928 436.614 88.928C436.016 88.928 435.536 89.1147 435.174 89.488C434.811 89.8507 434.63 90.4 434.63 91.136V92.544C434.63 93.28 434.811 93.8347 435.174 94.208C435.536 94.5707 436.016 94.752 436.614 94.752ZM444.157 96C443.559 96 443.111 95.8507 442.813 95.552C442.525 95.2427 442.381 94.816 442.381 94.272V84.16H444.125V94.576H445.277V96H444.157Z" fill="white"/>
</svg>
