<svg width="1637" height="951" viewBox="0 0 1637 951" fill="none" xmlns="http://www.w3.org/2000/svg">
<rect width="1637" height="951" rx="32" fill="white"/>
<path d="M755.773 703.288C753.645 703.288 751.989 702.568 750.805 701.128C749.621 699.672 749.029 697.536 749.029 694.72C749.029 691.904 749.621 689.744 750.805 688.24C751.989 686.72 753.645 685.96 755.773 685.96C757.181 685.96 758.357 686.28 759.301 686.92C760.261 687.56 761.005 688.464 761.533 689.632L759.901 690.616C759.565 689.752 759.053 689.064 758.365 688.552C757.677 688.024 756.813 687.76 755.773 687.76C755.053 687.76 754.405 687.896 753.829 688.168C753.269 688.44 752.789 688.832 752.389 689.344C752.005 689.84 751.709 690.44 751.501 691.144C751.293 691.832 751.189 692.608 751.189 693.472V695.968C751.189 697.696 751.589 699.048 752.389 700.024C753.189 701 754.317 701.488 755.773 701.488C756.845 701.488 757.741 701.216 758.461 700.672C759.181 700.112 759.709 699.376 760.045 698.464L761.653 699.472C761.125 700.656 760.365 701.592 759.373 702.28C758.381 702.952 757.181 703.288 755.773 703.288ZM769.263 703.288C768.431 703.288 767.671 703.136 766.983 702.832C766.295 702.528 765.703 702.096 765.207 701.536C764.727 700.96 764.351 700.28 764.079 699.496C763.807 698.696 763.671 697.8 763.671 696.808C763.671 695.832 763.807 694.944 764.079 694.144C764.351 693.344 764.727 692.664 765.207 692.104C765.703 691.528 766.295 691.088 766.983 690.784C767.671 690.48 768.431 690.328 769.263 690.328C770.095 690.328 770.847 690.48 771.519 690.784C772.207 691.088 772.799 691.528 773.295 692.104C773.791 692.664 774.175 693.344 774.447 694.144C774.719 694.944 774.855 695.832 774.855 696.808C774.855 697.8 774.719 698.696 774.447 699.496C774.175 700.28 773.791 700.96 773.295 701.536C772.799 702.096 772.207 702.528 771.519 702.832C770.847 703.136 770.095 703.288 769.263 703.288ZM769.263 701.584C770.303 701.584 771.151 701.264 771.807 700.624C772.463 699.984 772.791 699.008 772.791 697.696V695.92C772.791 694.608 772.463 693.632 771.807 692.992C771.151 692.352 770.303 692.032 769.263 692.032C768.223 692.032 767.375 692.352 766.719 692.992C766.063 693.632 765.735 694.608 765.735 695.92V697.696C765.735 699.008 766.063 699.984 766.719 700.624C767.375 701.264 768.223 701.584 769.263 701.584ZM778.013 703V690.616H779.933V692.632H780.029C780.173 692.312 780.333 692.016 780.509 691.744C780.701 691.456 780.925 691.208 781.181 691C781.453 690.792 781.765 690.632 782.117 690.52C782.469 690.392 782.885 690.328 783.365 690.328C784.181 690.328 784.933 690.528 785.621 690.928C786.309 691.312 786.821 691.952 787.157 692.848H787.205C787.429 692.176 787.845 691.592 788.453 691.096C789.077 690.584 789.917 690.328 790.973 690.328C792.237 690.328 793.221 690.744 793.925 691.576C794.645 692.392 795.005 693.552 795.005 695.056V703H793.085V695.392C793.085 694.288 792.869 693.456 792.437 692.896C792.005 692.336 791.317 692.056 790.373 692.056C789.989 692.056 789.621 692.104 789.269 692.2C788.933 692.296 788.629 692.44 788.357 692.632C788.085 692.824 787.869 693.072 787.709 693.376C787.549 693.664 787.469 694.008 787.469 694.408V703H785.549V695.392C785.549 694.288 785.333 693.456 784.901 692.896C784.469 692.336 783.797 692.056 782.885 692.056C782.501 692.056 782.133 692.104 781.781 692.2C781.429 692.296 781.117 692.44 780.845 692.632C780.573 692.824 780.349 693.072 780.173 693.376C780.013 693.664 779.933 694.008 779.933 694.408V703H778.013ZM799.926 687.712C799.51 687.712 799.206 687.616 799.014 687.424C798.838 687.216 798.75 686.952 798.75 686.632V686.32C798.75 686 798.838 685.744 799.014 685.552C799.206 685.344 799.51 685.24 799.926 685.24C800.342 685.24 800.638 685.344 800.814 685.552C801.006 685.744 801.102 686 801.102 686.32V686.632C801.102 686.952 801.006 687.216 800.814 687.424C800.638 687.616 800.342 687.712 799.926 687.712ZM798.966 690.616H800.886V703H798.966V690.616ZM804.966 703V690.616H806.886V692.632H806.982C807.286 691.928 807.71 691.368 808.254 690.952C808.814 690.536 809.558 690.328 810.486 690.328C811.766 690.328 812.774 690.744 813.51 691.576C814.262 692.392 814.638 693.552 814.638 695.056V703H812.718V695.392C812.718 693.168 811.782 692.056 809.91 692.056C809.526 692.056 809.15 692.104 808.782 692.2C808.43 692.296 808.11 692.44 807.822 692.632C807.534 692.824 807.302 693.072 807.126 693.376C806.966 693.664 806.886 694.008 806.886 694.408V703H804.966ZM829.046 704.368C829.046 705.648 828.542 706.584 827.534 707.176C826.542 707.784 825.046 708.088 823.046 708.088C821.11 708.088 819.718 707.824 818.87 707.296C818.022 706.768 817.598 706.016 817.598 705.04C817.598 704.368 817.774 703.84 818.126 703.456C818.478 703.088 818.958 702.816 819.566 702.64V702.376C818.83 702.024 818.462 701.448 818.462 700.648C818.462 700.024 818.662 699.552 819.062 699.232C819.462 698.896 819.974 698.648 820.598 698.488V698.392C819.862 698.04 819.286 697.536 818.87 696.88C818.47 696.224 818.27 695.464 818.27 694.6C818.27 693.976 818.382 693.4 818.606 692.872C818.83 692.344 819.142 691.896 819.542 691.528C819.958 691.144 820.446 690.848 821.006 690.64C821.582 690.432 822.222 690.328 822.926 690.328C823.806 690.328 824.59 690.488 825.278 690.808V690.592C825.278 690.112 825.39 689.72 825.614 689.416C825.838 689.096 826.206 688.936 826.718 688.936H828.566V690.616H826.214V691.408C826.662 691.792 827.006 692.256 827.246 692.8C827.502 693.328 827.63 693.928 827.63 694.6C827.63 695.224 827.518 695.8 827.294 696.328C827.07 696.856 826.75 697.312 826.334 697.696C825.934 698.064 825.446 698.352 824.87 698.56C824.294 698.768 823.654 698.872 822.95 698.872C822.55 698.872 822.15 698.832 821.75 698.752C821.334 698.864 820.958 699.032 820.622 699.256C820.286 699.464 820.118 699.76 820.118 700.144C820.118 700.512 820.294 700.76 820.646 700.888C820.998 701.016 821.454 701.08 822.014 701.08H824.654C826.19 701.08 827.302 701.376 827.99 701.968C828.694 702.544 829.046 703.344 829.046 704.368ZM827.246 704.512C827.246 704.016 827.054 703.616 826.67 703.312C826.302 703.024 825.638 702.88 824.678 702.88H820.55C819.782 703.232 819.398 703.792 819.398 704.56C819.398 705.104 819.598 705.568 819.998 705.952C820.414 706.336 821.11 706.528 822.086 706.528H823.862C824.934 706.528 825.766 706.36 826.358 706.024C826.95 705.688 827.246 705.184 827.246 704.512ZM822.95 697.336C823.766 697.336 824.414 697.144 824.894 696.76C825.374 696.36 825.614 695.752 825.614 694.936V694.264C825.614 693.448 825.374 692.848 824.894 692.464C824.414 692.064 823.766 691.864 822.95 691.864C822.134 691.864 821.486 692.064 821.006 692.464C820.526 692.848 820.286 693.448 820.286 694.264V694.936C820.286 695.752 820.526 696.36 821.006 696.76C821.486 697.144 822.134 697.336 822.95 697.336ZM841.854 703.288C840.494 703.288 839.334 703.032 838.374 702.52C837.414 701.992 836.598 701.272 835.926 700.36L837.414 699.112C838.006 699.896 838.662 700.496 839.382 700.912C840.102 701.312 840.95 701.512 841.926 701.512C843.126 701.512 844.038 701.224 844.662 700.648C845.302 700.072 845.622 699.304 845.622 698.344C845.622 697.544 845.382 696.928 844.902 696.496C844.422 696.064 843.63 695.72 842.526 695.464L841.158 695.152C839.622 694.8 838.446 694.272 837.63 693.568C836.83 692.848 836.43 691.84 836.43 690.544C836.43 689.808 836.566 689.152 836.838 688.576C837.11 688 837.486 687.52 837.966 687.136C838.462 686.752 839.046 686.464 839.718 686.272C840.406 686.064 841.158 685.96 841.974 685.96C843.238 685.96 844.318 686.192 845.214 686.656C846.126 687.12 846.894 687.8 847.518 688.696L846.006 689.8C845.542 689.16 844.982 688.656 844.326 688.288C843.67 687.92 842.854 687.736 841.878 687.736C840.806 687.736 839.958 687.968 839.334 688.432C838.726 688.88 838.422 689.56 838.422 690.472C838.422 691.272 838.678 691.88 839.19 692.296C839.718 692.696 840.51 693.016 841.566 693.256L842.934 693.568C844.582 693.936 845.774 694.496 846.51 695.248C847.246 696 847.614 697 847.614 698.248C847.614 699.016 847.478 699.712 847.206 700.336C846.95 700.96 846.574 701.488 846.078 701.92C845.582 702.352 844.974 702.688 844.254 702.928C843.55 703.168 842.75 703.288 841.854 703.288ZM855.583 703.288C854.751 703.288 853.991 703.136 853.303 702.832C852.615 702.528 852.023 702.096 851.527 701.536C851.047 700.96 850.671 700.28 850.399 699.496C850.127 698.696 849.991 697.8 849.991 696.808C849.991 695.832 850.127 694.944 850.399 694.144C850.671 693.344 851.047 692.664 851.527 692.104C852.023 691.528 852.615 691.088 853.303 690.784C853.991 690.48 854.751 690.328 855.583 690.328C856.415 690.328 857.167 690.48 857.839 690.784C858.527 691.088 859.119 691.528 859.615 692.104C860.111 692.664 860.495 693.344 860.767 694.144C861.039 694.944 861.175 695.832 861.175 696.808C861.175 697.8 861.039 698.696 860.767 699.496C860.495 700.28 860.111 700.96 859.615 701.536C859.119 702.096 858.527 702.528 857.839 702.832C857.167 703.136 856.415 703.288 855.583 703.288ZM855.583 701.584C856.623 701.584 857.471 701.264 858.127 700.624C858.783 699.984 859.111 699.008 859.111 697.696V695.92C859.111 694.608 858.783 693.632 858.127 692.992C857.471 692.352 856.623 692.032 855.583 692.032C854.543 692.032 853.695 692.352 853.039 692.992C852.383 693.632 852.055 694.608 852.055 695.92V697.696C852.055 699.008 852.383 699.984 853.039 700.624C853.695 701.264 854.543 701.584 855.583 701.584ZM869.013 703.288C868.181 703.288 867.421 703.136 866.733 702.832C866.045 702.528 865.453 702.096 864.957 701.536C864.477 700.96 864.101 700.28 863.829 699.496C863.557 698.696 863.421 697.8 863.421 696.808C863.421 695.832 863.557 694.944 863.829 694.144C864.101 693.344 864.477 692.664 864.957 692.104C865.453 691.528 866.045 691.088 866.733 690.784C867.421 690.48 868.181 690.328 869.013 690.328C869.845 690.328 870.597 690.48 871.269 690.784C871.957 691.088 872.549 691.528 873.045 692.104C873.541 692.664 873.925 693.344 874.197 694.144C874.469 694.944 874.605 695.832 874.605 696.808C874.605 697.8 874.469 698.696 874.197 699.496C873.925 700.28 873.541 700.96 873.045 701.536C872.549 702.096 871.957 702.528 871.269 702.832C870.597 703.136 869.845 703.288 869.013 703.288ZM869.013 701.584C870.053 701.584 870.901 701.264 871.557 700.624C872.213 699.984 872.541 699.008 872.541 697.696V695.92C872.541 694.608 872.213 693.632 871.557 692.992C870.901 692.352 870.053 692.032 869.013 692.032C867.973 692.032 867.125 692.352 866.469 692.992C865.813 693.632 865.485 694.608 865.485 695.92V697.696C865.485 699.008 865.813 699.984 866.469 700.624C867.125 701.264 867.973 701.584 869.013 701.584ZM877.763 703V690.616H879.683V692.632H879.779C880.083 691.928 880.507 691.368 881.051 690.952C881.611 690.536 882.355 690.328 883.283 690.328C884.563 690.328 885.571 690.744 886.307 691.576C887.059 692.392 887.435 693.552 887.435 695.056V703H885.515V695.392C885.515 693.168 884.579 692.056 882.707 692.056C882.323 692.056 881.947 692.104 881.579 692.2C881.227 692.296 880.907 692.44 880.619 692.632C880.331 692.824 880.099 693.072 879.923 693.376C879.763 693.664 879.683 694.008 879.683 694.408V703H877.763Z" fill="#1D1D1F"/>
<path d="M512.013 542.248H517.629C518.669 542.248 519.613 542.424 520.461 542.776C521.309 543.128 522.029 543.656 522.621 544.36C523.229 545.048 523.693 545.92 524.013 546.976C524.333 548.016 524.493 549.232 524.493 550.624C524.493 552.016 524.333 553.24 524.013 554.296C523.693 555.336 523.229 556.208 522.621 556.912C522.029 557.6 521.309 558.12 520.461 558.472C519.613 558.824 518.669 559 517.629 559H512.013V542.248ZM517.629 557.224C518.317 557.224 518.949 557.112 519.525 556.888C520.101 556.648 520.597 556.304 521.013 555.856C521.429 555.408 521.749 554.864 521.973 554.224C522.213 553.568 522.333 552.824 522.333 551.992V549.256C522.333 548.424 522.213 547.688 521.973 547.048C521.749 546.392 521.429 545.84 521.013 545.392C520.597 544.944 520.101 544.608 519.525 544.384C518.949 544.144 518.317 544.024 517.629 544.024H514.029V557.224H517.629ZM528.883 543.712C528.467 543.712 528.163 543.616 527.971 543.424C527.795 543.216 527.707 542.952 527.707 542.632V542.32C527.707 542 527.795 541.744 527.971 541.552C528.163 541.344 528.467 541.24 528.883 541.24C529.299 541.24 529.595 541.344 529.771 541.552C529.963 541.744 530.059 542 530.059 542.32V542.632C530.059 542.952 529.963 543.216 529.771 543.424C529.595 543.616 529.299 543.712 528.883 543.712ZM527.923 546.616H529.843V559H527.923V546.616ZM544.363 560.368C544.363 561.648 543.859 562.584 542.851 563.176C541.859 563.784 540.363 564.088 538.363 564.088C536.427 564.088 535.035 563.824 534.187 563.296C533.339 562.768 532.915 562.016 532.915 561.04C532.915 560.368 533.091 559.84 533.443 559.456C533.795 559.088 534.275 558.816 534.883 558.64V558.376C534.147 558.024 533.779 557.448 533.779 556.648C533.779 556.024 533.979 555.552 534.379 555.232C534.779 554.896 535.291 554.648 535.915 554.488V554.392C535.179 554.04 534.603 553.536 534.187 552.88C533.787 552.224 533.587 551.464 533.587 550.6C533.587 549.976 533.699 549.4 533.923 548.872C534.147 548.344 534.459 547.896 534.859 547.528C535.275 547.144 535.763 546.848 536.323 546.64C536.899 546.432 537.539 546.328 538.243 546.328C539.123 546.328 539.907 546.488 540.595 546.808V546.592C540.595 546.112 540.707 545.72 540.931 545.416C541.155 545.096 541.523 544.936 542.035 544.936H543.883V546.616H541.531V547.408C541.979 547.792 542.323 548.256 542.563 548.8C542.819 549.328 542.947 549.928 542.947 550.6C542.947 551.224 542.835 551.8 542.611 552.328C542.387 552.856 542.067 553.312 541.651 553.696C541.251 554.064 540.763 554.352 540.187 554.56C539.611 554.768 538.971 554.872 538.267 554.872C537.867 554.872 537.467 554.832 537.067 554.752C536.651 554.864 536.275 555.032 535.939 555.256C535.603 555.464 535.435 555.76 535.435 556.144C535.435 556.512 535.611 556.76 535.963 556.888C536.315 557.016 536.771 557.08 537.331 557.08H539.971C541.507 557.08 542.619 557.376 543.307 557.968C544.011 558.544 544.363 559.344 544.363 560.368ZM542.563 560.512C542.563 560.016 542.371 559.616 541.987 559.312C541.619 559.024 540.955 558.88 539.995 558.88H535.867C535.099 559.232 534.715 559.792 534.715 560.56C534.715 561.104 534.915 561.568 535.315 561.952C535.731 562.336 536.427 562.528 537.403 562.528H539.179C540.251 562.528 541.083 562.36 541.675 562.024C542.267 561.688 542.563 561.184 542.563 560.512ZM538.267 553.336C539.083 553.336 539.731 553.144 540.211 552.76C540.691 552.36 540.931 551.752 540.931 550.936V550.264C540.931 549.448 540.691 548.848 540.211 548.464C539.731 548.064 539.083 547.864 538.267 547.864C537.451 547.864 536.803 548.064 536.323 548.464C535.843 548.848 535.603 549.448 535.603 550.264V550.936C535.603 551.752 535.843 552.36 536.323 552.76C536.803 553.144 537.451 553.336 538.267 553.336ZM547.562 543.712C547.147 543.712 546.843 543.616 546.651 543.424C546.475 543.216 546.387 542.952 546.387 542.632V542.32C546.387 542 546.475 541.744 546.651 541.552C546.843 541.344 547.147 541.24 547.562 541.24C547.979 541.24 548.275 541.344 548.451 541.552C548.643 541.744 548.739 542 548.739 542.32V542.632C548.739 542.952 548.643 543.216 548.451 543.424C548.275 543.616 547.979 543.712 547.562 543.712ZM546.603 546.616H548.523V559H546.603V546.616ZM555.339 559C554.667 559 554.155 558.816 553.803 558.448C553.467 558.064 553.299 557.568 553.299 556.96V548.296H551.259V546.616H552.411C552.827 546.616 553.107 546.536 553.251 546.376C553.411 546.2 553.491 545.904 553.491 545.488V543.184H555.219V546.616H557.931V548.296H555.219V557.32H557.739V559H555.339ZM570.017 559C569.297 559 568.777 558.808 568.457 558.424C568.153 558.04 567.961 557.56 567.881 556.984H567.761C567.489 557.752 567.041 558.328 566.417 558.712C565.793 559.096 565.049 559.288 564.185 559.288C562.873 559.288 561.849 558.952 561.113 558.28C560.393 557.608 560.033 556.696 560.033 555.544C560.033 554.376 560.457 553.48 561.305 552.856C562.169 552.232 563.505 551.92 565.313 551.92H567.761V550.696C567.761 549.816 567.521 549.144 567.041 548.68C566.561 548.216 565.825 547.984 564.833 547.984C564.081 547.984 563.449 548.152 562.937 548.488C562.441 548.824 562.025 549.272 561.689 549.832L560.537 548.752C560.873 548.08 561.409 547.512 562.145 547.048C562.881 546.568 563.809 546.328 564.929 546.328C566.433 546.328 567.601 546.696 568.433 547.432C569.265 548.168 569.681 549.192 569.681 550.504V557.32H571.097V559H570.017ZM564.497 557.656C564.977 557.656 565.417 557.6 565.817 557.488C566.217 557.376 566.561 557.216 566.849 557.008C567.137 556.8 567.361 556.56 567.521 556.288C567.681 556.016 567.761 555.72 567.761 555.4V553.36H565.217C564.113 553.36 563.305 553.52 562.793 553.84C562.297 554.16 562.049 554.624 562.049 555.232V555.736C562.049 556.344 562.265 556.816 562.697 557.152C563.145 557.488 563.745 557.656 564.497 557.656ZM575.877 559C575.205 559 574.693 558.816 574.341 558.448C574.005 558.064 573.837 557.584 573.837 557.008V541.24H575.757V557.32H577.581V559H575.877ZM581.336 543.712C580.92 543.712 580.616 543.616 580.424 543.424C580.248 543.216 580.16 542.952 580.16 542.632V542.32C580.16 542 580.248 541.744 580.424 541.552C580.616 541.344 580.92 541.24 581.336 541.24C581.752 541.24 582.048 541.344 582.224 541.552C582.416 541.744 582.512 542 582.512 542.32V542.632C582.512 542.952 582.416 543.216 582.224 543.424C582.048 543.616 581.752 543.712 581.336 543.712ZM580.376 546.616H582.296V559H580.376V546.616ZM585.128 559V557.392L592.16 548.296H585.344V546.616H594.488V548.056L587.312 557.32H594.68V559H585.128ZM601.93 559.288C601.082 559.288 600.314 559.136 599.626 558.832C598.954 558.528 598.37 558.096 597.874 557.536C597.394 556.96 597.018 556.28 596.746 555.496C596.49 554.696 596.362 553.8 596.362 552.808C596.362 551.832 596.49 550.944 596.746 550.144C597.018 549.344 597.394 548.664 597.874 548.104C598.37 547.528 598.954 547.088 599.626 546.784C600.314 546.48 601.082 546.328 601.93 546.328C602.762 546.328 603.506 546.48 604.162 546.784C604.818 547.088 605.378 547.512 605.842 548.056C606.306 548.584 606.658 549.216 606.898 549.952C607.154 550.688 607.282 551.496 607.282 552.376V553.288H598.378V553.864C598.378 554.392 598.458 554.888 598.618 555.352C598.794 555.8 599.034 556.192 599.338 556.528C599.658 556.864 600.042 557.128 600.49 557.32C600.954 557.512 601.474 557.608 602.05 557.608C602.834 557.608 603.514 557.424 604.09 557.056C604.682 556.688 605.138 556.16 605.458 555.472L606.826 556.456C606.426 557.304 605.802 557.992 604.954 558.52C604.106 559.032 603.098 559.288 601.93 559.288ZM601.93 547.936C601.402 547.936 600.922 548.032 600.49 548.224C600.058 548.4 599.682 548.656 599.362 548.992C599.058 549.328 598.818 549.728 598.642 550.192C598.466 550.64 598.378 551.136 598.378 551.68V551.848H605.218V551.584C605.218 550.48 604.914 549.6 604.306 548.944C603.714 548.272 602.922 547.936 601.93 547.936ZM616.118 546.616H618.038V548.632H618.134C618.454 547.848 618.918 547.272 619.526 546.904C620.15 546.52 620.894 546.328 621.758 546.328C622.526 546.328 623.222 546.48 623.846 546.784C624.47 547.088 624.998 547.52 625.43 548.08C625.878 548.64 626.214 549.32 626.438 550.12C626.678 550.92 626.798 551.816 626.798 552.808C626.798 553.8 626.678 554.696 626.438 555.496C626.214 556.296 625.878 556.976 625.43 557.536C624.998 558.096 624.47 558.528 623.846 558.832C623.222 559.136 622.526 559.288 621.758 559.288C620.078 559.288 618.87 558.52 618.134 556.984H618.038V563.8H616.118V546.616ZM621.23 557.56C622.318 557.56 623.174 557.224 623.798 556.552C624.422 555.864 624.734 554.968 624.734 553.864V551.752C624.734 550.648 624.422 549.76 623.798 549.088C623.174 548.4 622.318 548.056 621.23 548.056C620.798 548.056 620.382 548.12 619.982 548.248C619.598 548.36 619.262 548.52 618.974 548.728C618.686 548.936 618.454 549.192 618.278 549.496C618.118 549.784 618.038 550.096 618.038 550.432V555.04C618.038 555.44 618.118 555.8 618.278 556.12C618.454 556.424 618.686 556.688 618.974 556.912C619.262 557.12 619.598 557.28 619.982 557.392C620.382 557.504 620.798 557.56 621.23 557.56ZM639.04 559C638.32 559 637.8 558.808 637.48 558.424C637.176 558.04 636.984 557.56 636.904 556.984H636.784C636.512 557.752 636.064 558.328 635.44 558.712C634.816 559.096 634.072 559.288 633.208 559.288C631.896 559.288 630.872 558.952 630.136 558.28C629.416 557.608 629.056 556.696 629.056 555.544C629.056 554.376 629.48 553.48 630.328 552.856C631.192 552.232 632.528 551.92 634.336 551.92H636.784V550.696C636.784 549.816 636.544 549.144 636.064 548.68C635.584 548.216 634.848 547.984 633.856 547.984C633.104 547.984 632.472 548.152 631.96 548.488C631.464 548.824 631.048 549.272 630.712 549.832L629.56 548.752C629.896 548.08 630.432 547.512 631.168 547.048C631.904 546.568 632.832 546.328 633.952 546.328C635.456 546.328 636.624 546.696 637.456 547.432C638.288 548.168 638.704 549.192 638.704 550.504V557.32H640.12V559H639.04ZM633.52 557.656C634 557.656 634.44 557.6 634.84 557.488C635.24 557.376 635.584 557.216 635.872 557.008C636.16 556.8 636.384 556.56 636.544 556.288C636.704 556.016 636.784 555.72 636.784 555.4V553.36H634.24C633.136 553.36 632.328 553.52 631.816 553.84C631.32 554.16 631.072 554.624 631.072 555.232V555.736C631.072 556.344 631.288 556.816 631.72 557.152C632.168 557.488 632.768 557.656 633.52 557.656ZM642.86 546.616H644.78V548.632H644.876C645.196 547.848 645.66 547.272 646.268 546.904C646.892 546.52 647.636 546.328 648.5 546.328C649.268 546.328 649.964 546.48 650.588 546.784C651.212 547.088 651.74 547.52 652.172 548.08C652.62 548.64 652.956 549.32 653.18 550.12C653.42 550.92 653.54 551.816 653.54 552.808C653.54 553.8 653.42 554.696 653.18 555.496C652.956 556.296 652.62 556.976 652.172 557.536C651.74 558.096 651.212 558.528 650.588 558.832C649.964 559.136 649.268 559.288 648.5 559.288C646.82 559.288 645.612 558.52 644.876 556.984H644.78V563.8H642.86V546.616ZM647.972 557.56C649.06 557.56 649.916 557.224 650.54 556.552C651.164 555.864 651.476 554.968 651.476 553.864V551.752C651.476 550.648 651.164 549.76 650.54 549.088C649.916 548.4 649.06 548.056 647.972 548.056C647.54 548.056 647.124 548.12 646.724 548.248C646.34 548.36 646.004 548.52 645.716 548.728C645.428 548.936 645.196 549.192 645.02 549.496C644.86 549.784 644.78 550.096 644.78 550.432V555.04C644.78 555.44 644.86 555.8 645.02 556.12C645.196 556.424 645.428 556.688 645.716 556.912C646.004 557.12 646.34 557.28 646.724 557.392C647.124 557.504 647.54 557.56 647.972 557.56ZM661.438 559.288C660.59 559.288 659.822 559.136 659.134 558.832C658.462 558.528 657.878 558.096 657.382 557.536C656.902 556.96 656.526 556.28 656.254 555.496C655.998 554.696 655.87 553.8 655.87 552.808C655.87 551.832 655.998 550.944 656.254 550.144C656.526 549.344 656.902 548.664 657.382 548.104C657.878 547.528 658.462 547.088 659.134 546.784C659.822 546.48 660.59 546.328 661.438 546.328C662.27 546.328 663.014 546.48 663.67 546.784C664.326 547.088 664.886 547.512 665.35 548.056C665.814 548.584 666.166 549.216 666.406 549.952C666.662 550.688 666.79 551.496 666.79 552.376V553.288H657.886V553.864C657.886 554.392 657.966 554.888 658.126 555.352C658.302 555.8 658.542 556.192 658.846 556.528C659.166 556.864 659.55 557.128 659.998 557.32C660.462 557.512 660.982 557.608 661.558 557.608C662.342 557.608 663.022 557.424 663.598 557.056C664.19 556.688 664.646 556.16 664.966 555.472L666.334 556.456C665.934 557.304 665.31 557.992 664.462 558.52C663.614 559.032 662.606 559.288 661.438 559.288ZM661.438 547.936C660.91 547.936 660.43 548.032 659.998 548.224C659.566 548.4 659.19 548.656 658.87 548.992C658.566 549.328 658.326 549.728 658.15 550.192C657.974 550.64 657.886 551.136 657.886 551.68V551.848H664.726V551.584C664.726 550.48 664.422 549.6 663.814 548.944C663.222 548.272 662.43 547.936 661.438 547.936ZM669.954 559V546.616H671.874V548.896H671.994C672.218 548.304 672.618 547.776 673.194 547.312C673.77 546.848 674.562 546.616 675.57 546.616H676.314V548.536H675.186C674.146 548.536 673.33 548.736 672.738 549.136C672.162 549.52 671.874 550.008 671.874 550.6V559H669.954ZM677.588 546.616H679.46L680.78 551.968L682.1 557.392H682.148L683.66 551.968L685.22 546.616H686.924L688.532 551.968L690.068 557.392H690.116L691.388 551.968L692.732 546.616H694.532L691.244 559H688.868L687.14 553.048L686.06 549.28H686.012L684.956 553.048L683.228 559H680.9L677.588 546.616ZM701.868 559.288C701.036 559.288 700.276 559.136 699.588 558.832C698.9 558.528 698.308 558.096 697.812 557.536C697.332 556.96 696.956 556.28 696.684 555.496C696.412 554.696 696.276 553.8 696.276 552.808C696.276 551.832 696.412 550.944 696.684 550.144C696.956 549.344 697.332 548.664 697.812 548.104C698.308 547.528 698.9 547.088 699.588 546.784C700.276 546.48 701.036 546.328 701.868 546.328C702.7 546.328 703.452 546.48 704.124 546.784C704.812 547.088 705.404 547.528 705.9 548.104C706.396 548.664 706.78 549.344 707.052 550.144C707.324 550.944 707.46 551.832 707.46 552.808C707.46 553.8 707.324 554.696 707.052 555.496C706.78 556.28 706.396 556.96 705.9 557.536C705.404 558.096 704.812 558.528 704.124 558.832C703.452 559.136 702.7 559.288 701.868 559.288ZM701.868 557.584C702.908 557.584 703.756 557.264 704.412 556.624C705.068 555.984 705.396 555.008 705.396 553.696V551.92C705.396 550.608 705.068 549.632 704.412 548.992C703.756 548.352 702.908 548.032 701.868 548.032C700.828 548.032 699.98 548.352 699.324 548.992C698.668 549.632 698.34 550.608 698.34 551.92V553.696C698.34 555.008 698.668 555.984 699.324 556.624C699.98 557.264 700.828 557.584 701.868 557.584ZM710.618 559V546.616H712.538V548.896H712.658C712.882 548.304 713.282 547.776 713.858 547.312C714.434 546.848 715.226 546.616 716.234 546.616H716.978V548.536H715.85C714.81 548.536 713.994 548.736 713.402 549.136C712.826 549.52 712.538 550.008 712.538 550.6V559H710.618ZM719.431 541.24H721.351V552.496H721.447L723.343 550.384L726.847 546.616H729.175L724.591 551.512L729.631 559H727.303L723.199 552.688L721.351 554.584V559H719.431V541.24ZM738.719 543.712C738.303 543.712 737.999 543.616 737.807 543.424C737.631 543.216 737.543 542.952 737.543 542.632V542.32C737.543 542 737.631 541.744 737.807 541.552C737.999 541.344 738.303 541.24 738.719 541.24C739.135 541.24 739.431 541.344 739.607 541.552C739.799 541.744 739.895 542 739.895 542.32V542.632C739.895 542.952 739.799 543.216 739.607 543.424C739.431 543.616 739.135 543.712 738.719 543.712ZM737.759 546.616H739.679V559H737.759V546.616ZM743.759 559V546.616H745.679V548.632H745.775C746.079 547.928 746.503 547.368 747.047 546.952C747.607 546.536 748.351 546.328 749.279 546.328C750.559 546.328 751.567 546.744 752.303 547.576C753.055 548.392 753.431 549.552 753.431 551.056V559H751.511V551.392C751.511 549.168 750.575 548.056 748.703 548.056C748.319 548.056 747.943 548.104 747.575 548.2C747.223 548.296 746.903 548.44 746.615 548.632C746.327 548.824 746.095 549.072 745.919 549.376C745.759 549.664 745.679 550.008 745.679 550.408V559H743.759ZM760.135 559C759.463 559 758.951 558.816 758.599 558.448C758.263 558.064 758.095 557.568 758.095 556.96V548.296H756.055V546.616H757.207C757.623 546.616 757.903 546.536 758.047 546.376C758.207 546.2 758.287 545.904 758.287 545.488V543.184H760.015V546.616H762.727V548.296H760.015V557.32H762.535V559H760.135ZM770.4 559.288C769.568 559.288 768.808 559.136 768.12 558.832C767.432 558.528 766.84 558.096 766.344 557.536C765.864 556.96 765.488 556.28 765.216 555.496C764.944 554.696 764.808 553.8 764.808 552.808C764.808 551.832 764.944 550.944 765.216 550.144C765.488 549.344 765.864 548.664 766.344 548.104C766.84 547.528 767.432 547.088 768.12 546.784C768.808 546.48 769.568 546.328 770.4 546.328C771.232 546.328 771.984 546.48 772.656 546.784C773.344 547.088 773.936 547.528 774.432 548.104C774.928 548.664 775.312 549.344 775.584 550.144C775.856 550.944 775.992 551.832 775.992 552.808C775.992 553.8 775.856 554.696 775.584 555.496C775.312 556.28 774.928 556.96 774.432 557.536C773.936 558.096 773.344 558.528 772.656 558.832C771.984 559.136 771.232 559.288 770.4 559.288ZM770.4 557.584C771.44 557.584 772.288 557.264 772.944 556.624C773.6 555.984 773.928 555.008 773.928 553.696V551.92C773.928 550.608 773.6 549.632 772.944 548.992C772.288 548.352 771.44 548.032 770.4 548.032C769.36 548.032 768.512 548.352 767.856 548.992C767.2 549.632 766.872 550.608 766.872 551.92V553.696C766.872 555.008 767.2 555.984 767.856 556.624C768.512 557.264 769.36 557.584 770.4 557.584ZM784.821 559V546.616H786.741V548.632H786.837C787.141 547.928 787.565 547.368 788.109 546.952C788.669 546.536 789.413 546.328 790.341 546.328C791.621 546.328 792.629 546.744 793.365 547.576C794.117 548.392 794.493 549.552 794.493 551.056V559H792.573V551.392C792.573 549.168 791.637 548.056 789.765 548.056C789.381 548.056 789.005 548.104 788.637 548.2C788.285 548.296 787.965 548.44 787.677 548.632C787.389 548.824 787.157 549.072 786.981 549.376C786.821 549.664 786.741 550.008 786.741 550.408V559H784.821ZM803.118 559.288C802.27 559.288 801.502 559.136 800.814 558.832C800.142 558.528 799.558 558.096 799.062 557.536C798.582 556.96 798.206 556.28 797.934 555.496C797.678 554.696 797.55 553.8 797.55 552.808C797.55 551.832 797.678 550.944 797.934 550.144C798.206 549.344 798.582 548.664 799.062 548.104C799.558 547.528 800.142 547.088 800.814 546.784C801.502 546.48 802.27 546.328 803.118 546.328C803.95 546.328 804.694 546.48 805.35 546.784C806.006 547.088 806.566 547.512 807.03 548.056C807.494 548.584 807.846 549.216 808.086 549.952C808.342 550.688 808.47 551.496 808.47 552.376V553.288H799.566V553.864C799.566 554.392 799.646 554.888 799.806 555.352C799.982 555.8 800.222 556.192 800.526 556.528C800.846 556.864 801.23 557.128 801.678 557.32C802.142 557.512 802.662 557.608 803.238 557.608C804.022 557.608 804.702 557.424 805.278 557.056C805.87 556.688 806.326 556.16 806.646 555.472L808.014 556.456C807.614 557.304 806.99 557.992 806.142 558.52C805.294 559.032 804.286 559.288 803.118 559.288ZM803.118 547.936C802.59 547.936 802.11 548.032 801.678 548.224C801.246 548.4 800.87 548.656 800.55 548.992C800.246 549.328 800.006 549.728 799.83 550.192C799.654 550.64 799.566 551.136 799.566 551.68V551.848H806.406V551.584C806.406 550.48 806.102 549.6 805.494 548.944C804.902 548.272 804.11 547.936 803.118 547.936ZM810.221 546.616H812.093L813.413 551.968L814.733 557.392H814.781L816.293 551.968L817.853 546.616H819.557L821.165 551.968L822.701 557.392H822.749L824.021 551.968L825.365 546.616H827.165L823.877 559H821.501L819.773 553.048L818.693 549.28H818.645L817.589 553.048L815.861 559H813.533L810.221 546.616ZM834.314 546.616H836.186L837.506 551.968L838.826 557.392H838.874L840.386 551.968L841.946 546.616H843.65L845.258 551.968L846.794 557.392H846.842L848.114 551.968L849.458 546.616H851.258L847.97 559H845.594L843.866 553.048L842.786 549.28H842.738L841.682 553.048L839.954 559H837.626L834.314 546.616ZM858.571 559.288C857.723 559.288 856.955 559.136 856.267 558.832C855.595 558.528 855.011 558.096 854.515 557.536C854.035 556.96 853.659 556.28 853.387 555.496C853.131 554.696 853.003 553.8 853.003 552.808C853.003 551.832 853.131 550.944 853.387 550.144C853.659 549.344 854.035 548.664 854.515 548.104C855.011 547.528 855.595 547.088 856.267 546.784C856.955 546.48 857.723 546.328 858.571 546.328C859.403 546.328 860.147 546.48 860.803 546.784C861.459 547.088 862.019 547.512 862.483 548.056C862.947 548.584 863.299 549.216 863.539 549.952C863.795 550.688 863.923 551.496 863.923 552.376V553.288H855.019V553.864C855.019 554.392 855.099 554.888 855.259 555.352C855.435 555.8 855.675 556.192 855.979 556.528C856.299 556.864 856.683 557.128 857.131 557.32C857.595 557.512 858.115 557.608 858.691 557.608C859.475 557.608 860.155 557.424 860.731 557.056C861.323 556.688 861.779 556.16 862.099 555.472L863.467 556.456C863.067 557.304 862.443 557.992 861.595 558.52C860.747 559.032 859.739 559.288 858.571 559.288ZM858.571 547.936C858.043 547.936 857.563 548.032 857.131 548.224C856.699 548.4 856.323 548.656 856.003 548.992C855.699 549.328 855.459 549.728 855.283 550.192C855.107 550.64 855.019 551.136 855.019 551.68V551.848H861.859V551.584C861.859 550.48 861.555 549.6 860.947 548.944C860.355 548.272 859.563 547.936 858.571 547.936ZM867.087 541.24H869.007V548.632H869.103C869.423 547.848 869.887 547.272 870.495 546.904C871.119 546.52 871.863 546.328 872.727 546.328C873.495 546.328 874.191 546.48 874.815 546.784C875.439 547.088 875.967 547.52 876.399 548.08C876.847 548.64 877.183 549.32 877.407 550.12C877.647 550.92 877.767 551.816 877.767 552.808C877.767 553.8 877.647 554.696 877.407 555.496C877.183 556.296 876.847 556.976 876.399 557.536C875.967 558.096 875.439 558.528 874.815 558.832C874.191 559.136 873.495 559.288 872.727 559.288C871.047 559.288 869.839 558.52 869.103 556.984H869.007V559H867.087V541.24ZM872.199 557.56C873.287 557.56 874.143 557.224 874.767 556.552C875.391 555.864 875.703 554.968 875.703 553.864V551.752C875.703 550.648 875.391 549.76 874.767 549.088C874.143 548.4 873.287 548.056 872.199 548.056C871.767 548.056 871.351 548.12 870.951 548.248C870.567 548.36 870.231 548.52 869.943 548.728C869.655 548.936 869.423 549.192 869.247 549.496C869.087 549.784 869.007 550.096 869.007 550.432V555.04C869.007 555.44 869.087 555.8 869.247 556.12C869.423 556.424 869.655 556.688 869.943 556.912C870.231 557.12 870.567 557.28 870.951 557.392C871.351 557.504 871.767 557.56 872.199 557.56ZM884.729 559.288C883.577 559.288 882.609 559.072 881.825 558.64C881.057 558.192 880.393 557.6 879.833 556.864L881.201 555.76C881.681 556.368 882.217 556.84 882.809 557.176C883.401 557.496 884.089 557.656 884.873 557.656C885.689 557.656 886.321 557.48 886.769 557.128C887.233 556.776 887.465 556.28 887.465 555.64C887.465 555.16 887.305 554.752 886.985 554.416C886.681 554.064 886.121 553.824 885.305 553.696L884.321 553.552C883.745 553.472 883.217 553.352 882.737 553.192C882.257 553.016 881.833 552.792 881.465 552.52C881.113 552.232 880.833 551.88 880.625 551.464C880.433 551.048 880.337 550.552 880.337 549.976C880.337 549.368 880.449 548.84 880.673 548.392C880.897 547.928 881.201 547.544 881.585 547.24C881.985 546.936 882.457 546.712 883.001 546.568C883.545 546.408 884.129 546.328 884.753 546.328C885.761 546.328 886.601 546.504 887.273 546.856C887.961 547.208 888.561 547.696 889.073 548.32L887.801 549.472C887.529 549.088 887.129 548.744 886.601 548.44C886.073 548.12 885.409 547.96 884.609 547.96C883.809 547.96 883.201 548.136 882.785 548.488C882.385 548.824 882.185 549.288 882.185 549.88C882.185 550.488 882.385 550.928 882.785 551.2C883.201 551.472 883.793 551.672 884.561 551.8L885.521 551.944C886.897 552.152 887.873 552.552 888.449 553.144C889.025 553.72 889.313 554.48 889.313 555.424C889.313 556.624 888.905 557.568 888.089 558.256C887.273 558.944 886.153 559.288 884.729 559.288ZM893.664 543.712C893.248 543.712 892.944 543.616 892.752 543.424C892.576 543.216 892.488 542.952 892.488 542.632V542.32C892.488 542 892.576 541.744 892.752 541.552C892.944 541.344 893.248 541.24 893.664 541.24C894.08 541.24 894.376 541.344 894.552 541.552C894.744 541.744 894.84 542 894.84 542.32V542.632C894.84 542.952 894.744 543.216 894.552 543.424C894.376 543.616 894.08 543.712 893.664 543.712ZM892.704 546.616H894.624V559H892.704V546.616ZM901.44 559C900.768 559 900.256 558.816 899.904 558.448C899.568 558.064 899.4 557.568 899.4 556.96V548.296H897.36V546.616H898.512C898.928 546.616 899.208 546.536 899.352 546.376C899.512 546.2 899.592 545.904 899.592 545.488V543.184H901.32V546.616H904.032V548.296H901.32V557.32H903.84V559H901.44ZM911.68 559.288C910.832 559.288 910.064 559.136 909.376 558.832C908.704 558.528 908.12 558.096 907.624 557.536C907.144 556.96 906.768 556.28 906.496 555.496C906.24 554.696 906.112 553.8 906.112 552.808C906.112 551.832 906.24 550.944 906.496 550.144C906.768 549.344 907.144 548.664 907.624 548.104C908.12 547.528 908.704 547.088 909.376 546.784C910.064 546.48 910.832 546.328 911.68 546.328C912.512 546.328 913.256 546.48 913.912 546.784C914.568 547.088 915.128 547.512 915.592 548.056C916.056 548.584 916.408 549.216 916.648 549.952C916.904 550.688 917.032 551.496 917.032 552.376V553.288H908.128V553.864C908.128 554.392 908.208 554.888 908.368 555.352C908.544 555.8 908.784 556.192 909.088 556.528C909.408 556.864 909.792 557.128 910.24 557.32C910.704 557.512 911.224 557.608 911.8 557.608C912.584 557.608 913.264 557.424 913.84 557.056C914.432 556.688 914.888 556.16 915.208 555.472L916.576 556.456C916.176 557.304 915.552 557.992 914.704 558.52C913.856 559.032 912.848 559.288 911.68 559.288ZM911.68 547.936C911.152 547.936 910.672 548.032 910.24 548.224C909.808 548.4 909.432 548.656 909.112 548.992C908.808 549.328 908.568 549.728 908.392 550.192C908.216 550.64 908.128 551.136 908.128 551.68V551.848H914.968V551.584C914.968 550.48 914.664 549.6 914.056 548.944C913.464 548.272 912.672 547.936 911.68 547.936ZM926.54 548.296H924.524V546.616H926.54V544.12C926.54 543.256 926.764 542.56 927.212 542.032C927.66 541.504 928.34 541.24 929.252 541.24H931.124V542.92H928.46V546.616H931.124V548.296H928.46V559H926.54V548.296ZM938.236 559.288C937.404 559.288 936.644 559.136 935.956 558.832C935.268 558.528 934.676 558.096 934.18 557.536C933.7 556.96 933.324 556.28 933.052 555.496C932.78 554.696 932.644 553.8 932.644 552.808C932.644 551.832 932.78 550.944 933.052 550.144C933.324 549.344 933.7 548.664 934.18 548.104C934.676 547.528 935.268 547.088 935.956 546.784C936.644 546.48 937.404 546.328 938.236 546.328C939.068 546.328 939.82 546.48 940.492 546.784C941.18 547.088 941.772 547.528 942.268 548.104C942.764 548.664 943.148 549.344 943.42 550.144C943.692 550.944 943.828 551.832 943.828 552.808C943.828 553.8 943.692 554.696 943.42 555.496C943.148 556.28 942.764 556.96 942.268 557.536C941.772 558.096 941.18 558.528 940.492 558.832C939.82 559.136 939.068 559.288 938.236 559.288ZM938.236 557.584C939.276 557.584 940.124 557.264 940.78 556.624C941.436 555.984 941.764 555.008 941.764 553.696V551.92C941.764 550.608 941.436 549.632 940.78 548.992C940.124 548.352 939.276 548.032 938.236 548.032C937.196 548.032 936.348 548.352 935.692 548.992C935.036 549.632 934.708 550.608 934.708 551.92V553.696C934.708 555.008 935.036 555.984 935.692 556.624C936.348 557.264 937.196 557.584 938.236 557.584ZM946.985 559V546.616H948.905V548.896H949.025C949.249 548.304 949.649 547.776 950.225 547.312C950.801 546.848 951.593 546.616 952.601 546.616H953.345V548.536H952.217C951.177 548.536 950.361 548.736 949.769 549.136C949.193 549.52 948.905 550.008 948.905 550.6V559H946.985ZM961.47 559V546.616H963.39V548.896H963.51C963.734 548.304 964.134 547.776 964.71 547.312C965.286 546.848 966.078 546.616 967.086 546.616H967.83V548.536H966.702C965.662 548.536 964.846 548.736 964.254 549.136C963.678 549.52 963.39 550.008 963.39 550.6V559H961.47ZM974.821 559.288C973.973 559.288 973.205 559.136 972.517 558.832C971.845 558.528 971.261 558.096 970.765 557.536C970.285 556.96 969.909 556.28 969.637 555.496C969.381 554.696 969.253 553.8 969.253 552.808C969.253 551.832 969.381 550.944 969.637 550.144C969.909 549.344 970.285 548.664 970.765 548.104C971.261 547.528 971.845 547.088 972.517 546.784C973.205 546.48 973.973 546.328 974.821 546.328C975.653 546.328 976.397 546.48 977.053 546.784C977.709 547.088 978.269 547.512 978.733 548.056C979.197 548.584 979.549 549.216 979.789 549.952C980.045 550.688 980.173 551.496 980.173 552.376V553.288H971.269V553.864C971.269 554.392 971.349 554.888 971.509 555.352C971.685 555.8 971.925 556.192 972.229 556.528C972.549 556.864 972.933 557.128 973.381 557.32C973.845 557.512 974.365 557.608 974.941 557.608C975.725 557.608 976.405 557.424 976.981 557.056C977.573 556.688 978.029 556.16 978.349 555.472L979.717 556.456C979.317 557.304 978.693 557.992 977.845 558.52C976.997 559.032 975.989 559.288 974.821 559.288ZM974.821 547.936C974.293 547.936 973.813 548.032 973.381 548.224C972.949 548.4 972.573 548.656 972.253 548.992C971.949 549.328 971.709 549.728 971.533 550.192C971.357 550.64 971.269 551.136 971.269 551.68V551.848H978.109V551.584C978.109 550.48 977.805 549.6 977.197 548.944C976.605 548.272 975.813 547.936 974.821 547.936ZM987.057 559.288C985.905 559.288 984.937 559.072 984.153 558.64C983.385 558.192 982.721 557.6 982.161 556.864L983.529 555.76C984.009 556.368 984.545 556.84 985.137 557.176C985.729 557.496 986.417 557.656 987.201 557.656C988.017 557.656 988.649 557.48 989.097 557.128C989.561 556.776 989.793 556.28 989.793 555.64C989.793 555.16 989.633 554.752 989.313 554.416C989.009 554.064 988.449 553.824 987.633 553.696L986.649 553.552C986.073 553.472 985.545 553.352 985.065 553.192C984.585 553.016 984.161 552.792 983.793 552.52C983.441 552.232 983.161 551.88 982.953 551.464C982.761 551.048 982.665 550.552 982.665 549.976C982.665 549.368 982.777 548.84 983.001 548.392C983.225 547.928 983.529 547.544 983.913 547.24C984.313 546.936 984.785 546.712 985.329 546.568C985.873 546.408 986.457 546.328 987.081 546.328C988.089 546.328 988.929 546.504 989.601 546.856C990.289 547.208 990.889 547.696 991.401 548.32L990.129 549.472C989.857 549.088 989.457 548.744 988.929 548.44C988.401 548.12 987.737 547.96 986.937 547.96C986.137 547.96 985.529 548.136 985.113 548.488C984.713 548.824 984.513 549.288 984.513 549.88C984.513 550.488 984.713 550.928 985.113 551.2C985.529 551.472 986.121 551.672 986.889 551.8L987.849 551.944C989.225 552.152 990.201 552.552 990.777 553.144C991.353 553.72 991.641 554.48 991.641 555.424C991.641 556.624 991.233 557.568 990.417 558.256C989.601 558.944 988.481 559.288 987.057 559.288ZM999.688 559.288C998.84 559.288 998.072 559.136 997.384 558.832C996.712 558.528 996.128 558.096 995.632 557.536C995.152 556.96 994.776 556.28 994.504 555.496C994.248 554.696 994.12 553.8 994.12 552.808C994.12 551.832 994.248 550.944 994.504 550.144C994.776 549.344 995.152 548.664 995.632 548.104C996.128 547.528 996.712 547.088 997.384 546.784C998.072 546.48 998.84 546.328 999.688 546.328C1000.52 546.328 1001.26 546.48 1001.92 546.784C1002.58 547.088 1003.14 547.512 1003.6 548.056C1004.06 548.584 1004.42 549.216 1004.66 549.952C1004.91 550.688 1005.04 551.496 1005.04 552.376V553.288H996.136V553.864C996.136 554.392 996.216 554.888 996.376 555.352C996.552 555.8 996.792 556.192 997.096 556.528C997.416 556.864 997.8 557.128 998.248 557.32C998.712 557.512 999.232 557.608 999.808 557.608C1000.59 557.608 1001.27 557.424 1001.85 557.056C1002.44 556.688 1002.9 556.16 1003.22 555.472L1004.58 556.456C1004.18 557.304 1003.56 557.992 1002.71 558.52C1001.86 559.032 1000.86 559.288 999.688 559.288ZM999.688 547.936C999.16 547.936 998.68 548.032 998.248 548.224C997.816 548.4 997.44 548.656 997.12 548.992C996.816 549.328 996.576 549.728 996.4 550.192C996.224 550.64 996.136 551.136 996.136 551.68V551.848H1002.98V551.584C1002.98 550.48 1002.67 549.6 1002.06 548.944C1001.47 548.272 1000.68 547.936 999.688 547.936ZM1008.2 559V546.616H1010.12V548.896H1010.24C1010.47 548.304 1010.87 547.776 1011.44 547.312C1012.02 546.848 1012.81 546.616 1013.82 546.616H1014.56V548.536H1013.44C1012.4 548.536 1011.58 548.736 1010.99 549.136C1010.41 549.52 1010.12 550.008 1010.12 550.6V559H1008.2ZM1019.99 559L1015.64 546.616H1017.56L1019.72 552.76L1021.07 556.984H1021.19L1022.53 552.76L1024.74 546.616H1026.59L1022.22 559H1019.99ZM1033.53 559.288C1032.68 559.288 1031.92 559.136 1031.23 558.832C1030.56 558.528 1029.97 558.096 1029.48 557.536C1029 556.96 1028.62 556.28 1028.35 555.496C1028.09 554.696 1027.96 553.8 1027.96 552.808C1027.96 551.832 1028.09 550.944 1028.35 550.144C1028.62 549.344 1029 548.664 1029.48 548.104C1029.97 547.528 1030.56 547.088 1031.23 546.784C1031.92 546.48 1032.68 546.328 1033.53 546.328C1034.36 546.328 1035.11 546.48 1035.76 546.784C1036.42 547.088 1036.98 547.512 1037.44 548.056C1037.91 548.584 1038.26 549.216 1038.5 549.952C1038.76 550.688 1038.88 551.496 1038.88 552.376V553.288H1029.98V553.864C1029.98 554.392 1030.06 554.888 1030.22 555.352C1030.4 555.8 1030.64 556.192 1030.94 556.528C1031.26 556.864 1031.64 557.128 1032.09 557.32C1032.56 557.512 1033.08 557.608 1033.65 557.608C1034.44 557.608 1035.12 557.424 1035.69 557.056C1036.28 556.688 1036.74 556.16 1037.06 555.472L1038.43 556.456C1038.03 557.304 1037.4 557.992 1036.56 558.52C1035.71 559.032 1034.7 559.288 1033.53 559.288ZM1033.53 547.936C1033 547.936 1032.52 548.032 1032.09 548.224C1031.66 548.4 1031.28 548.656 1030.96 548.992C1030.66 549.328 1030.42 549.728 1030.24 550.192C1030.07 550.64 1029.98 551.136 1029.98 551.68V551.848H1036.82V551.584C1036.82 550.48 1036.52 549.6 1035.91 548.944C1035.32 548.272 1034.52 547.936 1033.53 547.936ZM1056.72 559C1056 559 1055.48 558.808 1055.16 558.424C1054.86 558.04 1054.66 557.56 1054.58 556.984H1054.46C1054.19 557.752 1053.74 558.328 1053.12 558.712C1052.5 559.096 1051.75 559.288 1050.89 559.288C1049.58 559.288 1048.55 558.952 1047.82 558.28C1047.1 557.608 1046.74 556.696 1046.74 555.544C1046.74 554.376 1047.16 553.48 1048.01 552.856C1048.87 552.232 1050.21 551.92 1052.02 551.92H1054.46V550.696C1054.46 549.816 1054.22 549.144 1053.74 548.68C1053.26 548.216 1052.53 547.984 1051.54 547.984C1050.78 547.984 1050.15 548.152 1049.64 548.488C1049.14 548.824 1048.73 549.272 1048.39 549.832L1047.24 548.752C1047.58 548.08 1048.11 547.512 1048.85 547.048C1049.58 546.568 1050.51 546.328 1051.63 546.328C1053.14 546.328 1054.3 546.696 1055.14 547.432C1055.97 548.168 1056.38 549.192 1056.38 550.504V557.32H1057.8V559H1056.72ZM1051.2 557.656C1051.68 557.656 1052.12 557.6 1052.52 557.488C1052.92 557.376 1053.26 557.216 1053.55 557.008C1053.84 556.8 1054.06 556.56 1054.22 556.288C1054.38 556.016 1054.46 555.72 1054.46 555.4V553.36H1051.92C1050.82 553.36 1050.01 553.52 1049.5 553.84C1049 554.16 1048.75 554.624 1048.75 555.232V555.736C1048.75 556.344 1048.97 556.816 1049.4 557.152C1049.85 557.488 1050.45 557.656 1051.2 557.656ZM1066.21 559V546.616H1068.13V548.896H1068.25C1068.48 548.304 1068.88 547.776 1069.45 547.312C1070.03 546.848 1070.82 546.616 1071.83 546.616H1072.57V548.536H1071.44C1070.4 548.536 1069.59 548.736 1069 549.136C1068.42 549.52 1068.13 550.008 1068.13 550.6V559H1066.21ZM1079.59 559.288C1078.76 559.288 1078 559.136 1077.31 558.832C1076.62 558.528 1076.03 558.096 1075.53 557.536C1075.05 556.96 1074.68 556.28 1074.4 555.496C1074.13 554.696 1074 553.8 1074 552.808C1074 551.832 1074.13 550.944 1074.4 550.144C1074.68 549.344 1075.05 548.664 1075.53 548.104C1076.03 547.528 1076.62 547.088 1077.31 546.784C1078 546.48 1078.76 546.328 1079.59 546.328C1080.42 546.328 1081.17 546.48 1081.84 546.784C1082.53 547.088 1083.12 547.528 1083.62 548.104C1084.12 548.664 1084.5 549.344 1084.77 550.144C1085.04 550.944 1085.18 551.832 1085.18 552.808C1085.18 553.8 1085.04 554.696 1084.77 555.496C1084.5 556.28 1084.12 556.96 1083.62 557.536C1083.12 558.096 1082.53 558.528 1081.84 558.832C1081.17 559.136 1080.42 559.288 1079.59 559.288ZM1079.59 557.584C1080.63 557.584 1081.48 557.264 1082.13 556.624C1082.79 555.984 1083.12 555.008 1083.12 553.696V551.92C1083.12 550.608 1082.79 549.632 1082.13 548.992C1081.48 548.352 1080.63 548.032 1079.59 548.032C1078.55 548.032 1077.7 548.352 1077.04 548.992C1076.39 549.632 1076.06 550.608 1076.06 551.92V553.696C1076.06 555.008 1076.39 555.984 1077.04 556.624C1077.7 557.264 1078.55 557.584 1079.59 557.584ZM1093.02 559.288C1092.18 559.288 1091.42 559.136 1090.74 558.832C1090.05 558.528 1089.46 558.096 1088.96 557.536C1088.48 556.96 1088.1 556.28 1087.83 555.496C1087.56 554.696 1087.42 553.8 1087.42 552.808C1087.42 551.832 1087.56 550.944 1087.83 550.144C1088.1 549.344 1088.48 548.664 1088.96 548.104C1089.46 547.528 1090.05 547.088 1090.74 546.784C1091.42 546.48 1092.18 546.328 1093.02 546.328C1093.85 546.328 1094.6 546.48 1095.27 546.784C1095.96 547.088 1096.55 547.528 1097.05 548.104C1097.54 548.664 1097.93 549.344 1098.2 550.144C1098.47 550.944 1098.61 551.832 1098.61 552.808C1098.61 553.8 1098.47 554.696 1098.2 555.496C1097.93 556.28 1097.54 556.96 1097.05 557.536C1096.55 558.096 1095.96 558.528 1095.27 558.832C1094.6 559.136 1093.85 559.288 1093.02 559.288ZM1093.02 557.584C1094.06 557.584 1094.9 557.264 1095.56 556.624C1096.22 555.984 1096.54 555.008 1096.54 553.696V551.92C1096.54 550.608 1096.22 549.632 1095.56 548.992C1094.9 548.352 1094.06 548.032 1093.02 548.032C1091.98 548.032 1091.13 548.352 1090.47 548.992C1089.82 549.632 1089.49 550.608 1089.49 551.92V553.696C1089.49 555.008 1089.82 555.984 1090.47 556.624C1091.13 557.264 1091.98 557.584 1093.02 557.584ZM1101.77 559V546.616H1103.69V548.632H1103.78C1103.93 548.312 1104.09 548.016 1104.26 547.744C1104.45 547.456 1104.68 547.208 1104.93 547C1105.21 546.792 1105.52 546.632 1105.87 546.52C1106.22 546.392 1106.64 546.328 1107.12 546.328C1107.93 546.328 1108.69 546.528 1109.37 546.928C1110.06 547.312 1110.57 547.952 1110.91 548.848H1110.96C1111.18 548.176 1111.6 547.592 1112.21 547.096C1112.83 546.584 1113.67 546.328 1114.73 546.328C1115.99 546.328 1116.97 546.744 1117.68 547.576C1118.4 548.392 1118.76 549.552 1118.76 551.056V559H1116.84V551.392C1116.84 550.288 1116.62 549.456 1116.19 548.896C1115.76 548.336 1115.07 548.056 1114.13 548.056C1113.74 548.056 1113.37 548.104 1113.02 548.2C1112.69 548.296 1112.38 548.44 1112.11 548.632C1111.84 548.824 1111.62 549.072 1111.46 549.376C1111.3 549.664 1111.22 550.008 1111.22 550.408V559H1109.3V551.392C1109.3 550.288 1109.09 549.456 1108.65 548.896C1108.22 548.336 1107.55 548.056 1106.64 548.056C1106.25 548.056 1105.89 548.104 1105.53 548.2C1105.18 548.296 1104.87 548.44 1104.6 548.632C1104.33 548.824 1104.1 549.072 1103.93 549.376C1103.77 549.664 1103.69 550.008 1103.69 550.408V559H1101.77ZM1123.94 559.288C1123.43 559.288 1123.06 559.16 1122.82 558.904C1122.59 558.648 1122.48 558.312 1122.48 557.896V557.584C1122.48 557.168 1122.59 556.832 1122.82 556.576C1123.06 556.32 1123.43 556.192 1123.94 556.192C1124.46 556.192 1124.82 556.32 1125.05 556.576C1125.29 556.832 1125.41 557.168 1125.41 557.584V557.896C1125.41 558.312 1125.29 558.648 1125.05 558.904C1124.82 559.16 1124.46 559.288 1123.94 559.288Z" fill="#1D1D1F"/>
<path d="M660.812 281.812C665.271 281.812 669.312 282.438 672.938 283.688C676.562 284.938 679.667 286.729 682.25 289.062C684.833 291.354 686.833 294.125 688.25 297.375C689.667 300.583 690.375 304.188 690.375 308.188C690.375 313.729 689.417 318.708 687.5 323.125C685.583 327.542 682.896 331.312 679.438 334.438C676.021 337.521 671.917 339.896 667.125 341.562C662.375 343.188 657.125 344 651.375 344H633.75L627.688 372H608.75L627.875 281.812H660.812ZM636.812 328.688H651.125C654.125 328.688 656.854 328.25 659.312 327.375C661.812 326.458 663.938 325.188 665.688 323.562C667.438 321.938 668.792 319.979 669.75 317.688C670.708 315.396 671.188 312.833 671.188 310C671.188 305.833 669.875 302.688 667.25 300.562C664.625 298.396 660.979 297.312 656.312 297.312H643.688L636.812 328.688ZM750.875 350.5H719.062L707.438 372H687.75L739 281.812H760.812L772.5 372H753.062L750.875 350.5ZM726.188 335.938H750L746.375 300.625H745.188L726.188 335.938ZM840.188 281.812C844.646 281.812 848.688 282.438 852.312 283.688C855.938 284.938 859.042 286.729 861.625 289.062C864.208 291.354 866.208 294.125 867.625 297.375C869.042 300.583 869.75 304.188 869.75 308.188C869.75 313.729 868.792 318.708 866.875 323.125C864.958 327.542 862.271 331.312 858.812 334.438C855.396 337.521 851.292 339.896 846.5 341.562C841.75 343.188 836.5 344 830.75 344H813.125L807.062 372H788.125L807.25 281.812H840.188ZM816.188 328.688H830.5C833.5 328.688 836.229 328.25 838.688 327.375C841.188 326.458 843.312 325.188 845.062 323.562C846.812 321.938 848.167 319.979 849.125 317.688C850.083 315.396 850.562 312.833 850.562 310C850.562 305.833 849.25 302.688 846.625 300.562C844 298.396 840.354 297.312 835.688 297.312H823.062L816.188 328.688ZM933.375 372H873.562L892.75 281.812H952.5L949.188 297.938H908.438L903.75 319H942.25L939.125 333.938H900.688L895.812 355.875H936.625L933.375 372ZM972.375 281.812H1008.06C1012.23 281.812 1016.04 282.438 1019.5 283.688C1022.96 284.938 1025.94 286.708 1028.44 289C1030.94 291.25 1032.88 293.938 1034.25 297.062C1035.62 300.188 1036.31 303.625 1036.31 307.375C1036.31 310.708 1035.79 313.917 1034.75 317C1033.71 320.083 1032.23 322.938 1030.31 325.562C1028.4 328.146 1026.04 330.438 1023.25 332.438C1020.5 334.438 1017.42 336 1014 337.125L1026.38 372H1006.06L995.312 339.312H979.188L972.188 372H953.188L972.375 281.812ZM982.125 324.812H998.625C1001.38 324.812 1003.88 324.438 1006.12 323.688C1008.42 322.896 1010.38 321.812 1012 320.438C1013.62 319.021 1014.88 317.354 1015.75 315.438C1016.62 313.521 1017.06 311.396 1017.06 309.062C1017.06 305.229 1015.9 302.271 1013.56 300.188C1011.23 298.104 1007.96 297.062 1003.75 297.062H988.25L982.125 324.812ZM721.188 465H662.188L681.375 374.812H700.312L684.5 448.562H724.562L721.188 465ZM798.25 465H738.438L757.625 374.812H817.375L814.062 390.938H773.312L768.625 412H807.125L804 426.938H765.562L760.688 448.875H801.5L798.25 465ZM836.75 439.25C837.083 441.208 837.792 442.979 838.875 444.562C839.958 446.104 841.312 447.438 842.938 448.562C844.604 449.646 846.5 450.5 848.625 451.125C850.75 451.708 853.042 452 855.5 452C858.042 452 860.354 451.729 862.438 451.188C864.562 450.604 866.375 449.792 867.875 448.75C869.375 447.708 870.542 446.458 871.375 445C872.208 443.542 872.625 441.938 872.625 440.188C872.625 438.896 872.375 437.708 871.875 436.625C871.375 435.542 870.583 434.542 869.5 433.625C868.458 432.667 867.062 431.792 865.312 431C863.604 430.167 861.542 429.375 859.125 428.625L849.75 425.688C846.417 424.646 843.438 423.333 840.812 421.75C838.229 420.125 836.042 418.271 834.25 416.188C832.5 414.104 831.146 411.792 830.188 409.25C829.271 406.708 828.812 403.979 828.812 401.062C828.812 396.938 829.708 393.125 831.5 389.625C833.292 386.125 835.771 383.125 838.938 380.625C842.104 378.083 845.854 376.104 850.188 374.688C854.521 373.229 859.229 372.5 864.312 372.5C869.271 372.5 873.812 373.188 877.938 374.562C882.104 375.938 885.688 377.854 888.688 380.312C891.688 382.771 894.062 385.708 895.812 389.125C897.562 392.542 898.5 396.312 898.625 400.438H880.812C880.521 398.562 879.896 396.854 878.938 395.312C877.979 393.729 876.75 392.396 875.25 391.312C873.75 390.188 872 389.333 870 388.75C868.042 388.125 865.896 387.812 863.562 387.812C861.354 387.812 859.292 388.083 857.375 388.625C855.5 389.167 853.854 389.938 852.438 390.938C851.062 391.896 849.979 393.062 849.188 394.438C848.396 395.771 848 397.229 848 398.812C848 401.312 848.938 403.5 850.812 405.375C852.729 407.25 855.833 408.854 860.125 410.188L869.375 413.062C873.208 414.271 876.521 415.667 879.312 417.25C882.104 418.792 884.417 420.562 886.25 422.562C888.083 424.562 889.438 426.812 890.312 429.312C891.188 431.771 891.625 434.521 891.625 437.562C891.625 442.021 890.708 446.083 888.875 449.75C887.083 453.417 884.542 456.562 881.25 459.188C877.958 461.771 874 463.771 869.375 465.188C864.792 466.604 859.708 467.312 854.125 467.312C849 467.312 844.312 466.667 840.062 465.375C835.812 464.083 832.125 462.25 829 459.875C825.917 457.458 823.458 454.521 821.625 451.062C819.833 447.562 818.792 443.625 818.5 439.25H836.75ZM921.875 439.25C922.208 441.208 922.917 442.979 924 444.562C925.083 446.104 926.438 447.438 928.062 448.562C929.729 449.646 931.625 450.5 933.75 451.125C935.875 451.708 938.167 452 940.625 452C943.167 452 945.479 451.729 947.562 451.188C949.688 450.604 951.5 449.792 953 448.75C954.5 447.708 955.667 446.458 956.5 445C957.333 443.542 957.75 441.938 957.75 440.188C957.75 438.896 957.5 437.708 957 436.625C956.5 435.542 955.708 434.542 954.625 433.625C953.583 432.667 952.188 431.792 950.438 431C948.729 430.167 946.667 429.375 944.25 428.625L934.875 425.688C931.542 424.646 928.562 423.333 925.938 421.75C923.354 420.125 921.167 418.271 919.375 416.188C917.625 414.104 916.271 411.792 915.312 409.25C914.396 406.708 913.938 403.979 913.938 401.062C913.938 396.938 914.833 393.125 916.625 389.625C918.417 386.125 920.896 383.125 924.062 380.625C927.229 378.083 930.979 376.104 935.312 374.688C939.646 373.229 944.354 372.5 949.438 372.5C954.396 372.5 958.938 373.188 963.062 374.562C967.229 375.938 970.812 377.854 973.812 380.312C976.812 382.771 979.188 385.708 980.938 389.125C982.688 392.542 983.625 396.312 983.75 400.438H965.938C965.646 398.562 965.021 396.854 964.062 395.312C963.104 393.729 961.875 392.396 960.375 391.312C958.875 390.188 957.125 389.333 955.125 388.75C953.167 388.125 951.021 387.812 948.688 387.812C946.479 387.812 944.417 388.083 942.5 388.625C940.625 389.167 938.979 389.938 937.562 390.938C936.188 391.896 935.104 393.062 934.312 394.438C933.521 395.771 933.125 397.229 933.125 398.812C933.125 401.312 934.062 403.5 935.938 405.375C937.854 407.25 940.958 408.854 945.25 410.188L954.5 413.062C958.333 414.271 961.646 415.667 964.438 417.25C967.229 418.792 969.542 420.562 971.375 422.562C973.208 424.562 974.562 426.812 975.438 429.312C976.312 431.771 976.75 434.521 976.75 437.562C976.75 442.021 975.833 446.083 974 449.75C972.208 453.417 969.667 456.562 966.375 459.188C963.083 461.771 959.125 463.771 954.5 465.188C949.917 466.604 944.833 467.312 939.25 467.312C934.125 467.312 929.438 466.667 925.188 465.375C920.938 464.083 917.25 462.25 914.125 459.875C911.042 457.458 908.583 454.521 906.75 451.062C904.958 447.562 903.917 443.625 903.625 439.25H921.875Z" fill="#006C6C"/>
<rect x="765" y="205" width="38" height="25" rx="6" fill="#006C6C"/>
<path d="M772.38 223V221.528H773.9V213.304H772.38V211.832H777.244V213.304H775.708V221.528H777.244V223H772.38ZM783.709 223.192C782.247 223.192 781.101 222.701 780.269 221.72C779.437 220.728 779.021 219.293 779.021 217.416C779.021 216.477 779.127 215.651 779.341 214.936C779.554 214.221 779.863 213.619 780.269 213.128C780.674 212.637 781.165 212.269 781.741 212.024C782.327 211.768 782.983 211.64 783.709 211.64C784.679 211.64 785.49 211.853 786.141 212.28C786.802 212.707 787.319 213.336 787.693 214.168L786.173 215C785.981 214.467 785.682 214.045 785.277 213.736C784.882 213.416 784.359 213.256 783.709 213.256C782.845 213.256 782.167 213.549 781.677 214.136C781.186 214.723 780.941 215.533 780.941 216.568V218.264C780.941 219.299 781.186 220.109 781.677 220.696C782.167 221.283 782.845 221.576 783.709 221.576C784.381 221.576 784.925 221.405 785.341 221.064C785.767 220.712 786.082 220.264 786.285 219.72L787.741 220.6C787.367 221.411 786.845 222.045 786.173 222.504C785.501 222.963 784.679 223.192 783.709 223.192ZM793.801 213.432V223H791.993V213.432H788.665V211.832H797.129V213.432H793.801Z" fill="white"/>
<rect x="803" y="205" width="69" height="25" rx="6" fill="#0035AD"/>
<path d="M818.225 214.456H818.145L817.265 216.264L814.817 220.728L812.369 216.264L811.489 214.456H811.409V223H809.681V211.832H811.825L814.817 217.512H814.913L817.905 211.832H819.953V223H818.225V214.456ZM828.68 223C828.221 223 827.869 222.872 827.624 222.616C827.379 222.349 827.229 222.013 827.176 221.608H827.096C826.936 222.131 826.643 222.525 826.216 222.792C825.789 223.059 825.272 223.192 824.664 223.192C823.8 223.192 823.133 222.968 822.664 222.52C822.205 222.072 821.976 221.469 821.976 220.712C821.976 219.88 822.275 219.256 822.872 218.84C823.48 218.424 824.365 218.216 825.528 218.216H827.032V217.512C827.032 217 826.893 216.605 826.616 216.328C826.339 216.051 825.907 215.912 825.32 215.912C824.829 215.912 824.429 216.019 824.12 216.232C823.811 216.445 823.549 216.717 823.336 217.048L822.296 216.104C822.573 215.635 822.963 215.251 823.464 214.952C823.965 214.643 824.621 214.488 825.432 214.488C826.509 214.488 827.336 214.739 827.912 215.24C828.488 215.741 828.776 216.461 828.776 217.4V221.576H829.656V223H828.68ZM825.16 221.864C825.704 221.864 826.152 221.747 826.504 221.512C826.856 221.267 827.032 220.941 827.032 220.536V219.336H825.56C824.355 219.336 823.752 219.709 823.752 220.456V220.744C823.752 221.117 823.875 221.4 824.12 221.592C824.376 221.773 824.723 221.864 825.16 221.864ZM831.365 211.16H833.109V216.056H833.189C833.371 215.608 833.643 215.235 834.005 214.936C834.379 214.637 834.885 214.488 835.525 214.488C836.379 214.488 837.04 214.771 837.509 215.336C837.989 215.891 838.229 216.685 838.229 217.72V223H836.485V217.928C836.485 216.637 835.963 215.992 834.917 215.992C834.693 215.992 834.469 216.024 834.245 216.088C834.032 216.141 833.84 216.227 833.669 216.344C833.499 216.461 833.36 216.611 833.253 216.792C833.157 216.973 833.109 217.181 833.109 217.416V223H831.365V211.16ZM841.526 213.192C841.164 213.192 840.897 213.107 840.726 212.936C840.566 212.765 840.486 212.547 840.486 212.28V212.008C840.486 211.741 840.566 211.523 840.726 211.352C840.897 211.181 841.164 211.096 841.526 211.096C841.889 211.096 842.15 211.181 842.31 211.352C842.47 211.523 842.55 211.741 842.55 212.008V212.28C842.55 212.547 842.47 212.765 842.31 212.936C842.15 213.107 841.889 213.192 841.526 213.192ZM840.646 214.68H842.39V223H840.646V214.68ZM850.113 221.624H850.033C849.851 222.115 849.553 222.499 849.137 222.776C848.731 223.053 848.251 223.192 847.697 223.192C846.641 223.192 845.825 222.813 845.249 222.056C844.673 221.288 844.385 220.216 844.385 218.84C844.385 217.464 844.673 216.397 845.249 215.64C845.825 214.872 846.641 214.488 847.697 214.488C848.251 214.488 848.731 214.627 849.137 214.904C849.553 215.171 849.851 215.555 850.033 216.056H850.113V211.16H851.857V223H850.113V221.624ZM848.225 221.688C848.758 221.688 849.206 221.56 849.569 221.304C849.931 221.037 850.113 220.691 850.113 220.264V217.416C850.113 216.989 849.931 216.648 849.569 216.392C849.206 216.125 848.758 215.992 848.225 215.992C847.617 215.992 847.131 216.189 846.769 216.584C846.406 216.968 846.225 217.48 846.225 218.12V219.56C846.225 220.2 846.406 220.717 846.769 221.112C847.131 221.496 847.617 221.688 848.225 221.688ZM857.614 223.192C857.038 223.192 856.51 223.091 856.03 222.888C855.56 222.685 855.16 222.397 854.83 222.024C854.499 221.64 854.243 221.181 854.062 220.648C853.88 220.104 853.79 219.501 853.79 218.84C853.79 218.179 853.88 217.581 854.062 217.048C854.243 216.504 854.499 216.045 854.83 215.672C855.16 215.288 855.56 214.995 856.03 214.792C856.51 214.589 857.038 214.488 857.614 214.488C858.19 214.488 858.712 214.589 859.182 214.792C859.662 214.995 860.067 215.288 860.398 215.672C860.728 216.045 860.984 216.504 861.166 217.048C861.347 217.581 861.438 218.179 861.438 218.84C861.438 219.501 861.347 220.104 861.166 220.648C860.984 221.181 860.728 221.64 860.398 222.024C860.067 222.397 859.662 222.685 859.182 222.888C858.712 223.091 858.19 223.192 857.614 223.192ZM857.614 221.752C858.211 221.752 858.691 221.571 859.054 221.208C859.416 220.835 859.598 220.28 859.598 219.544V218.136C859.598 217.4 859.416 216.851 859.054 216.488C858.691 216.115 858.211 215.928 857.614 215.928C857.016 215.928 856.536 216.115 856.174 216.488C855.811 216.851 855.63 217.4 855.63 218.136V219.544C855.63 220.28 855.811 220.835 856.174 221.208C856.536 221.571 857.016 221.752 857.614 221.752ZM865.157 223C864.559 223 864.111 222.851 863.813 222.552C863.525 222.243 863.381 221.816 863.381 221.272V211.16H865.125V221.576H866.277V223H865.157Z" fill="white"/>
</svg>
