<svg width="1637" height="951" viewBox="0 0 1637 951" fill="none" xmlns="http://www.w3.org/2000/svg">
<rect width="1637" height="951" rx="32" fill="white"/>
<path d="M755.773 703.288C753.645 703.288 751.989 702.568 750.805 701.128C749.621 699.672 749.029 697.536 749.029 694.72C749.029 691.904 749.621 689.744 750.805 688.24C751.989 686.72 753.645 685.96 755.773 685.96C757.181 685.96 758.357 686.28 759.301 686.92C760.261 687.56 761.005 688.464 761.533 689.632L759.901 690.616C759.565 689.752 759.053 689.064 758.365 688.552C757.677 688.024 756.813 687.76 755.773 687.76C755.053 687.76 754.405 687.896 753.829 688.168C753.269 688.44 752.789 688.832 752.389 689.344C752.005 689.84 751.709 690.44 751.501 691.144C751.293 691.832 751.189 692.608 751.189 693.472V695.968C751.189 697.696 751.589 699.048 752.389 700.024C753.189 701 754.317 701.488 755.773 701.488C756.845 701.488 757.741 701.216 758.461 700.672C759.181 700.112 759.709 699.376 760.045 698.464L761.653 699.472C761.125 700.656 760.365 701.592 759.373 702.28C758.381 702.952 757.181 703.288 755.773 703.288ZM769.263 703.288C768.431 703.288 767.671 703.136 766.983 702.832C766.295 702.528 765.703 702.096 765.207 701.536C764.727 700.96 764.351 700.28 764.079 699.496C763.807 698.696 763.671 697.8 763.671 696.808C763.671 695.832 763.807 694.944 764.079 694.144C764.351 693.344 764.727 692.664 765.207 692.104C765.703 691.528 766.295 691.088 766.983 690.784C767.671 690.48 768.431 690.328 769.263 690.328C770.095 690.328 770.847 690.48 771.519 690.784C772.207 691.088 772.799 691.528 773.295 692.104C773.791 692.664 774.175 693.344 774.447 694.144C774.719 694.944 774.855 695.832 774.855 696.808C774.855 697.8 774.719 698.696 774.447 699.496C774.175 700.28 773.791 700.96 773.295 701.536C772.799 702.096 772.207 702.528 771.519 702.832C770.847 703.136 770.095 703.288 769.263 703.288ZM769.263 701.584C770.303 701.584 771.151 701.264 771.807 700.624C772.463 699.984 772.791 699.008 772.791 697.696V695.92C772.791 694.608 772.463 693.632 771.807 692.992C771.151 692.352 770.303 692.032 769.263 692.032C768.223 692.032 767.375 692.352 766.719 692.992C766.063 693.632 765.735 694.608 765.735 695.92V697.696C765.735 699.008 766.063 699.984 766.719 700.624C767.375 701.264 768.223 701.584 769.263 701.584ZM778.013 703V690.616H779.933V692.632H780.029C780.173 692.312 780.333 692.016 780.509 691.744C780.701 691.456 780.925 691.208 781.181 691C781.453 690.792 781.765 690.632 782.117 690.52C782.469 690.392 782.885 690.328 783.365 690.328C784.181 690.328 784.933 690.528 785.621 690.928C786.309 691.312 786.821 691.952 787.157 692.848H787.205C787.429 692.176 787.845 691.592 788.453 691.096C789.077 690.584 789.917 690.328 790.973 690.328C792.237 690.328 793.221 690.744 793.925 691.576C794.645 692.392 795.005 693.552 795.005 695.056V703H793.085V695.392C793.085 694.288 792.869 693.456 792.437 692.896C792.005 692.336 791.317 692.056 790.373 692.056C789.989 692.056 789.621 692.104 789.269 692.2C788.933 692.296 788.629 692.44 788.357 692.632C788.085 692.824 787.869 693.072 787.709 693.376C787.549 693.664 787.469 694.008 787.469 694.408V703H785.549V695.392C785.549 694.288 785.333 693.456 784.901 692.896C784.469 692.336 783.797 692.056 782.885 692.056C782.501 692.056 782.133 692.104 781.781 692.2C781.429 692.296 781.117 692.44 780.845 692.632C780.573 692.824 780.349 693.072 780.173 693.376C780.013 693.664 779.933 694.008 779.933 694.408V703H778.013ZM799.926 687.712C799.51 687.712 799.206 687.616 799.014 687.424C798.838 687.216 798.75 686.952 798.75 686.632V686.32C798.75 686 798.838 685.744 799.014 685.552C799.206 685.344 799.51 685.24 799.926 685.24C800.342 685.24 800.638 685.344 800.814 685.552C801.006 685.744 801.102 686 801.102 686.32V686.632C801.102 686.952 801.006 687.216 800.814 687.424C800.638 687.616 800.342 687.712 799.926 687.712ZM798.966 690.616H800.886V703H798.966V690.616ZM804.966 703V690.616H806.886V692.632H806.982C807.286 691.928 807.71 691.368 808.254 690.952C808.814 690.536 809.558 690.328 810.486 690.328C811.766 690.328 812.774 690.744 813.51 691.576C814.262 692.392 814.638 693.552 814.638 695.056V703H812.718V695.392C812.718 693.168 811.782 692.056 809.91 692.056C809.526 692.056 809.15 692.104 808.782 692.2C808.43 692.296 808.11 692.44 807.822 692.632C807.534 692.824 807.302 693.072 807.126 693.376C806.966 693.664 806.886 694.008 806.886 694.408V703H804.966ZM829.046 704.368C829.046 705.648 828.542 706.584 827.534 707.176C826.542 707.784 825.046 708.088 823.046 708.088C821.11 708.088 819.718 707.824 818.87 707.296C818.022 706.768 817.598 706.016 817.598 705.04C817.598 704.368 817.774 703.84 818.126 703.456C818.478 703.088 818.958 702.816 819.566 702.64V702.376C818.83 702.024 818.462 701.448 818.462 700.648C818.462 700.024 818.662 699.552 819.062 699.232C819.462 698.896 819.974 698.648 820.598 698.488V698.392C819.862 698.04 819.286 697.536 818.87 696.88C818.47 696.224 818.27 695.464 818.27 694.6C818.27 693.976 818.382 693.4 818.606 692.872C818.83 692.344 819.142 691.896 819.542 691.528C819.958 691.144 820.446 690.848 821.006 690.64C821.582 690.432 822.222 690.328 822.926 690.328C823.806 690.328 824.59 690.488 825.278 690.808V690.592C825.278 690.112 825.39 689.72 825.614 689.416C825.838 689.096 826.206 688.936 826.718 688.936H828.566V690.616H826.214V691.408C826.662 691.792 827.006 692.256 827.246 692.8C827.502 693.328 827.63 693.928 827.63 694.6C827.63 695.224 827.518 695.8 827.294 696.328C827.07 696.856 826.75 697.312 826.334 697.696C825.934 698.064 825.446 698.352 824.87 698.56C824.294 698.768 823.654 698.872 822.95 698.872C822.55 698.872 822.15 698.832 821.75 698.752C821.334 698.864 820.958 699.032 820.622 699.256C820.286 699.464 820.118 699.76 820.118 700.144C820.118 700.512 820.294 700.76 820.646 700.888C820.998 701.016 821.454 701.08 822.014 701.08H824.654C826.19 701.08 827.302 701.376 827.99 701.968C828.694 702.544 829.046 703.344 829.046 704.368ZM827.246 704.512C827.246 704.016 827.054 703.616 826.67 703.312C826.302 703.024 825.638 702.88 824.678 702.88H820.55C819.782 703.232 819.398 703.792 819.398 704.56C819.398 705.104 819.598 705.568 819.998 705.952C820.414 706.336 821.11 706.528 822.086 706.528H823.862C824.934 706.528 825.766 706.36 826.358 706.024C826.95 705.688 827.246 705.184 827.246 704.512ZM822.95 697.336C823.766 697.336 824.414 697.144 824.894 696.76C825.374 696.36 825.614 695.752 825.614 694.936V694.264C825.614 693.448 825.374 692.848 824.894 692.464C824.414 692.064 823.766 691.864 822.95 691.864C822.134 691.864 821.486 692.064 821.006 692.464C820.526 692.848 820.286 693.448 820.286 694.264V694.936C820.286 695.752 820.526 696.36 821.006 696.76C821.486 697.144 822.134 697.336 822.95 697.336ZM841.854 703.288C840.494 703.288 839.334 703.032 838.374 702.52C837.414 701.992 836.598 701.272 835.926 700.36L837.414 699.112C838.006 699.896 838.662 700.496 839.382 700.912C840.102 701.312 840.95 701.512 841.926 701.512C843.126 701.512 844.038 701.224 844.662 700.648C845.302 700.072 845.622 699.304 845.622 698.344C845.622 697.544 845.382 696.928 844.902 696.496C844.422 696.064 843.63 695.72 842.526 695.464L841.158 695.152C839.622 694.8 838.446 694.272 837.63 693.568C836.83 692.848 836.43 691.84 836.43 690.544C836.43 689.808 836.566 689.152 836.838 688.576C837.11 688 837.486 687.52 837.966 687.136C838.462 686.752 839.046 686.464 839.718 686.272C840.406 686.064 841.158 685.96 841.974 685.96C843.238 685.96 844.318 686.192 845.214 686.656C846.126 687.12 846.894 687.8 847.518 688.696L846.006 689.8C845.542 689.16 844.982 688.656 844.326 688.288C843.67 687.92 842.854 687.736 841.878 687.736C840.806 687.736 839.958 687.968 839.334 688.432C838.726 688.88 838.422 689.56 838.422 690.472C838.422 691.272 838.678 691.88 839.19 692.296C839.718 692.696 840.51 693.016 841.566 693.256L842.934 693.568C844.582 693.936 845.774 694.496 846.51 695.248C847.246 696 847.614 697 847.614 698.248C847.614 699.016 847.478 699.712 847.206 700.336C846.95 700.96 846.574 701.488 846.078 701.92C845.582 702.352 844.974 702.688 844.254 702.928C843.55 703.168 842.75 703.288 841.854 703.288ZM855.583 703.288C854.751 703.288 853.991 703.136 853.303 702.832C852.615 702.528 852.023 702.096 851.527 701.536C851.047 700.96 850.671 700.28 850.399 699.496C850.127 698.696 849.991 697.8 849.991 696.808C849.991 695.832 850.127 694.944 850.399 694.144C850.671 693.344 851.047 692.664 851.527 692.104C852.023 691.528 852.615 691.088 853.303 690.784C853.991 690.48 854.751 690.328 855.583 690.328C856.415 690.328 857.167 690.48 857.839 690.784C858.527 691.088 859.119 691.528 859.615 692.104C860.111 692.664 860.495 693.344 860.767 694.144C861.039 694.944 861.175 695.832 861.175 696.808C861.175 697.8 861.039 698.696 860.767 699.496C860.495 700.28 860.111 700.96 859.615 701.536C859.119 702.096 858.527 702.528 857.839 702.832C857.167 703.136 856.415 703.288 855.583 703.288ZM855.583 701.584C856.623 701.584 857.471 701.264 858.127 700.624C858.783 699.984 859.111 699.008 859.111 697.696V695.92C859.111 694.608 858.783 693.632 858.127 692.992C857.471 692.352 856.623 692.032 855.583 692.032C854.543 692.032 853.695 692.352 853.039 692.992C852.383 693.632 852.055 694.608 852.055 695.92V697.696C852.055 699.008 852.383 699.984 853.039 700.624C853.695 701.264 854.543 701.584 855.583 701.584ZM869.013 703.288C868.181 703.288 867.421 703.136 866.733 702.832C866.045 702.528 865.453 702.096 864.957 701.536C864.477 700.96 864.101 700.28 863.829 699.496C863.557 698.696 863.421 697.8 863.421 696.808C863.421 695.832 863.557 694.944 863.829 694.144C864.101 693.344 864.477 692.664 864.957 692.104C865.453 691.528 866.045 691.088 866.733 690.784C867.421 690.48 868.181 690.328 869.013 690.328C869.845 690.328 870.597 690.48 871.269 690.784C871.957 691.088 872.549 691.528 873.045 692.104C873.541 692.664 873.925 693.344 874.197 694.144C874.469 694.944 874.605 695.832 874.605 696.808C874.605 697.8 874.469 698.696 874.197 699.496C873.925 700.28 873.541 700.96 873.045 701.536C872.549 702.096 871.957 702.528 871.269 702.832C870.597 703.136 869.845 703.288 869.013 703.288ZM869.013 701.584C870.053 701.584 870.901 701.264 871.557 700.624C872.213 699.984 872.541 699.008 872.541 697.696V695.92C872.541 694.608 872.213 693.632 871.557 692.992C870.901 692.352 870.053 692.032 869.013 692.032C867.973 692.032 867.125 692.352 866.469 692.992C865.813 693.632 865.485 694.608 865.485 695.92V697.696C865.485 699.008 865.813 699.984 866.469 700.624C867.125 701.264 867.973 701.584 869.013 701.584ZM877.763 703V690.616H879.683V692.632H879.779C880.083 691.928 880.507 691.368 881.051 690.952C881.611 690.536 882.355 690.328 883.283 690.328C884.563 690.328 885.571 690.744 886.307 691.576C887.059 692.392 887.435 693.552 887.435 695.056V703H885.515V695.392C885.515 693.168 884.579 692.056 882.707 692.056C882.323 692.056 881.947 692.104 881.579 692.2C881.227 692.296 880.907 692.44 880.619 692.632C880.331 692.824 880.099 693.072 879.923 693.376C879.763 693.664 879.683 694.008 879.683 694.408V703H877.763Z" fill="#1D1D1F"/>
<path d="M502.345 542.248H507.961C509.001 542.248 509.945 542.424 510.793 542.776C511.641 543.128 512.361 543.656 512.953 544.36C513.561 545.048 514.025 545.92 514.345 546.976C514.665 548.016 514.825 549.232 514.825 550.624C514.825 552.016 514.665 553.24 514.345 554.296C514.025 555.336 513.561 556.208 512.953 556.912C512.361 557.6 511.641 558.12 510.793 558.472C509.945 558.824 509.001 559 507.961 559H502.345V542.248ZM507.961 557.224C508.649 557.224 509.281 557.112 509.857 556.888C510.433 556.648 510.929 556.304 511.345 555.856C511.761 555.408 512.081 554.864 512.305 554.224C512.545 553.568 512.665 552.824 512.665 551.992V549.256C512.665 548.424 512.545 547.688 512.305 547.048C512.081 546.392 511.761 545.84 511.345 545.392C510.929 544.944 510.433 544.608 509.857 544.384C509.281 544.144 508.649 544.024 507.961 544.024H504.361V557.224H507.961ZM519.215 543.712C518.799 543.712 518.495 543.616 518.303 543.424C518.127 543.216 518.039 542.952 518.039 542.632V542.32C518.039 542 518.127 541.744 518.303 541.552C518.495 541.344 518.799 541.24 519.215 541.24C519.631 541.24 519.927 541.344 520.103 541.552C520.295 541.744 520.391 542 520.391 542.32V542.632C520.391 542.952 520.295 543.216 520.103 543.424C519.927 543.616 519.631 543.712 519.215 543.712ZM518.255 546.616H520.175V559H518.255V546.616ZM534.695 560.368C534.695 561.648 534.191 562.584 533.183 563.176C532.191 563.784 530.695 564.088 528.695 564.088C526.759 564.088 525.367 563.824 524.519 563.296C523.671 562.768 523.247 562.016 523.247 561.04C523.247 560.368 523.423 559.84 523.775 559.456C524.127 559.088 524.607 558.816 525.215 558.64V558.376C524.479 558.024 524.111 557.448 524.111 556.648C524.111 556.024 524.311 555.552 524.711 555.232C525.111 554.896 525.623 554.648 526.247 554.488V554.392C525.511 554.04 524.935 553.536 524.519 552.88C524.119 552.224 523.919 551.464 523.919 550.6C523.919 549.976 524.031 549.4 524.255 548.872C524.479 548.344 524.791 547.896 525.191 547.528C525.607 547.144 526.095 546.848 526.655 546.64C527.231 546.432 527.871 546.328 528.575 546.328C529.455 546.328 530.239 546.488 530.927 546.808V546.592C530.927 546.112 531.039 545.72 531.263 545.416C531.487 545.096 531.855 544.936 532.367 544.936H534.215V546.616H531.863V547.408C532.311 547.792 532.655 548.256 532.895 548.8C533.151 549.328 533.279 549.928 533.279 550.6C533.279 551.224 533.167 551.8 532.943 552.328C532.719 552.856 532.399 553.312 531.983 553.696C531.583 554.064 531.095 554.352 530.519 554.56C529.943 554.768 529.303 554.872 528.599 554.872C528.199 554.872 527.799 554.832 527.399 554.752C526.983 554.864 526.607 555.032 526.271 555.256C525.935 555.464 525.767 555.76 525.767 556.144C525.767 556.512 525.943 556.76 526.295 556.888C526.647 557.016 527.103 557.08 527.663 557.08H530.303C531.839 557.08 532.951 557.376 533.639 557.968C534.343 558.544 534.695 559.344 534.695 560.368ZM532.895 560.512C532.895 560.016 532.703 559.616 532.319 559.312C531.951 559.024 531.287 558.88 530.327 558.88H526.199C525.431 559.232 525.047 559.792 525.047 560.56C525.047 561.104 525.247 561.568 525.647 561.952C526.063 562.336 526.759 562.528 527.735 562.528H529.511C530.583 562.528 531.415 562.36 532.007 562.024C532.599 561.688 532.895 561.184 532.895 560.512ZM528.599 553.336C529.415 553.336 530.063 553.144 530.543 552.76C531.023 552.36 531.263 551.752 531.263 550.936V550.264C531.263 549.448 531.023 548.848 530.543 548.464C530.063 548.064 529.415 547.864 528.599 547.864C527.783 547.864 527.135 548.064 526.655 548.464C526.175 548.848 525.935 549.448 525.935 550.264V550.936C525.935 551.752 526.175 552.36 526.655 552.76C527.135 553.144 527.783 553.336 528.599 553.336ZM537.895 543.712C537.479 543.712 537.175 543.616 536.983 543.424C536.807 543.216 536.719 542.952 536.719 542.632V542.32C536.719 542 536.807 541.744 536.983 541.552C537.175 541.344 537.479 541.24 537.895 541.24C538.311 541.24 538.607 541.344 538.783 541.552C538.975 541.744 539.071 542 539.071 542.32V542.632C539.071 542.952 538.975 543.216 538.783 543.424C538.607 543.616 538.311 543.712 537.895 543.712ZM536.935 546.616H538.855V559H536.935V546.616ZM545.671 559C544.999 559 544.487 558.816 544.135 558.448C543.799 558.064 543.631 557.568 543.631 556.96V548.296H541.591V546.616H542.743C543.159 546.616 543.439 546.536 543.583 546.376C543.743 546.2 543.823 545.904 543.823 545.488V543.184H545.551V546.616H548.263V548.296H545.551V557.32H548.071V559H545.671ZM560.349 559C559.629 559 559.109 558.808 558.789 558.424C558.485 558.04 558.293 557.56 558.213 556.984H558.093C557.821 557.752 557.373 558.328 556.749 558.712C556.125 559.096 555.381 559.288 554.517 559.288C553.205 559.288 552.181 558.952 551.445 558.28C550.725 557.608 550.365 556.696 550.365 555.544C550.365 554.376 550.789 553.48 551.637 552.856C552.501 552.232 553.837 551.92 555.645 551.92H558.093V550.696C558.093 549.816 557.853 549.144 557.373 548.68C556.893 548.216 556.157 547.984 555.165 547.984C554.413 547.984 553.781 548.152 553.269 548.488C552.773 548.824 552.357 549.272 552.021 549.832L550.869 548.752C551.205 548.08 551.741 547.512 552.477 547.048C553.213 546.568 554.141 546.328 555.261 546.328C556.765 546.328 557.933 546.696 558.765 547.432C559.597 548.168 560.013 549.192 560.013 550.504V557.32H561.429V559H560.349ZM554.829 557.656C555.309 557.656 555.749 557.6 556.149 557.488C556.549 557.376 556.893 557.216 557.181 557.008C557.469 556.8 557.693 556.56 557.853 556.288C558.013 556.016 558.093 555.72 558.093 555.4V553.36H555.549C554.445 553.36 553.637 553.52 553.125 553.84C552.629 554.16 552.381 554.624 552.381 555.232V555.736C552.381 556.344 552.597 556.816 553.029 557.152C553.477 557.488 554.077 557.656 554.829 557.656ZM566.209 559C565.537 559 565.025 558.816 564.673 558.448C564.337 558.064 564.169 557.584 564.169 557.008V541.24H566.089V557.32H567.913V559H566.209ZM571.668 543.712C571.252 543.712 570.948 543.616 570.756 543.424C570.58 543.216 570.492 542.952 570.492 542.632V542.32C570.492 542 570.58 541.744 570.756 541.552C570.948 541.344 571.252 541.24 571.668 541.24C572.084 541.24 572.38 541.344 572.556 541.552C572.748 541.744 572.844 542 572.844 542.32V542.632C572.844 542.952 572.748 543.216 572.556 543.424C572.38 543.616 572.084 543.712 571.668 543.712ZM570.708 546.616H572.628V559H570.708V546.616ZM575.46 559V557.392L582.492 548.296H575.676V546.616H584.82V548.056L577.644 557.32H585.012V559H575.46ZM592.262 559.288C591.414 559.288 590.646 559.136 589.958 558.832C589.286 558.528 588.702 558.096 588.206 557.536C587.726 556.96 587.35 556.28 587.078 555.496C586.822 554.696 586.694 553.8 586.694 552.808C586.694 551.832 586.822 550.944 587.078 550.144C587.35 549.344 587.726 548.664 588.206 548.104C588.702 547.528 589.286 547.088 589.958 546.784C590.646 546.48 591.414 546.328 592.262 546.328C593.094 546.328 593.838 546.48 594.494 546.784C595.15 547.088 595.71 547.512 596.174 548.056C596.638 548.584 596.99 549.216 597.23 549.952C597.486 550.688 597.614 551.496 597.614 552.376V553.288H588.71V553.864C588.71 554.392 588.79 554.888 588.95 555.352C589.126 555.8 589.366 556.192 589.67 556.528C589.99 556.864 590.374 557.128 590.822 557.32C591.286 557.512 591.806 557.608 592.382 557.608C593.166 557.608 593.846 557.424 594.422 557.056C595.014 556.688 595.47 556.16 595.79 555.472L597.158 556.456C596.758 557.304 596.134 557.992 595.286 558.52C594.438 559.032 593.43 559.288 592.262 559.288ZM592.262 547.936C591.734 547.936 591.254 548.032 590.822 548.224C590.39 548.4 590.014 548.656 589.694 548.992C589.39 549.328 589.15 549.728 588.974 550.192C588.798 550.64 588.71 551.136 588.71 551.68V551.848H595.55V551.584C595.55 550.48 595.246 549.6 594.638 548.944C594.046 548.272 593.254 547.936 592.262 547.936ZM606.45 546.616H608.37V548.632H608.466C608.786 547.848 609.25 547.272 609.858 546.904C610.482 546.52 611.226 546.328 612.09 546.328C612.858 546.328 613.554 546.48 614.178 546.784C614.802 547.088 615.33 547.52 615.762 548.08C616.21 548.64 616.546 549.32 616.77 550.12C617.01 550.92 617.13 551.816 617.13 552.808C617.13 553.8 617.01 554.696 616.77 555.496C616.546 556.296 616.21 556.976 615.762 557.536C615.33 558.096 614.802 558.528 614.178 558.832C613.554 559.136 612.858 559.288 612.09 559.288C610.41 559.288 609.202 558.52 608.466 556.984H608.37V563.8H606.45V546.616ZM611.562 557.56C612.65 557.56 613.506 557.224 614.13 556.552C614.754 555.864 615.066 554.968 615.066 553.864V551.752C615.066 550.648 614.754 549.76 614.13 549.088C613.506 548.4 612.65 548.056 611.562 548.056C611.13 548.056 610.714 548.12 610.314 548.248C609.93 548.36 609.594 548.52 609.306 548.728C609.018 548.936 608.786 549.192 608.61 549.496C608.45 549.784 608.37 550.096 608.37 550.432V555.04C608.37 555.44 608.45 555.8 608.61 556.12C608.786 556.424 609.018 556.688 609.306 556.912C609.594 557.12 609.93 557.28 610.314 557.392C610.714 557.504 611.13 557.56 611.562 557.56ZM629.372 559C628.652 559 628.132 558.808 627.812 558.424C627.508 558.04 627.316 557.56 627.236 556.984H627.116C626.844 557.752 626.396 558.328 625.772 558.712C625.148 559.096 624.404 559.288 623.54 559.288C622.228 559.288 621.204 558.952 620.468 558.28C619.748 557.608 619.388 556.696 619.388 555.544C619.388 554.376 619.812 553.48 620.66 552.856C621.524 552.232 622.86 551.92 624.668 551.92H627.116V550.696C627.116 549.816 626.876 549.144 626.396 548.68C625.916 548.216 625.18 547.984 624.188 547.984C623.436 547.984 622.804 548.152 622.292 548.488C621.796 548.824 621.38 549.272 621.044 549.832L619.892 548.752C620.228 548.08 620.764 547.512 621.5 547.048C622.236 546.568 623.164 546.328 624.284 546.328C625.788 546.328 626.956 546.696 627.788 547.432C628.62 548.168 629.036 549.192 629.036 550.504V557.32H630.452V559H629.372ZM623.852 557.656C624.332 557.656 624.772 557.6 625.172 557.488C625.572 557.376 625.916 557.216 626.204 557.008C626.492 556.8 626.716 556.56 626.876 556.288C627.036 556.016 627.116 555.72 627.116 555.4V553.36H624.572C623.468 553.36 622.66 553.52 622.148 553.84C621.652 554.16 621.404 554.624 621.404 555.232V555.736C621.404 556.344 621.62 556.816 622.052 557.152C622.5 557.488 623.1 557.656 623.852 557.656ZM633.192 546.616H635.112V548.632H635.208C635.528 547.848 635.992 547.272 636.6 546.904C637.224 546.52 637.968 546.328 638.832 546.328C639.6 546.328 640.296 546.48 640.92 546.784C641.544 547.088 642.072 547.52 642.504 548.08C642.952 548.64 643.288 549.32 643.512 550.12C643.752 550.92 643.872 551.816 643.872 552.808C643.872 553.8 643.752 554.696 643.512 555.496C643.288 556.296 642.952 556.976 642.504 557.536C642.072 558.096 641.544 558.528 640.92 558.832C640.296 559.136 639.6 559.288 638.832 559.288C637.152 559.288 635.944 558.52 635.208 556.984H635.112V563.8H633.192V546.616ZM638.304 557.56C639.392 557.56 640.248 557.224 640.872 556.552C641.496 555.864 641.808 554.968 641.808 553.864V551.752C641.808 550.648 641.496 549.76 640.872 549.088C640.248 548.4 639.392 548.056 638.304 548.056C637.872 548.056 637.456 548.12 637.056 548.248C636.672 548.36 636.336 548.52 636.048 548.728C635.76 548.936 635.528 549.192 635.352 549.496C635.192 549.784 635.112 550.096 635.112 550.432V555.04C635.112 555.44 635.192 555.8 635.352 556.12C635.528 556.424 635.76 556.688 636.048 556.912C636.336 557.12 636.672 557.28 637.056 557.392C637.456 557.504 637.872 557.56 638.304 557.56ZM651.77 559.288C650.922 559.288 650.154 559.136 649.466 558.832C648.794 558.528 648.21 558.096 647.714 557.536C647.234 556.96 646.858 556.28 646.586 555.496C646.33 554.696 646.202 553.8 646.202 552.808C646.202 551.832 646.33 550.944 646.586 550.144C646.858 549.344 647.234 548.664 647.714 548.104C648.21 547.528 648.794 547.088 649.466 546.784C650.154 546.48 650.922 546.328 651.77 546.328C652.602 546.328 653.346 546.48 654.002 546.784C654.658 547.088 655.218 547.512 655.682 548.056C656.146 548.584 656.498 549.216 656.738 549.952C656.994 550.688 657.122 551.496 657.122 552.376V553.288H648.218V553.864C648.218 554.392 648.298 554.888 648.458 555.352C648.634 555.8 648.874 556.192 649.178 556.528C649.498 556.864 649.882 557.128 650.33 557.32C650.794 557.512 651.314 557.608 651.89 557.608C652.674 557.608 653.354 557.424 653.93 557.056C654.522 556.688 654.978 556.16 655.298 555.472L656.666 556.456C656.266 557.304 655.642 557.992 654.794 558.52C653.946 559.032 652.938 559.288 651.77 559.288ZM651.77 547.936C651.242 547.936 650.762 548.032 650.33 548.224C649.898 548.4 649.522 548.656 649.202 548.992C648.898 549.328 648.658 549.728 648.482 550.192C648.306 550.64 648.218 551.136 648.218 551.68V551.848H655.058V551.584C655.058 550.48 654.754 549.6 654.146 548.944C653.554 548.272 652.762 547.936 651.77 547.936ZM660.286 559V546.616H662.206V548.896H662.326C662.55 548.304 662.95 547.776 663.526 547.312C664.102 546.848 664.894 546.616 665.902 546.616H666.646V548.536H665.518C664.478 548.536 663.662 548.736 663.07 549.136C662.494 549.52 662.206 550.008 662.206 550.6V559H660.286ZM667.92 546.616H669.792L671.112 551.968L672.432 557.392H672.48L673.992 551.968L675.552 546.616H677.256L678.864 551.968L680.4 557.392H680.448L681.72 551.968L683.064 546.616H684.864L681.576 559H679.2L677.472 553.048L676.392 549.28H676.344L675.288 553.048L673.56 559H671.232L667.92 546.616ZM692.2 559.288C691.368 559.288 690.608 559.136 689.92 558.832C689.232 558.528 688.64 558.096 688.144 557.536C687.664 556.96 687.288 556.28 687.016 555.496C686.744 554.696 686.608 553.8 686.608 552.808C686.608 551.832 686.744 550.944 687.016 550.144C687.288 549.344 687.664 548.664 688.144 548.104C688.64 547.528 689.232 547.088 689.92 546.784C690.608 546.48 691.368 546.328 692.2 546.328C693.032 546.328 693.784 546.48 694.456 546.784C695.144 547.088 695.736 547.528 696.232 548.104C696.728 548.664 697.112 549.344 697.384 550.144C697.656 550.944 697.792 551.832 697.792 552.808C697.792 553.8 697.656 554.696 697.384 555.496C697.112 556.28 696.728 556.96 696.232 557.536C695.736 558.096 695.144 558.528 694.456 558.832C693.784 559.136 693.032 559.288 692.2 559.288ZM692.2 557.584C693.24 557.584 694.088 557.264 694.744 556.624C695.4 555.984 695.728 555.008 695.728 553.696V551.92C695.728 550.608 695.4 549.632 694.744 548.992C694.088 548.352 693.24 548.032 692.2 548.032C691.16 548.032 690.312 548.352 689.656 548.992C689 549.632 688.672 550.608 688.672 551.92V553.696C688.672 555.008 689 555.984 689.656 556.624C690.312 557.264 691.16 557.584 692.2 557.584ZM700.95 559V546.616H702.87V548.896H702.99C703.214 548.304 703.614 547.776 704.19 547.312C704.766 546.848 705.558 546.616 706.566 546.616H707.31V548.536H706.182C705.142 548.536 704.326 548.736 703.734 549.136C703.158 549.52 702.87 550.008 702.87 550.6V559H700.95ZM709.763 541.24H711.683V552.496H711.779L713.675 550.384L717.179 546.616H719.507L714.923 551.512L719.963 559H717.635L713.531 552.688L711.683 554.584V559H709.763V541.24ZM729.051 543.712C728.635 543.712 728.331 543.616 728.139 543.424C727.963 543.216 727.875 542.952 727.875 542.632V542.32C727.875 542 727.963 541.744 728.139 541.552C728.331 541.344 728.635 541.24 729.051 541.24C729.467 541.24 729.763 541.344 729.939 541.552C730.131 541.744 730.227 542 730.227 542.32V542.632C730.227 542.952 730.131 543.216 729.939 543.424C729.763 543.616 729.467 543.712 729.051 543.712ZM728.091 546.616H730.011V559H728.091V546.616ZM734.091 559V546.616H736.011V548.632H736.107C736.411 547.928 736.835 547.368 737.379 546.952C737.939 546.536 738.683 546.328 739.611 546.328C740.891 546.328 741.899 546.744 742.635 547.576C743.387 548.392 743.763 549.552 743.763 551.056V559H741.843V551.392C741.843 549.168 740.907 548.056 739.035 548.056C738.651 548.056 738.275 548.104 737.907 548.2C737.555 548.296 737.235 548.44 736.947 548.632C736.659 548.824 736.427 549.072 736.251 549.376C736.091 549.664 736.011 550.008 736.011 550.408V559H734.091ZM750.467 559C749.795 559 749.283 558.816 748.931 558.448C748.595 558.064 748.427 557.568 748.427 556.96V548.296H746.387V546.616H747.539C747.955 546.616 748.235 546.536 748.379 546.376C748.539 546.2 748.619 545.904 748.619 545.488V543.184H750.347V546.616H753.059V548.296H750.347V557.32H752.867V559H750.467ZM760.732 559.288C759.9 559.288 759.14 559.136 758.452 558.832C757.764 558.528 757.172 558.096 756.676 557.536C756.196 556.96 755.82 556.28 755.548 555.496C755.276 554.696 755.14 553.8 755.14 552.808C755.14 551.832 755.276 550.944 755.548 550.144C755.82 549.344 756.196 548.664 756.676 548.104C757.172 547.528 757.764 547.088 758.452 546.784C759.14 546.48 759.9 546.328 760.732 546.328C761.564 546.328 762.316 546.48 762.988 546.784C763.676 547.088 764.268 547.528 764.764 548.104C765.26 548.664 765.644 549.344 765.916 550.144C766.188 550.944 766.324 551.832 766.324 552.808C766.324 553.8 766.188 554.696 765.916 555.496C765.644 556.28 765.26 556.96 764.764 557.536C764.268 558.096 763.676 558.528 762.988 558.832C762.316 559.136 761.564 559.288 760.732 559.288ZM760.732 557.584C761.772 557.584 762.62 557.264 763.276 556.624C763.932 555.984 764.26 555.008 764.26 553.696V551.92C764.26 550.608 763.932 549.632 763.276 548.992C762.62 548.352 761.772 548.032 760.732 548.032C759.692 548.032 758.844 548.352 758.188 548.992C757.532 549.632 757.204 550.608 757.204 551.92V553.696C757.204 555.008 757.532 555.984 758.188 556.624C758.844 557.264 759.692 557.584 760.732 557.584ZM775.153 559V546.616H777.073V548.632H777.169C777.473 547.928 777.897 547.368 778.441 546.952C779.001 546.536 779.745 546.328 780.673 546.328C781.953 546.328 782.961 546.744 783.697 547.576C784.449 548.392 784.825 549.552 784.825 551.056V559H782.905V551.392C782.905 549.168 781.969 548.056 780.097 548.056C779.713 548.056 779.337 548.104 778.969 548.2C778.617 548.296 778.297 548.44 778.009 548.632C777.721 548.824 777.489 549.072 777.313 549.376C777.153 549.664 777.073 550.008 777.073 550.408V559H775.153ZM793.45 559.288C792.602 559.288 791.834 559.136 791.146 558.832C790.474 558.528 789.89 558.096 789.394 557.536C788.914 556.96 788.538 556.28 788.266 555.496C788.01 554.696 787.882 553.8 787.882 552.808C787.882 551.832 788.01 550.944 788.266 550.144C788.538 549.344 788.914 548.664 789.394 548.104C789.89 547.528 790.474 547.088 791.146 546.784C791.834 546.48 792.602 546.328 793.45 546.328C794.282 546.328 795.026 546.48 795.682 546.784C796.338 547.088 796.898 547.512 797.362 548.056C797.826 548.584 798.178 549.216 798.418 549.952C798.674 550.688 798.802 551.496 798.802 552.376V553.288H789.898V553.864C789.898 554.392 789.978 554.888 790.138 555.352C790.314 555.8 790.554 556.192 790.858 556.528C791.178 556.864 791.562 557.128 792.01 557.32C792.474 557.512 792.994 557.608 793.57 557.608C794.354 557.608 795.034 557.424 795.61 557.056C796.202 556.688 796.658 556.16 796.978 555.472L798.346 556.456C797.946 557.304 797.322 557.992 796.474 558.52C795.626 559.032 794.618 559.288 793.45 559.288ZM793.45 547.936C792.922 547.936 792.442 548.032 792.01 548.224C791.578 548.4 791.202 548.656 790.882 548.992C790.578 549.328 790.338 549.728 790.162 550.192C789.986 550.64 789.898 551.136 789.898 551.68V551.848H796.738V551.584C796.738 550.48 796.434 549.6 795.826 548.944C795.234 548.272 794.442 547.936 793.45 547.936ZM800.553 546.616H802.425L803.745 551.968L805.065 557.392H805.113L806.625 551.968L808.185 546.616H809.889L811.497 551.968L813.033 557.392H813.081L814.353 551.968L815.697 546.616H817.497L814.209 559H811.833L810.105 553.048L809.025 549.28H808.977L807.921 553.048L806.193 559H803.865L800.553 546.616ZM824.646 546.616H826.518L827.838 551.968L829.158 557.392H829.206L830.718 551.968L832.278 546.616H833.982L835.59 551.968L837.126 557.392H837.174L838.446 551.968L839.79 546.616H841.59L838.302 559H835.926L834.198 553.048L833.118 549.28H833.07L832.014 553.048L830.286 559H827.958L824.646 546.616ZM848.903 559.288C848.055 559.288 847.287 559.136 846.599 558.832C845.927 558.528 845.343 558.096 844.847 557.536C844.367 556.96 843.991 556.28 843.719 555.496C843.463 554.696 843.335 553.8 843.335 552.808C843.335 551.832 843.463 550.944 843.719 550.144C843.991 549.344 844.367 548.664 844.847 548.104C845.343 547.528 845.927 547.088 846.599 546.784C847.287 546.48 848.055 546.328 848.903 546.328C849.735 546.328 850.479 546.48 851.135 546.784C851.791 547.088 852.351 547.512 852.815 548.056C853.279 548.584 853.631 549.216 853.871 549.952C854.127 550.688 854.255 551.496 854.255 552.376V553.288H845.351V553.864C845.351 554.392 845.431 554.888 845.591 555.352C845.767 555.8 846.007 556.192 846.311 556.528C846.631 556.864 847.015 557.128 847.463 557.32C847.927 557.512 848.447 557.608 849.023 557.608C849.807 557.608 850.487 557.424 851.063 557.056C851.655 556.688 852.111 556.16 852.431 555.472L853.799 556.456C853.399 557.304 852.775 557.992 851.927 558.52C851.079 559.032 850.071 559.288 848.903 559.288ZM848.903 547.936C848.375 547.936 847.895 548.032 847.463 548.224C847.031 548.4 846.655 548.656 846.335 548.992C846.031 549.328 845.791 549.728 845.615 550.192C845.439 550.64 845.351 551.136 845.351 551.68V551.848H852.191V551.584C852.191 550.48 851.887 549.6 851.279 548.944C850.687 548.272 849.895 547.936 848.903 547.936ZM857.419 541.24H859.339V548.632H859.435C859.755 547.848 860.219 547.272 860.827 546.904C861.451 546.52 862.195 546.328 863.059 546.328C863.827 546.328 864.523 546.48 865.147 546.784C865.771 547.088 866.299 547.52 866.731 548.08C867.179 548.64 867.515 549.32 867.739 550.12C867.979 550.92 868.099 551.816 868.099 552.808C868.099 553.8 867.979 554.696 867.739 555.496C867.515 556.296 867.179 556.976 866.731 557.536C866.299 558.096 865.771 558.528 865.147 558.832C864.523 559.136 863.827 559.288 863.059 559.288C861.379 559.288 860.171 558.52 859.435 556.984H859.339V559H857.419V541.24ZM862.531 557.56C863.619 557.56 864.475 557.224 865.099 556.552C865.723 555.864 866.035 554.968 866.035 553.864V551.752C866.035 550.648 865.723 549.76 865.099 549.088C864.475 548.4 863.619 548.056 862.531 548.056C862.099 548.056 861.683 548.12 861.283 548.248C860.899 548.36 860.563 548.52 860.275 548.728C859.987 548.936 859.755 549.192 859.579 549.496C859.419 549.784 859.339 550.096 859.339 550.432V555.04C859.339 555.44 859.419 555.8 859.579 556.12C859.755 556.424 859.987 556.688 860.275 556.912C860.563 557.12 860.899 557.28 861.283 557.392C861.683 557.504 862.099 557.56 862.531 557.56ZM875.061 559.288C873.909 559.288 872.941 559.072 872.157 558.64C871.389 558.192 870.725 557.6 870.165 556.864L871.533 555.76C872.013 556.368 872.549 556.84 873.141 557.176C873.733 557.496 874.421 557.656 875.205 557.656C876.021 557.656 876.653 557.48 877.101 557.128C877.565 556.776 877.797 556.28 877.797 555.64C877.797 555.16 877.637 554.752 877.317 554.416C877.013 554.064 876.453 553.824 875.637 553.696L874.653 553.552C874.077 553.472 873.549 553.352 873.069 553.192C872.589 553.016 872.165 552.792 871.797 552.52C871.445 552.232 871.165 551.88 870.957 551.464C870.765 551.048 870.669 550.552 870.669 549.976C870.669 549.368 870.781 548.84 871.005 548.392C871.229 547.928 871.533 547.544 871.917 547.24C872.317 546.936 872.789 546.712 873.333 546.568C873.877 546.408 874.461 546.328 875.085 546.328C876.093 546.328 876.933 546.504 877.605 546.856C878.293 547.208 878.893 547.696 879.405 548.32L878.133 549.472C877.861 549.088 877.461 548.744 876.933 548.44C876.405 548.12 875.741 547.96 874.941 547.96C874.141 547.96 873.533 548.136 873.117 548.488C872.717 548.824 872.517 549.288 872.517 549.88C872.517 550.488 872.717 550.928 873.117 551.2C873.533 551.472 874.125 551.672 874.893 551.8L875.853 551.944C877.229 552.152 878.205 552.552 878.781 553.144C879.357 553.72 879.645 554.48 879.645 555.424C879.645 556.624 879.237 557.568 878.421 558.256C877.605 558.944 876.485 559.288 875.061 559.288ZM883.996 543.712C883.58 543.712 883.276 543.616 883.084 543.424C882.908 543.216 882.82 542.952 882.82 542.632V542.32C882.82 542 882.908 541.744 883.084 541.552C883.276 541.344 883.58 541.24 883.996 541.24C884.412 541.24 884.708 541.344 884.884 541.552C885.076 541.744 885.172 542 885.172 542.32V542.632C885.172 542.952 885.076 543.216 884.884 543.424C884.708 543.616 884.412 543.712 883.996 543.712ZM883.036 546.616H884.956V559H883.036V546.616ZM891.772 559C891.1 559 890.588 558.816 890.236 558.448C889.9 558.064 889.732 557.568 889.732 556.96V548.296H887.692V546.616H888.844C889.26 546.616 889.54 546.536 889.684 546.376C889.844 546.2 889.924 545.904 889.924 545.488V543.184H891.652V546.616H894.364V548.296H891.652V557.32H894.172V559H891.772ZM902.012 559.288C901.164 559.288 900.396 559.136 899.708 558.832C899.036 558.528 898.452 558.096 897.956 557.536C897.476 556.96 897.1 556.28 896.828 555.496C896.572 554.696 896.444 553.8 896.444 552.808C896.444 551.832 896.572 550.944 896.828 550.144C897.1 549.344 897.476 548.664 897.956 548.104C898.452 547.528 899.036 547.088 899.708 546.784C900.396 546.48 901.164 546.328 902.012 546.328C902.844 546.328 903.588 546.48 904.244 546.784C904.9 547.088 905.46 547.512 905.924 548.056C906.388 548.584 906.74 549.216 906.98 549.952C907.236 550.688 907.364 551.496 907.364 552.376V553.288H898.46V553.864C898.46 554.392 898.54 554.888 898.7 555.352C898.876 555.8 899.116 556.192 899.42 556.528C899.74 556.864 900.124 557.128 900.572 557.32C901.036 557.512 901.556 557.608 902.132 557.608C902.916 557.608 903.596 557.424 904.172 557.056C904.764 556.688 905.22 556.16 905.54 555.472L906.908 556.456C906.508 557.304 905.884 557.992 905.036 558.52C904.188 559.032 903.18 559.288 902.012 559.288ZM902.012 547.936C901.484 547.936 901.004 548.032 900.572 548.224C900.14 548.4 899.764 548.656 899.444 548.992C899.14 549.328 898.9 549.728 898.724 550.192C898.548 550.64 898.46 551.136 898.46 551.68V551.848H905.3V551.584C905.3 550.48 904.996 549.6 904.388 548.944C903.796 548.272 903.004 547.936 902.012 547.936ZM916.872 548.296H914.856V546.616H916.872V544.12C916.872 543.256 917.096 542.56 917.544 542.032C917.992 541.504 918.672 541.24 919.584 541.24H921.456V542.92H918.792V546.616H921.456V548.296H918.792V559H916.872V548.296ZM928.568 559.288C927.736 559.288 926.976 559.136 926.288 558.832C925.6 558.528 925.008 558.096 924.512 557.536C924.032 556.96 923.656 556.28 923.384 555.496C923.112 554.696 922.976 553.8 922.976 552.808C922.976 551.832 923.112 550.944 923.384 550.144C923.656 549.344 924.032 548.664 924.512 548.104C925.008 547.528 925.6 547.088 926.288 546.784C926.976 546.48 927.736 546.328 928.568 546.328C929.4 546.328 930.152 546.48 930.824 546.784C931.512 547.088 932.104 547.528 932.6 548.104C933.096 548.664 933.48 549.344 933.752 550.144C934.024 550.944 934.16 551.832 934.16 552.808C934.16 553.8 934.024 554.696 933.752 555.496C933.48 556.28 933.096 556.96 932.6 557.536C932.104 558.096 931.512 558.528 930.824 558.832C930.152 559.136 929.4 559.288 928.568 559.288ZM928.568 557.584C929.608 557.584 930.456 557.264 931.112 556.624C931.768 555.984 932.096 555.008 932.096 553.696V551.92C932.096 550.608 931.768 549.632 931.112 548.992C930.456 548.352 929.608 548.032 928.568 548.032C927.528 548.032 926.68 548.352 926.024 548.992C925.368 549.632 925.04 550.608 925.04 551.92V553.696C925.04 555.008 925.368 555.984 926.024 556.624C926.68 557.264 927.528 557.584 928.568 557.584ZM937.317 559V546.616H939.237V548.896H939.357C939.581 548.304 939.981 547.776 940.557 547.312C941.133 546.848 941.925 546.616 942.933 546.616H943.677V548.536H942.549C941.509 548.536 940.693 548.736 940.101 549.136C939.525 549.52 939.237 550.008 939.237 550.6V559H937.317ZM951.802 559V546.616H953.722V548.896H953.842C954.066 548.304 954.466 547.776 955.042 547.312C955.618 546.848 956.41 546.616 957.418 546.616H958.162V548.536H957.034C955.994 548.536 955.178 548.736 954.586 549.136C954.01 549.52 953.722 550.008 953.722 550.6V559H951.802ZM965.153 559.288C964.305 559.288 963.537 559.136 962.849 558.832C962.177 558.528 961.593 558.096 961.097 557.536C960.617 556.96 960.241 556.28 959.969 555.496C959.713 554.696 959.585 553.8 959.585 552.808C959.585 551.832 959.713 550.944 959.969 550.144C960.241 549.344 960.617 548.664 961.097 548.104C961.593 547.528 962.177 547.088 962.849 546.784C963.537 546.48 964.305 546.328 965.153 546.328C965.985 546.328 966.729 546.48 967.385 546.784C968.041 547.088 968.601 547.512 969.065 548.056C969.529 548.584 969.881 549.216 970.121 549.952C970.377 550.688 970.505 551.496 970.505 552.376V553.288H961.601V553.864C961.601 554.392 961.681 554.888 961.841 555.352C962.017 555.8 962.257 556.192 962.561 556.528C962.881 556.864 963.265 557.128 963.713 557.32C964.177 557.512 964.697 557.608 965.273 557.608C966.057 557.608 966.737 557.424 967.313 557.056C967.905 556.688 968.361 556.16 968.681 555.472L970.049 556.456C969.649 557.304 969.025 557.992 968.177 558.52C967.329 559.032 966.321 559.288 965.153 559.288ZM965.153 547.936C964.625 547.936 964.145 548.032 963.713 548.224C963.281 548.4 962.905 548.656 962.585 548.992C962.281 549.328 962.041 549.728 961.865 550.192C961.689 550.64 961.601 551.136 961.601 551.68V551.848H968.441V551.584C968.441 550.48 968.137 549.6 967.529 548.944C966.937 548.272 966.145 547.936 965.153 547.936ZM977.389 559.288C976.237 559.288 975.269 559.072 974.485 558.64C973.717 558.192 973.053 557.6 972.493 556.864L973.861 555.76C974.341 556.368 974.877 556.84 975.469 557.176C976.061 557.496 976.749 557.656 977.533 557.656C978.349 557.656 978.981 557.48 979.429 557.128C979.893 556.776 980.125 556.28 980.125 555.64C980.125 555.16 979.965 554.752 979.645 554.416C979.341 554.064 978.781 553.824 977.965 553.696L976.981 553.552C976.405 553.472 975.877 553.352 975.397 553.192C974.917 553.016 974.493 552.792 974.125 552.52C973.773 552.232 973.493 551.88 973.285 551.464C973.093 551.048 972.997 550.552 972.997 549.976C972.997 549.368 973.109 548.84 973.333 548.392C973.557 547.928 973.861 547.544 974.245 547.24C974.645 546.936 975.117 546.712 975.661 546.568C976.205 546.408 976.789 546.328 977.413 546.328C978.421 546.328 979.261 546.504 979.933 546.856C980.621 547.208 981.221 547.696 981.733 548.32L980.461 549.472C980.189 549.088 979.789 548.744 979.261 548.44C978.733 548.12 978.069 547.96 977.269 547.96C976.469 547.96 975.861 548.136 975.445 548.488C975.045 548.824 974.845 549.288 974.845 549.88C974.845 550.488 975.045 550.928 975.445 551.2C975.861 551.472 976.453 551.672 977.221 551.8L978.181 551.944C979.557 552.152 980.533 552.552 981.109 553.144C981.685 553.72 981.973 554.48 981.973 555.424C981.973 556.624 981.565 557.568 980.749 558.256C979.933 558.944 978.813 559.288 977.389 559.288ZM990.02 559.288C989.172 559.288 988.404 559.136 987.716 558.832C987.044 558.528 986.46 558.096 985.964 557.536C985.484 556.96 985.108 556.28 984.836 555.496C984.58 554.696 984.452 553.8 984.452 552.808C984.452 551.832 984.58 550.944 984.836 550.144C985.108 549.344 985.484 548.664 985.964 548.104C986.46 547.528 987.044 547.088 987.716 546.784C988.404 546.48 989.172 546.328 990.02 546.328C990.852 546.328 991.596 546.48 992.252 546.784C992.908 547.088 993.468 547.512 993.932 548.056C994.396 548.584 994.748 549.216 994.988 549.952C995.244 550.688 995.372 551.496 995.372 552.376V553.288H986.468V553.864C986.468 554.392 986.548 554.888 986.708 555.352C986.884 555.8 987.124 556.192 987.428 556.528C987.748 556.864 988.132 557.128 988.58 557.32C989.044 557.512 989.564 557.608 990.14 557.608C990.924 557.608 991.604 557.424 992.18 557.056C992.772 556.688 993.228 556.16 993.548 555.472L994.916 556.456C994.516 557.304 993.892 557.992 993.044 558.52C992.196 559.032 991.188 559.288 990.02 559.288ZM990.02 547.936C989.492 547.936 989.012 548.032 988.58 548.224C988.148 548.4 987.772 548.656 987.452 548.992C987.148 549.328 986.908 549.728 986.732 550.192C986.556 550.64 986.468 551.136 986.468 551.68V551.848H993.308V551.584C993.308 550.48 993.004 549.6 992.396 548.944C991.804 548.272 991.012 547.936 990.02 547.936ZM998.536 559V546.616H1000.46V548.896H1000.58C1000.8 548.304 1001.2 547.776 1001.78 547.312C1002.35 546.848 1003.14 546.616 1004.15 546.616H1004.9V548.536H1003.77C1002.73 548.536 1001.91 548.736 1001.32 549.136C1000.74 549.52 1000.46 550.008 1000.46 550.6V559H998.536ZM1010.32 559L1005.97 546.616H1007.89L1010.05 552.76L1011.4 556.984H1011.52L1012.86 552.76L1015.07 546.616H1016.92L1012.55 559H1010.32ZM1020.36 543.712C1019.94 543.712 1019.64 543.616 1019.44 543.424C1019.27 543.216 1019.18 542.952 1019.18 542.632V542.32C1019.18 542 1019.27 541.744 1019.44 541.552C1019.64 541.344 1019.94 541.24 1020.36 541.24C1020.77 541.24 1021.07 541.344 1021.24 541.552C1021.44 541.744 1021.53 542 1021.53 542.32V542.632C1021.53 542.952 1021.44 543.216 1021.24 543.424C1021.07 543.616 1020.77 543.712 1020.36 543.712ZM1019.4 546.616H1021.32V559H1019.4V546.616ZM1025.4 559V546.616H1027.32V548.632H1027.41C1027.72 547.928 1028.14 547.368 1028.68 546.952C1029.24 546.536 1029.99 546.328 1030.92 546.328C1032.2 546.328 1033.2 546.744 1033.94 547.576C1034.69 548.392 1035.07 549.552 1035.07 551.056V559H1033.15V551.392C1033.15 549.168 1032.21 548.056 1030.34 548.056C1029.96 548.056 1029.58 548.104 1029.21 548.2C1028.86 548.296 1028.54 548.44 1028.25 548.632C1027.96 548.824 1027.73 549.072 1027.56 549.376C1027.4 549.664 1027.32 550.008 1027.32 550.408V559H1025.4ZM1049.48 560.368C1049.48 561.648 1048.97 562.584 1047.96 563.176C1046.97 563.784 1045.48 564.088 1043.48 564.088C1041.54 564.088 1040.15 563.824 1039.3 563.296C1038.45 562.768 1038.03 562.016 1038.03 561.04C1038.03 560.368 1038.2 559.84 1038.56 559.456C1038.91 559.088 1039.39 558.816 1040 558.64V558.376C1039.26 558.024 1038.89 557.448 1038.89 556.648C1038.89 556.024 1039.09 555.552 1039.49 555.232C1039.89 554.896 1040.4 554.648 1041.03 554.488V554.392C1040.29 554.04 1039.72 553.536 1039.3 552.88C1038.9 552.224 1038.7 551.464 1038.7 550.6C1038.7 549.976 1038.81 549.4 1039.04 548.872C1039.26 548.344 1039.57 547.896 1039.97 547.528C1040.39 547.144 1040.88 546.848 1041.44 546.64C1042.01 546.432 1042.65 546.328 1043.36 546.328C1044.24 546.328 1045.02 546.488 1045.71 546.808V546.592C1045.71 546.112 1045.82 545.72 1046.04 545.416C1046.27 545.096 1046.64 544.936 1047.15 544.936H1049V546.616H1046.64V547.408C1047.09 547.792 1047.44 548.256 1047.68 548.8C1047.93 549.328 1048.06 549.928 1048.06 550.6C1048.06 551.224 1047.95 551.8 1047.72 552.328C1047.5 552.856 1047.18 553.312 1046.76 553.696C1046.36 554.064 1045.88 554.352 1045.3 554.56C1044.72 554.768 1044.08 554.872 1043.38 554.872C1042.98 554.872 1042.58 554.832 1042.18 554.752C1041.76 554.864 1041.39 555.032 1041.05 555.256C1040.72 555.464 1040.55 555.76 1040.55 556.144C1040.55 556.512 1040.72 556.76 1041.08 556.888C1041.43 557.016 1041.88 557.08 1042.44 557.08H1045.08C1046.62 557.08 1047.73 557.376 1048.42 557.968C1049.12 558.544 1049.48 559.344 1049.48 560.368ZM1047.68 560.512C1047.68 560.016 1047.48 559.616 1047.1 559.312C1046.73 559.024 1046.07 558.88 1045.11 558.88H1040.98C1040.21 559.232 1039.83 559.792 1039.83 560.56C1039.83 561.104 1040.03 561.568 1040.43 561.952C1040.84 562.336 1041.54 562.528 1042.52 562.528H1044.29C1045.36 562.528 1046.2 562.36 1046.79 562.024C1047.38 561.688 1047.68 561.184 1047.68 560.512ZM1043.38 553.336C1044.2 553.336 1044.84 553.144 1045.32 552.76C1045.8 552.36 1046.04 551.752 1046.04 550.936V550.264C1046.04 549.448 1045.8 548.848 1045.32 548.464C1044.84 548.064 1044.2 547.864 1043.38 547.864C1042.56 547.864 1041.92 548.064 1041.44 548.464C1040.96 548.848 1040.72 549.448 1040.72 550.264V550.936C1040.72 551.752 1040.96 552.36 1041.44 552.76C1041.92 553.144 1042.56 553.336 1043.38 553.336ZM1066.39 559C1065.67 559 1065.15 558.808 1064.83 558.424C1064.52 558.04 1064.33 557.56 1064.25 556.984H1064.13C1063.86 557.752 1063.41 558.328 1062.79 558.712C1062.16 559.096 1061.42 559.288 1060.56 559.288C1059.24 559.288 1058.22 558.952 1057.48 558.28C1056.76 557.608 1056.4 556.696 1056.4 555.544C1056.4 554.376 1056.83 553.48 1057.68 552.856C1058.54 552.232 1059.88 551.92 1061.68 551.92H1064.13V550.696C1064.13 549.816 1063.89 549.144 1063.41 548.68C1062.93 548.216 1062.2 547.984 1061.2 547.984C1060.45 547.984 1059.82 548.152 1059.31 548.488C1058.81 548.824 1058.4 549.272 1058.06 549.832L1056.91 548.752C1057.24 548.08 1057.78 547.512 1058.52 547.048C1059.25 546.568 1060.18 546.328 1061.3 546.328C1062.8 546.328 1063.97 546.696 1064.8 547.432C1065.64 548.168 1066.05 549.192 1066.05 550.504V557.32H1067.47V559H1066.39ZM1060.87 557.656C1061.35 557.656 1061.79 557.6 1062.19 557.488C1062.59 557.376 1062.93 557.216 1063.22 557.008C1063.51 556.8 1063.73 556.56 1063.89 556.288C1064.05 556.016 1064.13 555.72 1064.13 555.4V553.36H1061.59C1060.48 553.36 1059.68 553.52 1059.16 553.84C1058.67 554.16 1058.42 554.624 1058.42 555.232V555.736C1058.42 556.344 1058.64 556.816 1059.07 557.152C1059.52 557.488 1060.12 557.656 1060.87 557.656ZM1075.88 559V546.616H1077.8V548.896H1077.92C1078.14 548.304 1078.54 547.776 1079.12 547.312C1079.7 546.848 1080.49 546.616 1081.5 546.616H1082.24V548.536H1081.11C1080.07 548.536 1079.26 548.736 1078.66 549.136C1078.09 549.52 1077.8 550.008 1077.8 550.6V559H1075.88ZM1089.26 559.288C1088.42 559.288 1087.66 559.136 1086.98 558.832C1086.29 558.528 1085.7 558.096 1085.2 557.536C1084.72 556.96 1084.34 556.28 1084.07 555.496C1083.8 554.696 1083.66 553.8 1083.66 552.808C1083.66 551.832 1083.8 550.944 1084.07 550.144C1084.34 549.344 1084.72 548.664 1085.2 548.104C1085.7 547.528 1086.29 547.088 1086.98 546.784C1087.66 546.48 1088.42 546.328 1089.26 546.328C1090.09 546.328 1090.84 546.48 1091.51 546.784C1092.2 547.088 1092.79 547.528 1093.29 548.104C1093.78 548.664 1094.17 549.344 1094.44 550.144C1094.71 550.944 1094.85 551.832 1094.85 552.808C1094.85 553.8 1094.71 554.696 1094.44 555.496C1094.17 556.28 1093.78 556.96 1093.29 557.536C1092.79 558.096 1092.2 558.528 1091.51 558.832C1090.84 559.136 1090.09 559.288 1089.26 559.288ZM1089.26 557.584C1090.3 557.584 1091.14 557.264 1091.8 556.624C1092.46 555.984 1092.78 555.008 1092.78 553.696V551.92C1092.78 550.608 1092.46 549.632 1091.8 548.992C1091.14 548.352 1090.3 548.032 1089.26 548.032C1088.22 548.032 1087.37 548.352 1086.71 548.992C1086.06 549.632 1085.73 550.608 1085.73 551.92V553.696C1085.73 555.008 1086.06 555.984 1086.71 556.624C1087.37 557.264 1088.22 557.584 1089.26 557.584ZM1102.68 559.288C1101.85 559.288 1101.09 559.136 1100.4 558.832C1099.72 558.528 1099.12 558.096 1098.63 557.536C1098.15 556.96 1097.77 556.28 1097.5 555.496C1097.23 554.696 1097.09 553.8 1097.09 552.808C1097.09 551.832 1097.23 550.944 1097.5 550.144C1097.77 549.344 1098.15 548.664 1098.63 548.104C1099.12 547.528 1099.72 547.088 1100.4 546.784C1101.09 546.48 1101.85 546.328 1102.68 546.328C1103.52 546.328 1104.27 546.48 1104.94 546.784C1105.63 547.088 1106.22 547.528 1106.72 548.104C1107.21 548.664 1107.6 549.344 1107.87 550.144C1108.14 550.944 1108.28 551.832 1108.28 552.808C1108.28 553.8 1108.14 554.696 1107.87 555.496C1107.6 556.28 1107.21 556.96 1106.72 557.536C1106.22 558.096 1105.63 558.528 1104.94 558.832C1104.27 559.136 1103.52 559.288 1102.68 559.288ZM1102.68 557.584C1103.72 557.584 1104.57 557.264 1105.23 556.624C1105.88 555.984 1106.21 555.008 1106.21 553.696V551.92C1106.21 550.608 1105.88 549.632 1105.23 548.992C1104.57 548.352 1103.72 548.032 1102.68 548.032C1101.64 548.032 1100.8 548.352 1100.14 548.992C1099.48 549.632 1099.16 550.608 1099.16 551.92V553.696C1099.16 555.008 1099.48 555.984 1100.14 556.624C1100.8 557.264 1101.64 557.584 1102.68 557.584ZM1111.43 559V546.616H1113.35V548.632H1113.45C1113.59 548.312 1113.75 548.016 1113.93 547.744C1114.12 547.456 1114.35 547.208 1114.6 547C1114.87 546.792 1115.19 546.632 1115.54 546.52C1115.89 546.392 1116.31 546.328 1116.79 546.328C1117.6 546.328 1118.35 546.528 1119.04 546.928C1119.73 547.312 1120.24 547.952 1120.58 548.848H1120.63C1120.85 548.176 1121.27 547.592 1121.87 547.096C1122.5 546.584 1123.34 546.328 1124.39 546.328C1125.66 546.328 1126.64 546.744 1127.35 547.576C1128.07 548.392 1128.43 549.552 1128.43 551.056V559H1126.51V551.392C1126.51 550.288 1126.29 549.456 1125.86 548.896C1125.43 548.336 1124.74 548.056 1123.79 548.056C1123.41 548.056 1123.04 548.104 1122.69 548.2C1122.35 548.296 1122.05 548.44 1121.78 548.632C1121.51 548.824 1121.29 549.072 1121.13 549.376C1120.97 549.664 1120.89 550.008 1120.89 550.408V559H1118.97V551.392C1118.97 550.288 1118.75 549.456 1118.32 548.896C1117.89 548.336 1117.22 548.056 1116.31 548.056C1115.92 548.056 1115.55 548.104 1115.2 548.2C1114.85 548.296 1114.54 548.44 1114.27 548.632C1113.99 548.824 1113.77 549.072 1113.59 549.376C1113.43 549.664 1113.35 550.008 1113.35 550.408V559H1111.43ZM1133.61 559.288C1133.1 559.288 1132.72 559.16 1132.48 558.904C1132.26 558.648 1132.15 558.312 1132.15 557.896V557.584C1132.15 557.168 1132.26 556.832 1132.48 556.576C1132.72 556.32 1133.1 556.192 1133.61 556.192C1134.12 556.192 1134.49 556.32 1134.72 556.576C1134.96 556.832 1135.08 557.168 1135.08 557.584V557.896C1135.08 558.312 1134.96 558.648 1134.72 558.904C1134.49 559.16 1134.12 559.288 1133.61 559.288Z" fill="#1D1D1F"/>
<path d="M660.812 281.812C665.271 281.812 669.312 282.438 672.938 283.688C676.562 284.938 679.667 286.729 682.25 289.062C684.833 291.354 686.833 294.125 688.25 297.375C689.667 300.583 690.375 304.188 690.375 308.188C690.375 313.729 689.417 318.708 687.5 323.125C685.583 327.542 682.896 331.312 679.438 334.438C676.021 337.521 671.917 339.896 667.125 341.562C662.375 343.188 657.125 344 651.375 344H633.75L627.688 372H608.75L627.875 281.812H660.812ZM636.812 328.688H651.125C654.125 328.688 656.854 328.25 659.312 327.375C661.812 326.458 663.938 325.188 665.688 323.562C667.438 321.938 668.792 319.979 669.75 317.688C670.708 315.396 671.188 312.833 671.188 310C671.188 305.833 669.875 302.688 667.25 300.562C664.625 298.396 660.979 297.312 656.312 297.312H643.688L636.812 328.688ZM750.875 350.5H719.062L707.438 372H687.75L739 281.812H760.812L772.5 372H753.062L750.875 350.5ZM726.188 335.938H750L746.375 300.625H745.188L726.188 335.938ZM840.188 281.812C844.646 281.812 848.688 282.438 852.312 283.688C855.938 284.938 859.042 286.729 861.625 289.062C864.208 291.354 866.208 294.125 867.625 297.375C869.042 300.583 869.75 304.188 869.75 308.188C869.75 313.729 868.792 318.708 866.875 323.125C864.958 327.542 862.271 331.312 858.812 334.438C855.396 337.521 851.292 339.896 846.5 341.562C841.75 343.188 836.5 344 830.75 344H813.125L807.062 372H788.125L807.25 281.812H840.188ZM816.188 328.688H830.5C833.5 328.688 836.229 328.25 838.688 327.375C841.188 326.458 843.312 325.188 845.062 323.562C846.812 321.938 848.167 319.979 849.125 317.688C850.083 315.396 850.562 312.833 850.562 310C850.562 305.833 849.25 302.688 846.625 300.562C844 298.396 840.354 297.312 835.688 297.312H823.062L816.188 328.688ZM933.375 372H873.562L892.75 281.812H952.5L949.188 297.938H908.438L903.75 319H942.25L939.125 333.938H900.688L895.812 355.875H936.625L933.375 372ZM972.375 281.812H1008.06C1012.23 281.812 1016.04 282.438 1019.5 283.688C1022.96 284.938 1025.94 286.708 1028.44 289C1030.94 291.25 1032.88 293.938 1034.25 297.062C1035.62 300.188 1036.31 303.625 1036.31 307.375C1036.31 310.708 1035.79 313.917 1034.75 317C1033.71 320.083 1032.23 322.938 1030.31 325.562C1028.4 328.146 1026.04 330.438 1023.25 332.438C1020.5 334.438 1017.42 336 1014 337.125L1026.38 372H1006.06L995.312 339.312H979.188L972.188 372H953.188L972.375 281.812ZM982.125 324.812H998.625C1001.38 324.812 1003.88 324.438 1006.12 323.688C1008.42 322.896 1010.38 321.812 1012 320.438C1013.62 319.021 1014.88 317.354 1015.75 315.438C1016.62 313.521 1017.06 311.396 1017.06 309.062C1017.06 305.229 1015.9 302.271 1013.56 300.188C1011.23 298.104 1007.96 297.062 1003.75 297.062H988.25L982.125 324.812ZM721.188 465H662.188L681.375 374.812H700.312L684.5 448.562H724.562L721.188 465ZM798.25 465H738.438L757.625 374.812H817.375L814.062 390.938H773.312L768.625 412H807.125L804 426.938H765.562L760.688 448.875H801.5L798.25 465ZM836.75 439.25C837.083 441.208 837.792 442.979 838.875 444.562C839.958 446.104 841.312 447.438 842.938 448.562C844.604 449.646 846.5 450.5 848.625 451.125C850.75 451.708 853.042 452 855.5 452C858.042 452 860.354 451.729 862.438 451.188C864.562 450.604 866.375 449.792 867.875 448.75C869.375 447.708 870.542 446.458 871.375 445C872.208 443.542 872.625 441.938 872.625 440.188C872.625 438.896 872.375 437.708 871.875 436.625C871.375 435.542 870.583 434.542 869.5 433.625C868.458 432.667 867.062 431.792 865.312 431C863.604 430.167 861.542 429.375 859.125 428.625L849.75 425.688C846.417 424.646 843.438 423.333 840.812 421.75C838.229 420.125 836.042 418.271 834.25 416.188C832.5 414.104 831.146 411.792 830.188 409.25C829.271 406.708 828.812 403.979 828.812 401.062C828.812 396.938 829.708 393.125 831.5 389.625C833.292 386.125 835.771 383.125 838.938 380.625C842.104 378.083 845.854 376.104 850.188 374.688C854.521 373.229 859.229 372.5 864.312 372.5C869.271 372.5 873.812 373.188 877.938 374.562C882.104 375.938 885.688 377.854 888.688 380.312C891.688 382.771 894.062 385.708 895.812 389.125C897.562 392.542 898.5 396.312 898.625 400.438H880.812C880.521 398.562 879.896 396.854 878.938 395.312C877.979 393.729 876.75 392.396 875.25 391.312C873.75 390.188 872 389.333 870 388.75C868.042 388.125 865.896 387.812 863.562 387.812C861.354 387.812 859.292 388.083 857.375 388.625C855.5 389.167 853.854 389.938 852.438 390.938C851.062 391.896 849.979 393.062 849.188 394.438C848.396 395.771 848 397.229 848 398.812C848 401.312 848.938 403.5 850.812 405.375C852.729 407.25 855.833 408.854 860.125 410.188L869.375 413.062C873.208 414.271 876.521 415.667 879.312 417.25C882.104 418.792 884.417 420.562 886.25 422.562C888.083 424.562 889.438 426.812 890.312 429.312C891.188 431.771 891.625 434.521 891.625 437.562C891.625 442.021 890.708 446.083 888.875 449.75C887.083 453.417 884.542 456.562 881.25 459.188C877.958 461.771 874 463.771 869.375 465.188C864.792 466.604 859.708 467.312 854.125 467.312C849 467.312 844.312 466.667 840.062 465.375C835.812 464.083 832.125 462.25 829 459.875C825.917 457.458 823.458 454.521 821.625 451.062C819.833 447.562 818.792 443.625 818.5 439.25H836.75ZM921.875 439.25C922.208 441.208 922.917 442.979 924 444.562C925.083 446.104 926.438 447.438 928.062 448.562C929.729 449.646 931.625 450.5 933.75 451.125C935.875 451.708 938.167 452 940.625 452C943.167 452 945.479 451.729 947.562 451.188C949.688 450.604 951.5 449.792 953 448.75C954.5 447.708 955.667 446.458 956.5 445C957.333 443.542 957.75 441.938 957.75 440.188C957.75 438.896 957.5 437.708 957 436.625C956.5 435.542 955.708 434.542 954.625 433.625C953.583 432.667 952.188 431.792 950.438 431C948.729 430.167 946.667 429.375 944.25 428.625L934.875 425.688C931.542 424.646 928.562 423.333 925.938 421.75C923.354 420.125 921.167 418.271 919.375 416.188C917.625 414.104 916.271 411.792 915.312 409.25C914.396 406.708 913.938 403.979 913.938 401.062C913.938 396.938 914.833 393.125 916.625 389.625C918.417 386.125 920.896 383.125 924.062 380.625C927.229 378.083 930.979 376.104 935.312 374.688C939.646 373.229 944.354 372.5 949.438 372.5C954.396 372.5 958.938 373.188 963.062 374.562C967.229 375.938 970.812 377.854 973.812 380.312C976.812 382.771 979.188 385.708 980.938 389.125C982.688 392.542 983.625 396.312 983.75 400.438H965.938C965.646 398.562 965.021 396.854 964.062 395.312C963.104 393.729 961.875 392.396 960.375 391.312C958.875 390.188 957.125 389.333 955.125 388.75C953.167 388.125 951.021 387.812 948.688 387.812C946.479 387.812 944.417 388.083 942.5 388.625C940.625 389.167 938.979 389.938 937.562 390.938C936.188 391.896 935.104 393.062 934.312 394.438C933.521 395.771 933.125 397.229 933.125 398.812C933.125 401.312 934.062 403.5 935.938 405.375C937.854 407.25 940.958 408.854 945.25 410.188L954.5 413.062C958.333 414.271 961.646 415.667 964.438 417.25C967.229 418.792 969.542 420.562 971.375 422.562C973.208 424.562 974.562 426.812 975.438 429.312C976.312 431.771 976.75 434.521 976.75 437.562C976.75 442.021 975.833 446.083 974 449.75C972.208 453.417 969.667 456.562 966.375 459.188C963.083 461.771 959.125 463.771 954.5 465.188C949.917 466.604 944.833 467.312 939.25 467.312C934.125 467.312 929.438 466.667 925.188 465.375C920.938 464.083 917.25 462.25 914.125 459.875C911.042 457.458 908.583 454.521 906.75 451.062C904.958 447.562 903.917 443.625 903.625 439.25H921.875Z" fill="#006C6C"/>
<rect x="765" y="205" width="38" height="25" rx="6" fill="#006C6C"/>
<path d="M772.38 223V221.528H773.9V213.304H772.38V211.832H777.244V213.304H775.708V221.528H777.244V223H772.38ZM783.709 223.192C782.247 223.192 781.101 222.701 780.269 221.72C779.437 220.728 779.021 219.293 779.021 217.416C779.021 216.477 779.127 215.651 779.341 214.936C779.554 214.221 779.863 213.619 780.269 213.128C780.674 212.637 781.165 212.269 781.741 212.024C782.327 211.768 782.983 211.64 783.709 211.64C784.679 211.64 785.49 211.853 786.141 212.28C786.802 212.707 787.319 213.336 787.693 214.168L786.173 215C785.981 214.467 785.682 214.045 785.277 213.736C784.882 213.416 784.359 213.256 783.709 213.256C782.845 213.256 782.167 213.549 781.677 214.136C781.186 214.723 780.941 215.533 780.941 216.568V218.264C780.941 219.299 781.186 220.109 781.677 220.696C782.167 221.283 782.845 221.576 783.709 221.576C784.381 221.576 784.925 221.405 785.341 221.064C785.767 220.712 786.082 220.264 786.285 219.72L787.741 220.6C787.367 221.411 786.845 222.045 786.173 222.504C785.501 222.963 784.679 223.192 783.709 223.192ZM793.801 213.432V223H791.993V213.432H788.665V211.832H797.129V213.432H793.801Z" fill="white"/>
<rect x="803" y="205" width="69" height="25" rx="6" fill="#0035AD"/>
<path d="M818.225 214.456H818.145L817.265 216.264L814.817 220.728L812.369 216.264L811.489 214.456H811.409V223H809.681V211.832H811.825L814.817 217.512H814.913L817.905 211.832H819.953V223H818.225V214.456ZM828.68 223C828.221 223 827.869 222.872 827.624 222.616C827.379 222.349 827.229 222.013 827.176 221.608H827.096C826.936 222.131 826.643 222.525 826.216 222.792C825.789 223.059 825.272 223.192 824.664 223.192C823.8 223.192 823.133 222.968 822.664 222.52C822.205 222.072 821.976 221.469 821.976 220.712C821.976 219.88 822.275 219.256 822.872 218.84C823.48 218.424 824.365 218.216 825.528 218.216H827.032V217.512C827.032 217 826.893 216.605 826.616 216.328C826.339 216.051 825.907 215.912 825.32 215.912C824.829 215.912 824.429 216.019 824.12 216.232C823.811 216.445 823.549 216.717 823.336 217.048L822.296 216.104C822.573 215.635 822.963 215.251 823.464 214.952C823.965 214.643 824.621 214.488 825.432 214.488C826.509 214.488 827.336 214.739 827.912 215.24C828.488 215.741 828.776 216.461 828.776 217.4V221.576H829.656V223H828.68ZM825.16 221.864C825.704 221.864 826.152 221.747 826.504 221.512C826.856 221.267 827.032 220.941 827.032 220.536V219.336H825.56C824.355 219.336 823.752 219.709 823.752 220.456V220.744C823.752 221.117 823.875 221.4 824.12 221.592C824.376 221.773 824.723 221.864 825.16 221.864ZM831.365 211.16H833.109V216.056H833.189C833.371 215.608 833.643 215.235 834.005 214.936C834.379 214.637 834.885 214.488 835.525 214.488C836.379 214.488 837.04 214.771 837.509 215.336C837.989 215.891 838.229 216.685 838.229 217.72V223H836.485V217.928C836.485 216.637 835.963 215.992 834.917 215.992C834.693 215.992 834.469 216.024 834.245 216.088C834.032 216.141 833.84 216.227 833.669 216.344C833.499 216.461 833.36 216.611 833.253 216.792C833.157 216.973 833.109 217.181 833.109 217.416V223H831.365V211.16ZM841.526 213.192C841.164 213.192 840.897 213.107 840.726 212.936C840.566 212.765 840.486 212.547 840.486 212.28V212.008C840.486 211.741 840.566 211.523 840.726 211.352C840.897 211.181 841.164 211.096 841.526 211.096C841.889 211.096 842.15 211.181 842.31 211.352C842.47 211.523 842.55 211.741 842.55 212.008V212.28C842.55 212.547 842.47 212.765 842.31 212.936C842.15 213.107 841.889 213.192 841.526 213.192ZM840.646 214.68H842.39V223H840.646V214.68ZM850.113 221.624H850.033C849.851 222.115 849.553 222.499 849.137 222.776C848.731 223.053 848.251 223.192 847.697 223.192C846.641 223.192 845.825 222.813 845.249 222.056C844.673 221.288 844.385 220.216 844.385 218.84C844.385 217.464 844.673 216.397 845.249 215.64C845.825 214.872 846.641 214.488 847.697 214.488C848.251 214.488 848.731 214.627 849.137 214.904C849.553 215.171 849.851 215.555 850.033 216.056H850.113V211.16H851.857V223H850.113V221.624ZM848.225 221.688C848.758 221.688 849.206 221.56 849.569 221.304C849.931 221.037 850.113 220.691 850.113 220.264V217.416C850.113 216.989 849.931 216.648 849.569 216.392C849.206 216.125 848.758 215.992 848.225 215.992C847.617 215.992 847.131 216.189 846.769 216.584C846.406 216.968 846.225 217.48 846.225 218.12V219.56C846.225 220.2 846.406 220.717 846.769 221.112C847.131 221.496 847.617 221.688 848.225 221.688ZM857.614 223.192C857.038 223.192 856.51 223.091 856.03 222.888C855.56 222.685 855.16 222.397 854.83 222.024C854.499 221.64 854.243 221.181 854.062 220.648C853.88 220.104 853.79 219.501 853.79 218.84C853.79 218.179 853.88 217.581 854.062 217.048C854.243 216.504 854.499 216.045 854.83 215.672C855.16 215.288 855.56 214.995 856.03 214.792C856.51 214.589 857.038 214.488 857.614 214.488C858.19 214.488 858.712 214.589 859.182 214.792C859.662 214.995 860.067 215.288 860.398 215.672C860.728 216.045 860.984 216.504 861.166 217.048C861.347 217.581 861.438 218.179 861.438 218.84C861.438 219.501 861.347 220.104 861.166 220.648C860.984 221.181 860.728 221.64 860.398 222.024C860.067 222.397 859.662 222.685 859.182 222.888C858.712 223.091 858.19 223.192 857.614 223.192ZM857.614 221.752C858.211 221.752 858.691 221.571 859.054 221.208C859.416 220.835 859.598 220.28 859.598 219.544V218.136C859.598 217.4 859.416 216.851 859.054 216.488C858.691 216.115 858.211 215.928 857.614 215.928C857.016 215.928 856.536 216.115 856.174 216.488C855.811 216.851 855.63 217.4 855.63 218.136V219.544C855.63 220.28 855.811 220.835 856.174 221.208C856.536 221.571 857.016 221.752 857.614 221.752ZM865.157 223C864.559 223 864.111 222.851 863.813 222.552C863.525 222.243 863.381 221.816 863.381 221.272V211.16H865.125V221.576H866.277V223H865.157Z" fill="white"/>
</svg>
