<svg width="320" height="320" viewBox="0 0 320 320" fill="none" xmlns="http://www.w3.org/2000/svg">
<path d="M159.053 40.3888C156.908 40.3888 155.026 38.9654 154.502 36.8771L154.483 36.8022C154.137 35.4069 154.446 33.9179 155.335 32.7848C156.225 31.6517 157.583 30.9868 159.025 30.9868C160.467 30.9868 161.844 31.6517 162.733 32.7848C163.623 33.9179 163.951 35.4069 163.604 36.8022C163.08 38.8905 161.197 40.3888 159.053 40.3888Z" fill="black"/>
<path d="M159.062 35.6692L159.044 35.7442L159.025 35.6692H159.062ZM159.062 26.3047H159.025C156.141 26.3047 153.416 27.6345 151.646 29.91C149.866 32.1856 149.239 35.1448 149.941 37.9448L149.96 38.0197C150.999 42.187 154.745 45.1087 159.044 45.1087C163.342 45.1087 167.088 42.187 168.127 38.0197L168.146 37.9448C168.848 35.1448 168.221 32.1856 166.442 29.91C164.662 27.6345 161.947 26.3047 159.062 26.3047Z" fill="white"/>
<path d="M159.053 40.3888C156.908 40.3888 155.026 38.9654 154.502 36.8771L154.483 36.8022C154.137 35.4069 154.446 33.9179 155.335 32.7848C156.225 31.6517 157.583 30.9868 159.025 30.9868C160.467 30.9868 161.844 31.6517 162.733 32.7848C163.623 33.9179 163.951 35.4069 163.604 36.8022C163.08 38.8905 161.197 40.3888 159.053 40.3888Z" fill="black"/>
<path d="M159.062 35.6692L159.044 35.7442L159.025 35.6692H159.062ZM159.062 26.3047H159.025C156.141 26.3047 153.416 27.6345 151.646 29.91C149.866 32.1856 149.239 35.1448 149.941 37.9448L149.96 38.0197C150.999 42.187 154.745 45.1087 159.044 45.1087C163.342 45.1087 167.088 42.187 168.127 38.0197L168.146 37.9448C168.848 35.1448 168.221 32.1856 166.442 29.91C164.662 27.6345 161.947 26.3047 159.062 26.3047Z" fill="white"/>
<path d="M267.869 67.5083H51.1546C46.8671 67.5083 43.3914 70.984 43.3914 75.2715V198.34C43.3914 202.628 46.8671 206.104 51.1546 206.104H267.869C272.156 206.104 275.632 202.628 275.632 198.34V75.2715C275.632 70.984 272.156 67.5083 267.869 67.5083Z" fill="black"/>
<mask id="mask0_1019_45" style="mask-type:luminance" maskUnits="userSpaceOnUse" x="43" y="67" width="233" height="140">
<path d="M267.869 67.5083H51.1546C46.8671 67.5083 43.3914 70.984 43.3914 75.2715V198.34C43.3914 202.628 46.8671 206.104 51.1546 206.104H267.869C272.156 206.104 275.632 202.628 275.632 198.34V75.2715C275.632 70.984 272.156 67.5083 267.869 67.5083Z" fill="white"/>
</mask>
<g mask="url(#mask0_1019_45)">
<path d="M221.861 111.25C229.053 112.823 236.535 113.807 243.914 113.432C247.379 113.264 250.807 113.142 254.253 113.535L239.316 111.531C241.807 111.887 244.167 112.496 246.49 113.451L233.07 107.785C234.971 108.656 236.694 109.705 238.371 110.979L227.002 102.195C228.875 103.759 230.486 105.482 231.984 107.411L223.2 96.0421C224.942 98.4863 226.403 101.024 227.629 103.777L221.964 90.3578C222.713 92.4274 223.228 94.4502 223.593 96.6134C222.928 91.6314 222.254 86.6588 221.589 81.6769C222.891 92.3431 222.011 103.524 221.945 114.256C221.88 125.765 221.739 137.274 221.533 148.783C221.121 171.801 220.428 194.81 219.482 217.819C218.902 231.847 226.159 247.767 235.936 257.552C245.712 267.338 261.67 274.633 275.67 274.006C289.67 273.379 305.271 268.584 315.403 257.552C325.536 246.521 331.22 233.242 331.857 217.819C333.177 185.801 333.992 153.765 334.264 121.72C334.432 102.644 336.146 82.192 331.332 63.5565C329.862 57.8816 327.09 52.3471 324.665 47.0562C324.009 45.6234 323.335 44.2094 322.548 42.8421C318.868 36.493 314.102 30.3498 309.017 25.0682C304.466 20.3391 298.809 16.2843 293.359 12.6883C287.909 9.09229 281.157 6.68561 275.033 4.56922C268.468 2.303 261.033 1.8535 254.272 1.17925C252.258 0.982595 250.273 0.870221 248.25 0.898315C244.785 0.954502 241.274 1.46955 237.809 1.08561L252.745 3.08962C252.408 3.0428 252.071 2.98661 251.743 2.90233C237.022 -0.309712 221.702 0.804669 208.451 8.56788C196.792 15.3853 185.676 28.7485 182.633 42.1492C179.355 56.5331 180.067 72.6776 188.298 85.4415C195.987 97.3719 207.571 108.141 221.88 111.26L221.861 111.25Z" fill="white"/>
</g>
<path d="M270.8 59.5488C271.605 59.6518 277.439 60.4666 280.792 65.795C283.358 69.8779 282.843 74.0358 282.665 75.1595" fill="black"/>
<path d="M270.8 59.5488C271.605 59.6518 277.439 60.4666 280.792 65.795C283.358 69.8779 282.843 74.0358 282.665 75.1595" stroke="white" stroke-width="9.36455" stroke-linecap="square" stroke-linejoin="round"/>
<path d="M225.551 298.813C223.415 298.813 221.552 297.371 221.018 295.301L202.645 223.897H115.461L97.0877 295.301C96.5539 297.371 94.6904 298.813 92.5552 298.813H73.4235C71.972 298.813 70.6141 298.148 69.7245 296.996C68.8348 295.844 68.5258 294.365 68.891 292.96L86.6649 223.897H44.3372C33.493 223.897 24.6716 215.075 24.6716 204.231V69.3815C24.6716 58.5373 33.493 49.7159 44.3372 49.7159H131.493L135.407 34.4985C135.941 32.429 137.805 30.9868 139.94 30.9868H178.157C180.292 30.9868 182.155 32.429 182.689 34.4985L186.603 49.7159H275.623C286.467 49.7159 295.288 58.5373 295.288 69.3815V204.231C295.288 215.075 286.467 223.897 275.623 223.897H231.431L249.205 292.96C249.571 294.365 249.262 295.854 248.372 296.996C247.482 298.139 246.115 298.813 244.673 298.813H225.541H225.551Z" fill="black"/>
<path d="M178.157 35.6692L182.979 54.3983H275.632C283.873 54.3983 290.615 61.1408 290.615 69.3816V204.231C290.615 212.472 283.873 219.214 275.632 219.214H225.401L244.682 294.131H225.551L206.269 219.214H111.827L92.5459 294.131H73.4141L92.6957 219.214H44.3278C36.087 219.214 29.3445 212.472 29.3445 204.231V69.3816C29.3445 61.1408 36.087 54.3983 44.3278 54.3983H135.117L139.94 35.6692H159.025L159.044 35.7442L159.062 35.6692H178.157ZM178.157 26.3047H159.062C159.062 26.3047 159.053 26.3047 159.044 26.3047C159.044 26.3047 159.034 26.3047 159.025 26.3047H139.94C135.67 26.3047 131.933 29.1983 130.875 33.3375L127.86 45.0338H44.3278C30.899 45.0338 19.98 55.9528 19.98 69.3816V204.231C19.98 217.66 30.899 228.579 44.3278 228.579H80.6154L64.3492 291.799C63.6281 294.599 64.2462 297.586 66.0161 299.871C67.786 302.156 70.5204 303.495 73.4141 303.495H92.5459C96.8161 303.495 100.553 300.602 101.611 296.463L119.085 228.579H199.011L216.486 296.463C217.553 300.602 221.28 303.495 225.551 303.495H244.682C247.576 303.495 250.31 302.156 252.08 299.871C253.85 297.586 254.468 294.599 253.747 291.799L237.481 228.579H275.632C289.061 228.579 299.98 217.66 299.98 204.231V69.3816C299.98 55.9528 289.061 45.0338 275.632 45.0338H190.237L187.221 33.3375C186.154 29.1983 182.427 26.3047 178.157 26.3047Z" fill="white"/>
<path d="M93.4917 291.883H74.3693L140.886 33.4219H160.017L93.4917 291.883Z" fill="#FFA05F" stroke="black" stroke-width="3.27759" stroke-miterlimit="10"/>
<path d="M226.506 291.883H245.628L179.112 33.4219H159.98L226.506 291.883Z" fill="#FFA05F" stroke="black" stroke-width="3.27759" stroke-miterlimit="10"/>
<path d="M276.587 52.1509H45.283C37.0079 52.1509 30.2997 58.8591 30.2997 67.1342V201.984C30.2997 210.259 37.0079 216.967 45.283 216.967H276.587C284.862 216.967 291.571 210.259 291.571 201.984V67.1342C291.571 58.8591 284.862 52.1509 276.587 52.1509Z" fill="url(#paint0_linear_1019_45)" stroke="black" stroke-width="3.27759" stroke-miterlimit="10"/>
<path d="M268.824 65.2612H52.1098C47.8223 65.2612 44.3466 68.7369 44.3466 73.0244V196.093C44.3466 200.381 47.8223 203.857 52.1098 203.857H268.824C273.112 203.857 276.587 200.381 276.587 196.093V73.0244C276.587 68.7369 273.112 65.2612 268.824 65.2612Z" fill="#00846B"/>
<mask id="mask1_1019_45" style="mask-type:luminance" maskUnits="userSpaceOnUse" x="44" y="65" width="233" height="139">
<path d="M268.824 65.2612H52.1098C47.8223 65.2612 44.3466 68.7369 44.3466 73.0244V196.093C44.3466 200.381 47.8223 203.857 52.1098 203.857H268.824C273.112 203.857 276.587 200.381 276.587 196.093V73.0244C276.587 68.7369 273.112 65.2612 268.824 65.2612Z" fill="white"/>
</mask>
<g mask="url(#mask1_1019_45)">
<path d="M236.254 60.2418C244.13 61.9555 252.296 58.8371 259.993 62.0772C275.342 68.52 273.534 87.2398 273.506 100.8C273.422 139.063 272.57 177.327 270.997 215.562C270.697 222.792 281.934 222.782 282.234 215.562C283.564 183.236 284.379 150.891 284.65 118.536C284.716 110.754 284.734 102.982 284.753 95.1996C284.772 88.1481 285.287 80.8344 283.292 73.9702C280.249 63.4913 272.12 54.1455 261.632 50.7649C257.39 49.3976 252.801 49.1073 248.372 49.2197C246.602 49.2665 244.832 49.407 243.072 49.4725C242.201 49.5006 241.33 49.5381 240.459 49.51C240.169 49.51 239.869 49.4819 239.579 49.4632C238.595 49.3976 240.749 49.7254 239.241 49.3976C232.19 47.8618 229.184 58.6873 236.254 60.2324V60.2418Z" fill="white"/>
</g>
<path d="M268.824 65.2612H52.1098C47.8223 65.2612 44.3466 68.7369 44.3466 73.0244V196.093C44.3466 200.381 47.8223 203.857 52.1098 203.857H268.824C273.112 203.857 276.587 200.381 276.587 196.093V73.0244C276.587 68.7369 273.112 65.2612 268.824 65.2612Z" stroke="black" stroke-width="3.27759" stroke-miterlimit="10"/>
<path d="M249.224 212.285H78.2649C75.048 212.285 72.4402 214.892 72.4402 218.109V221.443C72.4402 224.66 75.048 227.268 78.2649 227.268H249.224C252.441 227.268 255.049 224.66 255.049 221.443V218.109C255.049 214.892 252.441 212.285 249.224 212.285Z" fill="#FFC95C"/>
<mask id="mask2_1019_45" style="mask-type:luminance" maskUnits="userSpaceOnUse" x="72" y="212" width="184" height="16">
<path d="M249.224 212.285H78.2649C75.048 212.285 72.4402 214.892 72.4402 218.109V221.443C72.4402 224.66 75.048 227.268 78.2649 227.268H249.224C252.441 227.268 255.049 224.66 255.049 221.443V218.109C255.049 214.892 252.441 212.285 249.224 212.285Z" fill="white"/>
</mask>
<g mask="url(#mask2_1019_45)">
<path d="M56.0522 214.157L270.5 214.466" stroke="white" stroke-width="3.27759" stroke-miterlimit="10"/>
</g>
<path d="M249.224 212.285H78.2649C75.048 212.285 72.4402 214.892 72.4402 218.109V221.443C72.4402 224.66 75.048 227.268 78.2649 227.268H249.224C252.441 227.268 255.049 224.66 255.049 221.443V218.109C255.049 214.892 252.441 212.285 249.224 212.285Z" stroke="black" stroke-width="2.84682" stroke-miterlimit="10"/>
<path d="M271.746 57.3013C272.551 57.4043 278.385 58.219 281.738 63.5474C284.304 67.6304 283.789 71.7882 283.611 72.912" stroke="white" stroke-width="3.74582" stroke-linecap="round" stroke-linejoin="round"/>
<path d="M47.6242 209.635C46.8188 209.532 40.9847 208.717 37.6322 203.388C35.0663 199.306 35.5814 195.148 35.7593 194.024" stroke="white" stroke-width="3.74582" stroke-linecap="round" stroke-linejoin="round"/>
<g filter="url(#filter0_d_1019_45)">
<mask id="path-25-outside-1_1019_45" maskUnits="userSpaceOnUse" x="72.603" y="88.3008" width="176" height="85" fill="black">
<rect fill="white" x="72.603" y="88.3008" width="176" height="85"/>
<path d="M111.425 92.3008C111.337 93.6762 111.257 95.037 111.184 96.3831C111.111 97.7293 111.015 99.0901 110.898 100.465L101.592 100.948L101.373 103.714H107.913L107.431 110.518L100.846 110.737L100.627 113.942H109.933C109.845 115.551 109.75 117.153 109.647 118.748C109.56 120.329 109.479 121.916 109.406 123.511L90.4866 123.95L91.1889 92.3008H111.425Z"/>
<path d="M135.436 93.0031L135.217 102.309L128.676 102.573L127.886 122.94L118.624 123.423L117.79 103.055L111.25 103.407L111.513 93.047L135.436 93.0031Z"/>
<path d="M162.74 123.072L151.766 123.599L151.678 114.337H146.63L146.323 123.95H136.49L137.324 93.0909L147.771 93.5738L147.113 109.333H151.985L152.029 92.8275L162.038 93.0909L162.74 123.072Z"/>
<path d="M176.282 93.047L174.746 122.94L165.483 123.423L164.606 93.6616L176.282 93.047Z"/>
<path d="M199.02 93.9688L198.23 103.231C197.806 103.114 197.389 103.033 196.979 102.99C196.569 102.946 196.152 102.924 195.728 102.924C194.689 102.924 193.694 103.055 192.743 103.319C191.807 103.582 190.973 103.985 190.241 104.526C189.524 105.067 188.946 105.755 188.507 106.589C188.083 107.408 187.871 108.381 187.871 109.508C187.871 110.328 187.988 111.045 188.222 111.659C188.47 112.259 188.814 112.764 189.253 113.173C189.707 113.569 190.248 113.869 190.877 114.073C191.521 114.278 192.231 114.381 193.006 114.381C193.548 114.381 194.104 114.329 194.675 114.227C195.245 114.11 195.816 113.956 196.386 113.766C196.957 113.576 197.506 113.356 198.033 113.108C198.559 112.859 199.05 112.596 199.503 112.318L199.152 122.633C198.581 122.926 197.967 123.189 197.308 123.423C196.65 123.643 195.969 123.833 195.267 123.994C194.579 124.17 193.884 124.301 193.182 124.389C192.494 124.477 191.836 124.521 191.207 124.521C189.129 124.521 187.234 124.133 185.522 123.357C183.825 122.582 182.362 121.528 181.132 120.197C179.918 118.851 178.974 117.292 178.301 115.522C177.628 113.751 177.292 111.864 177.292 109.859C177.292 107.46 177.628 105.221 178.301 103.143C178.989 101.065 179.991 99.2657 181.308 97.7439C182.64 96.2076 184.278 95.0077 186.224 94.1444C188.185 93.2665 190.431 92.8275 192.963 92.8275C193.972 92.8275 194.996 92.908 196.035 93.069C197.074 93.2299 198.069 93.5299 199.02 93.9688Z"/>
<path d="M223.624 112.713C223.624 114.717 223.273 116.451 222.571 117.914C221.883 119.363 220.932 120.563 219.717 121.514C218.518 122.45 217.106 123.145 215.481 123.599C213.872 124.038 212.138 124.257 210.28 124.257C209.563 124.257 208.773 124.162 207.909 123.972C207.061 123.782 206.197 123.548 205.319 123.27C204.441 122.977 203.593 122.67 202.773 122.348C201.969 122.011 201.252 121.697 200.622 121.404L201.588 112.8C202.832 113.547 204.207 114.117 205.714 114.512C207.236 114.893 208.729 115.083 210.192 115.083C210.47 115.083 210.806 115.076 211.201 115.061C211.597 115.032 211.97 114.966 212.321 114.863C212.687 114.746 212.994 114.578 213.243 114.359C213.491 114.139 213.616 113.825 213.616 113.415C213.616 113.137 213.528 112.903 213.352 112.713C213.177 112.508 212.95 112.347 212.672 112.23C212.394 112.098 212.079 112.003 211.728 111.944C211.377 111.871 211.033 111.82 210.697 111.791C210.36 111.761 210.046 111.747 209.753 111.747C209.46 111.747 209.226 111.747 209.051 111.747C207.792 111.747 206.644 111.549 205.605 111.154C204.58 110.759 203.695 110.203 202.949 109.486C202.217 108.755 201.647 107.877 201.237 106.852C200.827 105.814 200.622 104.665 200.622 103.407C200.622 101.68 200.966 100.136 201.654 98.7755C202.356 97.4001 203.286 96.2368 204.441 95.2857C205.612 94.32 206.951 93.5811 208.458 93.069C209.965 92.5568 211.523 92.3008 213.133 92.3008C213.85 92.3008 214.589 92.33 215.35 92.3886C216.111 92.4325 216.864 92.5203 217.61 92.652C218.371 92.7836 219.11 92.9519 219.827 93.1568C220.544 93.3616 221.224 93.6177 221.868 93.9249L221.034 102.836C220.039 102.499 218.993 102.221 217.896 102.002C216.813 101.768 215.752 101.651 214.713 101.651C214.523 101.651 214.274 101.658 213.967 101.673C213.674 101.673 213.36 101.695 213.023 101.738C212.701 101.768 212.372 101.819 212.036 101.892C211.699 101.965 211.399 102.068 211.136 102.199C210.872 102.316 210.66 102.477 210.499 102.682C210.338 102.887 210.265 103.129 210.28 103.407C210.294 103.728 210.411 103.977 210.631 104.153C210.865 104.328 211.158 104.46 211.509 104.548C211.875 104.621 212.27 104.658 212.694 104.658C213.133 104.658 213.565 104.65 213.989 104.636C214.413 104.606 214.808 104.584 215.174 104.57C215.54 104.541 215.84 104.533 216.074 104.548C217.245 104.621 218.298 104.87 219.234 105.294C220.171 105.718 220.961 106.282 221.605 106.984C222.263 107.686 222.761 108.528 223.097 109.508C223.449 110.474 223.624 111.542 223.624 112.713Z"/>
<path d="M100.605 157.274C100.605 159.278 100.254 161.034 99.5512 162.541C98.8635 164.034 97.9124 165.277 96.6979 166.272C95.4981 167.267 94.0861 168.014 92.4619 168.511C90.8524 169.009 89.1185 169.257 87.2602 169.257C86.5432 169.257 85.7531 169.162 84.8898 168.972C84.0412 168.782 83.1779 168.548 82.2999 168.27C81.422 167.977 80.5733 167.67 79.7539 167.348C78.9492 167.011 78.2322 166.697 77.603 166.404L78.5687 157.361C79.8125 158.108 81.1879 158.678 82.695 159.073C84.2167 159.454 85.7092 159.644 87.1724 159.644C87.4504 159.644 87.787 159.637 88.182 159.622C88.5771 159.593 88.9502 159.527 89.3014 159.425C89.6672 159.307 89.9745 159.139 90.2232 158.92C90.472 158.7 90.5963 158.386 90.5963 157.976C90.5963 157.698 90.5085 157.464 90.333 157.274C90.1574 157.069 89.9306 156.908 89.6526 156.791C89.3746 156.659 89.06 156.564 88.7088 156.505C88.3576 156.432 88.0138 156.381 87.6772 156.352C87.3407 156.323 87.0261 156.308 86.7335 156.308C86.4408 156.308 86.2067 156.308 86.0311 156.308C84.7728 156.308 83.6241 156.088 82.5853 155.649C81.561 155.21 80.6758 154.603 79.9295 153.828C79.1979 153.038 78.6273 152.108 78.2176 151.04C77.8079 149.958 77.603 148.787 77.603 147.529C77.603 145.802 77.9469 144.258 78.6346 142.898C79.3369 141.522 80.2661 140.359 81.422 139.408C82.5926 138.442 83.9314 137.703 85.4385 137.191C86.9456 136.679 88.5039 136.423 90.1135 136.423C90.8305 136.423 91.5694 136.452 92.3302 136.511C93.0911 136.555 93.8447 136.642 94.5909 136.774C95.3518 136.906 96.0907 137.074 96.8077 137.279C97.5246 137.484 98.205 137.74 98.8488 138.047L98.0148 146.958C97.0198 146.621 95.9736 146.343 94.8762 146.124C93.7935 145.89 92.7326 145.773 91.6937 145.773C91.5035 145.773 91.2548 145.78 90.9475 145.795C90.6549 145.795 90.3403 145.817 90.0037 145.861C89.6818 145.89 89.3526 145.941 89.0161 146.014C88.6795 146.087 88.3796 146.19 88.1162 146.321C87.8528 146.439 87.6407 146.599 87.4797 146.804C87.3187 147.009 87.2456 147.251 87.2602 147.529C87.2748 147.851 87.3919 148.114 87.6114 148.319C87.8455 148.509 88.1381 148.663 88.4893 148.78C88.8551 148.882 89.2502 148.955 89.6745 148.999C90.1135 149.043 90.5451 149.072 90.9695 149.087C91.3938 149.087 91.7889 149.087 92.1547 149.087C92.5205 149.072 92.8204 149.08 93.0545 149.109C94.2251 149.182 95.2786 149.431 96.2151 149.855C97.1515 150.279 97.9417 150.843 98.5855 151.545C99.2439 152.247 99.7414 153.089 100.078 154.069C100.429 155.035 100.605 156.103 100.605 157.274Z"/>
<path d="M126.504 151.216C126.504 152.489 126.416 153.762 126.24 155.035C123.738 155.196 121.251 155.459 118.778 155.825C116.305 156.176 113.832 156.527 111.359 156.879C111.74 157.932 112.332 158.773 113.137 159.403C113.956 160.032 114.93 160.346 116.056 160.346C116.641 160.346 117.278 160.237 117.966 160.017C118.668 159.798 119.363 159.527 120.051 159.205C120.738 158.869 121.397 158.51 122.026 158.13C122.655 157.749 123.197 157.405 123.65 157.098L122.597 167.062C122.026 167.501 121.404 167.875 120.731 168.182C120.073 168.489 119.385 168.738 118.668 168.928C117.951 169.118 117.227 169.257 116.495 169.345C115.764 169.433 115.047 169.477 114.344 169.477C112.896 169.477 111.571 169.279 110.372 168.884C109.172 168.489 108.082 167.94 107.101 167.238C106.136 166.521 105.287 165.68 104.555 164.714C103.824 163.748 103.217 162.695 102.734 161.553C102.251 160.412 101.885 159.205 101.636 157.932C101.388 156.659 101.263 155.371 101.263 154.069C101.263 152.708 101.388 151.348 101.636 149.987C101.885 148.626 102.258 147.316 102.756 146.058C103.268 144.8 103.904 143.636 104.665 142.568C105.441 141.486 106.34 140.542 107.365 139.737C108.389 138.932 109.545 138.303 110.833 137.849C112.135 137.396 113.569 137.169 115.134 137.169C116.437 137.169 117.622 137.352 118.69 137.718C119.773 138.069 120.731 138.566 121.565 139.21C122.414 139.839 123.145 140.593 123.76 141.471C124.389 142.349 124.901 143.315 125.296 144.368C125.706 145.407 126.006 146.512 126.196 147.682C126.401 148.838 126.504 150.016 126.504 151.216ZM117.724 150.075C117.724 149.665 117.68 149.248 117.593 148.824C117.505 148.385 117.358 147.99 117.154 147.638C116.963 147.287 116.707 147.002 116.385 146.782C116.064 146.548 115.661 146.431 115.178 146.431C114.593 146.431 114.074 146.592 113.62 146.914C113.181 147.221 112.801 147.616 112.479 148.099C112.157 148.568 111.893 149.08 111.689 149.636C111.484 150.192 111.33 150.704 111.228 151.172L117.724 150.557V150.075Z"/>
<path d="M150.449 157.713C150.449 159.717 150.098 161.451 149.395 162.914C148.708 164.363 147.757 165.563 146.542 166.514C145.342 167.45 143.93 168.145 142.306 168.599C140.697 169.038 138.963 169.257 137.104 169.257C136.388 169.257 135.597 169.162 134.734 168.972C133.885 168.782 133.022 168.548 132.144 168.27C131.266 167.977 130.418 167.67 129.598 167.348C128.793 167.011 128.076 166.697 127.447 166.404L128.413 157.8C129.657 158.547 131.032 159.117 132.539 159.512C134.061 159.893 135.553 160.083 137.017 160.083C137.295 160.083 137.631 160.076 138.026 160.061C138.421 160.032 138.794 159.966 139.146 159.863C139.511 159.746 139.819 159.578 140.067 159.359C140.316 159.139 140.441 158.825 140.441 158.415C140.441 158.137 140.353 157.903 140.177 157.713C140.002 157.508 139.775 157.347 139.497 157.23C139.219 157.098 138.904 157.003 138.553 156.944C138.202 156.871 137.858 156.82 137.522 156.791C137.185 156.761 136.87 156.747 136.578 156.747C136.285 156.747 136.051 156.747 135.875 156.747C134.617 156.747 133.468 156.549 132.43 156.154C131.405 155.759 130.52 155.203 129.774 154.486C129.042 153.755 128.472 152.877 128.062 151.852C127.652 150.814 127.447 149.665 127.447 148.407C127.447 146.68 127.791 145.136 128.479 143.775C129.181 142.4 130.11 141.237 131.266 140.286C132.437 139.32 133.776 138.581 135.283 138.069C136.79 137.557 138.348 137.301 139.958 137.301C140.675 137.301 141.414 137.33 142.175 137.389C142.935 137.432 143.689 137.52 144.435 137.652C145.196 137.784 145.935 137.952 146.652 138.157C147.369 138.362 148.049 138.618 148.693 138.925L147.859 147.836C146.864 147.499 145.818 147.221 144.721 147.002C143.638 146.768 142.577 146.651 141.538 146.651C141.348 146.651 141.099 146.658 140.792 146.673C140.499 146.673 140.185 146.695 139.848 146.738C139.526 146.768 139.197 146.819 138.86 146.892C138.524 146.965 138.224 147.068 137.96 147.199C137.697 147.316 137.485 147.477 137.324 147.682C137.163 147.887 137.09 148.129 137.104 148.407C137.119 148.728 137.236 148.977 137.456 149.153C137.69 149.328 137.982 149.46 138.334 149.548C138.699 149.621 139.094 149.658 139.519 149.658C139.958 149.658 140.389 149.65 140.814 149.636C141.238 149.606 141.633 149.584 141.999 149.57C142.365 149.541 142.665 149.533 142.899 149.548C144.069 149.621 145.123 149.87 146.059 150.294C146.996 150.718 147.786 151.282 148.43 151.984C149.088 152.686 149.586 153.528 149.922 154.508C150.273 155.474 150.449 156.542 150.449 157.713Z"/>
<path d="M174.153 157.713C174.153 159.717 173.802 161.451 173.099 162.914C172.412 164.363 171.461 165.563 170.246 166.514C169.046 167.45 167.634 168.145 166.01 168.599C164.401 169.038 162.667 169.257 160.809 169.257C160.092 169.257 159.301 169.162 158.438 168.972C157.589 168.782 156.726 168.548 155.848 168.27C154.97 167.977 154.122 167.67 153.302 167.348C152.497 167.011 151.78 166.697 151.151 166.404L152.117 157.8C153.361 158.547 154.736 159.117 156.243 159.512C157.765 159.893 159.258 160.083 160.721 160.083C160.999 160.083 161.335 160.076 161.73 160.061C162.125 160.032 162.499 159.966 162.85 159.863C163.215 159.746 163.523 159.578 163.772 159.359C164.02 159.139 164.145 158.825 164.145 158.415C164.145 158.137 164.057 157.903 163.881 157.713C163.706 157.508 163.479 157.347 163.201 157.23C162.923 157.098 162.608 157.003 162.257 156.944C161.906 156.871 161.562 156.82 161.226 156.791C160.889 156.761 160.574 156.747 160.282 156.747C159.989 156.747 159.755 156.747 159.579 156.747C158.321 156.747 157.172 156.549 156.134 156.154C155.109 155.759 154.224 155.203 153.478 154.486C152.746 153.755 152.176 152.877 151.766 151.852C151.356 150.814 151.151 149.665 151.151 148.407C151.151 146.68 151.495 145.136 152.183 143.775C152.885 142.4 153.814 141.237 154.97 140.286C156.141 139.32 157.48 138.581 158.987 138.069C160.494 137.557 162.052 137.301 163.662 137.301C164.379 137.301 165.118 137.33 165.879 137.389C166.639 137.432 167.393 137.52 168.139 137.652C168.9 137.784 169.639 137.952 170.356 138.157C171.073 138.362 171.753 138.618 172.397 138.925L171.563 147.836C170.568 147.499 169.522 147.221 168.425 147.002C167.342 146.768 166.281 146.651 165.242 146.651C165.052 146.651 164.803 146.658 164.496 146.673C164.203 146.673 163.889 146.695 163.552 146.738C163.23 146.768 162.901 146.819 162.564 146.892C162.228 146.965 161.928 147.068 161.664 147.199C161.401 147.316 161.189 147.477 161.028 147.682C160.867 147.887 160.794 148.129 160.809 148.407C160.823 148.728 160.94 148.977 161.16 149.153C161.394 149.328 161.686 149.46 162.038 149.548C162.403 149.621 162.798 149.658 163.223 149.658C163.662 149.658 164.093 149.65 164.518 149.636C164.942 149.606 165.337 149.584 165.703 149.57C166.069 149.541 166.369 149.533 166.603 149.548C167.773 149.621 168.827 149.87 169.763 150.294C170.7 150.718 171.49 151.282 172.134 151.984C172.792 152.686 173.29 153.528 173.626 154.508C173.977 155.474 174.153 156.542 174.153 157.713Z"/>
<path d="M187.037 138.047L185.5 167.94L176.238 168.423L175.36 138.662L187.037 138.047Z"/>
<path d="M215.745 152.138C215.745 153.469 215.591 154.757 215.284 156.001C214.977 157.23 214.53 158.386 213.945 159.468C213.374 160.551 212.672 161.546 211.838 162.453C211.019 163.346 210.089 164.114 209.051 164.758C208.026 165.402 206.907 165.907 205.692 166.272C204.478 166.624 203.19 166.799 201.83 166.799C200.513 166.799 199.254 166.631 198.055 166.294C196.869 165.958 195.757 165.49 194.718 164.89C193.68 164.275 192.736 163.543 191.887 162.695C191.053 161.832 190.336 160.88 189.736 159.842C189.151 158.788 188.69 157.661 188.353 156.462C188.032 155.262 187.871 154.011 187.871 152.708C187.871 151.435 188.024 150.192 188.331 148.977C188.639 147.748 189.078 146.592 189.648 145.509C190.234 144.427 190.936 143.432 191.755 142.524C192.575 141.617 193.489 140.834 194.499 140.176C195.523 139.518 196.628 139.005 197.813 138.64C198.998 138.274 200.249 138.091 201.566 138.091C203.688 138.091 205.619 138.42 207.361 139.079C209.116 139.737 210.609 140.681 211.838 141.91C213.082 143.124 214.04 144.602 214.713 146.343C215.401 148.07 215.745 150.001 215.745 152.138ZM206 152.708C206 152.079 205.905 151.472 205.714 150.887C205.539 150.287 205.275 149.76 204.924 149.306C204.573 148.838 204.134 148.465 203.607 148.187C203.095 147.894 202.503 147.748 201.83 147.748C201.142 147.748 200.527 147.872 199.986 148.121C199.445 148.37 198.976 148.714 198.581 149.153C198.201 149.577 197.908 150.082 197.703 150.667C197.499 151.238 197.396 151.845 197.396 152.489C197.396 153.103 197.484 153.718 197.659 154.333C197.835 154.947 198.098 155.503 198.45 156.001C198.801 156.498 199.232 156.9 199.745 157.208C200.271 157.515 200.879 157.669 201.566 157.669C202.254 157.669 202.868 157.537 203.41 157.274C203.966 156.996 204.434 156.63 204.815 156.176C205.195 155.708 205.488 155.174 205.692 154.574C205.897 153.974 206 153.352 206 152.708Z"/>
<path d="M244.255 157.844C244.255 159.498 244.233 161.136 244.19 162.761C244.16 164.37 244.109 165.994 244.036 167.633L231.394 167.414C231.833 164.824 232.213 162.241 232.535 159.666C232.857 157.076 233.018 154.464 233.018 151.83C233.018 151.64 233.011 151.333 232.996 150.909C232.981 150.484 232.952 150.009 232.908 149.482C232.864 148.941 232.798 148.392 232.711 147.836C232.638 147.265 232.528 146.746 232.381 146.278C232.25 145.809 232.081 145.429 231.877 145.136C231.686 144.829 231.452 144.675 231.174 144.675C230.677 144.675 230.252 144.822 229.901 145.114C229.565 145.407 229.279 145.787 229.045 146.256C228.826 146.709 228.65 147.221 228.519 147.792C228.387 148.363 228.284 148.933 228.211 149.504C228.153 150.075 228.109 150.616 228.08 151.128C228.065 151.626 228.058 152.035 228.058 152.357C227.985 154.947 227.926 157.522 227.882 160.083C227.838 162.629 227.78 165.204 227.706 167.809L216.513 168.292C216.806 163.126 217.084 157.991 217.347 152.884C217.625 147.777 217.844 142.642 218.005 137.476L228.365 136.95L228.277 140.461C228.687 139.964 229.126 139.496 229.594 139.057C230.077 138.618 230.589 138.245 231.13 137.937C231.672 137.615 232.242 137.367 232.842 137.191C233.457 137.001 234.101 136.906 234.774 136.906C236.018 136.906 237.108 137.111 238.044 137.52C238.981 137.93 239.785 138.486 240.458 139.188C241.131 139.891 241.695 140.725 242.148 141.69C242.602 142.642 242.968 143.658 243.246 144.741C243.524 145.824 243.736 146.958 243.882 148.143C244.029 149.314 244.124 150.47 244.168 151.611C244.226 152.752 244.255 153.857 244.255 154.925C244.255 155.993 244.255 156.966 244.255 157.844Z"/>
</mask>
<path d="M111.425 92.3008C111.337 93.6762 111.257 95.037 111.184 96.3831C111.111 97.7293 111.015 99.0901 110.898 100.465L101.592 100.948L101.373 103.714H107.913L107.431 110.518L100.846 110.737L100.627 113.942H109.933C109.845 115.551 109.75 117.153 109.647 118.748C109.56 120.329 109.479 121.916 109.406 123.511L90.4866 123.95L91.1889 92.3008H111.425Z" fill="white"/>
<path d="M135.436 93.0031L135.217 102.309L128.676 102.573L127.886 122.94L118.624 123.423L117.79 103.055L111.25 103.407L111.513 93.047L135.436 93.0031Z" fill="white"/>
<path d="M162.74 123.072L151.766 123.599L151.678 114.337H146.63L146.323 123.95H136.49L137.324 93.0909L147.771 93.5738L147.113 109.333H151.985L152.029 92.8275L162.038 93.0909L162.74 123.072Z" fill="white"/>
<path d="M176.282 93.047L174.746 122.94L165.483 123.423L164.606 93.6616L176.282 93.047Z" fill="white"/>
<path d="M199.02 93.9688L198.23 103.231C197.806 103.114 197.389 103.033 196.979 102.99C196.569 102.946 196.152 102.924 195.728 102.924C194.689 102.924 193.694 103.055 192.743 103.319C191.807 103.582 190.973 103.985 190.241 104.526C189.524 105.067 188.946 105.755 188.507 106.589C188.083 107.408 187.871 108.381 187.871 109.508C187.871 110.328 187.988 111.045 188.222 111.659C188.47 112.259 188.814 112.764 189.253 113.173C189.707 113.569 190.248 113.869 190.877 114.073C191.521 114.278 192.231 114.381 193.006 114.381C193.548 114.381 194.104 114.329 194.675 114.227C195.245 114.11 195.816 113.956 196.386 113.766C196.957 113.576 197.506 113.356 198.033 113.108C198.559 112.859 199.05 112.596 199.503 112.318L199.152 122.633C198.581 122.926 197.967 123.189 197.308 123.423C196.65 123.643 195.969 123.833 195.267 123.994C194.579 124.17 193.884 124.301 193.182 124.389C192.494 124.477 191.836 124.521 191.207 124.521C189.129 124.521 187.234 124.133 185.522 123.357C183.825 122.582 182.362 121.528 181.132 120.197C179.918 118.851 178.974 117.292 178.301 115.522C177.628 113.751 177.292 111.864 177.292 109.859C177.292 107.46 177.628 105.221 178.301 103.143C178.989 101.065 179.991 99.2657 181.308 97.7439C182.64 96.2076 184.278 95.0077 186.224 94.1444C188.185 93.2665 190.431 92.8275 192.963 92.8275C193.972 92.8275 194.996 92.908 196.035 93.069C197.074 93.2299 198.069 93.5299 199.02 93.9688Z" fill="white"/>
<path d="M223.624 112.713C223.624 114.717 223.273 116.451 222.571 117.914C221.883 119.363 220.932 120.563 219.717 121.514C218.518 122.45 217.106 123.145 215.481 123.599C213.872 124.038 212.138 124.257 210.28 124.257C209.563 124.257 208.773 124.162 207.909 123.972C207.061 123.782 206.197 123.548 205.319 123.27C204.441 122.977 203.593 122.67 202.773 122.348C201.969 122.011 201.252 121.697 200.622 121.404L201.588 112.8C202.832 113.547 204.207 114.117 205.714 114.512C207.236 114.893 208.729 115.083 210.192 115.083C210.47 115.083 210.806 115.076 211.201 115.061C211.597 115.032 211.97 114.966 212.321 114.863C212.687 114.746 212.994 114.578 213.243 114.359C213.491 114.139 213.616 113.825 213.616 113.415C213.616 113.137 213.528 112.903 213.352 112.713C213.177 112.508 212.95 112.347 212.672 112.23C212.394 112.098 212.079 112.003 211.728 111.944C211.377 111.871 211.033 111.82 210.697 111.791C210.36 111.761 210.046 111.747 209.753 111.747C209.46 111.747 209.226 111.747 209.051 111.747C207.792 111.747 206.644 111.549 205.605 111.154C204.58 110.759 203.695 110.203 202.949 109.486C202.217 108.755 201.647 107.877 201.237 106.852C200.827 105.814 200.622 104.665 200.622 103.407C200.622 101.68 200.966 100.136 201.654 98.7755C202.356 97.4001 203.286 96.2368 204.441 95.2857C205.612 94.32 206.951 93.5811 208.458 93.069C209.965 92.5568 211.523 92.3008 213.133 92.3008C213.85 92.3008 214.589 92.33 215.35 92.3886C216.111 92.4325 216.864 92.5203 217.61 92.652C218.371 92.7836 219.11 92.9519 219.827 93.1568C220.544 93.3616 221.224 93.6177 221.868 93.9249L221.034 102.836C220.039 102.499 218.993 102.221 217.896 102.002C216.813 101.768 215.752 101.651 214.713 101.651C214.523 101.651 214.274 101.658 213.967 101.673C213.674 101.673 213.36 101.695 213.023 101.738C212.701 101.768 212.372 101.819 212.036 101.892C211.699 101.965 211.399 102.068 211.136 102.199C210.872 102.316 210.66 102.477 210.499 102.682C210.338 102.887 210.265 103.129 210.28 103.407C210.294 103.728 210.411 103.977 210.631 104.153C210.865 104.328 211.158 104.46 211.509 104.548C211.875 104.621 212.27 104.658 212.694 104.658C213.133 104.658 213.565 104.65 213.989 104.636C214.413 104.606 214.808 104.584 215.174 104.57C215.54 104.541 215.84 104.533 216.074 104.548C217.245 104.621 218.298 104.87 219.234 105.294C220.171 105.718 220.961 106.282 221.605 106.984C222.263 107.686 222.761 108.528 223.097 109.508C223.449 110.474 223.624 111.542 223.624 112.713Z" fill="white"/>
<path d="M100.605 157.274C100.605 159.278 100.254 161.034 99.5512 162.541C98.8635 164.034 97.9124 165.277 96.6979 166.272C95.4981 167.267 94.0861 168.014 92.4619 168.511C90.8524 169.009 89.1185 169.257 87.2602 169.257C86.5432 169.257 85.7531 169.162 84.8898 168.972C84.0412 168.782 83.1779 168.548 82.2999 168.27C81.422 167.977 80.5733 167.67 79.7539 167.348C78.9492 167.011 78.2322 166.697 77.603 166.404L78.5687 157.361C79.8125 158.108 81.1879 158.678 82.695 159.073C84.2167 159.454 85.7092 159.644 87.1724 159.644C87.4504 159.644 87.787 159.637 88.182 159.622C88.5771 159.593 88.9502 159.527 89.3014 159.425C89.6672 159.307 89.9745 159.139 90.2232 158.92C90.472 158.7 90.5963 158.386 90.5963 157.976C90.5963 157.698 90.5085 157.464 90.333 157.274C90.1574 157.069 89.9306 156.908 89.6526 156.791C89.3746 156.659 89.06 156.564 88.7088 156.505C88.3576 156.432 88.0138 156.381 87.6772 156.352C87.3407 156.323 87.0261 156.308 86.7335 156.308C86.4408 156.308 86.2067 156.308 86.0311 156.308C84.7728 156.308 83.6241 156.088 82.5853 155.649C81.561 155.21 80.6758 154.603 79.9295 153.828C79.1979 153.038 78.6273 152.108 78.2176 151.04C77.8079 149.958 77.603 148.787 77.603 147.529C77.603 145.802 77.9469 144.258 78.6346 142.898C79.3369 141.522 80.2661 140.359 81.422 139.408C82.5926 138.442 83.9314 137.703 85.4385 137.191C86.9456 136.679 88.5039 136.423 90.1135 136.423C90.8305 136.423 91.5694 136.452 92.3302 136.511C93.0911 136.555 93.8447 136.642 94.5909 136.774C95.3518 136.906 96.0907 137.074 96.8077 137.279C97.5246 137.484 98.205 137.74 98.8488 138.047L98.0148 146.958C97.0198 146.621 95.9736 146.343 94.8762 146.124C93.7935 145.89 92.7326 145.773 91.6937 145.773C91.5035 145.773 91.2548 145.78 90.9475 145.795C90.6549 145.795 90.3403 145.817 90.0037 145.861C89.6818 145.89 89.3526 145.941 89.0161 146.014C88.6795 146.087 88.3796 146.19 88.1162 146.321C87.8528 146.439 87.6407 146.599 87.4797 146.804C87.3187 147.009 87.2456 147.251 87.2602 147.529C87.2748 147.851 87.3919 148.114 87.6114 148.319C87.8455 148.509 88.1381 148.663 88.4893 148.78C88.8551 148.882 89.2502 148.955 89.6745 148.999C90.1135 149.043 90.5451 149.072 90.9695 149.087C91.3938 149.087 91.7889 149.087 92.1547 149.087C92.5205 149.072 92.8204 149.08 93.0545 149.109C94.2251 149.182 95.2786 149.431 96.2151 149.855C97.1515 150.279 97.9417 150.843 98.5855 151.545C99.2439 152.247 99.7414 153.089 100.078 154.069C100.429 155.035 100.605 156.103 100.605 157.274Z" fill="white"/>
<path d="M126.504 151.216C126.504 152.489 126.416 153.762 126.24 155.035C123.738 155.196 121.251 155.459 118.778 155.825C116.305 156.176 113.832 156.527 111.359 156.879C111.74 157.932 112.332 158.773 113.137 159.403C113.956 160.032 114.93 160.346 116.056 160.346C116.641 160.346 117.278 160.237 117.966 160.017C118.668 159.798 119.363 159.527 120.051 159.205C120.738 158.869 121.397 158.51 122.026 158.13C122.655 157.749 123.197 157.405 123.65 157.098L122.597 167.062C122.026 167.501 121.404 167.875 120.731 168.182C120.073 168.489 119.385 168.738 118.668 168.928C117.951 169.118 117.227 169.257 116.495 169.345C115.764 169.433 115.047 169.477 114.344 169.477C112.896 169.477 111.571 169.279 110.372 168.884C109.172 168.489 108.082 167.94 107.101 167.238C106.136 166.521 105.287 165.68 104.555 164.714C103.824 163.748 103.217 162.695 102.734 161.553C102.251 160.412 101.885 159.205 101.636 157.932C101.388 156.659 101.263 155.371 101.263 154.069C101.263 152.708 101.388 151.348 101.636 149.987C101.885 148.626 102.258 147.316 102.756 146.058C103.268 144.8 103.904 143.636 104.665 142.568C105.441 141.486 106.34 140.542 107.365 139.737C108.389 138.932 109.545 138.303 110.833 137.849C112.135 137.396 113.569 137.169 115.134 137.169C116.437 137.169 117.622 137.352 118.69 137.718C119.773 138.069 120.731 138.566 121.565 139.21C122.414 139.839 123.145 140.593 123.76 141.471C124.389 142.349 124.901 143.315 125.296 144.368C125.706 145.407 126.006 146.512 126.196 147.682C126.401 148.838 126.504 150.016 126.504 151.216ZM117.724 150.075C117.724 149.665 117.68 149.248 117.593 148.824C117.505 148.385 117.358 147.99 117.154 147.638C116.963 147.287 116.707 147.002 116.385 146.782C116.064 146.548 115.661 146.431 115.178 146.431C114.593 146.431 114.074 146.592 113.62 146.914C113.181 147.221 112.801 147.616 112.479 148.099C112.157 148.568 111.893 149.08 111.689 149.636C111.484 150.192 111.33 150.704 111.228 151.172L117.724 150.557V150.075Z" fill="white"/>
<path d="M150.449 157.713C150.449 159.717 150.098 161.451 149.395 162.914C148.708 164.363 147.757 165.563 146.542 166.514C145.342 167.45 143.93 168.145 142.306 168.599C140.697 169.038 138.963 169.257 137.104 169.257C136.388 169.257 135.597 169.162 134.734 168.972C133.885 168.782 133.022 168.548 132.144 168.27C131.266 167.977 130.418 167.67 129.598 167.348C128.793 167.011 128.076 166.697 127.447 166.404L128.413 157.8C129.657 158.547 131.032 159.117 132.539 159.512C134.061 159.893 135.553 160.083 137.017 160.083C137.295 160.083 137.631 160.076 138.026 160.061C138.421 160.032 138.794 159.966 139.146 159.863C139.511 159.746 139.819 159.578 140.067 159.359C140.316 159.139 140.441 158.825 140.441 158.415C140.441 158.137 140.353 157.903 140.177 157.713C140.002 157.508 139.775 157.347 139.497 157.23C139.219 157.098 138.904 157.003 138.553 156.944C138.202 156.871 137.858 156.82 137.522 156.791C137.185 156.761 136.87 156.747 136.578 156.747C136.285 156.747 136.051 156.747 135.875 156.747C134.617 156.747 133.468 156.549 132.43 156.154C131.405 155.759 130.52 155.203 129.774 154.486C129.042 153.755 128.472 152.877 128.062 151.852C127.652 150.814 127.447 149.665 127.447 148.407C127.447 146.68 127.791 145.136 128.479 143.775C129.181 142.4 130.11 141.237 131.266 140.286C132.437 139.32 133.776 138.581 135.283 138.069C136.79 137.557 138.348 137.301 139.958 137.301C140.675 137.301 141.414 137.33 142.175 137.389C142.935 137.432 143.689 137.52 144.435 137.652C145.196 137.784 145.935 137.952 146.652 138.157C147.369 138.362 148.049 138.618 148.693 138.925L147.859 147.836C146.864 147.499 145.818 147.221 144.721 147.002C143.638 146.768 142.577 146.651 141.538 146.651C141.348 146.651 141.099 146.658 140.792 146.673C140.499 146.673 140.185 146.695 139.848 146.738C139.526 146.768 139.197 146.819 138.86 146.892C138.524 146.965 138.224 147.068 137.96 147.199C137.697 147.316 137.485 147.477 137.324 147.682C137.163 147.887 137.09 148.129 137.104 148.407C137.119 148.728 137.236 148.977 137.456 149.153C137.69 149.328 137.982 149.46 138.334 149.548C138.699 149.621 139.094 149.658 139.519 149.658C139.958 149.658 140.389 149.65 140.814 149.636C141.238 149.606 141.633 149.584 141.999 149.57C142.365 149.541 142.665 149.533 142.899 149.548C144.069 149.621 145.123 149.87 146.059 150.294C146.996 150.718 147.786 151.282 148.43 151.984C149.088 152.686 149.586 153.528 149.922 154.508C150.273 155.474 150.449 156.542 150.449 157.713Z" fill="white"/>
<path d="M174.153 157.713C174.153 159.717 173.802 161.451 173.099 162.914C172.412 164.363 171.461 165.563 170.246 166.514C169.046 167.45 167.634 168.145 166.01 168.599C164.401 169.038 162.667 169.257 160.809 169.257C160.092 169.257 159.301 169.162 158.438 168.972C157.589 168.782 156.726 168.548 155.848 168.27C154.97 167.977 154.122 167.67 153.302 167.348C152.497 167.011 151.78 166.697 151.151 166.404L152.117 157.8C153.361 158.547 154.736 159.117 156.243 159.512C157.765 159.893 159.258 160.083 160.721 160.083C160.999 160.083 161.335 160.076 161.73 160.061C162.125 160.032 162.499 159.966 162.85 159.863C163.215 159.746 163.523 159.578 163.772 159.359C164.02 159.139 164.145 158.825 164.145 158.415C164.145 158.137 164.057 157.903 163.881 157.713C163.706 157.508 163.479 157.347 163.201 157.23C162.923 157.098 162.608 157.003 162.257 156.944C161.906 156.871 161.562 156.82 161.226 156.791C160.889 156.761 160.574 156.747 160.282 156.747C159.989 156.747 159.755 156.747 159.579 156.747C158.321 156.747 157.172 156.549 156.134 156.154C155.109 155.759 154.224 155.203 153.478 154.486C152.746 153.755 152.176 152.877 151.766 151.852C151.356 150.814 151.151 149.665 151.151 148.407C151.151 146.68 151.495 145.136 152.183 143.775C152.885 142.4 153.814 141.237 154.97 140.286C156.141 139.32 157.48 138.581 158.987 138.069C160.494 137.557 162.052 137.301 163.662 137.301C164.379 137.301 165.118 137.33 165.879 137.389C166.639 137.432 167.393 137.52 168.139 137.652C168.9 137.784 169.639 137.952 170.356 138.157C171.073 138.362 171.753 138.618 172.397 138.925L171.563 147.836C170.568 147.499 169.522 147.221 168.425 147.002C167.342 146.768 166.281 146.651 165.242 146.651C165.052 146.651 164.803 146.658 164.496 146.673C164.203 146.673 163.889 146.695 163.552 146.738C163.23 146.768 162.901 146.819 162.564 146.892C162.228 146.965 161.928 147.068 161.664 147.199C161.401 147.316 161.189 147.477 161.028 147.682C160.867 147.887 160.794 148.129 160.809 148.407C160.823 148.728 160.94 148.977 161.16 149.153C161.394 149.328 161.686 149.46 162.038 149.548C162.403 149.621 162.798 149.658 163.223 149.658C163.662 149.658 164.093 149.65 164.518 149.636C164.942 149.606 165.337 149.584 165.703 149.57C166.069 149.541 166.369 149.533 166.603 149.548C167.773 149.621 168.827 149.87 169.763 150.294C170.7 150.718 171.49 151.282 172.134 151.984C172.792 152.686 173.29 153.528 173.626 154.508C173.977 155.474 174.153 156.542 174.153 157.713Z" fill="white"/>
<path d="M187.037 138.047L185.5 167.94L176.238 168.423L175.36 138.662L187.037 138.047Z" fill="white"/>
<path d="M215.745 152.138C215.745 153.469 215.591 154.757 215.284 156.001C214.977 157.23 214.53 158.386 213.945 159.468C213.374 160.551 212.672 161.546 211.838 162.453C211.019 163.346 210.089 164.114 209.051 164.758C208.026 165.402 206.907 165.907 205.692 166.272C204.478 166.624 203.19 166.799 201.83 166.799C200.513 166.799 199.254 166.631 198.055 166.294C196.869 165.958 195.757 165.49 194.718 164.89C193.68 164.275 192.736 163.543 191.887 162.695C191.053 161.832 190.336 160.88 189.736 159.842C189.151 158.788 188.69 157.661 188.353 156.462C188.032 155.262 187.871 154.011 187.871 152.708C187.871 151.435 188.024 150.192 188.331 148.977C188.639 147.748 189.078 146.592 189.648 145.509C190.234 144.427 190.936 143.432 191.755 142.524C192.575 141.617 193.489 140.834 194.499 140.176C195.523 139.518 196.628 139.005 197.813 138.64C198.998 138.274 200.249 138.091 201.566 138.091C203.688 138.091 205.619 138.42 207.361 139.079C209.116 139.737 210.609 140.681 211.838 141.91C213.082 143.124 214.04 144.602 214.713 146.343C215.401 148.07 215.745 150.001 215.745 152.138ZM206 152.708C206 152.079 205.905 151.472 205.714 150.887C205.539 150.287 205.275 149.76 204.924 149.306C204.573 148.838 204.134 148.465 203.607 148.187C203.095 147.894 202.503 147.748 201.83 147.748C201.142 147.748 200.527 147.872 199.986 148.121C199.445 148.37 198.976 148.714 198.581 149.153C198.201 149.577 197.908 150.082 197.703 150.667C197.499 151.238 197.396 151.845 197.396 152.489C197.396 153.103 197.484 153.718 197.659 154.333C197.835 154.947 198.098 155.503 198.45 156.001C198.801 156.498 199.232 156.9 199.745 157.208C200.271 157.515 200.879 157.669 201.566 157.669C202.254 157.669 202.868 157.537 203.41 157.274C203.966 156.996 204.434 156.63 204.815 156.176C205.195 155.708 205.488 155.174 205.692 154.574C205.897 153.974 206 153.352 206 152.708Z" fill="white"/>
<path d="M244.255 157.844C244.255 159.498 244.233 161.136 244.19 162.761C244.16 164.37 244.109 165.994 244.036 167.633L231.394 167.414C231.833 164.824 232.213 162.241 232.535 159.666C232.857 157.076 233.018 154.464 233.018 151.83C233.018 151.64 233.011 151.333 232.996 150.909C232.981 150.484 232.952 150.009 232.908 149.482C232.864 148.941 232.798 148.392 232.711 147.836C232.638 147.265 232.528 146.746 232.381 146.278C232.25 145.809 232.081 145.429 231.877 145.136C231.686 144.829 231.452 144.675 231.174 144.675C230.677 144.675 230.252 144.822 229.901 145.114C229.565 145.407 229.279 145.787 229.045 146.256C228.826 146.709 228.65 147.221 228.519 147.792C228.387 148.363 228.284 148.933 228.211 149.504C228.153 150.075 228.109 150.616 228.08 151.128C228.065 151.626 228.058 152.035 228.058 152.357C227.985 154.947 227.926 157.522 227.882 160.083C227.838 162.629 227.78 165.204 227.706 167.809L216.513 168.292C216.806 163.126 217.084 157.991 217.347 152.884C217.625 147.777 217.844 142.642 218.005 137.476L228.365 136.95L228.277 140.461C228.687 139.964 229.126 139.496 229.594 139.057C230.077 138.618 230.589 138.245 231.13 137.937C231.672 137.615 232.242 137.367 232.842 137.191C233.457 137.001 234.101 136.906 234.774 136.906C236.018 136.906 237.108 137.111 238.044 137.52C238.981 137.93 239.785 138.486 240.458 139.188C241.131 139.891 241.695 140.725 242.148 141.69C242.602 142.642 242.968 143.658 243.246 144.741C243.524 145.824 243.736 146.958 243.882 148.143C244.029 149.314 244.124 150.47 244.168 151.611C244.226 152.752 244.255 153.857 244.255 154.925C244.255 155.993 244.255 156.966 244.255 157.844Z" fill="white"/>
<path d="M111.425 92.3008C111.337 93.6762 111.257 95.037 111.184 96.3831C111.111 97.7293 111.015 99.0901 110.898 100.465L101.592 100.948L101.373 103.714H107.913L107.431 110.518L100.846 110.737L100.627 113.942H109.933C109.845 115.551 109.75 117.153 109.647 118.748C109.56 120.329 109.479 121.916 109.406 123.511L90.4866 123.95L91.1889 92.3008H111.425Z" stroke="black" stroke-width="7.49164" mask="url(#path-25-outside-1_1019_45)"/>
<path d="M135.436 93.0031L135.217 102.309L128.676 102.573L127.886 122.94L118.624 123.423L117.79 103.055L111.25 103.407L111.513 93.047L135.436 93.0031Z" stroke="black" stroke-width="7.49164" mask="url(#path-25-outside-1_1019_45)"/>
<path d="M162.74 123.072L151.766 123.599L151.678 114.337H146.63L146.323 123.95H136.49L137.324 93.0909L147.771 93.5738L147.113 109.333H151.985L152.029 92.8275L162.038 93.0909L162.74 123.072Z" stroke="black" stroke-width="7.49164" mask="url(#path-25-outside-1_1019_45)"/>
<path d="M176.282 93.047L174.746 122.94L165.483 123.423L164.606 93.6616L176.282 93.047Z" stroke="black" stroke-width="7.49164" mask="url(#path-25-outside-1_1019_45)"/>
<path d="M199.02 93.9688L198.23 103.231C197.806 103.114 197.389 103.033 196.979 102.99C196.569 102.946 196.152 102.924 195.728 102.924C194.689 102.924 193.694 103.055 192.743 103.319C191.807 103.582 190.973 103.985 190.241 104.526C189.524 105.067 188.946 105.755 188.507 106.589C188.083 107.408 187.871 108.381 187.871 109.508C187.871 110.328 187.988 111.045 188.222 111.659C188.47 112.259 188.814 112.764 189.253 113.173C189.707 113.569 190.248 113.869 190.877 114.073C191.521 114.278 192.231 114.381 193.006 114.381C193.548 114.381 194.104 114.329 194.675 114.227C195.245 114.11 195.816 113.956 196.386 113.766C196.957 113.576 197.506 113.356 198.033 113.108C198.559 112.859 199.05 112.596 199.503 112.318L199.152 122.633C198.581 122.926 197.967 123.189 197.308 123.423C196.65 123.643 195.969 123.833 195.267 123.994C194.579 124.17 193.884 124.301 193.182 124.389C192.494 124.477 191.836 124.521 191.207 124.521C189.129 124.521 187.234 124.133 185.522 123.357C183.825 122.582 182.362 121.528 181.132 120.197C179.918 118.851 178.974 117.292 178.301 115.522C177.628 113.751 177.292 111.864 177.292 109.859C177.292 107.46 177.628 105.221 178.301 103.143C178.989 101.065 179.991 99.2657 181.308 97.7439C182.64 96.2076 184.278 95.0077 186.224 94.1444C188.185 93.2665 190.431 92.8275 192.963 92.8275C193.972 92.8275 194.996 92.908 196.035 93.069C197.074 93.2299 198.069 93.5299 199.02 93.9688Z" stroke="black" stroke-width="7.49164" mask="url(#path-25-outside-1_1019_45)"/>
<path d="M223.624 112.713C223.624 114.717 223.273 116.451 222.571 117.914C221.883 119.363 220.932 120.563 219.717 121.514C218.518 122.45 217.106 123.145 215.481 123.599C213.872 124.038 212.138 124.257 210.28 124.257C209.563 124.257 208.773 124.162 207.909 123.972C207.061 123.782 206.197 123.548 205.319 123.27C204.441 122.977 203.593 122.67 202.773 122.348C201.969 122.011 201.252 121.697 200.622 121.404L201.588 112.8C202.832 113.547 204.207 114.117 205.714 114.512C207.236 114.893 208.729 115.083 210.192 115.083C210.47 115.083 210.806 115.076 211.201 115.061C211.597 115.032 211.97 114.966 212.321 114.863C212.687 114.746 212.994 114.578 213.243 114.359C213.491 114.139 213.616 113.825 213.616 113.415C213.616 113.137 213.528 112.903 213.352 112.713C213.177 112.508 212.95 112.347 212.672 112.23C212.394 112.098 212.079 112.003 211.728 111.944C211.377 111.871 211.033 111.82 210.697 111.791C210.36 111.761 210.046 111.747 209.753 111.747C209.46 111.747 209.226 111.747 209.051 111.747C207.792 111.747 206.644 111.549 205.605 111.154C204.58 110.759 203.695 110.203 202.949 109.486C202.217 108.755 201.647 107.877 201.237 106.852C200.827 105.814 200.622 104.665 200.622 103.407C200.622 101.68 200.966 100.136 201.654 98.7755C202.356 97.4001 203.286 96.2368 204.441 95.2857C205.612 94.32 206.951 93.5811 208.458 93.069C209.965 92.5568 211.523 92.3008 213.133 92.3008C213.85 92.3008 214.589 92.33 215.35 92.3886C216.111 92.4325 216.864 92.5203 217.61 92.652C218.371 92.7836 219.11 92.9519 219.827 93.1568C220.544 93.3616 221.224 93.6177 221.868 93.9249L221.034 102.836C220.039 102.499 218.993 102.221 217.896 102.002C216.813 101.768 215.752 101.651 214.713 101.651C214.523 101.651 214.274 101.658 213.967 101.673C213.674 101.673 213.36 101.695 213.023 101.738C212.701 101.768 212.372 101.819 212.036 101.892C211.699 101.965 211.399 102.068 211.136 102.199C210.872 102.316 210.66 102.477 210.499 102.682C210.338 102.887 210.265 103.129 210.28 103.407C210.294 103.728 210.411 103.977 210.631 104.153C210.865 104.328 211.158 104.46 211.509 104.548C211.875 104.621 212.27 104.658 212.694 104.658C213.133 104.658 213.565 104.65 213.989 104.636C214.413 104.606 214.808 104.584 215.174 104.57C215.54 104.541 215.84 104.533 216.074 104.548C217.245 104.621 218.298 104.87 219.234 105.294C220.171 105.718 220.961 106.282 221.605 106.984C222.263 107.686 222.761 108.528 223.097 109.508C223.449 110.474 223.624 111.542 223.624 112.713Z" stroke="black" stroke-width="7.49164" mask="url(#path-25-outside-1_1019_45)"/>
<path d="M100.605 157.274C100.605 159.278 100.254 161.034 99.5512 162.541C98.8635 164.034 97.9124 165.277 96.6979 166.272C95.4981 167.267 94.0861 168.014 92.4619 168.511C90.8524 169.009 89.1185 169.257 87.2602 169.257C86.5432 169.257 85.7531 169.162 84.8898 168.972C84.0412 168.782 83.1779 168.548 82.2999 168.27C81.422 167.977 80.5733 167.67 79.7539 167.348C78.9492 167.011 78.2322 166.697 77.603 166.404L78.5687 157.361C79.8125 158.108 81.1879 158.678 82.695 159.073C84.2167 159.454 85.7092 159.644 87.1724 159.644C87.4504 159.644 87.787 159.637 88.182 159.622C88.5771 159.593 88.9502 159.527 89.3014 159.425C89.6672 159.307 89.9745 159.139 90.2232 158.92C90.472 158.7 90.5963 158.386 90.5963 157.976C90.5963 157.698 90.5085 157.464 90.333 157.274C90.1574 157.069 89.9306 156.908 89.6526 156.791C89.3746 156.659 89.06 156.564 88.7088 156.505C88.3576 156.432 88.0138 156.381 87.6772 156.352C87.3407 156.323 87.0261 156.308 86.7335 156.308C86.4408 156.308 86.2067 156.308 86.0311 156.308C84.7728 156.308 83.6241 156.088 82.5853 155.649C81.561 155.21 80.6758 154.603 79.9295 153.828C79.1979 153.038 78.6273 152.108 78.2176 151.04C77.8079 149.958 77.603 148.787 77.603 147.529C77.603 145.802 77.9469 144.258 78.6346 142.898C79.3369 141.522 80.2661 140.359 81.422 139.408C82.5926 138.442 83.9314 137.703 85.4385 137.191C86.9456 136.679 88.5039 136.423 90.1135 136.423C90.8305 136.423 91.5694 136.452 92.3302 136.511C93.0911 136.555 93.8447 136.642 94.5909 136.774C95.3518 136.906 96.0907 137.074 96.8077 137.279C97.5246 137.484 98.205 137.74 98.8488 138.047L98.0148 146.958C97.0198 146.621 95.9736 146.343 94.8762 146.124C93.7935 145.89 92.7326 145.773 91.6937 145.773C91.5035 145.773 91.2548 145.78 90.9475 145.795C90.6549 145.795 90.3403 145.817 90.0037 145.861C89.6818 145.89 89.3526 145.941 89.0161 146.014C88.6795 146.087 88.3796 146.19 88.1162 146.321C87.8528 146.439 87.6407 146.599 87.4797 146.804C87.3187 147.009 87.2456 147.251 87.2602 147.529C87.2748 147.851 87.3919 148.114 87.6114 148.319C87.8455 148.509 88.1381 148.663 88.4893 148.78C88.8551 148.882 89.2502 148.955 89.6745 148.999C90.1135 149.043 90.5451 149.072 90.9695 149.087C91.3938 149.087 91.7889 149.087 92.1547 149.087C92.5205 149.072 92.8204 149.08 93.0545 149.109C94.2251 149.182 95.2786 149.431 96.2151 149.855C97.1515 150.279 97.9417 150.843 98.5855 151.545C99.2439 152.247 99.7414 153.089 100.078 154.069C100.429 155.035 100.605 156.103 100.605 157.274Z" stroke="black" stroke-width="7.49164" mask="url(#path-25-outside-1_1019_45)"/>
<path d="M126.504 151.216C126.504 152.489 126.416 153.762 126.24 155.035C123.738 155.196 121.251 155.459 118.778 155.825C116.305 156.176 113.832 156.527 111.359 156.879C111.74 157.932 112.332 158.773 113.137 159.403C113.956 160.032 114.93 160.346 116.056 160.346C116.641 160.346 117.278 160.237 117.966 160.017C118.668 159.798 119.363 159.527 120.051 159.205C120.738 158.869 121.397 158.51 122.026 158.13C122.655 157.749 123.197 157.405 123.65 157.098L122.597 167.062C122.026 167.501 121.404 167.875 120.731 168.182C120.073 168.489 119.385 168.738 118.668 168.928C117.951 169.118 117.227 169.257 116.495 169.345C115.764 169.433 115.047 169.477 114.344 169.477C112.896 169.477 111.571 169.279 110.372 168.884C109.172 168.489 108.082 167.94 107.101 167.238C106.136 166.521 105.287 165.68 104.555 164.714C103.824 163.748 103.217 162.695 102.734 161.553C102.251 160.412 101.885 159.205 101.636 157.932C101.388 156.659 101.263 155.371 101.263 154.069C101.263 152.708 101.388 151.348 101.636 149.987C101.885 148.626 102.258 147.316 102.756 146.058C103.268 144.8 103.904 143.636 104.665 142.568C105.441 141.486 106.34 140.542 107.365 139.737C108.389 138.932 109.545 138.303 110.833 137.849C112.135 137.396 113.569 137.169 115.134 137.169C116.437 137.169 117.622 137.352 118.69 137.718C119.773 138.069 120.731 138.566 121.565 139.21C122.414 139.839 123.145 140.593 123.76 141.471C124.389 142.349 124.901 143.315 125.296 144.368C125.706 145.407 126.006 146.512 126.196 147.682C126.401 148.838 126.504 150.016 126.504 151.216ZM117.724 150.075C117.724 149.665 117.68 149.248 117.593 148.824C117.505 148.385 117.358 147.99 117.154 147.638C116.963 147.287 116.707 147.002 116.385 146.782C116.064 146.548 115.661 146.431 115.178 146.431C114.593 146.431 114.074 146.592 113.62 146.914C113.181 147.221 112.801 147.616 112.479 148.099C112.157 148.568 111.893 149.08 111.689 149.636C111.484 150.192 111.33 150.704 111.228 151.172L117.724 150.557V150.075Z" stroke="black" stroke-width="7.49164" mask="url(#path-25-outside-1_1019_45)"/>
<path d="M150.449 157.713C150.449 159.717 150.098 161.451 149.395 162.914C148.708 164.363 147.757 165.563 146.542 166.514C145.342 167.45 143.93 168.145 142.306 168.599C140.697 169.038 138.963 169.257 137.104 169.257C136.388 169.257 135.597 169.162 134.734 168.972C133.885 168.782 133.022 168.548 132.144 168.27C131.266 167.977 130.418 167.67 129.598 167.348C128.793 167.011 128.076 166.697 127.447 166.404L128.413 157.8C129.657 158.547 131.032 159.117 132.539 159.512C134.061 159.893 135.553 160.083 137.017 160.083C137.295 160.083 137.631 160.076 138.026 160.061C138.421 160.032 138.794 159.966 139.146 159.863C139.511 159.746 139.819 159.578 140.067 159.359C140.316 159.139 140.441 158.825 140.441 158.415C140.441 158.137 140.353 157.903 140.177 157.713C140.002 157.508 139.775 157.347 139.497 157.23C139.219 157.098 138.904 157.003 138.553 156.944C138.202 156.871 137.858 156.82 137.522 156.791C137.185 156.761 136.87 156.747 136.578 156.747C136.285 156.747 136.051 156.747 135.875 156.747C134.617 156.747 133.468 156.549 132.43 156.154C131.405 155.759 130.52 155.203 129.774 154.486C129.042 153.755 128.472 152.877 128.062 151.852C127.652 150.814 127.447 149.665 127.447 148.407C127.447 146.68 127.791 145.136 128.479 143.775C129.181 142.4 130.11 141.237 131.266 140.286C132.437 139.32 133.776 138.581 135.283 138.069C136.79 137.557 138.348 137.301 139.958 137.301C140.675 137.301 141.414 137.33 142.175 137.389C142.935 137.432 143.689 137.52 144.435 137.652C145.196 137.784 145.935 137.952 146.652 138.157C147.369 138.362 148.049 138.618 148.693 138.925L147.859 147.836C146.864 147.499 145.818 147.221 144.721 147.002C143.638 146.768 142.577 146.651 141.538 146.651C141.348 146.651 141.099 146.658 140.792 146.673C140.499 146.673 140.185 146.695 139.848 146.738C139.526 146.768 139.197 146.819 138.86 146.892C138.524 146.965 138.224 147.068 137.96 147.199C137.697 147.316 137.485 147.477 137.324 147.682C137.163 147.887 137.09 148.129 137.104 148.407C137.119 148.728 137.236 148.977 137.456 149.153C137.69 149.328 137.982 149.46 138.334 149.548C138.699 149.621 139.094 149.658 139.519 149.658C139.958 149.658 140.389 149.65 140.814 149.636C141.238 149.606 141.633 149.584 141.999 149.57C142.365 149.541 142.665 149.533 142.899 149.548C144.069 149.621 145.123 149.87 146.059 150.294C146.996 150.718 147.786 151.282 148.43 151.984C149.088 152.686 149.586 153.528 149.922 154.508C150.273 155.474 150.449 156.542 150.449 157.713Z" stroke="black" stroke-width="7.49164" mask="url(#path-25-outside-1_1019_45)"/>
<path d="M174.153 157.713C174.153 159.717 173.802 161.451 173.099 162.914C172.412 164.363 171.461 165.563 170.246 166.514C169.046 167.45 167.634 168.145 166.01 168.599C164.401 169.038 162.667 169.257 160.809 169.257C160.092 169.257 159.301 169.162 158.438 168.972C157.589 168.782 156.726 168.548 155.848 168.27C154.97 167.977 154.122 167.67 153.302 167.348C152.497 167.011 151.78 166.697 151.151 166.404L152.117 157.8C153.361 158.547 154.736 159.117 156.243 159.512C157.765 159.893 159.258 160.083 160.721 160.083C160.999 160.083 161.335 160.076 161.73 160.061C162.125 160.032 162.499 159.966 162.85 159.863C163.215 159.746 163.523 159.578 163.772 159.359C164.02 159.139 164.145 158.825 164.145 158.415C164.145 158.137 164.057 157.903 163.881 157.713C163.706 157.508 163.479 157.347 163.201 157.23C162.923 157.098 162.608 157.003 162.257 156.944C161.906 156.871 161.562 156.82 161.226 156.791C160.889 156.761 160.574 156.747 160.282 156.747C159.989 156.747 159.755 156.747 159.579 156.747C158.321 156.747 157.172 156.549 156.134 156.154C155.109 155.759 154.224 155.203 153.478 154.486C152.746 153.755 152.176 152.877 151.766 151.852C151.356 150.814 151.151 149.665 151.151 148.407C151.151 146.68 151.495 145.136 152.183 143.775C152.885 142.4 153.814 141.237 154.97 140.286C156.141 139.32 157.48 138.581 158.987 138.069C160.494 137.557 162.052 137.301 163.662 137.301C164.379 137.301 165.118 137.33 165.879 137.389C166.639 137.432 167.393 137.52 168.139 137.652C168.9 137.784 169.639 137.952 170.356 138.157C171.073 138.362 171.753 138.618 172.397 138.925L171.563 147.836C170.568 147.499 169.522 147.221 168.425 147.002C167.342 146.768 166.281 146.651 165.242 146.651C165.052 146.651 164.803 146.658 164.496 146.673C164.203 146.673 163.889 146.695 163.552 146.738C163.23 146.768 162.901 146.819 162.564 146.892C162.228 146.965 161.928 147.068 161.664 147.199C161.401 147.316 161.189 147.477 161.028 147.682C160.867 147.887 160.794 148.129 160.809 148.407C160.823 148.728 160.94 148.977 161.16 149.153C161.394 149.328 161.686 149.46 162.038 149.548C162.403 149.621 162.798 149.658 163.223 149.658C163.662 149.658 164.093 149.65 164.518 149.636C164.942 149.606 165.337 149.584 165.703 149.57C166.069 149.541 166.369 149.533 166.603 149.548C167.773 149.621 168.827 149.87 169.763 150.294C170.7 150.718 171.49 151.282 172.134 151.984C172.792 152.686 173.29 153.528 173.626 154.508C173.977 155.474 174.153 156.542 174.153 157.713Z" stroke="black" stroke-width="7.49164" mask="url(#path-25-outside-1_1019_45)"/>
<path d="M187.037 138.047L185.5 167.94L176.238 168.423L175.36 138.662L187.037 138.047Z" stroke="black" stroke-width="7.49164" mask="url(#path-25-outside-1_1019_45)"/>
<path d="M215.745 152.138C215.745 153.469 215.591 154.757 215.284 156.001C214.977 157.23 214.53 158.386 213.945 159.468C213.374 160.551 212.672 161.546 211.838 162.453C211.019 163.346 210.089 164.114 209.051 164.758C208.026 165.402 206.907 165.907 205.692 166.272C204.478 166.624 203.19 166.799 201.83 166.799C200.513 166.799 199.254 166.631 198.055 166.294C196.869 165.958 195.757 165.49 194.718 164.89C193.68 164.275 192.736 163.543 191.887 162.695C191.053 161.832 190.336 160.88 189.736 159.842C189.151 158.788 188.69 157.661 188.353 156.462C188.032 155.262 187.871 154.011 187.871 152.708C187.871 151.435 188.024 150.192 188.331 148.977C188.639 147.748 189.078 146.592 189.648 145.509C190.234 144.427 190.936 143.432 191.755 142.524C192.575 141.617 193.489 140.834 194.499 140.176C195.523 139.518 196.628 139.005 197.813 138.64C198.998 138.274 200.249 138.091 201.566 138.091C203.688 138.091 205.619 138.42 207.361 139.079C209.116 139.737 210.609 140.681 211.838 141.91C213.082 143.124 214.04 144.602 214.713 146.343C215.401 148.07 215.745 150.001 215.745 152.138ZM206 152.708C206 152.079 205.905 151.472 205.714 150.887C205.539 150.287 205.275 149.76 204.924 149.306C204.573 148.838 204.134 148.465 203.607 148.187C203.095 147.894 202.503 147.748 201.83 147.748C201.142 147.748 200.527 147.872 199.986 148.121C199.445 148.37 198.976 148.714 198.581 149.153C198.201 149.577 197.908 150.082 197.703 150.667C197.499 151.238 197.396 151.845 197.396 152.489C197.396 153.103 197.484 153.718 197.659 154.333C197.835 154.947 198.098 155.503 198.45 156.001C198.801 156.498 199.232 156.9 199.745 157.208C200.271 157.515 200.879 157.669 201.566 157.669C202.254 157.669 202.868 157.537 203.41 157.274C203.966 156.996 204.434 156.63 204.815 156.176C205.195 155.708 205.488 155.174 205.692 154.574C205.897 153.974 206 153.352 206 152.708Z" stroke="black" stroke-width="7.49164" mask="url(#path-25-outside-1_1019_45)"/>
<path d="M244.255 157.844C244.255 159.498 244.233 161.136 244.19 162.761C244.16 164.37 244.109 165.994 244.036 167.633L231.394 167.414C231.833 164.824 232.213 162.241 232.535 159.666C232.857 157.076 233.018 154.464 233.018 151.83C233.018 151.64 233.011 151.333 232.996 150.909C232.981 150.484 232.952 150.009 232.908 149.482C232.864 148.941 232.798 148.392 232.711 147.836C232.638 147.265 232.528 146.746 232.381 146.278C232.25 145.809 232.081 145.429 231.877 145.136C231.686 144.829 231.452 144.675 231.174 144.675C230.677 144.675 230.252 144.822 229.901 145.114C229.565 145.407 229.279 145.787 229.045 146.256C228.826 146.709 228.65 147.221 228.519 147.792C228.387 148.363 228.284 148.933 228.211 149.504C228.153 150.075 228.109 150.616 228.08 151.128C228.065 151.626 228.058 152.035 228.058 152.357C227.985 154.947 227.926 157.522 227.882 160.083C227.838 162.629 227.78 165.204 227.706 167.809L216.513 168.292C216.806 163.126 217.084 157.991 217.347 152.884C217.625 147.777 217.844 142.642 218.005 137.476L228.365 136.95L228.277 140.461C228.687 139.964 229.126 139.496 229.594 139.057C230.077 138.618 230.589 138.245 231.13 137.937C231.672 137.615 232.242 137.367 232.842 137.191C233.457 137.001 234.101 136.906 234.774 136.906C236.018 136.906 237.108 137.111 238.044 137.52C238.981 137.93 239.785 138.486 240.458 139.188C241.131 139.891 241.695 140.725 242.148 141.69C242.602 142.642 242.968 143.658 243.246 144.741C243.524 145.824 243.736 146.958 243.882 148.143C244.029 149.314 244.124 150.47 244.168 151.611C244.226 152.752 244.255 153.857 244.255 154.925C244.255 155.993 244.255 156.966 244.255 157.844Z" stroke="black" stroke-width="7.49164" mask="url(#path-25-outside-1_1019_45)"/>
</g>
<defs>
<filter id="filter0_d_1019_45" x="69.8481" y="88.5552" width="181.899" height="92.1591" filterUnits="userSpaceOnUse" color-interpolation-filters="sRGB">
<feFlood flood-opacity="0" result="BackgroundImageFix"/>
<feColorMatrix in="SourceAlpha" type="matrix" values="0 0 0 0 0 0 0 0 0 0 0 0 0 0 0 0 0 0 127 0" result="hardAlpha"/>
<feOffset dy="3.74582"/>
<feGaussianBlur stdDeviation="1.87291"/>
<feComposite in2="hardAlpha" operator="out"/>
<feColorMatrix type="matrix" values="0 0 0 0 0 0 0 0 0 0 0 0 0 0 0 0 0 0 0.35 0"/>
<feBlend mode="normal" in2="BackgroundImageFix" result="effect1_dropShadow_1019_45"/>
<feBlend mode="normal" in="SourceGraphic" in2="effect1_dropShadow_1019_45" result="shape"/>
</filter>
<linearGradient id="paint0_linear_1019_45" x1="29.6723" y1="134.559" x2="290.943" y2="134.559" gradientUnits="userSpaceOnUse">
<stop stop-color="#883F06"/>
<stop offset="0.04" stop-color="#A8551C"/>
<stop offset="0.07" stop-color="#C3672F"/>
<stop offset="0.11" stop-color="#D9763F"/>
<stop offset="0.15" stop-color="#EA824A"/>
<stop offset="0.21" stop-color="#F68A52"/>
<stop offset="0.29" stop-color="#FD8E57"/>
<stop offset="0.5" stop-color="#FF9059"/>
<stop offset="0.72" stop-color="#FD8E58"/>
<stop offset="0.8" stop-color="#F68954"/>
<stop offset="0.85" stop-color="#EA7F4E"/>
<stop offset="0.9" stop-color="#D97246"/>
<stop offset="0.94" stop-color="#C3613B"/>
<stop offset="0.97" stop-color="#A94C2E"/>
<stop offset="1" stop-color="#89331F"/>
</linearGradient>
</defs>
</svg>
