<svg width="290" height="290" viewBox="0 0 290 290" fill="none" xmlns="http://www.w3.org/2000/svg">
<path d="M262.23 266.42H239.22L238.23 271.59L43.67 282.92L28 23.98L69.44 21.47V7H262.23V266.42Z" fill="black" stroke="white" stroke-width="10" stroke-linecap="round" stroke-linejoin="round"/>
<path d="M216.79 18.4099L35.7902 29.3535L50.516 272.909L231.515 261.965L216.79 18.4099Z" fill="#FF9880" stroke="black" stroke-width="4" stroke-linecap="round" stroke-linejoin="round"/>
<path d="M253.94 10.6899H72.61V254.69H253.94V10.6899Z" fill="#FFFEFD" stroke="black" stroke-width="4" stroke-linecap="round" stroke-linejoin="round"/>
<path d="M93.4399 157.32H239.22" stroke="#F16161" stroke-width="3" stroke-miterlimit="10"/>
<path d="M93.4399 164.44H239.22" stroke="#F16161" stroke-width="3" stroke-miterlimit="10"/>
<path d="M93.22 171.55H239" stroke="#F16161" stroke-width="3" stroke-miterlimit="10"/>
<path d="M93.22 178.66H239" stroke="#F16161" stroke-width="3" stroke-miterlimit="10"/>
<path d="M93 113.87H238.77" stroke="#F16161" stroke-width="3" stroke-linecap="round" stroke-linejoin="round"/>
<path d="M93 120.98H238.77" stroke="#F16161" stroke-width="3" stroke-linecap="round" stroke-linejoin="round"/>
<path d="M92.77 128.09H238.55" stroke="#F16161" stroke-width="3" stroke-linecap="round" stroke-linejoin="round"/>
<path d="M92.77 135.21H238.55" stroke="#F16161" stroke-width="3" stroke-linecap="round" stroke-linejoin="round"/>
<path d="M92.88 200.78H238.66" stroke="#F16161" stroke-width="3" stroke-miterlimit="10"/>
<path d="M92.88 207.89H238.66" stroke="#F16161" stroke-width="3" stroke-miterlimit="10"/>
<path d="M92.66 215H238.44" stroke="#F16161" stroke-width="3" stroke-miterlimit="10"/>
<path d="M92.66 222.11H238.44" stroke="#F16161" stroke-width="3" stroke-miterlimit="10"/>
<g filter="url(#filter0_d_1025_46)">
<mask id="path-16-outside-1_1025_46" maskUnits="userSpaceOnUse" x="87.1953" y="38.0391" width="153" height="56" fill="black">
<rect fill="white" x="87.1953" y="38.0391" width="153" height="56"/>
<path d="M104.238 42.2852C104.184 43.1419 104.133 43.9896 104.088 44.8281C104.042 45.6667 103.983 46.5143 103.91 47.3711L98.1133 47.6719L97.9766 49.3945H102.051L101.75 53.6328L97.6484 53.7695L97.5117 55.7656H103.309C103.254 56.7682 103.195 57.7663 103.131 58.7598C103.076 59.7441 103.026 60.7331 102.98 61.7266L91.1953 62L91.6328 42.2852H104.238Z"/>
<path d="M121.26 43.3789L115.928 52.1016L120.74 59.8945L115.025 61.6719L112.291 56.3672L109.393 61.9727L103.486 59.8398L108.518 51.9102L103.924 44.1172L110.186 42.6133L112.428 47.5625L114.807 42.6133L121.26 43.3789Z"/>
<path d="M135.725 50.9531C135.725 51.7461 135.67 52.5391 135.561 53.332C134.002 53.4323 132.452 53.5964 130.912 53.8242C129.372 54.043 127.831 54.2617 126.291 54.4805C126.528 55.1367 126.897 55.6608 127.398 56.0527C127.909 56.4447 128.515 56.6406 129.217 56.6406C129.581 56.6406 129.978 56.5723 130.406 56.4355C130.844 56.2988 131.277 56.1302 131.705 55.9297C132.133 55.7201 132.544 55.4967 132.936 55.2598C133.327 55.0228 133.665 54.8086 133.947 54.6172L133.291 60.8242C132.936 61.0977 132.548 61.3301 132.129 61.5215C131.719 61.7129 131.29 61.8678 130.844 61.9863C130.397 62.1048 129.946 62.1914 129.49 62.2461C129.035 62.3008 128.588 62.3281 128.15 62.3281C127.248 62.3281 126.423 62.2051 125.676 61.959C124.928 61.7129 124.249 61.3711 123.639 60.9336C123.037 60.487 122.508 59.9629 122.053 59.3613C121.597 58.7598 121.219 58.1035 120.918 57.3926C120.617 56.6816 120.389 55.9297 120.234 55.1367C120.079 54.3438 120.002 53.5417 120.002 52.7305C120.002 51.8828 120.079 51.0352 120.234 50.1875C120.389 49.3398 120.622 48.5241 120.932 47.7402C121.251 46.9564 121.647 46.2318 122.121 45.5664C122.604 44.8919 123.165 44.304 123.803 43.8027C124.441 43.3014 125.161 42.9095 125.963 42.627C126.774 42.3444 127.667 42.2031 128.643 42.2031C129.454 42.2031 130.192 42.3171 130.857 42.5449C131.532 42.7637 132.129 43.0736 132.648 43.4746C133.177 43.8665 133.633 44.3359 134.016 44.8828C134.408 45.4297 134.727 46.0312 134.973 46.6875C135.228 47.3346 135.415 48.0228 135.533 48.752C135.661 49.472 135.725 50.2057 135.725 50.9531ZM130.256 50.2422C130.256 49.987 130.229 49.7272 130.174 49.4629C130.119 49.1895 130.028 48.9434 129.9 48.7246C129.782 48.5059 129.622 48.3281 129.422 48.1914C129.221 48.0456 128.971 47.9727 128.67 47.9727C128.305 47.9727 127.982 48.0729 127.699 48.2734C127.426 48.4648 127.189 48.7109 126.988 49.0117C126.788 49.3034 126.624 49.6224 126.496 49.9688C126.368 50.3151 126.273 50.6341 126.209 50.9258L130.256 50.543V50.2422Z"/>
<path d="M160.334 52.7305C160.334 54.0339 160.293 55.3327 160.211 56.627C160.129 57.9212 160.033 59.2201 159.924 60.5234L152.896 60.8516C153.106 59.2656 153.293 57.6797 153.457 56.0938C153.63 54.4987 153.717 52.9036 153.717 51.3086C153.717 51.2083 153.712 51.0352 153.703 50.7891C153.694 50.5339 153.676 50.2467 153.648 49.9277C153.63 49.6087 153.598 49.2806 153.553 48.9434C153.516 48.597 153.462 48.2826 153.389 48C153.325 47.7083 153.243 47.4714 153.143 47.2891C153.042 47.1068 152.924 47.0156 152.787 47.0156C152.468 47.0156 152.217 47.1387 152.035 47.3848C151.853 47.6217 151.716 47.9089 151.625 48.2461C151.543 48.5833 151.493 48.9297 151.475 49.2852C151.456 49.6315 151.447 49.9141 151.447 50.1328C151.447 50.5156 151.456 50.8984 151.475 51.2812C151.493 51.6641 151.502 52.056 151.502 52.457C151.502 53.8698 151.465 55.278 151.393 56.6816C151.329 58.0853 151.247 59.4935 151.146 60.9062L144.666 61.1523C144.876 59.5664 145.058 57.985 145.213 56.4082C145.377 54.8223 145.459 53.2318 145.459 51.6367C145.459 51.5365 145.454 51.3542 145.445 51.0898C145.436 50.8255 145.418 50.5293 145.391 50.2012C145.372 49.873 145.34 49.5312 145.295 49.1758C145.249 48.8203 145.19 48.4967 145.117 48.2051C145.053 47.9043 144.971 47.6582 144.871 47.4668C144.771 47.2754 144.648 47.1797 144.502 47.1797C144.274 47.1797 144.083 47.2708 143.928 47.4531C143.773 47.6263 143.645 47.8542 143.545 48.1367C143.454 48.4193 143.381 48.7337 143.326 49.0801C143.281 49.4173 143.244 49.75 143.217 50.0781C143.199 50.4062 143.185 50.7116 143.176 50.9941C143.176 51.2676 143.171 51.4727 143.162 51.6094L142.861 61.5898H135.971C136.117 60.0495 136.262 58.5046 136.408 56.9551C136.563 55.4056 136.695 53.8607 136.805 52.3203C136.923 50.7708 137.019 49.2214 137.092 47.6719C137.165 46.1224 137.201 44.5729 137.201 43.0234L143.709 42.75L143.682 44.3359C143.882 44.0807 144.11 43.8255 144.365 43.5703C144.62 43.306 144.889 43.0736 145.172 42.873C145.464 42.6634 145.769 42.4948 146.088 42.3672C146.416 42.2396 146.753 42.1758 147.1 42.1758C147.546 42.1758 147.947 42.2122 148.303 42.2852C148.658 42.349 148.977 42.4629 149.26 42.627C149.551 42.791 149.807 43.0189 150.025 43.3105C150.244 43.5931 150.436 43.9531 150.6 44.3906C150.891 44.0716 151.183 43.7754 151.475 43.502C151.775 43.2285 152.09 42.9961 152.418 42.8047C152.746 42.6042 153.102 42.4492 153.484 42.3398C153.867 42.2305 154.291 42.1758 154.756 42.1758C155.64 42.1758 156.392 42.349 157.012 42.6953C157.632 43.0326 158.146 43.4837 158.557 44.0488C158.976 44.6139 159.299 45.2611 159.527 45.9902C159.764 46.7194 159.942 47.4759 160.061 48.2598C160.179 49.0436 160.252 49.8229 160.279 50.5977C160.316 51.3724 160.334 52.0833 160.334 52.7305Z"/>
<path d="M177.52 49.3945C177.52 50.2786 177.387 51.0625 177.123 51.7461C176.859 52.4297 176.494 53.0312 176.029 53.5508C175.574 54.0612 175.036 54.4941 174.416 54.8496C173.796 55.196 173.131 55.4831 172.42 55.7109C171.718 55.9297 170.989 56.0938 170.232 56.2031C169.476 56.3034 168.733 56.3581 168.004 56.3672V62.1914H161.633C161.633 61.1523 161.633 60.1406 161.633 59.1562C161.642 58.1719 161.646 57.1966 161.646 56.2305C161.656 55.2552 161.66 54.2754 161.66 53.291C161.669 52.3066 161.678 51.2904 161.688 50.2422C161.706 49.1302 161.71 48.0182 161.701 46.9062C161.692 45.7943 161.715 44.6732 161.77 43.543C162.936 43.1966 164.103 42.9368 165.27 42.7637C166.436 42.5905 167.639 42.5039 168.879 42.5039C169.581 42.5039 170.283 42.5632 170.984 42.6816C171.686 42.791 172.356 42.9688 172.994 43.2148C173.641 43.4609 174.238 43.7708 174.785 44.1445C175.341 44.5091 175.82 44.9466 176.221 45.457C176.622 45.9674 176.936 46.5508 177.164 47.207C177.401 47.8633 177.52 48.5924 177.52 49.3945ZM171.449 49.8594C171.449 49.2669 171.267 48.8066 170.902 48.4785C170.547 48.1413 170.082 47.9727 169.508 47.9727C169.316 47.9727 169.116 47.9909 168.906 48.0273C168.706 48.0547 168.514 48.0911 168.332 48.1367L168.168 52.1289C168.296 52.1471 168.419 52.1562 168.537 52.1562C168.656 52.1562 168.779 52.1562 168.906 52.1562C169.234 52.1562 169.549 52.1016 169.85 51.9922C170.16 51.8828 170.433 51.7279 170.67 51.5273C170.907 51.3177 171.094 51.0762 171.23 50.8027C171.376 50.5202 171.449 50.2057 171.449 49.8594Z"/>
<path d="M192.777 42.7227L192.641 48.5195L188.566 48.6836L188.074 61.3711L182.305 61.6719L181.785 48.9844L177.711 49.2031L177.875 42.75L192.777 42.7227Z"/>
<path d="M200.693 42.75L199.736 61.3711L193.967 61.6719L193.42 43.1328L200.693 42.75Z"/>
<path d="M218.576 51.5273C218.576 52.3568 218.48 53.1589 218.289 53.9336C218.098 54.6992 217.82 55.4193 217.455 56.0938C217.1 56.7682 216.662 57.388 216.143 57.9531C215.632 58.5091 215.053 58.9876 214.406 59.3887C213.768 59.7897 213.071 60.1042 212.314 60.332C211.558 60.5508 210.756 60.6602 209.908 60.6602C209.088 60.6602 208.304 60.5553 207.557 60.3457C206.818 60.1361 206.126 59.8444 205.479 59.4707C204.831 59.0879 204.243 58.6322 203.715 58.1035C203.195 57.5658 202.749 56.9733 202.375 56.3262C202.01 55.6699 201.723 54.9681 201.514 54.2207C201.313 53.4733 201.213 52.694 201.213 51.8828C201.213 51.0898 201.309 50.3151 201.5 49.5586C201.691 48.793 201.965 48.0729 202.32 47.3984C202.685 46.724 203.122 46.1042 203.633 45.5391C204.143 44.974 204.713 44.4863 205.342 44.0762C205.98 43.666 206.668 43.347 207.406 43.1191C208.145 42.8913 208.924 42.7773 209.744 42.7773C211.066 42.7773 212.269 42.9824 213.354 43.3926C214.447 43.8027 215.377 44.3906 216.143 45.1562C216.917 45.9128 217.514 46.8333 217.934 47.918C218.362 48.9935 218.576 50.1966 218.576 51.5273ZM212.506 51.8828C212.506 51.4909 212.447 51.1126 212.328 50.748C212.219 50.3743 212.055 50.0462 211.836 49.7637C211.617 49.472 211.344 49.2396 211.016 49.0664C210.697 48.8841 210.327 48.793 209.908 48.793C209.48 48.793 209.097 48.8704 208.76 49.0254C208.423 49.1803 208.131 49.3945 207.885 49.668C207.648 49.9323 207.465 50.2467 207.338 50.6113C207.21 50.9668 207.146 51.3451 207.146 51.7461C207.146 52.1289 207.201 52.5117 207.311 52.8945C207.42 53.2773 207.584 53.6237 207.803 53.9336C208.021 54.2435 208.29 54.4941 208.609 54.6855C208.938 54.877 209.316 54.9727 209.744 54.9727C210.173 54.9727 210.555 54.8906 210.893 54.7266C211.239 54.5534 211.531 54.3255 211.768 54.043C212.005 53.7513 212.187 53.4186 212.314 53.0449C212.442 52.6712 212.506 52.2839 212.506 51.8828Z"/>
<path d="M236.336 55.082C236.336 56.112 236.322 57.1328 236.295 58.1445C236.277 59.1471 236.245 60.1589 236.199 61.1797L228.324 61.043C228.598 59.4297 228.835 57.821 229.035 56.2168C229.236 54.6035 229.336 52.9766 229.336 51.3359C229.336 51.2174 229.331 51.026 229.322 50.7617C229.313 50.4974 229.295 50.2012 229.268 49.873C229.24 49.5358 229.199 49.194 229.145 48.8477C229.099 48.4922 229.031 48.1686 228.939 47.877C228.857 47.5853 228.753 47.3483 228.625 47.166C228.507 46.9746 228.361 46.8789 228.188 46.8789C227.878 46.8789 227.613 46.9701 227.395 47.1523C227.185 47.3346 227.007 47.5716 226.861 47.8633C226.725 48.1458 226.615 48.4648 226.533 48.8203C226.451 49.1758 226.387 49.5312 226.342 49.8867C226.305 50.2422 226.278 50.5794 226.26 50.8984C226.251 51.2083 226.246 51.4635 226.246 51.6641C226.201 53.2773 226.164 54.8815 226.137 56.4766C226.109 58.0625 226.073 59.6667 226.027 61.2891L219.055 61.5898C219.237 58.3724 219.41 55.1732 219.574 51.9922C219.747 48.8112 219.884 45.612 219.984 42.3945L226.438 42.0664L226.383 44.2539C226.638 43.944 226.911 43.6523 227.203 43.3789C227.504 43.1055 227.823 42.873 228.16 42.6816C228.497 42.4811 228.853 42.3262 229.227 42.2168C229.609 42.0983 230.01 42.0391 230.43 42.0391C231.204 42.0391 231.883 42.1667 232.467 42.4219C233.05 42.6771 233.551 43.0234 233.971 43.4609C234.39 43.8984 234.741 44.418 235.023 45.0195C235.306 45.612 235.534 46.2454 235.707 46.9199C235.88 47.5944 236.012 48.3008 236.104 49.0391C236.195 49.7682 236.254 50.4883 236.281 51.1992C236.318 51.9102 236.336 52.5983 236.336 53.2637C236.336 53.929 236.336 54.5352 236.336 55.082Z"/>
<path d="M143.764 70.2852C143.709 71.1419 143.659 71.9896 143.613 72.8281C143.568 73.6667 143.508 74.5143 143.436 75.3711L137.639 75.6719L137.502 77.3945H141.576L141.275 81.6328L137.174 81.7695L137.037 83.7656H142.834C142.779 84.7682 142.72 85.7663 142.656 86.7598C142.602 87.7441 142.551 88.7331 142.506 89.7266L130.721 90L131.158 70.2852H143.764Z"/>
<path d="M160.785 71.3789L155.453 80.1016L160.266 87.8945L154.551 89.6719L151.816 84.3672L148.918 89.9727L143.012 87.8398L148.043 79.9102L143.449 72.1172L149.711 70.6133L151.953 75.5625L154.332 70.6133L160.785 71.3789Z"/>
<path d="M178.135 88.8242L171.354 89.6992L170.533 86.6094H167.416L166.732 89.6992L159.76 89.0156L165.201 70.8047L172.803 70.4219L178.135 88.8242ZM170.041 82.4258L169.002 77.668L167.99 82.4258H170.041Z"/>
<path d="M202.32 80.7305C202.32 82.0339 202.279 83.3327 202.197 84.627C202.115 85.9212 202.02 87.2201 201.91 88.5234L194.883 88.8516C195.092 87.2656 195.279 85.6797 195.443 84.0938C195.617 82.4987 195.703 80.9036 195.703 79.3086C195.703 79.2083 195.699 79.0352 195.689 78.7891C195.68 78.5339 195.662 78.2467 195.635 77.9277C195.617 77.6087 195.585 77.2806 195.539 76.9434C195.503 76.597 195.448 76.2826 195.375 76C195.311 75.7083 195.229 75.4714 195.129 75.2891C195.029 75.1068 194.91 75.0156 194.773 75.0156C194.454 75.0156 194.204 75.1387 194.021 75.3848C193.839 75.6217 193.702 75.9089 193.611 76.2461C193.529 76.5833 193.479 76.9297 193.461 77.2852C193.443 77.6315 193.434 77.9141 193.434 78.1328C193.434 78.5156 193.443 78.8984 193.461 79.2812C193.479 79.6641 193.488 80.056 193.488 80.457C193.488 81.8698 193.452 83.278 193.379 84.6816C193.315 86.0853 193.233 87.4935 193.133 88.9062L186.652 89.1523C186.862 87.5664 187.044 85.985 187.199 84.4082C187.363 82.8223 187.445 81.2318 187.445 79.6367C187.445 79.5365 187.441 79.3542 187.432 79.0898C187.423 78.8255 187.404 78.5293 187.377 78.2012C187.359 77.873 187.327 77.5312 187.281 77.1758C187.236 76.8203 187.176 76.4967 187.104 76.2051C187.04 75.9043 186.958 75.6582 186.857 75.4668C186.757 75.2754 186.634 75.1797 186.488 75.1797C186.26 75.1797 186.069 75.2708 185.914 75.4531C185.759 75.6263 185.632 75.8542 185.531 76.1367C185.44 76.4193 185.367 76.7337 185.312 77.0801C185.267 77.4173 185.23 77.75 185.203 78.0781C185.185 78.4062 185.171 78.7116 185.162 78.9941C185.162 79.2676 185.158 79.4727 185.148 79.6094L184.848 89.5898H177.957C178.103 88.0495 178.249 86.5046 178.395 84.9551C178.549 83.4056 178.682 81.8607 178.791 80.3203C178.91 78.7708 179.005 77.2214 179.078 75.6719C179.151 74.1224 179.188 72.5729 179.188 71.0234L185.695 70.75L185.668 72.3359C185.868 72.0807 186.096 71.8255 186.352 71.5703C186.607 71.306 186.876 71.0736 187.158 70.873C187.45 70.6634 187.755 70.4948 188.074 70.3672C188.402 70.2396 188.74 70.1758 189.086 70.1758C189.533 70.1758 189.934 70.2122 190.289 70.2852C190.645 70.349 190.964 70.4629 191.246 70.627C191.538 70.791 191.793 71.0189 192.012 71.3105C192.23 71.5931 192.422 71.9531 192.586 72.3906C192.878 72.0716 193.169 71.7754 193.461 71.502C193.762 71.2285 194.076 70.9961 194.404 70.8047C194.732 70.6042 195.088 70.4492 195.471 70.3398C195.854 70.2305 196.277 70.1758 196.742 70.1758C197.626 70.1758 198.378 70.349 198.998 70.6953C199.618 71.0326 200.133 71.4837 200.543 72.0488C200.962 72.6139 201.286 73.2611 201.514 73.9902C201.751 74.7194 201.928 75.4759 202.047 76.2598C202.165 77.0436 202.238 77.8229 202.266 78.5977C202.302 79.3724 202.32 80.0833 202.32 80.7305Z"/>
</mask>
<path d="M104.238 42.2852C104.184 43.1419 104.133 43.9896 104.088 44.8281C104.042 45.6667 103.983 46.5143 103.91 47.3711L98.1133 47.6719L97.9766 49.3945H102.051L101.75 53.6328L97.6484 53.7695L97.5117 55.7656H103.309C103.254 56.7682 103.195 57.7663 103.131 58.7598C103.076 59.7441 103.026 60.7331 102.98 61.7266L91.1953 62L91.6328 42.2852H104.238Z" fill="#FF7373"/>
<path d="M121.26 43.3789L115.928 52.1016L120.74 59.8945L115.025 61.6719L112.291 56.3672L109.393 61.9727L103.486 59.8398L108.518 51.9102L103.924 44.1172L110.186 42.6133L112.428 47.5625L114.807 42.6133L121.26 43.3789Z" fill="#FF7373"/>
<path d="M135.725 50.9531C135.725 51.7461 135.67 52.5391 135.561 53.332C134.002 53.4323 132.452 53.5964 130.912 53.8242C129.372 54.043 127.831 54.2617 126.291 54.4805C126.528 55.1367 126.897 55.6608 127.398 56.0527C127.909 56.4447 128.515 56.6406 129.217 56.6406C129.581 56.6406 129.978 56.5723 130.406 56.4355C130.844 56.2988 131.277 56.1302 131.705 55.9297C132.133 55.7201 132.544 55.4967 132.936 55.2598C133.327 55.0228 133.665 54.8086 133.947 54.6172L133.291 60.8242C132.936 61.0977 132.548 61.3301 132.129 61.5215C131.719 61.7129 131.29 61.8678 130.844 61.9863C130.397 62.1048 129.946 62.1914 129.49 62.2461C129.035 62.3008 128.588 62.3281 128.15 62.3281C127.248 62.3281 126.423 62.2051 125.676 61.959C124.928 61.7129 124.249 61.3711 123.639 60.9336C123.037 60.487 122.508 59.9629 122.053 59.3613C121.597 58.7598 121.219 58.1035 120.918 57.3926C120.617 56.6816 120.389 55.9297 120.234 55.1367C120.079 54.3438 120.002 53.5417 120.002 52.7305C120.002 51.8828 120.079 51.0352 120.234 50.1875C120.389 49.3398 120.622 48.5241 120.932 47.7402C121.251 46.9564 121.647 46.2318 122.121 45.5664C122.604 44.8919 123.165 44.304 123.803 43.8027C124.441 43.3014 125.161 42.9095 125.963 42.627C126.774 42.3444 127.667 42.2031 128.643 42.2031C129.454 42.2031 130.192 42.3171 130.857 42.5449C131.532 42.7637 132.129 43.0736 132.648 43.4746C133.177 43.8665 133.633 44.3359 134.016 44.8828C134.408 45.4297 134.727 46.0312 134.973 46.6875C135.228 47.3346 135.415 48.0228 135.533 48.752C135.661 49.472 135.725 50.2057 135.725 50.9531ZM130.256 50.2422C130.256 49.987 130.229 49.7272 130.174 49.4629C130.119 49.1895 130.028 48.9434 129.9 48.7246C129.782 48.5059 129.622 48.3281 129.422 48.1914C129.221 48.0456 128.971 47.9727 128.67 47.9727C128.305 47.9727 127.982 48.0729 127.699 48.2734C127.426 48.4648 127.189 48.7109 126.988 49.0117C126.788 49.3034 126.624 49.6224 126.496 49.9688C126.368 50.3151 126.273 50.6341 126.209 50.9258L130.256 50.543V50.2422Z" fill="#FF7373"/>
<path d="M160.334 52.7305C160.334 54.0339 160.293 55.3327 160.211 56.627C160.129 57.9212 160.033 59.2201 159.924 60.5234L152.896 60.8516C153.106 59.2656 153.293 57.6797 153.457 56.0938C153.63 54.4987 153.717 52.9036 153.717 51.3086C153.717 51.2083 153.712 51.0352 153.703 50.7891C153.694 50.5339 153.676 50.2467 153.648 49.9277C153.63 49.6087 153.598 49.2806 153.553 48.9434C153.516 48.597 153.462 48.2826 153.389 48C153.325 47.7083 153.243 47.4714 153.143 47.2891C153.042 47.1068 152.924 47.0156 152.787 47.0156C152.468 47.0156 152.217 47.1387 152.035 47.3848C151.853 47.6217 151.716 47.9089 151.625 48.2461C151.543 48.5833 151.493 48.9297 151.475 49.2852C151.456 49.6315 151.447 49.9141 151.447 50.1328C151.447 50.5156 151.456 50.8984 151.475 51.2812C151.493 51.6641 151.502 52.056 151.502 52.457C151.502 53.8698 151.465 55.278 151.393 56.6816C151.329 58.0853 151.247 59.4935 151.146 60.9062L144.666 61.1523C144.876 59.5664 145.058 57.985 145.213 56.4082C145.377 54.8223 145.459 53.2318 145.459 51.6367C145.459 51.5365 145.454 51.3542 145.445 51.0898C145.436 50.8255 145.418 50.5293 145.391 50.2012C145.372 49.873 145.34 49.5312 145.295 49.1758C145.249 48.8203 145.19 48.4967 145.117 48.2051C145.053 47.9043 144.971 47.6582 144.871 47.4668C144.771 47.2754 144.648 47.1797 144.502 47.1797C144.274 47.1797 144.083 47.2708 143.928 47.4531C143.773 47.6263 143.645 47.8542 143.545 48.1367C143.454 48.4193 143.381 48.7337 143.326 49.0801C143.281 49.4173 143.244 49.75 143.217 50.0781C143.199 50.4062 143.185 50.7116 143.176 50.9941C143.176 51.2676 143.171 51.4727 143.162 51.6094L142.861 61.5898H135.971C136.117 60.0495 136.262 58.5046 136.408 56.9551C136.563 55.4056 136.695 53.8607 136.805 52.3203C136.923 50.7708 137.019 49.2214 137.092 47.6719C137.165 46.1224 137.201 44.5729 137.201 43.0234L143.709 42.75L143.682 44.3359C143.882 44.0807 144.11 43.8255 144.365 43.5703C144.62 43.306 144.889 43.0736 145.172 42.873C145.464 42.6634 145.769 42.4948 146.088 42.3672C146.416 42.2396 146.753 42.1758 147.1 42.1758C147.546 42.1758 147.947 42.2122 148.303 42.2852C148.658 42.349 148.977 42.4629 149.26 42.627C149.551 42.791 149.807 43.0189 150.025 43.3105C150.244 43.5931 150.436 43.9531 150.6 44.3906C150.891 44.0716 151.183 43.7754 151.475 43.502C151.775 43.2285 152.09 42.9961 152.418 42.8047C152.746 42.6042 153.102 42.4492 153.484 42.3398C153.867 42.2305 154.291 42.1758 154.756 42.1758C155.64 42.1758 156.392 42.349 157.012 42.6953C157.632 43.0326 158.146 43.4837 158.557 44.0488C158.976 44.6139 159.299 45.2611 159.527 45.9902C159.764 46.7194 159.942 47.4759 160.061 48.2598C160.179 49.0436 160.252 49.8229 160.279 50.5977C160.316 51.3724 160.334 52.0833 160.334 52.7305Z" fill="#FF7373"/>
<path d="M177.52 49.3945C177.52 50.2786 177.387 51.0625 177.123 51.7461C176.859 52.4297 176.494 53.0312 176.029 53.5508C175.574 54.0612 175.036 54.4941 174.416 54.8496C173.796 55.196 173.131 55.4831 172.42 55.7109C171.718 55.9297 170.989 56.0938 170.232 56.2031C169.476 56.3034 168.733 56.3581 168.004 56.3672V62.1914H161.633C161.633 61.1523 161.633 60.1406 161.633 59.1562C161.642 58.1719 161.646 57.1966 161.646 56.2305C161.656 55.2552 161.66 54.2754 161.66 53.291C161.669 52.3066 161.678 51.2904 161.688 50.2422C161.706 49.1302 161.71 48.0182 161.701 46.9062C161.692 45.7943 161.715 44.6732 161.77 43.543C162.936 43.1966 164.103 42.9368 165.27 42.7637C166.436 42.5905 167.639 42.5039 168.879 42.5039C169.581 42.5039 170.283 42.5632 170.984 42.6816C171.686 42.791 172.356 42.9688 172.994 43.2148C173.641 43.4609 174.238 43.7708 174.785 44.1445C175.341 44.5091 175.82 44.9466 176.221 45.457C176.622 45.9674 176.936 46.5508 177.164 47.207C177.401 47.8633 177.52 48.5924 177.52 49.3945ZM171.449 49.8594C171.449 49.2669 171.267 48.8066 170.902 48.4785C170.547 48.1413 170.082 47.9727 169.508 47.9727C169.316 47.9727 169.116 47.9909 168.906 48.0273C168.706 48.0547 168.514 48.0911 168.332 48.1367L168.168 52.1289C168.296 52.1471 168.419 52.1562 168.537 52.1562C168.656 52.1562 168.779 52.1562 168.906 52.1562C169.234 52.1562 169.549 52.1016 169.85 51.9922C170.16 51.8828 170.433 51.7279 170.67 51.5273C170.907 51.3177 171.094 51.0762 171.23 50.8027C171.376 50.5202 171.449 50.2057 171.449 49.8594Z" fill="#FF7373"/>
<path d="M192.777 42.7227L192.641 48.5195L188.566 48.6836L188.074 61.3711L182.305 61.6719L181.785 48.9844L177.711 49.2031L177.875 42.75L192.777 42.7227Z" fill="#FF7373"/>
<path d="M200.693 42.75L199.736 61.3711L193.967 61.6719L193.42 43.1328L200.693 42.75Z" fill="#FF7373"/>
<path d="M218.576 51.5273C218.576 52.3568 218.48 53.1589 218.289 53.9336C218.098 54.6992 217.82 55.4193 217.455 56.0938C217.1 56.7682 216.662 57.388 216.143 57.9531C215.632 58.5091 215.053 58.9876 214.406 59.3887C213.768 59.7897 213.071 60.1042 212.314 60.332C211.558 60.5508 210.756 60.6602 209.908 60.6602C209.088 60.6602 208.304 60.5553 207.557 60.3457C206.818 60.1361 206.126 59.8444 205.479 59.4707C204.831 59.0879 204.243 58.6322 203.715 58.1035C203.195 57.5658 202.749 56.9733 202.375 56.3262C202.01 55.6699 201.723 54.9681 201.514 54.2207C201.313 53.4733 201.213 52.694 201.213 51.8828C201.213 51.0898 201.309 50.3151 201.5 49.5586C201.691 48.793 201.965 48.0729 202.32 47.3984C202.685 46.724 203.122 46.1042 203.633 45.5391C204.143 44.974 204.713 44.4863 205.342 44.0762C205.98 43.666 206.668 43.347 207.406 43.1191C208.145 42.8913 208.924 42.7773 209.744 42.7773C211.066 42.7773 212.269 42.9824 213.354 43.3926C214.447 43.8027 215.377 44.3906 216.143 45.1562C216.917 45.9128 217.514 46.8333 217.934 47.918C218.362 48.9935 218.576 50.1966 218.576 51.5273ZM212.506 51.8828C212.506 51.4909 212.447 51.1126 212.328 50.748C212.219 50.3743 212.055 50.0462 211.836 49.7637C211.617 49.472 211.344 49.2396 211.016 49.0664C210.697 48.8841 210.327 48.793 209.908 48.793C209.48 48.793 209.097 48.8704 208.76 49.0254C208.423 49.1803 208.131 49.3945 207.885 49.668C207.648 49.9323 207.465 50.2467 207.338 50.6113C207.21 50.9668 207.146 51.3451 207.146 51.7461C207.146 52.1289 207.201 52.5117 207.311 52.8945C207.42 53.2773 207.584 53.6237 207.803 53.9336C208.021 54.2435 208.29 54.4941 208.609 54.6855C208.938 54.877 209.316 54.9727 209.744 54.9727C210.173 54.9727 210.555 54.8906 210.893 54.7266C211.239 54.5534 211.531 54.3255 211.768 54.043C212.005 53.7513 212.187 53.4186 212.314 53.0449C212.442 52.6712 212.506 52.2839 212.506 51.8828Z" fill="#FF7373"/>
<path d="M236.336 55.082C236.336 56.112 236.322 57.1328 236.295 58.1445C236.277 59.1471 236.245 60.1589 236.199 61.1797L228.324 61.043C228.598 59.4297 228.835 57.821 229.035 56.2168C229.236 54.6035 229.336 52.9766 229.336 51.3359C229.336 51.2174 229.331 51.026 229.322 50.7617C229.313 50.4974 229.295 50.2012 229.268 49.873C229.24 49.5358 229.199 49.194 229.145 48.8477C229.099 48.4922 229.031 48.1686 228.939 47.877C228.857 47.5853 228.753 47.3483 228.625 47.166C228.507 46.9746 228.361 46.8789 228.188 46.8789C227.878 46.8789 227.613 46.9701 227.395 47.1523C227.185 47.3346 227.007 47.5716 226.861 47.8633C226.725 48.1458 226.615 48.4648 226.533 48.8203C226.451 49.1758 226.387 49.5312 226.342 49.8867C226.305 50.2422 226.278 50.5794 226.26 50.8984C226.251 51.2083 226.246 51.4635 226.246 51.6641C226.201 53.2773 226.164 54.8815 226.137 56.4766C226.109 58.0625 226.073 59.6667 226.027 61.2891L219.055 61.5898C219.237 58.3724 219.41 55.1732 219.574 51.9922C219.747 48.8112 219.884 45.612 219.984 42.3945L226.438 42.0664L226.383 44.2539C226.638 43.944 226.911 43.6523 227.203 43.3789C227.504 43.1055 227.823 42.873 228.16 42.6816C228.497 42.4811 228.853 42.3262 229.227 42.2168C229.609 42.0983 230.01 42.0391 230.43 42.0391C231.204 42.0391 231.883 42.1667 232.467 42.4219C233.05 42.6771 233.551 43.0234 233.971 43.4609C234.39 43.8984 234.741 44.418 235.023 45.0195C235.306 45.612 235.534 46.2454 235.707 46.9199C235.88 47.5944 236.012 48.3008 236.104 49.0391C236.195 49.7682 236.254 50.4883 236.281 51.1992C236.318 51.9102 236.336 52.5983 236.336 53.2637C236.336 53.929 236.336 54.5352 236.336 55.082Z" fill="#FF7373"/>
<path d="M143.764 70.2852C143.709 71.1419 143.659 71.9896 143.613 72.8281C143.568 73.6667 143.508 74.5143 143.436 75.3711L137.639 75.6719L137.502 77.3945H141.576L141.275 81.6328L137.174 81.7695L137.037 83.7656H142.834C142.779 84.7682 142.72 85.7663 142.656 86.7598C142.602 87.7441 142.551 88.7331 142.506 89.7266L130.721 90L131.158 70.2852H143.764Z" fill="#FF7373"/>
<path d="M160.785 71.3789L155.453 80.1016L160.266 87.8945L154.551 89.6719L151.816 84.3672L148.918 89.9727L143.012 87.8398L148.043 79.9102L143.449 72.1172L149.711 70.6133L151.953 75.5625L154.332 70.6133L160.785 71.3789Z" fill="#FF7373"/>
<path d="M178.135 88.8242L171.354 89.6992L170.533 86.6094H167.416L166.732 89.6992L159.76 89.0156L165.201 70.8047L172.803 70.4219L178.135 88.8242ZM170.041 82.4258L169.002 77.668L167.99 82.4258H170.041Z" fill="#FF7373"/>
<path d="M202.32 80.7305C202.32 82.0339 202.279 83.3327 202.197 84.627C202.115 85.9212 202.02 87.2201 201.91 88.5234L194.883 88.8516C195.092 87.2656 195.279 85.6797 195.443 84.0938C195.617 82.4987 195.703 80.9036 195.703 79.3086C195.703 79.2083 195.699 79.0352 195.689 78.7891C195.68 78.5339 195.662 78.2467 195.635 77.9277C195.617 77.6087 195.585 77.2806 195.539 76.9434C195.503 76.597 195.448 76.2826 195.375 76C195.311 75.7083 195.229 75.4714 195.129 75.2891C195.029 75.1068 194.91 75.0156 194.773 75.0156C194.454 75.0156 194.204 75.1387 194.021 75.3848C193.839 75.6217 193.702 75.9089 193.611 76.2461C193.529 76.5833 193.479 76.9297 193.461 77.2852C193.443 77.6315 193.434 77.9141 193.434 78.1328C193.434 78.5156 193.443 78.8984 193.461 79.2812C193.479 79.6641 193.488 80.056 193.488 80.457C193.488 81.8698 193.452 83.278 193.379 84.6816C193.315 86.0853 193.233 87.4935 193.133 88.9062L186.652 89.1523C186.862 87.5664 187.044 85.985 187.199 84.4082C187.363 82.8223 187.445 81.2318 187.445 79.6367C187.445 79.5365 187.441 79.3542 187.432 79.0898C187.423 78.8255 187.404 78.5293 187.377 78.2012C187.359 77.873 187.327 77.5312 187.281 77.1758C187.236 76.8203 187.176 76.4967 187.104 76.2051C187.04 75.9043 186.958 75.6582 186.857 75.4668C186.757 75.2754 186.634 75.1797 186.488 75.1797C186.26 75.1797 186.069 75.2708 185.914 75.4531C185.759 75.6263 185.632 75.8542 185.531 76.1367C185.44 76.4193 185.367 76.7337 185.312 77.0801C185.267 77.4173 185.23 77.75 185.203 78.0781C185.185 78.4062 185.171 78.7116 185.162 78.9941C185.162 79.2676 185.158 79.4727 185.148 79.6094L184.848 89.5898H177.957C178.103 88.0495 178.249 86.5046 178.395 84.9551C178.549 83.4056 178.682 81.8607 178.791 80.3203C178.91 78.7708 179.005 77.2214 179.078 75.6719C179.151 74.1224 179.188 72.5729 179.188 71.0234L185.695 70.75L185.668 72.3359C185.868 72.0807 186.096 71.8255 186.352 71.5703C186.607 71.306 186.876 71.0736 187.158 70.873C187.45 70.6634 187.755 70.4948 188.074 70.3672C188.402 70.2396 188.74 70.1758 189.086 70.1758C189.533 70.1758 189.934 70.2122 190.289 70.2852C190.645 70.349 190.964 70.4629 191.246 70.627C191.538 70.791 191.793 71.0189 192.012 71.3105C192.23 71.5931 192.422 71.9531 192.586 72.3906C192.878 72.0716 193.169 71.7754 193.461 71.502C193.762 71.2285 194.076 70.9961 194.404 70.8047C194.732 70.6042 195.088 70.4492 195.471 70.3398C195.854 70.2305 196.277 70.1758 196.742 70.1758C197.626 70.1758 198.378 70.349 198.998 70.6953C199.618 71.0326 200.133 71.4837 200.543 72.0488C200.962 72.6139 201.286 73.2611 201.514 73.9902C201.751 74.7194 201.928 75.4759 202.047 76.2598C202.165 77.0436 202.238 77.8229 202.266 78.5977C202.302 79.3724 202.32 80.0833 202.32 80.7305Z" fill="#FF7373"/>
<path d="M104.238 42.2852C104.184 43.1419 104.133 43.9896 104.088 44.8281C104.042 45.6667 103.983 46.5143 103.91 47.3711L98.1133 47.6719L97.9766 49.3945H102.051L101.75 53.6328L97.6484 53.7695L97.5117 55.7656H103.309C103.254 56.7682 103.195 57.7663 103.131 58.7598C103.076 59.7441 103.026 60.7331 102.98 61.7266L91.1953 62L91.6328 42.2852H104.238Z" stroke="black" stroke-width="6" mask="url(#path-16-outside-1_1025_46)"/>
<path d="M121.26 43.3789L115.928 52.1016L120.74 59.8945L115.025 61.6719L112.291 56.3672L109.393 61.9727L103.486 59.8398L108.518 51.9102L103.924 44.1172L110.186 42.6133L112.428 47.5625L114.807 42.6133L121.26 43.3789Z" stroke="black" stroke-width="6" mask="url(#path-16-outside-1_1025_46)"/>
<path d="M135.725 50.9531C135.725 51.7461 135.67 52.5391 135.561 53.332C134.002 53.4323 132.452 53.5964 130.912 53.8242C129.372 54.043 127.831 54.2617 126.291 54.4805C126.528 55.1367 126.897 55.6608 127.398 56.0527C127.909 56.4447 128.515 56.6406 129.217 56.6406C129.581 56.6406 129.978 56.5723 130.406 56.4355C130.844 56.2988 131.277 56.1302 131.705 55.9297C132.133 55.7201 132.544 55.4967 132.936 55.2598C133.327 55.0228 133.665 54.8086 133.947 54.6172L133.291 60.8242C132.936 61.0977 132.548 61.3301 132.129 61.5215C131.719 61.7129 131.29 61.8678 130.844 61.9863C130.397 62.1048 129.946 62.1914 129.49 62.2461C129.035 62.3008 128.588 62.3281 128.15 62.3281C127.248 62.3281 126.423 62.2051 125.676 61.959C124.928 61.7129 124.249 61.3711 123.639 60.9336C123.037 60.487 122.508 59.9629 122.053 59.3613C121.597 58.7598 121.219 58.1035 120.918 57.3926C120.617 56.6816 120.389 55.9297 120.234 55.1367C120.079 54.3438 120.002 53.5417 120.002 52.7305C120.002 51.8828 120.079 51.0352 120.234 50.1875C120.389 49.3398 120.622 48.5241 120.932 47.7402C121.251 46.9564 121.647 46.2318 122.121 45.5664C122.604 44.8919 123.165 44.304 123.803 43.8027C124.441 43.3014 125.161 42.9095 125.963 42.627C126.774 42.3444 127.667 42.2031 128.643 42.2031C129.454 42.2031 130.192 42.3171 130.857 42.5449C131.532 42.7637 132.129 43.0736 132.648 43.4746C133.177 43.8665 133.633 44.3359 134.016 44.8828C134.408 45.4297 134.727 46.0312 134.973 46.6875C135.228 47.3346 135.415 48.0228 135.533 48.752C135.661 49.472 135.725 50.2057 135.725 50.9531ZM130.256 50.2422C130.256 49.987 130.229 49.7272 130.174 49.4629C130.119 49.1895 130.028 48.9434 129.9 48.7246C129.782 48.5059 129.622 48.3281 129.422 48.1914C129.221 48.0456 128.971 47.9727 128.67 47.9727C128.305 47.9727 127.982 48.0729 127.699 48.2734C127.426 48.4648 127.189 48.7109 126.988 49.0117C126.788 49.3034 126.624 49.6224 126.496 49.9688C126.368 50.3151 126.273 50.6341 126.209 50.9258L130.256 50.543V50.2422Z" stroke="black" stroke-width="6" mask="url(#path-16-outside-1_1025_46)"/>
<path d="M160.334 52.7305C160.334 54.0339 160.293 55.3327 160.211 56.627C160.129 57.9212 160.033 59.2201 159.924 60.5234L152.896 60.8516C153.106 59.2656 153.293 57.6797 153.457 56.0938C153.63 54.4987 153.717 52.9036 153.717 51.3086C153.717 51.2083 153.712 51.0352 153.703 50.7891C153.694 50.5339 153.676 50.2467 153.648 49.9277C153.63 49.6087 153.598 49.2806 153.553 48.9434C153.516 48.597 153.462 48.2826 153.389 48C153.325 47.7083 153.243 47.4714 153.143 47.2891C153.042 47.1068 152.924 47.0156 152.787 47.0156C152.468 47.0156 152.217 47.1387 152.035 47.3848C151.853 47.6217 151.716 47.9089 151.625 48.2461C151.543 48.5833 151.493 48.9297 151.475 49.2852C151.456 49.6315 151.447 49.9141 151.447 50.1328C151.447 50.5156 151.456 50.8984 151.475 51.2812C151.493 51.6641 151.502 52.056 151.502 52.457C151.502 53.8698 151.465 55.278 151.393 56.6816C151.329 58.0853 151.247 59.4935 151.146 60.9062L144.666 61.1523C144.876 59.5664 145.058 57.985 145.213 56.4082C145.377 54.8223 145.459 53.2318 145.459 51.6367C145.459 51.5365 145.454 51.3542 145.445 51.0898C145.436 50.8255 145.418 50.5293 145.391 50.2012C145.372 49.873 145.34 49.5312 145.295 49.1758C145.249 48.8203 145.19 48.4967 145.117 48.2051C145.053 47.9043 144.971 47.6582 144.871 47.4668C144.771 47.2754 144.648 47.1797 144.502 47.1797C144.274 47.1797 144.083 47.2708 143.928 47.4531C143.773 47.6263 143.645 47.8542 143.545 48.1367C143.454 48.4193 143.381 48.7337 143.326 49.0801C143.281 49.4173 143.244 49.75 143.217 50.0781C143.199 50.4062 143.185 50.7116 143.176 50.9941C143.176 51.2676 143.171 51.4727 143.162 51.6094L142.861 61.5898H135.971C136.117 60.0495 136.262 58.5046 136.408 56.9551C136.563 55.4056 136.695 53.8607 136.805 52.3203C136.923 50.7708 137.019 49.2214 137.092 47.6719C137.165 46.1224 137.201 44.5729 137.201 43.0234L143.709 42.75L143.682 44.3359C143.882 44.0807 144.11 43.8255 144.365 43.5703C144.62 43.306 144.889 43.0736 145.172 42.873C145.464 42.6634 145.769 42.4948 146.088 42.3672C146.416 42.2396 146.753 42.1758 147.1 42.1758C147.546 42.1758 147.947 42.2122 148.303 42.2852C148.658 42.349 148.977 42.4629 149.26 42.627C149.551 42.791 149.807 43.0189 150.025 43.3105C150.244 43.5931 150.436 43.9531 150.6 44.3906C150.891 44.0716 151.183 43.7754 151.475 43.502C151.775 43.2285 152.09 42.9961 152.418 42.8047C152.746 42.6042 153.102 42.4492 153.484 42.3398C153.867 42.2305 154.291 42.1758 154.756 42.1758C155.64 42.1758 156.392 42.349 157.012 42.6953C157.632 43.0326 158.146 43.4837 158.557 44.0488C158.976 44.6139 159.299 45.2611 159.527 45.9902C159.764 46.7194 159.942 47.4759 160.061 48.2598C160.179 49.0436 160.252 49.8229 160.279 50.5977C160.316 51.3724 160.334 52.0833 160.334 52.7305Z" stroke="black" stroke-width="6" mask="url(#path-16-outside-1_1025_46)"/>
<path d="M177.52 49.3945C177.52 50.2786 177.387 51.0625 177.123 51.7461C176.859 52.4297 176.494 53.0312 176.029 53.5508C175.574 54.0612 175.036 54.4941 174.416 54.8496C173.796 55.196 173.131 55.4831 172.42 55.7109C171.718 55.9297 170.989 56.0938 170.232 56.2031C169.476 56.3034 168.733 56.3581 168.004 56.3672V62.1914H161.633C161.633 61.1523 161.633 60.1406 161.633 59.1562C161.642 58.1719 161.646 57.1966 161.646 56.2305C161.656 55.2552 161.66 54.2754 161.66 53.291C161.669 52.3066 161.678 51.2904 161.688 50.2422C161.706 49.1302 161.71 48.0182 161.701 46.9062C161.692 45.7943 161.715 44.6732 161.77 43.543C162.936 43.1966 164.103 42.9368 165.27 42.7637C166.436 42.5905 167.639 42.5039 168.879 42.5039C169.581 42.5039 170.283 42.5632 170.984 42.6816C171.686 42.791 172.356 42.9688 172.994 43.2148C173.641 43.4609 174.238 43.7708 174.785 44.1445C175.341 44.5091 175.82 44.9466 176.221 45.457C176.622 45.9674 176.936 46.5508 177.164 47.207C177.401 47.8633 177.52 48.5924 177.52 49.3945ZM171.449 49.8594C171.449 49.2669 171.267 48.8066 170.902 48.4785C170.547 48.1413 170.082 47.9727 169.508 47.9727C169.316 47.9727 169.116 47.9909 168.906 48.0273C168.706 48.0547 168.514 48.0911 168.332 48.1367L168.168 52.1289C168.296 52.1471 168.419 52.1562 168.537 52.1562C168.656 52.1562 168.779 52.1562 168.906 52.1562C169.234 52.1562 169.549 52.1016 169.85 51.9922C170.16 51.8828 170.433 51.7279 170.67 51.5273C170.907 51.3177 171.094 51.0762 171.23 50.8027C171.376 50.5202 171.449 50.2057 171.449 49.8594Z" stroke="black" stroke-width="6" mask="url(#path-16-outside-1_1025_46)"/>
<path d="M192.777 42.7227L192.641 48.5195L188.566 48.6836L188.074 61.3711L182.305 61.6719L181.785 48.9844L177.711 49.2031L177.875 42.75L192.777 42.7227Z" stroke="black" stroke-width="6" mask="url(#path-16-outside-1_1025_46)"/>
<path d="M200.693 42.75L199.736 61.3711L193.967 61.6719L193.42 43.1328L200.693 42.75Z" stroke="black" stroke-width="6" mask="url(#path-16-outside-1_1025_46)"/>
<path d="M218.576 51.5273C218.576 52.3568 218.48 53.1589 218.289 53.9336C218.098 54.6992 217.82 55.4193 217.455 56.0938C217.1 56.7682 216.662 57.388 216.143 57.9531C215.632 58.5091 215.053 58.9876 214.406 59.3887C213.768 59.7897 213.071 60.1042 212.314 60.332C211.558 60.5508 210.756 60.6602 209.908 60.6602C209.088 60.6602 208.304 60.5553 207.557 60.3457C206.818 60.1361 206.126 59.8444 205.479 59.4707C204.831 59.0879 204.243 58.6322 203.715 58.1035C203.195 57.5658 202.749 56.9733 202.375 56.3262C202.01 55.6699 201.723 54.9681 201.514 54.2207C201.313 53.4733 201.213 52.694 201.213 51.8828C201.213 51.0898 201.309 50.3151 201.5 49.5586C201.691 48.793 201.965 48.0729 202.32 47.3984C202.685 46.724 203.122 46.1042 203.633 45.5391C204.143 44.974 204.713 44.4863 205.342 44.0762C205.98 43.666 206.668 43.347 207.406 43.1191C208.145 42.8913 208.924 42.7773 209.744 42.7773C211.066 42.7773 212.269 42.9824 213.354 43.3926C214.447 43.8027 215.377 44.3906 216.143 45.1562C216.917 45.9128 217.514 46.8333 217.934 47.918C218.362 48.9935 218.576 50.1966 218.576 51.5273ZM212.506 51.8828C212.506 51.4909 212.447 51.1126 212.328 50.748C212.219 50.3743 212.055 50.0462 211.836 49.7637C211.617 49.472 211.344 49.2396 211.016 49.0664C210.697 48.8841 210.327 48.793 209.908 48.793C209.48 48.793 209.097 48.8704 208.76 49.0254C208.423 49.1803 208.131 49.3945 207.885 49.668C207.648 49.9323 207.465 50.2467 207.338 50.6113C207.21 50.9668 207.146 51.3451 207.146 51.7461C207.146 52.1289 207.201 52.5117 207.311 52.8945C207.42 53.2773 207.584 53.6237 207.803 53.9336C208.021 54.2435 208.29 54.4941 208.609 54.6855C208.938 54.877 209.316 54.9727 209.744 54.9727C210.173 54.9727 210.555 54.8906 210.893 54.7266C211.239 54.5534 211.531 54.3255 211.768 54.043C212.005 53.7513 212.187 53.4186 212.314 53.0449C212.442 52.6712 212.506 52.2839 212.506 51.8828Z" stroke="black" stroke-width="6" mask="url(#path-16-outside-1_1025_46)"/>
<path d="M236.336 55.082C236.336 56.112 236.322 57.1328 236.295 58.1445C236.277 59.1471 236.245 60.1589 236.199 61.1797L228.324 61.043C228.598 59.4297 228.835 57.821 229.035 56.2168C229.236 54.6035 229.336 52.9766 229.336 51.3359C229.336 51.2174 229.331 51.026 229.322 50.7617C229.313 50.4974 229.295 50.2012 229.268 49.873C229.24 49.5358 229.199 49.194 229.145 48.8477C229.099 48.4922 229.031 48.1686 228.939 47.877C228.857 47.5853 228.753 47.3483 228.625 47.166C228.507 46.9746 228.361 46.8789 228.188 46.8789C227.878 46.8789 227.613 46.9701 227.395 47.1523C227.185 47.3346 227.007 47.5716 226.861 47.8633C226.725 48.1458 226.615 48.4648 226.533 48.8203C226.451 49.1758 226.387 49.5312 226.342 49.8867C226.305 50.2422 226.278 50.5794 226.26 50.8984C226.251 51.2083 226.246 51.4635 226.246 51.6641C226.201 53.2773 226.164 54.8815 226.137 56.4766C226.109 58.0625 226.073 59.6667 226.027 61.2891L219.055 61.5898C219.237 58.3724 219.41 55.1732 219.574 51.9922C219.747 48.8112 219.884 45.612 219.984 42.3945L226.438 42.0664L226.383 44.2539C226.638 43.944 226.911 43.6523 227.203 43.3789C227.504 43.1055 227.823 42.873 228.16 42.6816C228.497 42.4811 228.853 42.3262 229.227 42.2168C229.609 42.0983 230.01 42.0391 230.43 42.0391C231.204 42.0391 231.883 42.1667 232.467 42.4219C233.05 42.6771 233.551 43.0234 233.971 43.4609C234.39 43.8984 234.741 44.418 235.023 45.0195C235.306 45.612 235.534 46.2454 235.707 46.9199C235.88 47.5944 236.012 48.3008 236.104 49.0391C236.195 49.7682 236.254 50.4883 236.281 51.1992C236.318 51.9102 236.336 52.5983 236.336 53.2637C236.336 53.929 236.336 54.5352 236.336 55.082Z" stroke="black" stroke-width="6" mask="url(#path-16-outside-1_1025_46)"/>
<path d="M143.764 70.2852C143.709 71.1419 143.659 71.9896 143.613 72.8281C143.568 73.6667 143.508 74.5143 143.436 75.3711L137.639 75.6719L137.502 77.3945H141.576L141.275 81.6328L137.174 81.7695L137.037 83.7656H142.834C142.779 84.7682 142.72 85.7663 142.656 86.7598C142.602 87.7441 142.551 88.7331 142.506 89.7266L130.721 90L131.158 70.2852H143.764Z" stroke="black" stroke-width="6" mask="url(#path-16-outside-1_1025_46)"/>
<path d="M160.785 71.3789L155.453 80.1016L160.266 87.8945L154.551 89.6719L151.816 84.3672L148.918 89.9727L143.012 87.8398L148.043 79.9102L143.449 72.1172L149.711 70.6133L151.953 75.5625L154.332 70.6133L160.785 71.3789Z" stroke="black" stroke-width="6" mask="url(#path-16-outside-1_1025_46)"/>
<path d="M178.135 88.8242L171.354 89.6992L170.533 86.6094H167.416L166.732 89.6992L159.76 89.0156L165.201 70.8047L172.803 70.4219L178.135 88.8242ZM170.041 82.4258L169.002 77.668L167.99 82.4258H170.041Z" stroke="black" stroke-width="6" mask="url(#path-16-outside-1_1025_46)"/>
<path d="M202.32 80.7305C202.32 82.0339 202.279 83.3327 202.197 84.627C202.115 85.9212 202.02 87.2201 201.91 88.5234L194.883 88.8516C195.092 87.2656 195.279 85.6797 195.443 84.0938C195.617 82.4987 195.703 80.9036 195.703 79.3086C195.703 79.2083 195.699 79.0352 195.689 78.7891C195.68 78.5339 195.662 78.2467 195.635 77.9277C195.617 77.6087 195.585 77.2806 195.539 76.9434C195.503 76.597 195.448 76.2826 195.375 76C195.311 75.7083 195.229 75.4714 195.129 75.2891C195.029 75.1068 194.91 75.0156 194.773 75.0156C194.454 75.0156 194.204 75.1387 194.021 75.3848C193.839 75.6217 193.702 75.9089 193.611 76.2461C193.529 76.5833 193.479 76.9297 193.461 77.2852C193.443 77.6315 193.434 77.9141 193.434 78.1328C193.434 78.5156 193.443 78.8984 193.461 79.2812C193.479 79.6641 193.488 80.056 193.488 80.457C193.488 81.8698 193.452 83.278 193.379 84.6816C193.315 86.0853 193.233 87.4935 193.133 88.9062L186.652 89.1523C186.862 87.5664 187.044 85.985 187.199 84.4082C187.363 82.8223 187.445 81.2318 187.445 79.6367C187.445 79.5365 187.441 79.3542 187.432 79.0898C187.423 78.8255 187.404 78.5293 187.377 78.2012C187.359 77.873 187.327 77.5312 187.281 77.1758C187.236 76.8203 187.176 76.4967 187.104 76.2051C187.04 75.9043 186.958 75.6582 186.857 75.4668C186.757 75.2754 186.634 75.1797 186.488 75.1797C186.26 75.1797 186.069 75.2708 185.914 75.4531C185.759 75.6263 185.632 75.8542 185.531 76.1367C185.44 76.4193 185.367 76.7337 185.312 77.0801C185.267 77.4173 185.23 77.75 185.203 78.0781C185.185 78.4062 185.171 78.7116 185.162 78.9941C185.162 79.2676 185.158 79.4727 185.148 79.6094L184.848 89.5898H177.957C178.103 88.0495 178.249 86.5046 178.395 84.9551C178.549 83.4056 178.682 81.8607 178.791 80.3203C178.91 78.7708 179.005 77.2214 179.078 75.6719C179.151 74.1224 179.188 72.5729 179.188 71.0234L185.695 70.75L185.668 72.3359C185.868 72.0807 186.096 71.8255 186.352 71.5703C186.607 71.306 186.876 71.0736 187.158 70.873C187.45 70.6634 187.755 70.4948 188.074 70.3672C188.402 70.2396 188.74 70.1758 189.086 70.1758C189.533 70.1758 189.934 70.2122 190.289 70.2852C190.645 70.349 190.964 70.4629 191.246 70.627C191.538 70.791 191.793 71.0189 192.012 71.3105C192.23 71.5931 192.422 71.9531 192.586 72.3906C192.878 72.0716 193.169 71.7754 193.461 71.502C193.762 71.2285 194.076 70.9961 194.404 70.8047C194.732 70.6042 195.088 70.4492 195.471 70.3398C195.854 70.2305 196.277 70.1758 196.742 70.1758C197.626 70.1758 198.378 70.349 198.998 70.6953C199.618 71.0326 200.133 71.4837 200.543 72.0488C200.962 72.6139 201.286 73.2611 201.514 73.9902C201.751 74.7194 201.928 75.4759 202.047 76.2598C202.165 77.0436 202.238 77.8229 202.266 78.5977C202.302 79.3724 202.32 80.0833 202.32 80.7305Z" stroke="black" stroke-width="6" mask="url(#path-16-outside-1_1025_46)"/>
</g>
<defs>
<filter id="filter0_d_1025_46" x="84.1263" y="38.9058" width="159.21" height="62.7822" filterUnits="userSpaceOnUse" color-interpolation-filters="sRGB">
<feFlood flood-opacity="0" result="BackgroundImageFix"/>
<feColorMatrix in="SourceAlpha" type="matrix" values="0 0 0 0 0 0 0 0 0 0 0 0 0 0 0 0 0 0 127 0" result="hardAlpha"/>
<feOffset dy="4"/>
<feGaussianBlur stdDeviation="2"/>
<feComposite in2="hardAlpha" operator="out"/>
<feColorMatrix type="matrix" values="0 0 0 0 0 0 0 0 0 0 0 0 0 0 0 0 0 0 0.2 0"/>
<feBlend mode="normal" in2="BackgroundImageFix" result="effect1_dropShadow_1025_46"/>
<feBlend mode="normal" in="SourceGraphic" in2="effect1_dropShadow_1025_46" result="shape"/>
</filter>
</defs>
</svg>
