<svg width="1300" height="1300" viewBox="0 0 1300 1300" fill="none" xmlns="http://www.w3.org/2000/svg">
<g clip-path="url(#clip0_850_49)">
<path fill-rule="evenodd" clip-rule="evenodd" d="M1042.14 11.1899C1105.74 8.3939 1149.21 36.3939 1172.55 95.1899C1179.09 116.463 1178.42 137.463 1170.55 158.19C1161.48 177.351 1150.16 195.018 1136.58 211.19C1122.32 239.4 1109.98 268.4 1099.6 298.19C1097.63 305.378 1096.79 312.711 1097.1 320.19C1098.47 339.563 1100.3 358.897 1102.6 378.19C1103.27 395.207 1102.93 412.207 1101.6 429.19C1095.54 467.439 1088.21 505.439 1079.61 543.19C1055.83 643.168 1032.19 743.17 1008.66 843.19C989.893 919.42 970.236 995.42 949.7 1071.19C943.104 1094 935.109 1116.34 925.715 1138.19C919.559 1149.85 912.894 1161.19 905.728 1172.19C884.562 1201.35 856.411 1220.19 821.284 1228.69C797.76 1232.91 774.115 1233.91 750.331 1231.69C708.002 1226.13 665.696 1220.46 623.414 1214.69C596.456 1209.03 569.474 1203.37 542.467 1197.69C529.557 1195.25 517.565 1197.59 506.491 1204.69C495.946 1214.24 486.452 1224.74 478.01 1236.19C470.515 1243.69 463.02 1251.19 455.525 1258.69C442.416 1268.79 428.093 1276.79 412.553 1282.69C356.548 1298.13 314.409 1280.63 286.136 1230.19C280.768 1217.69 274.106 1206.03 266.149 1195.19C259.637 1189.35 252.142 1185.18 243.664 1182.69C224.688 1180.63 205.701 1178.63 186.701 1176.69C144.942 1169.82 109.465 1151.32 80.2714 1121.19C46.2718 1079.57 42.94 1035.57 70.278 989.19C80.6092 973.51 93.101 959.68 107.753 947.69C118.413 939.69 129.072 931.69 139.732 923.69C146.319 917.1 152.148 909.94 157.221 902.19C159.372 895.92 161.371 889.58 163.217 883.19C166.515 852.72 172.177 822.72 180.206 793.19C204.174 720.56 231.489 649.225 262.152 579.19C272.611 556.917 284.603 535.584 298.128 515.19C305.873 500.354 312.535 485.021 318.115 469.19C325.13 441.109 332.46 413.109 340.101 385.19C384.591 250.003 471.368 152.503 600.429 92.6899C641.141 75.2539 683.447 63.2539 727.346 56.6899C759.321 53.0239 791.304 49.3569 823.283 45.6899C843.15 41.3769 863.137 37.7109 883.243 34.6899C909.596 33.1229 935.919 31.1229 962.191 28.6899C988.894 22.5149 1015.55 16.6809 1042.14 11.1899Z" fill="#FDFDFD"/>
<path fill-rule="evenodd" clip-rule="evenodd" d="M1144.07 163.19C1139.47 164.073 1134.81 164.407 1130.08 164.19C1122.42 163.256 1114.75 162.256 1107.1 161.19C1101.02 158.579 1094.69 156.412 1088.11 154.69C1079.83 149.412 1071.84 143.745 1064.12 137.69C1059.71 137.34 1055.38 137.84 1051.13 139.19C1047.19 139.572 1043.53 140.572 1040.14 142.19C1023.62 145.43 1007.29 149.43 991.172 154.19C986.116 155.178 986.116 156.511 991.172 158.19C1015.18 171.591 1039.16 185.091 1063.12 198.69C1071.54 204.436 1079.36 210.936 1086.61 218.19C1089.89 224.48 1090.89 231.147 1089.61 238.19C1086.12 246.5 1082.12 254.5 1077.62 262.19C1074.45 265.689 1070.61 268.023 1066.12 269.19C1062.73 269.348 1059.39 269.014 1056.13 268.19C1055.8 268.19 1055.46 268.19 1055.13 268.19C1051.61 267.383 1047.94 266.716 1044.14 266.19C1022.14 252.179 999.487 239.179 976.182 227.19C970.766 222.634 965.109 218.301 959.193 214.19C957.864 215.857 957.864 217.523 959.193 219.19C964.49 222.495 969.486 226.162 974.183 230.19C982.728 238.634 987.565 248.967 988.674 261.19C989.004 271.19 989.343 281.19 989.673 291.19C1012.56 299.75 1031.88 313.417 1047.64 332.19C1051.4 336.725 1054.4 341.725 1056.63 347.19C1060.85 363.582 1062.18 380.248 1060.63 397.19C1059.73 406.506 1059.06 415.84 1058.63 425.19C1056.74 426.716 1055.74 428.716 1055.63 431.19C1054.19 439.882 1052.69 448.549 1051.13 457.19C1049.71 459.205 1049.04 461.538 1049.13 464.19C1049.13 464.523 1049.13 464.857 1049.13 465.19C1047.41 469.573 1046.41 474.24 1046.14 479.19C1044.97 482.732 1044.3 486.399 1044.14 490.19C1042.72 492.205 1042.05 494.538 1042.14 497.19C1042.14 497.523 1042.14 497.857 1042.14 498.19C1040.91 501.696 1039.91 505.363 1039.14 509.19C1039.14 509.857 1039.14 510.523 1039.14 511.19C1037.72 513.205 1037.05 515.538 1037.14 518.19C1037.14 518.523 1037.14 518.857 1037.14 519.19C1035.77 522.988 1034.77 526.988 1034.14 531.19C1034.14 531.523 1034.14 531.857 1034.14 532.19C1032.72 534.205 1032.06 536.538 1032.15 539.19C1031.31 541.069 1030.98 543.069 1031.15 545.19C1029.37 548.195 1028.37 551.528 1028.15 555.19C1025.17 566.432 1022.51 577.765 1020.15 589.19C1018.73 591.205 1018.06 593.538 1018.15 596.19C1017.24 599.107 1016.58 602.107 1016.16 605.19C1014.74 607.205 1014.07 609.538 1014.16 612.19C1013.11 615.418 1012.45 618.751 1012.16 622.19C1009.42 630.237 1007.42 638.57 1006.16 647.19C1001.31 667.791 996.639 688.457 992.172 709.19C990.752 711.2 990.083 713.54 990.173 716.19C989.084 720.08 988.414 724.08 988.174 728.19C986.755 730.2 986.086 732.54 986.175 735.19C983.257 746.8 980.589 758.47 978.181 770.19C976.762 772.2 976.092 774.54 976.182 777.19C975.343 779.07 975.013 781.07 975.183 783.19C973.404 786.19 972.405 789.53 972.185 793.19C969.247 803.36 966.918 813.69 965.189 824.19C963.62 825.79 962.951 827.79 963.191 830.19C961.652 836.14 960.322 842.14 959.193 848.19C957.774 850.2 957.105 852.54 957.195 855.19C954.326 864.7 951.998 874.37 950.199 884.19C948.78 886.2 948.111 888.54 948.2 891.19C948.2 891.52 948.2 891.86 948.2 892.19C946.502 896.98 945.162 901.98 944.203 907.19C942.734 911.39 941.735 915.73 941.205 920.19C939.786 922.2 939.116 924.54 939.206 927.19C939.206 927.52 939.206 927.86 939.206 928.19C937.507 932.98 936.168 937.98 935.209 943.19C933.74 947.39 932.741 951.73 932.211 956.19C930.792 958.2 930.122 960.54 930.212 963.19C930.212 963.52 930.212 963.86 930.212 964.19C928.433 967.19 927.434 970.53 927.214 974.19C923.836 985.74 920.838 997.41 918.22 1009.19C916.461 1012.54 915.462 1016.21 915.222 1020.19C915.222 1020.52 915.222 1020.86 915.222 1021.19C913.443 1024.19 912.444 1027.53 912.224 1031.19C911.425 1032.73 911.095 1034.4 911.225 1036.19C909.656 1037.79 908.986 1039.79 909.226 1042.19C907.527 1046.98 906.188 1051.98 905.229 1057.19C905.229 1057.86 905.229 1058.52 905.229 1059.19C903.12 1063.19 901.791 1067.53 901.231 1072.19C898.383 1080.74 895.725 1089.41 893.237 1098.19C891.668 1099.79 890.998 1101.79 891.238 1104.19C885.652 1122.72 877.827 1140.38 867.753 1157.19C856.571 1170.37 842.42 1178.2 825.281 1180.69C793.772 1181.44 762.791 1177.77 732.342 1169.69C721.264 1168.46 710.271 1166.96 699.364 1165.19C694.948 1163.72 690.284 1163.05 685.373 1163.19C658.182 1161.63 631.2 1158.63 604.427 1154.19C602.413 1152.77 600.081 1152.1 597.431 1152.19C569.695 1146.88 544.045 1136.38 520.482 1120.69C491.378 1099.81 480.718 1071.64 488.503 1036.19C490.583 1030.15 491.582 1023.82 491.501 1017.19C493.651 1002.76 496.317 988.43 499.496 974.19C501.652 967.76 503.318 961.09 504.492 954.19C506.189 942.36 508.522 930.7 511.488 919.19C512.854 914.72 513.853 910.05 514.486 905.19C516.454 894 518.786 883 521.481 872.19C524.406 863.89 526.071 855.22 526.478 846.19C529.89 834.13 532.554 821.8 534.473 809.19C538.296 786.4 542.626 763.73 547.464 741.19C549.251 736.1 550.583 730.77 551.461 725.19C556.481 696.38 562.144 667.715 568.45 639.19C569.873 637.175 570.539 634.842 570.449 632.19C572.319 620.835 574.317 609.502 576.445 598.19C577.062 598.079 577.561 597.746 577.944 597.19C579.115 591.836 580.281 586.503 581.442 581.19C582.139 574.367 583.471 567.701 585.439 561.19C586.841 557.781 587.508 554.115 587.438 550.19C589.749 539.635 592.081 528.969 594.433 518.19C596.006 516.588 596.673 514.588 596.432 512.19C598.515 500.106 600.846 488.106 603.427 476.19C605.388 470.455 606.721 464.455 607.425 458.19C607.425 457.523 607.425 456.857 607.425 456.19C609.374 451.506 610.374 446.506 610.423 441.19C611.529 436.879 612.528 432.546 613.421 428.19C615.962 418.794 617.627 409.127 618.417 399.19C620.825 384.144 623.49 369.144 626.412 354.19C629.006 346.863 630.339 339.196 630.41 331.19C633.526 313.66 639.689 297.327 648.897 282.19C659.624 269.417 672.449 259.417 687.372 252.19C689.837 251.935 691.836 250.935 693.368 249.19C704.336 244.195 715.994 241.195 728.345 240.19C737.177 239.813 745.839 239.147 754.328 238.19C765.581 212.06 785.238 196.727 813.289 192.19C821.794 191.83 830.118 191.163 838.273 190.19C840.331 184.948 841.661 179.281 842.27 173.19C843.909 169.48 844.569 165.48 844.269 161.19C831.767 160.861 819.445 161.195 807.293 162.19C799.228 162.317 791.234 162.984 783.309 164.19C776.393 164.346 769.728 165.346 763.322 167.19C755.596 168.201 747.934 169.534 740.337 171.19C737.466 171.492 734.802 172.159 732.342 173.19C637.58 197.682 564.128 251.349 511.987 334.19C502.949 350.952 493.955 367.618 485.005 384.19C480.846 395.182 476.683 406.182 472.513 417.19C470.94 418.792 470.274 420.792 470.515 423.19C468.544 425.774 467.545 428.774 467.517 432.19C465.944 433.792 465.277 435.792 465.518 438.19C463.742 441.195 462.743 444.528 462.52 448.19C459.763 454.894 458.097 461.894 457.523 469.19C454.859 475.491 453.194 482.158 452.527 489.19C451.585 493.108 450.92 497.108 450.528 501.19C448.975 505.257 448.309 509.59 448.529 514.19C447.811 516.454 447.478 518.787 447.53 521.19C445.972 525.288 445.472 529.621 446.031 534.19C448.33 535.557 450.829 536.224 453.526 536.19C464.251 538.255 470.58 544.588 472.513 555.19C472.77 558.861 473.77 562.195 475.511 565.19C477.685 574.401 479.351 583.735 480.508 593.19C480.452 598.421 481.119 603.421 482.507 608.19C483.659 624.871 484.991 641.537 486.504 658.19C486.444 670.383 487.11 682.383 488.503 694.19C488.503 701.52 488.503 708.86 488.503 716.19C489.352 752.52 489.685 788.85 489.502 825.19C488.92 854.52 488.42 883.85 488.003 913.19C487.542 917.74 486.375 922.07 484.506 926.19C478.979 935.55 471.318 942.72 461.521 947.69C449.537 953.53 436.879 957.53 423.546 959.69C433.878 961.11 443.871 963.77 453.526 967.69C471.806 979.91 476.303 996.08 467.017 1016.19C464.761 1019.7 462.263 1023.04 459.522 1026.19C467.563 1035.38 469.395 1045.72 465.018 1057.19C456.133 1075.73 441.31 1085.4 420.548 1086.19C408.885 1085.86 397.892 1083.03 387.569 1077.69C378.817 1071.01 374.82 1062.17 375.577 1051.19C352.927 1045.89 342.434 1031.55 344.098 1008.19C346.126 994.5 353.621 985.33 366.583 980.69C370.655 980.17 374.653 980.17 378.575 980.69C383.607 973.15 390.269 967.65 398.562 964.19C399.983 963.98 401.315 963.48 402.559 962.69C390.572 962.19 378.58 962.02 366.583 962.19C360.906 962.06 355.243 961.72 349.594 961.19C319.807 958.74 291.159 951.9 263.651 940.69C250.665 934.61 239.173 926.44 229.173 916.19C222.801 908.38 219.303 899.38 218.68 889.19C215.018 885.62 213.852 881.28 215.183 876.19C230.417 826.29 246.906 776.96 264.65 728.19C266.39 726.3 267.389 723.96 267.648 721.19C282.267 683.79 296.757 646.457 311.12 609.19C316.696 595.276 323.025 581.609 330.107 568.19C335.177 559.217 341.34 551.05 348.595 543.69C356.362 538.601 364.689 534.768 373.578 532.19C374.069 512.405 375.402 492.738 377.576 473.19C379.54 466.077 380.872 458.743 381.573 451.19C381.573 450.523 381.573 449.857 381.573 449.19C383.651 443.817 384.983 438.151 385.571 432.19C389.901 416.857 394.232 401.523 398.562 386.19C400.302 384.295 401.301 381.962 401.56 379.19C438.903 281.316 503.528 207.149 595.433 156.69C619.739 144.104 645.055 133.938 671.383 126.19C674.734 125.943 677.732 124.943 680.377 123.19C700.453 117.905 720.773 113.905 741.337 111.19C746.564 111.246 751.561 110.579 756.327 109.19C764.281 108.303 772.276 107.637 780.311 107.19C796.98 107.091 813.629 107.425 830.278 108.19C839.622 108.676 848.946 109.343 858.26 110.19C863.496 96.7059 873.16 88.3729 887.241 85.1899C893.217 84.6159 899.213 84.2829 905.229 84.1899C927.374 85.1869 947.521 91.8539 965.689 104.19C988.954 88.9689 1013.11 75.4689 1038.14 63.6899C1082.91 50.5749 1115.72 64.7419 1136.58 106.19C1143.17 120.72 1148 135.887 1151.07 151.69C1150.64 156.725 1148.31 160.558 1144.07 163.19Z" fill="#040303"/>
<path fill-rule="evenodd" clip-rule="evenodd" d="M1064.12 77.19C1071.35 77.097 1078.02 78.764 1084.11 82.19C1083.51 82.425 1083.18 82.925 1083.11 83.69C1085.88 89.387 1089.04 94.887 1092.61 100.19C1096.07 108.469 1100.07 116.469 1104.6 124.19C1107.35 129.876 1108.52 135.876 1108.1 142.19C1103.74 140.847 1099.4 139.347 1095.1 137.69C1087.44 132.023 1079.78 126.357 1072.12 120.69C1064.31 116.426 1055.98 115.093 1047.14 116.69C1026.26 120.965 1005.61 125.798 985.176 131.19C984.437 131.321 983.767 131.154 983.177 130.69C990.802 123.547 998.797 116.88 1007.16 110.69C1026.57 99.988 1045.56 88.821 1064.12 77.19Z" fill="#3F404C"/>
<path fill-rule="evenodd" clip-rule="evenodd" d="M1064.12 77.1899C1045.56 88.8209 1026.57 99.9879 1007.16 110.69C998.797 116.88 990.803 123.547 983.178 130.69C983.767 131.154 984.437 131.321 985.176 131.19C975.922 134.137 966.599 137.137 957.195 140.19C957.025 136.84 957.195 133.507 957.694 130.19C983.997 111.939 1011.81 96.1059 1041.14 82.6899C1048.38 79.1399 1056.05 77.3059 1064.12 77.1899Z" fill="#252734"/>
<path fill-rule="evenodd" clip-rule="evenodd" d="M905.229 84.1899C899.213 84.2829 893.217 84.6159 887.241 85.1899C890.808 83.7869 894.646 83.1209 898.733 83.1899C901.092 83.1939 903.26 83.5269 905.229 84.1899Z" fill="#6F6F6F"/>
<path fill-rule="evenodd" clip-rule="evenodd" d="M1084.11 82.1899C1101.58 97.7959 1112.9 117.13 1118.09 140.19C1118.09 141.19 1118.09 142.19 1118.09 143.19C1116.76 143.19 1115.42 143.19 1114.09 143.19C1112.03 143.173 1110.03 142.84 1108.1 142.19C1108.52 135.876 1107.35 129.876 1104.6 124.19C1100.07 116.469 1096.07 108.469 1092.61 100.19C1089.04 94.8869 1085.88 89.3869 1083.11 83.6899C1083.18 82.9249 1083.51 82.4249 1084.11 82.1899Z" fill="#EFEFEF"/>
<path fill-rule="evenodd" clip-rule="evenodd" d="M915.222 104.19C914.153 104.941 913.983 105.941 914.723 107.19C918.45 110.642 922.617 113.475 927.214 115.69C929.333 117.421 930.832 119.588 931.711 122.19C932.621 140.233 932.121 158.233 930.212 176.19C930.382 178.19 930.542 180.19 930.712 182.19C931.132 183.446 931.961 184.113 933.21 184.19C931.392 187.536 930.722 191.203 931.212 195.19C920.649 191.113 910.655 185.946 901.232 179.69C892.987 173.439 886.151 165.939 880.745 157.19C880.005 151.132 880.335 145.132 881.744 139.19C885.412 130.187 889.08 121.187 892.737 112.19C893.237 109.208 893.397 106.208 893.237 103.19C900.712 101.982 908.037 102.316 915.222 104.19Z" fill="#40414D"/>
<path fill-rule="evenodd" clip-rule="evenodd" d="M893.237 103.19C893.396 106.208 893.237 109.208 892.737 112.19C889.079 121.187 885.412 130.187 881.744 139.19C880.335 145.132 880.005 151.132 880.745 157.19C886.151 165.939 892.987 173.439 901.231 179.69C910.655 185.946 920.649 191.113 931.212 195.19C929.912 199.05 929.243 203.05 929.213 207.19C921.158 205.006 913.163 202.506 905.229 199.69C889.339 196.428 873.35 193.928 857.26 192.19C859.089 168.542 863.916 145.542 871.751 123.19C874.569 116.388 878.726 110.555 884.243 105.69C887.051 104.141 890.049 103.308 893.237 103.19Z" fill="#262835"/>
<path fill-rule="evenodd" clip-rule="evenodd" d="M780.311 107.19C786.797 106.524 793.462 106.19 800.298 106.19C810.501 106.022 820.495 106.689 830.278 108.19C813.629 107.425 796.98 107.091 780.311 107.19Z" fill="#C2C2C2"/>
<path fill-rule="evenodd" clip-rule="evenodd" d="M915.222 104.19C923.757 105.902 931.581 109.235 938.707 114.19C939.186 115.138 939.356 116.138 939.206 117.19C939.146 128.866 938.817 140.533 938.207 152.19C936.948 158.144 935.948 164.144 935.209 170.19C933.66 174.257 932.99 178.59 933.21 183.19C933.21 183.523 933.21 183.857 933.21 184.19C931.961 184.113 931.132 183.446 930.712 182.19C930.542 180.19 930.382 178.19 930.212 176.19C932.121 158.233 932.621 140.233 931.711 122.19C930.832 119.588 929.333 117.421 927.214 115.69C922.617 113.475 918.45 110.642 914.722 107.19C913.983 105.941 914.153 104.941 915.222 104.19Z" fill="#EEEEEE"/>
<path fill-rule="evenodd" clip-rule="evenodd" d="M756.327 109.19C751.561 110.579 746.564 111.246 741.337 111.19C746.103 109.801 751.099 109.134 756.327 109.19Z" fill="#4E4E4E"/>
<path fill-rule="evenodd" clip-rule="evenodd" d="M680.377 123.19C677.732 124.943 674.734 125.943 671.383 126.19C674.027 124.437 677.025 123.437 680.377 123.19Z" fill="#676767"/>
<path fill-rule="evenodd" clip-rule="evenodd" d="M766.32 126.19C794.332 125.806 822.313 126.473 850.265 128.19C849.306 132.463 848.636 136.796 848.266 141.19C762.17 135.971 682.222 154.805 608.424 197.69C534.411 245.416 481.279 310.249 449.029 392.19C434.516 429.267 424.19 467.601 418.049 507.19C417.539 514.573 416.706 521.906 415.551 529.19C407.969 529.504 400.474 529.171 393.066 528.19C396.579 384.636 457.04 272.136 574.446 190.69C633.293 153.806 697.251 132.306 766.32 126.19Z" fill="#262835"/>
<path fill-rule="evenodd" clip-rule="evenodd" d="M939.206 117.19C939.876 121.176 940.206 125.343 940.206 129.69C940.276 137.404 939.606 144.904 938.207 152.19C938.817 140.533 939.146 128.866 939.206 117.19Z" fill="#3A3A3A"/>
<path fill-rule="evenodd" clip-rule="evenodd" d="M1051.13 139.19C1047.83 141.06 1044.16 142.06 1040.14 142.19C1043.53 140.572 1047.19 139.572 1051.13 139.19Z" fill="#929292"/>
<path fill-rule="evenodd" clip-rule="evenodd" d="M1118.09 140.19C1119.02 141.258 1119.36 142.591 1119.09 144.19C1117.18 144.474 1115.51 144.141 1114.09 143.19C1115.42 143.19 1116.76 143.19 1118.09 143.19C1118.09 142.19 1118.09 141.19 1118.09 140.19Z" fill="#868686"/>
<path fill-rule="evenodd" clip-rule="evenodd" d="M991.172 154.19C989.843 155.523 989.843 156.857 991.172 158.19C986.116 156.511 986.116 155.178 991.172 154.19Z" fill="#929292"/>
<path fill-rule="evenodd" clip-rule="evenodd" d="M807.293 162.19C819.445 161.195 831.767 160.861 844.269 161.19C844.569 165.48 843.909 169.48 842.27 173.19C842.32 169.492 842.66 165.825 843.27 162.19C831.277 162.19 819.285 162.19 807.293 162.19Z" fill="#7C7C7C"/>
<path fill-rule="evenodd" clip-rule="evenodd" d="M1107.1 161.19C1114.75 162.256 1122.42 163.256 1130.08 164.19C1130.08 164.523 1130.08 164.857 1130.08 165.19C1122.76 164.405 1115.43 163.572 1108.1 162.69C1107.54 162.307 1107.21 161.807 1107.1 161.19Z" fill="#B4B4B4"/>
<path fill-rule="evenodd" clip-rule="evenodd" d="M614.657 523.5C643.48 539.367 673.128 553.367 703.599 565.5C704.072 566.906 705.071 567.573 706.597 567.5C710.996 569.016 715.326 570.683 719.588 572.5C721.482 574.241 723.814 575.241 726.584 575.5C733.857 577.795 741.185 580.128 748.569 582.5C749.022 583.458 749.688 584.292 750.568 585C754.881 585.996 759.211 586.83 763.56 587.5C774.013 590.652 784.676 592.985 795.538 594.5C804.133 597.756 813.127 599.756 822.521 600.5C827.587 600.747 832.584 601.413 837.511 602.5C841.578 604.054 845.905 604.72 850.502 604.5C886.718 609.148 923.025 609.815 959.431 606.5C966.916 606.963 974.251 606.296 981.416 604.5C976.749 621.171 972.082 637.838 967.425 654.5C966.006 656.515 965.337 658.848 965.427 661.5C963.898 666.765 962.569 672.098 961.429 677.5C960.01 679.515 959.341 681.848 959.431 684.5C958.511 687.42 957.852 690.42 957.432 693.5C956.013 695.51 955.343 697.85 955.433 700.5C950.397 719.31 945.73 738.31 941.443 757.5C940.023 759.51 939.354 761.85 939.444 764.5C938.934 767.54 938.265 770.54 937.445 773.5C936.026 775.51 935.357 777.85 935.446 780.5C933.937 785.71 932.938 791.04 932.448 796.5C931.029 798.51 930.36 800.85 930.45 803.5C927.592 814.1 924.923 824.77 922.455 835.5C921.036 837.51 920.366 839.85 920.456 842.5C918.148 850.4 916.149 858.4 914.46 866.5C913.731 867.81 912.891 869.14 911.962 870.5C910.483 880.74 908.314 890.74 905.466 900.5C895.962 947.38 884.3 993.72 870.489 1039.5C869.07 1041.51 868.401 1043.85 868.49 1046.5C862.574 1070.62 854.75 1093.96 845.006 1116.5C842.817 1121.71 839.989 1126.55 836.512 1131C810.199 1147.24 781.548 1153.74 750.568 1150.5C742.059 1149.07 733.398 1147.74 724.585 1146.5C721.517 1146.63 718.519 1146.3 715.591 1145.5C711.175 1144.03 706.511 1143.36 701.6 1143.5C695.822 1143.69 690.16 1143.02 684.611 1141.5C680.214 1139.9 675.551 1139.23 670.621 1139.5C670.288 1139.5 669.954 1139.5 669.621 1139.5C657.915 1136.88 645.923 1135.88 633.645 1136.5C632.646 1136.5 631.646 1136.5 630.647 1136.5C626.583 1134.95 622.252 1134.28 617.655 1134.5C607.372 1133.34 597.379 1131.34 587.675 1128.5C586.074 1126.93 584.076 1126.26 581.679 1126.5C573.919 1124.95 566.591 1122.28 559.694 1118.5C559.221 1117.09 558.222 1116.43 556.696 1116.5C540.29 1110.2 526.134 1100.54 514.224 1087.5C512.187 1084.76 510.688 1081.76 509.726 1078.5C506.535 1063.31 505.868 1047.98 507.728 1032.5C507.728 1031.5 507.728 1030.5 507.728 1029.5C510.936 1017.44 513.268 1005.11 514.723 992.5C514.723 992.17 514.723 991.83 514.723 991.5C515.445 991.08 515.944 990.42 516.222 989.5C516.719 986.85 516.886 984.19 516.722 981.5C516.779 980.39 517.112 979.39 517.721 978.5C519.398 974.36 521.564 970.36 524.217 966.5C526.127 953.95 527.293 941.28 527.715 928.5C530.252 916.47 532.917 904.47 535.709 892.5C537.968 887.53 538.967 882.19 538.707 876.5C540.752 868.27 542.417 859.94 543.704 851.5C544.321 851.39 544.82 851.06 545.203 850.5C545.77 847.83 546.269 845.17 546.702 842.5C549.77 835.76 552.768 828.93 555.696 822C553.761 817.69 552.761 813.19 552.698 808.5C555.393 791.02 558.724 773.68 562.692 756.5C563.308 756.39 563.808 756.06 564.191 755.5C564.687 752.85 564.854 750.19 564.69 747.5C566.113 745.49 566.779 743.15 566.689 740.5C571.175 714.39 576.172 688.39 581.679 662.5C582.296 662.389 582.795 662.056 583.178 661.5C584.252 657.23 584.752 652.897 584.677 648.5C584.677 648.167 584.677 647.833 584.677 647.5C586.25 645.898 586.917 643.898 586.676 641.5C587.501 634.374 588.833 627.374 590.673 620.5C591.29 620.389 591.789 620.056 592.172 619.5C593.941 613.275 595.107 606.941 595.67 600.5C597.161 590.04 599.16 579.706 601.666 569.5C603.089 567.485 603.755 565.152 603.665 562.5C605.13 555.835 606.463 549.168 607.662 542.5C609.085 540.485 609.751 538.152 609.661 535.5C609.661 535.167 609.661 534.833 609.661 534.5C611.185 530.658 612.851 526.991 614.657 523.5Z" fill="#FD292C"/>
<path fill-rule="evenodd" clip-rule="evenodd" d="M1144.07 163.19C1143.96 163.807 1143.63 164.307 1143.07 164.69C1138.76 165.189 1134.43 165.356 1130.08 165.19C1130.08 164.857 1130.08 164.523 1130.08 164.19C1134.81 164.407 1139.47 164.073 1144.07 163.19Z" fill="#6B6B6B"/>
<path fill-rule="evenodd" clip-rule="evenodd" d="M783.309 164.19C776.903 166.034 770.238 167.034 763.322 167.19C769.728 165.346 776.394 164.346 783.309 164.19Z" fill="#A8A8A8"/>
<path fill-rule="evenodd" clip-rule="evenodd" d="M967.188 169.19C965.429 176.194 966.598 182.861 970.686 189.19C973.334 192.67 976.162 196.004 979.18 199.19C1004.77 212.998 1030.76 225.665 1057.13 237.19C1055.31 241.491 1052.98 245.491 1050.13 249.19C1030.1 235.494 1009.11 223.328 987.175 212.69C974.793 204.965 962.971 196.465 951.698 187.19C952.278 179.546 953.107 171.879 954.197 164.19C958.913 165.06 963.251 166.726 967.188 169.19Z" fill="#262834"/>
<path fill-rule="evenodd" clip-rule="evenodd" d="M967.188 169.19C985.576 179.967 1003.9 190.634 1022.15 201.19C1020.91 201.5 1020.91 202 1022.15 202.69C1034.33 213.383 1046.33 224.216 1058.13 235.19C1057.8 235.857 1057.46 236.523 1057.13 237.19C1030.76 225.665 1004.77 212.998 979.18 199.19C976.162 196.004 973.334 192.67 970.686 189.19C966.599 182.861 965.429 176.194 967.188 169.19Z" fill="#3F404C"/>
<path fill-rule="evenodd" clip-rule="evenodd" d="M740.337 171.19C738.059 172.913 735.394 173.579 732.343 173.19C734.802 172.159 737.466 171.492 740.337 171.19Z" fill="#929292"/>
<path fill-rule="evenodd" clip-rule="evenodd" d="M935.209 170.19C935.429 174.79 934.759 179.123 933.21 183.19C932.991 178.59 933.66 174.257 935.209 170.19Z" fill="#474747"/>
<path fill-rule="evenodd" clip-rule="evenodd" d="M838.273 190.19C830.118 191.163 821.794 191.83 813.289 192.19C815.078 191.381 817.077 190.881 819.285 190.69C825.601 190.19 831.937 190.024 838.273 190.19Z" fill="#4D4D4D"/>
<path fill-rule="evenodd" clip-rule="evenodd" d="M1022.15 201.19C1036.54 208.39 1049.53 217.556 1061.13 228.69C1059.72 230.668 1058.72 232.835 1058.13 235.19C1046.33 224.216 1034.33 213.383 1022.15 202.69C1020.91 202 1020.91 201.5 1022.15 201.19Z" fill="#E9E9EA"/>
<path fill-rule="evenodd" clip-rule="evenodd" d="M845.268 209.19C833.886 208.993 822.553 209.66 811.291 211.19C815.048 209.858 819.045 209.025 823.283 208.69C830.788 207.868 838.123 208.035 845.268 209.19Z" fill="#6F1010"/>
<path fill-rule="evenodd" clip-rule="evenodd" d="M845.268 209.19C851.654 209.336 857.99 210.003 864.256 211.19C869.362 212.734 874.689 213.734 880.245 214.19C880.575 214.19 880.915 214.19 881.245 214.19C881.355 214.807 881.684 215.307 882.244 215.69C891.058 217.875 899.722 220.375 908.227 223.19C920.389 227.537 930.882 234.537 939.706 244.19C946.022 254.91 949.52 266.577 950.199 279.19C931.691 272.921 913.034 267.255 894.236 262.19C892.117 260.035 889.459 259.035 886.241 259.19C872.31 255.205 858.32 251.539 844.269 248.19C844.159 247.573 843.829 247.073 843.27 246.69C835.375 244.762 827.38 243.596 819.285 243.19C804.255 241.909 789.265 240.242 774.315 238.19C782.08 223.121 794.402 214.121 811.291 211.19C822.553 209.66 833.886 208.993 845.268 209.19Z" fill="#BD1B1B"/>
<path fill-rule="evenodd" clip-rule="evenodd" d="M864.256 211.19C869.912 211.131 875.239 212.131 880.245 214.19C874.689 213.734 869.363 212.734 864.256 211.19Z" fill="#741111"/>
<path fill-rule="evenodd" clip-rule="evenodd" d="M881.245 214.19C891.728 215.561 902.051 217.728 912.224 220.69C912.784 221.073 913.114 221.573 913.224 222.19C911.275 221.367 909.276 221.2 907.228 221.69C907.787 222.073 908.117 222.573 908.227 223.19C899.722 220.375 891.058 217.875 882.244 215.69C881.684 215.307 881.355 214.807 881.245 214.19Z" fill="#DDC7C6"/>
<path fill-rule="evenodd" clip-rule="evenodd" d="M913.224 222.19C921.938 225.71 930.602 229.543 939.207 233.69C951.279 239.352 957.774 248.852 958.694 262.19C959.193 268.848 959.363 275.515 959.193 282.19C955.906 282.043 952.907 281.043 950.199 279.19C949.52 266.577 946.022 254.91 939.706 244.19C930.882 234.537 920.389 227.537 908.227 223.19C908.117 222.573 907.787 222.073 907.228 221.69C909.276 221.2 911.275 221.367 913.224 222.19Z" fill="#F4EFEF"/>
<path fill-rule="evenodd" clip-rule="evenodd" d="M976.182 227.19C974.633 227.511 973.973 228.511 974.183 230.19C969.486 226.162 964.49 222.495 959.193 219.19C957.864 217.523 957.864 215.857 959.193 214.19C965.109 218.301 970.766 222.634 976.182 227.19Z" fill="#D5D5D5"/>
<path fill-rule="evenodd" clip-rule="evenodd" d="M754.328 238.19C745.839 239.147 737.177 239.813 728.345 240.19C736.773 238.444 745.434 237.778 754.328 238.19Z" fill="#474747"/>
<path fill-rule="evenodd" clip-rule="evenodd" d="M819.285 243.19C827.38 243.596 835.375 244.762 843.27 246.69C843.829 247.073 844.159 247.573 844.269 248.19C835.745 246.884 827.42 245.217 819.285 243.19Z" fill="#761111"/>
<path fill-rule="evenodd" clip-rule="evenodd" d="M693.368 249.19C691.836 250.935 689.837 251.935 687.372 252.19C688.904 250.445 690.903 249.445 693.368 249.19Z" fill="#5D5D5D"/>
<path fill-rule="evenodd" clip-rule="evenodd" d="M759.325 257.19C764.489 257.878 769.818 258.044 775.314 257.69C779.721 260.604 784.548 262.104 789.805 262.19C798.279 261.374 806.774 261.041 815.288 261.19C831.917 263.983 848.246 267.649 864.256 272.19C868.253 274.267 872.58 275.6 877.247 276.19C882.144 277.803 887.141 279.136 892.237 280.19C894.246 281.614 896.584 282.28 899.233 282.19C899.562 282.19 899.902 282.19 900.232 282.19C901.661 283.227 903.33 283.894 905.229 284.19C905.339 284.807 905.668 285.307 906.228 285.69C910.545 286.686 914.872 287.52 919.22 288.19C926.875 290.295 934.2 292.962 941.205 296.19C944.403 300.531 948.73 303.031 954.197 303.69C976.762 314.401 996.589 328.901 1013.66 347.19C1016.6 351.36 1018.09 356.027 1018.15 361.19C1019.66 374.471 1020.32 387.804 1020.15 401.19C1020.15 402.857 1020.15 404.523 1020.15 406.19C1019.2 416.382 1018.2 426.715 1017.16 437.19C1014.18 452.767 1011.84 468.433 1010.16 484.19C1007.74 493.996 1005.74 503.996 1004.16 514.19C998.917 516.638 993.251 517.805 987.175 517.69C969.476 518.496 951.818 518.329 934.21 517.19C932.421 516.381 930.422 515.881 928.214 515.69C920.559 515.19 912.894 515.024 905.229 515.19C894.556 514.578 883.893 513.745 873.25 512.69C871.691 512.48 870.362 511.98 869.252 511.19C868.493 510.422 867.494 509.922 866.254 509.69C859.599 509.079 852.933 508.579 846.268 508.19C832.437 506.273 818.776 503.606 805.294 500.19C803.696 498.616 801.697 497.949 799.298 498.19C794.921 497.68 790.584 496.847 786.307 495.69C778.492 493.325 770.827 490.825 763.322 488.19C761.308 486.766 758.977 486.1 756.327 486.19C752.968 485.134 749.637 484.134 746.333 483.19C743.447 480.661 740.116 478.828 736.34 477.69C733.725 476.868 731.059 476.368 728.345 476.19C702.815 466.391 677.499 455.891 652.395 444.69C646.636 441.152 640.973 437.652 635.406 434.19C634.698 433.286 633.698 432.953 632.408 433.19C633.74 422.523 635.073 411.857 636.406 401.19C636.645 397.084 637.312 393.084 638.404 389.19C641.166 377.767 643.165 366.1 644.4 354.19C644.4 353.523 644.4 352.857 644.4 352.19C646.404 346.481 647.403 340.481 647.398 334.19C647.398 333.857 647.398 333.523 647.398 333.19C649.174 330.185 650.174 326.852 650.396 323.19C655.92 299.819 669.245 282.319 690.37 270.69C711.891 259.124 734.876 254.624 759.325 257.19Z" fill="#FE292C"/>
<path fill-rule="evenodd" clip-rule="evenodd" d="M815.288 261.19C806.773 261.041 798.279 261.374 789.805 262.19C784.548 262.104 779.721 260.604 775.314 257.69C769.818 258.044 764.489 257.878 759.325 257.19C763.315 256.858 767.309 256.525 771.317 256.19C786.077 258.084 800.727 259.75 815.288 261.19Z" fill="#AC191A"/>
<path fill-rule="evenodd" clip-rule="evenodd" d="M886.241 259.19C889.459 259.035 892.117 260.035 894.236 262.19C891.338 261.561 888.68 260.561 886.241 259.19Z" fill="#660F10"/>
<path fill-rule="evenodd" clip-rule="evenodd" d="M1044.14 266.19C1047.94 266.716 1051.61 267.383 1055.13 268.19C1051.78 268.355 1048.45 268.188 1045.14 267.69C1044.58 267.307 1044.25 266.807 1044.14 266.19Z" fill="#747474"/>
<path fill-rule="evenodd" clip-rule="evenodd" d="M1056.13 268.19C1059.39 269.014 1062.73 269.348 1066.12 269.19C1063.32 270.328 1060.33 270.495 1057.13 269.69C1056.57 269.307 1056.24 268.807 1056.13 268.19Z" fill="#7B7B7B"/>
<path fill-rule="evenodd" clip-rule="evenodd" d="M864.256 272.19C868.243 273.019 872.241 273.853 876.248 274.69C876.808 275.073 877.137 275.573 877.247 276.19C872.58 275.6 868.253 274.267 864.256 272.19Z" fill="#B81D20"/>
<path fill-rule="evenodd" clip-rule="evenodd" d="M892.237 280.19C894.886 280.1 897.224 280.766 899.233 282.19C896.584 282.28 894.246 281.614 892.237 280.19Z" fill="#4D0E10"/>
<path fill-rule="evenodd" clip-rule="evenodd" d="M900.232 282.19C902.88 282.1 905.219 282.766 907.228 284.19C906.558 284.19 905.898 284.19 905.229 284.19C903.33 283.894 901.661 283.227 900.232 282.19Z" fill="#4F0F10"/>
<path fill-rule="evenodd" clip-rule="evenodd" d="M905.229 284.19C905.898 284.19 906.558 284.19 907.227 284.19C911.315 285.214 915.312 286.547 919.22 288.19C914.872 287.52 910.545 286.686 906.228 285.69C905.668 285.307 905.339 284.807 905.229 284.19Z" fill="#B81D20"/>
<path fill-rule="evenodd" clip-rule="evenodd" d="M941.205 296.19C950.089 298.638 958.744 301.638 967.188 305.19C969.077 306.931 971.415 307.931 974.183 308.19C984.117 311.663 993.451 316.496 1002.16 322.69C1009.33 329.857 1016.49 337.023 1023.65 344.19C1028.44 354.816 1030.94 365.982 1031.15 377.69C1030.11 397.736 1027.78 417.57 1024.15 437.19C1020.66 442.186 1019.33 447.853 1020.15 454.19C1016.34 473.774 1012 493.274 1007.16 512.69C1006.82 513.72 1006.16 514.22 1005.16 514.19C1007.78 504.358 1009.45 494.358 1010.16 484.19C1011.84 468.433 1014.18 452.767 1017.16 437.19C1017.92 436.427 1018.42 435.427 1018.65 434.19C1019.72 424.886 1020.22 415.552 1020.15 406.19C1020.15 404.523 1020.15 402.857 1020.15 401.19C1021.31 392.366 1021.47 383.366 1020.65 374.19C1020.6 369.563 1019.77 365.23 1018.15 361.19C1018.09 356.027 1016.6 351.36 1013.66 347.19C996.589 328.901 976.762 314.401 954.197 303.69C948.73 303.031 944.403 300.531 941.205 296.19Z" fill="#F6EFEF"/>
<path fill-rule="evenodd" clip-rule="evenodd" d="M967.188 305.19C969.956 305.449 972.295 306.449 974.183 308.19C971.415 307.931 969.077 306.931 967.188 305.19Z" fill="#909090"/>
<path fill-rule="evenodd" clip-rule="evenodd" d="M650.396 323.19C650.174 326.852 649.174 330.185 647.398 333.19C647.621 329.528 648.621 326.195 650.396 323.19Z" fill="#7C1416"/>
<path fill-rule="evenodd" clip-rule="evenodd" d="M630.409 331.19C630.339 339.196 629.006 346.863 626.412 354.19C626.999 346.271 628.331 338.604 630.409 331.19Z" fill="#404040"/>
<path fill-rule="evenodd" clip-rule="evenodd" d="M647.398 334.19C647.403 340.481 646.404 346.481 644.4 352.19C644.395 345.899 645.395 339.899 647.398 334.19Z" fill="#98181B"/>
<path fill-rule="evenodd" clip-rule="evenodd" d="M644.4 354.19C643.165 366.1 641.166 377.767 638.404 389.19C639.399 377.23 641.397 365.564 644.4 354.19Z" fill="#A71B1E"/>
<path fill-rule="evenodd" clip-rule="evenodd" d="M959.193 375.19C964.61 374.649 968.107 376.983 969.686 382.19C970.356 391.857 970.356 401.523 969.686 411.19C969.087 414.327 968.087 417.327 966.688 420.19C962.181 423.385 958.514 422.718 955.696 418.19C955.026 405.19 955.026 392.19 955.696 379.19C957.075 377.985 958.234 376.652 959.193 375.19Z" fill="#0F0301"/>
<path fill-rule="evenodd" clip-rule="evenodd" d="M980.18 382.19C986.176 381.943 990.343 384.61 992.671 390.19C993.591 394.135 994.09 398.135 994.17 402.19C993.511 412.644 992.012 422.977 989.673 433.19C986.395 438.781 982.398 439.448 977.681 435.19C976.812 433.109 976.312 430.943 976.182 428.69C978.77 417.649 979.6 406.482 978.681 395.19C973.774 390.379 974.273 386.045 980.18 382.19Z" fill="#0C0201"/>
<path fill-rule="evenodd" clip-rule="evenodd" d="M401.56 379.19C401.301 381.962 400.302 384.295 398.562 386.19C398.821 383.418 399.82 381.085 401.56 379.19Z" fill="#969696"/>
<path fill-rule="evenodd" clip-rule="evenodd" d="M1018.15 361.19C1019.77 365.23 1020.6 369.563 1020.65 374.19C1021.47 383.366 1021.31 392.366 1020.15 401.19C1020.32 387.804 1019.66 374.471 1018.15 361.19Z" fill="#FF5D5D"/>
<path fill-rule="evenodd" clip-rule="evenodd" d="M618.418 399.19C617.627 409.127 615.962 418.794 613.421 428.19C614.133 418.239 615.799 408.572 618.418 399.19Z" fill="#4E4E4E"/>
<path fill-rule="evenodd" clip-rule="evenodd" d="M636.406 401.19C635.074 411.857 633.74 422.523 632.408 433.19C633.698 432.953 634.698 433.286 635.406 434.19C634.074 434.19 632.741 434.19 631.409 434.19C631.694 422.854 633.36 411.854 636.406 401.19Z" fill="#821517"/>
<path fill-rule="evenodd" clip-rule="evenodd" d="M1020.15 406.19C1020.22 415.552 1019.72 424.886 1018.65 434.19C1018.42 435.427 1017.92 436.427 1017.16 437.19C1018.2 426.715 1019.2 416.382 1020.15 406.19Z" fill="#FF6768"/>
<path fill-rule="evenodd" clip-rule="evenodd" d="M472.513 417.19C472.754 419.588 472.088 421.588 470.515 423.19C470.274 420.792 470.94 418.792 472.513 417.19Z" fill="#979797"/>
<path fill-rule="evenodd" clip-rule="evenodd" d="M470.515 423.19C470.325 426.545 469.326 429.545 467.517 432.19C467.545 428.774 468.544 425.774 470.515 423.19Z" fill="#919191"/>
<path fill-rule="evenodd" clip-rule="evenodd" d="M467.517 432.19C467.758 434.588 467.091 436.588 465.518 438.19C465.277 435.792 465.944 433.792 467.517 432.19Z" fill="#959595"/>
<path fill-rule="evenodd" clip-rule="evenodd" d="M385.571 432.19C384.983 438.151 383.651 443.817 381.573 449.19C381.606 443.027 382.938 437.36 385.571 432.19Z" fill="#A8A8A8"/>
<path fill-rule="evenodd" clip-rule="evenodd" d="M465.518 438.19C465.295 441.852 464.296 445.185 462.52 448.19C462.743 444.528 463.742 441.195 465.518 438.19Z" fill="#838383"/>
<path fill-rule="evenodd" clip-rule="evenodd" d="M1024.15 437.19C1023.05 443.023 1021.72 448.69 1020.15 454.19C1019.33 447.853 1020.66 442.186 1024.15 437.19Z" fill="#A1A1A1"/>
<path fill-rule="evenodd" clip-rule="evenodd" d="M610.423 441.19C610.374 446.506 609.374 451.506 607.425 456.19C606.908 450.698 607.907 445.698 610.423 441.19Z" fill="#B3B2B2"/>
<path fill-rule="evenodd" clip-rule="evenodd" d="M976.182 448.19C980.2 447.59 983.697 448.59 986.675 451.19C988.004 458.861 984.837 462.361 977.182 461.69C971.156 457.467 970.826 452.967 976.182 448.19Z" fill="#140402"/>
<path fill-rule="evenodd" clip-rule="evenodd" d="M629.41 452.19C636.725 456.853 644.387 461.019 652.395 464.69C672.823 473.481 693.142 482.147 713.355 490.69C752.345 505.418 792.323 516.585 833.276 524.19C839.262 526.6 845.598 527.934 852.264 528.19C860.298 528.86 868.293 529.86 876.248 531.19C878.486 532.502 881.155 533.168 884.243 533.19C890.898 533.745 897.554 534.078 904.229 534.19C907.228 534.19 910.226 534.19 913.224 534.19C914.673 534.992 916.342 535.492 918.22 535.69C925.875 536.19 933.54 536.356 941.205 536.19C960.932 536.462 980.579 535.462 1000.17 533.19C996.939 546.823 993.781 560.489 990.673 574.19C990.153 576.946 988.994 579.279 987.175 581.19C981.828 581.827 976.492 582.66 971.185 583.69C940.216 584.968 909.236 585.634 878.247 585.69C865.595 584.616 852.933 583.616 840.272 582.69C826.471 581.257 812.82 579.09 799.299 576.19C797.29 574.766 794.951 574.1 792.303 574.19C764.408 568.552 737.092 560.885 710.357 551.19C709.078 549.759 707.412 549.092 705.36 549.19C703.685 546.856 701.354 545.856 698.365 546.19C670.878 534.107 643.563 521.44 616.419 508.19C616.255 505.503 616.422 502.836 616.918 500.19C620.892 485.759 624.057 471.092 626.412 456.19C627.412 454.857 628.411 453.523 629.41 452.19Z" fill="#BD1C1B"/>
<path fill-rule="evenodd" clip-rule="evenodd" d="M629.41 452.19C628.411 453.523 627.411 454.857 626.412 456.19C626.255 454.817 626.422 453.483 626.912 452.19C627.888 450.916 628.721 450.916 629.41 452.19Z" fill="#650F0F"/>
<path fill-rule="evenodd" clip-rule="evenodd" d="M607.425 458.19C606.721 464.455 605.388 470.455 603.427 476.19C603.992 471.541 604.492 466.874 604.926 462.19C605.86 460.832 606.693 459.498 607.425 458.19Z" fill="#A8A8A8"/>
<path fill-rule="evenodd" clip-rule="evenodd" d="M1051.13 457.19C1051.22 459.842 1050.55 462.175 1049.13 464.19C1049.04 461.538 1049.71 459.205 1051.13 457.19Z" fill="#737373"/>
<path fill-rule="evenodd" clip-rule="evenodd" d="M381.573 451.19C380.872 458.743 379.54 466.077 377.576 473.19C378.034 465.578 379.366 458.244 381.573 451.19Z" fill="#979797"/>
<path fill-rule="evenodd" clip-rule="evenodd" d="M457.523 469.19C457.305 475.683 456.14 482.017 454.026 488.19C453.643 488.746 453.143 489.079 452.527 489.19C453.194 482.158 454.859 475.491 457.523 469.19Z" fill="#C0C0C0"/>
<path fill-rule="evenodd" clip-rule="evenodd" d="M1049.13 465.19C1049.59 470.286 1048.59 474.952 1046.14 479.19C1046.41 474.24 1047.41 469.573 1049.13 465.19Z" fill="#949494"/>
<path fill-rule="evenodd" clip-rule="evenodd" d="M728.345 476.19C731.059 476.368 733.725 476.868 736.34 477.69C740.116 478.828 743.447 480.661 746.333 483.19C740.178 481.155 734.182 478.822 728.345 476.19Z" fill="#B91E21"/>
<path fill-rule="evenodd" clip-rule="evenodd" d="M653.395 477.19C658.171 476.331 661.669 477.998 663.888 482.19C665.413 488.03 667.245 493.697 669.384 499.19C668.021 506.252 664.024 508.086 657.392 504.69C652.497 497.268 650.333 489.101 650.896 480.19C651.94 479.317 652.773 478.317 653.395 477.19Z" fill="#090100"/>
<path fill-rule="evenodd" clip-rule="evenodd" d="M756.327 486.19C758.977 486.1 761.308 486.766 763.322 488.19C760.672 488.28 758.34 487.614 756.327 486.19Z" fill="#871618"/>
<path fill-rule="evenodd" clip-rule="evenodd" d="M1044.14 490.19C1044.23 492.842 1043.56 495.175 1042.14 497.19C1042.05 494.538 1042.72 492.205 1044.14 490.19Z" fill="#8C8C8C"/>
<path fill-rule="evenodd" clip-rule="evenodd" d="M799.298 498.19C801.697 497.949 803.695 498.616 805.294 500.19C802.896 500.431 800.897 499.764 799.298 498.19Z" fill="#7A1416"/>
<path fill-rule="evenodd" clip-rule="evenodd" d="M707.359 501.19C711.569 500.91 714.734 502.577 716.853 506.19C717.858 515.205 719.691 524.038 722.349 532.69C721.515 538.519 718.183 540.852 712.356 539.69C709.395 536.815 707.563 533.315 706.859 529.19C704.333 521.359 703.334 513.359 703.861 505.19C705.236 503.985 706.402 502.652 707.359 501.19Z" fill="#060100"/>
<path fill-rule="evenodd" clip-rule="evenodd" d="M1042.14 498.19C1042.83 502.484 1041.83 506.151 1039.14 509.19C1039.91 505.363 1040.91 501.696 1042.14 498.19Z" fill="#ABABAB"/>
<path fill-rule="evenodd" clip-rule="evenodd" d="M846.268 508.19C852.933 508.579 859.599 509.079 866.254 509.69C867.494 509.922 868.493 510.422 869.252 511.19C861.278 511.559 853.613 510.559 846.268 508.19Z" fill="#C31F22"/>
<path fill-rule="evenodd" clip-rule="evenodd" d="M1010.16 484.19C1009.45 494.358 1007.78 504.358 1005.16 514.19C1004.83 514.19 1004.49 514.19 1004.16 514.19C1005.74 503.996 1007.74 493.996 1010.16 484.19Z" fill="#FFB3B3"/>
<path fill-rule="evenodd" clip-rule="evenodd" d="M450.528 501.19C450.748 505.79 450.082 510.123 448.529 514.19C448.309 509.59 448.975 505.257 450.528 501.19Z" fill="#888888"/>
<path fill-rule="evenodd" clip-rule="evenodd" d="M905.229 515.19C912.894 515.024 920.559 515.19 928.214 515.69C930.422 515.881 932.421 516.381 934.21 517.19C924.356 517.133 914.693 516.466 905.229 515.19Z" fill="#AE1C1F"/>
<path fill-rule="evenodd" clip-rule="evenodd" d="M596.432 512.19C596.673 514.588 596.006 516.588 594.433 518.19C594.192 515.792 594.859 513.792 596.432 512.19Z" fill="#7D7D7D"/>
<path fill-rule="evenodd" clip-rule="evenodd" d="M1039.14 511.19C1039.23 513.842 1038.56 516.175 1037.14 518.19C1037.05 515.538 1037.72 513.205 1039.14 511.19Z" fill="#898989"/>
<path fill-rule="evenodd" clip-rule="evenodd" d="M447.53 521.19C447.53 525.523 447.53 529.857 447.53 534.19C449.814 534.285 451.813 534.952 453.526 536.19C450.829 536.224 448.33 535.557 446.031 534.19C445.472 529.621 445.972 525.288 447.53 521.19Z" fill="#8C8C8C"/>
<path fill-rule="evenodd" clip-rule="evenodd" d="M833.276 524.19C839.822 525.082 846.148 526.415 852.264 528.19C845.598 527.934 839.262 526.6 833.276 524.19Z" fill="#711011"/>
<path fill-rule="evenodd" clip-rule="evenodd" d="M1037.14 519.19C1037.75 523.759 1036.75 527.759 1034.14 531.19C1034.77 526.988 1035.77 522.988 1037.14 519.19Z" fill="#A3A3A3"/>
<path fill-rule="evenodd" clip-rule="evenodd" d="M614.42 526.19C612.613 529.681 610.947 533.348 609.423 537.19C609.813 533.851 610.313 530.517 610.922 527.19C611.846 525.195 613.011 524.862 614.42 526.19Z" fill="#A11A1C"/>
<path fill-rule="evenodd" clip-rule="evenodd" d="M771.317 529.19C775.404 528.395 778.572 529.728 780.811 533.19C782.45 540.268 784.618 547.101 787.306 553.69C787.636 556.357 786.637 558.357 784.308 559.69C778.122 561.344 773.955 559.177 771.816 553.19C769.198 546.738 768.199 540.071 768.818 533.19C769.478 531.706 770.317 530.373 771.317 529.19Z" fill="#050000"/>
<path fill-rule="evenodd" clip-rule="evenodd" d="M876.248 531.19C885.772 531.72 895.095 532.72 904.229 534.19C897.554 534.078 890.898 533.745 884.243 533.19C881.155 533.168 878.486 532.502 876.248 531.19Z" fill="#891313"/>
<path fill-rule="evenodd" clip-rule="evenodd" d="M913.224 534.19C922.737 534.291 932.071 534.957 941.205 536.19C933.54 536.356 925.875 536.19 918.22 535.69C916.342 535.492 914.673 534.992 913.224 534.19Z" fill="#801212"/>
<path fill-rule="evenodd" clip-rule="evenodd" d="M818.286 535.19C821.814 535.036 824.642 536.369 826.78 539.19C828.069 545.39 829.569 551.557 831.277 557.69C830.988 564.312 827.65 566.646 821.284 564.69C814.788 556.854 812.62 548.021 814.788 538.19C815.937 537.054 817.097 536.054 818.286 535.19Z" fill="#050000"/>
<path fill-rule="evenodd" clip-rule="evenodd" d="M1034.14 532.19C1034.23 534.842 1033.56 537.175 1032.15 539.19C1032.06 536.538 1032.73 534.205 1034.14 532.19Z" fill="#909090"/>
<path fill-rule="evenodd" clip-rule="evenodd" d="M609.423 538.19C609.513 540.842 608.848 543.175 607.425 545.19C607.335 542.538 608 540.205 609.423 538.19Z" fill="#831517"/>
<path fill-rule="evenodd" clip-rule="evenodd" d="M1000.17 533.19C1001.17 533.16 1001.83 533.66 1002.16 534.69C997.908 551.663 993.571 568.497 989.173 585.19C989.513 583.207 988.854 581.873 987.175 581.19C988.994 579.279 990.153 576.946 990.673 574.19C993.78 560.489 996.938 546.823 1000.17 533.19Z" fill="#C7AAA9"/>
<path fill-rule="evenodd" clip-rule="evenodd" d="M868.253 544.19C872.54 543.888 875.708 545.554 877.747 549.19C878.946 555.941 880.445 562.608 882.244 569.19C881.824 574.746 878.826 576.913 873.25 575.69C869.073 572.177 866.574 567.677 865.755 562.19C864.426 557.248 864.096 552.248 864.755 547.19C865.905 546.054 867.064 545.054 868.253 544.19Z" fill="#070100"/>
<path fill-rule="evenodd" clip-rule="evenodd" d="M698.365 546.19C701.354 545.856 703.685 546.856 705.36 549.19C702.621 548.983 700.289 547.983 698.365 546.19Z" fill="#9B5B58"/>
<path fill-rule="evenodd" clip-rule="evenodd" d="M941.205 546.19C944.733 546.036 947.561 547.369 949.699 550.19C950.809 554.634 952.807 558.634 955.696 562.19C957.414 570.139 954.246 573.639 946.202 572.69C939.866 566.857 936.708 559.69 936.708 551.19C938.077 549.328 939.576 547.662 941.205 546.19Z" fill="#0A0100"/>
<path fill-rule="evenodd" clip-rule="evenodd" d="M1031.15 545.19C1030.93 548.852 1029.93 552.185 1028.15 555.19C1028.37 551.528 1029.37 548.195 1031.15 545.19Z" fill="#8E8E8E"/>
<path fill-rule="evenodd" clip-rule="evenodd" d="M394.565 548.19C377.963 583.102 361.473 618.435 345.097 654.19C328.521 694.16 314.53 735.16 303.125 777.19C298.994 793.97 295.496 810.97 292.632 828.19C331.976 823.91 370.617 827.41 408.555 838.69C423.662 844.04 438.652 849.2 453.526 854.19C453.216 857.4 453.549 860.4 454.525 863.19C454.677 867.61 455.344 871.95 456.524 876.19C456.524 876.52 456.524 876.86 456.524 877.19C423.032 856.3 386.39 844.8 346.596 842.69C314.418 839.62 283.105 843.28 252.658 853.69C247.833 855.63 243.336 858.13 239.167 861.19C239 860.52 238.834 859.86 238.667 859.19C269.161 764.82 304.305 672.155 344.098 581.19C348.722 572.778 354.218 564.945 360.587 557.69C371.002 551.417 382.328 548.25 394.565 548.19Z" fill="#262835"/>
<path fill-rule="evenodd" clip-rule="evenodd" d="M394.565 548.19C407.479 547.799 420.138 548.799 432.54 551.19C431.664 551.059 430.998 551.392 430.541 552.19C437.329 576.484 442.325 601.151 445.531 626.19C445.593 637.873 446.093 649.54 447.03 661.19C447.449 665.082 448.281 668.748 449.529 672.19C450.569 680.143 451.402 688.143 452.027 696.19C453.105 751.85 453.938 807.52 454.525 863.19C453.549 860.4 453.216 857.4 453.526 854.19C438.652 849.2 423.662 844.04 408.555 838.69C370.617 827.41 331.976 823.91 292.632 828.19C295.496 810.97 298.994 793.97 303.125 777.19C314.53 735.16 328.521 694.16 345.097 654.19C361.473 618.435 377.963 583.102 394.565 548.19Z" fill="#40414D"/>
<path fill-rule="evenodd" clip-rule="evenodd" d="M432.54 551.19C435.254 551.368 437.919 551.868 440.534 552.69C448.892 576.695 453.222 601.528 453.526 627.19C453.184 636.745 453.851 646.079 455.525 655.19C456.956 682.505 457.955 709.84 458.523 737.19C458.69 772.86 458.523 808.52 458.023 844.19C457.853 855.03 457.353 865.7 456.524 876.19C455.344 871.95 454.677 867.61 454.525 863.19C453.938 807.52 453.105 751.85 452.027 696.19C451.402 688.143 450.569 680.143 449.529 672.19C448.057 656.726 446.724 641.393 445.531 626.19C442.325 601.151 437.329 576.484 430.541 552.19C430.998 551.392 431.664 551.059 432.54 551.19Z" fill="#F4F4F4"/>
<path fill-rule="evenodd" clip-rule="evenodd" d="M587.438 550.19C587.508 554.115 586.841 557.781 585.439 561.19C585.274 557.84 585.441 554.507 585.939 551.19C586.322 550.634 586.821 550.301 587.438 550.19Z" fill="#AFAFAF"/>
<path fill-rule="evenodd" clip-rule="evenodd" d="M412.553 554.19C417.858 553.255 421.356 555.255 423.046 560.19C425.007 570.334 426.838 580.501 428.542 590.69C427.708 596.519 424.376 598.852 418.549 597.69C416.24 596.053 414.741 593.886 414.052 591.19C411.218 580.01 409.886 568.676 410.055 557.19C411.099 556.317 411.931 555.317 412.553 554.19Z" fill="#010102"/>
<path fill-rule="evenodd" clip-rule="evenodd" d="M472.513 555.19C474.255 558.185 475.255 561.519 475.511 565.19C473.77 562.195 472.77 558.861 472.513 555.19Z" fill="#8E8E8E"/>
<path fill-rule="evenodd" clip-rule="evenodd" d="M703.362 568.19C704.888 568.117 705.887 568.784 706.36 570.19C704.834 570.263 703.834 569.596 703.362 568.19Z" fill="#731215"/>
<path fill-rule="evenodd" clip-rule="evenodd" d="M710.357 551.19C737.092 560.885 764.408 568.552 792.303 574.19C792.303 574.523 792.303 574.857 792.303 575.19C789.935 574.839 787.606 574.672 785.308 574.69C786.187 575.398 786.857 576.232 787.306 577.19C760.462 571.568 734.813 562.902 710.357 551.19Z" fill="#D9CFCE"/>
<path fill-rule="evenodd" clip-rule="evenodd" d="M603.427 565.19C603.517 567.842 602.852 570.175 601.429 572.19C601.339 569.538 602.004 567.205 603.427 565.19Z" fill="#681113"/>
<path fill-rule="evenodd" clip-rule="evenodd" d="M792.303 575.19C794.611 575.683 796.94 576.016 799.298 576.19C812.82 579.09 826.471 581.257 840.271 582.69C852.933 583.616 865.595 584.616 878.246 585.69C909.236 585.634 940.216 584.968 971.185 583.69C976.492 582.66 981.828 581.827 987.175 581.19C988.854 581.873 989.513 583.207 989.174 585.19C989.174 586.19 989.174 587.19 989.174 588.19C984.437 588.641 979.78 589.308 975.183 590.19C947.241 591.981 919.26 592.648 891.238 592.19C876.877 591.217 862.557 589.884 848.266 588.19C840.381 585.428 832.057 584.095 823.283 584.19C811.111 582.139 799.119 579.805 787.306 577.19C786.857 576.232 786.187 575.398 785.308 574.69C787.606 574.672 789.935 574.839 792.303 575.19Z" fill="#F3ECEC"/>
<path fill-rule="evenodd" clip-rule="evenodd" d="M792.303 575.19C792.303 574.857 792.303 574.523 792.303 574.19C794.951 574.1 797.29 574.766 799.299 576.19C796.94 576.016 794.612 575.683 792.303 575.19Z" fill="#D97371"/>
<path fill-rule="evenodd" clip-rule="evenodd" d="M719.351 575.19C722.121 575.449 724.453 576.449 726.346 578.19C723.576 577.931 721.245 576.931 719.351 575.19Z" fill="#881618"/>
<path fill-rule="evenodd" clip-rule="evenodd" d="M823.283 584.19C832.057 584.095 840.381 585.428 848.266 588.19C839.652 587.862 831.327 586.529 823.283 584.19Z" fill="#BABABA"/>
<path fill-rule="evenodd" clip-rule="evenodd" d="M581.442 581.19C580.282 586.503 579.115 591.836 577.944 597.19C577.561 597.746 577.062 598.079 576.445 598.19C576.239 591.823 577.905 586.156 581.442 581.19Z" fill="#ACACAC"/>
<path fill-rule="evenodd" clip-rule="evenodd" d="M748.332 585.19C753.488 586.687 758.484 588.354 763.322 590.19C758.974 589.52 754.644 588.686 750.331 587.69C749.45 586.982 748.785 586.148 748.332 585.19Z" fill="#B61D20"/>
<path fill-rule="evenodd" clip-rule="evenodd" d="M975.183 590.19C974.423 590.958 973.424 591.458 972.185 591.69C945.053 593.376 918.07 593.542 891.238 592.19C919.26 592.648 947.241 591.981 975.183 590.19Z" fill="#504F4F"/>
<path fill-rule="evenodd" clip-rule="evenodd" d="M1020.15 589.19C1020.24 591.842 1019.57 594.175 1018.15 596.19C1018.06 593.538 1018.73 591.205 1020.15 589.19Z" fill="#929292"/>
<path fill-rule="evenodd" clip-rule="evenodd" d="M795.301 597.19C804.565 598.459 813.559 600.459 822.284 603.19C812.89 602.446 803.896 600.446 795.301 597.19Z" fill="#6A1113"/>
<path fill-rule="evenodd" clip-rule="evenodd" d="M480.508 593.19C482.038 597.94 482.705 602.94 482.507 608.19C481.119 603.421 480.452 598.421 480.508 593.19Z" fill="#6F6F6F"/>
<path fill-rule="evenodd" clip-rule="evenodd" d="M837.273 605.19C841.87 604.97 846.198 605.636 850.265 607.19C845.668 607.41 841.341 606.744 837.273 605.19Z" fill="#861618"/>
<path fill-rule="evenodd" clip-rule="evenodd" d="M981.179 606.19C981.179 606.523 981.179 606.857 981.179 607.19C974.014 608.986 966.678 609.653 959.193 609.19C966.389 608.196 973.714 607.196 981.179 606.19Z" fill="#B61E21"/>
<path fill-rule="evenodd" clip-rule="evenodd" d="M1016.16 605.19C1016.25 607.842 1015.58 610.175 1014.16 612.19C1014.07 609.538 1014.74 607.205 1016.16 605.19Z" fill="#7D7D7D"/>
<path fill-rule="evenodd" clip-rule="evenodd" d="M595.433 603.19C594.87 609.631 593.704 615.965 591.935 622.19C591.552 622.746 591.052 623.079 590.436 623.19C591.103 616.158 592.768 609.491 595.433 603.19Z" fill="#9E191C"/>
<path fill-rule="evenodd" clip-rule="evenodd" d="M983.178 613.19C983.268 615.842 982.598 618.175 981.179 620.19C981.089 617.538 981.759 615.205 983.178 613.19Z" fill="#5F5F5F"/>
<path fill-rule="evenodd" clip-rule="evenodd" d="M981.179 606.19C982.178 606.19 983.177 606.19 984.177 606.19C983.687 608.496 983.347 610.829 983.177 613.19C981.758 615.205 981.089 617.538 981.179 620.19C979.69 625.799 978.361 631.466 977.181 637.19C975.762 639.205 975.093 641.538 975.183 644.19C967.248 681.653 958.923 718.99 950.199 756.19C948.78 758.2 948.111 760.54 948.2 763.19C941.205 791.89 934.21 820.55 927.214 849.19C925.795 851.2 925.126 853.54 925.216 856.19C923.527 865.25 921.528 874.25 919.22 883.19C917.651 884.79 916.981 886.79 917.221 889.19C913.024 905.12 909.026 921.12 905.229 937.19C903.81 939.2 903.14 941.54 903.23 944.19C895.245 975.48 887.251 1006.81 879.246 1038.19C877.677 1039.79 877.007 1041.79 877.247 1044.19C870.242 1069.05 862.747 1093.72 854.762 1118.19C850.635 1127.11 845.968 1135.78 840.771 1144.19C830.078 1155.85 816.757 1161.52 800.797 1161.19C789.595 1160.44 778.432 1159.44 767.319 1158.19C763.255 1156.64 758.925 1155.97 754.328 1156.19C753.995 1156.19 753.661 1156.19 753.329 1156.19C751.728 1154.62 749.729 1153.95 747.333 1154.19C747 1154.19 746.666 1154.19 746.333 1154.19C747.401 1153.26 748.733 1152.92 750.331 1153.19C781.31 1156.43 809.961 1149.93 836.274 1133.69C839.752 1129.24 842.58 1124.4 844.769 1119.19C854.512 1096.65 862.337 1073.31 868.253 1049.19C869.672 1047.18 870.342 1044.84 870.252 1042.19C884.063 996.41 895.725 950.07 905.229 903.19C906.538 899.19 908.037 895.19 909.726 891.19C910.665 883.65 912.164 876.32 914.223 869.19C915.912 861.09 917.91 853.09 920.219 845.19C921.638 843.18 922.308 840.84 922.218 838.19C924.686 827.46 927.354 816.79 930.212 806.19C931.631 804.18 932.301 801.84 932.211 799.19C932.701 793.73 933.7 788.4 935.209 783.19C936.628 781.18 937.298 778.84 937.208 776.19C938.027 773.23 938.697 770.23 939.206 767.19C940.625 765.18 941.295 762.84 941.205 760.19C945.492 741 950.159 722 955.196 703.19C956.615 701.18 957.284 698.84 957.195 696.19C957.614 693.11 958.274 690.11 959.193 687.19C960.612 685.175 961.282 682.842 961.192 680.19C962.331 674.788 963.66 669.455 965.189 664.19C966.608 662.175 967.278 659.842 967.188 657.19C971.845 640.528 976.512 623.861 981.179 607.19C981.179 606.857 981.179 606.523 981.179 606.19Z" fill="#F7EFEF"/>
<path fill-rule="evenodd" clip-rule="evenodd" d="M1012.16 622.19C1011.76 631.021 1009.76 639.354 1006.16 647.19C1007.42 638.57 1009.42 630.237 1012.16 622.19Z" fill="#B3B3B3"/>
<path fill-rule="evenodd" clip-rule="evenodd" d="M570.449 632.19C570.539 634.842 569.873 637.175 568.45 639.19C568.36 636.538 569.026 634.205 570.449 632.19Z" fill="#616161"/>
<path fill-rule="evenodd" clip-rule="evenodd" d="M453.526 627.19C454.78 633.99 455.447 640.99 455.525 648.19C455.525 650.523 455.525 652.857 455.525 655.19C453.851 646.079 453.184 636.745 453.526 627.19Z" fill="#C0C0C0"/>
<path fill-rule="evenodd" clip-rule="evenodd" d="M977.181 637.19C977.271 639.842 976.602 642.175 975.183 644.19C975.093 641.538 975.762 639.205 977.181 637.19Z" fill="#8C8C8C"/>
<path fill-rule="evenodd" clip-rule="evenodd" d="M586.438 644.19C586.679 646.588 586.013 648.588 584.44 650.19C584.199 647.792 584.866 645.792 586.438 644.19Z" fill="#5D1012"/>
<path fill-rule="evenodd" clip-rule="evenodd" d="M675.38 652.19C690.585 650.678 705.575 652.011 720.35 656.19C705.475 653.735 690.485 652.402 675.38 652.19Z" fill="#BE1E21"/>
<path fill-rule="evenodd" clip-rule="evenodd" d="M675.38 652.19C690.485 652.402 705.475 653.735 720.35 656.19C720.683 656.19 721.017 656.19 721.35 656.19C727.734 658.195 734.396 659.195 741.337 659.19C741.669 659.19 742.003 659.19 742.336 659.19C750.778 661.345 759.44 663.012 768.319 664.19C774.875 665.902 781.54 667.236 788.306 668.19C790.314 669.614 792.653 670.28 795.301 670.19C799.738 671.68 804.405 672.68 809.292 673.19C811.301 674.614 813.639 675.28 816.287 675.19C824.582 677.351 832.916 679.685 841.271 682.19C843.849 684.162 846.847 685.162 850.265 685.19C851.864 686.764 853.863 687.431 856.261 687.19C864.146 689.67 872.141 692.17 880.245 694.69C884.632 696.27 888.3 698.77 891.238 702.19C893.676 707.89 894.676 713.89 894.236 720.19C891.678 738.06 888.35 755.73 884.243 773.19C882.824 775.2 882.154 777.54 882.244 780.19C880.595 787.41 878.926 794.75 877.247 802.19C875.828 804.2 875.159 806.54 875.249 809.19C874.449 810.73 874.119 812.4 874.249 814.19C872.68 815.79 872.011 817.79 872.25 820.19C871.921 821.52 871.581 822.86 871.251 824.19C869.492 827.54 868.493 831.21 868.253 835.19C868.253 835.52 868.253 835.86 868.253 836.19C866.684 837.79 866.015 839.79 866.254 842.19C864.346 846.59 863.017 851.26 862.257 856.19C858.959 866.45 855.961 876.78 853.263 887.19C851.694 888.79 851.024 890.79 851.264 893.19C849.895 895.63 848.896 898.29 848.266 901.19C848.266 901.86 848.266 902.52 848.266 903.19C846.298 905.77 845.298 908.77 845.268 912.19C843.34 915.9 842 919.9 841.271 924.19C838.962 927.77 837.633 931.77 837.274 936.19C832.197 946.77 827.87 957.77 824.282 969.19C822.873 969.66 822.213 970.66 822.283 972.19C814.618 990.53 806.124 1008.53 796.8 1026.19C787.476 1036.26 775.984 1040.26 762.323 1038.19C758.615 1036.55 754.618 1035.89 750.331 1036.19C746.076 1034.87 741.746 1033.87 737.339 1033.19C734.323 1031.29 730.992 1029.96 727.346 1029.19C715.299 1024.44 702.974 1020.44 690.37 1017.19C689.897 1015.78 688.898 1015.12 687.372 1015.19C668.33 1009.54 649.676 1002.71 631.409 994.69C605.024 979.65 595.863 957.15 603.927 927.19C605.937 909.4 608.768 891.73 612.421 874.19C613.844 872.18 614.51 869.84 614.42 867.19C614.42 866.52 614.42 865.86 614.42 865.19C615.993 863.59 616.66 861.59 616.419 859.19C619.127 846.84 621.792 834.5 624.413 822.19C625.837 820.18 626.502 817.84 626.412 815.19C628.507 807.28 630.172 799.28 631.409 791.19C632.832 789.18 633.498 786.84 633.408 784.19C635.406 774.52 637.405 764.85 639.404 755.19C641.179 752.19 642.179 748.85 642.402 745.19C643.434 736.69 645.099 728.36 647.398 720.19C648.971 718.59 649.638 716.59 649.397 714.19C649.556 710.4 650.222 706.73 651.396 703.19C652.819 701.18 653.484 698.84 653.394 696.19C653.394 695.86 653.394 695.52 653.394 695.19C654.818 693.18 655.483 690.84 655.393 688.19C655.393 686.19 655.393 684.19 655.393 682.19C655.261 679.12 655.594 676.12 656.392 673.19C659.457 665.561 664.121 659.061 670.383 653.69C672.129 653.338 673.795 652.838 675.38 652.19Z" fill="#050303"/>
<path fill-rule="evenodd" clip-rule="evenodd" d="M721.35 656.19C728.29 656.185 734.953 657.185 741.336 659.19C734.396 659.195 727.733 658.195 721.35 656.19Z" fill="#9D191C"/>
<path fill-rule="evenodd" clip-rule="evenodd" d="M445.531 626.19C446.724 641.393 448.057 656.726 449.528 672.19C448.281 668.748 447.449 665.082 447.03 661.19C446.093 649.54 445.593 637.873 445.531 626.19Z" fill="#7C7D85"/>
<path fill-rule="evenodd" clip-rule="evenodd" d="M584.44 651.19C584.515 655.587 584.015 659.92 582.941 664.19C582.558 664.746 582.058 665.079 581.442 665.19C581.952 660.299 582.951 655.632 584.44 651.19Z" fill="#8B1719"/>
<path fill-rule="evenodd" clip-rule="evenodd" d="M967.188 657.19C967.278 659.842 966.608 662.175 965.189 664.19C965.099 661.538 965.769 659.205 967.188 657.19Z" fill="#FFA1A1"/>
<path fill-rule="evenodd" clip-rule="evenodd" d="M742.336 659.19C751.423 659.343 760.083 661.009 768.319 664.19C759.44 663.012 750.778 661.345 742.336 659.19Z" fill="#871618"/>
<path fill-rule="evenodd" clip-rule="evenodd" d="M455.525 648.19C457.935 677.652 459.267 707.32 459.522 737.19C459.189 737.19 458.855 737.19 458.523 737.19C457.955 709.84 456.956 682.505 455.525 655.19C455.525 652.857 455.525 650.523 455.525 648.19Z" fill="#7C7C7C"/>
<path fill-rule="evenodd" clip-rule="evenodd" d="M788.306 668.19C790.954 668.1 793.292 668.766 795.301 670.19C792.653 670.28 790.314 669.614 788.306 668.19Z" fill="#6D1214"/>
<path fill-rule="evenodd" clip-rule="evenodd" d="M691.369 671.19C686.406 670.652 681.742 671.319 677.379 673.19C677.293 672.194 677.627 671.361 678.378 670.69C682.895 669.876 687.226 670.043 691.369 671.19Z" fill="#6B6B6B"/>
<path fill-rule="evenodd" clip-rule="evenodd" d="M691.369 671.19C708.004 673.3 724.66 675.3 741.337 677.19C750.781 679.681 760.442 681.681 770.317 683.19C786.907 687.005 803.566 690.84 820.285 694.69C837.473 700.42 854.792 705.76 872.25 710.69C873.689 711.07 874.689 711.9 875.248 713.19C875.298 720.93 874.629 728.59 873.25 736.19C870.602 748.81 867.933 761.47 865.255 774.19C863.836 776.2 863.166 778.54 863.256 781.19C861.278 788.44 859.609 795.77 858.26 803.19C856.691 804.79 856.021 806.79 856.261 809.19C845.628 849.25 833.796 888.92 820.784 928.19C809.352 957.1 796.69 985.77 782.809 1014.19C779.421 1018.77 774.924 1020.77 769.318 1020.19C759.154 1019.96 749.493 1017.96 740.337 1014.19C735.979 1010.91 730.982 1009.24 725.347 1009.19C721.098 1007.75 716.768 1006.42 712.356 1005.19C706.374 1001.87 700.044 999.04 693.368 996.69C690.392 995.99 687.394 995.49 684.374 995.19C680.522 994.1 676.858 992.77 673.381 991.19C669.984 988.49 665.987 987.16 661.389 987.19C647.911 983.42 636.085 976.75 625.912 967.19C624.791 965.28 623.959 963.28 623.414 961.19C622.538 952.56 622.204 943.89 622.415 935.19C622.455 930.5 622.788 925.83 623.414 921.19C624.967 917.12 625.633 912.79 625.413 908.19C625.413 907.52 625.413 906.86 625.413 906.19C627.491 900.84 628.491 895.17 628.411 889.19C629.061 881.6 630.727 874.26 633.408 867.19C635.59 860.09 637.255 852.76 638.404 845.19C638.404 844.86 638.404 844.52 638.404 844.19C640.938 840.34 641.937 836 641.402 831.19C641.402 830.86 641.402 830.52 641.402 830.19C642.825 828.18 643.491 825.84 643.401 823.19C644.757 815.1 646.423 807.1 648.398 799.19C649.821 797.18 650.486 794.84 650.396 792.19C650.262 790.4 650.595 788.73 651.396 787.19C652.819 785.18 653.484 782.84 653.394 780.19C657.934 756.81 662.598 733.47 667.385 710.19C668.002 710.08 668.501 709.75 668.884 709.19C669.381 706.54 669.548 703.88 669.384 701.19C670.224 699.31 670.558 697.31 670.383 695.19C671.956 693.59 672.623 691.59 672.382 689.19C674.26 683.894 675.925 678.561 677.379 673.19C681.742 671.319 686.406 670.652 691.369 671.19Z" fill="#FCFCFC"/>
<path fill-rule="evenodd" clip-rule="evenodd" d="M809.292 673.19C811.94 673.1 814.279 673.766 816.287 675.19C813.639 675.28 811.301 674.614 809.292 673.19Z" fill="#751315"/>
<path fill-rule="evenodd" clip-rule="evenodd" d="M741.337 677.19C750.762 677.976 760.089 679.476 769.318 681.69C769.878 682.073 770.208 682.573 770.318 683.19C760.442 681.681 750.781 679.681 741.337 677.19Z" fill="#3A3A3A"/>
<path fill-rule="evenodd" clip-rule="evenodd" d="M656.392 673.19C655.594 676.12 655.261 679.12 655.393 682.19C654.26 679.724 654.093 677.057 654.893 674.19C655.276 673.634 655.776 673.301 656.392 673.19Z" fill="#831517"/>
<path fill-rule="evenodd" clip-rule="evenodd" d="M841.271 682.19C844.629 682.38 847.627 683.38 850.265 685.19C846.847 685.162 843.849 684.162 841.271 682.19Z" fill="#96181B"/>
<path fill-rule="evenodd" clip-rule="evenodd" d="M850.265 685.19C852.663 684.949 854.662 685.616 856.261 687.19C853.863 687.431 851.864 686.764 850.265 685.19Z" fill="#8E171A"/>
<path fill-rule="evenodd" clip-rule="evenodd" d="M961.192 680.19C961.282 682.842 960.612 685.175 959.193 687.19C959.103 684.538 959.773 682.205 961.192 680.19Z" fill="#FF9897"/>
<path fill-rule="evenodd" clip-rule="evenodd" d="M486.504 658.19C487.961 669.993 488.627 681.993 488.503 694.19C487.11 682.383 486.444 670.383 486.504 658.19Z" fill="#828282"/>
<path fill-rule="evenodd" clip-rule="evenodd" d="M655.393 688.19C655.483 690.84 654.818 693.18 653.395 695.19C653.305 692.54 653.97 690.2 655.393 688.19Z" fill="#621012"/>
<path fill-rule="evenodd" clip-rule="evenodd" d="M672.382 689.19C672.623 691.59 671.956 693.59 670.383 695.19C670.143 692.79 670.809 690.79 672.382 689.19Z" fill="#6C6C6C"/>
<path fill-rule="evenodd" clip-rule="evenodd" d="M653.394 696.19C653.484 698.84 652.819 701.18 651.396 703.19C651.306 700.54 651.971 698.2 653.394 696.19Z" fill="#611012"/>
<path fill-rule="evenodd" clip-rule="evenodd" d="M957.195 696.19C957.285 698.84 956.615 701.18 955.196 703.19C955.106 700.54 955.776 698.2 957.195 696.19Z" fill="#FFA0A0"/>
<path fill-rule="evenodd" clip-rule="evenodd" d="M669.384 701.19C669.548 703.88 669.381 706.54 668.884 709.19C668.502 709.75 668.002 710.08 667.385 710.19C667.561 706.96 668.228 703.96 669.384 701.19Z" fill="#8D8D8D"/>
<path fill-rule="evenodd" clip-rule="evenodd" d="M837.273 714.19C839.302 714.03 841.301 714.19 843.27 714.69C851.684 722.36 855.511 731.86 854.762 743.19C852.693 747.83 849.196 749.33 844.269 747.69C840.971 743.84 839.472 739.34 839.772 734.19C836.684 730.51 834.525 726.35 833.276 721.69C833.706 718.67 835.035 716.17 837.273 714.19Z" fill="#080808"/>
<path fill-rule="evenodd" clip-rule="evenodd" d="M992.172 709.19C992.262 711.84 991.592 714.18 990.173 716.19C990.083 713.54 990.753 711.2 992.172 709.19Z" fill="#6E6E6E"/>
<path fill-rule="evenodd" clip-rule="evenodd" d="M891.238 702.19C893.567 703.34 894.726 705.34 894.736 708.19C895.545 712.38 895.385 716.38 894.236 720.19C894.676 713.89 893.676 707.89 891.238 702.19Z" fill="#A61A1D"/>
<path fill-rule="evenodd" clip-rule="evenodd" d="M649.397 714.19C649.638 716.59 648.971 718.59 647.399 720.19C647.158 717.79 647.824 715.79 649.397 714.19Z" fill="#6D1314"/>
<path fill-rule="evenodd" clip-rule="evenodd" d="M267.648 721.19C267.389 723.96 266.39 726.3 264.65 728.19C264.909 725.42 265.908 723.08 267.648 721.19Z" fill="#929292"/>
<path fill-rule="evenodd" clip-rule="evenodd" d="M875.248 713.19C876.877 721.03 876.218 728.7 873.25 736.19C874.629 728.59 875.298 720.93 875.248 713.19Z" fill="#949494"/>
<path fill-rule="evenodd" clip-rule="evenodd" d="M551.461 725.19C550.583 730.77 549.251 736.1 547.464 741.19C547.74 735.48 549.073 730.14 551.461 725.19Z" fill="#626262"/>
<path fill-rule="evenodd" clip-rule="evenodd" d="M988.174 728.19C988.264 730.84 987.595 733.18 986.176 735.19C986.086 732.54 986.755 730.2 988.174 728.19Z" fill="#8E8E8E"/>
<path fill-rule="evenodd" clip-rule="evenodd" d="M566.452 743.19C566.541 745.84 565.876 748.18 564.453 750.19C564.363 747.54 565.028 745.2 566.452 743.19Z" fill="#811517"/>
<path fill-rule="evenodd" clip-rule="evenodd" d="M488.503 716.19C489.329 721.68 489.829 727.34 490.002 733.19C490.502 763.85 490.669 794.52 490.502 825.19C490.169 825.19 489.835 825.19 489.502 825.19C489.685 788.85 489.352 752.52 488.503 716.19Z" fill="#8A8A8A"/>
<path fill-rule="evenodd" clip-rule="evenodd" d="M642.402 745.19C642.179 748.85 641.18 752.19 639.404 755.19C639.627 751.53 640.626 748.19 642.402 745.19Z" fill="#661113"/>
<path fill-rule="evenodd" clip-rule="evenodd" d="M765.321 752.19C773.975 752.5 776.973 756.83 774.315 765.19C785.857 783.63 794.691 803.3 800.797 824.19C808.542 861.13 801.377 894.63 779.311 924.69C760.499 941.77 738.513 948.43 713.355 944.69C677.306 927.37 663.482 898.87 671.882 859.19C676.306 842.76 685.467 829.59 699.364 819.69C721.554 806.32 740.375 789.15 755.827 768.19C758.462 764.62 760.127 760.62 760.824 756.19C762.22 754.62 763.719 753.29 765.321 752.19Z" fill="#050302"/>
<path fill-rule="evenodd" clip-rule="evenodd" d="M564.453 750.19C564.617 752.88 564.45 755.54 563.953 758.19C563.571 758.75 563.071 759.08 562.454 759.19C562.63 755.96 563.297 752.96 564.453 750.19Z" fill="#94181A"/>
<path fill-rule="evenodd" clip-rule="evenodd" d="M950.199 756.19C950.289 758.84 949.62 761.18 948.201 763.19C948.111 760.54 948.78 758.2 950.199 756.19Z" fill="#575757"/>
<path fill-rule="evenodd" clip-rule="evenodd" d="M941.205 760.19C941.295 762.84 940.626 765.18 939.206 767.19C939.117 764.54 939.786 762.2 941.205 760.19Z" fill="#FFA4A4"/>
<path fill-rule="evenodd" clip-rule="evenodd" d="M458.523 737.19C458.855 737.19 459.189 737.19 459.522 737.19C459.689 773.52 459.522 809.86 459.022 846.19C458.854 856.87 458.355 867.54 457.523 878.19C456.917 878.07 456.584 877.73 456.524 877.19C456.524 876.86 456.524 876.52 456.524 876.19C457.353 865.7 457.853 855.03 458.023 844.19C458.523 808.52 458.69 772.86 458.523 737.19Z" fill="#C4C4C4"/>
<path fill-rule="evenodd" clip-rule="evenodd" d="M978.181 770.19C978.271 772.84 977.601 775.18 976.182 777.19C976.092 774.54 976.762 772.2 978.181 770.19Z" fill="#8E8E8E"/>
<path fill-rule="evenodd" clip-rule="evenodd" d="M884.243 773.19C884.333 775.84 883.663 778.18 882.244 780.19C882.154 777.54 882.824 775.2 884.243 773.19Z" fill="#6A1114"/>
<path fill-rule="evenodd" clip-rule="evenodd" d="M937.208 776.19C937.298 778.84 936.628 781.18 935.209 783.19C935.119 780.54 935.789 778.2 937.208 776.19Z" fill="#FF9292"/>
<path fill-rule="evenodd" clip-rule="evenodd" d="M865.255 774.19C865.345 776.84 864.676 779.18 863.257 781.19C863.167 778.54 863.836 776.2 865.255 774.19Z" fill="#5A5A5A"/>
<path fill-rule="evenodd" clip-rule="evenodd" d="M764.321 779.19C775.884 795.01 783.709 812.68 787.806 832.19C792.373 859.32 787.706 884.66 773.815 908.19C771.187 911.82 768.189 915.16 764.821 918.19C769.378 902.51 770.377 886.51 767.819 870.19C763.617 858.58 759.619 846.91 755.827 835.19C750.674 831.82 746.677 832.82 743.835 838.19C741.315 848.56 736.653 857.9 729.844 866.19C720.853 874.19 712.193 882.52 703.861 891.19C699.195 898.86 696.864 907.2 696.866 916.19C689.981 908.54 685.984 899.54 684.874 889.19C680.934 868.02 686.763 850.18 702.362 835.69C721.977 822.41 740.132 807.24 756.826 790.19C759.962 786.9 762.461 783.23 764.321 779.19Z" fill="#D71900"/>
<path fill-rule="evenodd" clip-rule="evenodd" d="M653.394 780.19C653.484 782.84 652.819 785.18 651.396 787.19C651.306 784.54 651.971 782.2 653.394 780.19Z" fill="#8C8C8C"/>
<path fill-rule="evenodd" clip-rule="evenodd" d="M975.183 783.19C974.963 786.85 973.964 790.19 972.185 793.19C972.405 789.53 973.404 786.19 975.183 783.19Z" fill="#858585"/>
<path fill-rule="evenodd" clip-rule="evenodd" d="M633.408 784.19C633.498 786.84 632.832 789.18 631.409 791.19C631.319 788.54 631.985 786.2 633.408 784.19Z" fill="#781315"/>
<path fill-rule="evenodd" clip-rule="evenodd" d="M650.396 792.19C650.486 794.84 649.821 797.18 648.398 799.19C648.308 796.54 648.973 794.2 650.396 792.19Z" fill="#6C6C6C"/>
<path fill-rule="evenodd" clip-rule="evenodd" d="M399.561 803.19C407.831 802.4 410.996 806.06 409.055 814.19C404.304 819.64 399.974 819.31 396.064 813.19C394.82 808.88 395.987 805.55 399.561 803.19Z" fill="#030304"/>
<path fill-rule="evenodd" clip-rule="evenodd" d="M932.211 799.19C932.301 801.84 931.632 804.18 930.213 806.19C930.123 803.54 930.792 801.2 932.211 799.19Z" fill="#FFA4A4"/>
<path fill-rule="evenodd" clip-rule="evenodd" d="M419.548 808.19C427.458 807.4 433.954 810.06 439.036 816.19C439.338 827.21 434.841 829.71 425.544 823.69C416.585 823.74 413.42 819.57 416.051 811.19C417.195 810.05 418.361 809.05 419.548 808.19Z" fill="#030303"/>
<path fill-rule="evenodd" clip-rule="evenodd" d="M858.26 803.19C858.5 805.59 857.83 807.59 856.261 809.19C856.021 806.79 856.691 804.79 858.26 803.19Z" fill="#5A5A5A"/>
<path fill-rule="evenodd" clip-rule="evenodd" d="M877.247 802.19C877.337 804.84 876.668 807.18 875.249 809.19C875.159 806.54 875.828 804.2 877.247 802.19Z" fill="#92171A"/>
<path fill-rule="evenodd" clip-rule="evenodd" d="M534.473 809.19C532.554 821.8 529.89 834.13 526.478 846.19C527.89 833.45 530.555 821.11 534.473 809.19Z" fill="#707070"/>
<path fill-rule="evenodd" clip-rule="evenodd" d="M874.249 814.19C874.489 816.59 873.82 818.59 872.251 820.19C872.011 817.79 872.68 815.79 874.249 814.19Z" fill="#98181B"/>
<path fill-rule="evenodd" clip-rule="evenodd" d="M552.461 811.19C552.524 815.88 553.523 820.38 555.459 824.69C552.531 831.62 549.533 838.45 546.465 845.19C547.946 840.68 548.611 836.01 548.464 831.19C549.178 824.28 550.511 817.61 552.461 811.19Z" fill="#D92828"/>
<path fill-rule="evenodd" clip-rule="evenodd" d="M626.412 815.19C626.502 817.84 625.837 820.18 624.414 822.19C624.324 819.54 624.989 817.2 626.412 815.19Z" fill="#6F1214"/>
<path fill-rule="evenodd" clip-rule="evenodd" d="M643.401 823.19C643.491 825.84 642.825 828.18 641.402 830.19C641.312 827.54 641.978 825.2 643.401 823.19Z" fill="#7A7A7A"/>
<path fill-rule="evenodd" clip-rule="evenodd" d="M965.189 824.19C965.429 826.59 964.76 828.59 963.191 830.19C962.951 827.79 963.62 825.79 965.189 824.19Z" fill="#828282"/>
<path fill-rule="evenodd" clip-rule="evenodd" d="M871.251 824.19C871.001 826.69 870.672 829.19 870.252 831.69C870.142 833.37 869.482 834.54 868.253 835.19C868.493 831.21 869.492 827.54 871.251 824.19Z" fill="#AD1C1F"/>
<path fill-rule="evenodd" clip-rule="evenodd" d="M548.464 831.19C548.611 836.01 547.946 840.68 546.465 845.19C546.032 847.86 545.532 850.52 544.966 853.19C544.583 853.75 544.083 854.08 543.467 854.19C544.516 846.26 546.182 838.6 548.464 831.19Z" fill="#8D1A1B"/>
<path fill-rule="evenodd" clip-rule="evenodd" d="M641.402 831.19C641.937 836 640.938 840.34 638.404 844.19C639.244 839.7 640.243 835.37 641.402 831.19Z" fill="#B2B2B2"/>
<path fill-rule="evenodd" clip-rule="evenodd" d="M868.253 836.19C868.493 838.59 867.823 840.59 866.254 842.19C866.015 839.79 866.684 837.79 868.253 836.19Z" fill="#8E1719"/>
<path fill-rule="evenodd" clip-rule="evenodd" d="M922.218 838.19C922.308 840.84 921.638 843.18 920.219 845.19C920.129 842.54 920.799 840.2 922.218 838.19Z" fill="#FFA1A1"/>
<path fill-rule="evenodd" clip-rule="evenodd" d="M866.254 842.19C866.454 847.4 865.125 852.07 862.257 856.19C863.017 851.26 864.346 846.59 866.254 842.19Z" fill="#B31D20"/>
<path fill-rule="evenodd" clip-rule="evenodd" d="M927.214 849.19C927.304 851.84 926.635 854.18 925.216 856.19C925.126 853.54 925.795 851.2 927.214 849.19Z" fill="#8B8B8B"/>
<path fill-rule="evenodd" clip-rule="evenodd" d="M526.478 846.19C526.071 855.22 524.406 863.89 521.481 872.19C522.402 863.26 524.067 854.59 526.478 846.19Z" fill="#565656"/>
<path fill-rule="evenodd" clip-rule="evenodd" d="M959.193 848.19C959.283 850.84 958.614 853.18 957.195 855.19C957.105 852.54 957.774 850.2 959.193 848.19Z" fill="#969696"/>
<path fill-rule="evenodd" clip-rule="evenodd" d="M638.404 845.19C637.255 852.76 635.59 860.09 633.408 867.19C633.89 859.45 635.555 852.12 638.404 845.19Z" fill="#9F9F9F"/>
<path fill-rule="evenodd" clip-rule="evenodd" d="M299.627 861.19C319.309 860.83 338.963 861.33 358.588 862.69C384.923 865.81 409.907 873.14 433.539 884.69C443.646 889.8 451.475 897.3 457.024 907.19C457.66 914.57 454.829 920.4 448.529 924.69C433.245 934.02 416.589 939.35 398.562 940.69C360.435 945.07 323.127 941.41 286.636 929.69C269.557 924.56 254.734 915.73 242.165 903.19C235.348 893.93 236.515 885.76 245.663 878.69C253.815 872.96 262.809 868.96 272.645 866.69C281.774 864.84 290.768 863.01 299.627 861.19Z" fill="#262835"/>
<path fill-rule="evenodd" clip-rule="evenodd" d="M616.419 859.19C616.66 861.59 615.993 863.59 614.42 865.19C614.179 862.79 614.846 860.79 616.419 859.19Z" fill="#6C1214"/>
<path fill-rule="evenodd" clip-rule="evenodd" d="M749.331 862.19C756.8 878.82 757.3 895.82 750.83 913.19C746.333 920.36 740.504 926.19 733.342 930.69C728.678 931.36 724.015 931.36 719.351 930.69C712.33 922.27 710.498 912.77 713.855 902.19C722.182 892.52 731.176 883.52 740.837 875.19C743.891 870.97 746.722 866.64 749.331 862.19Z" fill="#FAB71C"/>
<path fill-rule="evenodd" clip-rule="evenodd" d="M614.42 867.19C614.51 869.84 613.844 872.18 612.421 874.19C612.331 871.54 612.997 869.2 614.42 867.19Z" fill="#5D0F12"/>
<path fill-rule="evenodd" clip-rule="evenodd" d="M914.223 869.19C912.164 876.32 910.665 883.65 909.726 891.19C908.037 895.19 906.538 899.19 905.229 903.19C908.077 893.43 910.245 883.43 911.724 873.19C912.654 871.83 913.493 870.5 914.223 869.19Z" fill="#FF6562"/>
<path fill-rule="evenodd" clip-rule="evenodd" d="M489.502 825.19C489.835 825.19 490.169 825.19 490.502 825.19C490.412 857.23 489.578 889.23 488.003 921.19C487.455 923.45 486.288 925.12 484.505 926.19C486.375 922.07 487.541 917.74 488.003 913.19C488.42 883.85 488.92 854.52 489.502 825.19Z" fill="#C2C2C2"/>
<path fill-rule="evenodd" clip-rule="evenodd" d="M919.219 883.19C919.459 885.59 918.79 887.59 917.221 889.19C916.981 886.79 917.651 884.79 919.219 883.19Z" fill="#676767"/>
<path fill-rule="evenodd" clip-rule="evenodd" d="M853.263 887.19C853.503 889.59 852.833 891.59 851.264 893.19C851.024 890.79 851.694 888.79 853.263 887.19Z" fill="#99191B"/>
<path fill-rule="evenodd" clip-rule="evenodd" d="M950.199 884.19C950.289 886.84 949.62 889.18 948.201 891.19C948.111 888.54 948.78 886.2 950.199 884.19Z" fill="#939393"/>
<path fill-rule="evenodd" clip-rule="evenodd" d="M538.47 879.19C538.73 884.88 537.73 890.22 535.472 895.19C535.928 889.63 536.927 884.3 538.47 879.19Z" fill="#A01A1D"/>
<path fill-rule="evenodd" clip-rule="evenodd" d="M851.264 893.19C851.414 896.41 850.415 899.07 848.266 901.19C848.896 898.29 849.895 895.63 851.264 893.19Z" fill="#92171A"/>
<path fill-rule="evenodd" clip-rule="evenodd" d="M628.411 889.19C628.491 895.17 627.491 900.84 625.413 906.19C625.28 900.2 626.279 894.53 628.411 889.19Z" fill="#B1B1B1"/>
<path fill-rule="evenodd" clip-rule="evenodd" d="M948.2 892.19C948.8 897.84 947.471 902.84 944.203 907.19C945.162 901.98 946.502 896.98 948.2 892.19Z" fill="#B4B4B4"/>
<path fill-rule="evenodd" clip-rule="evenodd" d="M848.266 903.19C848.076 906.55 847.077 909.55 845.268 912.19C845.298 908.77 846.298 905.77 848.266 903.19Z" fill="#9C191C"/>
<path fill-rule="evenodd" clip-rule="evenodd" d="M514.486 905.19C513.853 910.05 512.854 914.72 511.488 919.19C510.79 913.97 511.79 909.31 514.486 905.19Z" fill="#B0B0B0"/>
<path fill-rule="evenodd" clip-rule="evenodd" d="M625.413 908.19C625.633 912.79 624.967 917.12 623.414 921.19C623.194 916.59 623.86 912.26 625.413 908.19Z" fill="#9F9F9F"/>
<path fill-rule="evenodd" clip-rule="evenodd" d="M941.205 920.19C941.295 922.84 940.626 925.18 939.206 927.19C939.117 924.54 939.786 922.2 941.205 920.19Z" fill="#919191"/>
<path fill-rule="evenodd" clip-rule="evenodd" d="M841.271 924.19C840.511 928.46 839.182 932.46 837.273 936.19C837.633 931.77 838.962 927.77 841.271 924.19Z" fill="#9E191C"/>
<path fill-rule="evenodd" clip-rule="evenodd" d="M632.408 927.19C636.5 926.39 639.665 927.73 641.902 931.19C644.898 940.85 649.228 949.85 654.894 958.19C655.726 965.36 652.562 968.52 645.4 967.69C635.938 957.26 630.442 945.09 628.911 931.19C630.286 929.98 631.451 928.65 632.408 927.19Z" fill="#070707"/>
<path fill-rule="evenodd" clip-rule="evenodd" d="M939.206 928.19C939.806 933.84 938.477 938.84 935.209 943.19C936.168 937.98 937.507 932.98 939.206 928.19Z" fill="#B4B4B4"/>
<path fill-rule="evenodd" clip-rule="evenodd" d="M905.229 937.19C905.319 939.84 904.649 942.18 903.23 944.19C903.14 941.54 903.81 939.2 905.229 937.19Z" fill="#828282"/>
<path fill-rule="evenodd" clip-rule="evenodd" d="M622.415 935.19C622.204 943.89 622.538 952.56 623.414 961.19C622.693 960.77 622.193 960.11 621.915 959.19C621.093 951.01 621.26 943.01 622.415 935.19Z" fill="#ACACAC"/>
<path fill-rule="evenodd" clip-rule="evenodd" d="M504.492 954.19C503.318 961.09 501.652 967.76 499.496 974.19C500.072 968.16 500.906 962.16 501.994 956.19C502.701 955.31 503.535 954.64 504.492 954.19Z" fill="#B0B0B0"/>
<path fill-rule="evenodd" clip-rule="evenodd" d="M527.477 931.19C527.056 943.97 525.889 956.64 523.98 969.19C521.326 973.05 519.161 977.05 517.484 981.19C520.197 964.28 523.528 947.62 527.477 931.19Z" fill="#CF2626"/>
<path fill-rule="evenodd" clip-rule="evenodd" d="M349.594 961.19C355.243 961.72 360.906 962.06 366.583 962.19C366.583 962.52 366.583 962.86 366.583 963.19C360.67 963.47 355.007 962.81 349.594 961.19Z" fill="#B0B0B0"/>
<path fill-rule="evenodd" clip-rule="evenodd" d="M366.583 963.19C366.583 962.86 366.583 962.52 366.583 962.19C378.58 962.02 390.572 962.19 402.559 962.69C401.315 963.48 399.983 963.98 398.562 964.19C388.082 963.2 377.422 962.86 366.583 963.19Z" fill="#5F5F5F"/>
<path fill-rule="evenodd" clip-rule="evenodd" d="M932.211 956.19C932.301 958.84 931.632 961.18 930.213 963.19C930.123 960.54 930.792 958.2 932.211 956.19Z" fill="#959595"/>
<path fill-rule="evenodd" clip-rule="evenodd" d="M236.669 1129.19C226.656 1130.35 216.663 1130.35 206.688 1129.19C185.853 1128.1 168.864 1119.6 155.722 1103.69C115.156 1101.11 95.6693 1079.61 97.2602 1039.19C102.957 1016.98 117.115 1004.65 139.732 1002.19C145.691 981.01 159.682 968.84 181.705 965.69C197.416 964.96 212.406 967.79 226.675 974.19C242.963 967.15 259.619 966.31 276.642 971.69C301.696 977.43 316.519 992.93 321.113 1018.19C322.442 1038.87 314.28 1054.53 296.629 1065.19C294.339 1094.6 279.348 1114.43 251.659 1124.69C246.545 1126.27 241.548 1127.77 236.669 1129.19Z" fill="#030303"/>
<path fill-rule="evenodd" clip-rule="evenodd" d="M930.212 964.19C929.993 967.85 928.993 971.19 927.214 974.19C927.434 970.53 928.434 967.19 930.212 964.19Z" fill="#959595"/>
<path fill-rule="evenodd" clip-rule="evenodd" d="M824.282 969.19C824.352 970.72 823.692 971.72 822.283 972.19C822.213 970.66 822.873 969.66 824.282 969.19Z" fill="#701215"/>
<path fill-rule="evenodd" clip-rule="evenodd" d="M410.554 979.19C418.564 978.4 426.225 979.56 433.539 982.69C441.017 989.3 442.516 997.14 438.036 1006.19C434.317 1010.58 429.986 1014.24 425.045 1017.19C420.515 1024.74 422.346 1030.24 430.541 1033.69C436.528 1037.95 438.027 1043.45 435.038 1050.19C425.576 1064.34 413.085 1068.18 397.563 1061.69C391.297 1053.97 392.629 1047.97 401.56 1043.69C406.822 1038.28 406.822 1032.95 401.56 1027.69C399.638 1026.88 397.64 1026.38 395.564 1026.19C391.286 1028.33 386.956 1030.5 382.573 1032.69C366.988 1032.07 360.492 1023.9 363.085 1008.19C367.197 998.45 373.36 996.79 381.573 1003.19C383.706 1003.17 385.705 1002.67 387.569 1001.69C390.9 996.69 394.232 991.69 397.563 986.69C401.662 983.64 405.992 981.14 410.554 979.19Z" fill="#C9B9A4"/>
<path fill-rule="evenodd" clip-rule="evenodd" d="M180.705 984.19C208.264 982.6 219.091 995.26 213.184 1022.19C218.084 1028.46 223.413 1028.79 229.173 1023.19C233.627 1014.11 234.46 1004.78 231.672 995.19C237.244 989.04 244.24 986.37 252.658 987.19C269.707 987.75 281.866 995.75 289.134 1011.19C293.203 1025.42 289.373 1036.92 277.642 1045.69C270.959 1047.73 264.297 1049.73 257.655 1051.69C253.003 1054.59 251.504 1058.75 253.158 1064.19C255.779 1068.59 259.61 1070.26 264.65 1069.19C263.302 1080.7 257.971 1089.87 248.661 1096.69C229.884 1109.72 209.564 1112.72 187.701 1105.69C180.525 1103.16 175.362 1098.66 172.211 1092.19C176.898 1088.16 180.895 1083.5 184.203 1078.19C185.369 1068.69 181.205 1064.52 171.711 1065.69C167.814 1069.5 164.15 1073.5 160.718 1077.69C138.758 1086.79 123.934 1079.96 116.248 1057.19C113.226 1043.77 117.057 1032.94 127.74 1024.69C131.466 1022.05 135.463 1021.21 139.732 1022.19C141.163 1026.89 143.496 1031.06 146.728 1034.69C154.887 1037.86 159.884 1035.2 161.718 1026.69C152.613 1005.74 158.943 991.57 180.705 984.19Z" fill="#CAB9A5"/>
<path fill-rule="evenodd" clip-rule="evenodd" d="M661.389 987.19C665.987 987.16 669.985 988.49 673.381 991.19C669.117 990.43 665.12 989.1 661.389 987.19Z" fill="#ACACAC"/>
<path fill-rule="evenodd" clip-rule="evenodd" d="M516.485 984.19C516.648 986.88 516.482 989.54 515.985 992.19C515.707 993.11 515.207 993.77 514.486 994.19C514.739 990.65 515.404 987.32 516.485 984.19Z" fill="#90171A"/>
<path fill-rule="evenodd" clip-rule="evenodd" d="M684.374 995.19C687.394 995.49 690.392 995.99 693.368 996.69C700.044 999.04 706.374 1001.87 712.356 1005.19C702.816 1002.15 693.489 998.81 684.374 995.19Z" fill="#A1A1A1"/>
<path fill-rule="evenodd" clip-rule="evenodd" d="M514.486 995.19C513.031 1007.8 510.698 1020.13 507.49 1032.19C508.69 1019.53 511.022 1007.19 514.486 995.19Z" fill="#97181B"/>
<path fill-rule="evenodd" clip-rule="evenodd" d="M254.657 1002.19C257.075 1001.98 259.407 1002.32 261.652 1003.19C267.801 1008.86 269.967 1015.86 268.148 1024.19C262.879 1029.96 258.549 1029.29 255.156 1022.19C253.846 1017.73 252.68 1013.23 251.659 1008.69C251.55 1005.98 252.549 1003.81 254.657 1002.19Z" fill="#080706"/>
<path fill-rule="evenodd" clip-rule="evenodd" d="M725.347 1009.19C730.982 1009.24 735.979 1010.91 740.337 1014.19C735.186 1012.77 730.189 1011.1 725.347 1009.19Z" fill="#B3B3B3"/>
<path fill-rule="evenodd" clip-rule="evenodd" d="M687.372 1015.19C688.898 1015.12 689.897 1015.78 690.37 1017.19C688.844 1017.26 687.845 1016.6 687.372 1015.19Z" fill="#751315"/>
<path fill-rule="evenodd" clip-rule="evenodd" d="M918.22 1009.19C917.97 1011.69 917.641 1014.19 917.221 1016.69C917.111 1018.37 916.451 1019.54 915.222 1020.19C915.462 1016.21 916.461 1012.54 918.22 1009.19Z" fill="#B1B1B1"/>
<path fill-rule="evenodd" clip-rule="evenodd" d="M915.222 1021.19C915.002 1024.85 914.003 1028.19 912.224 1031.19C912.444 1027.53 913.443 1024.19 915.222 1021.19Z" fill="#939393"/>
<path fill-rule="evenodd" clip-rule="evenodd" d="M491.501 1017.19C491.582 1023.82 490.582 1030.15 488.503 1036.19C488.369 1029.55 489.368 1023.22 491.501 1017.19Z" fill="#424242"/>
<path fill-rule="evenodd" clip-rule="evenodd" d="M727.346 1029.19C730.992 1029.96 734.323 1031.29 737.339 1033.19C734.675 1032.76 732.011 1032.26 729.344 1031.69C728.464 1030.98 727.798 1030.15 727.346 1029.19Z" fill="#B71D20"/>
<path fill-rule="evenodd" clip-rule="evenodd" d="M750.331 1036.19C754.618 1035.89 758.615 1036.55 762.323 1038.19C758.035 1038.49 754.038 1037.83 750.331 1036.19Z" fill="#4E0F0F"/>
<path fill-rule="evenodd" clip-rule="evenodd" d="M531.475 1038.19C541.724 1038.12 544.722 1042.79 540.469 1052.19C542.395 1061.38 546.892 1069.05 553.96 1075.19C557.952 1083.7 555.454 1087.87 546.465 1087.69C533.092 1077.09 526.596 1063.26 526.978 1046.19C528.222 1043.37 529.721 1040.7 531.475 1038.19Z" fill="#0A0101"/>
<path fill-rule="evenodd" clip-rule="evenodd" d="M911.225 1036.19C911.465 1038.59 910.795 1040.59 909.226 1042.19C908.986 1039.79 909.656 1037.79 911.225 1036.19Z" fill="#929292"/>
<path fill-rule="evenodd" clip-rule="evenodd" d="M550.462 1043.19C553.28 1042.94 555.945 1043.44 558.457 1044.69C560.296 1051.84 564.46 1057.34 570.949 1061.19C574.181 1065.12 574.015 1068.95 570.449 1072.69C568.256 1074.06 565.923 1074.4 563.454 1073.69C554.639 1068.22 548.976 1060.56 546.465 1050.69C546.632 1049.52 546.798 1048.36 546.965 1047.19C548.34 1045.98 549.505 1044.65 550.462 1043.19Z" fill="#090101"/>
<path fill-rule="evenodd" clip-rule="evenodd" d="M879.246 1038.19C879.486 1040.59 878.816 1042.59 877.247 1044.19C877.007 1041.79 877.677 1039.79 879.246 1038.19Z" fill="#585858"/>
<path fill-rule="evenodd" clip-rule="evenodd" d="M870.252 1042.19C870.342 1044.84 869.672 1047.18 868.253 1049.19C868.163 1046.54 868.833 1044.2 870.252 1042.19Z" fill="#FFA6A6"/>
<path fill-rule="evenodd" clip-rule="evenodd" d="M909.226 1042.19C909.826 1047.84 908.497 1052.84 905.229 1057.19C906.188 1051.98 907.527 1046.98 909.226 1042.19Z" fill="#A1A1A1"/>
<path fill-rule="evenodd" clip-rule="evenodd" d="M905.229 1059.19C904.669 1063.85 903.34 1068.19 901.231 1072.19C901.791 1067.53 903.12 1063.19 905.229 1059.19Z" fill="#B1B1B1"/>
<path fill-rule="evenodd" clip-rule="evenodd" d="M507.49 1035.19C505.631 1050.67 506.297 1066 509.489 1081.19C508.872 1081.08 508.373 1080.75 507.99 1080.19C505.551 1066.97 504.884 1053.63 505.991 1040.19C506.189 1038.31 506.689 1036.64 507.49 1035.19Z" fill="#A91B1D"/>
<path fill-rule="evenodd" clip-rule="evenodd" d="M224.676 1067.19C229.013 1066.54 232.844 1067.54 236.169 1070.19C237.351 1073.96 236.518 1077.13 233.671 1079.69C223.66 1083.43 213.333 1085.09 202.691 1084.69C199.259 1083.16 197.594 1080.49 197.694 1076.69C197.548 1074.66 198.214 1072.99 199.693 1071.69C205.579 1070.44 211.575 1069.78 217.681 1069.69C220.183 1068.99 222.515 1068.16 224.676 1067.19Z" fill="#060504"/>
<path fill-rule="evenodd" clip-rule="evenodd" d="M314.617 1084.19C324.07 1084.87 333.397 1086.37 342.599 1088.69C361.131 1098.69 364.628 1112.52 353.092 1130.19C347.215 1137.1 339.72 1140.43 330.607 1140.19C303.933 1140.67 292.108 1127.67 295.13 1101.19C296.905 1097.75 299.071 1094.58 301.626 1091.69C305.768 1088.63 310.098 1086.13 314.617 1084.19Z" fill="#030303"/>
<path fill-rule="evenodd" clip-rule="evenodd" d="M893.237 1098.19C893.476 1100.59 892.807 1102.59 891.238 1104.19C890.998 1101.79 891.668 1099.79 893.237 1098.19Z" fill="#929292"/>
<path fill-rule="evenodd" clip-rule="evenodd" d="M317.615 1103.19C325.318 1103.09 328.816 1106.75 328.108 1114.19C325.477 1119.42 321.314 1121.25 315.617 1119.69C309.72 1113.28 310.386 1107.78 317.615 1103.19Z" fill="#C4B4A0"/>
<path fill-rule="evenodd" clip-rule="evenodd" d="M556.458 1119.19C557.984 1119.12 558.984 1119.78 559.456 1121.19C557.93 1121.26 556.931 1120.6 556.458 1119.19Z" fill="#761315"/>
<path fill-rule="evenodd" clip-rule="evenodd" d="M206.688 1129.19C216.663 1130.35 226.656 1130.35 236.669 1129.19C231.424 1130.71 225.928 1131.38 220.179 1131.19C216.349 1131.02 212.517 1130.86 208.687 1130.69C207.772 1130.41 207.106 1129.91 206.688 1129.19Z" fill="#CACACA"/>
<path fill-rule="evenodd" clip-rule="evenodd" d="M581.442 1129.19C583.838 1128.95 585.837 1129.62 587.438 1131.19C585.042 1131.43 583.043 1130.76 581.442 1129.19Z" fill="#901719"/>
<path fill-rule="evenodd" clip-rule="evenodd" d="M475.511 1165.19C475.598 1170.23 475.266 1175.23 474.512 1180.19C468.648 1191.22 459.987 1199.39 448.529 1204.69C442.233 1207.01 435.904 1209.18 429.542 1211.19C425.901 1232 413.576 1243.83 392.566 1246.69C381.73 1247.65 371.07 1246.65 360.587 1243.69C345.778 1239.54 335.285 1230.38 329.108 1216.19C318.358 1185.55 327.852 1164.05 357.589 1151.69C363.565 1150.08 369.561 1149.75 375.577 1150.69C383.318 1141.14 393.312 1135.14 405.558 1132.69C421.887 1130.69 437.876 1132.36 453.526 1137.69C465.266 1143.37 472.594 1152.53 475.511 1165.19Z" fill="#030303"/>
<path fill-rule="evenodd" clip-rule="evenodd" d="M617.418 1137.19C622.015 1136.97 626.345 1137.64 630.41 1139.19C625.837 1139.25 621.507 1138.59 617.418 1137.19Z" fill="#891618"/>
<path fill-rule="evenodd" clip-rule="evenodd" d="M633.408 1139.19C645.686 1138.57 657.678 1139.57 669.384 1142.19C657.223 1141.44 645.231 1140.44 633.408 1139.19Z" fill="#9C191C"/>
<path fill-rule="evenodd" clip-rule="evenodd" d="M670.383 1142.19C675.314 1141.92 679.977 1142.59 684.374 1144.19C679.443 1144.46 674.78 1143.79 670.383 1142.19Z" fill="#8F1719"/>
<path fill-rule="evenodd" clip-rule="evenodd" d="M701.363 1146.19C706.274 1146.05 710.937 1146.72 715.354 1148.19C710.423 1148.46 705.76 1147.79 701.363 1146.19Z" fill="#9D191C"/>
<path fill-rule="evenodd" clip-rule="evenodd" d="M724.348 1149.19C733.161 1150.43 741.821 1151.76 750.331 1153.19C748.733 1152.92 747.4 1153.26 746.333 1154.19C738.74 1153.15 731.412 1151.49 724.348 1149.19Z" fill="#AD8D8D"/>
<path fill-rule="evenodd" clip-rule="evenodd" d="M411.554 1149.19C420.79 1148.4 429.45 1150.24 437.536 1154.69C442.854 1158.63 445.352 1163.79 445.032 1170.19C437.529 1183.19 426.371 1189.19 411.554 1188.19C407.626 1181.65 401.963 1179.48 394.565 1181.69C389.796 1185.39 388.297 1190.22 390.068 1196.19C392.211 1200.97 395.042 1205.14 398.562 1208.69C394.968 1220.75 386.808 1226.58 374.078 1226.19C357.61 1226.38 347.617 1218.38 344.098 1202.19C341.679 1184 349.341 1173 367.083 1169.19C373.514 1169.66 379.01 1172.16 383.572 1176.69C394.512 1177.41 398.343 1172.58 395.064 1162.19C393.898 1161.02 392.733 1159.86 391.567 1158.69C397.443 1153.68 404.105 1150.52 411.554 1149.19Z" fill="#C7B7A2"/>
<path fill-rule="evenodd" clip-rule="evenodd" d="M597.431 1152.19C600.081 1152.1 602.413 1152.77 604.427 1154.19C601.776 1154.28 599.445 1153.61 597.431 1152.19Z" fill="#737373"/>
<path fill-rule="evenodd" clip-rule="evenodd" d="M747.333 1154.19C749.729 1153.95 751.728 1154.62 753.329 1156.19C750.932 1156.43 748.933 1155.76 747.333 1154.19Z" fill="#5E5E5E"/>
<path fill-rule="evenodd" clip-rule="evenodd" d="M754.328 1156.19C758.925 1155.97 763.255 1156.64 767.32 1158.19C762.723 1158.41 758.392 1157.74 754.328 1156.19Z" fill="#848484"/>
<path fill-rule="evenodd" clip-rule="evenodd" d="M685.374 1163.19C690.284 1163.05 694.948 1163.72 699.364 1165.19C694.434 1165.46 689.771 1164.79 685.374 1163.19Z" fill="#464646"/>
<path fill-rule="evenodd" clip-rule="evenodd" d="M475.511 1165.19C476.173 1166.99 476.506 1168.99 476.511 1171.19C476.668 1174.5 476.002 1177.5 474.512 1180.19C475.266 1175.23 475.598 1170.23 475.511 1165.19Z" fill="#B4B4B4"/>
<path fill-rule="evenodd" clip-rule="evenodd" d="M360.587 1178.19C364.687 1177.46 368.185 1178.46 371.08 1181.19C369.939 1186.73 369.272 1192.4 369.081 1198.19C370.034 1200.15 371.367 1201.81 373.079 1203.19C375.889 1214.21 372.058 1217.38 361.586 1212.69C353.214 1203.05 351.715 1192.55 357.089 1181.19C358.606 1180.53 359.773 1179.53 360.587 1178.19Z" fill="#060504"/>
</g>
<defs>
<clipPath id="clip0_850_49">
<rect width="1125" height="1277.12" fill="white" transform="translate(52 11)"/>
</clipPath>
</defs>
</svg>
