<svg width="320" height="320" viewBox="0 0 320 320" fill="none" xmlns="http://www.w3.org/2000/svg">
<g clip-path="url(#clip0_839_44)">
<path opacity="0.998255" d="M180.352 87.8711L180.273 88.0467C180.592 88.318 180.912 88.6277 181.231 88.9061C181.263 88.9345 181.296 88.9655 181.328 88.9939L181.455 88.7595C181.429 88.738 181.393 88.7033 181.367 88.6814C181.076 88.4414 180.677 88.1342 180.352 87.8711Z" fill="black" stroke="white" stroke-width="16.4004" stroke-miterlimit="10" stroke-linejoin="round"/>
<path d="M180.352 87.8711L180.273 88.0467C180.592 88.318 180.912 88.6277 181.231 88.9061C181.263 88.9345 181.296 88.9655 181.328 88.9939L181.455 88.7595C181.429 88.738 181.393 88.7033 181.367 88.6814C181.076 88.4414 180.677 88.1342 180.352 87.8711Z" fill="black" stroke="white" stroke-width="16.4004" stroke-miterlimit="10" stroke-linejoin="round"/>
<path opacity="0.998255" d="M180.352 87.8711L180.273 88.0467C180.592 88.318 180.912 88.6277 181.231 88.9061C181.263 88.9345 181.296 88.9655 181.328 88.9939L181.455 88.7595C181.429 88.738 181.393 88.7033 181.367 88.6814C181.076 88.4414 180.677 88.1342 180.352 87.8711Z" fill="black" stroke="white" stroke-width="16.4004" stroke-miterlimit="10" stroke-linejoin="round"/>
<path d="M180.352 87.8711L180.273 88.0467C180.592 88.318 180.912 88.6277 181.231 88.9061C181.263 88.9345 181.296 88.9655 181.328 88.9939L181.455 88.7595C181.429 88.738 181.393 88.7033 181.367 88.6814C181.076 88.4414 180.677 88.1342 180.352 87.8711Z" fill="black" stroke="white" stroke-width="16.4004" stroke-miterlimit="10" stroke-linejoin="round"/>
<path d="M181.367 88.6816C181.322 88.7573 181.276 88.831 181.231 88.9063C181.263 88.9348 181.296 88.9657 181.328 88.9941L181.455 88.7598C181.429 88.7382 181.393 88.7035 181.367 88.6816Z" fill="black" stroke="white" stroke-width="16.4004" stroke-miterlimit="10" stroke-linejoin="round"/>
<path d="M180.352 87.8711L180.273 88.0467C180.592 88.318 180.912 88.6277 181.231 88.9061C181.263 88.9345 181.296 88.9655 181.328 88.9939L181.455 88.7595C181.429 88.738 181.393 88.7033 181.367 88.6814C181.076 88.4414 180.677 88.1342 180.352 87.8711Z" fill="black" stroke="white" stroke-width="16.4004" stroke-miterlimit="10" stroke-linejoin="round"/>
<path d="M208.906 29.707L184.385 79.6681C171.294 69.1325 157.974 63.2741 147.061 63.7012C142.647 63.8737 138.626 65.0666 135.176 67.3731C126.863 72.93 123.321 84.0422 124.121 97.8712L30.8691 199.785L30.8398 199.805C21.2925 207.913 19.7676 223.092 27.7148 234.981C35.9937 247.365 51.4856 251.582 62.7734 244.736L78.5744 239.004L102.666 283.848C105.815 289.708 112.961 291.982 118.633 288.936C120.091 288.152 121.304 287.09 122.256 285.85C122.892 285.561 123.505 285.219 124.072 284.648L123.437 283.975C125.112 280.612 125.158 276.451 123.203 272.812L108.731 245.879C113.076 242.564 114.464 236.398 111.709 231.269L109.785 227.686L191.816 197.939C203.829 203.449 214.964 204.147 223.008 198.769C230.872 193.513 234.477 183.283 234.17 170.488L297.402 174.463L295.498 144.219L231.963 154.326C230.083 146.246 227.023 137.672 222.803 128.965L281.162 100.117L265.215 74.3456L215.019 114.922C214.16 113.545 213.327 112.17 212.412 110.801C207.784 103.877 202.774 97.5762 197.578 91.9825L234.219 46.3575L208.906 29.707ZM180.352 87.8712C180.677 88.1344 181.076 88.4416 181.367 88.6816C181.393 88.7034 181.429 88.7381 181.455 88.7597L181.328 88.9941C181.296 88.9656 181.263 88.9347 181.231 88.9062C180.912 88.6278 180.592 88.3181 180.273 88.0469L180.352 87.8712Z" fill="black" stroke="white" stroke-width="16.4004" stroke-miterlimit="10" stroke-linejoin="round"/>
<path d="M75.2035 232.739C72.0547 226.878 74.0997 219.657 79.7716 216.609C85.4435 213.562 92.5941 215.842 95.7431 221.703L123.204 272.811C126.353 278.671 124.307 285.893 118.635 288.94C112.963 291.988 105.813 289.707 102.664 283.847L75.2035 232.739Z" fill="#5251F5" stroke="black" stroke-width="3.96009" stroke-miterlimit="10" stroke-linejoin="round"/>
<path d="M81.6853 239.39C82.4059 241.534 83.8253 243.376 84.8637 245.385C86.955 249.433 89.5269 253.341 91.6444 257.4C93.59 261.13 95.0844 265.206 97.2278 268.82C98.4066 270.807 99.7944 272.646 101.004 274.614C102.998 277.86 104.418 281.265 106.956 284.165C110.594 288.321 114.331 289.147 119.368 286.974C121.128 286.214 122.701 286.022 124.071 284.645" stroke="#FEFEFE" stroke-width="3.96009" stroke-miterlimit="10" stroke-linecap="round" stroke-linejoin="round"/>
<path d="M75.2035 232.739C72.0547 226.878 74.0997 219.657 79.7716 216.609C85.4435 213.562 92.5941 215.842 95.7431 221.703L123.204 272.811C126.353 278.671 124.307 285.893 118.635 288.94C112.963 291.988 105.813 289.707 102.664 283.847L75.2035 232.739Z" stroke="black" stroke-width="3.96009" stroke-miterlimit="10" stroke-linejoin="round"/>
<path d="M86.42 231.85C83.3756 226.184 85.3503 219.204 90.8306 216.259L90.8506 216.248C96.3309 213.304 103.242 215.51 106.286 221.176L111.707 231.266C114.752 236.932 112.777 243.913 107.297 246.857L107.277 246.868C101.797 249.813 94.8856 247.606 91.8412 241.94L86.42 231.85Z" fill="#B494F9" stroke="black" stroke-width="3.96009" stroke-miterlimit="10" stroke-linejoin="round"/>
<path d="M91.2012 235.681C92.2887 237.013 92.9784 238.698 93.6881 240.207C95.4378 243.927 99.1028 245.941 102.966 246.331C104.4 246.476 106.838 246.552 108.059 245.555" stroke="#FEFEFE" stroke-width="3.96009" stroke-miterlimit="10" stroke-linecap="round" stroke-linejoin="round"/>
<path d="M86.42 231.85C83.3756 226.184 85.3503 219.204 90.8306 216.259L90.8506 216.248C96.3309 213.304 103.242 215.51 106.286 221.176L111.707 231.266C114.752 236.932 112.777 243.913 107.297 246.857L107.277 246.868C101.797 249.813 94.8856 247.606 91.8412 241.94L86.42 231.85Z" stroke="black" stroke-width="3.96009" stroke-miterlimit="10" stroke-linejoin="round"/>
<path opacity="0.998255" d="M132.364 88.8691L30.8716 199.786L30.8425 199.809C21.2951 207.917 19.7671 223.088 27.7143 234.976C35.9931 247.361 51.485 251.58 62.7728 244.734L199.605 195.12L132.364 88.8691Z" fill="url(#paint0_linear_839_44)" stroke="black" stroke-width="3.96009" stroke-miterlimit="10" stroke-linejoin="round"/>
<path opacity="0.998255" d="M124.684 104.485C124.684 104.485 53.3916 178.551 30.99 203.469C17.0632 218.96 37.8247 244.381 37.8247 244.381" stroke="#FEFEFE" stroke-width="5.54359" stroke-miterlimit="10" stroke-linejoin="round"/>
<path opacity="0.998255" d="M132.364 88.8691L30.8716 199.786L30.8425 199.809C21.2951 207.917 19.7671 223.088 27.7143 234.976C35.9931 247.361 51.485 251.58 62.7728 244.734L199.605 195.12L132.364 88.8691Z" stroke="black" stroke-width="3.96009" stroke-miterlimit="10" stroke-linejoin="round"/>
<path opacity="0.998255" d="M145.776 155.341C121.521 119.058 116.776 79.6733 135.176 67.373C153.576 55.0727 188.155 74.5146 212.409 110.797C236.664 147.08 241.41 186.465 223.009 198.765C204.609 211.066 170.031 191.624 145.776 155.341Z" fill="#50D5EE" stroke="black" stroke-width="3.96009" stroke-miterlimit="10" stroke-linejoin="round"/>
<path d="M158.52 147.315C138.096 116.763 131.92 85.0558 144.726 76.4951C157.532 67.9348 184.469 85.7626 204.893 116.315C225.317 146.867 231.492 178.574 218.687 187.135C205.881 195.695 178.943 177.867 158.52 147.315Z" fill="#B494F9" stroke="black" stroke-width="3.96009" stroke-miterlimit="10" stroke-linejoin="round"/>
<path d="M184.424 91.282C184.424 91.282 164.759 86.672 159.033 101.441C156.914 106.907 156.391 120.496 162.988 133.284C174.219 155.051 194.933 182.331 194.933 182.331C194.933 182.331 173.106 169.364 158.847 147C144.587 124.637 136.512 107.941 137.895 92.8773C139.278 77.8136 144.659 72.3883 155.845 74.0233C167.031 75.6579 184.424 91.282 184.424 91.282Z" fill="#7A4CCB"/>
<path opacity="0.998255" d="M145.776 155.341C121.521 119.058 116.776 79.6733 135.176 67.373C153.576 55.0727 188.155 74.5146 212.409 110.797C236.664 147.08 241.41 186.465 223.009 198.765C204.609 211.066 170.031 191.624 145.776 155.341Z" stroke="black" stroke-width="3.96009" stroke-miterlimit="10" stroke-linejoin="round"/>
<path d="M158.52 147.315C138.096 116.763 131.92 85.0558 144.726 76.4951C157.532 67.9348 184.469 85.7626 204.893 116.315C225.317 146.867 231.492 178.574 218.687 187.135C205.881 195.695 178.943 177.867 158.52 147.315Z" stroke="black" stroke-width="3.96009" stroke-miterlimit="10" stroke-linejoin="round"/>
<path d="M130.8 97.4829C130.525 100.558 132.196 104.013 132.642 107.011C133.993 116.098 136.673 125.527 140.662 133.875C141.664 135.973 143.076 137.866 143.913 139.996" stroke="#FEFEFE" stroke-width="3.96009" stroke-miterlimit="10" stroke-linecap="round" stroke-linejoin="round"/>
<path d="M147.686 144.22C146.758 144.585 148.433 146.176 149.331 147.061C149.517 147.245 149.185 145.875 149.174 145.855C148.957 145.443 148.195 144.76 147.663 144.969C146.276 145.514 149.512 147.791 148.952 146.365" stroke="#FEFEFE" stroke-width="3.96009" stroke-miterlimit="10" stroke-linecap="round" stroke-linejoin="round"/>
<path d="M131.76 87.0299C131.728 87.0858 131.665 87.2618 131.666 87.1977C131.686 86.1083 131.766 85.0208 131.816 83.9324C131.855 83.0846 132.017 82.1796 132.278 81.3702C132.925 79.3646 134.106 77.2161 135.304 75.4811C135.793 74.774 136.78 74.4162 137.196 73.6733" stroke="#FEFEFE" stroke-width="3.96009" stroke-miterlimit="10" stroke-linecap="round" stroke-linejoin="round"/>
<path d="M174.405 100.002L208.903 29.7085L234.22 46.3605L184.508 108.239L174.405 100.002Z" fill="#FF63BD" stroke="white" stroke-width="3.96009" stroke-miterlimit="10" stroke-linejoin="round"/>
<path d="M204.312 123.569L265.213 74.3501L281.159 100.118L210.006 135.295L204.312 123.569Z" fill="#FF63BD" stroke="white" stroke-width="3.96009" stroke-miterlimit="10" stroke-linejoin="round"/>
<path d="M219.249 169.546L297.398 174.463L295.498 144.221L217.11 156.687L219.249 169.546Z" fill="#FF63BD" stroke="white" stroke-width="3.96009" stroke-miterlimit="10" stroke-linejoin="round"/>
<path d="M174.405 100.002L208.903 29.7085L234.22 46.3605L184.508 108.239L174.405 100.002Z" stroke="black" stroke-width="3.96009" stroke-miterlimit="10" stroke-linejoin="round"/>
<path d="M204.312 123.569L265.213 74.3501L281.159 100.118L210.006 135.295L204.312 123.569Z" stroke="black" stroke-width="3.96009" stroke-miterlimit="10" stroke-linejoin="round"/>
<path d="M219.249 169.546L297.398 174.463L295.498 144.221L217.11 156.687L219.249 169.546Z" stroke="black" stroke-width="3.96009" stroke-miterlimit="10" stroke-linejoin="round"/>
</g>
<defs>
<linearGradient id="paint0_linear_839_44" x1="202.299" y1="111.626" x2="13.4997" y2="257.363" gradientUnits="userSpaceOnUse">
<stop stop-color="#32BAF8"/>
<stop offset="0.954167" stop-color="#E528E9"/>
<stop offset="1"/>
</linearGradient>
<clipPath id="clip0_839_44">
<rect width="320" height="320" fill="white"/>
</clipPath>
</defs>
</svg>
