<svg width="264" height="264" viewBox="0 0 264 264" fill="none" xmlns="http://www.w3.org/2000/svg">
<g clip-path="url(#clip0_1020_46)">
<path d="M131.89 258.78C201.969 258.78 258.78 201.969 258.78 131.89C258.78 61.8106 201.969 5 131.89 5C61.8106 5 5 61.8106 5 131.89C5 201.969 61.8106 258.78 131.89 258.78Z" fill="white" stroke="white" stroke-width="10" stroke-linecap="square" stroke-linejoin="bevel"/>
<path d="M132 252C198.274 252 252 198.274 252 132C252 65.7258 198.274 12 132 12C65.7258 12 12 65.7258 12 132C12 198.274 65.7258 252 132 252Z" fill="black"/>
<path d="M131.5 248C195.841 248 248 195.841 248 131.5C248 67.1588 195.841 15 131.5 15C67.1588 15 15 67.1588 15 131.5C15 195.841 67.1588 248 131.5 248Z" fill="#00E0FF" stroke="black" stroke-width="1.93" stroke-miterlimit="10"/>
<g filter="url(#filter0_d_1020_46)">
<path d="M151.654 124.8C151.654 130.4 149.854 140.067 146.254 153.8C142.654 167.4 140.854 176.333 140.854 180.6C140.854 184.733 141.454 186.8 142.654 186.8C143.454 186.8 146.521 185.533 151.854 183L154.254 181.8L157.654 188.8C156.454 189.867 154.854 191.2 152.854 192.8C150.854 194.4 147.121 196.6 141.654 199.4C136.187 202.067 131.121 203.4 126.454 203.4C121.787 203.4 118.121 202 115.454 199.2C112.787 196.267 111.454 192.4 111.454 187.6C111.454 182.667 113.121 174 116.454 161.6C119.787 149.067 121.454 140.933 121.454 137.2C121.454 131.6 119.721 126.333 116.254 121.4L114.454 119L114.654 116.4C121.721 114.4 133.187 113.4 149.054 113.4C150.787 115.4 151.654 119.2 151.654 124.8ZM128.854 91.6C126.187 88.9333 124.854 85.4 124.854 81C124.854 76.6 126.654 72.7333 130.254 69.4C133.987 66.0667 138.254 64.4 143.054 64.4C147.854 64.4 151.587 65.7333 154.254 68.4C156.921 71.0667 158.254 74.6 158.254 79C158.254 83.2667 156.321 87.0667 152.454 90.4C148.721 93.7333 144.521 95.4 139.854 95.4C135.187 95.4 131.521 94.1333 128.854 91.6Z" fill="white"/>
<path d="M146.254 153.8L150.121 154.824L150.123 154.814L146.254 153.8ZM151.854 183L153.57 186.613L153.607 186.596L153.643 186.578L151.854 183ZM154.254 181.8L157.852 180.052L156.084 176.413L152.465 178.222L154.254 181.8ZM157.654 188.8L160.311 191.79L162.575 189.777L161.252 187.052L157.654 188.8ZM152.854 192.8L155.353 195.923L155.353 195.923L152.854 192.8ZM141.654 199.4L143.408 202.995L143.443 202.978L143.477 202.96L141.654 199.4ZM115.454 199.2L112.494 201.891L112.525 201.925L112.557 201.959L115.454 199.2ZM116.454 161.6L120.317 162.638L120.32 162.628L116.454 161.6ZM116.254 121.4L119.527 119.1L119.491 119.05L119.454 119L116.254 121.4ZM114.454 119L110.466 118.693L110.35 120.195L111.254 121.4L114.454 119ZM114.654 116.4L113.565 112.551L110.88 113.311L110.666 116.093L114.654 116.4ZM149.054 113.4L152.077 110.78L150.88 109.4H149.054V113.4ZM128.854 91.6L126.025 94.4284L126.062 94.4647L126.099 94.5L128.854 91.6ZM130.254 69.4L127.59 66.4162L127.563 66.4404L127.536 66.4649L130.254 69.4ZM154.254 68.4L157.082 65.5716L157.082 65.5716L154.254 68.4ZM152.454 90.4L149.842 87.3704L149.816 87.3931L149.79 87.4162L152.454 90.4ZM147.654 124.8C147.654 129.822 145.991 139.03 142.385 152.786L150.123 154.814C153.717 141.104 155.654 130.978 155.654 124.8H147.654ZM142.387 152.776C140.576 159.617 139.205 165.335 138.283 169.91C137.375 174.413 136.854 178.043 136.854 180.6H144.854C144.854 178.89 145.232 175.921 146.125 171.49C147.003 167.132 148.331 161.583 150.121 154.824L142.387 152.776ZM136.854 180.6C136.854 182.765 137.001 184.774 137.463 186.365C137.692 187.155 138.088 188.164 138.85 189.04C139.715 190.033 141.026 190.8 142.654 190.8V182.8C143.1 182.8 143.566 182.901 143.998 183.114C144.418 183.321 144.705 183.582 144.883 183.785C145.195 184.144 145.216 184.378 145.145 184.135C145.007 183.659 144.854 182.569 144.854 180.6H136.854ZM142.654 190.8C143.57 190.8 144.472 190.512 144.924 190.364C145.543 190.161 146.271 189.881 147.081 189.547C148.709 188.875 150.881 187.89 153.57 186.613L150.138 179.387C147.493 180.643 145.466 181.559 144.027 182.153C143.303 182.452 142.782 182.647 142.434 182.761C141.919 182.93 142.138 182.8 142.654 182.8V190.8ZM153.643 186.578L156.043 185.378L152.465 178.222L150.065 179.422L153.643 186.578ZM150.656 183.548L154.056 190.548L161.252 187.052L157.852 180.052L150.656 183.548ZM154.996 185.81C153.869 186.812 152.329 188.098 150.355 189.677L155.353 195.923C157.379 194.302 159.039 192.921 160.311 191.79L154.996 185.81ZM150.355 189.677C148.703 190.998 145.297 193.04 139.83 195.84L143.477 202.96C148.944 200.16 153.005 197.802 155.353 195.923L150.355 189.677ZM139.9 195.805C134.82 198.283 130.357 199.4 126.454 199.4V207.4C131.884 207.4 137.554 205.85 143.408 202.995L139.9 195.805ZM126.454 199.4C122.638 199.4 120.109 198.288 118.35 196.441L112.557 201.959C116.132 205.712 120.936 207.4 126.454 207.4V199.4ZM118.414 196.509C116.551 194.461 115.454 191.626 115.454 187.6H107.454C107.454 193.174 109.023 198.073 112.494 201.891L118.414 196.509ZM115.454 187.6C115.454 183.263 116.974 175.072 120.317 162.638L112.591 160.562C109.267 172.928 107.454 182.071 107.454 187.6H115.454ZM120.32 162.628C121.996 156.323 123.268 151.075 124.122 146.903C124.961 142.812 125.454 139.503 125.454 137.2H117.454C117.454 138.63 117.114 141.254 116.285 145.297C115.474 149.259 114.245 154.343 112.588 160.572L120.32 162.628ZM125.454 137.2C125.454 130.713 123.428 124.653 119.527 119.1L112.981 123.7C116.013 128.014 117.454 132.487 117.454 137.2H125.454ZM119.454 119L117.654 116.6L111.254 121.4L113.054 123.8L119.454 119ZM118.442 119.307L118.642 116.707L110.666 116.093L110.466 118.693L118.442 119.307ZM115.743 120.249C122.24 118.41 133.231 117.4 149.054 117.4V109.4C133.143 109.4 121.201 110.39 113.565 112.551L115.743 120.249ZM146.031 116.02C146.312 116.344 146.753 117.099 147.104 118.639C147.449 120.152 147.654 122.181 147.654 124.8H155.654C155.654 121.819 155.426 119.148 154.904 116.861C154.388 114.601 153.529 112.456 152.077 110.78L146.031 116.02ZM131.682 88.7716C129.891 86.9801 128.854 84.5301 128.854 81H120.854C120.854 86.2699 122.484 90.8866 126.025 94.4284L131.682 88.7716ZM128.854 81C128.854 77.8488 130.085 75.0078 132.972 72.335L127.536 66.4649C123.223 70.4588 120.854 75.3512 120.854 81H128.854ZM132.918 72.3837C135.953 69.6743 139.282 68.4 143.054 68.4V60.4C137.226 60.4 132.022 62.459 127.59 66.4162L132.918 72.3837ZM143.054 68.4C147.097 68.4 149.699 69.5024 151.425 71.2284L157.082 65.5716C153.475 61.9642 148.611 60.4 143.054 60.4V68.4ZM151.425 71.2284C153.217 73.0199 154.254 75.4699 154.254 79H162.254C162.254 73.7301 160.624 69.1134 157.082 65.5716L151.425 71.2284ZM154.254 79C154.254 81.8734 153.018 84.633 149.842 87.3704L155.066 93.4296C159.624 89.5004 162.254 84.66 162.254 79H154.254ZM149.79 87.4162C146.732 90.1467 143.463 91.4 139.854 91.4V99.4C145.578 99.4 150.709 97.32 155.118 93.3837L149.79 87.4162ZM139.854 91.4C135.925 91.4 133.347 90.3513 131.609 88.7L126.099 94.5C129.694 97.9154 134.449 99.4 139.854 99.4V91.4Z" fill="black"/>
</g>
<g clip-path="url(#clip1_1020_46)">
<path d="M168.398 43.3452C184.617 49.3645 198.363 59.7596 208.524 73.7608C213.063 80.012 222.605 72.739 218.064 66.4779C206.787 50.9418 191.148 39.0069 173.133 32.3223C165.91 29.6366 161.143 40.6531 168.398 43.3452Z" fill="white"/>
<path d="M225.949 91.9238L226.332 91.4332C226.851 90.825 227.178 90.1297 227.326 89.3659C227.615 88.6048 227.689 87.8198 227.559 87.0096C227.487 86.1822 227.224 85.4388 226.76 84.7806C226.431 84.0756 225.935 83.4819 225.293 83.017L223.977 82.2322C222.978 81.8114 221.942 81.6572 220.87 81.7894L219.307 82.1937C218.331 82.6065 217.52 83.2204 216.866 84.0466L216.483 84.5372C215.964 85.1454 215.636 85.8407 215.489 86.6045C215.2 87.3656 215.125 88.1506 215.256 88.9608C215.327 89.7882 215.59 90.5316 216.054 91.1897C216.383 91.8948 216.88 92.4885 217.521 92.9534L218.837 93.7382C219.836 94.159 220.873 94.3132 221.945 94.181L223.507 93.7766C224.484 93.3639 225.295 92.75 225.949 91.9238Z" fill="white"/>
</g>
</g>
<defs>
<filter id="filter0_d_1020_46" x="107.454" y="64.3999" width="54.8" height="147" filterUnits="userSpaceOnUse" color-interpolation-filters="sRGB">
<feFlood flood-opacity="0" result="BackgroundImageFix"/>
<feColorMatrix in="SourceAlpha" type="matrix" values="0 0 0 0 0 0 0 0 0 0 0 0 0 0 0 0 0 0 127 0" result="hardAlpha"/>
<feOffset dy="4"/>
<feGaussianBlur stdDeviation="2"/>
<feComposite in2="hardAlpha" operator="out"/>
<feColorMatrix type="matrix" values="0 0 0 0 0 0 0 0 0 0 0 0 0 0 0 0 0 0 0.25 0"/>
<feBlend mode="normal" in2="BackgroundImageFix" result="effect1_dropShadow_1020_46"/>
<feBlend mode="normal" in="SourceGraphic" in2="effect1_dropShadow_1020_46" result="shape"/>
</filter>
<clipPath id="clip0_1020_46">
<rect width="263.78" height="263.78" fill="white"/>
</clipPath>
<clipPath id="clip1_1020_46">
<rect width="56.39" height="68.11" fill="white" transform="translate(164.042 32.7085) rotate(-7.03321)"/>
</clipPath>
</defs>
</svg>
