<svg width="264" height="264" viewBox="0 0 264 264" fill="none" xmlns="http://www.w3.org/2000/svg">
<g clip-path="url(#clip0_1020_46)">
<path d="M131.89 258.78C201.969 258.78 258.78 201.969 258.78 131.89C258.78 61.8106 201.969 5 131.89 5C61.8106 5 5 61.8106 5 131.89C5 201.969 61.8106 258.78 131.89 258.78Z" fill="white" stroke="white" stroke-width="10" stroke-linecap="square" stroke-linejoin="bevel"/>
<path d="M132 252C198.274 252 252 198.274 252 132C252 65.7258 198.274 12 132 12C65.7258 12 12 65.7258 12 132C12 198.274 65.7258 252 132 252Z" fill="black"/>
<path d="M131.5 248C195.841 248 248 195.841 248 131.5C248 67.1588 195.841 15 131.5 15C67.1588 15 15 67.1588 15 131.5C15 195.841 67.1588 248 131.5 248Z" fill="#00E0FF" stroke="black" stroke-width="1.93" stroke-miterlimit="10"/>
<g filter="url(#filter0_d_1020_46)">
<path d="M151.654 124.8C151.654 130.4 149.854 140.067 146.254 153.8C142.654 167.4 140.854 176.333 140.854 180.6C140.854 184.733 141.454 186.8 142.654 186.8C143.454 186.8 146.521 185.533 151.854 183L154.254 181.8L157.654 188.8C156.454 189.867 154.854 191.2 152.854 192.8C150.854 194.4 147.121 196.6 141.654 199.4C136.187 202.067 131.121 203.4 126.454 203.4C121.787 203.4 118.121 202 115.454 199.2C112.787 196.267 111.454 192.4 111.454 187.6C111.454 182.667 113.121 174 116.454 161.6C119.787 149.067 121.454 140.933 121.454 137.2C121.454 131.6 119.721 126.333 116.254 121.4L114.454 119L114.654 116.4C121.721 114.4 133.187 113.4 149.054 113.4C150.787 115.4 151.654 119.2 151.654 124.8ZM128.854 91.5999C126.187 88.9332 124.854 85.3999 124.854 80.9999C124.854 76.5999 126.654 72.7332 130.254 69.3999C133.987 66.0666 138.254 64.3999 143.054 64.3999C147.854 64.3999 151.587 65.7332 154.254 68.3999C156.921 71.0666 158.254 74.5999 158.254 78.9999C158.254 83.2666 156.321 87.0666 152.454 90.3999C148.721 93.7332 144.521 95.3999 139.854 95.3999C135.187 95.3999 131.521 94.1332 128.854 91.5999Z" fill="white"/>
</g>
<g filter="url(#filter1_d_1020_46)">
<path fill-rule="evenodd" clip-rule="evenodd" d="M150.123 154.814L150.121 154.823C148.331 161.583 147.003 167.132 146.125 171.49C145.232 175.921 144.854 178.89 144.854 180.6C144.854 181.041 144.862 181.439 144.875 181.795C146.22 181.216 147.957 180.422 150.101 179.404L156.084 176.413L162.575 189.777L160.311 191.79C159.039 192.921 157.379 194.302 155.353 195.923C153.005 197.802 148.944 200.16 143.477 202.96L143.443 202.978L143.408 202.995C137.554 205.85 131.884 207.4 126.454 207.4C120.936 207.4 116.132 205.712 112.557 201.959L112.525 201.925L112.494 201.891C109.023 198.073 107.454 193.174 107.454 187.6C107.454 182.072 109.266 172.931 112.589 160.568C114.245 154.341 115.474 149.258 116.285 145.297C117.114 141.254 117.454 138.63 117.454 137.2C117.454 132.505 116.024 128.048 113.016 123.749L110.35 120.195L110.88 113.311L113.565 112.551C121.201 110.39 133.143 109.4 149.054 109.4H150.88L152.077 110.78C153.529 112.456 154.388 114.601 154.904 116.86C155.426 119.148 155.654 121.819 155.654 124.8C155.654 130.978 153.717 141.104 150.123 154.814ZM116.254 121.4C119.721 126.333 121.454 131.6 121.454 137.2C121.454 140.933 119.787 149.067 116.454 161.6C113.121 174 111.454 182.667 111.454 187.6C111.454 192.4 112.787 196.267 115.454 199.2C118.121 202 121.787 203.4 126.454 203.4C131.121 203.4 136.187 202.067 141.654 199.4C147.121 196.6 150.854 194.4 152.854 192.8C154.854 191.2 156.454 189.867 157.654 188.8L154.254 181.8L151.854 183C151.443 183.195 151.047 183.382 150.663 183.562C146.062 185.721 143.392 186.8 142.654 186.8C141.454 186.8 140.854 184.733 140.854 180.6C140.854 176.333 142.654 167.4 146.254 153.8C149.854 140.067 151.654 130.4 151.654 124.8C151.654 119.2 150.787 115.4 149.054 113.4C133.187 113.4 121.721 114.4 114.654 116.4L114.454 119L116.254 121.4ZM145.17 184.212C145.176 184.226 145.179 184.234 145.179 184.235C145.179 184.235 145.175 184.228 145.17 184.212ZM126.062 94.4646L126.025 94.4283C122.484 90.8865 120.854 86.2698 120.854 80.9999C120.854 75.3511 123.223 70.4587 127.536 66.4649L127.563 66.4403L127.59 66.4161C132.022 62.4589 137.226 60.3999 143.054 60.3999C148.611 60.3999 153.475 61.9641 157.082 65.5715C160.624 69.1133 162.254 73.73 162.254 78.9999C162.254 84.6489 159.634 89.4816 155.092 93.4068C150.689 97.328 145.567 99.3999 139.854 99.3999C134.449 99.3999 129.694 97.9153 126.099 94.4999L126.062 94.4646ZM152.454 90.3999C156.321 87.0666 158.254 83.2666 158.254 78.9999C158.254 74.5999 156.921 71.0666 154.254 68.3999C151.587 65.7332 147.854 64.3999 143.054 64.3999C138.254 64.3999 133.987 66.0666 130.254 69.3999C126.654 72.7332 124.854 76.5999 124.854 80.9999C124.854 85.3999 126.187 88.9332 128.854 91.5999C131.521 94.1332 135.187 95.3999 139.854 95.3999C144.521 95.3999 148.721 93.7332 152.454 90.3999Z" fill="black"/>
</g>
<g clip-path="url(#clip1_1020_46)">
<path d="M168.398 43.3452C184.617 49.3645 198.363 59.7596 208.524 73.7608C213.063 80.012 222.605 72.739 218.064 66.4779C206.787 50.9418 191.148 39.0069 173.133 32.3223C165.91 29.6366 161.143 40.6531 168.398 43.3452Z" fill="white"/>
<path d="M225.949 91.9238L226.332 91.4332C226.851 90.825 227.178 90.1297 227.326 89.3659C227.615 88.6048 227.689 87.8198 227.559 87.0096C227.487 86.1822 227.224 85.4388 226.76 84.7806C226.431 84.0756 225.935 83.4819 225.293 83.017L223.977 82.2322C222.978 81.8114 221.942 81.6572 220.87 81.7894L219.307 82.1937C218.331 82.6065 217.52 83.2204 216.866 84.0466L216.483 84.5372C215.964 85.1454 215.636 85.8407 215.489 86.6045C215.2 87.3656 215.125 88.1506 215.256 88.9608C215.327 89.7882 215.59 90.5316 216.054 91.1897C216.383 91.8948 216.88 92.4885 217.521 92.9534L218.837 93.7382C219.836 94.159 220.873 94.3132 221.945 94.181L223.507 93.7766C224.484 93.3639 225.295 92.75 225.949 91.9238Z" fill="white"/>
</g>
</g>
<defs>
<filter id="filter0_d_1020_46" x="107.454" y="64.3999" width="54.8" height="147" filterUnits="userSpaceOnUse" color-interpolation-filters="sRGB">
<feFlood flood-opacity="0" result="BackgroundImageFix"/>
<feColorMatrix in="SourceAlpha" type="matrix" values="0 0 0 0 0 0 0 0 0 0 0 0 0 0 0 0 0 0 127 0" result="hardAlpha"/>
<feOffset dy="4"/>
<feGaussianBlur stdDeviation="2"/>
<feComposite in2="hardAlpha" operator="out"/>
<feColorMatrix type="matrix" values="0 0 0 0 0 0 0 0 0 0 0 0 0 0 0 0 0 0 0.25 0"/>
<feBlend mode="normal" in2="BackgroundImageFix" result="effect1_dropShadow_1020_46"/>
<feBlend mode="normal" in="SourceGraphic" in2="effect1_dropShadow_1020_46" result="shape"/>
</filter>
<filter id="filter1_d_1020_46" x="103.454" y="60.3999" width="63.1216" height="155" filterUnits="userSpaceOnUse" color-interpolation-filters="sRGB">
<feFlood flood-opacity="0" result="BackgroundImageFix"/>
<feColorMatrix in="SourceAlpha" type="matrix" values="0 0 0 0 0 0 0 0 0 0 0 0 0 0 0 0 0 0 127 0" result="hardAlpha"/>
<feOffset dy="4"/>
<feGaussianBlur stdDeviation="2"/>
<feComposite in2="hardAlpha" operator="out"/>
<feColorMatrix type="matrix" values="0 0 0 0 0 0 0 0 0 0 0 0 0 0 0 0 0 0 0.25 0"/>
<feBlend mode="normal" in2="BackgroundImageFix" result="effect1_dropShadow_1020_46"/>
<feBlend mode="normal" in="SourceGraphic" in2="effect1_dropShadow_1020_46" result="shape"/>
</filter>
<clipPath id="clip0_1020_46">
<rect width="263.78" height="263.78" fill="white"/>
</clipPath>
<clipPath id="clip1_1020_46">
<rect width="56.39" height="68.11" fill="white" transform="translate(164.042 32.7085) rotate(-7.03321)"/>
</clipPath>
</defs>
</svg>
