<svg width="350" height="350" viewBox="0 0 350 350" fill="none" xmlns="http://www.w3.org/2000/svg">
<g clip-path="url(#clip0_820_4832)">
<mask id="mask0_820_4832" style="mask-type:luminance" maskUnits="userSpaceOnUse" x="0" y="0" width="350" height="350">
<path d="M350 0H0V350H350V0Z" fill="white"/>
</mask>
<g mask="url(#mask0_820_4832)">
<path d="M214.274 208.122C210.135 208.149 206.001 208.213 201.863 208.325C194.434 208.526 187.002 208.832 179.582 209.244C175.237 209.485 170.899 209.741 166.562 210.098C158.053 210.807 151.722 218.285 152.431 226.793C153.14 235.302 160.617 241.622 169.125 240.914C169.1 240.915 169.174 240.916 169.2 240.914C169.252 240.909 169.277 240.897 169.339 240.892C169.503 240.879 169.666 240.873 169.83 240.86C170.188 240.831 170.551 240.802 170.909 240.775C171.894 240.699 172.882 240.62 173.868 240.55C177.035 240.325 180.194 240.133 183.363 239.952C192.742 239.419 202.138 239.072 211.53 238.873C226.202 238.563 240.912 238.6 255.557 239.642C269.115 240.607 282.601 242.471 295.953 244.994C303.912 246.497 311.831 248.216 319.687 250.185C322.402 250.865 325.107 251.576 327.804 252.321C328.622 252.547 329.436 252.781 330.251 253.015C330.538 253.098 330.829 253.177 331.116 253.261C331.202 253.286 331.286 253.31 331.372 253.336C331.393 253.342 331.457 253.363 331.436 253.357C339.173 255.7 347.337 251.331 349.679 243.595C352.023 235.858 347.652 227.684 339.917 225.34C336.577 224.328 333.2 223.422 329.823 222.542C324.147 221.063 318.438 219.703 312.712 218.429C304.673 216.641 296.586 215.083 288.466 213.709C278.791 212.071 269.078 210.717 259.306 209.81C248.468 208.803 237.578 208.336 226.697 208.176C222.558 208.115 218.414 208.096 214.274 208.122Z" fill="white"/>
<path d="M33.934 77.2139C33.0578 77.1855 32.1745 77.2727 31.3065 77.3957C30.5788 77.4986 29.864 77.6886 29.1595 77.8975C28.5839 78.0684 28.0225 78.2881 27.4719 78.5277C27.0256 78.7219 26.598 78.9605 26.1688 79.1901C25.9842 79.2886 25.8076 79.4031 25.6347 79.521C25.3123 79.7415 24.979 79.9541 24.6627 80.1834C24.1569 80.5502 23.5742 81.0533 23.1354 81.4757C18.3662 86.065 17.1927 93.0131 16.6305 99.3131C16.5096 100.669 16.4187 102.023 16.3528 103.383C16.2683 105.127 16.2252 106.881 16.2033 108.627C16.175 110.879 16.1809 113.126 16.2247 115.378C16.4733 128.178 17.5607 140.964 18.7988 153.702C20.2495 168.626 21.9913 183.536 24.2569 198.36C25.5668 206.931 27.0404 215.495 29.0634 223.93C29.7543 226.811 30.5059 229.679 31.4239 232.497C32.077 234.501 32.8019 236.517 33.8165 238.371C37.7186 245.451 46.6146 248.03 53.6942 244.128C60.7735 240.226 63.3534 231.319 59.4514 224.24C59.5424 224.406 59.6244 224.582 59.7078 224.753C59.731 224.8 59.7601 224.843 59.7823 224.892C59.7891 224.906 59.81 224.949 59.8038 224.934C59.4009 223.963 59.1045 222.94 58.8102 221.933C58.3929 220.503 58.0183 219.065 57.6676 217.618C56.5164 212.871 55.5912 208.073 54.7517 203.262C54.4544 201.559 54.2052 199.843 53.929 198.135C58.7056 205.435 63.8637 212.485 69.2781 219.284C73.4494 224.522 77.7871 229.631 82.2876 234.59C84.9153 237.486 87.5779 240.356 90.3731 243.092C96.48 249.059 106.27 248.953 112.238 242.847C118.205 236.74 118.099 226.949 111.992 220.982C112.006 220.996 111.903 220.904 111.896 220.897C111.843 220.845 111.8 220.8 111.746 220.747C111.627 220.629 111.512 220.514 111.394 220.395C111.007 220.006 110.623 219.613 110.24 219.22C109.2 218.151 108.171 217.073 107.153 215.983C104.194 212.814 101.317 209.561 98.5123 206.253C89.8772 196.068 81.8713 185.287 75.0244 173.814C71.6273 168.122 68.5169 162.262 65.828 156.201C60.053 143.184 55.9374 129.442 52.8397 115.559C51.5474 109.768 50.4345 103.929 49.5393 98.0635C49.2471 96.1498 48.9829 94.2285 48.7488 92.3063C48.5714 90.8499 48.4832 89.4769 48.033 87.9914C47.7654 87.1079 47.4274 86.212 46.9971 85.3958C46.7011 84.8339 46.3801 84.2699 46.0144 83.7507C45.569 83.1184 45.0994 82.5018 44.5617 81.9457C43.9274 81.2895 43.2523 80.6626 42.511 80.1301C41.6838 79.5357 40.8105 79.0025 39.8836 78.5811C38.9269 78.1463 37.9169 77.8117 36.8929 77.5772C35.9222 77.355 34.9289 77.246 33.934 77.2139Z" fill="white"/>
<path d="M328.744 185.051C327.719 184.998 326.67 185.051 325.615 185.211C292.989 190.196 260.364 195.145 227.743 200.165C215.673 202.022 203.599 203.857 191.534 205.751C183.17 207.064 174.873 208.747 166.583 210.461C155.653 212.721 144.713 215.021 133.621 216.347C128.665 216.939 123.682 217.262 118.7 217.543C111.329 217.959 103.95 218.196 96.5682 218.302C86.6646 218.442 76.7528 218.33 66.8534 218.013C60.4594 217.808 54.0623 217.558 47.6806 217.105C39.618 216.524 32.6141 222.586 32.0328 230.649C31.4514 238.711 37.5139 245.715 45.5765 246.297C51.76 246.744 57.9663 247.015 64.1617 247.237C73.8753 247.584 83.5908 247.735 93.3105 247.696C102.308 247.66 111.305 247.446 120.291 246.98C125.853 246.692 131.416 246.334 136.954 245.731C145.186 244.834 153.364 243.472 161.499 241.939C173.016 239.769 184.474 237.295 196.074 235.594C203.629 234.487 211.193 233.42 218.75 232.326C231.526 230.476 244.302 228.605 257.074 226.729C281.478 223.144 305.859 219.447 330.251 215.78C338.692 214.501 344.497 206.62 343.219 198.178C342.098 190.792 335.925 185.421 328.744 185.051Z" fill="white"/>
<path d="M55.4993 89.4443C54.5296 89.3674 53.5329 89.3845 52.5301 89.5082C44.5071 90.4981 38.808 97.8064 39.7981 105.829C40.2483 109.475 40.9233 113.092 41.6459 116.692C42.7502 122.196 44.0627 127.665 45.555 133.077C47.5491 140.307 49.9129 147.421 52.6155 154.418C56.4269 164.285 60.9971 173.88 66.5649 182.883C71.4998 190.862 77.1784 198.364 83.2918 205.473C88.9089 212.006 94.8951 218.211 101.161 224.123C105.788 228.488 110.552 232.702 115.452 236.759C118.37 239.173 121.324 241.562 124.382 243.797C131.281 248.827 140.95 247.311 145.979 240.412C151.009 233.512 149.493 223.844 142.594 218.814C142.609 218.826 142.566 218.794 142.55 218.782C142.506 218.749 142.456 218.719 142.412 218.686C142.342 218.635 142.267 218.577 142.198 218.526C141.973 218.359 141.749 218.193 141.525 218.024C140.778 217.459 140.031 216.881 139.293 216.304C137.358 214.792 135.454 213.251 133.568 211.679C127.849 206.914 122.323 201.909 117.033 196.672C108.053 187.781 99.5552 178.282 92.5948 167.705C86.9774 159.168 82.4506 149.891 78.8375 140.34C75.7388 132.148 73.2231 123.727 71.2858 115.186C70.6323 112.304 70.0349 109.413 69.5235 106.502C69.3513 105.52 69.1923 104.529 69.043 103.543C68.9961 103.233 68.9473 102.924 68.9042 102.614C68.8905 102.516 68.8745 102.424 68.8615 102.326C68.8577 102.298 68.8471 102.212 68.8509 102.24C67.9844 95.2203 62.286 89.982 55.4993 89.4443Z" fill="white"/>
<path d="M79.0405 103.554C77.1432 103.432 75.1912 103.688 73.2833 104.355C65.652 107.02 61.6352 115.362 64.3005 122.993C66.163 128.331 68.3047 133.584 70.5277 138.78C73.4446 145.599 76.5485 152.322 79.9271 158.925C85.7732 170.349 92.294 181.524 100.253 191.62C110.281 204.339 122.409 215.333 135.373 224.988C139.622 228.152 143.977 231.188 148.425 234.067C151.066 235.776 153.734 237.461 156.479 239.001C163.93 243.171 173.351 240.503 177.521 233.052C181.69 225.601 179.022 216.19 171.571 212.021C171.595 212.034 171.46 211.955 171.443 211.946C171.345 211.891 171.252 211.831 171.155 211.775C170.877 211.615 170.598 211.457 170.321 211.295C169.601 210.871 168.887 210.438 168.175 210.002C166.048 208.699 163.947 207.349 161.873 205.965C155.585 201.767 149.536 197.223 143.715 192.399C139.798 189.154 136.018 185.747 132.414 182.156C129.18 178.933 126.067 175.584 123.197 172.03C119.804 167.832 116.726 163.384 113.85 158.818C110.51 153.514 107.448 148.043 104.611 142.454C101.397 136.122 98.4334 129.664 95.7243 123.1C94.8049 120.872 93.9114 118.635 93.0542 116.382C92.7989 115.71 92.5432 115.037 92.2957 114.363C92.2123 114.135 92.1324 113.908 92.05 113.68C92.0175 113.589 91.9864 113.493 91.9539 113.402C91.9464 113.38 91.9252 113.317 91.9327 113.338C89.9336 107.614 84.7328 103.919 79.0405 103.554Z" fill="white"/>
<path d="M106.598 118.122C104.697 118.143 102.768 118.543 100.916 119.351C93.5057 122.582 90.1226 131.21 93.3533 138.619C94.8182 141.981 96.4503 145.272 98.1278 148.531C100.521 153.182 103.058 157.767 105.722 162.268C107.937 166.01 110.258 169.679 112.665 173.301C117.699 180.878 123.197 188.177 129.36 194.877C139.323 205.709 150.87 215.015 163.123 223.129C167.072 225.744 171.101 228.247 175.203 230.616C177.53 231.96 179.872 233.285 182.274 234.493C189.906 238.32 199.201 235.237 203.027 227.604C206.854 219.972 203.77 210.678 196.138 206.851C196.166 206.865 196.033 206.804 196.021 206.797C195.931 206.752 195.842 206.704 195.754 206.658C195.559 206.558 195.36 206.461 195.166 206.359C194.538 206.03 193.919 205.695 193.297 205.355C191.533 204.393 189.783 203.397 188.053 202.375C182.636 199.178 177.365 195.73 172.266 192.047C165.284 187.004 158.578 181.567 152.495 175.459C149.424 172.375 146.571 169.087 143.832 165.707C140.295 161.34 137.032 156.744 133.984 152.024C130.54 146.69 127.349 141.195 124.414 135.565C123.4 133.619 122.413 131.659 121.466 129.679C121.166 129.052 120.87 128.42 120.579 127.789C120.479 127.57 120.379 127.357 120.28 127.137C120.258 127.087 120.239 127.038 120.216 126.988C120.205 126.963 120.173 126.888 120.184 126.913C117.761 121.356 112.301 118.06 106.598 118.122Z" fill="white"/>
<path d="M141.44 134.86C139.543 134.998 137.642 135.511 135.843 136.43C128.645 140.109 125.787 148.929 129.466 156.127C130.85 158.834 132.394 161.471 133.963 164.073C136.254 167.872 138.671 171.594 141.205 175.235C143.442 178.45 145.775 181.589 148.212 184.656C153.125 190.841 158.408 196.734 164.276 202.034C173.382 210.259 183.592 217.219 194.269 223.236C197.795 225.224 201.374 227.117 205.003 228.908C207.135 229.96 209.27 231.003 211.455 231.942C219.305 235.299 228.391 231.652 231.749 223.802C235.107 215.952 231.471 206.866 223.621 203.508C223.649 203.52 223.524 203.47 223.514 203.465C223.433 203.431 223.359 203.394 223.279 203.359C223.103 203.281 222.92 203.202 222.745 203.124C222.262 202.908 221.783 202.694 221.303 202.472C219.756 201.757 218.223 201.012 216.699 200.25C212.075 197.94 207.55 195.443 203.123 192.774C196.518 188.79 190.113 184.453 184.228 179.454C181.52 177.153 178.981 174.665 176.527 172.095C173.634 169.065 170.91 165.865 168.367 162.535C165.193 158.38 162.21 154.087 159.469 149.632C158.54 148.121 157.629 146.585 156.757 145.04C156.476 144.543 156.206 144.046 155.934 143.544C155.837 143.365 155.741 143.18 155.646 142.999C155.617 142.944 155.589 142.895 155.56 142.839C155.554 142.828 155.533 142.795 155.539 142.807C152.78 137.409 147.129 134.448 141.44 134.86Z" fill="white"/>
<path d="M171.977 142.636C169.16 142.525 166.286 143.228 163.71 144.826C156.84 149.085 154.719 158.111 158.978 164.981C161.471 169.003 164.307 172.823 167.203 176.559C170.275 180.523 173.531 184.334 176.965 187.988C179.569 190.758 182.254 193.438 185.094 195.967C187.708 198.295 190.449 200.496 193.222 202.632C196.83 205.41 200.511 208.074 204.256 210.664C209.399 214.222 214.648 217.614 219.957 220.918C223.172 222.919 226.406 224.906 229.677 226.814C237.061 231.1 246.518 228.591 250.804 221.207C255.09 213.822 252.581 204.354 245.197 200.069C244.406 199.639 243.632 199.169 242.857 198.712C241.446 197.88 240.041 197.038 238.638 196.191C234.104 193.454 229.624 190.634 225.159 187.785C221.506 185.455 217.892 183.061 214.328 180.597C209.613 177.337 205.009 173.919 200.816 170.001C196.432 165.903 192.44 161.351 188.811 156.575C187.621 155.009 186.464 153.421 185.35 151.8C184.998 151.289 184.655 150.77 184.314 150.252C184.214 150.099 184.114 149.946 184.015 149.792C183.98 149.737 183.943 149.687 183.908 149.632C183.906 149.629 183.834 149.524 183.855 149.557C181.193 145.263 176.672 142.82 171.977 142.636Z" fill="white"/>
<path d="M203.892 153.231C201.075 153.328 198.259 154.248 195.807 156.03C189.268 160.783 187.818 169.935 192.57 176.473C195.295 180.224 198.292 183.779 201.372 187.24C203.718 189.877 206.164 192.412 208.71 194.856C211.134 197.183 213.652 199.418 216.325 201.457C218.833 203.369 221.488 205.082 224.165 206.744C227.073 208.55 230.03 210.29 233.02 211.956C240.386 216.063 247.904 219.912 255.525 223.524C263.251 227.159 272.462 223.848 276.097 216.122C279.732 208.397 276.41 199.185 268.684 195.55C267.748 195.135 266.832 194.677 265.907 194.236C264.308 193.474 262.713 192.698 261.122 191.919C256.723 189.765 252.341 187.566 247.995 185.307C245.32 183.916 242.654 182.513 240.027 181.034C238.194 180.004 236.359 178.959 234.611 177.787C233.335 176.932 232.113 175.997 230.927 175.021C227.172 171.933 223.772 168.387 220.619 164.692C219.58 163.474 218.565 162.234 217.575 160.975C217.273 160.591 216.963 160.211 216.667 159.822C216.57 159.694 216.475 159.566 216.379 159.437C216.346 159.394 216.315 159.342 216.283 159.298C216.272 159.284 216.24 159.241 216.251 159.256C213.28 155.169 208.588 153.07 203.892 153.231Z" fill="white"/>
<path d="M236.31 162.13C232.575 162.418 228.953 164.134 226.323 167.203C221.064 173.342 221.776 182.58 227.914 187.839C232.925 192.144 238.096 196.255 243.338 200.272C247.771 203.669 252.304 207.011 257.202 209.714C262.972 212.899 269.197 215.254 275.467 217.245C279.357 218.48 283.294 219.633 287.27 220.566C295.585 222.502 303.887 217.336 305.823 209.02C307.758 200.704 302.592 192.392 294.276 190.456C294.283 190.458 294.198 190.439 294.18 190.435C294.123 190.422 294.056 190.405 293.999 190.392C293.847 190.356 293.702 190.322 293.55 190.285C293.053 190.166 292.55 190.047 292.055 189.922C290.831 189.613 289.618 189.288 288.402 188.95C284.474 187.858 280.562 186.639 276.738 185.222C274.764 184.491 272.785 183.719 270.906 182.766C268.393 181.49 266.023 179.94 263.675 178.386C259.66 175.73 255.796 172.813 252.043 169.799C250.901 168.882 249.774 167.956 248.647 167.022C248.083 166.555 247.532 166.056 246.959 165.601C243.889 162.971 240.045 161.842 236.31 162.13Z" fill="white"/>
<path d="M316.718 187.903C315.951 187.847 315.176 187.899 314.41 187.967C313.82 188.019 313.237 188.13 312.659 188.255C312.212 188.353 311.77 188.489 311.334 188.629C310.735 188.822 310.12 189.092 309.55 189.366C307.025 190.58 305.305 192.351 303.494 194.472C303.123 194.907 302.777 195.358 302.437 195.818C302.243 195.992 302.105 196.218 301.935 196.416C301.671 196.723 301.403 197.032 301.134 197.334C300.188 198.398 299.244 199.462 298.314 200.539C294.875 204.52 291.704 208.751 288.669 213.046C287.841 214.218 286.928 215.318 286.095 216.486C285.266 217.647 284.511 218.866 283.905 220.16C283.007 222.077 282.491 224.101 282.292 226.205C282.201 227.171 282.286 228.142 282.324 229.111C283.159 237.608 290.725 243.821 299.222 242.986C305.123 242.406 309.852 238.546 311.954 233.415C312.135 233.185 312.306 232.943 312.477 232.71C313.297 231.596 314.069 230.446 314.816 229.282C316.173 227.167 317.492 225.019 318.832 222.894C319.602 221.673 320.387 220.452 321.236 219.284C322.44 217.628 323.785 216.088 325.049 214.478C325.271 214.194 325.483 213.9 325.7 213.613C326.621 212.735 327.479 211.772 328.168 210.632C328.188 210.6 328.212 210.569 328.232 210.536C328.241 210.521 328.255 210.509 328.264 210.494C328.313 210.415 328.366 210.338 328.413 210.259C328.501 210.113 328.585 209.968 328.67 209.821C329.061 209.136 329.349 208.403 329.674 207.684C329.91 207.161 330.063 206.563 330.197 206.008C330.441 204.998 330.584 203.96 330.603 202.921C330.611 202.501 330.611 202.079 330.582 201.66C330.545 201.139 330.504 200.615 330.411 200.101C330.294 199.46 330.164 198.819 329.962 198.2C329.714 197.438 329.435 196.678 329.065 195.967C328.626 195.124 328.139 194.298 327.548 193.553C326.892 192.725 326.151 191.953 325.337 191.278C324.51 190.592 323.572 190.04 322.646 189.494C322.203 189.234 321.715 189.074 321.246 188.864C320.705 188.691 320.179 188.459 319.623 188.341C318.665 188.137 317.694 187.974 316.718 187.903ZM313.097 226.088C313.116 226.686 313.145 227.284 313.15 227.883C313.152 228.091 313.102 228.294 313.086 228.502C313.132 227.705 313.177 226.907 313.097 226.088Z" fill="white"/>
<path d="M297.203 190.06C296.177 190.025 295.136 190.086 294.084 190.263C289.456 191.046 285.712 193.851 283.467 197.58C282.918 198.286 282.383 199.006 281.918 199.77C280.436 202.206 279.155 204.783 277.86 207.321C276.93 209.141 275.965 210.937 275.04 212.758C274.82 213.189 274.624 213.638 274.41 214.072C274.053 214.794 273.712 215.525 273.341 216.24C273.2 216.513 273.049 216.781 272.904 217.052C272.818 217.177 272.73 217.298 272.647 217.426C272.521 217.62 272.381 217.813 272.284 218.024C271.774 219.132 271.317 220.258 270.831 221.378C270.663 221.765 270.601 222.202 270.522 222.617C270.45 222.99 270.381 223.36 270.34 223.738C270.286 224.237 270.244 224.742 270.244 225.244C270.244 225.919 270.242 226.595 270.34 227.263C270.472 228.166 270.626 229.083 270.927 229.944C271.323 231.072 271.77 232.2 272.423 233.202C273.201 234.397 274.107 235.529 275.179 236.47C276.271 237.43 277.53 238.215 278.842 238.841C279.976 239.382 281.22 239.697 282.452 239.942C283.407 240.131 284.385 240.141 285.358 240.134C286.08 240.129 286.803 240.026 287.515 239.909C288.043 239.823 288.56 239.671 289.075 239.525C289.742 239.335 290.438 239.058 291.072 238.766C291.295 238.664 291.515 238.547 291.734 238.436C291.831 238.386 291.933 238.348 292.023 238.286C292.816 237.734 293.618 237.191 294.405 236.63C294.456 236.594 294.496 236.543 294.543 236.502C296.124 235.165 297.345 233.558 298.207 231.813C298.771 230.854 299.298 229.874 299.841 228.908C300.197 228.275 300.562 227.644 300.909 227.007C300.996 226.849 301.08 226.695 301.166 226.537C301.105 226.613 301.014 226.705 301.08 226.729C301.177 226.764 301.213 226.567 301.273 226.483C301.564 226.071 301.843 225.65 302.127 225.234C302.804 224.242 303.473 223.248 304.146 222.254C305.105 220.836 306.058 219.407 306.955 217.949C307.154 217.626 307.348 217.303 307.542 216.977C307.595 216.919 307.651 216.865 307.703 216.806C308.505 215.894 309.241 214.923 309.849 213.869C310.353 212.997 310.815 212.074 311.153 211.124C311.348 210.574 311.522 210.014 311.654 209.447C311.819 208.743 311.943 208.027 312.039 207.311C312.098 206.871 312.138 206.43 312.125 205.986C312.093 204.967 311.975 203.948 311.9 202.931C310.655 195.565 304.389 190.307 297.203 190.06ZM281.438 203.241C281.374 203.667 281.294 204.088 281.267 204.523C281.282 204.355 281.276 204.188 281.299 204.021C281.335 203.759 281.395 203.502 281.438 203.241Z" fill="white"/>
<path d="M285.689 192.432C279.676 192.062 273.737 195.254 270.885 200.987C270.782 201.203 270.64 201.413 270.607 201.65C270.591 201.766 270.495 201.847 270.436 201.949C270.382 202.041 270.322 202.136 270.265 202.226C270.056 202.554 269.841 202.879 269.635 203.209C268.959 204.29 268.287 205.382 267.691 206.51C266.409 208.935 265.582 211.555 264.412 214.029C264.024 214.85 263.563 215.623 263.151 216.432C263.029 216.674 262.876 216.913 262.788 217.169C262.295 218.621 261.871 220.086 261.41 221.549C261.348 221.748 261.342 221.971 261.325 222.179C261.29 222.608 261.257 223.04 261.25 223.471C261.244 223.927 261.258 224.384 261.293 224.838C261.369 225.807 261.522 226.733 261.784 227.669C262.175 229.066 262.792 230.339 263.536 231.578C263.653 231.773 263.747 231.986 263.91 232.144C265.217 233.41 266.484 234.723 267.83 235.947C267.836 235.951 267.845 235.953 267.851 235.958C274.553 240.458 283.644 238.692 288.156 231.995C288.795 231.047 289.271 230.039 289.662 229.015C289.868 228.659 290.078 228.303 290.282 227.947C290.919 226.834 291.499 225.697 292.151 224.593C292.481 224.034 292.819 223.476 293.166 222.927C293.358 222.621 293.546 222.289 293.774 222.008C293.859 221.904 293.973 221.83 294.063 221.73C294.541 221.2 294.963 220.612 295.377 220.032C296.181 218.904 296.961 217.736 297.641 216.528C297.969 215.947 298.262 215.347 298.57 214.755C302.373 207.111 299.262 197.837 291.617 194.034C289.706 193.083 287.693 192.555 285.689 192.432ZM267.851 235.958C267.866 235.971 267.879 235.987 267.894 236C268.139 236.222 268.45 236.35 268.738 236.513C268.437 236.339 268.146 236.141 267.851 235.958ZM282.356 210.611C282.103 210.479 282.866 210.876 283.114 211.017C283.384 211.169 283.676 211.29 283.905 211.498C283.916 211.508 283.926 211.519 283.937 211.53C283.418 211.212 282.895 210.894 282.356 210.611Z" fill="white"/>
<path d="M271.686 194.109C267.76 194.336 263.924 196.052 261.09 199.203C261.084 199.211 261.075 199.217 261.069 199.225C261.058 199.237 261.047 199.245 261.037 199.257C260.961 199.342 260.888 199.428 260.812 199.513C260.688 199.652 260.561 199.79 260.439 199.93C260.116 200.299 259.874 200.588 259.574 200.977C258.647 202.175 257.888 203.467 257.255 204.843C256.615 206.237 256.052 207.657 255.546 209.105C255.156 210.222 254.804 211.36 254.393 212.47C254.014 213.493 253.594 214.501 253.186 215.514C253.019 215.927 252.829 216.338 252.695 216.764C252.44 217.572 252.163 218.371 251.979 219.198C251.834 219.849 251.778 220.522 251.712 221.185C251.673 221.579 251.685 221.975 251.691 222.371C251.516 230.402 257.842 237.091 265.886 237.325C272.865 237.528 278.825 232.797 280.476 226.302C280.741 225.749 281.012 225.191 281.309 224.657C282.194 223.066 283.165 221.517 284.065 219.936C284.088 219.897 284.107 219.857 284.129 219.818C289.808 213.442 289.235 203.675 282.858 197.996C279.67 195.158 275.636 193.88 271.686 194.109ZM251.691 222.371C251.691 222.334 251.679 222.301 251.68 222.264C251.679 222.348 251.681 222.436 251.68 222.52C251.679 222.47 251.691 222.421 251.691 222.371Z" fill="white"/>
<path d="M258.794 196.309C252.77 196.39 247.087 200.012 244.673 205.943C244.141 207.371 243.604 208.801 243.263 210.29C243.143 210.815 243.034 211.356 242.975 211.892C242.953 212.089 242.999 212.266 242.975 212.458C242.946 212.689 242.849 213.054 242.793 213.26C242.501 214.339 242.108 215.385 241.811 216.464C241.346 218.151 241.023 219.867 240.881 221.612C240.206 229.668 246.188 236.735 254.244 237.41C262.299 238.085 269.377 232.103 270.052 224.047C270.044 224.128 270.04 224.202 270.03 224.283C270 224.546 269.907 224.812 269.881 225.073C269.879 225.092 269.905 225.035 269.923 225.03C269.935 225.027 269.936 225.07 269.945 225.062C270.049 224.96 270.095 224.803 270.169 224.678C270.241 224.556 270.313 224.438 270.383 224.314C270.734 223.691 271.045 223.046 271.333 222.392C271.931 221.036 272.43 219.651 272.989 218.28C273.084 218.045 273.206 217.83 273.309 217.596C276.528 209.688 272.736 200.67 264.828 197.452C262.851 196.647 260.802 196.281 258.794 196.309Z" fill="white"/>
<path d="M246.767 198.029C239.6 197.439 232.763 201.944 230.67 209.116C230.366 210.355 229.994 211.57 229.794 212.833C229.551 214.367 229.539 215.937 229.356 217.479C229.199 218.805 228.935 220.118 228.854 221.452C228.738 223.382 228.941 225.309 229.474 227.167C231.604 234.965 239.652 239.551 247.45 237.421C253.773 235.693 257.92 230.066 258.153 223.845C258.198 223.667 258.243 223.485 258.302 223.311C258.678 222.211 259.158 221.151 259.541 220.053C259.692 219.62 259.884 219.207 260.033 218.771C260.083 218.624 260.332 218.279 260.182 218.323C259.316 218.576 260.174 218.332 260.353 217.778C262.744 209.582 258.039 200.997 249.843 198.605C248.818 198.307 247.79 198.113 246.767 198.029ZM257.715 219.444C257.742 219.552 257.766 219.657 257.79 219.765C257.831 219.957 257.874 220.148 257.907 220.341C257.955 220.626 257.974 220.88 258.003 221.132C257.918 220.569 257.868 220.007 257.715 219.444Z" fill="white"/>
<path d="M35.6429 75.7725C30.9578 75.417 26.1865 77.3232 23.0499 81.2836C18.0313 87.6209 19.1055 96.8265 25.4425 101.845C28.4972 104.263 31.6923 106.509 34.8954 108.724C40.2383 112.419 45.6927 115.949 51.2268 119.352C66.4538 128.713 82.2356 137.128 98.4053 144.741C107.41 148.98 116.526 152.981 125.76 156.693C136.415 160.976 147.216 164.908 158.081 168.624C170.218 172.774 182.443 176.645 194.728 180.33C212.084 185.536 229.554 190.346 247.098 194.878C258.31 197.774 269.547 200.606 280.839 203.177C289.166 205.066 297.451 199.84 299.339 191.513C301.228 183.187 296.002 174.913 287.675 173.024C283.895 172.18 280.131 171.269 276.364 170.365C270.071 168.854 263.785 167.298 257.512 165.707C240.786 161.467 224.128 156.977 207.546 152.206C197.189 149.227 186.872 146.124 176.602 142.861C157.319 136.734 138.221 129.971 119.661 121.894C101.735 114.092 84.2604 105.145 67.5582 94.977C62.0241 91.6079 56.5667 88.1096 51.2374 84.424C49.5315 83.2442 47.8471 82.041 46.1747 80.814C45.5611 80.3635 44.9435 79.9072 44.3375 79.4468C44.154 79.3073 43.9749 79.171 43.7927 79.0301C43.7452 78.9932 43.7004 78.9597 43.6539 78.9232C43.6399 78.9126 43.5972 78.8804 43.6112 78.891C41.2347 77.0091 38.4542 75.9854 35.6429 75.7725Z" fill="white"/>
<path d="M48.3963 141.867C39.8911 142.615 33.6018 150.12 34.3505 158.626C34.9453 165.042 35.5038 171.461 36.145 177.873C37.2527 188.951 38.5485 200.015 39.6696 211.091C40.4171 218.475 41.085 225.864 41.7525 233.255C42.4614 241.307 49.5615 247.262 57.6139 246.553C65.6666 245.844 71.6211 238.733 70.9122 230.68C70.2782 223.287 69.6397 215.896 69.0856 208.496C68.2544 197.394 67.5916 186.282 66.7464 175.181C66.2573 168.756 65.6906 162.334 65.155 155.912C64.4061 147.407 56.9013 141.118 48.3963 141.867Z" fill="white"/>
</g>
<path d="M218.248 222.542C214.164 222.542 210.077 222.575 205.997 222.649C197.412 222.803 188.829 223.126 180.255 223.578C174.89 223.86 169.524 224.17 164.169 224.614C162.172 224.78 160.692 226.536 160.858 228.534C161.025 230.532 162.78 232.011 164.778 231.845C170.06 231.401 175.347 231.093 180.64 230.809C189.537 230.332 198.445 230.011 207.353 229.848C216.112 229.687 224.872 229.691 233.629 229.923C240.967 230.117 248.307 230.467 255.621 231.108C272.387 232.579 289.04 235.286 305.481 238.863C310.984 240.06 316.457 241.358 321.908 242.772C325.052 243.587 328.2 244.416 331.308 245.357C333.124 245.907 335.041 244.877 335.591 243.06C336.141 241.244 335.122 239.327 333.305 238.777C329.906 237.747 326.458 236.845 323.019 235.958C317.685 234.581 312.325 233.304 306.944 232.123C289.812 228.363 272.439 225.488 254.959 223.973C242.757 222.916 230.501 222.543 218.248 222.542Z" fill="black"/>
<path d="M30.3238 91.4307C29.9383 91.4184 29.5694 91.482 29.2023 91.591C26.9879 92.2479 26.1034 94.9553 25.6134 96.9528C25.5085 97.3804 25.4091 97.8131 25.325 98.2455C24.5773 102.087 24.3907 106.048 24.289 109.952C24.1468 115.405 24.2838 120.856 24.5239 126.305C25.0677 138.641 26.1706 150.961 27.4506 163.24C28.791 176.1 30.3375 188.939 32.3425 201.714C33.5469 209.387 34.8954 217.064 36.7326 224.614C37.3167 227.015 37.9436 229.41 38.7085 231.76C39.1399 233.085 39.5845 234.461 40.2572 235.69C41.1736 237.352 43.263 237.952 44.9251 237.036C46.5869 236.12 47.1868 234.031 46.2708 232.369C46.1819 232.189 46.1112 231.998 46.036 231.813C45.8674 231.399 45.7133 230.985 45.5656 230.563C45.1647 229.415 44.8069 228.251 44.4763 227.081C43.4762 223.543 42.673 219.948 41.9344 216.347C39.7062 205.487 38.1227 194.496 36.722 183.502C35.4225 173.304 34.3229 163.084 33.3786 152.848C32.4686 142.984 31.7355 133.089 31.4133 123.186C33.2415 131.517 35.4252 139.774 38.0676 147.881C41.0235 156.949 44.5266 165.849 48.8021 174.381C55.9976 188.738 65.1407 202.1 75.142 214.638C79.1595 219.674 83.3267 224.589 87.6603 229.356C90.1342 232.078 92.6454 234.784 95.2759 237.357C96.7097 238.757 99.0124 238.737 100.413 237.303C101.814 235.869 101.783 233.567 100.35 232.166C97.6562 229.54 95.0985 226.759 92.5736 223.973C88.5028 219.482 84.5855 214.856 80.8029 210.12C71.1074 197.979 62.2423 185.044 55.2535 171.144C51.0426 162.769 47.5966 154.015 44.7006 145.103C40.6147 132.529 37.5731 119.607 35.4187 106.566C34.9111 103.494 34.4549 100.417 34.0729 97.3267C33.9933 96.6824 33.9193 96.0385 33.8486 95.3935C33.7546 94.5363 33.7042 93.7341 33.165 92.9688C33.0604 92.8201 32.9495 92.6721 32.8232 92.5416C32.6742 92.3874 32.5167 92.2394 32.3425 92.1143C31.7467 91.686 31.0567 91.4543 30.3238 91.4307Z" fill="black"/>
<path d="M324.023 199.631C292.834 204.367 261.639 209.074 230.446 213.784C216.932 215.825 203.409 217.822 189.9 219.894C170.359 222.89 151.188 228.064 131.528 230.318C126.348 230.913 121.148 231.241 115.944 231.525C108.024 231.958 100.088 232.19 92.157 232.273C82.1922 232.377 72.2306 232.247 62.2713 231.91C56.0168 231.699 49.7574 231.441 43.5149 230.991C41.622 230.855 39.9667 232.281 39.8299 234.174C39.6936 236.067 41.1199 237.712 43.0131 237.849C49.0595 238.285 55.1236 238.542 61.1817 238.756C71.1314 239.108 81.0903 239.26 91.0462 239.184C99.4728 239.12 107.903 238.887 116.318 238.436C121.658 238.15 126.992 237.815 132.308 237.218C152.062 235.001 171.333 229.864 190.968 226.901C206.241 224.596 221.525 222.367 236.801 220.086C266.243 215.69 295.68 211.261 325.113 206.809C327.095 206.509 328.457 204.657 328.157 202.676C327.857 200.694 326.006 199.331 324.023 199.631Z" fill="black"/>
<path d="M50.5326 103.341C48.649 103.573 47.3201 105.292 47.5525 107.175C47.9674 110.538 48.5926 113.885 49.2615 117.205C50.3156 122.437 51.5761 127.626 53.0107 132.767C57.5572 149.062 63.9338 165.102 72.9415 179.465C77.1914 186.241 82.0261 192.64 87.2009 198.734C92.5959 205.087 98.3678 211.118 104.398 216.871C109.05 221.309 113.851 225.588 118.796 229.699C121.795 232.192 124.83 234.661 127.982 236.962C129.602 238.143 131.874 237.791 133.055 236.171C134.236 234.551 133.874 232.279 132.254 231.098C129.033 228.758 125.943 226.223 122.887 223.674C117.741 219.383 112.751 214.905 107.933 210.248C102.054 204.567 96.4226 198.626 91.1849 192.347C86.7669 187.05 82.6045 181.524 78.9124 175.695C70.3445 162.166 64.2742 147.127 59.8893 131.763C58.3892 126.508 57.0835 121.195 56.0014 115.837C55.3656 112.69 54.7603 109.52 54.3669 106.331C54.1348 104.448 52.4163 103.108 50.5326 103.341Z" fill="black"/>
<path d="M74.9602 117.46C74.5148 117.432 74.0626 117.486 73.6145 117.642C71.8228 118.268 70.874 120.23 71.4998 122.021C72.949 126.173 74.602 130.259 76.2956 134.315C78.8532 140.442 81.5917 146.493 84.5414 152.441C87.7058 158.822 91.108 165.101 94.8275 171.176C98.2041 176.692 101.842 182.058 105.882 187.112C115.006 198.526 126.03 208.469 137.68 217.244C142.002 220.498 146.438 223.604 150.978 226.547C153.571 228.228 156.185 229.885 158.882 231.396C160.632 232.375 162.849 231.746 163.827 229.997C164.806 228.248 164.178 226.041 162.428 225.062C159.533 223.452 156.729 221.652 153.958 219.839C149.66 217.026 145.46 214.065 141.365 210.963C135.149 206.255 129.17 201.225 123.549 195.817C119.008 191.449 114.69 186.828 110.774 181.889C107.144 177.311 103.85 172.479 100.777 167.512C96.8034 161.092 93.2135 154.436 89.8926 147.656C87.067 141.888 84.4331 136.025 81.9885 130.086C80.5841 126.673 79.2114 123.241 77.994 119.757C77.5243 118.413 76.2969 117.546 74.9602 117.46Z" fill="black"/>
<path d="M103.361 132.051C102.915 132.056 102.461 132.15 102.026 132.34C100.287 133.098 99.4947 135.118 100.253 136.858C101.545 139.823 102.987 142.729 104.462 145.606C106.706 149.982 109.089 154.288 111.597 158.519C118.162 169.598 125.603 180.277 134.401 189.708C143.466 199.426 153.952 207.794 164.981 215.172C168.855 217.764 172.808 220.242 176.837 222.585C179.26 223.994 181.701 225.385 184.207 226.644C185.999 227.542 188.179 226.812 189.078 225.02C189.976 223.228 189.257 221.048 187.465 220.15C184.936 218.89 182.47 217.481 180.031 216.059C176.068 213.748 172.185 211.312 168.378 208.753C158.024 201.793 148.134 193.959 139.56 184.87C131.055 175.853 123.861 165.625 117.525 154.995C114.988 150.739 112.589 146.398 110.336 141.985C109.013 139.393 107.708 136.781 106.545 134.113C105.975 132.808 104.701 132.037 103.361 132.051Z" fill="black"/>
<path d="M138.887 148.757C138.442 148.789 137.996 148.915 137.573 149.131C135.883 149.995 135.214 152.055 136.078 153.745C137.27 156.077 138.596 158.348 139.945 160.592C141.95 163.929 144.063 167.206 146.278 170.407C152.421 179.286 159.346 187.728 167.32 195.028C175.505 202.52 184.762 208.818 194.354 214.36C198.179 216.57 202.072 218.666 206.029 220.63C208.243 221.729 210.474 222.807 212.747 223.781C214.59 224.57 216.723 223.712 217.511 221.869C218.299 220.026 217.442 217.894 215.599 217.106C213.31 216.135 211.074 215.04 208.849 213.933C205.163 212.1 201.532 210.155 197.965 208.101C188.809 202.831 179.927 196.888 172.074 189.794C164.285 182.759 157.553 174.586 151.598 165.964C149.426 162.82 147.356 159.604 145.402 156.319C144.289 154.448 143.19 152.566 142.198 150.626C141.55 149.358 140.223 148.66 138.887 148.757Z" fill="black"/>
<path d="M167.523 156.596C167.082 156.665 166.645 156.816 166.241 157.066C164.629 158.066 164.131 160.185 165.131 161.798C167.404 165.466 170.004 168.956 172.661 172.351C177.384 178.388 182.558 184.117 188.277 189.227C190.99 191.652 193.839 193.909 196.747 196.095C200.237 198.719 203.814 201.229 207.428 203.679C212.473 207.099 217.603 210.396 222.787 213.602C225.919 215.537 229.058 217.455 232.24 219.305C233.974 220.312 236.201 219.725 237.207 217.992C238.213 216.258 237.627 214.031 235.893 213.025C232.455 211.035 229.06 208.962 225.682 206.873C220.884 203.905 216.122 200.868 211.433 197.729C207.901 195.364 204.405 192.941 200.987 190.413C198.222 188.368 195.506 186.255 192.923 183.983C187.7 179.388 182.969 174.237 178.632 168.805C176.926 166.669 175.283 164.481 173.708 162.247C172.765 160.911 171.835 159.567 170.973 158.177C170.223 156.967 168.846 156.39 167.523 156.596Z" fill="black"/>
<path d="M201.585 167.192C200.717 167.055 199.79 167.254 199.022 167.812C197.487 168.928 197.148 171.072 198.263 172.608C200.921 176.265 203.87 179.729 206.915 183.065C210.847 187.371 215.058 191.487 219.743 194.974C221.971 196.633 224.33 198.114 226.707 199.545C229.653 201.319 232.659 202.999 235.68 204.641C242.741 208.478 249.923 212.117 257.192 215.546C259.005 216.399 261.166 215.619 262.019 213.805C262.873 211.991 262.092 209.83 260.278 208.977C252.954 205.544 245.729 201.883 238.595 198.072C235.815 196.585 233.056 195.058 230.339 193.457C227.897 192.019 225.48 190.529 223.215 188.822C219.135 185.746 215.455 182.16 212 178.408C209.121 175.282 206.331 172.009 203.829 168.57C203.27 167.803 202.454 167.33 201.585 167.192Z" fill="black"/>
<path d="M233.8 176.015C232.923 176.083 232.078 176.49 231.461 177.211C230.226 178.652 230.393 180.815 231.834 182.05C236.632 186.164 241.595 190.109 246.671 193.874C250.704 196.866 254.809 199.828 259.242 202.205C263.537 204.508 268.143 206.239 272.754 207.791C277.294 209.319 281.91 210.674 286.575 211.765C288.528 212.219 290.479 211.004 290.933 209.052C291.388 207.099 290.173 205.148 288.22 204.694C286.436 204.286 284.675 203.814 282.912 203.327C280.152 202.564 277.413 201.733 274.698 200.827C270.572 199.451 266.438 197.951 262.575 195.935C258.562 193.841 254.814 191.208 251.156 188.554C246.055 184.853 241.089 180.935 236.299 176.837C235.578 176.22 234.677 175.947 233.8 176.015Z" fill="black"/>
<path d="M280.605 187.284C279.728 187.358 278.877 187.766 278.265 188.491C277.042 189.942 277.231 192.117 278.682 193.34C280.458 194.837 282.41 196.131 284.386 197.346C288.185 199.681 292.251 201.632 296.498 203.007C300.761 204.387 305.211 205.174 309.647 205.752C312.842 206.168 316.053 206.451 319.27 206.638C321.02 206.74 322.772 206.821 324.526 206.841C326.53 206.862 328.179 205.257 328.2 203.252C328.22 201.248 326.605 199.609 324.6 199.589C323.28 199.587 321.967 199.524 320.648 199.46C318.168 199.342 315.685 199.158 313.214 198.916C310.48 198.648 307.748 198.296 305.043 197.816C302.872 197.43 300.712 196.979 298.602 196.331C294.727 195.14 291.041 193.373 287.601 191.236C286.059 190.278 284.485 189.271 283.104 188.085C282.379 187.473 281.481 187.21 280.605 187.284Z" fill="black"/>
<path d="M312.776 201.81C312.35 201.779 311.92 201.851 311.516 201.981C310.413 202.336 309.664 203.295 308.942 204.138C308.457 204.704 308.02 205.29 307.553 205.868C306.949 206.617 306.322 207.352 305.695 208.08C304.191 209.824 302.737 211.597 301.358 213.442C298.95 216.661 296.718 220.013 294.405 223.3C293.16 225.069 291.365 226.879 290.848 229.025C290.712 229.586 290.703 230.108 290.73 230.681C290.926 232.676 292.698 234.124 294.693 233.928C296.368 233.764 297.598 232.47 297.855 230.884C297.862 230.87 297.868 230.855 297.876 230.841C297.929 230.745 297.987 230.657 298.047 230.563C298.181 230.356 298.318 230.154 298.464 229.955C298.932 229.312 299.444 228.691 299.906 228.043C301.217 226.199 302.461 224.305 303.719 222.424C305.298 220.063 306.885 217.708 308.61 215.45C309.672 214.061 310.815 212.744 311.932 211.401C312.693 210.488 313.4 209.542 314.165 208.635C314.582 208.358 314.96 208.005 315.233 207.546C315.739 206.674 316.109 206.117 316.034 205.046C316.015 204.773 315.969 204.495 315.885 204.234C315.826 204.056 315.768 203.867 315.682 203.7C315.578 203.502 315.457 203.309 315.318 203.134C315.009 202.744 314.605 202.436 314.176 202.184C314.071 202.122 313.954 202.083 313.844 202.034C313.841 202.033 313.837 202.035 313.834 202.034C313.71 201.994 313.587 201.944 313.46 201.917C313.235 201.869 313.006 201.826 312.776 201.81Z" fill="black"/>
<path d="M292.685 204.651C291.34 204.878 290.345 205.844 289.919 207.043C289.583 207.399 289.227 207.736 288.947 208.144C288.485 208.815 288.094 209.532 287.686 210.237C287.098 211.255 286.518 212.282 285.934 213.302C285.104 214.753 284.281 216.202 283.446 217.65C282.742 218.87 282.025 220.081 281.384 221.335C280.885 222.313 280.383 223.291 279.867 224.261C279.679 224.616 279.484 224.967 279.291 225.319C279.232 225.427 279.167 225.531 279.109 225.639C279.095 225.657 279.083 225.678 279.056 225.714C279.008 225.778 278.963 225.831 278.917 225.896C278.847 225.994 278.769 226.094 278.703 226.195C278.494 226.519 278.366 226.887 278.212 227.242C278.21 227.245 278.213 227.248 278.212 227.252C278.031 227.901 278.008 228.628 278.233 229.271C278.326 229.536 278.433 229.794 278.586 230.029C278.769 230.31 278.975 230.577 279.227 230.798C279.483 231.024 279.784 231.207 280.092 231.354C280.358 231.481 280.646 231.563 280.936 231.621C281.677 231.768 282.462 231.597 283.125 231.258C283.131 231.255 283.178 231.23 283.2 231.215C283.386 231.085 283.571 230.963 283.756 230.83C283.784 230.81 283.902 230.703 283.937 230.67C284.351 230.32 284.641 229.886 284.845 229.42C284.919 229.31 284.994 229.213 285.091 229.047C285.455 228.419 285.794 227.773 286.137 227.135C286.708 226.075 287.257 225.002 287.825 223.941C288.162 223.312 288.583 222.722 288.957 222.115C290.375 219.815 291.783 217.504 293.166 215.182C293.611 214.434 294.051 213.68 294.49 212.929C294.57 212.791 294.641 212.658 294.725 212.523C294.769 212.452 294.813 212.377 294.864 212.309C295.867 211.339 296.72 210.188 296.904 208.774C296.958 208.358 296.908 208.081 296.872 207.631C296.538 205.654 294.661 204.317 292.685 204.651ZM289.748 207.834C289.71 208.164 289.647 208.494 289.705 208.838C289.684 208.477 289.702 208.157 289.748 207.834ZM279.985 225.159C279.904 225.208 279.817 225.241 279.74 225.297C279.779 225.27 279.817 225.24 279.857 225.212C279.881 225.196 279.947 225.178 279.985 225.159Z" fill="black"/>
<path d="M281.587 206.969C280.175 206.882 278.775 207.631 278.105 208.977C277.927 209.338 277.774 209.712 277.582 210.066C277.207 210.758 276.749 211.401 276.311 212.053C275.638 213.054 274.95 214.047 274.356 215.097C273.339 216.895 272.547 218.818 271.643 220.673C271.045 221.9 270.365 223.08 269.742 224.294C269.64 224.492 269.522 224.684 269.443 224.892C269.314 225.228 269.23 225.574 269.122 225.917C269.107 225.967 269.105 226.025 269.101 226.078C269.093 226.179 269.081 226.274 269.08 226.376C269.071 226.942 269.198 227.506 269.454 228.011C269.529 228.159 269.601 228.322 269.72 228.438C270.032 228.739 270.327 229.056 270.65 229.346C270.671 229.365 270.701 229.372 270.724 229.389C270.727 229.391 270.732 229.386 270.735 229.389C272.308 230.442 274.44 230.03 275.499 228.459C275.781 228.04 275.943 227.581 276.022 227.114C276.051 227.061 276.079 227.006 276.108 226.953C276.285 226.628 276.515 226.229 276.695 225.907C277.356 224.727 277.959 223.521 278.575 222.318C279.197 221.103 279.805 219.871 280.519 218.707C281.32 217.403 282.275 216.202 283.104 214.915C283.667 214.042 284.144 213.141 284.61 212.213C285.503 210.418 284.771 208.235 282.976 207.343C282.527 207.119 282.058 206.998 281.587 206.969Z" fill="black"/>
<path d="M269.005 208.635C268.077 208.689 267.161 209.093 266.495 209.842C266.017 210.393 265.514 210.903 265.117 211.519C264.781 212.041 264.529 212.616 264.262 213.175C264.026 213.669 263.792 214.17 263.568 214.67C262.864 216.245 262.197 217.826 261.517 219.412C261.07 220.458 260.606 221.501 260.172 222.553C259.954 223.081 259.718 223.605 259.595 224.165C259.508 224.558 259.532 224.918 259.509 225.308C259.454 227.205 260.945 228.789 262.842 228.844C264.701 228.898 266.242 227.461 266.356 225.618C266.356 225.614 266.356 225.611 266.356 225.607C266.413 225.469 266.469 225.339 266.527 225.201C266.643 224.926 266.757 224.652 266.879 224.379C267.254 223.54 267.643 222.707 268.044 221.88C269.079 219.742 270.13 217.615 271.173 215.482C271.169 215.485 271.183 215.475 271.184 215.471C271.444 215.227 271.682 214.934 271.921 214.67C273.254 213.173 273.119 210.887 271.622 209.554C270.873 208.887 269.932 208.581 269.005 208.635Z" fill="black"/>
<path d="M255.579 210.857C254.164 210.876 252.834 211.729 252.267 213.121C251.9 214.042 251.567 214.969 251.285 215.92C250.995 216.896 250.772 217.897 250.462 218.868C250.142 219.874 249.727 220.845 249.394 221.848C249.024 222.963 248.765 224.095 248.668 225.266C248.51 227.157 249.917 228.814 251.808 228.972C253.699 229.131 255.356 227.734 255.514 225.842C255.654 224.21 256.538 222.741 257.117 221.239C257.801 219.463 258.256 217.614 258.986 215.856C259.742 213.999 258.856 211.88 256.999 211.124C256.535 210.935 256.05 210.851 255.579 210.857Z" fill="black"/>
<path d="M241.725 212.555C240.32 212.719 239.081 213.707 238.66 215.15C238.426 215.978 238.175 216.802 237.976 217.639C237.601 219.22 237.343 220.836 237.057 222.435C236.875 223.456 236.611 224.518 236.662 225.565C236.685 226.032 236.784 226.482 236.908 226.932C237.408 228.762 239.296 229.846 241.127 229.346C242.89 228.864 243.922 227.084 243.551 225.319C243.755 224.062 244.087 222.821 244.406 221.591C244.79 220.111 245.194 218.645 245.634 217.18C246.196 215.255 245.092 213.245 243.167 212.683C242.686 212.543 242.194 212.5 241.725 212.555Z" fill="black"/>
<path d="M30.7617 89.6791C29.8881 89.7806 29.0544 90.2062 28.4653 90.9502C27.287 92.4381 27.5328 94.5996 29.0207 95.7781C32.087 98.2059 35.3151 100.454 38.5376 102.667C43.8488 106.316 49.2721 109.801 54.773 113.156C69.9771 122.429 85.7548 130.736 101.92 138.204C131.821 152.017 163.132 162.481 194.675 171.839C211.777 176.912 228.989 181.621 246.265 186.066C257.506 188.958 268.772 191.784 280.092 194.354C282.047 194.798 283.985 193.575 284.428 191.62C284.872 189.665 283.649 187.727 281.694 187.284C270.976 184.857 260.308 182.186 249.661 179.465C232.634 175.114 215.675 170.506 198.808 165.569C189.053 162.713 179.334 159.736 169.659 156.618C148.817 149.901 128.215 142.418 108.232 133.44C91.4737 125.91 75.1157 117.43 59.3978 107.912C53.8679 104.563 48.4172 101.089 43.077 97.4444C39.7612 95.1813 36.441 92.8889 33.2931 90.3948C32.5492 89.8056 31.6353 89.5776 30.7617 89.6791Z" fill="black"/>
<path d="M46.0677 156.373C44.071 156.548 42.5917 158.306 42.7673 160.303C44.9866 185.201 47.3337 210.097 49.5394 234.996C49.7055 236.887 51.3656 238.282 53.2561 238.115C55.1469 237.949 56.5523 236.278 56.3859 234.388C54.2069 209.486 52.1637 184.576 49.9984 159.673C49.8227 157.676 48.0648 156.197 46.0677 156.373Z" fill="black"/>
<path d="M221.613 220.48C217.536 220.482 213.455 220.523 209.383 220.598C200.809 220.754 192.247 221.075 183.684 221.527C178.328 221.81 172.965 222.119 167.619 222.563C166.151 222.685 165.062 223.979 165.184 225.447C165.306 226.915 166.589 228.005 168.057 227.882C173.349 227.439 178.659 227.13 183.962 226.846C192.87 226.37 201.787 226.046 210.707 225.885C219.48 225.726 228.254 225.734 237.026 225.97C244.383 226.169 251.739 226.519 259.071 227.167C275.874 228.65 292.56 231.364 309.038 234.953C314.552 236.154 320.045 237.467 325.508 238.884C328.663 239.702 331.819 240.535 334.94 241.479C336.274 241.884 337.686 241.127 338.09 239.792C338.495 238.457 337.738 237.045 336.403 236.641C333.015 235.614 329.597 234.716 326.17 233.832C320.847 232.458 315.497 231.185 310.127 230.008C293.033 226.26 275.69 223.403 258.249 221.901C246.071 220.852 233.841 220.476 221.613 220.48Z" fill="#E49906"/>
<path d="M33.6777 89.3589C31.7266 89.2956 30.7491 91.3338 30.2384 92.9047C30.1322 93.2314 30.0362 93.566 29.95 93.8983C29.8191 94.4021 29.7078 94.9038 29.6082 95.4148C29.4852 96.0458 29.3892 96.6798 29.2984 97.3162C29.1878 98.0914 29.0879 98.8759 29.01 99.6552C28.4707 105.053 28.475 110.504 28.5828 115.923C28.7264 123.146 29.1434 130.369 29.683 137.573C30.4661 148.031 31.4976 158.471 32.6737 168.891C33.938 180.092 35.3798 191.275 37.2237 202.397C38.339 209.123 39.5873 215.853 41.2508 222.467C41.7819 224.58 42.3493 226.679 43.0343 228.748C43.4236 229.924 43.8249 231.149 44.423 232.241C45.0964 233.462 46.63 233.907 47.8516 233.234C49.0732 232.56 49.5182 231.027 48.8448 229.805C48.8664 229.845 48.7618 229.631 48.7488 229.602C48.6989 229.491 48.6459 229.373 48.5994 229.26C48.4347 228.864 48.2843 228.458 48.1401 228.054C47.7453 226.945 47.397 225.82 47.0719 224.689C46.0479 221.13 45.2365 217.516 44.4869 213.89C42.2878 203.251 40.7121 192.48 39.3278 181.708C38.0888 172.064 37.0296 162.398 36.1023 152.719C35.1371 142.646 34.3215 132.551 33.9127 122.438C33.7467 118.332 33.6573 114.208 33.6991 110.091C35.8395 121.75 38.6634 133.298 42.3401 144.57C45.2833 153.592 48.7761 162.453 53.0319 170.941C60.1997 185.238 69.2935 198.553 79.2542 211.039C83.2593 216.059 87.4204 220.952 91.7403 225.704C94.202 228.411 96.6961 231.102 99.3132 233.661C100.367 234.691 102.065 234.672 103.094 233.618C104.124 232.565 104.106 230.877 103.052 229.848C100.346 227.207 97.7714 224.413 95.2332 221.613C91.149 217.106 87.2146 212.469 83.4196 207.717C73.6836 195.523 64.7794 182.531 57.7637 168.57C53.5326 160.151 50.0767 151.348 47.168 142.391C43.1061 129.881 40.0733 117.028 37.9183 104.056C37.3868 100.858 36.9158 97.6502 36.519 94.4322C36.4571 93.9307 36.3942 93.4283 36.3371 92.9262C36.2066 91.7713 36.2599 90.6495 35.1624 89.8606C34.7245 89.5462 34.2163 89.3759 33.6777 89.3589Z" fill="#E49906"/>
<path d="M327.537 197.569C296.668 202.254 265.795 206.918 234.921 211.572C221.086 213.658 207.245 215.694 193.414 217.81C173.86 220.803 154.672 225.975 134.999 228.224C129.801 228.818 124.584 229.147 119.362 229.431C111.428 229.864 103.477 230.097 95.5322 230.179C85.5542 230.282 75.5764 230.153 65.6038 229.816C59.3377 229.604 53.0694 229.348 46.8156 228.897C45.4245 228.797 44.2135 229.845 44.113 231.236C44.0129 232.627 45.0611 233.838 46.4523 233.939C52.4877 234.374 58.5314 234.623 64.5784 234.836C74.5148 235.186 84.4679 235.33 94.4108 235.252C102.823 235.188 111.228 234.967 119.629 234.516C124.951 234.229 130.278 233.884 135.576 233.287C155.318 231.065 174.571 225.926 194.194 222.958C209.466 220.649 224.751 218.418 240.027 216.133C269.467 211.731 298.906 207.3 328.339 202.846C329.795 202.625 330.792 201.269 330.571 199.813C330.35 198.356 328.994 197.349 327.537 197.569Z" fill="#E49906"/>
<path d="M54.0146 101.236C52.6303 101.406 51.6541 102.671 51.825 104.055C52.2632 107.605 52.9345 111.128 53.6516 114.63C54.7364 119.928 56.0319 125.191 57.5074 130.395C62.0157 146.295 68.2901 161.936 77.0965 175.961C80.9092 182.032 85.2005 187.791 89.7751 193.307C95.3583 200.039 101.384 206.399 107.687 212.458C112.381 216.97 117.229 221.326 122.225 225.5C125.384 228.14 128.585 230.751 131.912 233.18C133.103 234.048 134.772 233.783 135.64 232.592C136.508 231.402 136.254 229.732 135.063 228.865C131.827 226.51 128.714 223.972 125.643 221.409C120.479 217.102 115.47 212.603 110.636 207.929C104.733 202.224 99.0801 196.25 93.8233 189.942C89.3813 184.612 85.2076 179.05 81.4974 173.184C72.8913 159.577 66.7827 144.455 62.378 129.007C60.8731 123.728 59.5657 118.397 58.4795 113.017C57.8393 109.846 57.2305 106.648 56.8344 103.436C56.6638 102.051 55.3988 101.065 54.0146 101.236Z" fill="#E49906"/>
<path d="M78.2715 115.356C77.944 115.335 77.6074 115.38 77.2782 115.495C75.9613 115.955 75.2695 117.393 75.7292 118.71C77.1729 122.844 78.817 126.922 80.5038 130.961C83.0542 137.069 85.7965 143.094 88.739 149.023C91.8931 155.378 95.2735 161.634 98.9823 167.683C102.342 173.164 105.965 178.491 109.984 183.512C114.298 188.902 119.052 193.934 124.062 198.68C129.62 203.946 135.505 208.857 141.621 213.462C145.925 216.703 150.345 219.803 154.866 222.734C157.442 224.403 160.048 226.05 162.727 227.551C164.013 228.27 165.629 227.811 166.348 226.526C167.068 225.24 166.609 223.613 165.323 222.894C162.41 221.269 159.589 219.465 156.799 217.639C152.483 214.813 148.265 211.835 144.153 208.72C137.907 203.988 131.897 198.936 126.251 193.499C121.682 189.1 117.351 184.439 113.412 179.464C109.764 174.855 106.451 169.991 103.361 164.992C99.3767 158.543 95.7667 151.857 92.4348 145.05C89.6024 139.263 86.9606 133.384 84.5093 127.426C83.099 123.998 81.7161 120.555 80.4932 117.055C80.1483 116.067 79.2535 115.419 78.2715 115.356Z" fill="#E49906"/>
<path d="M106.737 129.958C106.409 129.961 106.074 130.021 105.754 130.16C104.476 130.718 103.894 132.215 104.451 133.493C105.736 136.44 107.182 139.317 108.649 142.177C110.884 146.536 113.252 150.834 115.752 155.048C122.287 166.066 129.69 176.689 138.449 186.066C147.471 195.724 157.91 204.034 168.88 211.369C172.738 213.949 176.67 216.407 180.682 218.739C183.089 220.138 185.521 221.527 188.01 222.777C189.326 223.437 190.927 222.897 191.588 221.58C192.248 220.263 191.719 218.663 190.402 218.002C187.857 216.731 185.372 215.313 182.915 213.879C178.935 211.558 175.032 209.102 171.208 206.531C160.796 199.529 150.857 191.657 142.241 182.509C133.697 173.437 126.476 163.142 120.11 152.452C117.564 148.179 115.161 143.82 112.9 139.389C111.569 136.781 110.258 134.159 109.087 131.474C108.669 130.515 107.721 129.947 106.737 129.958Z" fill="#E49906"/>
<path d="M142.316 146.663C141.989 146.686 141.665 146.771 141.354 146.93C140.112 147.565 139.62 149.084 140.254 150.326C141.437 152.64 142.751 154.894 144.089 157.12C146.085 160.44 148.196 163.697 150.401 166.882C156.507 175.702 163.396 184.074 171.326 191.321C179.466 198.76 188.665 205.019 198.199 210.526C202.008 212.725 205.881 214.798 209.821 216.752C212.019 217.843 214.229 218.926 216.486 219.893C217.84 220.472 219.41 219.837 219.989 218.483C220.568 217.128 219.944 215.559 218.59 214.979C216.285 213.998 214.028 212.901 211.786 211.786C208.083 209.943 204.432 207.986 200.848 205.922C191.635 200.615 182.715 194.633 174.819 187.486C166.985 180.396 160.206 172.157 154.215 163.475C152.032 160.313 149.951 157.078 147.987 153.776C146.864 151.888 145.751 149.987 144.751 148.03C144.275 147.099 143.297 146.592 142.316 146.663Z" fill="#E49906"/>
<path d="M171.027 154.482C170.703 154.532 170.383 154.65 170.087 154.834C168.901 155.569 168.54 157.131 169.275 158.316C170.198 159.806 171.193 161.252 172.201 162.685C173.842 165.015 175.557 167.289 177.328 169.521C181.864 175.236 186.812 180.662 192.261 185.521C194.957 187.926 197.789 190.168 200.677 192.336C204.158 194.947 207.724 197.449 211.327 199.887C216.364 203.297 221.48 206.581 226.654 209.778C229.778 211.708 232.921 213.615 236.096 215.46C237.37 216.2 238.999 215.773 239.738 214.499C240.478 213.225 240.051 211.586 238.777 210.846C235.332 208.85 231.93 206.778 228.545 204.683C223.737 201.708 218.97 198.657 214.275 195.508C210.731 193.131 207.224 190.701 203.796 188.159C201.012 186.096 198.268 183.969 195.668 181.676C190.411 177.04 185.659 171.846 181.291 166.37C179.576 164.219 177.921 162.017 176.335 159.769C175.382 158.418 174.44 157.051 173.569 155.646C173.018 154.757 171.999 154.33 171.027 154.482Z" fill="#E49906"/>
<path d="M204.811 165.088C204.173 164.987 203.495 165.127 202.931 165.537C201.803 166.357 201.545 167.933 202.365 169.061C205.002 172.69 207.929 176.135 210.953 179.444C214.847 183.704 219.022 187.778 223.663 191.225C225.869 192.863 228.21 194.319 230.563 195.732C233.5 197.495 236.482 199.163 239.493 200.795C246.543 204.618 253.719 208.249 260.973 211.669C262.306 212.296 263.891 211.72 264.519 210.387C265.146 209.054 264.57 207.468 263.237 206.841C255.899 203.397 248.657 199.73 241.512 195.903C238.72 194.408 235.949 192.868 233.223 191.257C230.753 189.797 228.315 188.279 226.024 186.546C221.905 183.433 218.182 179.81 214.691 176.015C212.83 173.992 211.039 171.901 209.308 169.767C208.331 168.562 207.368 167.346 206.456 166.092C206.046 165.528 205.449 165.189 204.811 165.088Z" fill="#E49906"/>
<path d="M237.239 173.921C236.595 173.97 235.973 174.256 235.519 174.786C234.612 175.845 234.727 177.446 235.787 178.353C240.567 182.452 245.519 186.38 250.58 190.124C254.58 193.083 258.659 196.02 263.055 198.37C267.308 200.643 271.866 202.347 276.428 203.881C280.94 205.398 285.528 206.74 290.164 207.823C291.599 208.156 293.034 207.26 293.368 205.825C293.703 204.391 292.806 202.966 291.371 202.632C286.773 201.571 282.227 200.227 277.753 198.733C273.578 197.339 269.407 195.802 265.501 193.756C261.311 191.56 257.409 188.791 253.592 186.012C248.606 182.381 243.762 178.53 239.076 174.519C238.547 174.065 237.883 173.871 237.239 173.921Z" fill="#E49906"/>
<path d="M284.044 185.179C283.4 185.234 282.785 185.543 282.335 186.076C281.436 187.143 281.568 188.734 282.634 189.633C284.375 191.1 286.294 192.375 288.231 193.564C291.766 195.734 295.535 197.564 299.467 198.894C303.885 200.388 308.524 201.204 313.139 201.799C316.314 202.208 319.504 202.49 322.699 202.675C324.434 202.775 326.173 202.858 327.911 202.878C329.385 202.893 330.588 201.713 330.603 200.24C330.618 198.766 329.438 197.552 327.965 197.537C324.136 197.511 320.29 197.231 316.483 196.854C311.931 196.402 307.346 195.783 302.928 194.568C298.829 193.44 294.921 191.67 291.275 189.494C289.413 188.383 287.551 187.17 285.892 185.767C285.359 185.317 284.688 185.124 284.044 185.179Z" fill="#E49906"/>
<path d="M316.098 199.716C315.674 199.685 315.24 199.779 314.859 199.962C314.107 200.324 313.506 201.123 313.001 201.714C312.627 202.15 312.3 202.613 311.943 203.06C311.339 203.816 310.715 204.557 310.085 205.292C308.804 206.785 307.532 208.28 306.335 209.842C303.745 213.223 301.39 216.775 298.955 220.267C298.582 220.801 298.212 221.344 297.812 221.859C296.75 223.221 295.37 224.813 295.088 226.547C295.031 226.902 295.038 227.215 295.056 227.573C295.2 229.039 296.506 230.109 297.972 229.965C299.249 229.84 300.176 228.821 300.311 227.594C300.312 227.591 300.311 227.587 300.311 227.584C300.33 227.406 300.383 227.235 300.365 227.049C300.366 227.209 300.365 227.29 300.343 227.434C300.339 227.46 300.332 227.521 300.322 227.551C300.318 227.563 300.317 227.57 300.311 227.584C300.539 227.059 300.895 226.602 301.23 226.142C301.85 225.289 302.506 224.465 303.11 223.6C305.056 220.808 306.89 217.936 308.846 215.151C309.877 213.681 310.946 212.235 312.071 210.836C313.002 209.678 313.977 208.552 314.923 207.407C315.254 207.006 315.585 206.608 315.906 206.2C316.068 205.994 316.207 205.77 316.376 205.57C316.562 205.348 316.753 205.128 316.942 204.907C317.285 204.7 317.598 204.444 317.818 204.074C318.224 203.383 318.55 202.933 318.49 202.088C318.476 201.887 318.446 201.681 318.384 201.489C318.341 201.358 318.298 201.228 318.234 201.105C317.975 200.607 317.603 200.265 317.123 199.984C317.05 199.94 316.967 199.911 316.888 199.877C316.889 199.874 316.879 199.874 316.878 199.877C316.784 199.846 316.696 199.812 316.6 199.791C316.435 199.756 316.267 199.729 316.098 199.716Z" fill="#E49906"/>
<path d="M296.21 202.599C295.12 202.784 294.303 203.596 294.063 204.607C294.062 204.611 294.064 204.615 294.063 204.618C294.045 204.637 294.027 204.653 294.01 204.671C293.855 204.836 293.686 204.989 293.529 205.152C293.073 205.626 292.755 206.211 292.428 206.776C291.659 208.107 290.9 209.438 290.132 210.77C288.788 213.103 287.396 215.412 286.073 217.756C285.891 218.079 285.741 218.419 285.571 218.749C285.068 219.73 284.551 220.703 284.033 221.676C283.786 222.141 283.564 222.664 283.264 223.097C283.078 223.366 282.852 223.611 282.709 223.908C282.446 224.456 282.272 224.874 282.367 225.521C282.39 225.677 282.422 225.832 282.474 225.98C282.542 226.175 282.617 226.373 282.73 226.546C282.865 226.753 283.015 226.95 283.2 227.113C283.389 227.279 283.615 227.41 283.841 227.518C284.037 227.612 284.248 227.669 284.46 227.711C284.959 227.81 285.499 227.718 285.956 227.508C286.186 227.402 286.3 227.302 286.532 227.134C286.56 227.114 286.68 227.006 286.703 226.985C286.725 226.965 286.731 226.953 286.725 226.963C287.045 226.692 287.249 226.355 287.398 225.991C287.491 225.859 287.561 225.765 287.665 225.585C287.953 225.088 288.225 224.575 288.498 224.068C289.135 222.886 289.758 221.698 290.389 220.512C290.653 220.014 290.97 219.54 291.264 219.059C292.671 216.757 294.074 214.447 295.451 212.127C295.981 211.234 296.499 210.343 297.021 209.446C297.153 209.22 297.3 208.995 297.438 208.773C297.442 208.77 297.445 208.766 297.449 208.762C297.469 208.742 297.492 208.719 297.513 208.698C297.569 208.642 297.628 208.585 297.684 208.528C297.918 208.289 298.148 208.052 298.357 207.791C298.856 207.163 299.214 206.468 299.318 205.665C299.36 205.342 299.315 205.128 299.286 204.778C299.04 203.326 297.662 202.354 296.21 202.599ZM294.052 204.971C294.03 205.2 293.99 205.426 294.031 205.665C294.017 205.418 294.018 205.191 294.052 204.971Z" fill="#E49906"/>
<path d="M284.888 204.917C283.85 204.854 282.827 205.402 282.335 206.391C281.974 207.122 281.618 207.838 281.181 208.527C280.32 209.887 279.342 211.164 278.543 212.565C277.704 214.037 277.014 215.606 276.29 217.136C275.741 218.294 275.155 219.422 274.538 220.544C274.227 221.107 273.866 221.686 273.63 222.285C273.381 222.916 273.27 223.447 273.459 224.122C273.528 224.369 273.642 224.728 273.833 224.912C274.062 225.134 274.279 225.361 274.516 225.575C274.529 225.586 274.573 225.6 274.602 225.617C275.758 226.397 277.326 226.09 278.105 224.934C278.328 224.603 278.439 224.246 278.49 223.876C278.554 223.756 278.617 223.633 278.682 223.513C278.861 223.184 279.087 222.792 279.269 222.466C279.921 221.3 280.514 220.102 281.117 218.91C281.832 217.497 282.52 216.053 283.382 214.723C284.113 213.592 284.929 212.523 285.657 211.39C286.2 210.544 286.67 209.67 287.12 208.773C287.776 207.454 287.232 205.851 285.913 205.195C285.583 205.031 285.234 204.938 284.888 204.917Z" fill="#E49906"/>
<path d="M272.423 206.584C271.741 206.624 271.075 206.931 270.586 207.481C270.138 207.993 269.653 208.467 269.283 209.041C268.969 209.527 268.742 210.069 268.492 210.59C268.258 211.08 268.032 211.568 267.808 212.064C267.034 213.777 266.287 215.499 265.533 217.222C265.145 218.11 264.75 218.998 264.38 219.893C264.185 220.364 263.966 220.834 263.857 221.335C263.783 221.669 263.806 221.993 263.792 222.328C263.752 223.722 264.844 224.883 266.239 224.923C267.632 224.964 268.794 223.872 268.834 222.478C268.835 222.443 268.834 222.406 268.834 222.371C268.845 222.333 268.862 222.3 268.877 222.264C268.934 222.124 268.989 221.976 269.047 221.837C269.343 221.134 269.658 220.446 269.977 219.754C270.746 218.085 271.56 216.431 272.359 214.777C272.662 214.149 272.971 213.522 273.277 212.897C273.355 212.738 273.424 212.585 273.502 212.427C273.577 212.272 273.642 212.101 273.737 211.957C273.964 211.613 274.296 211.332 274.57 211.027C275.549 209.927 275.456 208.237 274.356 207.257C273.806 206.767 273.104 206.545 272.423 206.584Z" fill="#E49906"/>
<path d="M258.964 208.817C257.925 208.831 256.946 209.449 256.529 210.472C256.171 211.366 255.844 212.272 255.568 213.196C255.272 214.185 255.037 215.195 254.714 216.176C254.383 217.176 253.969 218.136 253.635 219.135C253.286 220.177 253.042 221.233 252.951 222.328C252.835 223.718 253.858 224.946 255.247 225.063C256.638 225.179 257.865 224.145 257.982 222.755C258.128 221.036 259.004 219.504 259.605 217.917C260.285 216.124 260.731 214.265 261.464 212.491C262.019 211.126 261.365 209.564 260.001 209.009C259.659 208.87 259.311 208.812 258.964 208.817Z" fill="#E49906"/>
<path d="M245.207 210.504C244.175 210.625 243.263 211.344 242.953 212.405C242.721 213.221 242.468 214.037 242.27 214.862C241.894 216.427 241.622 218.022 241.33 219.604C241.156 220.548 240.888 221.551 240.935 222.52C240.954 222.921 241.053 223.3 241.159 223.685C241.527 225.03 242.911 225.825 244.257 225.458C245.602 225.09 246.397 223.695 246.03 222.349C246.022 222.322 246.005 222.296 245.998 222.264C246.051 222.01 246.088 221.745 246.136 221.495C246.252 220.903 246.39 220.319 246.532 219.732C247.004 217.776 247.506 215.829 248.08 213.9C248.493 212.486 247.679 211.013 246.265 210.6C245.911 210.497 245.551 210.464 245.207 210.504Z" fill="#E49906"/>
<path d="M34.233 87.5749C33.5911 87.6494 32.9785 87.968 32.5455 88.5149C31.6796 89.6083 31.8687 91.1949 32.9621 92.061C36.0121 94.4758 39.2096 96.706 42.415 98.9075C47.7125 102.546 53.1313 106.018 58.6182 109.364C73.7919 118.618 89.545 126.911 105.68 134.358C135.545 148.143 166.815 158.582 198.317 167.918C215.409 172.984 232.61 177.694 249.875 182.135C261.108 185.024 272.359 187.845 283.67 190.413C285.107 190.739 286.538 189.842 286.864 188.405C287.19 186.968 286.292 185.537 284.856 185.211C274.129 182.781 263.446 180.116 252.791 177.393C235.576 172.992 218.434 168.31 201.383 163.315C191.794 160.506 182.244 157.571 172.736 154.503C151.863 147.768 131.234 140.271 111.223 131.271C94.4327 123.721 78.0418 115.217 62.2925 105.68C56.7486 102.322 51.2829 98.8443 45.929 95.1905C42.5954 92.9155 39.2568 90.6053 36.0917 88.0982C35.5449 87.6651 34.8753 87.5004 34.233 87.5749Z" fill="#E49906"/>
<path d="M49.5178 154.321C48.0505 154.451 46.9639 155.748 47.0931 157.216C49.3052 182.115 51.6096 206.999 53.8118 231.899C53.9339 233.288 55.1568 234.317 56.5462 234.195C57.9353 234.073 58.9648 232.85 58.8424 231.461C56.66 206.56 54.585 181.648 52.4125 156.746C52.2833 155.278 50.9855 154.192 49.5178 154.321Z" fill="#E49906"/>
</g>
<defs>
<clipPath id="clip0_820_4832">
<rect width="350" height="350" fill="white"/>
</clipPath>
</defs>
</svg>
