<svg width="300" height="300" viewBox="0 0 300 300" fill="none" xmlns="http://www.w3.org/2000/svg">
<g clip-path="url(#clip0_820_3481)">
<path d="M189.009 188.45C189.324 190.027 190.026 191.578 190.559 193.1" stroke="black" stroke-width="2.23472" stroke-miterlimit="10" stroke-linejoin="round"/>
<path d="M194.951 186.642C194.951 186.512 196.557 190.438 196.845 191.206" stroke="black" stroke-width="2.23472" stroke-miterlimit="10" stroke-linejoin="round"/>
<path d="M201.582 184.661C202.352 186.201 202.62 187.942 203.39 189.483" stroke="black" stroke-width="2.23472" stroke-miterlimit="10" stroke-linejoin="round"/>
<path d="M206.748 183.025C207.768 184.385 207.858 186.144 208.471 187.675" stroke="black" stroke-width="2.23472" stroke-miterlimit="10" stroke-linejoin="round"/>
<path d="M213.293 180.786C213.727 182.088 215.015 184.28 215.015 185.78" stroke="black" stroke-width="2.23472" stroke-miterlimit="10" stroke-linejoin="round"/>
<path d="M218.111 269.272C222.168 268.774 226.487 266.671 230.349 265.386C231.39 265.04 236.563 264.073 236.329 264.189" stroke="black" stroke-width="2.23472" stroke-miterlimit="10" stroke-linejoin="round"/>
<path d="M220.676 275.46C220.302 275.561 221.9 275.103 222.243 275.037C223.668 274.758 224.919 274.129 226.301 273.729C230.155 272.614 233.947 271.294 237.81 270.25" stroke="black" stroke-width="2.23472" stroke-miterlimit="10" stroke-linejoin="round"/>
<path d="M211.366 257.158C210.458 257.799 211.689 259.056 212.331 258.44C212.992 257.807 212.187 256.579 211.366 257.158Z" stroke="black" stroke-width="2.23472" stroke-miterlimit="10" stroke-linejoin="round"/>
<path d="M222.443 253.656C222.484 253.855 221.003 254.473 222.287 255.142C222.945 255.485 223.949 254.796 223.932 254.102C223.902 252.954 222.206 252.522 222.443 253.656Z" stroke="black" stroke-width="2.23472" stroke-miterlimit="10" stroke-linejoin="round"/>
<path d="M234.267 250.114C234.316 250.786 234.538 252.458 235.344 251.373C236.25 250.152 234.214 249.381 234.267 250.114Z" stroke="black" stroke-width="2.23472" stroke-miterlimit="10" stroke-linejoin="round"/>
<path d="M92.2436 64.877C92.2175 64.8682 95.0235 66.229 96.1934 67.6113C97.9474 69.6843 101.054 73.3473 101.054 76.27" stroke="black" stroke-width="2.23472" stroke-miterlimit="10" stroke-linejoin="round"/>
<path d="M101.89 81.2829L101.814 81.1309L101.586 80.9032L101.51 81.1309V81.2829L101.662 81.3588L101.89 81.4347L101.966 81.2829V81.1309V80.9032L101.89 80.7512L101.738 80.6753H101.586L101.51 80.8271L101.434 80.9791V81.207" stroke="black" stroke-width="2.23472" stroke-miterlimit="10" stroke-linejoin="round"/>
<path d="M43.5876 78.9229C43.5876 79.7142 45.4011 78.6554 45.5288 79.5489C45.7066 80.7946 43.5671 82.0972 43.9005 83.4313C44.059 84.0647 45.2941 83.7612 45.4661 84.6214C45.6987 85.7842 44.3531 86.3801 44.0886 87.4392C43.9099 88.1537 45.4857 88.1399 45.5915 88.8794C45.7591 90.0533 44.6549 90.5622 44.3391 91.5094" stroke="black" stroke-width="2.23472" stroke-miterlimit="10" stroke-linejoin="round"/>
<path d="M45.4661 93.9509C45.0574 93.1333 45.6844 95.489 45.7793 95.8921C46.0658 97.1097 46.3734 98.4902 47.2822 99.399" stroke="black" stroke-width="2.23472" stroke-miterlimit="10" stroke-linejoin="round"/>
<path d="M47.8456 102.342C48.3091 102.574 49.1004 101.962 49.5363 102.279C50.1536 102.728 48.9287 104.946 49.2234 105.536C49.5369 106.163 51.2678 104.939 51.6656 105.536C52.1924 106.326 51.4134 107.786 51.7907 108.667C52.1288 109.456 53.3329 108.551 53.7946 109.105C54.4107 109.845 53.6625 111.173 54.1705 111.986C54.5637 112.615 55.556 111.952 56.1117 112.111C56.6484 112.264 56.5113 114.123 56.8632 114.616C57.4318 115.412 58.2478 113.127 59.3054 115.242" stroke="black" stroke-width="2.23472" stroke-miterlimit="10" stroke-linejoin="round"/>
<path d="M100.992 56.7995C100.344 56.7705 99.7049 57.1197 99.4078 57.7426C99.012 58.5726 99.365 59.5713 100.195 59.9674C100.97 60.3365 101.72 60.742 102.42 61.2398C104.268 62.5526 105.756 64.3001 106.97 66.2021C108.757 69.0008 109.991 72.1323 110.999 75.2841C111.317 76.2811 111.616 77.2786 111.896 78.287C112.238 79.5187 112.555 80.755 112.866 81.9948C113.104 82.9367 114.066 83.5142 115.008 83.2766C115.951 83.039 116.519 82.0763 116.281 81.1344C115.911 79.6777 115.535 78.2296 115.119 76.7856C113.957 72.7543 112.506 68.7439 110.312 65.1491C108.754 62.5959 106.796 60.2574 104.343 58.5207C103.485 57.9137 102.579 57.4066 101.633 56.9551C101.425 56.8561 101.208 56.8092 100.992 56.7995Z" fill="white"/>
<path d="M184.57 39.2673C184.138 39.199 183.681 39.385 183.435 39.78C183.107 40.3067 183.275 40.9993 183.801 41.3271C184.55 41.795 185.249 42.327 185.815 43.0117C187.126 44.5961 187.403 46.7072 187.546 48.6883C187.595 49.3416 188.165 49.8267 188.818 49.7775C189.472 49.7283 189.957 49.1585 189.908 48.5049C189.792 47.0271 189.612 45.5424 189.084 44.1473C188.3 42.0751 186.837 40.5754 184.982 39.4228C184.851 39.3411 184.714 39.2901 184.57 39.2673Z" fill="black"/>
<path d="M187.802 51.755C187.365 51.7406 186.945 51.992 186.749 52.4142C186.604 52.6775 186.454 52.9377 186.31 53.2017C186.035 53.7964 186.301 54.5013 186.896 54.7764C187.491 55.0515 188.196 54.7942 188.47 54.1995C188.578 53.9186 188.684 53.6388 188.791 53.3572C189.051 52.7941 188.805 52.1253 188.242 51.8648C188.101 51.7998 187.948 51.76 187.802 51.755Z" fill="black"/>
<path d="M141.046 43.1213C140.615 43.198 140.252 43.5279 140.149 43.9817C139.82 45.4064 139.452 46.8168 139.151 48.2482C139.02 48.8901 139.433 49.5179 140.076 49.6489C140.718 49.7798 141.345 49.3662 141.476 48.724C141.756 47.3075 142.03 45.8854 142.346 44.4759C142.484 43.871 142.1 43.268 141.495 43.1303C141.343 43.0958 141.19 43.0955 141.046 43.1213Z" fill="black"/>
<path d="M139.096 51.2602C138.667 51.349 138.308 51.6827 138.217 52.1391C137.974 53.3453 137.64 54.5289 137.329 55.7189C137.168 56.3541 137.554 57.0042 138.19 57.1653C138.825 57.3264 139.466 56.94 139.627 56.3048C139.931 55.07 140.181 53.8263 140.423 52.5786C140.544 51.9698 140.144 51.3806 139.535 51.2602C139.383 51.23 139.239 51.2306 139.096 51.2602Z" fill="black"/>
<path d="M137.595 58.9238C136.977 58.8699 136.431 59.3219 136.377 59.9401C136.249 61.3674 135.786 62.7207 135.379 64.0874C135.196 64.7167 135.555 65.3782 136.185 65.5613C136.814 65.7447 137.476 65.3758 137.659 64.7465C138.092 63.2263 138.485 61.7123 138.62 60.1323C138.674 59.5141 138.213 58.9777 137.595 58.9238Z" fill="black"/>
<path d="M211.99 60.3427C211.38 60.2334 210.8 60.6474 210.69 61.2582C210.402 62.8423 210.067 64.4173 209.775 66.0005C209.659 66.6456 210.091 67.2582 210.736 67.374C211.381 67.4894 211.994 67.0575 212.109 66.4127C212.384 64.826 212.626 63.2375 212.906 61.652C213.015 61.0411 212.601 60.452 211.99 60.3427Z" fill="black"/>
<path d="M209.564 69.3149C209.131 69.3793 208.755 69.6972 208.639 70.1481C208.249 71.6463 207.792 73.1205 207.358 74.6065C207.178 75.2367 207.543 75.8912 208.172 76.0713C208.803 76.2518 209.457 75.8865 209.637 75.2566C210.061 73.7457 210.432 72.2264 210.819 70.7065C210.973 70.1056 210.614 69.4971 210.013 69.3424C209.863 69.3035 209.708 69.2932 209.564 69.3149Z" fill="black"/>
<path d="M207.77 76.4646C207.335 76.5203 206.961 76.8314 206.836 77.2794C206.379 78.9004 206.027 80.5469 205.573 82.1684C205.399 82.8004 205.774 83.4599 206.406 83.6333C207.038 83.8067 207.688 83.432 207.861 82.8001C208.298 81.1741 208.548 79.5059 208.997 77.8838C209.164 77.2861 208.816 76.6683 208.218 76.5013C208.069 76.4597 207.915 76.4462 207.77 76.4646Z" fill="black"/>
<path d="M236.234 80.6216C235.946 80.6228 235.664 80.7397 235.446 80.9603C235.01 81.4012 235.005 82.1075 235.446 82.5441C236.643 83.7323 237.528 85.2045 237.799 86.8835C237.91 87.5295 238.517 87.9646 239.163 87.8541C239.809 87.7437 240.244 87.1361 240.134 86.4901C239.749 84.3238 238.582 82.4837 237.03 80.9509C236.81 80.7326 236.521 80.6201 236.234 80.6216Z" fill="black"/>
<path d="M240.417 79.065C239.985 78.9955 239.529 79.1833 239.282 79.5777C238.953 80.1035 239.113 80.7955 239.639 81.1248C240.229 81.496 240.928 81.893 241.305 82.4983C241.551 82.8914 241.586 83.3854 241.617 83.8348C241.653 84.3545 241.669 84.8798 241.681 85.4004C241.699 86.0555 242.244 86.5723 242.899 86.5541C243.554 86.5357 244.07 85.9913 244.052 85.3363C244.011 84.044 244.039 82.6304 243.375 81.4729C242.8 80.4715 241.786 79.8264 240.829 79.2299C240.698 79.1473 240.562 79.0881 240.417 79.065Z" fill="black"/>
<path d="M57.5959 221.31C57.1611 221.259 56.7182 221.465 56.4879 221.869C55.4115 223.755 54.5886 225.85 55.06 228.049C55.1862 228.639 55.3936 229.204 55.6459 229.752C56.1375 230.82 56.7976 231.804 57.4585 232.773C57.8291 233.313 58.5659 233.446 59.1064 233.075C59.647 232.704 59.7885 231.968 59.4176 231.427C58.969 230.777 58.517 230.129 58.1268 229.44C57.8364 228.928 57.5766 228.394 57.4037 227.829C56.8767 226.111 57.5956 224.47 58.4382 222.986C58.7452 222.447 58.5562 221.755 58.0169 221.448C57.8821 221.371 57.7406 221.328 57.5959 221.31Z" fill="black"/>
<path d="M60.9009 222.638C60.4652 222.681 60.0782 222.981 59.9396 223.425C59.7929 223.893 59.6687 224.361 59.5825 224.845C59.1677 227.171 59.4155 230.195 61.8073 231.363C62.2687 231.588 62.7478 231.698 63.2537 231.766C63.9041 231.847 64.5 231.391 64.5814 230.741C64.6626 230.09 64.2062 229.495 63.5561 229.413C63.3428 229.39 63.133 229.357 62.9332 229.276C61.8015 228.816 61.6491 227.207 61.6975 226.172C61.7065 225.978 61.7276 225.733 61.7522 225.54C61.7792 225.329 61.8097 225.136 61.853 224.927C61.9119 224.643 61.9957 224.37 62.0818 224.094C62.267 223.502 61.9324 222.869 61.3403 222.684C61.1924 222.638 61.0462 222.624 60.9009 222.638Z" fill="black"/>
<path d="M216.019 189.048C215.41 189.167 215.011 189.757 215.13 190.366C215.947 194.53 217.488 198.473 218.948 202.442C219.712 204.518 220.407 206.61 221.063 208.722C224.247 218.963 226.902 229.366 229.779 239.695C229.955 240.326 230.604 240.695 231.235 240.519C231.866 240.342 232.235 239.685 232.059 239.054C229.196 228.821 226.527 218.535 223.352 208.393C222.644 206.131 221.895 203.878 221.072 201.654C219.647 197.801 218.132 193.981 217.337 189.936C217.218 189.327 216.628 188.928 216.019 189.048Z" fill="black"/>
<path d="M86.1785 131.726C86.0262 131.703 85.8703 131.713 85.7115 131.754C84.1016 132.175 82.4859 132.358 80.8227 132.294C80.3988 132.277 79.9737 132.245 79.5501 132.22C79.0848 132.194 78.634 132.043 78.2226 132.358C78.1479 132.415 78.0852 132.481 78.0211 132.55C77.9792 132.595 77.9472 132.647 77.9115 132.697C77.8825 132.679 77.879 132.757 77.8655 132.788C77.8374 132.854 77.8016 132.92 77.7832 132.99C77.7026 133.292 77.7586 133.611 77.9206 133.878C78.1277 134.218 78.4597 134.333 78.8177 134.399C78.83 134.402 78.842 134.406 78.8543 134.408C78.8739 134.411 78.8988 134.415 78.9184 134.418C78.9967 134.428 79.069 134.435 79.1473 134.445C79.2665 134.457 79.3784 134.49 79.4953 134.5C79.5425 134.504 79.5861 134.483 79.6324 134.482C79.6632 134.484 79.6933 134.489 79.7241 134.491C80.272 134.529 80.8233 134.577 81.3721 134.601C83.0472 134.673 84.6756 134.462 86.2974 134.051C86.9323 133.888 87.3217 133.24 87.1582 132.605C87.0357 132.129 86.6358 131.794 86.1785 131.726Z" fill="black"/>
<path d="M85.8674 128.632C83.5605 129.088 81.3038 129.257 78.9551 129.144C78.3354 129.114 77.8143 129.596 77.7832 130.216C77.7521 130.835 78.2256 131.357 78.8452 131.388C80.296 131.463 81.7526 131.488 83.2031 131.388C84.2534 131.315 85.2914 131.163 86.325 130.966C86.9684 130.842 87.3838 130.218 87.259 129.575C87.1342 128.931 86.5107 128.507 85.8674 128.632Z" fill="black"/>
<path d="M132.623 94.6747C130.542 94.4934 128.632 95.5143 127.139 96.8813C126.105 97.8279 125.236 98.9365 124.438 100.086C123.251 101.796 122.234 103.634 121.188 105.432C120.516 106.589 119.843 107.745 119.156 108.893C119.016 109.127 118.773 109.291 118.652 109.534C118.553 109.734 118.47 109.943 118.378 110.147C118.315 110.285 118.302 110.496 118.295 110.642C118.278 111.035 118.36 111.427 118.542 111.777C118.594 111.876 118.654 111.968 118.716 112.061C118.747 112.106 118.783 112.146 118.817 112.189C118.854 112.229 118.888 112.27 118.927 112.308C119.09 112.463 119.186 112.541 119.376 112.656C119.968 113.012 120.608 113.019 121.262 112.857C122.018 112.67 122.546 112.096 122.781 111.411C122.942 111.168 123.089 110.921 123.239 110.669C123.637 110.001 124.028 109.326 124.42 108.655C125.099 107.493 125.783 106.341 126.471 105.185C127.227 103.914 128.013 102.641 128.952 101.496C129.152 101.252 129.341 101.039 129.556 100.809C130.124 100.203 131.134 99.209 132.065 99.1882C132.289 99.1835 132.507 99.2459 132.715 99.3256C134.071 99.8474 134.216 101.694 134.235 102.924C134.239 103.207 134.237 103.464 134.225 103.748C134.166 105.18 133.94 106.602 133.704 108.014C133.571 108.803 133.442 109.589 133.301 110.376C133.094 111.529 132.895 112.694 132.797 113.864C132.684 114.188 132.625 114.535 132.669 114.899C132.781 115.644 133.082 116.307 133.758 116.721C133.885 116.798 134.017 116.862 134.152 116.922C134.229 116.956 134.311 116.969 134.39 116.995C134.391 116.996 134.399 116.997 134.399 116.995C134.44 117.005 134.478 117.024 134.518 117.032C134.608 117.048 134.703 117.06 134.793 117.069C134.979 117.086 135.158 117.085 135.342 117.059C136.007 116.967 136.59 116.586 136.963 116.034C137.423 115.353 137.434 114.47 137.503 113.681C137.504 113.667 137.502 113.65 137.503 113.635C137.503 113.639 137.503 113.628 137.503 113.626C137.608 112.812 137.745 112 137.887 111.191C138.054 110.248 138.21 109.307 138.364 108.362C138.49 107.582 138.604 106.795 138.693 106.009C139.086 102.555 139.029 98.2337 135.937 95.9383C135.438 95.5677 134.891 95.2738 134.308 95.0594C133.768 94.861 133.197 94.7248 132.623 94.6747ZM120.291 108.554C120.318 108.554 120.346 108.554 120.374 108.554C120.333 108.561 120.295 108.554 120.255 108.563C120.267 108.562 120.279 108.554 120.291 108.554Z" fill="#1C61EE"/>
<path d="M125.877 105.178C126.743 105.703 132.484 107.864 134.328 107.683" stroke="#1C61EE" stroke-width="4.39453" stroke-miterlimit="10" stroke-linejoin="round"/>
<path d="M119.842 134.628C115.893 134.531 112.964 137.927 111.539 141.275C111.276 141.893 111.047 142.531 110.871 143.179C110.452 144.717 110.324 146.336 110.12 147.912C110.009 148.766 109.852 149.619 109.772 150.476C109.753 150.68 109.738 150.884 109.726 151.089C109.576 151.178 109.418 151.26 109.296 151.382C109.081 151.596 108.895 151.841 108.765 152.115C108.645 152.365 108.587 152.645 108.554 152.92C108.528 153.137 108.56 153.364 108.591 153.58C108.611 153.725 108.661 153.862 108.71 154.001C108.925 154.619 109.411 155.116 109.891 155.539C110.376 155.965 110.902 156.351 111.438 156.711C111.875 157.004 112.327 157.288 112.811 157.498C113.278 157.7 113.776 157.828 114.267 157.956C114.868 158.112 115.476 158.241 116.089 158.34C118.741 158.77 121.968 158.737 124.072 156.802C124.55 156.363 124.941 155.837 125.244 155.264C125.474 154.83 125.649 154.367 125.766 153.891C126.405 151.288 125.128 148.709 123.166 147.006C123.583 146.765 123.978 146.498 124.329 146.145C124.863 145.607 125.288 144.967 125.619 144.287C126.704 142.064 127.025 138.933 125.107 137.054C124.144 136.111 122.964 135.332 121.673 134.93C121.081 134.745 120.463 134.643 119.842 134.628ZM119.723 139.087C119.924 139.091 120.129 139.13 120.337 139.197C120.597 139.28 120.848 139.398 121.078 139.544C121.388 139.742 121.661 139.983 121.93 140.231C121.934 140.24 121.937 140.242 121.939 140.249C121.945 140.272 121.953 140.3 121.957 140.323C121.973 140.401 121.981 140.47 121.985 140.552C121.993 140.726 121.974 140.901 121.948 141.073C121.927 141.214 121.902 141.348 121.866 141.486C121.81 141.697 121.742 141.907 121.655 142.108C121.537 142.382 121.302 142.87 121.033 143.033C120.737 143.212 120.405 143.351 120.09 143.49C119.34 143.821 118.526 144.128 117.7 144.177C116.971 144.22 116.217 144.113 115.494 144.04C115.429 144.033 115.367 144.019 115.301 144.012C115.287 144.011 115.27 144.014 115.256 144.012C115.418 143.494 115.61 142.987 115.851 142.502C116.018 142.164 116.205 141.829 116.409 141.513C117.112 140.424 118.32 139.056 119.723 139.087ZM114.487 148.535C114.502 148.537 114.517 148.542 114.533 148.544C114.554 148.547 114.573 148.55 114.596 148.553C114.629 148.558 114.665 148.567 114.697 148.572C115.229 148.652 115.74 148.753 116.263 148.883C116.366 148.909 116.471 148.938 116.574 148.965C118.066 149.352 119.725 149.797 120.712 151.071C121.041 151.495 121.344 152.051 121.289 152.609C121.168 153.833 119.601 153.911 118.671 153.909C117.299 153.906 115.947 153.619 114.642 153.213C114.639 153.212 114.637 153.215 114.633 153.213C114.632 153.212 114.635 153.205 114.633 153.204C114.62 153.197 114.604 153.19 114.596 153.186C114.556 153.163 114.518 153.146 114.478 153.122C114.328 153.034 114.182 152.935 114.038 152.838C114.01 152.819 113.984 152.793 113.956 152.774C114.085 152.11 114.101 151.41 114.194 150.723C114.292 149.994 114.389 149.264 114.487 148.535ZM111.475 155.31C111.456 155.315 111.439 155.324 111.42 155.328C111.317 155.353 111.214 155.354 111.108 155.365C111.079 155.368 111.104 155.368 110.861 155.365C111.074 155.388 111.273 155.342 111.475 155.31Z" fill="#1C61EE"/>
<path d="M107.712 178.464C106.812 178.515 105.929 178.787 105.121 179.196C101.352 181.103 99.1333 185.482 98.6297 189.523C98.3139 192.057 98.7258 194.765 100.415 196.765C103.179 200.037 108.865 201.173 112.472 198.678C113.079 198.259 113.583 197.745 114.038 197.168C114.824 196.147 114.629 194.686 113.608 193.899C112.587 193.113 111.125 193.299 110.339 194.32C109.71 195.211 108.533 195.426 107.51 195.364C106.189 195.284 104.568 194.689 103.775 193.57C103.433 193.087 103.241 192.488 103.171 191.903C103.017 190.626 103.21 189.339 103.583 188.113C104.125 186.329 105.067 184.609 106.604 183.499C106.777 183.374 106.955 183.258 107.144 183.16C107.472 182.991 107.884 182.831 108.261 182.931C108.41 182.971 108.561 183.009 108.71 183.05C108.849 183.089 108.984 183.128 109.122 183.17C109.358 183.24 109.639 183.327 109.872 183.407C110.727 183.701 111.791 184.076 112.152 184.991C112.288 185.335 112.334 185.698 112.381 186.063C112.539 187.272 113.652 188.125 114.862 187.967C116.072 187.809 116.924 186.705 116.766 185.495C116.592 184.172 116.226 182.901 115.393 181.833C114.372 180.523 112.856 179.761 111.319 179.224C110.449 178.919 109.53 178.594 108.609 178.491C108.307 178.457 108.012 178.447 107.712 178.464Z" fill="#1C61EE"/>
<path d="M173.648 43.0025C172.361 42.9949 171.056 43.9974 170.37 45.026C170.194 45.29 170.048 45.5786 169.94 45.8774C169.189 47.961 170.456 50.0525 171.762 51.5903C172.682 52.674 173.743 53.6208 174.783 54.5838C175.1 54.8774 175.538 54.938 175.919 54.8036C176.132 54.8891 176.358 54.953 176.633 54.9319C177.289 54.8812 177.904 54.4227 178.4 54.0348C179.071 53.5083 179.641 52.8875 180.267 52.3133C180.981 51.6594 181.747 51.0357 182.282 50.2168C182.681 49.606 182.939 48.8469 182.712 48.1204C182.214 46.5298 179.962 46.3822 178.574 46.4449C178.194 46.4622 177.793 46.4835 177.429 46.6004C177.134 46.6954 176.913 46.8738 176.706 47.0674C176.587 46.4097 176.442 45.7555 176.193 45.1356C176.016 44.6944 175.79 44.2716 175.479 43.9089C175.309 43.7112 175.121 43.5301 174.902 43.3871C174.501 43.1241 174.077 43.0051 173.648 43.0025Z" fill="black"/>
<path d="M215.286 169.858C214.849 169.883 214.454 170.17 214.298 170.609C214.088 171.193 214.391 171.837 214.975 172.046C216.387 172.555 217.724 173.24 218.692 174.417C219.117 174.916 219.868 174.979 220.368 174.554C220.866 174.13 220.92 173.378 220.496 172.879C220.173 172.508 219.852 172.166 219.47 171.854C218.374 170.956 217.049 170.392 215.726 169.922C215.58 169.87 215.432 169.85 215.286 169.858Z" fill="black"/>
<path d="M217.786 165.903C217.501 165.939 217.234 166.088 217.044 166.333C216.664 166.824 216.755 167.528 217.245 167.908C218.293 168.724 219.304 169.57 220.349 170.389C220.867 170.79 221.614 170.697 222.015 170.178C222.416 169.66 222.323 168.913 221.805 168.512C220.749 167.707 219.672 166.941 218.619 166.132C218.373 165.942 218.071 165.867 217.786 165.903Z" fill="black"/>
<path d="M78.3873 138.163C78.1011 138.138 77.8008 138.219 77.5635 138.419C77.0886 138.818 77.0268 139.528 77.4261 140.003C77.9147 140.584 78.4113 141.161 78.9 141.742C79.1722 142.065 79.444 142.391 79.7057 142.722C79.8557 142.912 80.003 143.096 80.136 143.299C80.1911 143.382 80.2535 143.484 80.301 143.573C80.3376 143.643 80.3648 143.702 80.3924 143.775C80.4999 144.057 80.3733 144.073 80.0994 144.242C80.0013 144.302 79.8844 144.374 79.7883 144.425C79.7059 144.468 79.6242 144.503 79.541 144.544C79.2475 144.688 78.9439 144.826 78.653 144.974C77.6089 145.507 76.4625 146.31 76.2451 147.556C76.0263 148.811 76.9465 149.559 77.9388 150.073C78.1799 150.199 78.428 150.312 78.6621 150.449C78.697 150.469 78.7289 150.491 78.7629 150.513C78.687 150.567 78.6123 150.629 78.5338 150.678C78.22 150.875 77.896 151.046 77.5726 151.227C76.3629 151.903 74.7694 152.84 74.9543 154.459C75.075 155.516 75.9091 156.096 76.8129 156.501C77.0845 156.622 77.3648 156.735 77.6276 156.876C77.8986 157.021 78.0864 157.133 78.0852 157.398C78.0841 157.734 77.7302 157.828 77.4536 157.938C77.267 158.012 77.0616 158.082 76.8768 158.148C75.97 158.472 75.0879 158.854 74.6062 159.741C74.4949 159.947 74.4217 160.172 74.3774 160.401C74.1448 161.608 74.9534 162.563 75.769 163.33C75.96 163.51 76.1476 163.689 76.3365 163.871C76.4352 163.965 76.5516 164.049 76.6389 164.154C76.7059 164.236 76.7276 164.347 76.7944 164.429C76.8179 164.458 76.8829 164.44 76.8952 164.475C76.904 164.5 76.8299 164.477 76.822 164.502C76.812 164.534 76.8237 164.568 76.8129 164.603C76.7751 164.62 76.7417 164.637 76.7027 164.649C76.5917 164.682 76.4695 164.706 76.355 164.722C75.9949 164.774 75.6346 164.787 75.2748 164.841C74.8799 164.9 74.4817 164.994 74.1211 165.17C73.4311 165.508 72.8777 166.166 72.7019 166.919C72.4503 167.997 73.0544 168.947 73.7273 169.73C74.0118 170.061 74.3247 170.372 74.5787 170.728C74.6332 170.804 74.7258 170.925 74.7346 171.03C74.3736 171.367 73.805 171.495 73.3611 171.662C72.1726 172.109 70.9611 172.702 70.8527 174.106C70.7719 175.151 71.3555 175.963 72.0703 176.651C72.2918 176.864 72.5332 177.067 72.7113 177.32C72.7717 177.405 72.832 177.496 72.8393 177.603C72.8423 177.644 72.8481 177.735 72.8393 177.722C72.8297 177.709 72.808 177.741 72.7936 177.75C72.7787 177.758 72.7638 177.762 72.7476 177.768C72.6246 177.818 72.5933 177.837 72.4641 177.869C72.1875 177.938 71.9042 177.973 71.6218 178.006C70.464 178.142 69.041 178.274 68.5913 179.553C68.54 179.699 68.5087 179.84 68.4905 179.993C68.3417 181.249 69.2976 182.143 70.1569 182.895C70.4141 183.12 70.6787 183.336 70.8984 183.6C71.03 183.758 71.1023 183.85 71.1363 184.03C71.1278 184.04 71.124 184.044 71.1182 184.049C71.0853 184.078 71.0622 184.104 71.0268 184.131C70.9538 184.187 70.8744 184.237 70.7976 184.287C70.5451 184.451 70.2835 184.599 70.0195 184.745C69.1866 185.204 68.3575 185.644 67.6576 186.301C67.4103 186.533 67.1979 186.829 67.0717 187.143C66.7017 188.063 67.0854 189.042 67.8864 189.588C68.1568 189.772 68.4574 189.906 68.7562 190.036C68.8081 190.059 68.86 190.086 68.9118 190.109C68.8348 190.22 68.7527 190.324 68.6555 190.421C68.3886 190.686 68.0836 190.91 67.7766 191.126C66.7755 191.831 65.6622 192.479 64.9749 193.524C64.1455 194.786 64.2132 196.201 65.1123 197.397C65.373 197.744 65.6859 198.044 65.9637 198.377C66.1479 198.597 66.322 198.826 66.266 199.109C66.1831 199.527 65.8099 199.813 65.4876 200.052C65.194 200.27 64.8814 200.462 64.5721 200.656C63.392 201.398 62.0672 202.272 61.8439 203.76C61.7142 204.625 62.0323 205.403 62.5945 206.049C62.8271 206.316 63.085 206.56 63.3363 206.809C63.4453 206.917 63.5308 207.047 63.6384 207.157C63.6475 207.166 63.6797 207.135 63.6841 207.147C63.7113 207.222 63.7227 207.298 63.7389 207.376C63.735 207.411 63.7233 207.453 63.7116 207.486C63.6844 207.563 63.6331 207.631 63.5742 207.688C63.3557 207.897 63.1058 208.054 62.8418 208.2C61.8683 208.74 60.74 209.266 60.4248 210.434C60.189 211.308 60.4925 212.205 61.1115 212.842C61.3219 213.059 61.5724 213.225 61.8164 213.4C61.7628 213.437 61.715 213.476 61.6608 213.51C61.299 213.741 60.9146 213.943 60.5347 214.142C59.9543 214.446 59.736 215.164 60.0404 215.744C60.3445 216.325 61.062 216.552 61.6424 216.248C61.9216 216.101 62.1934 215.957 62.4665 215.799C63.3999 215.26 64.7352 214.405 64.5264 213.135C64.4147 212.457 63.9305 212.02 63.4002 211.643C63.2133 211.51 63.0193 211.388 62.8509 211.231C62.8227 211.204 62.7589 211.131 62.741 211.075C62.901 210.878 63.1239 210.741 63.3454 210.617C63.6401 210.452 63.9428 210.305 64.2334 210.132C65.2025 209.557 66.1195 208.637 66.1011 207.422C66.099 207.279 66.111 207.133 66.0826 206.992C66.031 206.736 65.9663 206.472 65.8629 206.232C65.7847 206.05 65.6558 205.9 65.5427 205.738C65.3897 205.518 65.1999 205.323 65.0115 205.133C64.7997 204.92 64.5788 204.719 64.3799 204.492C64.2486 204.343 64.147 204.231 64.2059 204.035C64.2835 203.777 64.5463 203.549 64.737 203.394C65.0754 203.118 65.4571 202.893 65.8266 202.661C66.9665 201.944 68.187 201.129 68.5456 199.75C68.8263 198.67 68.4902 197.742 67.7947 196.884C67.2841 196.254 66.3779 195.686 66.9524 194.815C67.2653 194.342 67.7637 194.014 68.216 193.689C68.5192 193.472 68.8266 193.264 69.1315 193.048C69.3776 192.874 69.6223 192.691 69.8549 192.499C70.8196 191.7 71.889 190.315 71.1732 189.011C71.0689 188.821 70.9356 188.663 70.7795 188.517C70.4068 188.167 69.9428 187.998 69.4977 187.784C69.5109 187.773 69.5206 187.758 69.5344 187.748C69.7922 187.546 70.0936 187.389 70.3766 187.225C71.3657 186.653 72.924 186.042 73.3336 184.854C73.6708 183.878 73.3362 182.882 72.6929 182.108C72.4435 181.808 72.1752 181.571 71.8872 181.311C71.6115 181.063 71.3191 180.83 71.0631 180.56C71.025 180.52 70.9893 180.475 70.9535 180.432C70.9684 180.429 70.984 180.426 70.9992 180.423C71.1328 180.397 71.267 180.386 71.402 180.368C71.6552 180.335 71.918 180.311 72.1711 180.277C73.2641 180.131 74.4264 179.786 74.9267 178.702C75.4198 177.634 75.0615 176.482 74.3226 175.635C74.03 175.3 73.6802 175.019 73.3796 174.692C73.2683 174.571 73.1956 174.469 73.1689 174.317C74.3631 173.507 76.0893 173.505 76.8035 172.037C76.8726 171.895 76.9204 171.759 76.9594 171.607C77.0191 171.371 77.0516 171.117 77.0326 170.874C76.9462 169.78 76.1338 169.011 75.4576 168.228C75.4116 168.175 75.3653 168.127 75.3205 168.073C75.2399 167.975 74.8529 167.546 74.9543 167.386C75.0996 167.157 75.3583 167.14 75.6135 167.102C75.8358 167.069 76.0579 167.052 76.2817 167.029C76.9084 166.964 77.5471 166.849 78.0852 166.498C78.3319 166.337 78.6026 166.114 78.7535 165.857C78.8525 165.689 78.9533 165.522 79.0101 165.335C79.0646 165.156 79.0696 164.964 79.0834 164.777C79.1033 164.502 79.173 164.221 79.1106 163.953C79.0482 163.684 78.856 163.46 78.7172 163.22C78.6158 163.046 78.5156 162.864 78.3873 162.708C78.024 162.266 77.5523 161.899 77.1422 161.499C76.9377 161.3 76.7115 161.091 76.6022 160.822C76.577 160.76 76.865 160.586 76.9318 160.556C77.4513 160.322 78.0044 160.176 78.5247 159.943C79.6819 159.425 80.4179 158.52 80.3376 157.215C80.286 156.376 79.8439 155.662 79.1657 155.173C78.8792 154.966 78.619 154.839 78.305 154.688C77.964 154.524 77.5638 154.402 77.2523 154.175C77.2538 154.173 77.2506 154.168 77.2523 154.166C77.2494 154.169 77.2632 154.153 77.2614 154.157C77.361 154.064 77.4565 153.966 77.5635 153.882C77.9024 153.616 78.2959 153.405 78.6712 153.195C79.7265 152.605 81.2912 151.881 81.2074 150.431C81.1992 150.291 81.1805 150.153 81.1433 150.018C80.903 149.152 80.1161 148.672 79.367 148.279C79.1326 148.156 78.8889 148.041 78.6621 147.904C78.6214 147.879 78.5827 147.849 78.5432 147.821C78.5663 147.781 78.5848 147.739 78.6164 147.702C79.0271 147.223 79.6825 146.97 80.2368 146.704C80.8679 146.402 81.53 146.091 82.0222 145.578C82.2223 145.37 82.3916 145.13 82.5073 144.864C83.2494 143.158 81.6246 141.478 80.6215 140.287C80.4105 140.036 80.2019 139.794 79.9895 139.545C79.7098 139.217 79.425 138.886 79.1473 138.556C78.9477 138.319 78.6738 138.187 78.3873 138.163Z" fill="black"/>
<path d="M70.7795 233.093C70.3471 233.024 69.9 233.22 69.6533 233.615C69.3246 234.141 69.4843 234.833 70.0105 235.162C70.5246 235.484 71.0663 235.75 71.5758 236.078C71.7273 236.175 71.8667 236.293 72.0062 236.408C72.0431 236.623 72.0653 236.84 72.1345 237.048C72.3073 237.571 72.7072 237.963 73.2604 238.055C73.3986 238.078 73.5601 238.069 73.6998 238.055C74.9534 237.929 75.7705 236.929 76.7487 236.261C76.8343 236.203 76.9213 236.151 77.0142 236.105C77.2573 235.985 77.473 235.941 77.7191 236.05C77.7425 236.061 77.7601 236.076 77.7832 236.087C77.8242 236.162 77.9033 236.231 77.9479 236.307C78.0358 236.455 78.1151 236.616 78.186 236.774C78.7758 238.084 79.362 239.8 81.07 239.832C82.4417 239.857 83.3086 238.65 84.1371 237.735C84.3009 237.554 84.4846 237.393 84.668 237.231C84.7304 237.177 84.7802 237.101 84.8511 237.057C84.9026 237.026 84.9677 237.032 85.0251 237.012C85.0945 236.987 85.1584 236.958 85.2264 236.929C85.2437 236.95 85.2814 236.92 85.309 236.92C85.3702 236.919 85.432 236.926 85.4918 236.938C85.8193 237.009 86.0221 237.378 86.1694 237.643C86.3941 238.048 86.5661 238.48 86.7645 238.898C87.3656 240.163 88.1871 241.261 89.6575 241.461C91.0002 241.644 91.9816 240.858 92.862 239.941C93.1878 239.602 93.4942 239.267 93.869 238.98C94.108 238.797 94.3661 238.773 94.6471 238.852C95.3742 239.057 95.5825 240.132 95.7733 240.729C96.1418 241.881 96.6003 243.044 97.7692 243.576C97.996 243.679 98.2383 243.751 98.4832 243.796C99.9302 244.063 100.977 243.349 102.091 242.514C102.578 242.148 103.064 241.742 103.629 241.498C103.812 241.419 104.034 241.348 104.233 241.415C104.895 241.642 104.93 242.636 105.038 243.192C105.224 244.138 105.602 245.05 106.485 245.535C107.228 245.943 108.197 246.038 109.003 245.792C109.531 245.63 110.001 245.33 110.449 245.013C110.763 244.791 111.072 244.562 111.383 244.336C111.567 244.201 111.761 244.081 111.96 243.97C112.016 243.938 112.063 243.889 112.125 243.869C112.16 243.858 112.197 243.879 112.235 243.878C112.283 243.877 112.333 243.873 112.381 243.869C112.397 243.874 112.404 243.873 112.436 243.887C112.465 243.9 112.482 243.907 112.509 243.924C112.624 243.995 112.725 244.097 112.802 244.208C113.018 244.518 113.176 244.864 113.333 245.206C113.888 246.408 114.527 247.565 115.933 247.787C117.185 247.985 118.157 247.39 119.019 246.551C119.341 246.238 119.636 245.887 119.998 245.618C120.136 245.515 120.346 245.37 120.538 245.389C120.878 245.422 120.996 245.995 121.106 246.359C121.349 247.167 121.575 248.048 122.223 248.639C122.511 248.901 122.861 249.088 123.239 249.179C124.942 249.588 126.097 247.965 127.011 246.826C127.286 246.484 127.567 246.115 127.927 245.856C128.006 245.982 128.07 246.115 128.119 246.258C128.25 246.647 128.335 247.052 128.439 247.449C128.7 248.437 129.03 249.209 129.959 249.738C131.088 250.381 132.172 250.02 133.072 249.197C133.439 248.862 133.75 248.461 134.134 248.145C134.224 248.07 134.321 248.009 134.418 247.943C134.433 247.949 134.501 247.908 134.528 247.907C134.584 247.902 134.642 247.929 134.692 247.952C134.827 248.151 134.868 248.408 134.912 248.639C134.992 249.062 135.038 249.499 135.159 249.911C135.204 250.064 135.27 250.214 135.333 250.36C135.417 250.552 135.477 250.757 135.599 250.928C135.72 251.097 135.893 251.218 136.047 251.358C136.509 251.776 137.054 252.003 137.677 252.008C138.733 252.017 139.574 251.353 140.305 250.662C140.493 250.485 140.689 250.314 140.881 250.14C140.976 250.055 141.059 249.946 141.165 249.875C141.247 249.82 141.349 249.82 141.431 249.765C141.459 249.746 141.434 249.665 141.467 249.664C141.512 249.663 141.526 249.74 141.568 249.756C141.597 249.767 141.63 249.761 141.659 249.774C141.81 250.158 141.854 250.591 141.916 250.992C142.083 252.081 142.286 253.472 143.426 253.976C143.739 254.115 144.077 254.162 144.415 254.132C145.685 254.021 146.542 252.921 147.354 252.063C147.527 251.88 147.718 251.719 147.913 251.559C147.973 251.51 148.017 251.431 148.087 251.395C148.138 251.367 148.204 251.39 148.26 251.376C148.34 251.358 148.411 251.328 148.489 251.303C148.508 251.303 148.519 251.311 148.535 251.312C148.585 251.316 148.633 251.326 148.682 251.34C148.695 251.343 148.739 251.357 148.727 251.349C148.719 251.343 148.732 251.367 148.737 251.376C148.749 251.399 148.753 251.397 148.764 251.422C148.785 251.471 148.793 251.506 148.81 251.569C148.834 251.659 148.86 251.78 148.874 251.871C148.932 252.243 148.952 252.616 149.011 252.988C149.201 254.174 149.817 255.313 151.053 255.652C152.345 256.006 153.285 255.098 154.019 254.178C154.2 253.951 154.382 253.731 154.569 253.509C154.632 253.434 154.702 253.361 154.761 253.281C154.773 253.264 154.762 253.229 154.779 253.216C154.842 253.171 154.917 253.137 154.99 253.097C155.02 253.112 155.051 253.133 155.081 253.153C155.085 253.17 155.087 253.189 155.09 253.207C155.115 253.322 155.138 253.459 155.155 253.574C155.2 253.899 155.225 254.227 155.264 254.553C155.323 255.04 155.387 255.531 155.539 256C155.681 256.436 155.889 256.855 156.207 257.19C157.137 258.168 158.585 258.038 159.54 257.181C160.084 256.692 160.46 256.056 160.858 255.451C160.992 255.246 161.131 255.034 161.288 254.846C161.352 254.77 161.421 254.691 161.499 254.626C161.514 254.614 161.528 254.61 161.545 254.599C161.58 254.616 161.624 254.626 161.655 254.645C161.756 254.706 161.839 254.78 161.929 254.855C161.944 254.868 162.001 255.007 162.003 255.011C162.099 255.266 162.132 255.548 162.167 255.817C162.323 256.995 162.434 258.301 163.458 259.076C163.665 259.232 163.899 259.351 164.145 259.433C165.681 259.944 166.792 258.893 167.679 257.785C168.007 257.375 168.316 256.916 168.713 256.567C168.803 256.489 168.899 256.424 168.997 256.357C168.987 256.379 169.02 256.344 169.08 256.329C169.12 256.319 169.161 256.334 169.199 256.348C169.363 256.407 169.407 256.557 169.473 256.75C169.598 257.111 169.67 257.513 169.83 257.858C169.949 258.115 170.052 258.376 170.224 258.6C170.39 258.816 170.615 258.988 170.828 259.158C170.936 259.244 171.064 259.306 171.185 259.369C172.155 259.871 173.238 259.43 174.042 258.838C174.261 258.676 174.473 258.506 174.692 258.343C174.763 258.29 174.825 258.231 174.902 258.188C174.968 258.151 175.057 258.152 175.122 258.115C175.14 258.104 175.11 258.05 175.131 258.05C175.163 258.051 175.174 258.105 175.204 258.115C175.234 258.124 175.266 258.121 175.296 258.133C175.412 258.337 175.487 258.559 175.552 258.783C175.761 259.504 175.939 260.23 176.413 260.834C176.647 261.131 176.947 261.354 177.292 261.502C178.138 261.865 179.166 261.613 179.855 261.044C180.156 260.796 180.389 260.477 180.606 260.156C180.714 260.29 180.854 260.404 180.908 260.522C181.035 260.797 181.103 261.093 181.238 261.365C181.597 262.092 182.256 262.672 183.05 262.875C183.841 263.078 184.595 262.798 185.239 262.335C185.473 262.167 186.008 261.698 186.145 261.74C186.322 261.795 186.441 262 186.539 262.143C186.785 262.502 186.988 262.919 187.28 263.241C187.469 263.45 187.653 263.667 187.884 263.827C188.111 263.984 188.377 264.08 188.635 264.175C188.979 264.303 189.402 264.303 189.761 264.249C190.54 264.131 191.189 263.671 191.721 263.113C191.901 262.924 192.075 262.73 192.243 262.528C192.526 263.111 193.228 263.363 193.817 263.086C194.41 262.806 194.664 262.095 194.385 261.502C193.917 260.518 193.186 259.47 191.922 259.799C191.723 259.851 191.525 259.941 191.354 260.055C190.801 260.426 190.449 261.007 189.999 261.484C189.874 261.617 189.737 261.748 189.578 261.841C189.526 261.871 189.464 261.896 189.404 261.905C189.387 261.907 189.366 261.914 189.349 261.914C189.311 261.904 189.272 261.9 189.24 261.877C189.171 261.83 189.125 261.752 189.075 261.685C188.964 261.536 188.863 261.376 188.763 261.218C188.407 260.653 188.021 260.087 187.436 259.735C186.534 259.194 185.542 259.28 184.653 259.827C184.367 260.002 184.117 260.225 183.847 260.422C183.78 260.471 183.734 260.5 183.664 260.541C183.64 260.555 183.618 260.57 183.591 260.578C183.577 260.581 183.531 260.587 183.545 260.587C183.752 260.585 183.473 260.508 183.417 260.431C183.357 260.35 183.333 260.241 183.298 260.147C183.156 259.771 183.024 259.411 182.794 259.076C182.124 258.1 180.966 256.863 179.681 257.648C179.309 257.875 179.054 258.213 178.821 258.572C178.658 258.824 178.506 259.129 178.226 259.241C178.109 259.018 178.013 258.796 177.942 258.545C177.899 258.395 177.867 258.274 177.823 258.124C177.73 257.803 177.629 257.483 177.484 257.181C177.287 256.769 176.971 256.293 176.55 256.073C176.283 255.933 175.987 255.849 175.69 255.798C175.448 255.757 175.211 255.67 174.967 255.688C174.723 255.707 174.492 255.828 174.261 255.908C174.091 255.968 173.925 256.023 173.767 256.11C173.271 256.382 172.864 256.809 172.385 257.108C172.3 257.16 172.284 257.159 172.192 257.199C172.187 257.201 172.137 257.216 172.165 257.217C172.142 257.202 172.118 257.185 172.101 257.162C172.024 257.062 171.985 256.859 171.945 256.732C171.85 256.425 171.759 256.108 171.643 255.807C171.34 255.019 170.813 254.413 170.004 254.123C168.973 253.753 167.958 254.089 167.157 254.791C166.807 255.098 166.505 255.465 166.214 255.826C165.878 256.242 165.567 256.68 165.17 257.043C165.093 257.114 164.988 257.206 164.886 257.171C164.746 257.013 164.695 256.777 164.658 256.576C164.56 256.053 164.526 255.526 164.429 255.002C164.248 254.025 163.898 253.317 163.074 252.75C162.799 252.56 162.498 252.411 162.176 252.319C161.935 252.251 161.686 252.217 161.435 252.228C160.13 252.285 159.366 253.426 158.725 254.416C158.535 254.709 158.342 254.997 158.121 255.267C158.073 255.325 158.021 255.382 157.965 255.432C157.905 255.487 157.889 255.497 157.874 255.505C157.839 255.429 157.808 255.356 157.782 255.277C157.747 255.166 157.722 255.051 157.7 254.938C157.608 254.466 157.574 253.986 157.516 253.509C157.435 252.843 157.325 252.116 156.903 251.569C156.754 251.375 156.56 251.218 156.345 251.102C156.174 251.009 155.986 250.961 155.804 250.891C155.385 250.729 154.976 250.61 154.523 250.726C154.284 250.788 154.071 250.909 153.864 251.038C153.684 251.149 153.488 251.243 153.323 251.376C153.184 251.489 153.076 251.636 152.957 251.77C152.756 251.996 152.561 252.231 152.371 252.466C152.128 252.765 151.901 253.089 151.593 253.327C151.567 253.305 151.541 253.278 151.52 253.253C151.449 253.169 151.418 253.045 151.392 252.942C151.312 252.633 151.282 252.306 151.245 251.99C151.112 250.849 150.834 249.747 149.698 249.225C149.515 249.141 149.327 249.083 149.13 249.042C148.599 248.931 148.153 248.966 147.629 249.124C147.423 249.186 147.207 249.228 147.015 249.325C146.818 249.427 146.652 249.577 146.475 249.71C146.043 250.037 145.691 250.415 145.322 250.809C145.083 251.062 144.853 251.331 144.589 251.559C144.536 251.606 144.475 251.645 144.415 251.688C144.412 251.676 144.41 251.663 144.406 251.651C144.374 251.536 144.347 251.42 144.324 251.303C144.285 251.105 144.246 250.845 144.214 250.635C144.074 249.73 143.958 248.662 143.253 247.998C142.935 247.699 142.555 247.589 142.136 247.504C141.849 247.445 141.558 247.33 141.266 247.357C140.976 247.384 140.719 247.545 140.451 247.659C140.252 247.744 140.045 247.823 139.865 247.943C139.673 248.071 139.517 248.249 139.343 248.401C138.955 248.739 138.596 249.119 138.19 249.435C138.068 249.53 137.935 249.624 137.787 249.674C137.744 249.688 137.704 249.7 137.659 249.692C137.623 249.661 137.597 249.627 137.558 249.6C137.538 249.587 137.498 249.602 137.485 249.582C137.466 249.555 137.486 249.513 137.476 249.481C137.45 249.403 137.398 249.34 137.375 249.261C137.348 249.169 137.347 249.072 137.329 248.978C137.266 248.648 137.209 248.308 137.137 247.98C137.044 247.554 136.91 247.135 136.679 246.762C136.236 246.047 135.43 245.618 134.592 245.599C134.302 245.593 134.014 245.635 133.74 245.728C132.959 245.991 132.386 246.607 131.827 247.183C131.664 247.351 131.267 247.832 131.094 247.733C130.789 247.557 130.753 247.201 130.664 246.863C130.589 246.579 130.521 246.286 130.444 246.002C130.136 244.854 129.554 243.7 128.256 243.512C126.692 243.285 125.69 244.805 124.841 245.865C124.537 246.245 124.206 246.695 123.761 246.927C123.657 246.777 123.597 246.634 123.532 246.451C123.391 246.054 123.289 245.64 123.148 245.242C122.737 244.085 121.975 243.175 120.685 243.1C119.545 243.034 118.672 243.697 117.892 244.455C117.519 244.818 116.872 245.685 116.254 245.535C116.217 245.526 116.185 245.51 116.153 245.49C116.134 245.478 116.094 245.431 116.098 245.453C115.954 245.284 115.817 245.099 115.714 244.904C115.556 244.605 115.428 244.301 115.283 243.997C114.747 242.869 113.88 241.644 112.491 241.589C112.342 241.583 112.199 241.601 112.051 241.617C111.856 241.637 111.654 241.634 111.466 241.69C111.27 241.748 111.098 241.864 110.916 241.956C110.47 242.181 110.082 242.475 109.68 242.77C109.314 243.04 108.955 243.328 108.545 243.53C108.435 243.584 108.312 243.649 108.188 243.659C108.046 243.669 107.895 243.645 107.757 243.613C107.365 243.52 107.34 243.155 107.263 242.761C107.185 242.362 107.12 241.954 107.007 241.562C106.687 240.453 105.906 239.513 104.755 239.218C103.228 238.827 101.885 239.847 100.736 240.71C100.445 240.928 100.149 241.145 99.8382 241.333C99.501 241.537 99.2045 241.663 98.8128 241.562C98.4607 241.471 98.3344 241.153 98.2087 240.838C98.0227 240.374 97.8847 239.893 97.7233 239.42C97.2935 238.156 96.6255 237.056 95.2606 236.673C94.3058 236.405 93.3138 236.588 92.514 237.186C92.1926 237.426 91.8993 237.697 91.6169 237.982C91.4871 238.113 91.36 238.252 91.2322 238.385C90.944 238.686 90.4494 239.295 89.9596 239.227C89.1888 239.121 88.8299 237.996 88.5589 237.405C88.0128 236.215 87.3565 235.039 85.9682 234.741C85.3503 234.608 84.8065 234.671 84.2194 234.906C84.0404 234.978 83.8444 235.036 83.6792 235.135C83.5069 235.238 83.3672 235.382 83.2122 235.51C82.8243 235.832 82.5044 236.189 82.1687 236.563C81.9117 236.849 81.663 237.152 81.3721 237.405C81.317 237.454 81.2681 237.503 81.2074 237.543C81.189 237.555 81.1717 237.57 81.1524 237.579C80.9719 237.458 80.8623 237.246 80.768 237.057C80.6426 236.808 80.5292 236.545 80.4199 236.288C80.0613 235.445 79.6664 234.524 78.8086 234.082C77.9189 233.624 76.9148 233.637 76.0163 234.082C75.5921 234.292 75.2101 234.591 74.8444 234.888C74.5901 235.094 74.332 235.299 74.066 235.492C73.972 235.251 73.8492 235.029 73.6541 234.851C72.9232 234.183 72.0311 233.768 71.2005 233.249C71.069 233.167 70.9236 233.116 70.7795 233.093Z" fill="black"/>
<path d="M237.607 91.2689C237.321 91.3017 237.049 91.4382 236.856 91.6811C236.47 92.1666 236.554 92.8788 237.039 93.2649C237.262 93.4421 237.479 93.6217 237.689 93.8142C237.796 93.9121 237.901 94.0017 238 94.1072C238.102 94.2144 238.192 94.324 238.275 94.4459C238.305 94.4901 238.342 94.544 238.367 94.5923C238.358 94.602 238.349 94.6105 238.339 94.6199C238.28 94.6776 238.213 94.7262 238.147 94.7754C238.011 94.8759 237.861 94.9714 237.717 95.0593C237.583 95.1405 237.445 95.2202 237.314 95.2972C236.993 95.4862 236.67 95.674 236.362 95.8832C235.757 96.2939 235.197 96.7785 234.805 97.4031C234.296 98.2152 234.476 99.1386 234.897 99.939C235.098 100.321 235.339 100.677 235.529 101.065C235.532 101.073 235.557 101.142 235.574 101.193C235.43 101.334 235.238 101.422 235.062 101.514C234.766 101.668 234.465 101.825 234.21 102.045C233.504 102.654 233.246 103.623 233.551 104.508C233.853 105.383 234.712 105.858 235.144 106.632C235.133 106.639 235.118 106.643 235.107 106.65C235.035 106.697 234.963 106.744 234.888 106.787C234.68 106.907 234.466 107.018 234.256 107.135C233.581 107.513 232.866 107.939 232.443 108.609C232.276 108.874 232.163 109.167 232.123 109.479C232.02 110.275 232.396 110.997 232.928 111.557C233.17 111.812 233.464 112.039 233.643 112.344C233.644 112.356 233.645 112.363 233.643 112.372C233.636 112.397 233.623 112.42 233.615 112.445C233.588 112.529 233.539 112.603 233.487 112.674C233.342 112.873 233.157 113.041 232.974 113.205C232.163 113.933 231.362 114.626 231.125 115.75C230.96 116.533 231.244 117.275 231.683 117.911C231.835 118.13 232.375 118.751 232.233 119.046C232.106 119.309 231.835 119.483 231.601 119.641C231.316 119.833 231.019 120.008 230.74 120.209C230.002 120.741 229.419 121.423 229.294 122.351C229.193 123.101 229.453 123.808 229.953 124.365C230.152 124.588 230.384 124.776 230.594 124.988C230.74 125.135 230.875 125.28 230.814 125.501C230.648 126.093 230.074 126.547 229.632 126.929C228.839 127.615 227.935 128.271 227.536 129.282C227.205 130.119 227.359 130.978 227.884 131.699C228.068 131.952 228.292 132.195 228.497 132.431C228.529 132.468 228.575 132.489 228.598 132.532C228.61 132.553 228.609 132.578 228.607 132.605C228.598 132.622 228.587 132.627 228.58 132.642C228.526 132.752 228.497 132.875 228.451 132.99C228.447 133.002 228.462 132.944 228.451 132.953C228.325 133.06 228.236 133.213 228.113 133.328C227.643 133.764 227.079 134.09 226.611 134.528C226.235 134.88 225.962 135.237 225.705 135.681C225.208 136.537 225.03 137.348 225.229 138.336C225.333 138.851 225.532 139.344 225.705 139.838C225.738 139.932 225.782 140.025 225.806 140.121C225.829 140.219 225.824 140.315 225.842 140.414C225.853 140.476 225.891 140.535 225.888 140.598C225.883 140.683 225.844 140.761 225.824 140.845C225.794 140.968 225.773 141.098 225.741 141.22C225.727 141.276 225.679 141.316 225.65 141.367C225.57 141.506 225.484 141.643 225.384 141.769C225.092 142.14 224.742 142.457 224.414 142.795C223.951 143.271 223.441 143.786 223.114 144.369C223.018 144.541 222.952 144.729 222.876 144.91C222.778 145.145 222.68 145.386 222.62 145.633C222.42 146.449 222.613 147.302 223.151 147.949C223.346 148.184 223.58 148.382 223.81 148.581C224.016 148.759 224.203 148.864 224.176 149.139C224.123 149.688 223.445 150.236 223.087 150.586C222.451 151.206 221.818 151.848 221.512 152.701C221.282 153.343 221.29 154.023 221.558 154.651C221.684 154.948 221.878 155.195 222.015 155.484C222.047 155.55 222.071 155.622 222.079 155.695C222.081 155.714 222.047 155.721 222.043 155.74C222.026 155.82 222.036 155.907 222.025 155.988C222.016 156.046 221.982 156.098 221.96 156.152C221.79 156.594 221.529 156.998 221.265 157.388C220.84 158.016 220.361 158.615 219.983 159.274C219.832 159.537 219.716 159.81 219.58 160.08C219.286 160.666 219.516 161.379 220.102 161.673C220.688 161.967 221.401 161.728 221.695 161.142C221.811 160.911 221.914 160.68 222.043 160.456C222.47 159.71 223.033 159.04 223.489 158.313C223.854 157.733 224.232 157.073 224.359 156.39C224.384 156.257 224.395 156.123 224.405 155.988C224.42 155.786 224.46 155.583 224.432 155.383C224.395 155.11 224.303 154.844 224.203 154.587C224.11 154.345 223.968 154.124 223.837 153.9C223.719 153.699 223.673 153.625 223.773 153.406C223.919 153.089 224.202 152.824 224.442 152.582C224.648 152.373 224.855 152.166 225.064 151.959C225.743 151.286 226.355 150.505 226.501 149.533C226.622 148.731 226.424 147.911 225.879 147.299C225.611 146.999 225.287 146.771 225.009 146.484C224.949 146.423 224.9 146.365 224.909 146.301C224.913 146.264 224.911 146.229 224.918 146.191C224.921 146.174 224.944 146.141 224.927 146.136C225.007 145.93 225.066 145.717 225.174 145.523C225.221 145.439 225.291 145.371 225.348 145.294C225.581 144.983 225.836 144.714 226.108 144.434C226.837 143.682 227.686 142.916 228.003 141.879C228.055 141.708 228.086 141.524 228.122 141.348C228.166 141.133 228.232 140.927 228.241 140.707C228.25 140.496 228.205 140.285 228.177 140.076C228.131 139.735 228.04 139.394 227.93 139.069C227.769 138.596 227.301 137.617 227.554 137.165C227.659 136.978 227.741 136.77 227.866 136.597C227.908 136.537 227.971 136.494 228.021 136.441C228.382 136.059 228.818 135.77 229.23 135.443C229.734 135.043 230.279 134.559 230.566 133.969C230.645 133.807 230.701 133.636 230.759 133.465C230.842 133.219 230.983 132.984 230.997 132.724C231.011 132.465 230.907 132.206 230.841 131.955C230.696 131.401 230.427 131.098 230.072 130.673C229.936 130.511 229.78 130.361 229.687 130.17C229.691 130.153 229.692 130.145 229.697 130.133C229.711 130.098 229.724 130.076 229.743 130.042C229.788 129.957 229.845 129.877 229.907 129.803C230.061 129.624 230.233 129.464 230.411 129.309C230.528 129.206 230.649 129.108 230.768 129.007C231.709 128.2 232.709 127.361 233.048 126.114C233.284 125.244 233.062 124.303 232.471 123.624C232.26 123.382 232.027 123.165 231.793 122.946C231.59 122.756 231.531 122.739 231.61 122.534C231.682 122.349 231.948 122.167 232.086 122.067C232.287 121.923 232.502 121.8 232.709 121.664C233.413 121.203 234.083 120.658 234.384 119.842C234.71 118.961 234.487 118.008 234 117.233C233.938 117.135 233.874 117.044 233.807 116.95C233.691 116.784 233.556 116.62 233.45 116.446C233.416 116.39 233.386 116.336 233.368 116.272C233.362 116.253 233.367 116.228 233.368 116.208C233.369 116.197 233.377 116.176 233.368 116.18C233.417 116.07 233.449 115.951 233.514 115.851C233.546 115.802 233.594 115.767 233.633 115.723C233.899 115.424 234.197 115.167 234.494 114.899C235.039 114.406 235.557 113.847 235.785 113.132C236.074 112.224 235.843 111.366 235.226 110.651C235.024 110.416 234.782 110.215 234.567 109.992C234.512 109.934 234.458 109.874 234.412 109.808C234.4 109.792 234.391 109.785 234.384 109.772C234.442 109.716 234.505 109.667 234.567 109.616C234.637 109.56 234.712 109.501 234.787 109.451C235.025 109.292 235.278 109.16 235.529 109.021C236.314 108.587 237.155 108.13 237.396 107.19C237.651 106.201 237.117 105.333 236.471 104.627C236.273 104.409 236.063 104.206 235.867 103.986C235.821 103.933 235.753 103.826 235.693 103.766C235.722 103.737 235.75 103.704 235.785 103.683C236.164 103.458 236.57 103.297 236.92 103.024C237.456 102.607 237.828 101.993 237.845 101.303C237.85 101.11 237.83 100.942 237.79 100.754C237.665 100.161 237.324 99.6475 237.021 99.1334C236.935 98.9883 236.849 98.8398 236.783 98.6848C236.765 98.6426 236.758 98.6133 236.746 98.575C236.875 98.4006 236.998 98.2357 237.167 98.0895C237.391 97.897 237.632 97.7336 237.882 97.5768C238.72 97.0509 239.762 96.6121 240.308 95.7367C240.433 95.5357 240.529 95.318 240.582 95.0866C240.93 93.5667 239.479 92.3406 238.431 91.5071C238.188 91.314 237.892 91.2364 237.607 91.2689Z" fill="black"/>
<path d="M104.919 46.1608C104.704 46.1743 104.494 46.2323 104.279 46.3442C103.972 46.503 103.729 46.7573 103.537 47.0397C102.889 47.9945 102.975 49.1336 102.722 50.2076C102.581 50.8117 102.96 51.4214 103.564 51.5626C104.169 51.7041 104.769 51.3244 104.91 50.7203C105.068 50.0421 105.069 49.331 105.249 48.6604C105.257 48.6326 105.277 48.6068 105.286 48.5778C105.418 48.6657 105.55 48.76 105.679 48.8526C106.049 49.1175 106.418 49.3855 106.842 49.5575C107.513 49.83 108.235 49.7734 108.893 49.4936C109.218 49.3553 109.522 49.1667 109.827 48.99C110.015 48.8802 110.211 48.7515 110.431 48.7152C110.564 48.6932 110.75 48.7577 110.934 48.7975C111.016 49.0647 111.147 49.3199 111.346 49.5393C111.827 50.069 112.563 50.4519 113.269 50.5281C113.71 50.5756 114.152 50.5102 114.578 50.3998C114.953 50.3028 115.317 50.1783 115.695 50.0977C115.862 50.0623 115.935 50.096 116.071 50.1068C116.08 50.1118 116.084 50.1121 116.089 50.1159C116.118 50.1385 116.136 50.1525 116.162 50.1801C116.224 50.2463 116.276 50.3163 116.327 50.3907C116.498 50.6397 116.645 50.9081 116.812 51.1597C116.897 51.2878 116.966 51.4299 117.069 51.5444C117.272 51.7706 117.473 52.0093 117.728 52.176C117.975 52.3372 118.27 52.4186 118.552 52.5056C119.237 52.7166 119.984 52.4186 120.566 52.0753C120.928 51.8614 121.212 51.6273 121.619 51.526C121.625 51.5286 121.648 51.5183 121.683 51.526C121.804 51.5526 121.91 51.804 121.957 51.8831C121.994 51.9426 122.033 51.9965 122.067 52.0571C122.317 52.4928 122.555 52.941 122.9 53.3113C124.196 54.7 125.982 54.2898 127.533 53.6315C128.135 53.374 128.422 52.6779 128.165 52.0753C127.907 51.4726 127.202 51.1858 126.599 51.4436C126.146 51.6393 125.367 52.0058 124.85 51.8465C124.669 51.7905 124.554 51.6106 124.457 51.4618C124.284 51.1978 124.138 50.9063 123.971 50.638C123.52 49.9076 122.9 49.3261 122.021 49.1913C121.065 49.0445 120.317 49.4418 119.531 49.9422C119.382 50.0374 119.235 50.125 119.074 50.1985C119.067 50.2014 119.04 50.2114 119.028 50.2167C119.019 50.2132 119.009 50.2126 119 50.2076C118.913 50.154 118.827 49.9764 118.771 49.8871C118.599 49.6111 118.428 49.3299 118.24 49.0633C117.724 48.3291 117.116 47.8703 116.199 47.7815C116.043 47.7663 115.888 47.7382 115.732 47.7449C115.23 47.766 114.723 47.947 114.249 48.0927C114.006 48.1674 113.684 48.3015 113.425 48.2301C113.314 48.1996 113.225 48.1181 113.132 48.0469C113.131 48.0379 113.133 48.0285 113.132 48.0194C113.124 47.9371 113.116 47.8524 113.095 47.7721C113.037 47.548 112.961 47.3755 112.811 47.1956C112.352 46.6425 111.28 46.4532 110.596 46.4356C109.898 46.4177 109.284 46.687 108.691 47.0306C108.599 47.0845 108.5 47.1405 108.408 47.1956C108.234 47.299 107.969 47.5067 107.748 47.4792C107.63 47.4645 107.514 47.3755 107.419 47.3145C107.185 47.1645 106.961 46.9964 106.732 46.8385C106.194 46.4664 105.565 46.1213 104.919 46.1608ZM110.852 48.102C110.85 48.134 110.862 48.1618 110.861 48.1934C110.859 48.1802 110.854 48.1709 110.852 48.1568C110.85 48.1404 110.853 48.0853 110.852 48.102Z" fill="black"/>
<path d="M219.91 76.5197C219.292 76.4558 218.737 76.9093 218.674 77.5266C218.61 78.1439 219.064 78.6991 219.681 78.7626C223.741 79.1851 227.824 80.0385 231.509 81.8479C232.099 82.135 232.815 81.8877 233.102 81.2986C233.389 80.7094 233.142 80.0019 232.553 79.7148C228.601 77.8023 224.251 76.9626 219.91 76.5197Z" fill="black"/>
<path d="M219.26 73.169C218.639 73.1681 218.135 73.6655 218.133 74.2857C218.133 74.9063 218.639 75.411 219.26 75.4119C220.887 75.4184 222.471 75.7043 224.048 76.0896C224.685 76.2413 225.324 75.8481 225.476 75.2106C225.628 74.5731 225.235 73.9342 224.597 73.7824C222.836 73.3731 221.068 73.1678 219.26 73.169Z" fill="black"/>
<path opacity="0.986559" d="M182.591 32.1054C175.741 32.3802 169.676 36.8322 167.878 43.4764L148.607 38.5873C144.942 37.6589 141.222 39.8761 140.294 43.5403L139.506 46.6531L111.665 39.6036C107.645 38.5847 103.522 41.1403 102.464 45.3165L101.677 48.4202C96.9123 46.4049 91.6737 45.289 86.1767 45.289C64.1604 45.289 46.3055 63.1583 46.3055 85.206C46.3055 105.943 62.0982 122.978 82.2949 124.931L56.0467 228.532C54.9888 232.708 57.3911 236.915 61.4118 237.934L140.632 258.012L139.424 257.765C140.828 258.467 142.459 258.578 143.974 258.955C144.733 259.144 145.501 259.28 146.263 259.44L200.544 273.191C204.565 274.21 208.687 271.655 209.745 267.478L212.016 258.506L217.271 275.663C218.749 280.49 222.888 283.501 226.509 282.392L248.637 275.618C252.258 274.509 253.997 269.695 252.519 264.869L229.475 189.613L256.163 84.2629C257.221 80.0869 254.818 75.8793 250.798 74.8607L222.957 67.8019L223.744 64.6891C224.672 61.0249 222.455 57.3045 218.791 56.3761L199.519 51.487C201.47 43.2259 196.133 34.8127 187.471 32.6181C185.831 32.2027 184.19 32.0412 182.591 32.1054Z" fill="white" stroke="white" stroke-width="27.832" stroke-miterlimit="10" stroke-linejoin="round"/>
<path opacity="0.986559" d="M182.591 32.1054C175.741 32.3802 169.676 36.8322 167.878 43.4764L148.607 38.5873C144.942 37.6589 141.222 39.8761 140.294 43.5403L139.506 46.6531L111.665 39.6036C107.645 38.5847 103.522 41.1403 102.464 45.3165L101.677 48.4202C96.9123 46.4049 91.6737 45.289 86.1767 45.289C64.1604 45.289 46.3055 63.1583 46.3055 85.206C46.3055 105.943 62.0982 122.978 82.2949 124.931L56.0467 228.532C54.9888 232.708 57.3911 236.915 61.4118 237.934L140.632 258.012L139.424 257.765C140.828 258.467 142.459 258.578 143.974 258.955C144.733 259.144 145.501 259.28 146.263 259.44L200.544 273.191C204.565 274.21 208.687 271.655 209.745 267.478L212.016 258.506L217.271 275.663C218.749 280.49 222.888 283.501 226.509 282.392L248.637 275.618C252.258 274.509 253.997 269.695 252.519 264.869L229.475 189.613L256.163 84.2629C257.221 80.0869 254.818 75.8793 250.798 74.8607L222.957 67.8019L223.744 64.6891C224.672 61.0249 222.455 57.3045 218.791 56.3761L199.519 51.487C201.47 43.2259 196.133 34.8127 187.471 32.6181C185.831 32.2027 184.19 32.0412 182.591 32.1054Z" fill="black" stroke="black" stroke-width="2.23472" stroke-miterlimit="10" stroke-linejoin="round"/>
<path opacity="0.99882" d="M96.3621 42.5655C97.4203 38.3895 101.537 35.8299 105.558 36.8485L213.024 64.0782L244.696 72.1032C248.716 73.1218 251.118 77.3333 250.06 81.5092L203.638 264.72C202.58 268.896 198.463 271.456 194.442 270.437L55.3043 235.183C51.2836 234.164 48.8821 229.953 49.9403 225.777L96.3621 42.5655Z" fill="#1C61EE" stroke="#150B14" stroke-width="2.92969" stroke-miterlimit="10" stroke-linejoin="round"/>
<path d="M110.706 50.7041L234.147 81.9817L194.297 239.259L191.487 250.346L68.0455 219.069L110.706 50.7041Z" fill="#DBFCB8" stroke="black" stroke-width="2.92969" stroke-miterlimit="10" stroke-linejoin="round"/>
<path d="M114.585 84.3911C115.464 80.923 118.988 78.8236 122.456 79.7025L146.555 85.8085C150.023 86.6874 152.122 90.2116 151.243 93.6797L145.413 116.691C144.534 120.159 141.01 122.259 137.542 121.38L113.443 115.274C109.975 114.395 107.875 110.871 108.754 107.403L114.585 84.3911Z" stroke="black" stroke-width="2.23472" stroke-miterlimit="10" stroke-linejoin="round"/>
<path d="M103.957 126.337C104.836 122.869 108.359 120.769 111.828 121.648L135.927 127.754C139.395 128.633 141.494 132.157 140.615 135.626L134.785 158.637C133.906 162.105 130.382 164.204 126.913 163.326L102.815 157.22C99.3466 156.341 97.2472 152.817 98.1261 149.348L103.957 126.337Z" stroke="black" stroke-width="2.23472" stroke-miterlimit="10" stroke-linejoin="round"/>
<path d="M92.947 169.788C93.8259 166.32 97.3497 164.221 100.818 165.099L124.917 171.205C128.385 172.084 130.484 175.609 129.606 179.077L123.775 202.088C122.896 205.556 119.372 207.656 115.904 206.777L91.805 200.671C88.3368 199.792 86.2374 196.268 87.1163 192.8L92.947 169.788Z" stroke="black" stroke-width="2.23472" stroke-miterlimit="10" stroke-linejoin="round"/>
<path d="M159.897 100.635C160.903 97.3116 162.164 102.655 163.824 102.981C165.784 103.366 167.728 101.273 169.641 101.263C172.603 101.249 173.985 105.098 176.827 105.423C178.865 105.656 180.945 104.062 182.916 104.45C185.343 104.926 186.043 107.879 188.296 108.56C190.135 109.116 191.724 107.953 193.549 108.162C195.597 108.396 196.374 110.369 198.386 110.783C200.884 111.297 203.9 109.894 206.126 111.468" stroke="black" stroke-width="2.23472" stroke-miterlimit="10" stroke-linejoin="round"/>
<path d="M155.3 113.649C156.158 115.25 165.716 115.703 168.713 116.38C170.944 116.885 172.177 118.854 174.459 119.277C177.118 119.769 179.799 118.963 182.475 119.052C185.768 119.16 188.617 122.07 191.636 122.153C193.527 122.205 195.509 121.996 197.404 122.241C200.613 122.656 202.002 125.623 205.853 124.962" stroke="black" stroke-width="2.23472" stroke-miterlimit="10" stroke-linejoin="round"/>
<path d="M151.453 140.697C150.693 140.462 153.485 142.111 156.138 141.98C160.717 141.755 162.986 144.915 166.981 146.15C171.383 147.51 175.3 145.956 179.717 146.314C186.007 146.824 193.496 149.423 199.496 151.277" stroke="black" stroke-width="2.23472" stroke-miterlimit="10" stroke-linejoin="round"/>
<path d="M146.242 155.972C146.103 156.423 149.144 154.437 149.18 154.421C150.21 153.957 151.671 154.394 152.658 154.839C155.485 156.115 158.088 158.484 161.174 159.11C163.803 159.642 166.091 158.246 168.637 158.3C170.979 158.351 172.028 161.254 174.022 162.095C176.079 162.963 177.912 161.753 179.964 161.964C181.956 162.168 182.82 163.942 184.533 164.687C187.137 165.819 190.128 165.356 192.87 165.295C194.041 165.269 194.716 166.693 195.77 166.519" stroke="black" stroke-width="2.23472" stroke-miterlimit="10" stroke-linejoin="round"/>
<path d="M138.608 184.925C143.352 181.064 150.408 188.971 154.102 191.023C158.328 193.371 162.88 192.538 167.48 193.353C173.593 194.436 179.44 198.561 185.166 195.538" stroke="black" stroke-width="2.23472" stroke-miterlimit="10" stroke-linejoin="round"/>
<path d="M137.027 198.535C136.741 198.834 140.092 195.081 141.831 196.249C143.463 197.344 143.549 199.564 145.005 200.836C146.132 201.82 150.666 199.47 152.617 200.073C154.845 200.761 155.991 202.893 158.533 203.212C161.337 203.564 164.282 202.744 166.973 204.016C168.283 204.635 169.242 206.352 170.747 206.657C172.094 206.93 173.206 205.772 174.548 206.028C176.11 206.327 176.767 207.751 178.069 208.428C179.296 209.066 183.678 208.706 185.105 208.47" stroke="black" stroke-width="2.23472" stroke-miterlimit="10" stroke-linejoin="round"/>
<path d="M111.237 52.0387C110.702 52.034 110.164 52.2297 109.753 52.6337C108.931 53.442 108.927 54.7685 109.735 55.5909C113.836 59.742 116.604 64.8414 118.442 70.3492C119.384 73.1725 120.034 76.0759 120.566 79.0009C120.76 80.0752 121.789 80.7883 122.864 80.594C123.938 80.3995 124.651 79.3703 124.457 78.296C123.197 71.3025 121.173 64.3287 117.27 58.319C115.945 56.2788 114.411 54.3988 112.711 52.6612C112.306 52.2502 111.771 52.0433 111.237 52.0387Z" fill="#7CA15D"/>
<path d="M109.149 110.705C108.597 110.672 108.03 110.841 107.584 111.237C105.108 113.421 102.64 115.671 99.774 117.343C98.1275 118.304 96.3659 119.071 94.4549 119.275C93.2024 119.419 92.306 120.549 92.4498 121.802C92.5939 123.054 93.7242 123.96 94.9769 123.816C101.234 123.062 105.947 118.474 110.449 114.477C111.343 113.686 111.423 112.322 110.632 111.429C110.237 110.982 109.701 110.739 109.149 110.705Z" fill="#7CA15D"/>
<path d="M195.227 155.804C195.025 155.806 194.82 155.846 194.623 155.932C194.021 156.199 193.444 156.493 192.911 156.884C190.968 158.311 189.868 160.519 189.175 162.771C188.487 165.012 188.175 167.345 187.821 169.656C187.6 171.089 187.385 172.536 186.978 173.932C186.816 174.487 186.633 175.035 186.319 175.524C185.429 176.908 184.014 177.876 182.977 179.141C182.029 180.298 181.578 181.436 181.393 182.903C181.072 185.457 181.59 188.023 182.272 190.475C182.722 192.091 183.263 193.676 183.746 195.281C184.012 196.161 184.243 197.056 184.47 197.946C185.631 202.508 186.853 207.055 188.159 211.578C190.124 218.38 192.243 225.14 194.367 231.893C194.61 232.669 195.44 233.099 196.216 232.855C196.992 232.611 197.421 231.781 197.177 231.005C194.998 224.063 192.819 217.12 190.823 210.122C189.602 205.839 188.473 201.524 187.39 197.204C187.156 196.271 186.923 195.343 186.649 194.421C186.177 192.834 185.64 191.266 185.202 189.669C184.637 187.612 184.158 185.432 184.433 183.288C184.487 182.865 184.559 182.443 184.735 182.052C185.02 181.422 185.51 180.891 185.989 180.404C186.51 179.875 187.061 179.375 187.573 178.839C188.167 178.217 188.724 177.557 189.148 176.806C189.437 176.295 189.655 175.752 189.835 175.195C190.32 173.694 190.571 172.126 190.814 170.571C191.175 168.267 191.461 165.922 192.151 163.687C192.618 162.172 193.276 160.608 194.522 159.567C194.926 159.229 195.375 158.984 195.859 158.779C196.646 158.436 197.008 157.525 196.664 156.738C196.407 156.147 195.833 155.797 195.227 155.804Z" fill="#7CA15D"/>
<path d="M243.054 71.1182C242.492 71.1138 241.964 71.4399 241.727 71.988C241.411 72.719 241.746 73.5671 242.477 73.8832C243.499 74.3245 244.494 74.8287 245.37 75.5218C245.838 75.8918 246.273 76.3117 246.625 76.7945C248.133 78.8661 247.731 81.629 247.192 83.9631C247.07 84.4902 246.935 85.0166 246.79 85.5378C246.631 86.1056 246.461 86.6687 246.286 87.2315C245.594 89.4542 244.822 91.6477 244.098 93.8599C243.341 96.1714 242.631 98.5002 242.02 100.855C241.63 102.354 241.276 103.864 240.903 105.368C240.407 107.363 239.893 109.358 239.374 111.346C237.58 118.215 235.681 125.051 233.817 131.9C232.751 135.814 231.756 139.75 230.658 143.656C228.27 152.15 225.623 160.584 223.727 169.208C222.773 173.55 222.028 177.924 221.558 182.346C221.469 183.182 222.076 183.932 222.913 184.021C223.749 184.11 224.499 183.502 224.588 182.666C224.913 179.591 225.371 176.538 225.952 173.502C227.924 163.203 231.131 153.198 233.926 143.106C234.92 139.517 235.832 135.907 236.801 132.312C238.617 125.573 240.465 118.836 242.212 112.079C242.729 110.077 243.238 108.072 243.732 106.064C244.218 104.087 244.673 102.103 245.215 100.14C245.714 98.3333 246.272 96.5488 246.854 94.7664C247.252 93.5432 247.664 92.3245 248.071 91.1042C248.405 90.1029 248.729 89.1003 249.042 88.0922C250.315 83.988 251.728 78.91 248.95 75.0915C248.51 74.4871 247.993 73.9521 247.421 73.471C246.286 72.516 244.977 71.8231 243.622 71.2372C243.439 71.1583 243.241 71.1197 243.054 71.1182Z" fill="white"/>
<path d="M205.93 247.842C205.134 247.8 204.452 248.411 204.41 249.206C204.317 250.968 203.936 252.713 203.494 254.416C202.89 256.748 202.107 259.063 201.041 261.227C200.539 262.246 199.974 263.253 199.246 264.129C198.869 264.584 198.434 265.025 197.909 265.311C196.864 265.881 195.571 265.999 194.403 265.988C193.092 265.976 191.788 265.78 190.494 265.594C189.785 265.493 189.079 265.401 188.37 265.301C184.317 264.731 180.454 263.283 176.486 262.335C173.793 261.692 171.062 261.252 168.338 260.77C166.997 260.532 165.655 260.275 164.319 260.01C163.494 259.846 162.697 260.384 162.534 261.209C162.37 262.034 162.908 262.831 163.733 262.994C165.09 263.262 166.445 263.524 167.807 263.763C170.473 264.232 173.155 264.657 175.79 265.283C178.582 265.946 181.305 266.834 184.094 267.508C185.684 267.892 187.288 268.174 188.91 268.377C191.779 268.739 194.734 269.335 197.589 268.551C198.184 268.388 198.778 268.173 199.32 267.874C200.682 267.122 201.695 265.845 202.515 264.551C203.983 262.232 204.973 259.605 205.765 256.989C206.513 254.517 207.157 251.941 207.294 249.353C207.336 248.558 206.725 247.884 205.93 247.842Z" fill="white"/>
<path d="M133.374 253.491C132.781 253.471 132.202 253.798 131.937 254.37C131.583 255.133 131.915 256.04 132.678 256.393C133.1 256.585 133.516 256.76 133.96 256.897C134.89 257.184 135.855 257.328 136.807 257.519C137.587 257.676 138.357 257.86 139.133 258.032C143.392 258.976 147.728 259.493 152.033 260.184C153.618 260.438 155.194 260.735 156.766 261.063C158.489 261.421 160.268 261.414 162.003 261.703C162.729 261.824 163.802 261.99 164.374 262.537C164.953 263.083 165.86 263.061 166.406 262.482C166.953 261.903 166.93 260.986 166.351 260.44C165.407 259.555 164.145 259.17 162.9 258.929C161.806 258.718 160.693 258.625 159.586 258.517C158.927 258.453 158.259 258.392 157.608 258.27C156.716 258.104 155.835 257.893 154.944 257.721C153.6 257.461 152.248 257.234 150.897 257.016C147.323 256.438 143.73 255.958 140.195 255.167C139.134 254.929 138.075 254.669 137.009 254.461C135.968 254.26 134.924 254.088 133.96 253.628C133.769 253.54 133.572 253.498 133.374 253.491Z" fill="white"/>
<path d="M50.647 223.059C49.8059 223.07 49.135 223.756 49.1455 224.597C49.1613 225.6 49.2782 226.589 49.5574 227.555C50.9663 232.425 55.6561 235.161 60.0677 236.93C60.7635 237.208 61.466 237.469 62.1735 237.717C63.1963 238.075 64.2316 238.398 65.2679 238.715C66.3612 239.049 67.459 239.368 68.5547 239.694C69.3176 239.922 70.1212 239.496 70.3491 238.733C70.577 237.97 70.1417 237.167 69.3785 236.939C68.1269 236.564 66.8713 236.197 65.625 235.803C64.6257 235.488 63.6325 235.159 62.6496 234.796C61.8275 234.493 61.0049 234.166 60.2051 233.807C57 232.371 53.3558 230.164 52.4232 226.52C52.2589 225.878 52.1906 225.221 52.1851 224.561C52.1745 223.72 51.4881 223.049 50.647 223.059Z" fill="white"/>
<path d="M229.065 67.4287C228.472 67.4601 227.925 67.8427 227.71 68.4359C227.424 69.2267 227.834 70.0997 228.625 70.3859C229.114 70.5617 229.599 70.7516 230.09 70.9168C231.838 71.5048 233.629 71.9583 235.364 72.5832C236.529 73.003 237.611 73.5936 238.77 74.0299C241.308 74.9855 243.93 75.7666 246.533 76.5292C247.297 76.7536 248.094 76.3136 248.319 75.5495C248.543 74.7854 248.112 73.9886 247.348 73.7642C244.822 73.0197 242.282 72.2486 239.832 71.283C238.666 70.8236 237.574 70.2043 236.398 69.7634C234.646 69.1062 232.84 68.6357 231.07 68.0331C230.599 67.8728 230.127 67.6903 229.66 67.5204C229.462 67.4486 229.262 67.4185 229.065 67.4287Z" fill="white"/>
<path d="M235.684 69.2782C235.093 69.3295 234.56 69.7309 234.366 70.3309C234.106 71.1309 234.546 71.985 235.345 72.2445C237.601 72.9641 239.781 73.8597 241.983 74.7254C242.723 75.0186 243.567 74.6603 243.86 73.9197C244.153 73.1794 243.785 72.3362 243.045 72.043C241.554 71.4491 240.104 70.7712 238.614 70.1753C237.848 69.8688 237.072 69.6096 236.288 69.3515C236.089 69.2864 235.881 69.2609 235.684 69.2782Z" fill="white"/>
<path d="M96.3621 42.5655C97.4203 38.3895 101.537 35.8299 105.558 36.8485L213.024 64.0782L244.696 72.1032C248.716 73.1218 251.118 77.3333 250.06 81.5092L203.638 264.72C202.58 268.896 198.463 271.456 194.442 270.437L55.3043 235.183C51.2836 234.164 48.8821 229.953 49.9403 225.777L96.3621 42.5655Z" stroke="black" stroke-width="2.92969" stroke-miterlimit="10" stroke-linejoin="round"/>
<path d="M110.706 50.7041L234.147 81.9817L191.487 250.346L68.0455 219.069L110.706 50.7041Z" stroke="black" stroke-width="2.92969" stroke-miterlimit="10" stroke-linejoin="round"/>
<path opacity="0.892318" d="M114.585 84.3911C115.464 80.923 118.988 78.8236 122.456 79.7025L146.555 85.8085C150.023 86.6874 152.122 90.2116 151.243 93.6797L145.413 116.691C144.534 120.159 141.01 122.259 137.542 121.38L113.443 115.274C109.975 114.395 107.875 110.871 108.754 107.403L114.585 84.3911Z" fill="#6CFAC5" stroke="black" stroke-width="2.92969" stroke-miterlimit="10" stroke-linejoin="round"/>
<path opacity="0.892318" d="M103.957 126.337C104.836 122.869 108.359 120.769 111.828 121.648L135.927 127.754C139.395 128.633 141.494 132.157 140.615 135.626L134.785 158.637C133.906 162.105 130.382 164.204 126.913 163.326L102.815 157.22C99.3466 156.341 97.2472 152.817 98.1261 149.348L103.957 126.337Z" fill="#6CFAC5" stroke="black" stroke-width="2.92969" stroke-miterlimit="10" stroke-linejoin="round"/>
<path opacity="0.892318" d="M92.947 169.788C93.8259 166.32 97.3497 164.221 100.818 165.099L124.917 171.205C128.385 172.084 130.484 175.609 129.606 179.077L123.775 202.088C122.896 205.556 119.372 207.656 115.904 206.777L91.805 200.671C88.3368 199.792 86.2374 196.268 87.1163 192.8L92.947 169.788Z" fill="#6CFAC5" stroke="black" stroke-width="2.92969" stroke-miterlimit="10" stroke-linejoin="round"/>
<path d="M159.897 100.635C160.903 97.3116 162.164 102.655 163.824 102.981C165.784 103.366 167.728 101.273 169.641 101.263C172.603 101.249 173.985 105.098 176.827 105.423C178.865 105.656 180.945 104.062 182.916 104.45C185.343 104.926 186.043 107.879 188.296 108.56C190.135 109.116 191.724 107.953 193.549 108.162C195.597 108.396 196.374 110.369 198.386 110.783C200.884 111.297 203.9 109.894 206.126 111.468" stroke="black" stroke-width="2.23472" stroke-miterlimit="10" stroke-linejoin="round"/>
<path d="M155.3 113.649C156.158 115.25 165.716 115.703 168.713 116.38C170.944 116.885 172.177 118.854 174.459 119.277C177.118 119.769 179.799 118.963 182.475 119.052C185.768 119.16 188.617 122.07 191.636 122.153C193.527 122.205 195.509 121.996 197.404 122.241C200.613 122.656 202.002 125.623 205.853 124.962" stroke="black" stroke-width="2.23472" stroke-miterlimit="10" stroke-linejoin="round"/>
<path d="M151.453 140.697C150.693 140.462 153.485 142.111 156.138 141.98C160.717 141.755 162.986 144.915 166.981 146.15C171.383 147.51 175.3 145.956 179.717 146.314C186.007 146.824 193.496 149.423 199.496 151.277" stroke="black" stroke-width="2.23472" stroke-miterlimit="10" stroke-linejoin="round"/>
<path d="M146.242 155.972C146.103 156.423 149.144 154.437 149.18 154.421C150.21 153.957 151.671 154.394 152.658 154.839C155.485 156.115 158.088 158.484 161.174 159.11C163.803 159.642 166.091 158.246 168.637 158.3C170.979 158.351 172.028 161.254 174.022 162.095C176.079 162.963 177.912 161.753 179.964 161.964C181.956 162.168 182.82 163.942 184.533 164.687C187.137 165.819 190.128 165.356 192.87 165.295C194.041 165.269 194.716 166.693 195.77 166.519" stroke="black" stroke-width="2.23472" stroke-miterlimit="10" stroke-linejoin="round"/>
<path d="M138.608 184.925C143.352 181.064 150.408 188.971 154.102 191.023C158.328 193.371 162.88 192.538 167.48 193.353C173.593 194.436 179.44 198.561 185.166 195.538" stroke="black" stroke-width="2.23472" stroke-miterlimit="10" stroke-linejoin="round"/>
<path d="M137.027 198.535C136.741 198.834 140.092 195.081 141.831 196.249C143.463 197.344 143.549 199.564 145.005 200.836C146.132 201.82 150.666 199.47 152.617 200.073C154.845 200.761 155.991 202.893 158.533 203.212C161.337 203.564 164.282 202.744 166.973 204.016C168.283 204.635 169.242 206.352 170.747 206.657C172.094 206.93 173.206 205.772 174.548 206.028C176.11 206.327 176.767 207.751 178.069 208.428C179.296 209.066 183.678 208.706 185.105 208.47" stroke="black" stroke-width="2.23472" stroke-miterlimit="10" stroke-linejoin="round"/>
<path d="M40.2053 82.455C40.2053 60.4073 58.0529 42.5342 80.0692 42.5342C102.085 42.5342 119.933 60.4073 119.933 82.455C119.933 104.502 102.085 122.375 80.0692 122.375C58.0529 122.375 40.2053 104.502 40.2053 82.455Z" fill="#7C65D0" stroke="black" stroke-width="2.92969" stroke-miterlimit="10" stroke-linejoin="round"/>
<path d="M49.2949 82.8312C49.2949 65.8108 63.073 52.0132 80.0692 52.0132C97.0652 52.0132 110.843 65.8108 110.843 82.8312C110.843 99.8515 97.0652 113.649 80.0692 113.649C63.073 113.649 49.2949 99.8515 49.2949 82.8312Z" fill="#58EEFB" stroke="black" stroke-width="2.92969" stroke-miterlimit="10" stroke-linejoin="round"/>
<path d="M60.1318 64.6724C59.845 64.6938 59.5652 64.8309 59.3628 65.0662C58.9579 65.5364 59.0115 66.2451 59.4817 66.65C65.2477 71.6181 71.0124 76.5918 76.7669 81.5732C77.2184 81.9637 77.6707 82.3543 78.1219 82.7451C78.4606 83.038 78.7904 83.3307 79.1291 83.624C79.3547 83.8191 79.5809 84.0145 79.8065 84.2099C79.9814 84.3608 80.3092 84.6447 80.4841 84.7959C80.724 85.0033 81.0419 85.3223 81.3355 85.455C81.7298 85.6329 82.1766 85.6103 82.544 85.3724C82.6242 85.3206 82.6969 85.2582 82.7637 85.1893C83.2081 84.7314 83.1328 83.7119 83.1574 83.1294C83.1639 82.9733 83.1691 82.8186 83.1756 82.6625C83.1888 82.3502 83.2084 82.0411 83.2213 81.7288C83.2345 81.4165 83.245 81.1071 83.2582 80.7948C83.4149 77.0471 83.5629 73.3001 83.7158 69.5521C83.7422 68.8973 83.2354 68.3424 82.5806 68.3164C81.9258 68.29 81.3709 68.7965 81.3445 69.4513C81.1899 73.3557 81.0366 77.2566 80.8869 81.161C80.8758 81.4478 80.8611 81.7349 80.8503 82.0217C80.5567 81.773 80.2632 81.5211 79.9714 81.2709C78.2713 79.8145 76.5718 78.3602 74.8717 76.9039C70.2252 72.9233 65.5843 68.9383 60.9466 64.9472C60.7116 64.7448 60.4187 64.651 60.1318 64.6724Z" fill="black"/>
<path d="M134.189 40.7903C135.118 37.1261 138.841 34.9084 142.505 35.8368L212.689 53.62C216.353 54.5484 218.571 58.2714 217.642 61.9356L213.235 79.3271C212.307 82.9913 208.584 85.209 204.92 84.2806L134.736 66.4974C131.072 65.569 128.854 61.846 129.783 58.1821L134.189 40.7903Z" fill="#58EEFB" stroke="black" stroke-width="2.92969" stroke-miterlimit="10" stroke-linejoin="round"/>
<path d="M161.703 40.9507C163.815 32.6134 172.617 27.6509 181.362 29.8668C190.108 32.0826 195.485 40.6375 193.372 48.9748C191.259 57.3124 182.457 62.2747 173.712 60.059C164.967 57.843 159.59 49.288 161.703 40.9507Z" fill="#6CFAC5" stroke="black" stroke-width="2.92969" stroke-miterlimit="10" stroke-linejoin="round"/>
<path d="M188.167 185.939L192.151 161.028C193.079 155.228 196.888 154.177 200.658 158.682L215.986 176.994L188.167 185.939Z" fill="#F7E698" stroke="black" stroke-width="2.92969" stroke-miterlimit="10" stroke-linejoin="round"/>
<path d="M185.561 189.256C184.083 184.43 185.82 179.618 189.441 178.51L211.57 171.735C215.191 170.626 219.325 173.64 220.802 178.467L246.412 262.116C247.89 266.943 246.152 271.754 242.531 272.863L220.402 279.638C216.781 280.746 212.648 277.732 211.17 272.906L185.561 189.256Z" fill="#BFD777" stroke="black" stroke-width="2.92969" stroke-miterlimit="10" stroke-linejoin="round"/>
<path d="M186.269 188.139C185.193 184.623 187.039 180.939 190.393 179.913L210.892 173.637C214.246 172.61 217.838 174.628 218.914 178.144L237.572 239.088C238.649 242.604 236.803 246.287 233.448 247.314L212.95 253.59C209.596 254.617 206.004 252.598 204.927 249.082L186.269 188.139Z" fill="#6CFAC5"/>
<path d="M204.546 251.109C204.382 250.574 207.178 249.244 210.79 248.138L232.866 241.38C236.478 240.274 239.539 239.811 239.703 240.345L242.54 249.61C242.704 250.145 239.907 251.475 236.295 252.581L214.219 259.339C210.607 260.445 207.546 260.909 207.382 260.374L204.546 251.109Z" fill="#1C61EE" stroke="black" stroke-width="2.92969" stroke-miterlimit="10" stroke-linejoin="round"/>
<path d="M237.424 76.6665C237.026 76.6832 236.634 76.8446 236.343 77.1608C235.762 77.7933 235.803 78.7859 236.435 79.3671C237.145 80.0058 237.69 80.786 238.001 81.6927C238.107 82.0029 238.206 82.3317 238.202 82.663C238.199 82.9607 238.095 83.2554 238.028 83.5419C237.947 83.8894 237.893 84.2398 237.863 84.5948C237.794 85.4052 238.399 86.1183 239.209 86.188C240.019 86.2574 240.732 85.6615 240.802 84.8512C240.843 84.3807 240.995 83.9398 241.086 83.478C241.155 83.1241 241.182 82.7764 241.177 82.4157C241.17 81.8635 241.049 81.3048 240.894 80.7772C240.466 79.329 239.641 78.0945 238.541 77.0691C238.224 76.7784 237.822 76.6495 237.424 76.6665Z" fill="black"/>
<path d="M242.633 76.0348C242.029 75.9911 241.425 76.3035 241.131 76.8771C240.741 77.642 241.044 78.5737 241.809 78.9645C242.445 79.2639 242.461 79.8021 242.587 80.466C242.66 80.8462 242.742 81.223 242.761 81.6103C242.786 82.1259 242.731 82.6445 242.624 83.1484C242.585 83.33 242.546 83.5242 242.477 83.698C242.191 84.4594 242.576 85.307 243.338 85.5929C244.1 85.8788 244.947 85.4939 245.233 84.7325C245.774 83.282 245.837 81.6575 245.618 80.1454C245.443 78.9375 245.169 77.734 244.235 76.8771C243.931 76.5982 243.592 76.391 243.228 76.1997C243.037 76.1019 242.834 76.0494 242.633 76.0348Z" fill="black"/>
<path d="M189.249 185.129C189.059 185.108 188.858 185.126 188.663 185.184C187.883 185.415 187.442 186.235 187.674 187.015C188.037 188.256 188.342 189.516 188.699 190.759C188.944 191.583 189.808 192.048 190.631 191.803C191.454 191.558 191.92 190.695 191.675 189.871C191.295 188.634 190.868 187.411 190.494 186.172C190.32 185.588 189.819 185.192 189.249 185.129Z" fill="black"/>
<path d="M193.488 183.637C193.296 183.633 193.1 183.662 192.911 183.737C192.155 184.039 191.795 184.895 192.096 185.651C192.552 186.809 192.937 187.987 193.359 189.157C193.659 189.963 194.55 190.372 195.355 190.073C196.16 189.773 196.57 188.882 196.271 188.077C195.818 186.892 195.299 185.736 194.824 184.561C194.598 183.995 194.061 183.649 193.488 183.637Z" fill="black"/>
<path d="M198.038 182.629C197.846 182.628 197.658 182.662 197.47 182.739C196.718 183.05 196.354 183.91 196.664 184.662C197.179 185.925 197.597 187.227 198.01 188.525C198.278 189.342 199.153 189.782 199.969 189.514C200.786 189.247 201.235 188.371 200.967 187.555C200.508 186.19 199.947 184.874 199.393 183.545C199.16 182.981 198.612 182.635 198.038 182.629Z" fill="black"/>
<path d="M202.185 180.844C201.994 180.834 201.799 180.857 201.608 180.926C200.844 181.205 200.451 182.048 200.729 182.812C201.152 183.99 201.52 185.194 201.938 186.374C202.232 187.181 203.117 187.593 203.924 187.298C204.732 187.004 205.153 186.11 204.858 185.303C204.419 184.131 203.928 182.979 203.494 181.805C203.285 181.232 202.758 180.873 202.185 180.844Z" fill="black"/>
<path d="M207.019 179.993C206.828 179.982 206.634 180.015 206.442 180.084C205.678 180.361 205.277 181.205 205.554 181.97C205.983 183.172 206.358 184.392 206.781 185.596C207.074 186.403 207.969 186.822 208.777 186.53C209.585 186.237 210.003 185.341 209.711 184.534C209.266 183.338 208.768 182.161 208.328 180.963C208.121 180.39 207.592 180.023 207.019 179.993Z" fill="black"/>
<path d="M211.038 178.875C210.847 178.875 210.649 178.916 210.461 178.995C209.712 179.31 209.359 180.167 209.674 180.917C210.138 182.303 209.964 181.774 210.141 182.309C210.28 182.729 209.863 181.467 209.729 181.046C209.716 181.005 209.758 181.125 209.775 181.164C209.79 181.201 209.805 181.237 209.821 181.274C209.884 181.427 209.952 181.578 210.013 181.732C210.176 182.143 210.283 182.551 210.397 182.977C210.425 183.081 210.46 183.176 210.489 183.279C210.507 183.343 210.565 183.534 210.544 183.472C210.252 182.622 210.537 183.472 210.599 183.691C210.842 184.515 211.716 184.987 212.54 184.744C213.364 184.501 213.826 183.637 213.583 182.812C213.434 182.326 213.298 181.829 213.107 181.357C212.891 180.821 212.62 180.314 212.393 179.782C212.157 179.22 211.612 178.877 211.038 178.875Z" fill="black"/>
<path d="M214.984 177.511C214.793 177.502 214.598 177.524 214.407 177.594C213.643 177.872 213.25 178.725 213.529 179.489C213.952 180.667 214.319 181.861 214.737 183.041C215.031 183.848 215.926 184.26 216.733 183.966C217.54 183.672 217.952 182.777 217.658 181.97C217.218 180.798 216.727 179.647 216.293 178.473C216.084 177.9 215.557 177.54 214.984 177.511Z" fill="black"/>
<path d="M235.437 258.215C235.235 258.208 235.025 258.24 234.824 258.316C229.126 260.486 223.51 262.885 217.639 264.56C216.857 264.782 216.4 265.599 216.623 266.382C216.845 267.164 217.663 267.621 218.445 267.398C224.401 265.711 230.145 263.406 235.931 261.227C236.735 260.923 237.133 260.017 236.829 259.213C236.6 258.611 236.043 258.239 235.437 258.215Z" fill="black"/>
<path d="M238.101 264.34C237.9 264.326 237.691 264.353 237.488 264.422C231.71 266.422 225.914 268.356 220.102 270.254C219.328 270.506 218.907 271.34 219.159 272.113C219.411 272.886 220.244 273.308 221.017 273.056C226.849 271.163 232.702 269.345 238.504 267.361C239.316 267.082 239.745 266.196 239.465 265.384C239.256 264.774 238.706 264.382 238.101 264.34Z" fill="black"/>
<path d="M212.576 250.983C211.931 250.951 211.234 251.349 210.956 251.935C210.684 252.506 210.734 253.113 211.011 253.665C211.334 254.309 211.934 254.915 212.65 255.084C213.047 255.178 213.465 254.984 213.858 254.874C213.946 254.849 214.001 254.77 214.069 254.709C214.292 254.505 214.45 254.246 214.535 253.958C214.543 253.935 214.531 253.959 214.563 253.226C214.535 253.057 214.465 252.902 214.389 252.759C214.382 252.713 214.356 252.55 214.325 252.438C214.245 252.151 214.129 251.86 213.931 251.633C213.824 251.509 213.711 251.383 213.574 251.294C213.405 251.184 213.217 251.098 213.025 251.038C212.882 250.993 212.726 250.99 212.576 250.983Z" fill="black"/>
<path d="M223.297 248.291C223.096 248.277 222.887 248.295 222.684 248.365C222.41 248.486 222.132 248.608 221.86 248.731C221.09 248.993 220.682 249.828 220.944 250.598C221.206 251.369 222.042 251.785 222.812 251.523C223.103 251.454 223.391 251.383 223.682 251.312C224.495 251.036 224.929 250.157 224.652 249.344C224.445 248.734 223.902 248.335 223.297 248.291Z" fill="black"/>
<path d="M233.963 245.114C233.159 244.991 232.411 245.537 232.288 246.341C232.211 246.652 232.134 246.963 232.059 247.275C231.928 248.124 232.51 248.921 233.359 249.051C234.208 249.181 235.005 248.6 235.135 247.751C235.157 247.431 235.179 247.109 235.199 246.79C235.322 245.986 234.767 245.238 233.963 245.114Z" fill="black"/>
<path d="M55.7739 221.283C54.9615 221.243 54.2663 221.872 54.2268 222.684C54.133 224.645 54.818 226.862 56.1586 228.305C57.249 229.479 58.7344 230.233 60.2142 230.795C60.8309 231.03 61.4678 231.243 62.1094 231.4C62.9446 231.601 63.7849 231.09 63.9861 230.255C64.1874 229.42 63.668 228.58 62.8327 228.378C62.8488 228.383 62.8031 228.373 62.7867 228.369C62.7762 228.367 62.77 228.363 62.7595 228.36C62.7132 228.348 62.6587 228.336 62.613 228.324C62.5157 228.297 62.4357 228.27 62.3382 228.241C61.9916 228.139 61.6515 228.029 61.3128 227.902C60.2707 227.514 59.1407 227.031 58.3465 226.227C57.769 225.642 57.4441 224.853 57.2845 224.057C57.2317 223.794 57.2021 223.528 57.184 223.261C57.1767 223.157 57.1758 223.053 57.1746 222.949C57.1743 222.925 57.1743 222.886 57.1746 222.858C57.1746 222.856 57.1752 222.82 57.1746 222.83C57.2145 222.018 56.5863 221.323 55.7739 221.283Z" fill="black"/>
<path d="M60.2326 217.419C59.4208 217.471 58.807 218.173 58.8592 218.985C58.9749 220.754 59.6405 222.688 60.9832 223.892C62.3587 225.125 64.4769 225.642 66.2933 225.714C67.152 225.744 67.8741 225.071 67.9046 224.212C67.9351 223.354 67.2618 222.631 66.4031 222.601C66.4034 222.601 66.3507 222.603 66.3117 222.601C66.2865 222.6 66.2634 222.594 66.2385 222.592C66.123 222.584 66.0056 222.577 65.8904 222.565C65.6039 222.533 65.3218 222.493 65.0391 222.436C64.1364 222.254 63.1336 221.962 62.5764 221.173C62.2506 220.712 62.0607 220.163 61.9354 219.616C61.8888 219.412 61.8524 219.201 61.8255 218.994C61.8193 218.945 61.812 218.905 61.8073 218.856C61.805 218.835 61.7939 218.771 61.7982 218.792C61.7461 217.981 61.0441 217.367 60.2326 217.419Z" fill="black"/>
<path d="M81.7383 55.5819C80.9303 55.4896 80.1917 56.0738 80.0994 56.8818C80.0071 57.6901 80.5913 58.4193 81.3996 58.5115C82.7889 58.6706 84.1661 59.0779 85.5012 59.4728C86.5931 59.7959 87.6747 60.1466 88.742 60.5439C89.2629 60.7378 89.7905 60.9382 90.2895 61.1849C90.6498 61.363 90.9715 61.6041 91.3055 61.8256C91.7625 62.1288 92.2154 62.4344 92.6695 62.7411C93.8259 63.5219 95.0024 64.3076 96.0662 65.2132C96.7746 65.8161 97.4092 66.4932 98.0531 67.1632C98.635 67.7688 99.2177 68.3629 99.8109 68.9576C100.418 69.565 101.41 69.5653 102.017 68.9576C102.625 68.35 102.625 67.3677 102.017 66.7604C100.661 65.4092 99.3867 63.9405 97.9066 62.723C96.6882 61.7207 95.3619 60.8562 94.043 59.9946C93.5543 59.6755 93.0598 59.3582 92.569 59.0424C92.25 58.8373 91.94 58.6384 91.5984 58.4749C90.7146 58.0519 89.7791 57.7322 88.8519 57.422C87.8473 57.0857 86.8327 56.7737 85.8123 56.488C84.4767 56.1142 83.1205 55.7395 81.7383 55.5819Z" fill="black"/>
<path d="M101.966 72.7186C101.966 72.3485 102.38 72.0488 102.891 72.0488C103.402 72.0488 103.816 72.3485 103.816 72.7186C103.816 73.0883 103.402 73.388 102.891 73.388C102.38 73.388 101.966 73.0883 101.966 72.7186Z" fill="black" stroke="black" stroke-width="2.92969" stroke-miterlimit="10" stroke-linejoin="round"/>
<path d="M88.3482 46.7743C87.7816 46.8657 87.2944 47.2896 87.1491 47.8823C86.9555 48.6721 87.4395 49.4646 88.2293 49.6582C89.8913 50.064 91.5214 50.7074 93.0817 51.3979C95.9206 52.6539 98.6291 54.2552 100.992 56.2776C103.392 58.3322 105.443 60.7749 107.318 63.3088C108.763 65.2623 110.146 67.2979 111.328 69.4246C111.747 70.1743 112.693 70.4479 113.443 70.0287C114.193 69.6094 114.466 68.6546 114.047 67.9046C112.792 65.6661 111.339 63.5256 109.808 61.4684C107.788 58.7529 105.539 56.1528 102.942 53.9705C100.247 51.7061 97.1563 49.9193 93.924 48.5415C92.3098 47.8533 90.6419 47.221 88.9342 46.8018C88.7367 46.7535 88.5372 46.7438 88.3482 46.7743Z" fill="white"/>
<path d="M46.0219 68.1733L47.719 71.7376L43.6878 75.7688L46.4886 79.2062L44.197 82.3463L46.4461 85.9955L43.9424 89.1358L46.9128 92.1484L46.8706 98.1742L51.8353 101.611L52.3869 105.473L56.3757 107L58.7944 112.008L63.2502 111.498L64.6503 115.53L69.3606 115.318" stroke="black" stroke-width="1.77586" stroke-miterlimit="10" stroke-linejoin="round"/>
<path d="M139.884 40.0454C139.226 39.9391 138.607 40.3856 138.501 41.0433C138.301 42.2518 138.056 43.4515 137.851 44.6597C137.739 45.3543 138.209 46.003 138.904 46.1152C139.598 46.2274 140.247 45.7572 140.36 45.0622C140.546 43.8514 140.691 42.6379 140.881 41.4277C140.988 40.77 140.541 40.1515 139.884 40.0454Z" fill="black"/>
<path d="M137.833 48.4772C137.349 48.3826 136.884 48.6981 136.789 49.1821C136.469 50.799 136.114 52.4089 135.791 54.0252C135.691 54.5364 136.022 55.033 136.533 55.1332C137.044 55.2331 137.54 54.9026 137.64 54.3914C137.95 52.7724 138.225 51.1482 138.538 49.5299C138.632 49.0462 138.316 48.5718 137.833 48.4772Z" fill="black"/>
<path d="M136.075 57.7241C135.594 57.6139 135.114 57.9119 135.004 58.3923C134.739 59.5314 134.439 60.6602 134.171 61.7984C134.054 62.3058 134.377 62.817 134.885 62.9333C135.392 63.0499 135.894 62.7271 136.011 62.2194C136.265 61.0783 136.485 59.9357 136.743 58.7954C136.853 58.3147 136.555 57.8342 136.075 57.7241Z" fill="black"/>
<path d="M213.831 57.9527C213.657 57.9676 213.492 58.0403 213.354 58.1451C213.031 58.3909 212.926 58.8418 212.75 59.1887C212.613 59.4588 212.663 59.7459 212.796 59.9944C212.553 61.3344 212.285 62.6756 212.027 64.0136C211.93 64.5254 212.266 65.0156 212.778 65.1122C213.289 65.2089 213.789 64.8732 213.885 64.3617C214.16 62.8851 214.46 61.4159 214.682 59.9302C214.735 59.5734 214.757 59.3727 214.801 59.015C214.834 58.7422 214.773 58.4712 214.591 58.2641C214.462 58.1185 214.309 58.0236 214.124 57.9711C214.101 57.9647 214.062 57.9494 214.05 57.962C214.051 57.9591 214.042 57.9638 214.041 57.962C214.034 57.9468 213.991 57.9535 213.968 57.9527C213.921 57.9515 213.877 57.9489 213.831 57.9527Z" fill="black"/>
<path d="M211.816 67.4378C211.335 67.3314 210.86 67.6338 210.754 68.1151C210.467 69.4027 210.139 70.6827 209.848 71.9694C209.736 72.478 210.063 72.9834 210.571 73.0956C211.08 73.2078 211.576 72.8809 211.688 72.3723C211.966 71.0826 212.213 69.7886 212.494 68.4995C212.6 68.0182 212.298 67.5438 211.816 67.4378Z" fill="black"/>
<path d="M209.793 75.2286C209.315 75.1073 208.834 75.3918 208.713 75.8696C208.436 76.9445 208.123 78.018 207.843 79.0923C207.715 79.5971 208.016 80.1083 208.521 80.2366C209.025 80.365 209.546 80.0547 209.674 79.5499C209.941 78.4724 210.173 77.3858 210.443 76.3091C210.565 75.8313 210.271 75.3502 209.793 75.2286Z" fill="black"/>
<path d="M186.127 36.3282C185.898 36.3302 185.668 36.4178 185.495 36.5936C185.149 36.9454 185.152 37.5115 185.504 37.8572C186.491 38.8275 187.373 40.0336 187.894 41.3177C188.3 42.3217 188.443 43.4265 188.443 44.5037C188.443 44.8758 188.435 45.2611 188.379 45.6299C188.31 46.1461 188.668 46.6234 189.185 46.6919C189.701 46.7605 190.178 46.3934 190.247 45.8772C190.459 44.2377 190.297 42.4597 189.706 40.9149C189.101 39.3302 187.97 37.7743 186.758 36.5845C186.582 36.4117 186.355 36.3261 186.127 36.3282Z" fill="black"/>
<path d="M188.708 47.7359C188.319 47.7717 188.061 48.0169 187.903 48.3582C187.865 48.4399 187.828 48.5228 187.793 48.6055C187.784 48.6274 187.743 48.6629 187.765 48.6696C188.417 48.8595 187.768 48.6749 187.738 48.7429C187.54 49.2242 187.769 49.7712 188.251 49.9695C188.368 50.0182 188.488 50.0428 188.608 50.0428C188.611 50.0431 188.614 50.0431 188.617 50.0428C188.722 50.0747 188.812 50.1535 188.928 50.1435C189.42 50.1019 189.776 49.6645 189.734 49.1732C189.597 49.1433 189.69 49.163 189.596 49.1457C189.606 49.1167 189.623 49.0812 189.624 49.0725C189.625 49.0695 189.6 49.1067 189.578 49.1366C189.04 49.0393 188.994 49.0909 188.736 48.9535C188.463 48.8085 189.239 49.0244 189.624 49.0725C189.655 49.0763 189.709 49.0894 189.734 49.0906C189.759 49.0921 189.726 49.0335 189.725 49.0083C189.724 48.9854 189.725 48.9673 189.725 48.9441C189.723 48.8864 189.723 48.8281 189.725 48.7704C189.733 48.456 189.642 48.1625 189.395 47.9557C189.375 47.939 189.158 47.7781 189.139 47.7907C189.139 47.7907 189.13 47.791 189.129 47.7907C189.122 47.7866 189.066 47.7658 189.02 47.7541C188.917 47.7283 188.813 47.726 188.708 47.7359ZM189.368 49.3745C189.35 49.3894 189.332 49.4076 189.313 49.4205C189.296 49.4316 189.275 49.4287 189.258 49.4387C188.929 49.3991 188.546 49.3455 188.718 49.393C188.926 49.4504 189.15 49.4026 189.368 49.3745Z" fill="black"/>
<path d="M120.862 106.837C120.862 106.837 127.898 93.1839 131.204 93.7974C134.51 94.4106 134.084 109.291 134.084 109.291" stroke="black" stroke-width="4.60474" stroke-miterlimit="10" stroke-linejoin="round"/>
<path d="M124.237 100.542L133.505 102.913" stroke="black" stroke-width="4.60474" stroke-miterlimit="10" stroke-linejoin="round"/>
<path d="M113.507 134.857L110.445 148.381C110.445 148.381 112.721 150.477 115.443 151.277C118.037 152.039 121.075 151.531 121.397 150.61C124.237 142.487 114.065 141.256 114.065 141.256C114.065 141.256 124.237 145.975 123.784 137.853C123.746 137.165 122.089 133.978 119.933 133.461C117.067 132.774 113.507 134.857 113.507 134.857Z" stroke="black" stroke-width="4.60474" stroke-miterlimit="10" stroke-linejoin="round"/>
<path d="M116.409 183.352C116.409 183.352 114.156 176.402 110.092 176.903C106.026 177.405 101.118 180.893 100.149 185.357C99.1796 189.821 103.045 192.787 106.216 194.759C109.386 196.732 112.83 193.246 112.83 193.246" stroke="black" stroke-width="4.60474" stroke-miterlimit="10" stroke-linejoin="round"/>
<path d="M86.6637 125.802C85.1915 125.968 83.7372 126.28 82.2601 126.407C81.1187 126.505 79.9746 126.482 78.9 126.05C78.336 125.823 77.6985 126.099 77.4721 126.663C77.2453 127.227 77.5122 127.865 78.0762 128.091C80.9487 129.244 83.9678 128.418 86.9109 128.11C87.5493 128.04 88.0151 127.466 87.9457 126.828C87.876 126.19 87.3021 125.733 86.6637 125.802Z" fill="black"/>
<path d="M77.9572 129.684C77.3493 129.673 76.8428 130.157 76.831 130.765C76.8193 131.372 77.3036 131.879 77.9115 131.891C80.613 131.947 83.3124 132.049 86.0139 132.111C86.6558 132.123 87.1825 131.608 87.1948 130.966C87.2071 130.324 86.7015 129.797 86.0596 129.785C83.3578 129.741 80.659 129.732 77.9572 129.684Z" fill="black"/>
</g>
<defs>
<clipPath id="clip0_820_3481">
<rect width="300" height="300" fill="white"/>
</clipPath>
</defs>
</svg>
