<svg width="250" height="250" viewBox="0 0 250 250" fill="none" xmlns="http://www.w3.org/2000/svg">
<g clip-path="url(#clip0_850_47)">
<path d="M125.415 239.921C124.758 239.921 124.118 239.835 123.477 239.644C110.586 235.89 98.7504 230.093 88.2644 222.445C68.0018 207.633 58.0349 189.862 47.4797 171.018C40.8697 159.217 35.2633 146.81 30.8336 134.162C28.3073 126.946 22.0779 107.289 18.9114 80.9009C17.4233 68.4596 16.7657 55.8107 16.9907 43.3174C17.0253 41.2237 18.0116 39.2511 19.6727 37.9533C20.9013 37.0016 22.3894 36.4998 23.9121 36.4998C24.4485 36.4998 25.0023 36.569 25.5387 36.6902C31.4738 38.1264 37.5301 38.8531 43.5345 38.8531C44.3304 38.8531 45.161 38.8531 45.9916 38.8185C51.9959 38.6282 59.9902 37.7976 79.1107 30.4262C93.144 25.0275 107.056 18.4348 120.501 10.8559C121.557 10.2675 122.733 9.95605 123.91 9.95605C125.19 9.95605 126.454 10.3021 127.578 11.0116C143.619 21.065 161.043 28.4017 179.368 32.8315C192.796 36.0845 206.621 37.7284 220.482 37.7284C222.402 37.7284 224.236 37.6938 225.967 37.6419C226.036 37.6419 226.105 37.6419 226.174 37.6419C227.957 37.6419 229.687 38.334 230.967 39.5799C232.317 40.8776 233.079 42.6426 233.096 44.5114C233.217 59.3233 232.075 74.239 229.687 88.8606C225.257 116.148 217.471 137.397 211.743 150.427C202.538 171.295 192.121 194.932 168 215.575C156.233 225.646 142.754 233.675 127.942 239.454C127.128 239.766 126.28 239.921 125.433 239.921H125.415Z" fill="black"/>
<path d="M123.875 16.8943C135.849 24.3868 154.018 33.8519 177.707 39.5794C194.059 43.5419 208.698 44.6666 220.447 44.6666C222.437 44.6666 224.34 44.632 226.157 44.5801C226.244 55.7064 225.638 70.5356 222.852 87.7527C217.869 118.363 208.577 140.425 205.393 147.623C196.308 168.232 186.393 190.692 163.483 210.297C149.364 222.375 135.244 229.158 125.415 232.982C116.573 230.404 104.53 225.732 92.3481 216.838C73.2968 202.926 63.7278 185.847 53.5187 167.626C45.6109 153.524 40.5583 140.996 37.3744 131.86C35.9555 127.811 29.1379 107.963 25.7983 80.0699C24.0333 65.3791 23.7564 52.834 23.9122 43.4208C28.5841 44.5455 35.3672 45.7741 43.5345 45.7741C44.417 45.7741 45.2995 45.7741 46.2166 45.7222C53.8648 45.4799 62.8454 44.0956 81.5852 36.88C92.5211 32.6579 107.16 26.3248 123.875 16.877M123.875 3.03411C121.539 3.03411 119.186 3.62243 117.075 4.81638C103.942 12.2223 90.3235 18.6593 76.6018 23.9542C58.4848 30.9276 51.1827 31.7062 45.7494 31.8793C44.988 31.8966 44.2439 31.9139 43.5172 31.9139C38.0492 31.9139 32.5467 31.2563 27.1306 29.9413C26.0578 29.6817 24.9677 29.5606 23.8776 29.5606C20.8494 29.5606 17.8559 30.5642 15.3988 32.4503C12.0765 35.0285 10.1039 38.9564 10.0347 43.1612C9.8097 55.9659 10.4845 68.9263 12.0073 81.6964C15.2603 108.742 21.6627 128.97 24.2582 136.41C28.8264 149.44 34.5885 162.21 41.4061 174.375C51.8575 193.028 62.6723 212.304 84.1461 227.999C95.2724 236.131 107.852 242.274 121.505 246.254C122.768 246.617 124.083 246.808 125.381 246.808C127.094 246.808 128.79 246.496 130.416 245.856C145.955 239.8 160.092 231.373 172.464 220.783C197.779 199.119 208.542 174.703 218.042 153.178C223.942 139.785 231.937 117.948 236.487 89.9329C238.927 74.9307 240.104 59.617 239.983 44.4244C239.948 40.7041 238.425 37.1396 235.726 34.5613C233.148 32.0869 229.704 30.7026 226.14 30.7026C226.001 30.7026 225.846 30.7026 225.707 30.7026C223.96 30.7545 222.177 30.7891 220.43 30.7891C207.123 30.7891 193.851 29.2145 180.96 26.0825C163.362 21.8259 146.63 14.766 131.212 5.11056C128.963 3.70896 126.419 2.99951 123.858 2.99951L123.875 3.03411Z" fill="white"/>
<path d="M124.256 219.572C132.354 214.623 143.411 206.785 154.416 195.036C167.74 180.812 174.644 167.644 181.341 154.856C185.736 146.464 193.903 129.628 200.184 106.787C204.458 91.2138 206.587 77.492 207.677 66.7983" fill="black"/>
<path d="M124.256 219.572C132.354 214.623 143.411 206.785 154.416 195.036C167.74 180.812 174.644 167.644 181.341 154.856C185.736 146.464 193.903 129.628 200.184 106.787C204.458 91.2138 206.587 77.492 207.677 66.7983" stroke="white" stroke-width="13.8429" stroke-linecap="round" stroke-linejoin="round"/>
<path d="M228.683 57.4202C227.835 68.3388 227.472 79.8976 225.448 91.3699C223.942 99.9525 222.281 108.466 220.118 116.91C217.972 125.25 215.256 133.366 212.297 141.464C208.905 150.704 204.977 159.667 200.323 168.302C196.049 176.21 191.377 183.91 185.943 191.125C181.583 196.922 177.067 202.546 172.066 207.806C166.062 214.122 159.503 219.728 152.392 224.781C146.491 228.986 140.21 232.412 133.652 235.319C131.074 236.461 128.443 237.724 125.381 237.828C121.92 237.949 119.013 236.478 116.071 235.25C106.295 231.183 97.4526 225.456 89.3545 218.725C83.9038 214.208 78.9031 209.121 74.1273 203.826C65.9599 194.776 59.1077 184.775 52.913 174.341C47.6354 165.447 43.2576 156.068 39.3469 146.499C36.4918 139.526 33.9136 132.414 31.8545 125.164C28.7225 114.159 25.9539 103.033 24.2409 91.716C22.1644 77.9596 21.1608 64.0994 21.3685 50.17C21.4204 46.4151 22.1471 45.4288 25.7463 46.2248C34.1732 48.1109 42.5308 46.865 50.8539 46.0171C55.3009 45.5673 59.6614 44.2695 64.0565 43.3178C70.2512 41.9854 76.2729 40.0128 82.2254 37.9364C88.9911 35.5831 95.6703 32.9529 102.159 29.8383C109.444 26.3429 116.556 22.6226 123.27 18.1237C124.273 17.4489 125.588 17.3969 126.575 18.0891C131.766 21.6882 137.372 24.5433 142.909 27.5196C149.346 30.963 156.077 33.7316 162.86 36.2406C173.156 40.0474 183.642 43.3005 194.509 45.1001C204.026 46.6747 213.525 48.2493 223.215 46.2248C227.438 45.3423 228.614 46.5189 228.649 50.8795C228.649 52.8348 228.649 54.7728 228.649 57.3683L228.683 57.4202ZM35.3152 51.4505C33.8963 51.4505 31.145 51.5889 28.3937 51.3986C26.5422 51.2601 25.9885 51.71 26.0231 53.648C26.127 60.7425 26.6461 67.8024 27.2171 74.8623C27.8746 82.8912 29.1551 90.8162 30.5567 98.724C31.3354 103.119 32.4947 107.497 33.4637 111.857C35.5055 121.046 38.3087 129.992 41.5445 138.765C44.0708 145.617 47.0298 152.348 50.2482 158.958C54.8337 168.406 59.9902 177.525 66.0118 186.055C72.1373 194.707 78.9204 202.875 86.7762 210.107C91.6905 214.624 96.8123 218.863 102.263 222.601C107.627 226.252 113.441 229.297 119.497 231.737C121.487 232.533 123.616 233.935 125.761 233.277C135.832 230.232 144.83 224.919 153.136 218.655C161.528 212.322 169.02 204.882 175.682 196.68C180.822 190.364 185.442 183.719 189.785 176.85C193.713 170.655 197.104 164.149 200.34 157.574C202.624 152.954 204.735 148.212 206.535 143.367C208.732 137.467 210.843 131.514 212.695 125.475C214.581 119.333 216.363 113.173 217.678 106.909C219.478 98.3779 221.104 89.8126 221.9 81.0916C222.558 73.7722 223.752 66.5046 223.648 59.1333C223.613 56.6589 224.548 53.302 223.302 51.935C221.9 50.395 218.509 51.4505 216 51.5543C207.365 51.9004 198.817 51.0698 190.442 49.1145C184.196 47.6437 177.966 46.121 171.806 44.2176C164.331 41.9162 157.046 39.1476 149.9 36.0676C142.702 32.9702 135.555 29.6479 129.032 25.2182C126.54 23.5224 124.377 22.588 121.332 24.7683C115.345 29.0596 108.596 32.0012 101.917 35.1159C96.2586 37.746 90.4965 40.0993 84.6306 42.1065C77.6745 44.4944 70.58 46.5709 63.3471 48.1628C54.5049 50.1181 45.6801 51.7793 35.2633 51.4332L35.3152 51.4505Z" fill="black"/>
<path d="M212.972 68.0448C211.899 73.5993 211.812 80.0708 210.791 86.4559C209.667 93.4985 207.832 100.368 206.483 107.341C205.514 112.325 203.87 117.187 202.209 121.998C199.89 128.694 197.485 135.373 194.751 141.914C192.346 147.624 189.543 153.179 186.687 158.699C183.036 165.758 178.953 172.576 174.385 179.1C165.888 191.212 156.32 202.269 144.484 211.353C138.826 215.697 132.683 219.036 126.557 222.48C125.588 223.016 124.515 222.999 123.495 222.514C109.15 215.714 97.3141 205.747 86.9319 193.877C79.0415 184.844 72.3622 174.964 66.4098 164.616C61.7378 156.484 57.8099 147.97 54.1761 139.318C52.3419 134.941 50.577 130.511 49.1062 126.047C46.8567 119.246 44.7456 112.377 43.1191 105.334C41.8213 99.6759 40.4197 94.0176 39.3988 88.3247C38.101 81.1264 37.2358 73.8242 36.8898 66.5048C36.8033 64.5149 37.4262 63.4075 39.7968 63.0614C49.383 61.6425 59.0384 60.6389 68.4862 58.3029C76.5843 56.2957 84.6478 54.15 92.4691 51.2776C101.9 47.7996 111.313 44.2177 119.411 38.0057C120.553 37.1405 121.487 36.1023 122.422 35.0295C124.187 33.0223 125.83 33.0396 127.509 35.0987C130.814 39.1651 135.348 41.5184 139.829 43.9063C145.003 46.6575 150.454 48.907 155.991 50.7931C163.379 53.3021 170.768 55.7593 178.416 57.5242C182.881 58.5451 187.362 59.6007 191.844 60.4658C197.727 61.5906 203.714 62.1962 209.649 63.1133C212.729 63.5805 213.11 64.1342 212.937 68.0794L212.972 68.0448ZM208.265 68.9792C208.49 67.4738 207.504 67.4219 206.448 67.3527C198.142 66.8163 190.027 65.0859 181.894 63.4075C178.849 62.7845 175.976 61.6944 172.948 61.0888C166.131 59.7218 159.625 57.3512 153.136 54.9806C147.477 52.9215 141.94 50.4643 136.559 47.6785C133.34 46.0173 130.122 44.287 127.422 41.951C125.519 40.2725 124.342 39.3208 122.733 41.951C122.577 42.1932 122.11 42.2278 121.816 42.4182C118.511 44.6676 115.068 46.6402 111.538 48.5263C106.347 51.2949 100.861 53.3714 95.4453 55.5862C90.6695 57.5415 85.5995 58.7701 80.6507 60.2409C77.19 61.2618 73.7292 62.4212 70.182 63.0614C61.4263 64.6706 52.7745 66.9201 43.8285 67.3181C41.8386 67.4046 41.5445 68.2698 41.804 70.0001C42.8768 77.4234 43.4998 84.9332 44.9706 92.2699C46.9605 102.237 49.4868 112.117 52.6707 121.79C54.9721 128.763 57.7234 135.598 60.6477 142.347C64.5756 151.396 69.2303 160.1 74.3868 168.527C78.2282 174.774 82.4503 180.761 87.0357 186.471C92.1057 192.769 97.6256 198.635 103.82 203.896C108.631 207.979 113.666 211.717 119.117 214.831C121.349 216.112 123.719 218.275 126.644 216.908C129.378 215.645 132.008 214.105 134.534 212.444C140.85 208.291 146.733 203.653 152.115 198.237C157.202 193.115 161.995 187.769 166.304 182.024C171.685 174.843 176.651 167.333 180.787 159.339C184.663 151.881 188.366 144.354 191.567 136.55C194.872 128.504 197.589 120.284 200.08 111.979C202.278 104.677 203.732 97.1668 205.237 89.6571C206.604 82.7875 206.794 75.7969 208.265 68.9965V68.9792Z" fill="black"/>
<path d="M33.6367 76.4888C33.7233 77.3713 33.879 78.2537 33.8617 79.1189C33.8444 80.1571 33.481 81.1261 32.2697 81.1954C31.0931 81.2646 30.1933 80.5724 30.0203 79.4131C29.0513 72.855 28.3591 66.245 28.3591 59.6004C28.3591 58.3719 28.6879 57.351 30.2625 57.2644C32.1313 57.1606 32.5293 58.3892 32.6331 59.7735C33.0311 65.3279 33.3772 70.8997 33.7233 76.4542C33.6887 76.4542 33.6713 76.4542 33.6367 76.4542V76.4888Z" fill="black"/>
<path d="M138.064 224.141C138.099 225.11 137.839 225.854 136.905 226.321C134.5 227.533 132.164 228.934 129.689 230.024C128.547 230.526 127.042 230.855 126.228 229.28C125.363 227.636 126.419 226.944 127.751 226.287C130.26 225.058 132.648 223.605 135.192 222.463C136.645 221.805 138.03 222.03 138.081 224.141H138.064Z" fill="black"/>
<path d="M216.277 61.4178C216.277 60.1892 216.19 58.9434 216.311 57.7148C216.415 56.5555 217.055 55.8287 218.353 55.7076C219.703 55.5865 220.153 56.5036 220.274 57.4206C220.62 59.947 221.001 62.4906 220.481 65.0342C220.239 66.2628 219.651 67.0934 218.145 66.9203C216.657 66.7473 216.225 65.8994 216.242 64.5843C216.242 63.5288 216.242 62.4733 216.242 61.4178H216.277Z" fill="black"/>
<path d="M141.681 218.916C141.3 216.597 143.653 216.562 144.709 215.559C145.851 214.469 147.772 212.513 149.363 214.728C150.921 216.891 148.568 218.016 147.166 218.933C146.11 219.608 145.366 220.819 143.878 220.905C142.355 220.975 141.49 220.611 141.698 218.916H141.681Z" fill="black"/>
<path d="M35.2806 89.4496C35.4709 91.0762 34.5884 91.4396 33.2041 91.4396C31.2488 91.4396 30.5394 90.0553 30.4875 88.5499C30.4529 87.3559 31.1623 86.0927 32.685 86.11C34.848 86.1446 34.9864 87.9096 35.2806 89.4496Z" fill="black"/>
<path d="M123.979 159.961C118.286 160.757 112.074 159.442 105.897 157.868C102.003 156.881 100.083 153.836 99.6329 148.42C99.1657 142.744 99.3387 137.069 99.754 131.428C100.238 124.783 100.187 118.156 100.204 111.511C100.204 108.154 101.156 105.524 104.72 104.365C106.606 103.759 107.731 102.617 108.008 100.281C108.735 94.4153 111.52 89.6568 117.04 86.9229C120.864 85.0368 124.983 84.3446 129.136 85.1406C133.704 86.0231 138.151 87.5804 140.781 91.8198C142.667 94.8652 144.432 98.0837 143.861 101.96C143.636 103.482 144.103 104.33 145.834 104.728C148.446 105.334 150.159 107.272 151.302 109.625C153.949 115.128 153.603 120.976 153.153 126.825C152.599 134.041 151.803 141.256 151.371 148.489C151.077 153.317 147.633 156.535 143.861 157.902C137.684 160.117 131.212 160.256 123.996 159.944L123.979 159.961ZM122.733 106.787C117.508 107.134 112.143 105.922 107.108 108.674C105.862 109.366 105.516 109.798 105.464 111.079C105.274 116.028 104.893 120.959 104.737 125.908C104.495 133.418 103.474 140.91 104.339 148.455C104.651 151.189 105.62 152.988 108.371 153.507C112.091 154.199 115.76 155.099 119.567 155.238C125.761 155.463 131.904 154.909 138.082 154.303C143.826 153.749 146.422 151.465 146.803 146.69C147.616 136.221 148.464 125.735 147.754 115.18C147.495 111.2 145.609 109.591 141.923 108.656C135.59 107.064 129.205 106.562 122.716 106.77L122.733 106.787ZM139.051 101.735C138.514 96.5783 136.593 92.8061 131.42 90.7124C124.533 87.9265 114.116 91.0411 113.268 99.6583C113.199 100.437 112.368 101.544 113.597 101.908C114.774 102.254 115.725 101.821 116.175 100.35C116.763 98.4471 117.646 96.6821 119.532 95.5574C125.796 91.8371 130.572 93.9481 133.444 100.212C134.413 102.34 135.728 102.721 137.545 103.015C138.739 103.206 139.241 102.79 139.033 101.7L139.051 101.735ZM125.173 98.7586C124.048 99.07 123.01 99.2431 122.058 99.6583C121.557 99.866 120.951 100.368 121.089 101.095C121.228 101.787 121.903 101.648 122.37 101.7C123.685 101.821 125 101.942 126.315 101.925C127.025 101.925 128.132 102.444 128.392 101.458C128.668 100.402 127.717 99.7275 126.834 99.295C126.298 99.0354 125.675 98.9316 125.156 98.7932L125.173 98.7586Z" fill="black"/>
<path d="M125.052 213.257C122.647 213.516 121.055 211.63 119.117 210.765C117.456 210.038 115.812 208.896 114.324 207.633C113.043 206.543 112.732 205.47 113.528 204.276C114.358 203.013 115.933 203.377 116.763 204.103C118.701 205.816 121.037 206.733 123.148 208.066C124.429 208.879 125.45 208.983 126.73 208.118C128.824 206.716 131.195 205.764 133.15 204.086C134.032 203.342 135.572 203.1 136.42 204.294C137.286 205.539 136.801 206.595 135.538 207.616C132.925 209.727 129.81 210.956 127.076 212.807C126.419 213.257 125.761 213.205 125.069 213.24L125.052 213.257Z" fill="black"/>
<path d="M45.3859 74.9143C45.4378 72.7167 46.5626 71.7823 48.2583 72.0592C50.6462 72.4399 52.7573 72.1457 54.8164 70.8825C55.3701 70.5538 56.1661 70.5884 56.8582 70.5365C58.0349 70.4327 59.3154 70.398 59.5576 71.9035C59.7652 73.2185 58.9174 73.9453 57.6888 74.3779C55.5605 75.1565 53.6744 76.5927 51.2519 76.4889C50.2309 76.437 50.2655 77.0599 50.3867 77.9078C50.6116 79.4651 50.6635 81.0571 50.7674 82.6317C50.8366 83.5834 50.3001 84.2236 49.435 84.2929C48.5006 84.3621 47.3239 84.189 47.0644 83.1335C46.3722 80.3303 45.8704 77.4579 45.3513 74.9143H45.3859Z" fill="black"/>
<path d="M197.087 78.8592C197.173 74.7063 197.173 74.6544 192.986 74.3603C191.134 74.2391 189.733 73.0971 188.072 72.5607C187.189 72.2838 187.535 71.1764 187.553 70.415C187.57 69.6191 188.054 69.1 188.902 69.0654C189.525 69.0308 190.235 68.8923 190.736 69.1346C193.661 70.5535 196.81 70.6746 199.959 70.9688C201.655 71.1245 202.538 72.4396 202.295 74.2045C202.036 76.0387 201.707 77.8556 201.257 79.6379C200.998 80.6934 200.703 82.0777 199.129 81.7835C197.571 81.5067 197.018 80.3473 197.104 78.8419L197.087 78.8592Z" fill="black"/>
<path d="M121.972 138.47C122.266 136.065 121.92 133.971 119.653 131.791C115.881 128.157 116.123 122.222 121.089 118.934C123.097 117.602 128.426 117.654 130.71 118.969C134.084 120.89 135.209 123.797 134.828 127.655C134.655 129.368 134.188 131.047 132.579 132.206C131.333 133.089 130.762 134.352 131.056 136.065C131.385 137.882 131.385 139.751 131.472 141.602C131.575 144.146 130.174 145.513 127.82 146.049C125.571 146.551 123.495 146.222 122.37 143.973C121.557 142.346 122.197 140.477 121.972 138.47Z" fill="black"/>
<path d="M124.654 15.9429C108.198 26.6192 93.2997 33.0042 82.3638 36.8976C71.7394 40.6698 60.5093 44.5804 45.0572 45.1687C36.3534 45.4975 29.0686 44.6842 23.9121 43.819C23.8083 53.509 24.1544 64.0643 25.2618 75.3462C27.2863 96.2144 31.3354 114.504 35.8343 129.749L52.3766 164.546C58.4848 176.399 69.9744 194.793 90.2543 211.076C102.401 220.818 114.272 227.047 123.702 231.079C133.808 227.601 149.346 220.922 164.66 207.823C186.809 188.858 196.118 166.986 205.427 145.149C208.404 138.141 217.834 115.041 222.35 83.0463C224.461 68.096 224.911 55.2394 224.842 45.5494C212.608 45.6532 196.429 44.5631 178.122 39.7873C154.451 33.6099 136.455 23.7122 124.671 15.9429H124.654Z" fill="#52F7B0"/>
<path d="M124.36 32.4678C117.265 37.2436 108.786 42.1405 98.8888 46.501C75.8404 56.6409 54.5915 59.6345 39.4854 60.3439C40.5582 72.6641 42.8942 89.3967 48.3276 108.604C54.6261 130.891 62.7588 159.667 86.7763 185.899C94.5802 194.412 107.022 205.902 125.606 215.886C136.074 209.276 151.146 198.202 165.404 180.898C183.036 159.511 190.719 139.231 195.98 124.956C201.344 110.421 207.66 88.618 209.442 61.1226C197.191 60.5862 179.939 58.4405 160.611 51.3114C145.297 45.6704 133.185 38.576 124.36 32.4678Z" fill="url(#paint0_radial_850_47)"/>
<path d="M140.798 101.405H111.97C107.03 101.405 103.024 105.411 103.024 110.351V143.799C103.024 148.74 107.03 152.745 111.97 152.745H140.798C145.739 152.745 149.744 148.74 149.744 143.799V110.351C149.744 105.411 145.739 101.405 140.798 101.405Z" fill="white"/>
<path d="M126.661 83.2369C125.156 83.0811 118.771 82.389 113.978 86.6976C111.52 88.8951 108.406 93.4114 109.946 96.7856C110.707 98.4814 112.697 100.004 114.272 99.6753C116.054 99.2946 115.881 96.8548 118.598 94.4842C119.446 93.7402 121.297 92.1309 123.495 92.1828C126.419 92.252 127.025 95.1937 131.575 97.9449C132.942 98.7755 137.476 101.527 139.656 99.9695C141.629 98.5506 141.092 94.017 139.656 91.0235C136.472 84.4135 127.872 83.358 126.678 83.2369H126.661Z" fill="white"/>
<path d="M124.36 101.405H101.277V151.153H124.36V101.405Z" fill="#C4FFA1"/>
<path d="M125.225 82.2158V91.7674L118.598 94.4841L117.732 98.9484H109.531L111.815 89.0854L117.386 83.0983L125.225 82.2158Z" fill="#C4FFA1"/>
<path d="M123.702 214.848C131.8 209.899 142.857 202.061 153.862 190.311C167.186 176.088 174.09 162.92 180.787 150.132C185.182 141.74 193.349 124.904 199.631 102.063C203.905 86.4896 206.033 72.7679 207.123 62.0742" stroke="white" stroke-width="5.19109" stroke-linecap="round" stroke-linejoin="round"/>
<path d="M228.147 52.6956C227.299 63.6142 226.936 75.173 224.911 86.6453C223.406 95.2279 221.745 103.741 219.582 112.186C217.436 120.526 214.719 128.641 211.76 136.739C208.369 145.979 204.441 154.943 199.786 163.577C195.512 171.485 190.84 179.185 185.407 186.401C181.046 192.197 176.53 197.821 171.529 203.081C165.525 209.397 158.967 215.004 151.855 220.056C145.955 224.261 139.673 227.687 133.115 230.594C130.537 231.736 127.907 232.999 124.844 233.103C121.383 233.224 118.476 231.754 115.535 230.525C105.758 226.459 96.9161 220.731 88.818 214C83.3674 209.484 78.3666 204.397 73.5908 199.102C65.4235 190.052 58.5713 180.05 52.3766 169.616C47.099 160.722 42.7211 151.344 38.8105 141.775C35.9554 134.801 33.3772 127.69 31.318 120.439C28.1861 109.434 25.4175 98.308 23.7044 86.9914C21.628 73.235 20.6244 59.3748 20.832 45.4454C20.8839 41.6905 21.6107 40.7042 25.2098 41.5002C33.6367 43.3863 41.9944 42.1404 50.3174 41.2925C54.7645 40.8426 59.125 39.5449 63.5201 38.5932C69.7148 37.2608 75.7365 35.2882 81.6889 33.2117C88.4547 30.8584 95.1339 28.2283 101.623 25.1136C108.908 21.6183 116.019 17.898 122.733 13.3991C123.737 12.7243 125.052 12.6723 126.038 13.3645C131.229 16.9636 136.836 19.8187 142.373 22.795C148.81 26.2384 155.541 29.007 162.324 31.516C172.62 35.3228 183.106 38.5759 193.972 40.3754C203.489 41.9501 212.989 43.5247 222.679 41.5002C226.901 40.6177 228.078 41.7943 228.112 46.1549C228.112 48.1102 228.112 50.0482 228.112 52.6437L228.147 52.6956ZM34.7788 46.7259C33.3599 46.7259 30.6086 46.8643 27.8573 46.674C26.0058 46.5355 25.4521 46.9854 25.4867 48.9234C25.5905 56.0179 26.1096 63.0778 26.6807 70.1377C27.3382 78.1666 28.6187 86.0916 30.0203 93.9994C30.7989 98.3945 31.9583 102.772 32.9273 107.133C34.9691 116.321 37.7723 125.267 41.0081 134.04C43.5344 140.892 46.4933 147.623 49.7118 154.233C54.2973 163.681 59.4538 172.8 65.4754 181.331C71.6009 189.983 78.3839 198.15 86.2398 205.383C91.154 209.899 96.2759 214.138 101.727 217.876C107.091 221.527 112.905 224.573 118.961 227.012C120.951 227.808 123.079 229.21 125.225 228.552C135.296 225.507 144.294 220.195 152.599 213.931C160.992 207.598 168.484 200.157 175.146 191.955C180.285 185.639 184.905 178.995 189.248 172.125C193.176 165.931 196.568 159.424 199.804 152.849C202.088 148.229 204.199 143.488 205.998 138.643C208.196 132.742 210.307 126.79 212.158 120.751C214.045 114.608 215.827 108.448 217.142 102.184C218.941 93.6533 220.568 85.088 221.364 76.367C222.021 69.0476 223.215 61.78 223.112 54.4087C223.077 51.9343 224.011 48.5774 222.766 47.2104C221.364 45.6703 217.972 46.7259 215.463 46.8297C206.829 47.1758 198.281 46.3452 189.906 44.3899C183.659 42.9191 177.43 41.3964 171.27 39.493C163.795 37.1916 156.51 34.423 149.363 31.3429C142.165 28.2456 135.019 24.9233 128.495 20.4936C126.004 18.7978 123.841 17.8634 120.795 20.0437C114.808 24.335 108.06 27.2766 101.38 30.3913C95.7222 33.0214 89.9601 35.3747 84.0941 37.3819C77.1381 39.7698 70.0436 41.8462 62.8107 43.4382C53.9685 45.3935 45.1436 47.0546 34.7268 46.7086L34.7788 46.7259Z" fill="black"/>
<path d="M212.435 63.3207C211.362 68.8752 211.276 75.3467 210.255 81.7318C209.13 88.7743 207.296 95.6439 205.946 102.617C204.977 107.601 203.334 112.463 201.672 117.273C199.354 123.97 196.949 130.649 194.215 137.19C191.809 142.9 189.006 148.455 186.151 153.974C182.5 161.034 178.416 167.852 173.848 174.375C165.352 186.488 155.783 197.545 143.947 206.629C138.289 210.973 132.146 214.312 126.021 217.756C125.052 218.292 123.979 218.275 122.958 217.79C108.613 210.99 96.7777 201.023 86.3955 189.153C78.5051 180.12 71.8259 170.24 65.8734 159.892C61.2014 151.76 57.2735 143.246 53.6397 134.594C51.8055 130.217 50.0406 125.787 48.5698 121.322C46.3203 114.522 44.2092 107.653 42.5827 100.61C41.2849 94.9518 39.8833 89.2935 38.8624 83.6006C37.5647 76.4023 36.6995 69.1001 36.3534 61.7807C36.2669 59.7908 36.8898 58.6833 39.2604 58.3373C48.8466 56.9184 58.5021 55.9147 67.9499 53.5788C76.048 51.5715 84.1115 49.4259 91.9327 46.5535C101.363 43.0755 110.776 39.4936 118.874 33.2816C120.017 32.4164 120.951 31.3782 121.885 30.3054C123.65 28.2982 125.294 28.3155 126.973 30.3746C130.278 34.441 134.811 36.7942 139.293 39.1821C144.467 41.9334 149.917 44.1829 155.454 46.069C162.843 48.578 170.232 51.0351 177.88 52.8001C182.344 53.821 186.826 54.8765 191.308 55.7417C197.191 56.8664 203.178 57.4721 209.113 58.3892C212.193 58.8564 212.574 59.4101 212.401 63.3553L212.435 63.3207ZM207.729 64.2551C207.954 62.7497 206.967 62.6978 205.912 62.6286C197.606 62.0922 189.491 60.3618 181.358 58.6833C178.312 58.0604 175.44 56.9703 172.412 56.3646C165.594 54.9977 159.088 52.6271 152.599 50.2565C146.941 48.1973 141.404 45.7402 136.022 42.9543C132.804 41.2932 129.585 39.5628 126.886 37.2268C124.983 35.5484 123.806 34.5967 122.197 37.2268C122.041 37.4691 121.574 37.5037 121.28 37.694C117.975 39.9435 114.531 41.9161 111.001 43.8022C105.81 46.5708 100.325 48.6472 94.9089 50.8621C90.1331 52.8174 85.0631 54.046 80.1143 55.5168C76.6536 56.5377 73.1928 57.697 69.6456 58.3373C60.89 59.9465 52.2381 62.196 43.2922 62.594C41.3022 62.6805 41.0081 63.5457 41.2676 65.276C42.3405 72.6993 42.9634 80.2091 44.4342 87.5458C46.4241 97.5127 48.9505 107.393 52.1343 117.066C54.4357 124.039 57.187 130.874 60.1113 137.622C64.0392 146.672 68.6939 155.376 73.8504 163.803C77.6918 170.049 81.9139 176.037 86.4994 181.747C91.5693 188.045 97.0892 193.911 103.284 199.171C108.094 203.255 113.13 206.993 118.58 210.107C120.812 211.388 123.183 213.551 126.107 212.184C128.841 210.921 131.472 209.381 133.998 207.719C140.314 203.567 146.197 198.929 151.578 193.513C156.666 188.391 161.459 183.044 165.767 177.3C171.149 170.119 176.115 162.609 180.25 154.615C184.127 147.157 187.829 139.63 191.031 131.826C194.336 123.78 197.052 115.56 199.544 107.255C201.742 99.9525 203.195 92.4427 204.701 84.9329C206.068 78.0634 206.258 71.0727 207.729 64.2724V64.2551Z" fill="black"/>
<path d="M33.1003 71.7642C33.1868 72.6466 33.3426 73.5291 33.3253 74.3943C33.3079 75.4325 32.9446 76.4015 31.7333 76.4707C30.5567 76.54 29.6569 75.8478 29.4838 74.6885C28.5148 68.1304 27.8227 61.5204 27.8227 54.8758C27.8227 53.6473 28.1515 52.6263 29.7261 52.5398C31.5949 52.436 31.9929 53.6646 32.0967 55.0489C32.4947 60.6033 32.8407 66.1751 33.1868 71.7296C33.1522 71.7296 33.1349 71.7296 33.1003 71.7296V71.7642Z" fill="black"/>
<path d="M137.528 219.416C137.562 220.385 137.303 221.129 136.368 221.597C133.963 222.808 131.627 224.21 129.153 225.3C128.011 225.801 126.505 226.13 125.692 224.556C124.827 222.912 125.882 222.22 127.215 221.562C129.724 220.333 132.112 218.88 134.655 217.738C136.109 217.08 137.493 217.305 137.545 219.416H137.528Z" fill="black"/>
<path d="M215.74 56.6937C215.74 55.4651 215.654 54.2193 215.775 52.9907C215.879 51.8314 216.519 51.1046 217.817 50.9835C219.166 50.8623 219.616 51.7794 219.737 52.6965C220.083 55.2229 220.464 57.7665 219.945 60.3101C219.703 61.5387 219.114 62.3693 217.609 62.1962C216.121 62.0232 215.688 61.1753 215.706 59.8602C215.706 58.8047 215.706 57.7492 215.706 56.6937H215.74Z" fill="black"/>
<path d="M141.144 214.191C140.764 211.872 143.117 211.838 144.172 210.834C145.314 209.744 147.235 207.789 148.827 210.004C150.384 212.166 148.031 213.291 146.629 214.208C145.574 214.883 144.83 216.094 143.342 216.181C141.819 216.25 140.954 215.887 141.162 214.191H141.144Z" fill="black"/>
<path d="M34.7268 84.7255C34.9171 86.3521 34.0347 86.7154 32.6504 86.7154C30.6951 86.7154 29.9856 85.3312 29.9337 83.8257C29.8991 82.6318 30.6085 81.3686 32.1313 81.3859C34.2942 81.4205 34.4326 83.1855 34.7268 84.7255Z" fill="black"/>
<path d="M123.425 155.237C117.732 156.033 111.52 154.718 105.343 153.144C101.45 152.157 99.529 149.112 99.0791 143.696C98.612 138.02 98.785 132.345 99.2003 126.704C99.6848 120.059 99.6329 113.432 99.6502 106.787C99.6502 103.43 100.602 100.8 104.166 99.6408C106.053 99.0352 107.177 97.8932 107.454 95.5572C108.181 89.6912 110.967 84.9327 116.487 82.1988C120.311 80.3127 124.429 79.6205 128.582 80.4165C133.15 81.299 137.597 82.8563 140.227 87.0957C142.113 90.1411 143.878 93.3596 143.307 97.2356C143.082 98.7583 143.549 99.6062 145.28 100.004C147.893 100.61 149.606 102.548 150.748 104.901C153.395 110.404 153.049 116.252 152.599 122.101C152.046 129.317 151.25 136.532 150.817 143.765C150.523 148.593 147.079 151.811 143.307 153.178C137.13 155.393 130.658 155.532 123.443 155.22L123.425 155.237ZM122.18 102.063C116.954 102.409 111.59 101.198 106.554 103.949C105.308 104.642 104.962 105.074 104.91 106.355C104.72 111.303 104.339 116.235 104.184 121.184C103.941 128.694 102.921 136.186 103.786 143.73C104.097 146.464 105.066 148.264 107.817 148.783C111.538 149.475 115.206 150.375 119.013 150.513C125.208 150.738 131.35 150.185 137.528 149.579C143.273 149.025 145.868 146.741 146.249 141.965C147.062 131.497 147.91 121.011 147.201 110.456C146.941 106.476 145.055 104.867 141.369 103.932C135.036 102.34 128.651 101.838 122.162 102.046L122.18 102.063ZM138.497 97.0107C137.96 91.8542 136.04 88.082 130.866 85.9883C123.979 83.2024 113.562 86.317 112.714 94.9342C112.645 95.7129 111.815 96.8203 113.043 97.1837C114.22 97.5298 115.172 97.0972 115.621 95.6264C116.21 93.723 117.092 91.958 118.978 90.8333C125.242 87.113 130.018 89.224 132.89 95.4879C133.859 97.6163 135.175 97.997 136.991 98.2911C138.185 98.4815 138.687 98.0662 138.48 96.9761L138.497 97.0107ZM124.619 94.0344C123.495 94.3459 122.456 94.519 121.505 94.9342C121.003 95.1419 120.397 95.6437 120.536 96.3704C120.674 97.0626 121.349 96.9241 121.816 96.9761C123.131 97.0972 124.446 97.2183 125.761 97.201C126.471 97.201 127.578 97.7201 127.838 96.7338C128.115 95.6783 127.163 95.0034 126.28 94.5709C125.744 94.3113 125.121 94.2075 124.602 94.0691L124.619 94.0344Z" fill="black"/>
<path d="M124.515 208.532C122.11 208.792 120.518 206.906 118.58 206.041C116.919 205.314 115.275 204.172 113.787 202.909C112.507 201.818 112.195 200.746 112.991 199.552C113.822 198.289 115.396 198.652 116.227 199.379C118.165 201.092 120.501 202.009 122.612 203.341C123.892 204.154 124.913 204.258 126.194 203.393C128.288 201.992 130.658 201.04 132.614 199.361C133.496 198.617 135.036 198.375 135.884 199.569C136.749 200.815 136.265 201.87 135.001 202.891C132.389 205.002 129.274 206.231 126.54 208.082C125.882 208.532 125.225 208.48 124.533 208.515L124.515 208.532Z" fill="black"/>
<path d="M44.8322 70.1897C44.8841 67.9921 46.0088 67.0577 47.7046 67.3346C50.0925 67.7153 52.2036 67.4211 54.2627 66.1579C54.8164 65.8292 55.6124 65.8638 56.3045 65.8119C57.4812 65.708 58.7616 65.6734 59.0039 67.1789C59.2115 68.4939 58.3637 69.2207 57.1351 69.6533C55.0068 70.4319 53.1207 71.8681 50.6981 71.7643C49.6772 71.7124 49.7118 72.3353 49.833 73.1832C50.0579 74.7405 50.1098 76.3325 50.2136 77.9071C50.2829 78.8588 49.7464 79.499 48.8813 79.5683C47.9469 79.6375 46.7702 79.4644 46.5107 78.4089C45.8185 75.6057 45.3167 72.7333 44.7976 70.1897H44.8322Z" fill="black"/>
<path d="M196.551 74.1346C196.637 69.9817 196.637 69.9298 192.45 69.6357C190.598 69.5145 189.196 68.3725 187.535 67.8361C186.653 67.5592 186.999 66.4518 187.016 65.6904C187.034 64.8945 187.518 64.3754 188.366 64.3408C188.989 64.3061 189.698 64.1677 190.2 64.41C193.124 65.8289 196.274 65.95 199.423 66.2441C201.119 66.3999 202.001 67.715 201.759 69.4799C201.499 71.3141 201.171 73.131 200.721 74.9133C200.461 75.9688 200.167 77.3531 198.592 77.0589C197.035 76.7821 196.481 75.6227 196.568 74.1173L196.551 74.1346Z" fill="black"/>
<path d="M121.418 133.746C121.712 131.341 121.366 129.247 119.099 127.067C115.327 123.433 115.57 117.498 120.536 114.21C122.543 112.878 127.872 112.93 130.156 114.245C133.531 116.165 134.655 119.072 134.275 122.931C134.102 124.644 133.635 126.323 132.025 127.482C130.779 128.365 130.208 129.628 130.503 131.341C130.831 133.158 130.831 135.026 130.918 136.878C131.022 139.422 129.62 140.789 127.267 141.325C125.017 141.827 122.941 141.498 121.816 139.248C121.003 137.622 121.643 135.753 121.418 133.746Z" fill="black"/>
</g>
<defs>
<radialGradient id="paint0_radial_850_47" cx="0" cy="0" r="1" gradientUnits="userSpaceOnUse" gradientTransform="translate(124.446 124.177) scale(88.4043 88.4042)">
<stop offset="0.19" stop-color="#12D48D"/>
<stop offset="0.3" stop-color="#13CD92"/>
<stop offset="0.45" stop-color="#16BBA1"/>
<stop offset="0.63" stop-color="#1C9EB9"/>
<stop offset="0.82" stop-color="#2376DA"/>
<stop offset="1" stop-color="#2C4BFF"/>
</radialGradient>
<clipPath id="clip0_850_47">
<rect width="230" height="243.808" fill="white" transform="translate(10 3)"/>
</clipPath>
</defs>
</svg>
