<svg width="320" height="320" viewBox="0 0 320 320" fill="none" xmlns="http://www.w3.org/2000/svg">
<g clip-path="url(#clip0_819_1966)">
<path d="M158.955 74.9531C89.5153 74.9531 33.2238 129.698 33.2238 197.222H121.759C121.759 177.248 138.415 161.053 158.955 161.053C179.496 161.053 196.152 177.248 196.152 197.222H284.687C284.687 129.698 228.395 74.9531 158.955 74.9531Z" fill="#FF6565" stroke="white" stroke-width="23.758" stroke-miterlimit="10" stroke-linejoin="round"/>
<path d="M158.955 93.7852C100.21 93.7852 52.5891 140.098 52.5891 197.222H127.488C127.488 180.325 141.578 166.624 158.955 166.624C176.332 166.624 190.423 180.325 190.423 197.222H265.322C265.322 140.098 217.7 93.7852 158.955 93.7852Z" fill="#EF9F46" stroke="white" stroke-width="23.758" stroke-miterlimit="10" stroke-linejoin="round"/>
<path d="M158.955 110.934C109.949 110.934 70.2231 149.569 70.2231 197.222H132.705C132.705 183.126 144.459 171.697 158.955 171.697C173.451 171.697 185.206 183.126 185.206 197.222H247.688C247.688 149.569 207.961 110.934 158.955 110.934Z" fill="#00B9AB" stroke="white" stroke-width="23.758" stroke-miterlimit="10" stroke-linejoin="round"/>
<path d="M158.955 129.391C120.433 129.391 89.2031 159.763 89.2031 197.222H109.119C109.119 170.458 131.432 148.76 158.955 148.76C186.478 148.76 208.792 170.458 208.792 197.222H228.708C228.707 159.763 197.478 129.391 158.955 129.391Z" fill="#6FE5FA" stroke="white" stroke-width="23.758" stroke-miterlimit="10" stroke-linejoin="round"/>
<path d="M158.954 148.759C131.431 148.759 109.118 170.458 109.118 197.222H132.709C132.709 183.126 144.458 171.701 158.954 171.701C173.45 171.701 185.208 183.126 185.208 197.222H208.79C208.79 170.458 186.477 148.759 158.954 148.759Z" fill="#BF80FF" stroke="white" stroke-width="23.758" stroke-miterlimit="10" stroke-linejoin="round"/>
<path d="M76.8853 152.544C66.6538 151.604 57.4331 157.517 53.9925 166.403C51.9981 165.61 49.8563 165.08 47.6028 164.873C35.3116 163.743 24.4553 172.497 23.3585 184.424C22.9964 188.361 23.7628 192.146 25.3672 195.499C23.1783 198.503 21.7344 202.084 21.3723 206.021C20.2755 217.948 29.3532 228.536 41.6447 229.666C42.465 229.741 43.2775 229.768 44.0825 229.757C47.1159 237.104 54.1566 242.611 62.8178 243.408C71.9134 244.244 80.2147 239.654 84.3647 232.385C87.9238 238.106 94.1228 242.193 101.487 242.87C113.779 244.001 124.626 235.245 125.722 223.319C125.753 222.984 125.751 222.655 125.766 222.323C137.681 222.954 148.039 214.379 149.109 202.747C150.178 191.114 141.559 180.784 129.729 179.232C130.299 167.679 121.41 157.591 109.431 156.489C103.214 155.918 97.3638 157.879 92.9591 161.495C89.2963 156.587 83.5747 153.159 76.8853 152.544Z" fill="white" stroke="white" stroke-width="23.758" stroke-miterlimit="10" stroke-linejoin="round"/>
<path d="M242.25 244.912C252.466 246.014 261.778 240.245 265.357 231.414C267.339 232.238 269.472 232.802 271.722 233.044C283.994 234.367 294.986 225.784 296.27 213.876C296.694 209.946 295.987 206.148 294.435 202.771C296.671 199.802 298.171 196.243 298.594 192.312C299.878 180.404 290.968 169.676 278.695 168.353C277.876 168.265 277.064 168.226 276.259 168.224C273.341 160.83 266.388 155.213 257.74 154.281C248.659 153.302 240.287 157.762 236.023 164.964C232.554 159.188 226.42 155.005 219.067 154.212C206.795 152.889 195.812 161.473 194.528 173.381C194.493 173.715 194.489 174.044 194.469 174.376C182.566 173.558 172.074 181.97 170.823 193.584C169.57 205.199 178.027 215.662 189.831 217.4C189.08 228.942 197.809 239.169 209.77 240.458C215.977 241.127 221.858 239.258 226.318 235.711C229.904 240.676 235.571 244.192 242.25 244.912Z" fill="white" stroke="white" stroke-width="23.758" stroke-miterlimit="10" stroke-linejoin="round"/>
<path d="M55.9485 192.489C55.9485 189.876 58.125 187.757 60.8094 187.757C63.4941 187.757 65.6707 189.876 65.6707 192.489C65.6707 195.103 63.4941 197.222 60.8094 197.222C58.125 197.222 55.9485 195.103 55.9485 192.489Z" fill="black" stroke="white" stroke-width="23.758" stroke-miterlimit="10" stroke-linejoin="round"/>
<path d="M99.3959 192.489C99.3959 189.876 101.572 187.757 104.257 187.757C106.942 187.757 109.118 189.876 109.118 192.489C109.118 195.103 106.942 197.222 104.257 197.222C101.572 197.222 99.3959 195.103 99.3959 192.489Z" fill="black" stroke="white" stroke-width="23.758" stroke-miterlimit="10" stroke-linejoin="round"/>
<path d="M88.1934 182.891C85.4594 183.131 82.9678 184.286 80.9863 186.035C78.0644 183.88 74.2238 183.046 70.4784 184.17C64.1613 186.067 60.5734 192.726 62.4706 199.043C63.3772 202.072 64.9119 204.879 67.0506 207.217C71.6872 212.285 78.8059 214.754 85.5859 213.741C87.3834 213.472 89.1338 212.954 90.7909 212.207C92.5616 211.409 94.2212 210.356 95.6641 209.053C97.1819 207.683 98.4591 206.071 99.4725 204.297C100.776 202.015 101.508 199.489 101.846 196.895C102.641 189.973 97.6734 183.725 90.7519 182.93C89.8869 182.831 89.0284 182.818 88.1934 182.891ZM76.8066 193.877C76.8056 193.89 76.805 193.903 76.8066 193.897C76.8016 193.937 76.7822 193.973 76.7775 194.014C76.7856 193.967 76.7969 193.924 76.8066 193.877Z" fill="white"/>
<path d="M37.7338 202.919C37.7338 198.798 41.8113 195.458 46.8413 195.458C51.8709 195.458 55.9485 198.798 55.9485 202.919C55.9485 207.04 51.8709 210.38 46.8413 210.38C41.8113 210.38 37.7338 207.04 37.7338 202.919Z" fill="#FD8183" stroke="white" stroke-width="23.758" stroke-miterlimit="10" stroke-linejoin="round"/>
<path d="M109.118 205.437C109.118 201.316 113.195 197.976 118.225 197.976C123.255 197.976 127.332 201.316 127.332 205.437C127.332 209.558 123.255 212.898 118.225 212.898C113.195 212.898 109.118 209.558 109.118 205.437Z" fill="#FD8183" stroke="white" stroke-width="23.758" stroke-miterlimit="10" stroke-linejoin="round"/>
<path d="M209.046 191.735C209.046 189.121 211.223 187.002 213.907 187.002C216.592 187.002 218.768 189.121 218.768 191.735C218.768 194.349 216.592 196.468 213.907 196.468C211.223 196.468 209.046 194.349 209.046 191.735Z" fill="black" stroke="white" stroke-width="23.758" stroke-miterlimit="10" stroke-linejoin="round"/>
<path d="M252.493 191.735C252.493 189.121 254.67 187.002 257.354 187.002C260.039 187.002 262.216 189.121 262.216 191.735C262.216 194.349 260.039 196.468 257.354 196.468C254.67 196.468 252.493 194.349 252.493 191.735Z" fill="black" stroke="white" stroke-width="23.758" stroke-miterlimit="10" stroke-linejoin="round"/>
<path d="M241.299 182.139C238.561 182.379 236.065 183.539 234.082 185.293C231.159 183.135 227.321 182.293 223.574 183.418C217.257 185.315 213.669 191.974 215.566 198.291C216.473 201.32 218.008 204.127 220.147 206.465C224.783 211.533 231.902 213.992 238.682 212.978C240.479 212.71 242.229 212.202 243.887 211.455C245.658 210.657 247.317 209.603 248.76 208.301C250.278 206.931 251.555 205.319 252.568 203.545C253.872 201.263 254.603 198.737 254.941 196.142C255.737 189.221 250.769 182.963 243.848 182.168C242.983 182.068 242.134 182.065 241.299 182.139ZM238.281 191.025C238.288 191.04 238.304 191.05 238.311 191.064C238.329 191.104 238.527 191.678 238.447 191.416C238.406 191.277 238.327 191.161 238.281 191.025ZM229.903 193.125C229.901 193.138 229.901 193.151 229.903 193.144C229.897 193.185 229.878 193.221 229.873 193.262C229.881 193.215 229.893 193.172 229.903 193.125Z" fill="white"/>
<path d="M190.832 202.165C190.832 198.044 194.909 194.704 199.939 194.704C204.969 194.704 209.046 198.044 209.046 202.165C209.046 206.285 204.969 209.626 199.939 209.626C194.909 209.626 190.832 206.285 190.832 202.165Z" fill="#FD8183" stroke="white" stroke-width="23.758" stroke-miterlimit="10" stroke-linejoin="round"/>
<path d="M262.216 204.683C262.216 200.562 266.293 197.222 271.323 197.222C276.353 197.222 280.43 200.562 280.43 204.683C280.43 208.804 276.353 212.144 271.323 212.144C266.293 212.144 262.216 208.804 262.216 204.683Z" fill="#FD8183" stroke="white" stroke-width="23.758" stroke-miterlimit="10" stroke-linejoin="round"/>
<path d="M158.955 78.2593C89.5153 78.2593 33.2238 133.004 33.2238 200.528H121.759C121.759 180.555 138.415 164.36 158.955 164.36C179.496 164.36 196.152 180.555 196.152 200.528H284.687C284.687 133.004 228.395 78.2593 158.955 78.2593Z" fill="#FF6565" stroke="black" stroke-width="6.01366" stroke-miterlimit="10" stroke-linejoin="round"/>
<path d="M158.955 97.0918C100.21 97.0918 52.5891 143.405 52.5891 200.529H127.488C127.488 183.631 141.578 169.931 158.955 169.931C176.332 169.931 190.423 183.631 190.423 200.529H265.322C265.322 143.405 217.7 97.0918 158.955 97.0918Z" fill="#EF9F46" stroke="black" stroke-width="6.01366" stroke-miterlimit="10" stroke-linejoin="round"/>
<path d="M158.955 114.24C109.949 114.24 70.2231 152.875 70.2231 200.528H132.705C132.705 186.433 144.459 175.003 158.955 175.003C173.451 175.003 185.206 186.433 185.206 200.528H247.688C247.688 152.875 207.961 114.24 158.955 114.24Z" fill="#00B9AB" stroke="black" stroke-width="6.01366" stroke-miterlimit="10" stroke-linejoin="round"/>
<path d="M158.955 132.697C120.433 132.697 89.2031 163.069 89.2031 200.529H109.119C109.119 173.764 131.432 152.066 158.955 152.066C186.478 152.066 208.792 173.764 208.792 200.529H228.708C228.707 163.069 197.478 132.697 158.955 132.697Z" fill="#6FE5FA" stroke="black" stroke-width="6.01366" stroke-miterlimit="10" stroke-linejoin="round"/>
<path d="M158.954 152.065C131.431 152.065 109.118 173.764 109.118 200.528H132.709C132.709 186.432 144.458 175.007 158.954 175.007C173.45 175.007 185.208 186.432 185.208 200.528H208.79C208.79 173.764 186.477 152.065 158.954 152.065Z" fill="#BF80FF" stroke="black" stroke-width="6.01366" stroke-miterlimit="10" stroke-linejoin="round"/>
<path d="M76.8853 155.851C66.6538 154.91 57.4331 160.824 53.9925 169.71C51.9981 168.917 49.8563 168.387 47.6028 168.18C35.3116 167.049 24.4553 175.804 23.3585 187.73C22.9964 191.667 23.7628 195.453 25.3672 198.805C23.1783 201.809 21.7344 205.391 21.3723 209.328C20.2755 221.255 29.3532 231.842 41.6447 232.973C42.465 233.048 43.2775 233.074 44.0825 233.064C47.1159 240.411 54.1566 245.918 62.8178 246.714C71.9134 247.551 80.2147 242.961 84.3647 235.692C87.9238 241.413 94.1228 245.5 101.487 246.177C113.779 247.307 124.626 238.552 125.722 226.625C125.753 226.291 125.751 225.962 125.766 225.63C137.681 226.261 148.039 217.686 149.109 206.054C150.178 194.42 141.559 184.091 129.729 182.539C130.299 170.986 121.41 160.898 109.431 159.796C103.214 159.224 97.3638 161.185 92.9591 164.802C89.2963 159.894 83.5747 156.466 76.8853 155.851Z" fill="white" stroke="black" stroke-width="6.01366" stroke-miterlimit="10" stroke-linejoin="round"/>
<path d="M242.25 248.219C252.466 249.32 261.778 243.551 265.357 234.721C267.339 235.545 269.472 236.108 271.722 236.351C283.994 237.674 294.986 229.09 296.27 217.182C296.694 213.252 295.987 209.455 294.435 206.077C296.671 203.108 298.171 199.549 298.594 195.619C299.878 183.71 290.968 172.982 278.695 171.659C277.876 171.571 277.064 171.532 276.259 171.53C273.341 164.136 266.388 158.52 257.74 157.587C248.659 156.609 240.287 161.068 236.023 168.27C232.554 162.495 226.42 158.311 219.067 157.518C206.795 156.195 195.812 164.78 194.528 176.688C194.493 177.021 194.489 177.35 194.469 177.682C182.566 176.864 172.074 185.276 170.823 196.89C169.57 208.505 178.027 218.969 189.831 220.706C189.08 232.249 197.809 242.475 209.77 243.764C215.977 244.433 221.858 242.564 226.318 239.017C229.904 243.982 235.571 247.499 242.25 248.219Z" fill="white" stroke="black" stroke-width="6.01366" stroke-miterlimit="10" stroke-linejoin="round"/>
<path d="M55.9485 195.796C55.9485 193.182 58.125 191.063 60.8094 191.063C63.4941 191.063 65.6707 193.182 65.6707 195.796C65.6707 198.409 63.4941 200.528 60.8094 200.528C58.125 200.528 55.9485 198.409 55.9485 195.796Z" fill="black" stroke="black" stroke-width="6.01366" stroke-miterlimit="10" stroke-linejoin="round"/>
<path d="M99.3959 195.796C99.3959 193.182 101.572 191.063 104.257 191.063C106.942 191.063 109.118 193.182 109.118 195.796C109.118 198.409 106.942 200.528 104.257 200.528C101.572 200.528 99.3959 198.409 99.3959 195.796Z" fill="black" stroke="black" stroke-width="6.01366" stroke-miterlimit="10" stroke-linejoin="round"/>
<path d="M89.6778 195.596C87.9256 195.395 86.3437 196.647 86.1425 198.399C86.0947 198.892 85.9859 199.415 85.7422 199.854C84.674 201.778 82.1412 202.207 80.1756 201.592C78.4237 201.043 77.3212 199.758 76.8065 198.047C76.3265 196.448 74.6362 195.536 73.0372 196.016C71.4381 196.496 70.5353 198.186 71.0156 199.785C71.7162 202.121 73.05 204.206 75 205.694C79.1281 208.844 85.4172 209 89.3556 205.43C90.2231 204.643 90.9356 203.7 91.465 202.657C92.0256 201.551 92.3309 200.357 92.4806 199.131C92.6815 197.379 91.4297 195.797 89.6778 195.596Z" fill="black"/>
<path d="M37.7338 206.225C37.7338 202.105 41.8113 198.764 46.8413 198.764C51.8709 198.764 55.9485 202.105 55.9485 206.225C55.9485 210.346 51.8709 213.687 46.8413 213.687C41.8113 213.687 37.7338 210.346 37.7338 206.225Z" fill="#FD8183" stroke="black" stroke-width="6.01366" stroke-miterlimit="10" stroke-linejoin="round"/>
<path d="M109.118 208.743C109.118 204.623 113.195 201.282 118.225 201.282C123.255 201.282 127.332 204.623 127.332 208.743C127.332 212.864 123.255 216.204 118.225 216.204C113.195 216.204 109.118 212.864 109.118 208.743Z" fill="#FD8183" stroke="black" stroke-width="6.01366" stroke-miterlimit="10" stroke-linejoin="round"/>
<path d="M209.046 195.042C209.046 192.428 211.223 190.309 213.907 190.309C216.592 190.309 218.768 192.428 218.768 195.042C218.768 197.655 216.592 199.774 213.907 199.774C211.223 199.774 209.046 197.655 209.046 195.042Z" fill="black" stroke="black" stroke-width="6.01366" stroke-miterlimit="10" stroke-linejoin="round"/>
<path d="M252.493 195.042C252.493 192.428 254.67 190.309 257.354 190.309C260.039 190.309 262.216 192.428 262.216 195.042C262.216 197.655 260.039 199.774 257.354 199.774C254.67 199.774 252.493 197.655 252.493 195.042Z" fill="black" stroke="black" stroke-width="6.01366" stroke-miterlimit="10" stroke-linejoin="round"/>
<path d="M242.773 194.834C241.022 194.633 239.439 195.894 239.238 197.647C239.19 198.14 239.082 198.663 238.838 199.102C237.77 201.025 235.237 201.455 233.272 200.84C231.519 200.291 230.417 199.006 229.903 197.295C229.422 195.696 227.742 194.783 226.143 195.264C224.543 195.744 223.631 197.434 224.111 199.033C224.812 201.369 226.146 203.453 228.096 204.941C232.224 208.092 238.513 208.238 242.451 204.668C243.319 203.882 244.031 202.938 244.561 201.894C245.121 200.789 245.436 199.604 245.586 198.379C245.787 196.627 244.526 195.035 242.773 194.834Z" fill="black"/>
<path d="M190.832 205.471C190.832 201.35 194.909 198.01 199.939 198.01C204.969 198.01 209.046 201.35 209.046 205.471C209.046 209.592 204.969 212.932 199.939 212.932C194.909 212.932 190.832 209.592 190.832 205.471Z" fill="#FD8183" stroke="black" stroke-width="6.01366" stroke-miterlimit="10" stroke-linejoin="round"/>
<path d="M262.216 207.989C262.216 203.869 266.293 200.528 271.323 200.528C276.353 200.528 280.43 203.869 280.43 207.989C280.43 212.11 276.353 215.451 271.323 215.451C266.293 215.451 262.216 212.11 262.216 207.989Z" fill="#FD8183" stroke="black" stroke-width="6.01366" stroke-miterlimit="10" stroke-linejoin="round"/>
<path d="M158.955 74.9531C89.5153 74.9531 33.2238 129.698 33.2238 197.222H121.759C121.759 177.248 138.415 161.053 158.955 161.053C179.496 161.053 196.152 177.248 196.152 197.222H284.687C284.687 129.698 228.395 74.9531 158.955 74.9531Z" fill="#FF6565" stroke="#0D0D0C" stroke-width="2.96975" stroke-miterlimit="10" stroke-linejoin="round"/>
<path d="M158.955 93.7852C100.21 93.7852 52.5891 140.098 52.5891 197.222H127.488C127.488 180.325 141.578 166.624 158.955 166.624C176.332 166.624 190.423 180.325 190.423 197.222H265.322C265.322 140.098 217.7 93.7852 158.955 93.7852Z" fill="#EF9F46" stroke="#0D0D0C" stroke-width="2.96975" stroke-miterlimit="10" stroke-linejoin="round"/>
<path d="M158.955 110.934C109.949 110.934 70.2231 149.569 70.2231 197.222H132.705C132.705 183.126 144.459 171.697 158.955 171.697C173.451 171.697 185.206 183.126 185.206 197.222H247.688C247.688 149.569 207.961 110.934 158.955 110.934Z" fill="#00B9AB" stroke="#0D0D0C" stroke-width="2.96975" stroke-miterlimit="10" stroke-linejoin="round"/>
<path d="M158.955 129.391C120.433 129.391 89.2031 159.763 89.2031 197.222H109.119C109.119 170.458 131.432 148.76 158.955 148.76C186.478 148.76 208.792 170.458 208.792 197.222H228.708C228.707 159.763 197.478 129.391 158.955 129.391Z" fill="#6FE5FA" stroke="#0D0D0C" stroke-width="2.96975" stroke-miterlimit="10" stroke-linejoin="round"/>
<path d="M158.954 148.759C131.431 148.759 109.118 170.458 109.118 197.222H132.709C132.709 183.126 144.458 171.701 158.954 171.701C173.45 171.701 185.208 183.126 185.208 197.222H208.79C208.79 170.458 186.477 148.759 158.954 148.759Z" fill="#BF80FF" stroke="#0D0D0C" stroke-width="2.96975" stroke-miterlimit="10" stroke-linejoin="round"/>
<path d="M76.8853 152.545C66.6538 151.604 57.4331 157.518 53.9925 166.404C51.9981 165.611 49.8563 165.081 47.6028 164.874C35.3116 163.743 24.4553 172.497 23.3585 184.424C22.9964 188.361 23.7628 192.147 25.3672 195.499C23.1783 198.503 21.7344 202.085 21.3723 206.022C20.2755 217.949 29.3532 228.536 41.6447 229.667C42.465 229.742 43.2775 229.768 44.0825 229.757C47.1159 237.105 54.1566 242.612 62.8178 243.408C71.9134 244.244 80.2147 239.654 84.3647 232.386C87.9238 238.106 94.1228 242.193 101.487 242.871C113.779 244.001 124.626 235.246 125.722 223.319C125.753 222.985 125.751 222.656 125.766 222.324C137.681 222.955 148.039 214.38 149.109 202.747C150.178 191.114 141.559 180.784 129.729 179.232C130.299 167.68 121.41 157.592 109.431 156.49C103.214 155.918 97.3638 157.879 92.9591 161.496C89.2963 156.587 83.5747 153.16 76.8853 152.545Z" fill="white" stroke="#0D0D0C" stroke-width="2.96975" stroke-miterlimit="10" stroke-linejoin="round"/>
<path d="M242.25 244.912C252.466 246.014 261.778 240.245 265.357 231.414C267.339 232.238 269.472 232.802 271.722 233.044C283.994 234.367 294.986 225.784 296.27 213.876C296.694 209.946 295.987 206.148 294.435 202.771C296.671 199.802 298.171 196.243 298.594 192.312C299.878 180.404 290.967 169.676 278.695 168.353C277.876 168.265 277.064 168.226 276.259 168.224C273.341 160.83 266.388 155.213 257.74 154.281C248.659 153.302 240.287 157.762 236.023 164.964C232.554 159.188 226.42 155.005 219.067 154.212C206.795 152.889 195.812 161.473 194.528 173.381C194.492 173.715 194.489 174.044 194.469 174.376C182.566 173.558 172.074 181.97 170.822 193.584C169.57 205.199 178.027 215.662 189.831 217.4C189.08 228.942 197.809 239.169 209.77 240.458C215.977 241.127 221.858 239.258 226.318 235.711C229.904 240.676 235.571 244.192 242.25 244.912Z" fill="white" stroke="#0D0D0C" stroke-width="2.96975" stroke-miterlimit="10" stroke-linejoin="round"/>
<path d="M55.9484 192.489C55.9484 189.876 58.125 187.757 60.8094 187.757C63.494 187.757 65.6706 189.876 65.6706 192.489C65.6706 195.103 63.494 197.222 60.8094 197.222C58.125 197.222 55.9484 195.103 55.9484 192.489Z" fill="black" stroke="#0D0D0C" stroke-width="2.96975" stroke-miterlimit="10" stroke-linejoin="round"/>
<path d="M99.3959 192.489C99.3959 189.876 101.572 187.757 104.257 187.757C106.942 187.757 109.118 189.876 109.118 192.489C109.118 195.103 106.942 197.222 104.257 197.222C101.572 197.222 99.3959 195.103 99.3959 192.489Z" fill="black" stroke="#0D0D0C" stroke-width="2.96975" stroke-miterlimit="10" stroke-linejoin="round"/>
<path d="M89.4922 193.887C88.6269 193.787 87.8434 194.408 87.7441 195.274C87.6669 195.984 87.5016 196.715 87.1484 197.344C85.6856 199.949 82.3775 200.652 79.6778 199.766C77.4616 199.038 75.9991 197.363 75.3419 195.176C75.1047 194.386 74.2663 193.943 73.4766 194.18C72.6869 194.417 72.2434 195.245 72.4806 196.035C73.4153 199.151 75.5894 201.56 78.7109 202.637C82.0653 203.794 86.1213 203.182 88.6425 200.566C89.1303 200.06 89.5369 199.497 89.8828 198.887C90.4481 197.889 90.7444 196.766 90.8788 195.635C90.9784 194.77 90.3575 193.986 89.4922 193.887Z" fill="#0D0D0C"/>
<path d="M37.7338 202.919C37.7338 198.798 41.8113 195.458 46.8413 195.458C51.8709 195.458 55.9485 198.798 55.9485 202.919C55.9485 207.04 51.8709 210.38 46.8413 210.38C41.8113 210.38 37.7338 207.04 37.7338 202.919Z" fill="#FD8183" stroke="#FD8183" stroke-width="2.96975" stroke-miterlimit="10" stroke-linejoin="round"/>
<path d="M109.118 205.437C109.118 201.316 113.195 197.976 118.225 197.976C123.255 197.976 127.332 201.316 127.332 205.437C127.332 209.558 123.255 212.898 118.225 212.898C113.195 212.898 109.118 209.558 109.118 205.437Z" fill="#FD8183" stroke="#FD8183" stroke-width="2.96975" stroke-miterlimit="10" stroke-linejoin="round"/>
<path d="M209.046 191.735C209.046 189.121 211.222 187.002 213.907 187.002C216.592 187.002 218.768 189.121 218.768 191.735C218.768 194.349 216.592 196.468 213.907 196.468C211.222 196.468 209.046 194.349 209.046 191.735Z" fill="black" stroke="#0D0D0C" stroke-width="2.96975" stroke-miterlimit="10" stroke-linejoin="round"/>
<path d="M252.493 191.735C252.493 189.121 254.67 187.002 257.354 187.002C260.039 187.002 262.216 189.121 262.216 191.735C262.216 194.349 260.039 196.468 257.354 196.468C254.67 196.468 252.493 194.349 252.493 191.735Z" fill="black" stroke="#0D0D0C" stroke-width="2.96975" stroke-miterlimit="10" stroke-linejoin="round"/>
<path d="M242.588 193.134C241.723 193.035 240.939 193.656 240.84 194.521C240.763 195.232 240.597 195.953 240.244 196.582C238.782 199.186 235.473 199.89 232.773 199.004C230.557 198.276 229.095 196.61 228.437 194.424C228.2 193.634 227.372 193.19 226.582 193.428C225.792 193.665 225.339 194.493 225.576 195.283C226.511 198.399 228.685 200.808 231.807 201.884C235.161 203.041 239.227 202.429 241.748 199.814C242.236 199.308 242.642 198.745 242.988 198.134C243.553 197.137 243.84 196.014 243.975 194.883C244.074 194.017 243.453 193.234 242.588 193.134Z" fill="#0D0D0C"/>
<path d="M190.832 202.165C190.832 198.044 194.909 194.704 199.939 194.704C204.969 194.704 209.046 198.044 209.046 202.165C209.046 206.285 204.969 209.626 199.939 209.626C194.909 209.626 190.832 206.285 190.832 202.165Z" fill="#FD8183" stroke="#FD8183" stroke-width="2.96975" stroke-miterlimit="10" stroke-linejoin="round"/>
<path d="M262.216 204.683C262.216 200.562 266.293 197.222 271.323 197.222C276.353 197.222 280.43 200.562 280.43 204.683C280.43 208.804 276.353 212.144 271.323 212.144C266.293 212.144 262.216 208.804 262.216 204.683Z" fill="#FD8183" stroke="#FD8183" stroke-width="2.96975" stroke-miterlimit="10" stroke-linejoin="round"/>
</g>
<defs>
<clipPath id="clip0_819_1966">
<rect width="320" height="320" fill="white"/>
</clipPath>
</defs>
</svg>
