<svg width="290" height="290" viewBox="0 0 290 290" fill="none" xmlns="http://www.w3.org/2000/svg">
<g clip-path="url(#clip0_819_3457)">
<path d="M34.3304 59.7937C34.3304 56.9042 36.6731 54.5615 39.5626 54.5615H250.437C253.327 54.5615 255.67 56.9042 255.67 59.7937V230.206C255.67 233.096 253.327 235.438 250.437 235.438H39.5626C36.6731 235.438 34.3304 233.096 34.3304 230.206V59.7937Z" fill="#090B0A" stroke="white" stroke-width="21.8835" stroke-miterlimit="10" stroke-linejoin="round"/>
<path d="M34.3304 59.7937C34.3304 56.9042 36.6731 54.5615 39.5626 54.5615H250.437C253.327 54.5615 255.67 56.9042 255.67 59.7937V83.2891C255.67 86.1786 253.327 88.5213 250.437 88.5213H39.5626C36.6731 88.5213 34.3304 86.1786 34.3304 83.2891V59.7937Z" fill="url(#paint0_linear_819_3457)" stroke="white" stroke-width="21.8835" stroke-miterlimit="10" stroke-linejoin="round"/>
<path d="M34.3304 59.7937C34.3304 56.9042 36.6731 54.5615 39.5626 54.5615H250.437C253.327 54.5615 255.67 56.9042 255.67 59.7937V230.206C255.67 233.096 253.327 235.438 250.437 235.438H39.5626C36.6731 235.438 34.3304 233.096 34.3304 230.206V59.7937Z" fill="#090B0A" stroke="black" stroke-width="2.83203" stroke-miterlimit="10" stroke-linejoin="round"/>
<path d="M34.3304 59.7937C34.3304 56.9042 36.6731 54.5615 39.5626 54.5615H250.437C253.327 54.5615 255.67 56.9042 255.67 59.7937V83.2891C255.67 86.1786 253.327 88.5213 250.437 88.5213H39.5626C36.6731 88.5213 34.3304 86.1786 34.3304 83.2891V59.7937Z" fill="url(#paint1_linear_819_3457)" stroke="#030303" stroke-width="2.83203" stroke-miterlimit="10" stroke-linejoin="round"/>
<path d="M108.518 114.211L108.306 102.564C108.306 102.564 93.7487 103.129 85.985 113.489C81.9788 118.836 81.5775 127.513 80.3892 133.96C79.2748 140.007 79.1966 140.807 76.3448 143.794C73.0922 147.202 66.7952 147.166 66.7952 147.166L66.2296 159.033C66.2296 159.033 75.5204 161.412 78.4139 166.487C81.3076 171.563 79.7585 173.388 79.5359 178.842C79.1966 187.15 79.8554 191.555 83.4608 197.308C90.0096 207.759 104.609 208.29 104.609 208.29L104.187 196.823C104.187 196.823 91.3005 193.754 92.6734 173.71C93.461 162.217 84.5404 155.857 84.5404 155.857C84.5404 155.857 93.096 149.152 93.8354 133.713C94.8668 112.176 108.518 114.211 108.518 114.211Z" fill="url(#paint2_linear_819_3457)" stroke="#030303" stroke-width="2.26562" stroke-miterlimit="10" stroke-linejoin="round"/>
<path d="M181.483 114.211L181.694 102.564C181.694 102.564 196.251 103.129 204.015 113.489C208.021 118.836 208.423 127.513 209.611 133.96C210.725 140.007 210.803 140.807 213.655 143.794C216.908 147.202 223.205 147.166 223.205 147.166L223.77 159.033C223.77 159.033 214.48 161.412 211.586 166.487C208.692 171.563 210.242 173.388 210.464 178.842C210.803 187.15 210.145 191.555 206.539 197.308C199.99 207.759 185.391 208.29 185.391 208.29L185.813 196.823C185.813 196.823 198.7 193.754 197.327 173.71C196.539 162.217 205.46 155.857 205.46 155.857C205.46 155.857 196.904 149.152 196.165 133.713C195.133 112.176 181.483 114.211 181.483 114.211Z" fill="url(#paint3_linear_819_3457)" stroke="#030303" stroke-width="2.26562" stroke-miterlimit="10" stroke-linejoin="round"/>
<path d="M163.401 104.069L108.518 202.308L127.394 206.785L178.741 107.449L163.401 104.069Z" fill="url(#paint4_linear_819_3457)" stroke="#030303" stroke-width="2.26562" stroke-miterlimit="10" stroke-linejoin="round"/>
<path d="M47.349 70.9425C47.349 67.5902 50.2122 64.8726 53.7443 64.8726C57.2761 64.8726 60.1396 67.5902 60.1396 70.9425C60.1396 74.295 57.2761 77.0126 53.7443 77.0126C50.2122 77.0126 47.349 74.295 47.349 70.9425Z" fill="url(#paint5_linear_819_3457)" stroke="#030303" stroke-width="2.26562" stroke-miterlimit="10" stroke-linejoin="round"/>
<path d="M66.2296 71.5416C66.2296 68.1893 69.0928 65.4717 72.6249 65.4717C76.1567 65.4717 79.0199 68.1893 79.0199 71.5416C79.0199 74.8941 76.1567 77.6117 72.6249 77.6117C69.0928 77.6117 66.2296 74.8941 66.2296 71.5416Z" fill="url(#paint6_linear_819_3457)" stroke="#030303" stroke-width="2.26562" stroke-miterlimit="10" stroke-linejoin="round"/>
<path d="M87.3735 75.3579L96.0769 64.7925L109.471 75.9218L121.399 67.019L133.646 74.3741L145.18 66.7653L156.002 74.8213L167.8 66.0355L179.527 73.9773L192.23 65.078L202.915 75.1356L214.456 65.7602L226.571 73.8213" stroke="#030303" stroke-width="5.64956" stroke-miterlimit="10" stroke-linejoin="round"/>
<path d="M242.98 56.7554C242.093 56.7475 241.216 56.7877 240.369 56.8528C238.655 56.9814 237.373 58.4758 237.501 60.1892C237.63 61.9029 239.124 63.1943 240.838 63.0657C241.613 63.0091 242.388 62.9694 243.165 63.0037C244.055 63.0428 245.258 63.1243 245.997 63.6939C246.529 64.1039 246.632 64.9295 246.697 65.5437C246.836 66.8759 246.755 68.2274 246.687 69.5615C246.604 71.3746 248.007 72.9116 249.821 72.9954C251.634 73.0792 253.171 71.6757 253.254 69.8626C253.354 67.4953 253.457 65.0459 252.741 62.7559C252.481 61.9233 252.109 61.1266 251.608 60.4104C251.254 59.9035 250.836 59.4362 250.369 59.0301C248.345 57.2669 245.638 56.7795 242.98 56.7554Z" fill="white"/>
<path d="M247.985 78.5787C247.985 78.0448 248.453 77.6118 249.031 77.6118C249.609 77.6118 250.077 78.0448 250.077 78.5787C250.077 79.1128 249.609 79.5458 249.031 79.5458C248.453 79.5458 247.985 79.1128 247.985 78.5787Z" fill="black" stroke="white" stroke-width="6.18932" stroke-miterlimit="10" stroke-linecap="round" stroke-linejoin="round"/>
</g>
<defs>
<linearGradient id="paint0_linear_819_3457" x1="34.3304" y1="71.5412" x2="255.67" y2="71.5412" gradientUnits="userSpaceOnUse">
<stop stop-color="#C931F4"/>
<stop offset="1" stop-color="#2500FF"/>
</linearGradient>
<linearGradient id="paint1_linear_819_3457" x1="34.3304" y1="71.5412" x2="255.67" y2="71.5412" gradientUnits="userSpaceOnUse">
<stop stop-color="#C931F4"/>
<stop offset="1" stop-color="#2500FF"/>
</linearGradient>
<linearGradient id="paint2_linear_819_3457" x1="66.2294" y1="155.427" x2="120.535" y2="155.613" gradientUnits="userSpaceOnUse">
<stop offset="0.34375" stop-color="#00FFC3"/>
<stop offset="1" stop-color="#4E77FF"/>
</linearGradient>
<linearGradient id="paint3_linear_819_3457" x1="223.769" y1="155.427" x2="169.464" y2="155.613" gradientUnits="userSpaceOnUse">
<stop offset="0.34375" stop-color="#00FFC3"/>
<stop offset="1" stop-color="#4E77FF"/>
</linearGradient>
<linearGradient id="paint4_linear_819_3457" x1="119.433" y1="150.008" x2="167.754" y2="160.093" gradientUnits="userSpaceOnUse">
<stop offset="0.34375" stop-color="#00FFC3"/>
<stop offset="1" stop-color="#4E77FF"/>
</linearGradient>
<linearGradient id="paint5_linear_819_3457" x1="47.349" y1="70.9425" x2="58.8389" y2="71.0509" gradientUnits="userSpaceOnUse">
<stop offset="0.34375" stop-color="#00FFC3"/>
<stop offset="1" stop-color="#4E77FF"/>
</linearGradient>
<linearGradient id="paint6_linear_819_3457" x1="66.2296" y1="71.5416" x2="77.7194" y2="71.6501" gradientUnits="userSpaceOnUse">
<stop offset="0.34375" stop-color="#00FFC3"/>
<stop offset="1" stop-color="#4E77FF"/>
</linearGradient>
<clipPath id="clip0_819_3457">
<rect width="290" height="290" fill="white"/>
</clipPath>
</defs>
</svg>
