<svg width="330" height="330" viewBox="0 0 330 330" fill="none" xmlns="http://www.w3.org/2000/svg">
<g clip-path="url(#clip0_819_3391)">
<path d="M45.0669 63.6177C41.4801 63.6177 38.5713 66.6989 38.5713 70.5061V211.9C38.5713 215.707 41.4801 218.799 45.0669 218.799H147.275V250.915H103.367C99.6419 250.915 96.6191 253.937 96.6191 257.662V259.646C96.6191 263.371 99.6419 266.383 103.367 266.383H228.829C232.554 266.383 235.576 263.371 235.576 259.646V257.662C235.576 253.937 232.554 250.915 228.829 250.915H184.91V218.799H284.933C288.52 218.799 291.429 215.707 291.429 211.9V70.5061C291.429 66.6989 288.52 63.6177 284.933 63.6177H45.0669Z" fill="white"/>
<path d="M45.0669 53.0129C43.132 53.0129 41.3415 53.5582 39.7798 54.4631C35.5665 55.9181 32.0767 59.1089 30.1721 63.134C29.4006 64.7646 28.8901 66.5116 28.6615 68.3005C28.4975 69.5835 28.5307 70.8774 28.5305 72.1677C28.5304 73.8245 28.5207 75.4754 28.5205 77.1325C28.5197 84.4966 28.5213 91.8636 28.5205 99.2277C28.5176 126.844 28.5134 154.454 28.5104 182.07C28.5096 189.987 28.5118 197.911 28.5104 205.827C28.5102 207.3 28.5107 208.765 28.5104 210.238C28.5102 211.529 28.4877 212.822 28.6514 214.105C29.0609 217.316 30.3805 220.392 32.4483 222.887C33.1305 223.711 33.8875 224.464 34.7141 225.143C37.0106 227.028 39.8091 228.274 42.7505 228.698C43.9171 228.866 45.0901 228.869 46.2651 228.869C47.1968 228.87 48.1233 228.869 49.0549 228.869C51.9827 228.87 54.9189 228.868 57.8467 228.869C75.4137 228.876 92.9801 228.882 110.547 228.889C118.665 228.893 126.78 228.896 134.898 228.899C135.653 228.9 136.41 228.899 137.164 228.899C137.163 232.865 137.156 236.828 137.154 240.793C132.411 240.791 127.667 240.785 122.924 240.783C118.122 240.781 113.315 240.777 108.513 240.773C107.255 240.772 105.994 240.764 104.736 240.763C103.895 240.762 103.058 240.746 102.219 240.803C101.28 240.866 100.344 241.007 99.4289 241.226C93.8917 242.551 89.2772 246.72 87.4045 252.102C86.9102 253.523 86.6002 255.013 86.498 256.514C86.4497 257.227 86.4584 257.944 86.4577 258.659C86.4571 259.564 86.4571 260.456 86.5483 261.358C86.7226 263.078 87.158 264.789 87.8576 266.373C89.9366 271.079 93.9356 274.566 98.8952 275.95C99.9764 276.252 101.099 276.438 102.219 276.514C103.09 276.573 103.964 276.554 104.837 276.554C105.817 276.555 106.798 276.553 107.778 276.554C112.188 276.559 116.6 276.56 121.011 276.565C149.109 276.59 177.205 276.619 205.303 276.645C211.511 276.651 217.716 276.659 223.924 276.665C225.231 276.667 226.545 276.664 227.852 276.665C228.947 276.666 230.027 276.661 231.115 276.514C234.054 276.118 236.871 274.942 239.222 273.13C242.41 270.674 244.615 267.153 245.486 263.231C245.858 261.555 245.867 259.862 245.869 258.155C245.87 255.648 245.487 253.192 244.469 250.884C243.013 247.585 240.567 244.776 237.449 242.948C235.51 241.811 233.352 241.066 231.125 240.763C229.347 240.521 227.527 240.613 225.737 240.612C223.564 240.61 221.394 240.604 219.221 240.602C211.558 240.595 203.892 240.589 196.229 240.581C195.907 240.581 195.585 240.582 195.263 240.581C195.266 236.781 195.269 232.982 195.273 229.181C195.988 229.182 196.703 229.181 197.418 229.181C205.362 229.189 213.301 229.194 221.245 229.202C238.437 229.217 255.627 229.239 272.818 229.252C275.553 229.254 278.291 229.25 281.026 229.252C282.067 229.253 283.106 229.261 284.148 229.262C285.203 229.263 286.252 229.241 287.3 229.091C290.313 228.658 293.184 227.386 295.538 225.455C296.671 224.526 297.676 223.448 298.539 222.263C300.161 220.034 301.222 217.436 301.671 214.72C301.916 213.234 301.901 211.739 301.902 210.238C301.904 208.581 301.901 206.93 301.902 205.273C301.906 199.382 301.908 193.49 301.913 187.599C301.933 157.59 301.958 127.575 301.973 97.5661C301.976 90.386 301.982 83.205 301.983 76.0246C301.983 74.5518 301.983 73.0865 301.983 71.6137C301.983 70.4845 301.985 69.3624 301.842 68.2399C301.513 65.6663 300.618 63.1684 299.224 60.979C296.818 57.2017 293.007 54.4982 288.649 53.4763C286.503 52.9726 284.31 53.0638 282.124 53.0632C279.625 53.0628 277.129 53.0638 274.631 53.0632C265.886 53.0612 257.131 53.0551 248.386 53.0532C199.039 53.0425 149.693 53.0338 100.345 53.0229C86.6031 53.02 72.8681 53.0158 59.1257 53.0129C55.6901 53.0122 52.2486 53.0135 48.8132 53.0129C48.0324 53.0126 47.2577 53.0132 46.4768 53.0129C46.3205 53.0129 46.1597 53.0129 46.0034 53.0129C45.8471 53.0129 46.0037 53.0132 45.0669 53.0129ZM280.874 74.1716C280.855 84.5492 280.878 94.9229 280.885 105.3C280.899 126.473 280.921 147.645 280.935 168.817C280.943 180.968 280.947 193.122 280.955 205.273C280.956 206.295 280.956 207.314 280.955 208.335C279.156 208.339 277.356 208.344 275.557 208.345C269.436 208.349 263.309 208.35 257.188 208.355C238.955 208.371 220.727 208.389 202.494 208.405C200.279 208.407 198.061 208.413 195.847 208.415C193.633 208.417 191.424 208.424 189.21 208.425C188.168 208.426 187.12 208.425 186.078 208.425C185.284 208.426 184.491 208.407 183.701 208.516C182.537 208.677 181.398 209.022 180.348 209.553C179.535 209.965 178.817 210.443 178.132 211.044C177.467 211.627 176.903 212.272 176.4 212.998C175.965 213.625 175.614 214.288 175.322 214.992C174.904 216.004 174.659 217.084 174.567 218.174C174.48 219.206 174.536 220.279 174.537 221.306C174.539 223.313 174.545 225.321 174.547 227.328C174.549 229.837 174.545 232.352 174.547 234.861C174.549 237.036 174.555 239.202 174.557 241.377C174.559 243.385 174.555 245.392 174.557 247.4C174.558 248.236 174.566 249.071 174.567 249.907C174.568 250.617 174.555 251.325 174.648 252.032C174.791 253.127 175.09 254.215 175.564 255.215C175.723 255.548 175.951 255.838 176.138 256.151C171.321 256.155 166.504 256.157 161.687 256.161C159.716 256.163 157.746 256.159 155.775 256.161C155.99 255.813 156.242 255.487 156.42 255.114C156.968 253.958 157.272 252.691 157.366 251.418C157.427 250.59 157.397 249.734 157.396 248.91C157.396 247.907 157.397 246.903 157.396 245.899C157.394 239.71 157.389 233.517 157.386 227.328C157.385 225.154 157.387 222.977 157.386 220.802C157.386 219.142 157.427 217.539 156.913 215.918C155.815 212.455 152.958 209.802 149.42 208.959C148.051 208.633 146.673 208.687 145.281 208.687C143.684 208.688 142.085 208.697 140.488 208.697C135.297 208.699 130.109 208.695 124.918 208.697C107.884 208.705 90.8438 208.711 73.8088 208.717C67.4209 208.72 61.0323 208.725 54.644 208.728C52.6395 208.728 50.6369 208.738 48.6318 208.738C48.6469 199.299 48.6328 189.857 48.6318 180.419C48.6295 159.062 48.6241 137.705 48.6218 116.348C48.6202 102.308 48.6424 88.2626 48.6118 74.2218C48.6788 74.2218 48.7459 74.2221 48.8132 74.2218C51.9363 74.2212 55.0658 74.2228 58.1889 74.2218C69.9013 74.2196 81.6137 74.2144 93.3262 74.2118C138.614 74.2022 183.894 74.1915 229.181 74.1819C243.548 74.1786 257.917 74.1848 272.284 74.1819C275.148 74.1812 278.01 74.1732 280.874 74.1716Z" fill="white"/>
<path d="M47.5764 67.1973C43.9896 67.1973 41.0808 70.2784 41.0808 74.0857V215.48C41.0808 219.287 43.9896 222.378 47.5764 222.378H149.785V254.494H105.876C102.151 254.494 99.1289 257.517 99.1289 261.241V263.226C99.1289 266.95 102.151 269.963 105.876 269.963H231.338C235.063 269.963 238.086 266.95 238.086 263.226V261.241C238.086 257.517 235.063 254.494 231.338 254.494H187.419V222.378H287.443C291.029 222.378 293.938 219.287 293.938 215.48V74.0857C293.938 70.2784 291.029 67.1973 287.443 67.1973H47.5764Z" fill="#02F4A7"/>
<path d="M47.5744 64.6544C47.2483 64.6544 46.9444 64.734 46.6579 64.8458C46.6318 64.8558 46.6031 64.8548 46.5774 64.8658C46.1049 64.9212 45.6344 65.0047 45.1778 65.1378C43.2983 65.686 41.6354 66.8809 40.4846 68.4613C39.6699 69.5799 39.1346 70.8561 38.853 72.2073C38.6477 73.1925 38.6719 74.188 38.6719 75.1883C38.6719 76.4773 38.6719 77.7667 38.6719 79.0555C38.6715 85.4995 38.6722 91.9477 38.6719 98.3914C38.6712 128.953 38.6725 159.515 38.6719 190.076C38.6715 197.072 38.6722 204.068 38.6719 211.064C38.6719 212.168 38.6719 213.272 38.6719 214.377C38.6719 215.265 38.6515 216.146 38.7927 217.026C39.0283 218.495 39.6087 219.909 40.4846 221.114C40.8265 221.585 41.2181 222.016 41.6428 222.413C42.0679 222.811 42.5281 223.173 43.0224 223.481C44.0337 224.111 45.1765 224.53 46.356 224.7C47.0279 224.796 47.6927 224.79 48.3701 224.79C49.1687 224.79 49.9682 224.79 50.7668 224.79C54.4932 224.79 58.2192 224.79 61.9456 224.79C79.5126 224.792 97.079 224.798 114.646 224.8C122.498 224.801 130.36 224.799 138.212 224.8C140.74 224.8 143.266 224.8 145.795 224.8C146.32 224.8 146.841 224.8 147.366 224.8C147.366 225.331 147.366 225.861 147.366 226.391C147.366 228.733 147.366 231.079 147.366 233.421C147.366 238.105 147.367 242.786 147.366 247.47C147.366 248.975 147.366 250.476 147.366 251.981C147.366 252.012 147.366 252.042 147.366 252.072C146.115 252.072 144.861 252.072 143.61 252.072C139.722 252.071 135.835 252.072 131.948 252.072C125.544 252.071 119.136 252.063 112.732 252.062C111.017 252.062 109.312 252.062 107.596 252.062C106.088 252.062 104.603 252.022 103.145 252.475C100.188 253.394 97.8472 255.825 97.0219 258.809C96.6645 260.103 96.7 261.397 96.6997 262.727C96.6997 263.931 96.8054 265.097 97.2033 266.242C98.2671 269.303 100.844 271.509 103.991 272.203C105.249 272.481 106.56 272.395 107.838 272.395C109.472 272.395 111.099 272.395 112.732 272.395C118.287 272.396 123.845 272.404 129.4 272.405C153.414 272.41 177.432 272.41 201.446 272.415C208.634 272.416 215.82 272.424 223.008 272.425C225.132 272.425 227.259 272.425 229.383 272.425C230.975 272.425 232.538 272.489 234.076 272.012C237.043 271.092 239.39 268.662 240.219 265.668C240.533 264.531 240.551 263.403 240.551 262.233C240.551 261.274 240.553 260.328 240.36 259.383C239.84 256.844 238.226 254.603 235.989 253.291C234.856 252.625 233.58 252.205 232.273 252.072C231.394 251.983 230.507 252.022 229.624 252.022C228.709 252.022 227.79 252.022 226.875 252.022C221.614 252.021 216.355 252.023 211.094 252.022C205.833 252.021 200.574 252.023 195.313 252.022C193.598 252.021 191.882 252.022 190.167 252.022C190.077 252.022 189.985 252.022 189.895 252.022C189.895 252.008 189.895 251.995 189.895 251.981C189.895 250.476 189.895 248.975 189.895 247.47C189.896 242.953 189.904 238.441 189.905 233.924C189.906 231.415 189.905 228.901 189.905 226.391C189.905 225.881 189.905 225.371 189.905 224.861C190.508 224.861 191.114 224.861 191.718 224.861C194.192 224.861 196.665 224.86 199.14 224.861C206.694 224.862 214.245 224.869 221.799 224.871C238.861 224.875 255.928 224.877 272.989 224.881C276.766 224.882 280.542 224.88 284.319 224.881C285.1 224.881 285.884 224.881 286.665 224.881C287.341 224.881 288.008 224.897 288.679 224.8C290.262 224.573 291.764 223.89 293 222.877C293.607 222.379 294.149 221.8 294.611 221.165C295.497 219.946 296.082 218.532 296.323 217.046C296.467 216.161 296.444 215.27 296.444 214.377C296.444 213.272 296.444 212.168 296.444 211.064C296.445 203.331 296.453 195.593 296.454 187.861C296.459 158.588 296.461 129.316 296.464 100.043C296.465 93.0473 296.464 86.0515 296.464 79.0555C296.464 77.7667 296.464 76.4773 296.464 75.1883C296.464 74.188 296.483 73.2038 296.293 72.2176C295.99 70.6447 295.294 69.1506 294.269 67.9173C293.767 67.3134 293.185 66.773 292.547 66.316C291.405 65.4984 290.071 64.9547 288.679 64.7553C287.957 64.6515 287.232 64.6644 286.504 64.6644C285.723 64.6644 284.949 64.6644 284.168 64.6644C281.981 64.6644 279.788 64.6647 277.602 64.6644C263.391 64.6637 249.183 64.6653 234.972 64.6644C191.871 64.6621 148.774 64.6666 105.673 64.6644C92.399 64.6637 79.1168 64.655 65.8427 64.6544C61.7825 64.6541 57.7274 64.6547 53.6672 64.6544C52.4181 64.6544 51.1703 64.6544 49.9209 64.6544C49.4526 64.6544 48.9795 64.6544 48.5109 64.6544C48.355 64.6544 48.5113 64.6544 47.5744 64.6544ZM47.091 69.6395C47.2535 69.6721 47.4023 69.7401 47.5744 69.7401C50.3852 69.7401 49.46 69.7401 50.3843 69.7401C51.7897 69.7401 53.1983 69.7401 54.604 69.7401C58.8202 69.7401 63.0364 69.7404 67.2529 69.7401C80.5267 69.7394 93.7989 69.7307 107.073 69.7301C147.831 69.7278 188.594 69.7323 229.353 69.7301C244.5 69.7294 259.644 69.7307 274.792 69.7301C278.227 69.7298 281.669 69.7304 285.105 69.7301C285.729 69.7301 286.353 69.7301 286.978 69.7301C287.97 69.7301 288.763 69.821 289.606 70.4249C289.894 70.6315 290.154 70.8777 290.381 71.15C290.961 71.8457 291.302 72.7188 291.389 73.6176C291.438 74.1374 291.409 74.6675 291.409 75.1883C291.409 76.293 291.409 77.3971 291.409 78.5018C291.409 83.4728 291.408 88.4456 291.409 93.4166C291.411 113.668 291.415 133.922 291.419 154.174C291.421 169.639 291.426 185.105 291.429 200.57C291.429 204.436 291.428 208.295 291.429 212.161C291.429 213.082 291.429 214.01 291.429 214.931C291.429 216.057 291.342 217.004 290.714 217.993C290.518 218.3 290.285 218.578 290.019 218.828C289.828 219.008 289.617 219.172 289.395 219.312C288.384 219.944 287.426 219.876 286.272 219.876C285.361 219.876 284.445 219.876 283.533 219.876C277.672 219.877 271.81 219.874 265.95 219.876C246.154 219.88 226.358 219.881 206.562 219.886C201.613 219.887 196.667 219.895 191.718 219.896C191.197 219.896 190.678 219.896 190.157 219.896C189.766 219.896 189.369 219.896 188.978 219.896C187.872 219.896 186.759 219.75 185.847 220.55C185.416 220.928 185.125 221.443 185 222.001C184.903 222.438 184.94 222.932 184.94 223.38C184.94 223.882 184.94 224.389 184.94 224.891C184.94 225.225 184.94 225.553 184.94 225.888C184.941 229.735 184.939 233.582 184.94 237.429C184.941 241.945 184.939 246.468 184.94 250.984C184.94 251.486 184.94 251.983 184.94 252.485C184.94 252.819 184.94 253.158 184.94 253.492C184.94 253.917 184.909 254.393 184.99 254.811C185.093 255.336 185.345 255.822 185.726 256.201C185.893 256.367 186.075 256.507 186.28 256.624C187.108 257.099 188.226 256.966 189.14 256.966C189.483 256.966 189.824 256.966 190.167 256.966C192.569 256.966 194.966 256.967 197.368 256.966C206.517 256.964 215.671 256.968 224.821 256.966C226.307 256.966 227.795 256.967 229.282 256.966C231.071 256.966 232.715 256.742 234.166 258.024C234.442 258.267 234.685 258.545 234.891 258.85C235.124 259.194 235.302 259.571 235.425 259.968C235.656 260.709 235.616 261.464 235.616 262.233C235.617 263.053 235.659 263.847 235.385 264.63C235.232 265.066 235.012 265.473 234.73 265.839C234.509 266.126 234.243 266.383 233.955 266.604C232.662 267.598 231.42 267.5 229.866 267.5C229.049 267.501 228.236 267.5 227.419 267.5C220.394 267.502 213.365 267.499 206.341 267.5C180.529 267.506 154.717 267.515 128.906 267.521C122.698 267.522 116.493 267.529 110.285 267.531C109.142 267.531 108.005 267.531 106.861 267.531C106.34 267.531 105.809 267.56 105.29 267.49C104.268 267.353 103.314 266.841 102.632 266.07C102.042 265.405 101.674 264.557 101.584 263.674C101.536 263.198 101.564 262.71 101.564 262.233C101.564 261.508 101.525 260.794 101.715 260.088C101.836 259.641 102.04 259.213 102.299 258.829C102.507 258.522 102.746 258.239 103.024 257.993C103.692 257.403 104.545 257.037 105.431 256.946C105.919 256.896 106.412 256.926 106.902 256.926C107.702 256.926 108.508 256.926 109.309 256.926C111.824 256.925 114.336 256.927 116.852 256.926C125.542 256.924 134.235 256.917 142.925 256.916C143.725 256.916 144.521 256.916 145.322 256.916C145.893 256.916 146.472 256.916 147.044 256.916C147.73 256.916 148.412 256.916 149.098 256.916C149.499 256.916 149.906 256.933 150.297 256.826C150.934 256.65 151.483 256.241 151.827 255.677C152.358 254.808 152.21 253.452 152.21 252.485C152.21 252.15 152.21 251.822 152.21 251.488C152.21 250.819 152.21 250.143 152.21 249.474C152.21 244.957 152.211 240.445 152.21 235.929C152.21 232.583 152.21 229.233 152.21 225.888C152.21 225.386 152.21 224.889 152.21 224.387C152.21 223.335 152.371 221.964 151.727 221.054C151.359 220.535 150.814 220.174 150.196 220.027C149.81 219.935 149.384 219.956 148.987 219.956C148.455 219.956 147.919 219.956 147.386 219.956C146.987 219.956 146.587 219.956 146.188 219.956C145.655 219.956 145.129 219.956 144.597 219.956C138.208 219.957 131.82 219.955 125.432 219.956C107.332 219.958 89.2295 219.964 71.1301 219.966C65.5404 219.967 59.9517 219.966 54.3623 219.966C52.6321 219.966 50.9057 219.966 49.1758 219.966C48.2992 219.966 47.382 220.059 46.5271 219.815C46.1068 219.695 45.703 219.496 45.3489 219.241C45.0517 219.028 44.7868 218.777 44.5532 218.496C43.9577 217.78 43.6045 216.882 43.5158 215.958C43.4659 215.434 43.4859 214.902 43.4859 214.377C43.4855 213.825 43.4859 213.267 43.4859 212.715C43.4855 207.192 43.4859 201.672 43.4859 196.149C43.4846 170.926 43.4862 145.699 43.4859 120.477C43.4852 107.037 43.4862 93.6032 43.4859 80.1634C43.4855 78.6907 43.4859 77.2153 43.4859 75.7423C43.4855 74.0075 43.3544 72.4964 44.5432 71.0694C45.1152 70.383 45.9022 69.8799 46.7788 69.6898C46.8825 69.6672 46.986 69.653 47.091 69.6395Z" fill="#02F4A7"/>
<path d="M38.5684 70.5083C38.5684 66.7011 41.4762 63.6147 45.0627 63.6147H284.937C288.524 63.6147 291.432 66.7011 291.432 70.5083V211.903C291.432 215.71 288.524 218.797 284.937 218.797H45.0627C41.4762 218.797 38.5684 215.71 38.5684 211.903V70.5083Z" fill="#000002" stroke="black" stroke-width="3.22266" stroke-miterlimit="10" stroke-linejoin="round"/>
<path d="M49.0768 79.0503C49.0768 75.2431 51.9843 72.1567 55.5711 72.1567H276.622C280.209 72.1567 283.117 75.2431 283.117 79.0503V202.076C283.117 205.883 280.209 208.97 276.622 208.97H55.5711C51.9843 208.97 49.0768 205.883 49.0768 202.076V79.0503Z" fill="url(#paint0_linear_819_3391)" stroke="black" stroke-width="3.22266" stroke-miterlimit="10" stroke-linejoin="round"/>
<path d="M147.28 218.797H184.913V250.918H147.28V218.797Z" fill="#1E2629" stroke="black" stroke-width="3.22266" stroke-miterlimit="10" stroke-linejoin="round"/>
<path d="M96.6201 257.662C96.6201 253.938 99.6397 250.918 103.364 250.918H228.829C232.554 250.918 235.574 253.938 235.574 257.662V259.641C235.574 263.366 232.554 266.386 228.829 266.386H103.364C99.6397 266.386 96.6201 263.366 96.6201 259.641V257.662Z" fill="#071A2A" stroke="black" stroke-width="3.22266" stroke-miterlimit="10" stroke-linejoin="round"/>
<path d="M276.806 73.6577C275.993 73.6584 275.147 73.7889 274.389 74.0908C273.559 74.4254 273.158 75.3757 273.493 76.2059C273.827 77.0357 274.778 77.4363 275.608 77.1021C275.594 77.1072 275.687 77.0654 275.698 77.0618C275.766 77.0402 275.83 77.0286 275.9 77.0115C276.072 76.969 276.246 76.9297 276.423 76.9107C276.908 76.8588 277.409 76.9052 277.864 77.0921C279.157 77.6245 279.704 79.1478 279.988 80.4053C280.471 82.5345 280.351 84.7553 280.351 86.9212C280.35 89.7742 280.352 92.6282 280.351 95.4812C280.342 111.699 280.32 127.915 280.3 144.133C280.284 158.399 280.274 172.668 280.271 186.934C280.27 189.938 280.271 192.934 280.271 195.938C280.27 196.839 280.261 197.745 280.26 198.647C280.26 199.38 280.283 200.115 280.17 200.842C279.983 202.043 279.425 203.16 278.256 203.642C277.848 203.81 277.416 203.891 276.977 203.924C276.849 203.933 276.713 203.928 276.584 203.924C276.549 203.923 276.406 203.913 276.413 203.914C275.476 203.794 274.619 204.457 274.5 205.394C274.381 206.332 275.043 207.188 275.98 207.307C278.267 207.588 280.732 206.683 282.144 204.84C282.915 203.833 283.359 202.611 283.553 201.366C283.74 200.169 283.685 198.947 283.684 197.74C283.684 196.239 283.685 194.74 283.684 193.239C283.683 188.433 283.676 183.632 283.674 178.827C283.667 151.347 283.618 123.858 283.604 96.3774C283.603 94.7258 283.595 93.0745 283.594 91.4229C283.593 90.2215 283.594 89.0188 283.594 87.8174C283.593 86.9164 283.594 86.0195 283.594 85.1184C283.594 84.451 283.6 83.7817 283.574 83.1143C283.448 79.9545 282.717 76.0824 279.717 74.3931C279.331 74.1762 278.923 74.0006 278.498 73.8794C277.95 73.7231 277.376 73.6577 276.806 73.6577Z" fill="white"/>
<path d="M69.7373 154.112C69.7373 146.571 75.851 140.457 83.3927 140.457H104.828C112.37 140.457 118.484 146.571 118.484 154.112V171.257C118.484 178.798 112.37 184.912 104.828 184.912H83.3927C75.851 184.912 69.7373 178.798 69.7373 171.257V154.112Z" stroke="black" stroke-width="3.22266" stroke-miterlimit="10" stroke-linejoin="round"/>
<path d="M143.137 154.456C143.137 146.914 149.25 140.8 156.792 140.8H178.227C185.769 140.8 191.883 146.914 191.883 154.456V171.6C191.883 179.142 185.769 185.255 178.227 185.255H156.792C149.25 185.255 143.137 179.142 143.137 171.6V154.456Z" stroke="black" stroke-width="3.22266" stroke-miterlimit="10" stroke-linejoin="round"/>
<path d="M213.71 154.112C213.71 146.571 219.823 140.457 227.365 140.457H248.801C256.342 140.457 262.456 146.571 262.456 154.112V171.257C262.456 178.798 256.342 184.912 248.801 184.912H227.365C219.823 184.912 213.71 178.798 213.71 171.257V154.112Z" stroke="black" stroke-width="3.22266" stroke-miterlimit="10" stroke-linejoin="round"/>
<path d="M94.5347 148.887C91.9543 149 89.6301 150.497 87.8677 152.351C86.1506 154.157 84.7787 156.355 83.8497 158.665C83.4426 159.677 83.1687 160.743 82.8626 161.787C82.4655 163.141 82.0733 164.49 81.6844 165.846C81.4375 166.706 81.1948 167.564 80.9493 168.424C80.5377 169.865 80.2268 171.296 80.3347 172.805C80.4552 174.428 81.8632 175.644 83.4868 175.524C85.1107 175.403 86.3266 173.985 86.2061 172.362C86.1435 171.572 86.4039 170.804 86.6189 170.055C86.8651 169.199 87.1168 168.334 87.3643 167.477C87.7517 166.136 88.1426 164.806 88.5425 163.469C88.7781 162.682 88.9821 161.87 89.2776 161.102C89.7288 159.931 90.3659 158.827 91.1106 157.819C91.3398 157.509 91.5705 157.203 91.8257 156.913C92.0056 156.709 92.1941 156.509 92.3897 156.319C93.1896 155.54 94.5905 154.378 95.6929 155.312C96.1831 155.727 96.4918 156.35 96.73 156.933C97.2201 158.133 97.4444 159.426 97.6465 160.699C98.3088 164.871 98.5186 169.108 98.9356 173.308C99.108 175.019 100.639 176.26 102.35 176.088C104.061 175.916 105.312 174.395 105.139 172.684C104.943 170.76 104.765 168.83 104.595 166.903C104.346 164.081 104.07 161.248 103.528 158.464C102.963 155.562 101.925 152.47 99.5298 150.558C98.9749 150.115 98.3603 149.748 97.7071 149.47C97.0522 149.193 96.3591 149.007 95.6523 148.927C95.274 148.884 94.9034 148.87 94.5347 148.887Z" fill="black"/>
<path d="M93.6787 161.475C92.4196 161.525 91.1647 161.701 89.9121 161.828C88.6781 161.953 87.4419 162.056 86.206 162.16C84.5834 162.292 83.3749 163.71 83.5071 165.332C83.6392 166.955 85.0668 168.163 86.6894 168.031C88.2769 167.907 89.8628 167.786 91.4529 167.699C92.2376 167.656 93.0233 167.594 93.8096 167.598C95.2749 167.606 96.7416 167.765 98.2004 167.89C99.9146 168.028 101.416 166.754 101.554 165.04C101.692 163.326 100.408 161.824 98.6938 161.687C97.0251 161.563 95.3536 161.408 93.6787 161.475Z" fill="black"/>
<path d="M237.087 150.156C234.892 150.107 232.871 150.936 231.054 152.109C230.25 152.63 229.49 153.216 228.829 153.912C227.792 155.002 227.188 156.311 226.583 157.669C224.977 161.275 224.769 165.346 225.546 169.19C225.77 170.301 226.134 171.386 226.774 172.332C227.649 173.624 228.937 174.506 230.269 175.272C230.974 175.678 231.686 176.062 232.444 176.36C234.797 177.285 237.44 177.553 239.907 176.944C241.265 176.609 242.481 175.985 243.663 175.252C244.569 174.691 245.439 174.068 246.14 173.258C246.93 172.347 247.465 171.261 247.973 170.176C248.7 168.618 248.031 166.764 246.473 166.037C244.914 165.31 243.06 165.989 242.334 167.548C242.071 168.115 241.822 168.774 241.387 169.24C241.05 169.601 240.585 169.853 240.168 170.106C239.685 170.4 239.211 170.682 238.668 170.851C236.975 171.378 235.152 170.913 233.643 170.086C233.217 169.852 232.795 169.615 232.394 169.341C232.201 169.209 231.989 169.069 231.85 168.877C231.742 168.729 231.688 168.537 231.638 168.364C231.426 167.619 231.329 166.827 231.256 166.057C231.116 164.58 231.166 163.078 231.538 161.636C231.716 160.946 231.981 160.295 232.263 159.642C232.477 159.147 232.674 158.614 233.008 158.182C233.416 157.655 233.999 157.27 234.559 156.923C235.284 156.475 236.09 156.061 236.966 156.077C237.73 156.091 238.464 156.379 239.161 156.661C239.68 156.871 240.195 157.084 240.612 157.467C241.243 158.048 241.567 158.867 241.891 159.642C242.516 161.145 244.244 161.859 245.747 161.233C247.251 160.608 247.954 158.88 247.329 157.377C246.675 155.802 245.877 154.308 244.61 153.137C243.667 152.266 242.559 151.661 241.377 151.183C240 150.625 238.583 150.189 237.087 150.156Z" fill="black"/>
<path d="M160.226 153.618L160.408 172.607C160.408 172.607 174.193 177.292 174.776 168.115C175.322 159.52 162.712 162.271 162.712 162.271C162.712 162.271 176.591 163.743 173.927 155.35C171.26 146.946 160.226 153.618 160.226 153.618Z" stroke="black" stroke-width="5.86398" stroke-miterlimit="10" stroke-linejoin="round"/>
<path d="M279.324 65.7824C278.543 65.6525 277.802 66.1794 277.672 66.9606C277.542 67.7421 278.069 68.4823 278.85 68.6122C279.68 68.7508 280.521 68.8136 281.348 68.9647C281.694 69.0279 282.133 69.0959 282.446 69.267C282.838 69.4817 283.092 69.8787 283.342 70.2338C283.622 70.6315 283.886 71.0356 284.138 71.4523C284.519 72.0849 284.869 72.7327 285.195 73.3959C285.327 73.6647 285.458 73.926 285.547 74.2115C286.055 75.8293 285.993 77.6878 285.991 79.3578C285.991 80.1944 286.675 80.8789 287.511 80.8786C288.348 80.8779 289.022 80.1944 289.022 79.3578C289.017 77.3414 289.036 75.2244 288.397 73.285C288.171 72.5983 287.818 71.9634 287.471 71.3315C287.141 70.7285 286.799 70.1352 286.424 69.559C285.725 68.4855 284.964 67.3296 283.795 66.7189C283.199 66.4076 282.518 66.2538 281.862 66.1349C281.02 65.9822 280.168 65.9219 279.324 65.7824Z" fill="white"/>
<path d="M287.813 85.0376C287.577 85.0102 287.337 85.0689 287.108 85.1385C286.945 85.1881 286.794 85.2906 286.655 85.3902C286.241 85.687 286.013 86.2046 285.88 86.6793C285.864 86.735 285.884 86.6822 285.799 87.0721C285.79 87.1243 285.803 87.171 285.799 87.2229C285.784 87.2516 285.774 87.2851 285.759 87.3138C285.597 87.6129 285.422 87.9106 285.326 88.24C285.008 89.3373 285.63 90.6167 286.867 90.6976C287.014 90.7069 287.165 90.686 287.31 90.657C287.442 90.6309 287.57 90.5816 287.693 90.5261C288.495 90.1623 288.825 89.2103 289.113 88.4517C289.254 88.0792 289.369 87.7128 289.404 87.3138C289.427 87.0582 289.411 86.7885 289.354 86.5381C289.291 86.2555 289.173 85.9361 288.982 85.7125C288.857 85.5662 288.735 85.4053 288.569 85.3096C288.336 85.1762 288.08 85.0686 287.813 85.0376Z" fill="white"/>
<path d="M42.7907 199.17C41.9992 199.202 41.3798 199.869 41.4111 200.661C41.4872 202.624 41.4817 204.589 41.5822 206.552C41.6054 207.006 41.6418 207.459 41.6831 207.912C41.7408 208.545 41.7991 209.139 42.0656 209.724C42.463 210.597 43.1629 211.269 43.8381 211.93C44.7943 212.866 45.8133 213.752 46.8896 214.548C47.8973 215.293 49.1162 215.525 50.2834 215.908C51.0797 216.165 51.9299 215.727 52.187 214.931C52.4439 214.135 52.0062 213.285 51.2099 213.027C50.4648 212.79 49.6437 212.647 48.9441 212.282C48.7391 212.176 48.5619 212.03 48.3801 211.89C47.5235 211.229 46.6972 210.531 45.9128 209.785C45.5206 209.412 45.0405 209.041 44.7749 208.556C44.6173 208.269 44.6276 207.94 44.5935 207.62C44.5377 207.098 44.4974 206.582 44.4626 206.059C44.3402 204.225 44.3556 202.385 44.2812 200.55C44.2499 199.759 43.5822 199.139 42.7907 199.17Z" fill="white"/>
<path d="M228.406 254.389C227.853 254.304 227.277 254.547 226.966 255.053C226.55 255.728 226.754 256.612 227.429 257.027C227.679 257.181 227.94 257.323 228.194 257.47C228.232 257.492 228.303 257.538 228.365 257.581C228.449 258.207 228.508 258.857 228.496 259.485C228.493 259.687 228.471 259.886 228.456 260.089C228.447 260.107 228.437 260.144 228.426 260.169C228.398 260.233 228.329 260.372 228.315 260.401C228.258 260.52 228.175 260.688 228.114 260.804C227.915 261.18 227.717 261.55 227.51 261.922C227.105 262.654 227.361 263.571 228.093 263.976C228.826 264.381 229.753 264.114 230.158 263.382C230.466 262.819 230.776 262.263 231.044 261.68C231.185 261.376 231.336 261.045 231.397 260.713C231.556 259.837 231.45 258.91 231.346 258.034C231.265 257.34 231.233 256.582 230.813 255.99C230.336 255.319 229.616 255.006 228.939 254.59C228.771 254.486 228.59 254.417 228.406 254.389Z" fill="white"/>
<path d="M178.78 146.354C179.042 146.387 179.334 146.329 179.567 146.453C180.892 147.158 182.504 147.61 183.402 148.813C184.645 150.476 184.904 152.684 185.664 154.615C185.851 155.089 185.763 154.468 185.763 155.402" stroke="white" stroke-width="2.8528" stroke-miterlimit="10" stroke-linecap="round" stroke-linejoin="round"/>
<path d="M248.992 145.732C253.214 146.103 254.808 148.744 256.183 152.226" stroke="white" stroke-width="2.8528" stroke-miterlimit="10" stroke-linecap="round" stroke-linejoin="round"/>
<path d="M105.813 145.418C108.113 144.911 110.569 147.948 111.291 149.645C111.419 149.947 112.297 151.955 112.151 151.939" stroke="white" stroke-width="2.8528" stroke-miterlimit="10" stroke-linecap="round" stroke-linejoin="round"/>
<path d="M74.9677 173.275C74.5842 173.567 74.4859 173.547 75.0605 174.351C76.1684 175.903 77.3705 177.389 78.6322 178.819C79.0347 179.275 80.2693 180.042 80.916 179.921" stroke="white" stroke-width="2.8528" stroke-miterlimit="10" stroke-linecap="round" stroke-linejoin="round"/>
<path d="M150.377 172.567C150.204 171.649 150.849 174.374 151.103 175.273C151.134 175.381 151.213 175.471 151.268 175.57C152.475 177.741 153.86 179.161 156.47 179.403" stroke="white" stroke-width="2.8528" stroke-miterlimit="10" stroke-linecap="round" stroke-linejoin="round"/>
<path d="M219.964 172.388C218.819 172.751 220.978 175.793 221.188 176.25C221.894 177.785 223.851 179.224 225.566 179.249" stroke="white" stroke-width="2.8528" stroke-miterlimit="10" stroke-linecap="round" stroke-linejoin="round"/>
<path d="M256.829 157.25C256.079 157.218 256.511 158.226 257.374 157.794C257.586 157.688 257.238 156.624 256.878 156.804C256.35 157.068 256.286 159.049 257.076 158.785C258.011 158.473 257.443 157.275 256.829 157.25Z" stroke="white" stroke-width="2.8528" stroke-miterlimit="10" stroke-linecap="round" stroke-linejoin="round"/>
<path d="M185.842 160.42C184.284 160.474 187.284 160.348 185.941 159.677C185.206 159.309 185.001 160.719 185.347 161.064C185.726 161.443 187.32 160.368 185.842 160.42Z" stroke="white" stroke-width="2.8528" stroke-miterlimit="10" stroke-linecap="round" stroke-linejoin="round"/>
<path d="M112.004 156.768C110.566 158.236 113.958 156.047 112.047 156.047C111.683 156.047 111.881 157.016 112.047 157.149C112.237 157.301 112.884 156.725 112.641 156.725C112.269 156.725 112.089 156.681 112.004 156.768Z" stroke="white" stroke-width="2.8528" stroke-miterlimit="10" stroke-linecap="round" stroke-linejoin="round"/>
<path d="M104.246 101.525C104.378 101.525 104.55 101.509 104.763 101.476C104.976 101.443 105.156 101.418 105.304 101.402C105.451 101.385 105.557 101.377 105.623 101.377H105.77C106.131 101.377 106.557 101.509 107.049 101.771C107.54 102.033 107.868 102.295 108.031 102.557C108.228 102.95 108.326 103.393 108.326 103.884C108.326 104.572 108.163 105.081 107.835 105.408C107.245 105.998 106.229 106.375 104.787 106.539C104.492 106.572 104.091 106.629 103.583 106.711C103.075 106.793 102.772 106.834 102.673 106.834L101.936 106.981L102.084 111.454C102.116 112.208 102.133 113.601 102.133 115.633C102.133 118.189 102.1 119.975 102.034 120.991C101.903 123.219 101.797 124.653 101.715 125.292C101.633 125.931 101.461 126.431 101.199 126.791C100.871 127.316 100.314 127.578 99.5275 127.578C98.7738 127.578 98.2166 127.316 97.8563 126.791C97.4631 126.234 97.2008 124.432 97.0696 121.384C96.9713 119.516 96.9223 117.14 96.9223 114.256V112.044L97.0206 107.374L94.7103 107.08C93.4976 106.948 92.6211 106.776 92.0803 106.563C91.5395 106.35 91.089 106.015 90.7287 105.556C90.4335 105.228 90.2863 104.835 90.2863 104.376C90.2863 103.884 90.4745 103.417 90.8515 102.975C91.2282 102.532 91.7281 102.246 92.3507 102.115C92.6784 102.049 93.039 102.016 93.4322 102.016C94.1202 102.016 94.8576 102.065 95.6442 102.164C96.4634 102.262 97.1679 102.311 97.758 102.311C98.4135 102.311 99.3799 102.213 100.658 102.016C102.1 101.787 103.296 101.623 104.246 101.525Z" fill="url(#paint1_linear_819_3391)"/>
<path d="M121.873 105.654C121.48 105.49 120.857 105.409 120.005 105.409C118.432 105.409 117.064 106.26 115.901 107.964C114.738 109.669 114.156 111.668 114.156 113.962C114.156 114.06 114.164 114.199 114.18 114.379C114.197 114.56 114.205 114.699 114.205 114.797C114.401 117.157 115.286 119.025 116.859 120.401C117.744 121.253 118.776 121.679 119.956 121.679C120.349 121.679 120.661 121.663 120.89 121.63C122.463 121.466 123.757 120.606 124.774 119.049C125.789 117.493 126.297 115.699 126.297 113.667C126.297 112.192 126.019 110.832 125.462 109.587C125.101 108.735 124.569 107.924 123.864 107.153C123.16 106.383 122.496 105.884 121.873 105.654ZM117.547 101.181C118.17 100.985 118.957 100.886 119.907 100.886C121.709 100.886 123.217 101.165 124.429 101.722C125.413 102.18 126.436 102.942 127.502 104.007C128.567 105.072 129.361 106.113 129.886 107.129C130.902 109.194 131.41 111.487 131.41 114.011C131.41 116.96 130.721 119.615 129.345 121.974C128.329 123.678 127.035 125.022 125.462 126.005C123.889 126.988 122.25 127.48 120.546 127.48C120.022 127.48 119.514 127.43 119.022 127.332C116.794 126.906 114.852 125.866 113.197 124.211C111.542 122.556 110.403 120.483 109.781 117.992C109.453 116.518 109.289 114.863 109.289 113.028C109.289 110.963 109.469 109.505 109.83 108.653C110.485 106.883 111.493 105.343 112.853 104.032C114.213 102.721 115.778 101.771 117.547 101.181Z" fill="url(#paint2_linear_819_3391)"/>
<path d="M132.815 105.704C132.815 105.671 132.806 105.589 132.79 105.458C132.774 105.326 132.765 105.245 132.765 105.212C132.765 104.294 133.126 103.565 133.847 103.025C134.568 102.484 135.535 102.213 136.747 102.213C137.108 102.213 137.386 102.23 137.583 102.262C137.878 102.295 139.369 102.377 142.056 102.508C144.35 102.639 145.833 102.869 146.505 103.197C147.176 103.524 147.512 104.212 147.512 105.261C147.512 105.785 147.324 106.277 146.947 106.736C146.57 107.195 146.119 107.49 145.595 107.621C145.333 107.686 144.956 107.719 144.465 107.719C143.58 107.719 141.745 107.588 138.959 107.325L137.091 107.129L137.189 109.39L137.239 111.651H140.68C143.039 111.717 144.366 111.832 144.661 111.995C145.481 112.421 145.89 113.159 145.89 114.207C145.89 114.371 145.874 114.502 145.841 114.601C145.677 115.42 145.145 115.993 144.244 116.321C143.342 116.649 141.876 116.829 139.844 116.862H139.058C137.878 116.862 137.165 116.968 136.919 117.181C136.674 117.394 136.55 118.058 136.55 119.172V119.86C136.55 120.647 136.583 121.155 136.649 121.384C136.714 121.614 136.862 121.761 137.091 121.827C137.353 121.892 138.238 121.925 139.746 121.925H141.368C141.695 121.925 142.105 121.917 142.597 121.9C143.088 121.884 143.4 121.876 143.531 121.876C144.645 121.876 145.415 122.072 145.841 122.466C146.398 122.957 146.677 123.547 146.677 124.235C146.677 125.153 146.234 125.857 145.35 126.349C144.956 126.579 143.981 126.783 142.425 126.963C140.868 127.144 139.483 127.234 138.271 127.234C137.681 127.234 137.288 127.217 137.091 127.185C134.863 126.857 133.306 125.841 132.422 124.137C132.126 123.482 131.979 122.613 131.979 121.532C131.979 121.335 132.012 119.991 132.077 117.501C132.209 113.863 132.389 111.127 132.618 109.292C132.782 108.145 132.864 107.162 132.864 106.343C132.864 106.015 132.847 105.802 132.815 105.704Z" fill="url(#paint3_linear_819_3391)"/>
<path d="M152.407 101.574C152.768 101.476 154.062 101.427 156.291 101.427H157.667C160.125 101.492 161.747 101.607 162.534 101.771C163.32 101.935 163.861 102.295 164.156 102.852C164.32 103.147 164.402 103.508 164.402 103.934C164.402 104.557 164.221 105.081 163.861 105.507C163.173 106.228 161.649 106.588 159.289 106.588C158.404 106.588 157.7 106.572 157.176 106.539C156.75 106.506 156.143 106.49 155.357 106.49C154.308 106.49 153.702 106.539 153.538 106.637C153.047 106.998 152.768 108.407 152.702 110.865V112.782L155.21 112.635C157.143 112.503 158.257 112.389 158.552 112.29C159.273 112.127 159.896 112.045 160.42 112.045C161.895 112.045 162.861 112.47 163.32 113.323C163.517 113.749 163.615 114.109 163.615 114.404C163.615 114.83 163.402 115.305 162.976 115.83C161.96 117.042 159.83 117.648 156.586 117.648H156.242H153.489L153.538 121.679V123.449C153.538 124.989 153.407 125.972 153.145 126.398C152.817 126.857 152.391 127.087 151.867 127.087C151.375 127.087 151.015 127.004 150.785 126.841C149.933 126.316 149.294 123.252 148.868 117.648C148.835 117.321 148.762 116.329 148.647 114.674C148.533 113.02 148.442 111.881 148.377 111.258C148.311 110.209 148.278 109.472 148.278 109.046C148.278 106.883 148.606 105.212 149.261 104.032C149.917 102.852 150.966 102.033 152.407 101.574Z" fill="url(#paint4_linear_819_3391)"/>
<path d="M167.281 102.754C167.806 102.328 168.216 102.115 168.51 102.115C168.871 102.115 169.33 102.36 169.887 102.852L170.722 103.589L170.771 108.358V110.57C170.771 113.388 170.722 115.731 170.624 117.599C170.526 119.172 170.477 120.368 170.477 121.187C170.477 121.875 170.509 122.252 170.575 122.318C170.739 122.482 171.951 122.596 174.213 122.662C176.375 122.728 177.801 122.932 178.489 123.276C179.177 123.621 179.521 124.284 179.521 125.267C179.521 126.644 178.489 127.496 176.425 127.823C175.769 127.922 175.015 127.971 174.163 127.971C171.181 127.971 169.15 127.676 168.068 127.086C166.134 126.103 165.168 123.645 165.168 119.713C165.168 118.402 165.266 116.943 165.463 115.338C165.561 114.355 165.692 112.405 165.856 109.488C165.954 107.194 166.102 105.605 166.298 104.72C166.495 103.835 166.823 103.18 167.281 102.754Z" fill="url(#paint5_linear_819_3391)"/>
<path d="M191.475 102.115C191.999 101.984 192.425 101.951 192.753 102.017C192.818 102.017 192.957 102.033 193.171 102.066C193.384 102.099 193.678 102.123 194.055 102.14C194.432 102.156 194.768 102.18 195.063 102.213C196.407 102.345 197.349 102.508 197.889 102.705C198.43 102.901 198.815 103.213 199.045 103.639C199.208 103.966 199.29 104.278 199.29 104.573C199.29 105.097 199.086 105.564 198.676 105.974C198.266 106.383 197.717 106.654 197.029 106.785L196.243 106.932L196.292 114.797L196.39 122.613L197.324 122.761C198.209 122.892 198.906 123.17 199.413 123.596C199.921 124.022 200.175 124.514 200.175 125.071C200.175 125.562 199.979 126.038 199.586 126.496C199.356 126.791 199.094 126.988 198.799 127.086C198.504 127.185 197.947 127.267 197.128 127.332C196.767 127.365 196.136 127.43 195.235 127.529C194.334 127.627 193.736 127.693 193.441 127.726C192.72 127.791 192.228 127.824 191.966 127.824C190.721 127.824 189.738 127.512 189.017 126.89C188.493 126.464 188.23 125.956 188.23 125.366C188.23 124.874 188.427 124.424 188.82 124.014C189.213 123.604 189.754 123.301 190.442 123.105L191.376 122.81L191.425 114.748V106.686H190.737C189.754 106.686 189.099 106.26 188.771 105.409C188.706 105.245 188.673 105.015 188.673 104.72C188.673 104.131 188.927 103.598 189.434 103.123C189.943 102.647 190.623 102.312 191.475 102.115Z" fill="url(#paint6_linear_819_3391)"/>
<path d="M215.147 101.525C215.279 101.525 215.451 101.509 215.664 101.476C215.877 101.443 216.057 101.418 216.204 101.402C216.352 101.385 216.458 101.377 216.524 101.377H216.671C217.032 101.377 217.458 101.509 217.95 101.771C218.441 102.033 218.769 102.295 218.932 102.557C219.129 102.95 219.227 103.393 219.227 103.884C219.227 104.572 219.064 105.081 218.736 105.408C218.146 105.998 217.13 106.375 215.688 106.539C215.393 106.572 214.992 106.629 214.484 106.711C213.976 106.793 213.673 106.834 213.574 106.834L212.837 106.981L212.985 111.454C213.017 112.208 213.034 113.601 213.034 115.633C213.034 118.189 213.001 119.975 212.935 120.991C212.804 123.219 212.698 124.653 212.616 125.292C212.534 125.931 212.362 126.431 212.1 126.791C211.772 127.316 211.215 127.578 210.428 127.578C209.675 127.578 209.118 127.316 208.757 126.791C208.364 126.234 208.102 124.432 207.971 121.384C207.872 119.516 207.823 117.14 207.823 114.256V112.044L207.922 107.374L205.611 107.08C204.399 106.948 203.522 106.776 202.981 106.563C202.44 106.35 201.99 106.015 201.63 105.556C201.334 105.228 201.187 104.835 201.187 104.376C201.187 103.884 201.376 103.417 201.752 102.975C202.129 102.532 202.629 102.246 203.252 102.115C203.579 102.049 203.94 102.016 204.333 102.016C205.021 102.016 205.759 102.065 206.545 102.164C207.364 102.262 208.069 102.311 208.659 102.311C209.314 102.311 210.281 102.213 211.559 102.016C213.001 101.787 214.197 101.623 215.147 101.525Z" fill="url(#paint7_linear_819_3391)"/>
<path d="M229.874 106.441C229.218 106.277 228.645 106.195 228.153 106.195C226.679 106.195 225.646 106.719 225.057 107.768C224.729 108.325 224.565 109.407 224.565 111.012V113.421L225.597 113.962C226.253 114.289 227.023 114.453 227.908 114.453C228.989 114.453 229.89 114.224 230.611 113.765C232.217 112.815 233.02 111.651 233.02 110.275C233.02 109.882 232.954 109.505 232.823 109.144C232.659 108.587 232.283 108.038 231.693 107.497C231.103 106.957 230.497 106.605 229.874 106.441ZM225.057 101.328C225.974 101.001 226.892 100.837 227.809 100.837C227.908 100.837 228.08 100.845 228.325 100.861C228.571 100.878 228.76 100.886 228.891 100.886C230.529 100.919 231.889 101.198 232.971 101.722C235.002 102.705 236.477 104.179 237.395 106.146C237.854 107.129 238.083 108.407 238.083 109.98C238.05 111.619 237.837 112.864 237.444 113.716C237.018 114.568 236.313 115.469 235.33 116.419C234.347 117.37 233.397 118.074 232.479 118.533C231.496 119.025 230.431 119.271 229.284 119.271H228.399C226.859 119.271 225.843 119.221 225.352 119.123H225.204C225.007 119.123 224.909 119.549 224.909 120.401V121.581V122.662C224.909 123.744 224.762 124.514 224.467 124.973C224.106 125.53 223.647 125.808 223.09 125.808C221.681 125.808 220.829 124.53 220.534 121.974C220.207 118.959 220.043 115.223 220.043 110.767C220.043 109.685 220.075 108.849 220.141 108.259C220.403 106.588 220.96 105.146 221.812 103.934C222.664 102.721 223.746 101.853 225.057 101.328Z" fill="url(#paint8_linear_819_3391)"/>
</g>
<defs>
<linearGradient id="paint0_linear_819_3391" x1="49.0768" y1="140.563" x2="283.117" y2="140.563" gradientUnits="userSpaceOnUse">
<stop stop-color="#00FFB8"/>
<stop offset="1" stop-color="#4C7CF5"/>
</linearGradient>
<linearGradient id="paint1_linear_819_3391" x1="87.0501" y1="119" x2="238.083" y2="119" gradientUnits="userSpaceOnUse">
<stop/>
<stop offset="1" stop-color="#0F0D37"/>
</linearGradient>
<linearGradient id="paint2_linear_819_3391" x1="87.0501" y1="119" x2="238.083" y2="119" gradientUnits="userSpaceOnUse">
<stop/>
<stop offset="1" stop-color="#0F0D37"/>
</linearGradient>
<linearGradient id="paint3_linear_819_3391" x1="87.0501" y1="119" x2="238.083" y2="119" gradientUnits="userSpaceOnUse">
<stop/>
<stop offset="1" stop-color="#0F0D37"/>
</linearGradient>
<linearGradient id="paint4_linear_819_3391" x1="87.05" y1="119" x2="238.083" y2="119" gradientUnits="userSpaceOnUse">
<stop/>
<stop offset="1" stop-color="#0F0D37"/>
</linearGradient>
<linearGradient id="paint5_linear_819_3391" x1="87.0501" y1="119" x2="238.083" y2="119" gradientUnits="userSpaceOnUse">
<stop/>
<stop offset="1" stop-color="#0F0D37"/>
</linearGradient>
<linearGradient id="paint6_linear_819_3391" x1="87.0499" y1="119" x2="238.083" y2="119" gradientUnits="userSpaceOnUse">
<stop/>
<stop offset="1" stop-color="#0F0D37"/>
</linearGradient>
<linearGradient id="paint7_linear_819_3391" x1="87.0501" y1="119" x2="238.083" y2="119" gradientUnits="userSpaceOnUse">
<stop/>
<stop offset="1" stop-color="#0F0D37"/>
</linearGradient>
<linearGradient id="paint8_linear_819_3391" x1="87.0501" y1="119" x2="238.083" y2="119" gradientUnits="userSpaceOnUse">
<stop/>
<stop offset="1" stop-color="#0F0D37"/>
</linearGradient>
<clipPath id="clip0_819_3391">
<rect width="330" height="330" fill="white"/>
</clipPath>
</defs>
</svg>
