<svg width="320" height="320" viewBox="0 0 320 320" fill="none" xmlns="http://www.w3.org/2000/svg">
<path d="M43.6999 61.6899C40.2199 61.6899 37.3999 64.6799 37.3999 68.3699V205.48C37.3999 209.17 40.2199 212.17 43.6999 212.17H142.81V243.31H100.23C96.6199 243.31 93.6899 246.24 93.6899 249.85V251.77C93.6899 255.38 96.6199 258.3 100.23 258.3H221.89C225.5 258.3 228.43 255.38 228.43 251.77V249.85C228.43 246.24 225.5 243.31 221.89 243.31H179.3V212.17H276.29C279.77 212.17 282.59 209.17 282.59 205.48V68.3699C282.59 64.6799 279.77 61.6899 276.29 61.6899H43.6999Z" fill="white"/>
<path d="M43.6999 51.4102C41.8199 51.4102 40.0899 51.9402 38.5699 52.8202C34.4799 54.2302 31.0999 57.3302 29.2499 61.2302C28.4999 62.8102 28.0099 64.5102 27.7899 66.2402C27.6299 67.4802 27.6599 68.7402 27.6599 69.9902C27.6599 71.6002 27.6599 73.2002 27.6599 74.8002C27.6599 81.9402 27.6599 89.0802 27.6599 96.2302C27.6599 123.01 27.6599 149.78 27.6599 176.56C27.6599 184.24 27.6599 191.92 27.6599 199.6C27.6599 201.03 27.6599 202.45 27.6599 203.88C27.6599 205.13 27.6399 206.39 27.7999 207.63C28.1999 210.74 29.4799 213.73 31.4799 216.15C32.1399 216.95 32.8799 217.68 33.6799 218.34C35.9099 220.17 38.6199 221.38 41.4699 221.79C42.5999 221.95 43.7399 221.96 44.8799 221.96C45.7799 221.96 46.6799 221.96 47.5899 221.96C50.4299 221.96 53.2799 221.96 56.1199 221.96C73.1499 221.96 90.1899 221.97 107.22 221.98C115.09 221.98 122.96 221.98 130.83 221.98C131.56 221.98 132.3 221.98 133.03 221.98C133.03 225.83 133.03 229.67 133.03 233.51C128.43 233.51 123.83 233.51 119.23 233.51C114.57 233.51 109.91 233.51 105.26 233.51C104.04 233.51 102.82 233.51 101.6 233.51C100.78 233.51 99.9699 233.49 99.16 233.55C98.2499 233.61 97.3399 233.75 96.4499 233.96C91.0799 235.24 86.6099 239.29 84.7899 244.51C84.3099 245.89 84.0099 247.33 83.91 248.79C83.86 249.48 83.8699 250.18 83.8699 250.87C83.8699 251.75 83.8699 252.61 83.9599 253.49C84.1299 255.16 84.5499 256.82 85.2299 258.35C87.25 262.91 91.1199 266.29 95.9299 267.64C96.9799 267.93 98.0699 268.11 99.1499 268.19C99.9999 268.25 100.84 268.23 101.69 268.23C102.64 268.23 103.59 268.23 104.54 268.23C108.82 268.23 113.09 268.23 117.37 268.23C144.62 268.25 171.86 268.28 199.11 268.31C205.13 268.31 211.15 268.32 217.17 268.33C218.44 268.33 219.71 268.33 220.98 268.33C222.04 268.33 223.09 268.33 224.14 268.18C226.99 267.8 229.72 266.66 232 264.9C235.09 262.52 237.23 259.1 238.07 255.3C238.43 253.67 238.44 252.03 238.44 250.38C238.44 247.95 238.07 245.57 237.08 243.33C235.67 240.13 233.3 237.41 230.27 235.63C228.39 234.53 226.3 233.8 224.14 233.51C222.42 233.28 220.65 233.37 218.92 233.36C216.81 233.36 214.71 233.36 212.6 233.36C205.17 233.36 197.74 233.35 190.31 233.34C190 233.34 189.69 233.34 189.37 233.34C189.37 229.65 189.37 225.97 189.37 222.29C190.06 222.29 190.76 222.29 191.45 222.29C199.15 222.29 206.85 222.3 214.56 222.31C231.23 222.33 247.9 222.35 264.57 222.36C267.22 222.36 269.88 222.36 272.53 222.36C273.54 222.36 274.55 222.36 275.56 222.36C276.58 222.36 277.6 222.34 278.62 222.19C281.54 221.77 284.33 220.54 286.61 218.66C287.71 217.76 288.68 216.71 289.52 215.56C291.09 213.4 292.12 210.88 292.56 208.25C292.8 206.81 292.78 205.36 292.78 203.9C292.78 202.29 292.78 200.69 292.78 199.09C292.78 193.38 292.78 187.66 292.78 181.95C292.8 152.85 292.82 123.75 292.84 94.6502C292.84 87.6902 292.84 80.7202 292.84 73.7602C292.84 72.3302 292.84 70.9102 292.84 69.4802C292.84 68.3902 292.84 67.3002 292.7 66.2102C292.38 63.7102 291.51 61.2902 290.16 59.1702C287.83 55.5102 284.13 52.8902 279.91 51.8902C277.83 51.4002 275.7 51.4902 273.58 51.4902C271.16 51.4902 268.74 51.4902 266.31 51.4902C257.83 51.4902 249.34 51.4902 240.86 51.4902C193.01 51.4802 145.16 51.4702 97.3099 51.4602C83.9799 51.4602 70.6699 51.4602 57.3399 51.4602C54.0099 51.4602 50.6699 51.4602 47.3399 51.4602C46.5799 51.4602 45.8299 51.4602 45.0699 51.4602H44.6099C44.4599 51.4602 44.6099 51.4602 43.6999 51.4602V51.4102ZM272.36 71.9302C272.34 81.9902 272.36 92.0502 272.36 102.12C272.37 122.65 272.39 143.18 272.41 163.71C272.41 175.49 272.42 187.28 272.43 199.06C272.43 200.05 272.43 201.04 272.43 202.03C270.69 202.03 268.94 202.03 267.2 202.03C261.26 202.03 255.32 202.03 249.39 202.03C231.71 202.05 214.03 202.06 196.35 202.08C194.2 202.08 192.05 202.08 189.9 202.08C187.75 202.08 185.61 202.08 183.46 202.08C182.45 202.08 181.43 202.08 180.42 202.08C179.65 202.08 178.88 202.06 178.12 202.17C176.99 202.33 175.89 202.66 174.87 203.18C174.08 203.58 173.39 204.04 172.72 204.63C172.08 205.2 171.53 205.82 171.04 206.52C170.62 207.13 170.28 207.77 170 208.45C169.59 209.43 169.36 210.48 169.27 211.54C169.19 212.54 169.24 213.58 169.24 214.58C169.24 216.53 169.24 218.47 169.24 220.42C169.24 222.85 169.24 225.29 169.24 227.72C169.24 229.83 169.24 231.93 169.24 234.04C169.24 235.99 169.24 237.93 169.24 239.88C169.24 240.69 169.24 241.5 169.24 242.31C169.24 243 169.23 243.68 169.32 244.37C169.46 245.43 169.75 246.49 170.21 247.46C170.36 247.78 170.58 248.06 170.77 248.37C166.1 248.37 161.43 248.37 156.76 248.37C154.85 248.37 152.94 248.37 151.03 248.37C151.24 248.03 151.48 247.72 151.65 247.35C152.18 246.23 152.48 245 152.57 243.77C152.63 242.97 152.6 242.14 152.6 241.34C152.6 240.37 152.6 239.39 152.6 238.42C152.6 232.42 152.6 226.41 152.6 220.41C152.6 218.3 152.6 216.19 152.6 214.08C152.6 212.47 152.64 210.92 152.14 209.34C151.08 205.98 148.3 203.41 144.87 202.59C143.54 202.27 142.21 202.33 140.86 202.33C139.31 202.33 137.76 202.33 136.21 202.33C131.18 202.33 126.15 202.33 121.11 202.33C104.59 202.33 88.07 202.34 71.5499 202.35C65.36 202.35 59.1599 202.35 52.9699 202.35C51.0299 202.35 49.0799 202.35 47.1399 202.35C47.1499 193.2 47.1399 184.04 47.1399 174.89C47.1399 154.18 47.1399 133.47 47.1399 112.76C47.1399 99.1502 47.1599 85.5302 47.1399 71.9102C47.2099 71.9102 47.2699 71.9102 47.3399 71.9102C50.3699 71.9102 53.3999 71.9102 56.4299 71.9102C67.7899 71.9102 79.1499 71.9102 90.4999 71.9102C134.42 71.9102 178.32 71.8902 222.24 71.8802C236.17 71.8802 250.11 71.8802 264.04 71.8802C266.82 71.8802 269.59 71.8802 272.37 71.8802L272.36 71.9302Z" fill="white"/>
<path d="M46.13 65.1602C42.65 65.1602 39.83 68.1501 39.83 71.8401V208.95C39.83 212.64 42.65 215.64 46.13 215.64H145.24V246.78H102.66C99.05 246.78 96.12 249.71 96.12 253.32V255.24C96.12 258.85 99.05 261.77 102.66 261.77H224.32C227.93 261.77 230.86 258.85 230.86 255.24V253.32C230.86 249.71 227.93 246.78 224.32 246.78H181.73V215.64H278.72C282.2 215.64 285.02 212.64 285.02 208.95V71.8401C285.02 68.1501 282.2 65.1602 278.72 65.1602H46.13Z" fill="#02F4A7"/>
<path d="M46.13 62.7C45.81 62.7 45.52 62.78 45.24 62.89C45.21 62.89 45.19 62.89 45.16 62.91C44.7 62.96 44.25 63.04 43.8 63.17C41.98 63.7 40.36 64.86 39.25 66.39C38.46 67.47 37.94 68.71 37.67 70.02C37.47 70.98 37.49 71.94 37.49 72.91V76.66C37.49 82.91 37.49 89.16 37.49 95.41C37.49 125.05 37.49 154.68 37.49 184.32C37.49 191.1 37.49 197.89 37.49 204.67V207.88C37.49 208.74 37.47 209.59 37.61 210.45C37.84 211.87 38.4 213.25 39.25 214.41C39.58 214.87 39.96 215.28 40.37 215.67C40.78 216.06 41.23 216.41 41.71 216.71C42.69 217.32 43.8 217.73 44.94 217.89C45.59 217.98 46.24 217.98 46.89 217.98H49.21C52.82 217.98 56.44 217.98 60.05 217.98C77.08 217.98 94.12 217.98 111.15 217.98C118.76 217.98 126.39 217.98 134 217.98C136.45 217.98 138.9 217.98 141.35 217.98C141.86 217.98 142.36 217.98 142.87 217.98V219.52C142.87 221.79 142.87 224.07 142.87 226.34C142.87 230.88 142.87 235.42 142.87 239.96C142.87 241.42 142.87 242.88 142.87 244.34V244.43C141.66 244.43 140.44 244.43 139.23 244.43C135.46 244.43 131.69 244.43 127.92 244.43C121.71 244.43 115.5 244.43 109.29 244.43C107.63 244.43 105.97 244.43 104.31 244.43C102.85 244.43 101.41 244.39 99.99 244.83C97.12 245.72 94.85 248.08 94.05 250.97C93.7 252.22 93.74 253.48 93.74 254.77C93.74 255.94 93.84 257.07 94.23 258.18C95.26 261.15 97.76 263.29 100.81 263.96C102.03 264.23 103.3 264.15 104.54 264.15C106.12 264.15 107.7 264.15 109.29 264.15C114.68 264.15 120.07 264.15 125.45 264.15C148.74 264.15 172.03 264.15 195.31 264.15C202.28 264.15 209.25 264.15 216.22 264.15C218.28 264.15 220.34 264.15 222.4 264.15C223.94 264.15 225.46 264.21 226.95 263.75C229.83 262.86 232.1 260.5 232.91 257.6C233.22 256.5 233.23 255.4 233.23 254.27C233.23 253.34 233.23 252.42 233.04 251.51C232.54 249.05 230.97 246.87 228.8 245.6C227.7 244.96 226.46 244.55 225.2 244.42C224.35 244.33 223.49 244.37 222.63 244.37C221.74 244.37 220.85 244.37 219.96 244.37C214.86 244.37 209.76 244.37 204.66 244.37C199.56 244.37 194.46 244.37 189.36 244.37C187.7 244.37 186.03 244.37 184.37 244.37H184.11V244.33C184.11 242.87 184.11 241.41 184.11 239.95C184.11 235.57 184.11 231.19 184.11 226.82C184.11 224.39 184.11 221.95 184.11 219.52C184.11 219.03 184.11 218.53 184.11 218.04H185.87C188.27 218.04 190.67 218.04 193.07 218.04C200.39 218.04 207.72 218.04 215.04 218.04C231.58 218.04 248.13 218.04 264.68 218.04C268.34 218.04 272 218.04 275.67 218.04C276.43 218.04 277.19 218.04 277.95 218.04C278.61 218.04 279.25 218.06 279.9 217.96C281.43 217.74 282.89 217.08 284.09 216.09C284.68 215.61 285.2 215.05 285.65 214.43C286.51 213.25 287.08 211.88 287.31 210.44C287.45 209.58 287.43 208.72 287.43 207.85C287.43 206.78 287.43 205.71 287.43 204.64C287.43 197.14 287.43 189.64 287.43 182.14C287.43 153.75 287.43 125.37 287.43 96.98C287.43 90.2 287.43 83.41 287.43 76.63C287.43 75.38 287.43 74.13 287.43 72.88C287.43 71.91 287.45 70.96 287.26 70C286.97 68.47 286.29 67.03 285.3 65.83C284.81 65.24 284.25 64.72 283.63 64.28C282.52 63.49 281.23 62.96 279.88 62.77C279.18 62.67 278.48 62.68 277.77 62.68H275.5C273.38 62.68 271.25 62.68 269.13 62.68C255.35 62.68 241.57 62.68 227.79 62.68C185.99 62.68 144.2 62.68 102.41 62.68C89.54 62.68 76.66 62.68 63.79 62.68C59.85 62.68 55.92 62.68 51.98 62.68H46.98C46.83 62.68 46.98 62.68 46.07 62.68L46.13 62.7ZM45.66 67.53C45.82 67.56 45.96 67.63 46.13 67.63C48.86 67.63 47.96 67.63 48.85 67.63H52.94C57.03 67.63 61.12 67.63 65.21 67.63C78.08 67.63 90.95 67.63 103.82 67.63C143.34 67.63 182.87 67.63 222.39 67.63C237.08 67.63 251.76 67.63 266.45 67.63C269.78 67.63 273.12 67.63 276.45 67.63H278.27C279.23 67.63 280 67.72 280.82 68.3C281.1 68.5 281.35 68.74 281.57 69C282.13 69.67 282.46 70.52 282.55 71.39C282.6 71.89 282.57 72.41 282.57 72.91V76.12C282.57 80.94 282.57 85.76 282.57 90.58C282.57 110.22 282.57 129.86 282.57 149.5C282.57 164.5 282.57 179.49 282.57 194.49C282.57 198.24 282.57 201.98 282.57 205.73C282.57 206.62 282.57 207.52 282.57 208.42C282.57 209.51 282.49 210.43 281.88 211.39C281.69 211.69 281.46 211.96 281.21 212.2C281.02 212.37 280.82 212.53 280.6 212.67C279.62 213.28 278.69 213.22 277.57 213.22C276.69 213.22 275.8 213.22 274.91 213.22C269.23 213.22 263.54 213.22 257.86 213.22C238.66 213.22 219.47 213.22 200.27 213.22C195.47 213.22 190.67 213.22 185.88 213.22C185.37 213.22 184.87 213.22 184.37 213.22C183.99 213.22 183.61 213.22 183.23 213.22C182.16 213.22 181.08 213.08 180.19 213.85C179.77 214.22 179.49 214.72 179.37 215.26C179.28 215.68 179.31 216.16 179.31 216.6V219.03C179.31 222.76 179.31 226.49 179.31 230.22C179.31 234.6 179.31 238.98 179.31 243.36V245.79C179.31 246.2 179.28 246.66 179.36 247.07C179.46 247.58 179.7 248.05 180.07 248.42C180.23 248.58 180.41 248.72 180.61 248.83C181.41 249.29 182.5 249.16 183.38 249.16H184.38C186.71 249.16 189.03 249.16 191.36 249.16C200.23 249.16 209.11 249.16 217.98 249.16C219.42 249.16 220.86 249.16 222.31 249.16C224.05 249.16 225.64 248.94 227.05 250.19C227.32 250.43 227.55 250.69 227.75 250.99C227.98 251.32 228.15 251.69 228.27 252.07C228.49 252.79 228.46 253.52 228.46 254.27C228.46 255.06 228.5 255.83 228.24 256.59C228.09 257.01 227.88 257.41 227.61 257.76C227.4 258.04 227.14 258.29 226.86 258.5C225.61 259.46 224.4 259.37 222.9 259.37C222.11 259.37 221.32 259.37 220.53 259.37C213.72 259.37 206.9 259.37 200.09 259.37C175.06 259.37 150.03 259.38 125 259.39C118.98 259.39 112.96 259.39 106.94 259.39C105.83 259.39 104.73 259.39 103.62 259.39C103.11 259.39 102.6 259.42 102.1 259.35C101.11 259.22 100.18 258.72 99.52 257.97C98.95 257.32 98.59 256.5 98.5 255.65C98.45 255.19 98.48 254.72 98.48 254.25C98.48 253.55 98.44 252.85 98.63 252.17C98.75 251.74 98.94 251.32 99.2 250.95C99.4 250.65 99.63 250.38 99.9 250.14C100.55 249.57 101.37 249.21 102.23 249.12C102.7 249.07 103.18 249.1 103.66 249.1C104.44 249.1 105.22 249.1 105.99 249.1C108.43 249.1 110.87 249.1 113.3 249.1C121.73 249.1 130.16 249.1 138.58 249.1H144.57C144.96 249.1 145.35 249.12 145.73 249.01C146.35 248.84 146.88 248.44 147.21 247.9C147.72 247.06 147.58 245.74 147.58 244.8C147.58 244.48 147.58 244.16 147.58 243.83C147.58 243.18 147.58 242.53 147.58 241.88C147.58 237.5 147.58 233.12 147.58 228.75C147.58 225.51 147.58 222.26 147.58 219.01C147.58 218.52 147.58 218.04 147.58 217.55C147.58 216.53 147.74 215.2 147.11 214.32C146.75 213.82 146.23 213.47 145.63 213.32C145.26 213.23 144.84 213.25 144.46 213.25H140.2C134.01 213.25 127.81 213.25 121.62 213.25C104.07 213.25 86.51 213.25 68.96 213.25C63.54 213.25 58.12 213.25 52.7 213.25C51.02 213.25 49.35 213.25 47.67 213.25C46.82 213.25 45.93 213.34 45.1 213.1C44.69 212.98 44.3 212.79 43.96 212.54C43.67 212.33 43.42 212.09 43.19 211.82C42.61 211.13 42.27 210.26 42.18 209.36C42.13 208.85 42.15 208.34 42.15 207.83C42.15 207.29 42.15 206.75 42.15 206.22C42.15 200.86 42.15 195.51 42.15 190.16C42.15 165.7 42.15 141.24 42.15 116.78C42.15 103.75 42.15 90.72 42.15 77.69C42.15 76.26 42.15 74.83 42.15 73.4C42.15 71.72 42.02 70.25 43.18 68.87C43.73 68.2 44.5 67.72 45.35 67.53C45.45 67.51 45.55 67.49 45.65 67.48L45.66 67.53Z" fill="#02F4A7"/>
<path d="M37.3999 68.3699C37.3999 64.6799 40.2199 61.6899 43.6999 61.6899H276.31C279.79 61.6899 282.61 64.6799 282.61 68.3699V205.48C282.61 209.17 279.79 212.16 276.31 212.16H43.6999C40.2199 212.16 37.3999 209.17 37.3999 205.48V68.3699Z" fill="#000002" stroke="black" stroke-width="3.12" stroke-linejoin="round"/>
<path d="M47.5898 76.6497C47.5898 72.9597 50.4098 69.9697 53.8898 69.9697H268.24C271.72 69.9697 274.54 72.9597 274.54 76.6497V195.95C274.54 199.64 271.72 202.63 268.24 202.63H53.8898C50.4098 202.63 47.5898 199.64 47.5898 195.95V76.6497Z" fill="url(#paint0_linear_991_145)" stroke="black" stroke-width="3.12" stroke-linejoin="round"/>
<path d="M142.82 212.17H179.31V243.32H142.82V212.17Z" fill="#1E2629" stroke="black" stroke-width="3.12" stroke-linejoin="round"/>
<path d="M93.6899 249.85C93.6899 246.24 96.6199 243.31 100.23 243.31H221.89C225.5 243.31 228.43 246.24 228.43 249.85V251.77C228.43 255.38 225.5 258.31 221.89 258.31H100.23C96.6199 258.31 93.6899 255.38 93.6899 251.77V249.85Z" fill="#071A2A" stroke="black" stroke-width="3.12" stroke-linejoin="round"/>
<path d="M268.42 71.4302C267.63 71.4302 266.81 71.5602 266.08 71.8502C265.28 72.1702 264.89 73.1002 265.21 73.9002C265.53 74.7002 266.46 75.0902 267.26 74.7702C267.25 74.7702 267.34 74.7302 267.35 74.7302C267.42 74.7102 267.48 74.7002 267.55 74.6802C267.72 74.6402 267.89 74.6002 268.06 74.5802C268.53 74.5302 269.02 74.5802 269.46 74.7602C270.71 75.2802 271.24 76.7502 271.52 77.9702C271.99 80.0302 271.87 82.1902 271.87 84.2902C271.87 87.0602 271.87 89.8202 271.87 92.5902C271.87 108.32 271.84 124.04 271.82 139.77C271.8 153.6 271.79 167.44 271.79 181.27C271.79 184.18 271.79 187.09 271.79 190C271.79 190.87 271.79 191.75 271.79 192.63C271.79 193.34 271.81 194.05 271.7 194.76C271.52 195.92 270.98 197.01 269.84 197.47C269.44 197.63 269.02 197.71 268.6 197.74C268.48 197.74 268.34 197.74 268.22 197.74C268.19 197.74 268.05 197.73 268.05 197.74C267.14 197.62 266.31 198.27 266.19 199.18C266.07 200.09 266.72 200.92 267.63 201.04C269.85 201.31 272.24 200.43 273.61 198.65C274.36 197.67 274.79 196.49 274.98 195.28C275.16 194.12 275.11 192.93 275.11 191.76C275.11 190.3 275.11 188.85 275.11 187.39C275.11 182.73 275.11 178.08 275.11 173.42C275.11 146.77 275.06 120.12 275.04 93.4702C275.04 91.8702 275.04 90.2702 275.04 88.6702C275.04 87.5102 275.04 86.3402 275.04 85.1702C275.04 84.3002 275.04 83.4302 275.04 82.5502C275.04 81.9002 275.04 81.2502 275.02 80.6102C274.9 77.5502 274.19 73.7902 271.28 72.1502C270.91 71.9402 270.51 71.7702 270.1 71.6502C269.57 71.5002 269.01 71.4302 268.46 71.4302H268.42Z" fill="white"/>
<path d="M270.86 63.7903C270.1 63.6603 269.38 64.1703 269.26 64.9303C269.13 65.6903 269.64 66.4103 270.4 66.5303C271.2 66.6603 272.02 66.7303 272.82 66.8703C273.16 66.9303 273.58 67.0003 273.88 67.1603C274.26 67.3703 274.51 67.7503 274.75 68.1003C275.02 68.4903 275.28 68.8803 275.52 69.2803C275.89 69.8903 276.23 70.5203 276.55 71.1603C276.68 71.4203 276.8 71.6702 276.89 71.9502C277.38 73.5202 277.32 75.3203 277.32 76.9403C277.32 77.7503 277.98 78.4203 278.79 78.4103C279.6 78.4103 280.26 77.7503 280.25 76.9403C280.25 74.9803 280.26 72.9303 279.64 71.0503C279.42 70.3803 279.08 69.7703 278.74 69.1603C278.42 68.5803 278.09 68.0003 277.72 67.4403C277.04 66.4003 276.3 65.2803 275.17 64.6903C274.59 64.3903 273.93 64.2403 273.29 64.1203C272.47 63.9703 271.65 63.9103 270.83 63.7803L270.86 63.7903Z" fill="white"/>
<path d="M279.09 82.4601C278.86 82.4301 278.63 82.4901 278.41 82.5601C278.25 82.6101 278.1 82.7101 277.97 82.8001C277.57 83.0901 277.35 83.5901 277.22 84.0501C277.2 84.1001 277.22 84.0501 277.14 84.4301C277.14 84.4801 277.14 84.5301 277.14 84.5801C277.13 84.6101 277.12 84.6401 277.1 84.6701C276.94 84.9601 276.77 85.2501 276.68 85.5701C276.37 86.6301 276.97 87.8701 278.17 87.9501C278.31 87.9501 278.46 87.9401 278.6 87.9101C278.73 87.8801 278.85 87.8401 278.97 87.7801C279.75 87.4301 280.07 86.5001 280.35 85.7701C280.49 85.4101 280.6 85.0501 280.63 84.6701C280.65 84.4201 280.63 84.1601 280.58 83.9201C280.52 83.6501 280.4 83.3401 280.22 83.1201C280.1 82.9801 279.98 82.8201 279.82 82.7301C279.59 82.6001 279.35 82.5001 279.09 82.4701V82.4601Z" fill="white"/>
<path d="M41.49 193.13C40.72 193.16 40.12 193.81 40.15 194.58C40.22 196.48 40.22 198.39 40.32 200.29C40.34 200.73 40.38 201.17 40.42 201.61C40.48 202.22 40.53 202.8 40.79 203.37C41.18 204.22 41.85 204.87 42.51 205.51C43.44 206.42 44.43 207.28 45.47 208.05C46.45 208.77 47.63 209 48.76 209.37C49.53 209.62 50.36 209.19 50.61 208.42C50.86 207.65 50.43 206.82 49.66 206.57C48.94 206.34 48.14 206.2 47.46 205.85C47.26 205.75 47.09 205.61 46.91 205.47C46.08 204.83 45.28 204.15 44.52 203.43C44.14 203.07 43.67 202.71 43.42 202.24C43.27 201.96 43.28 201.64 43.24 201.33C43.19 200.82 43.15 200.32 43.11 199.82C42.99 198.04 43.01 196.26 42.93 194.48C42.9 193.71 42.25 193.11 41.48 193.14L41.49 193.13Z" fill="white"/>
<path d="M221.48 246.68C220.94 246.6 220.39 246.83 220.08 247.32C219.68 247.97 219.88 248.83 220.53 249.23C220.77 249.38 221.03 249.52 221.27 249.66C221.31 249.68 221.38 249.73 221.44 249.77C221.52 250.38 221.58 251.01 221.57 251.62C221.57 251.82 221.55 252.01 221.53 252.21C221.53 252.23 221.51 252.26 221.5 252.29C221.47 252.35 221.41 252.49 221.39 252.51C221.34 252.63 221.25 252.79 221.19 252.9C221 253.26 220.81 253.62 220.6 253.98C220.21 254.69 220.46 255.58 221.17 255.97C221.88 256.36 222.78 256.1 223.17 255.39C223.47 254.84 223.77 254.3 224.03 253.74C224.17 253.45 224.31 253.12 224.37 252.8C224.52 251.95 224.42 251.05 224.32 250.2C224.24 249.53 224.21 248.79 223.8 248.22C223.34 247.57 222.64 247.27 221.98 246.86C221.82 246.76 221.64 246.69 221.46 246.66L221.48 246.68Z" fill="white"/>
<path d="M101.09 98.4501C101.22 98.4501 101.38 98.4301 101.59 98.4001C101.8 98.3701 101.97 98.3401 102.11 98.3301C102.25 98.3101 102.36 98.3101 102.42 98.3101H102.56C102.91 98.3101 103.32 98.4401 103.8 98.6901C104.28 98.9401 104.59 99.2001 104.75 99.4501C104.94 99.8301 105.04 100.26 105.04 100.74C105.04 101.41 104.88 101.9 104.56 102.22C103.99 102.79 103 103.16 101.6 103.32C101.31 103.35 100.92 103.41 100.43 103.49C99.94 103.57 99.64 103.61 99.55 103.61L98.84 103.75L98.98 108.09C99.01 108.82 99.03 110.17 99.03 112.14C99.03 114.62 99 116.35 98.93 117.34C98.8 119.5 98.7 120.89 98.62 121.51C98.54 122.13 98.37 122.61 98.12 122.96C97.8 123.47 97.26 123.72 96.5 123.72C95.74 123.72 95.23 123.47 94.88 122.96C94.5 122.42 94.24 120.67 94.12 117.72C94.02 115.91 93.98 113.6 93.98 110.81V108.67L94.08 104.14L91.84 103.85C90.66 103.72 89.81 103.56 89.29 103.35C88.77 103.14 88.33 102.82 87.98 102.37C87.69 102.05 87.55 101.67 87.55 101.23C87.55 100.75 87.73 100.3 88.1 99.8701C88.47 99.4401 88.95 99.1601 89.55 99.0401C89.87 98.9801 90.22 98.9401 90.6 98.9401C91.27 98.9401 91.98 98.9901 92.74 99.0801C93.53 99.1801 94.22 99.2201 94.79 99.2201C95.43 99.2201 96.36 99.1201 97.6 98.9301C99 98.7101 100.16 98.5501 101.08 98.4501H101.09Z" fill="url(#paint1_linear_991_145)"/>
<path d="M118.18 102.45C117.8 102.29 117.19 102.21 116.37 102.21C114.84 102.21 113.52 103.04 112.39 104.69C111.26 106.34 110.7 108.28 110.7 110.51C110.7 110.61 110.7 110.74 110.72 110.92C110.74 111.1 110.74 111.23 110.74 111.32C110.93 113.61 111.79 115.42 113.31 116.75C114.17 117.58 115.17 117.99 116.31 117.99C116.69 117.99 116.99 117.97 117.22 117.94C118.75 117.78 120 116.95 120.99 115.44C121.98 113.93 122.47 112.19 122.47 110.22C122.47 108.79 122.2 107.47 121.66 106.26C121.31 105.43 120.79 104.65 120.11 103.9C119.43 103.15 118.78 102.67 118.18 102.45ZM113.99 98.1103C114.59 97.9203 115.36 97.8203 116.28 97.8203C118.03 97.8203 119.49 98.0903 120.67 98.6303C121.62 99.0703 122.62 99.8103 123.65 100.85C124.68 101.88 125.45 102.89 125.96 103.88C126.95 105.88 127.44 108.11 127.44 110.55C127.44 113.41 126.77 115.98 125.44 118.27C124.46 119.92 123.2 121.23 121.67 122.18C120.14 123.13 118.56 123.61 116.9 123.61C116.39 123.61 115.9 123.56 115.42 123.47C113.26 123.06 111.38 122.05 109.77 120.44C108.17 118.84 107.06 116.83 106.46 114.41C106.14 112.98 105.98 111.38 105.98 109.6C105.98 107.6 106.15 106.18 106.5 105.36C107.14 103.64 108.11 102.15 109.43 100.88C110.75 99.6103 112.27 98.6903 113.98 98.1203L113.99 98.1103Z" fill="url(#paint2_linear_991_145)"/>
<path d="M128.79 102.5C128.79 102.5 128.79 102.39 128.77 102.26C128.75 102.13 128.75 102.05 128.75 102.02C128.75 101.13 129.1 100.42 129.8 99.9004C130.5 99.3804 131.44 99.1104 132.61 99.1104C132.96 99.1104 133.23 99.1304 133.42 99.1604C133.71 99.1904 135.15 99.2704 137.76 99.4004C139.98 99.5304 141.42 99.7504 142.07 100.07C142.72 100.39 143.05 101.06 143.05 102.07C143.05 102.58 142.87 103.06 142.5 103.5C142.13 103.94 141.7 104.23 141.19 104.36C140.94 104.42 140.57 104.46 140.09 104.46C139.23 104.46 137.45 104.33 134.75 104.08L132.94 103.89L133.04 106.08L133.09 108.27H136.43C138.72 108.33 140.01 108.44 140.29 108.6C141.08 109.01 141.48 109.73 141.48 110.75C141.48 110.91 141.46 111.04 141.43 111.13C141.27 111.92 140.75 112.48 139.88 112.8C139.01 113.12 137.58 113.29 135.61 113.32H134.85C133.71 113.32 133.01 113.42 132.78 113.63C132.54 113.84 132.42 114.48 132.42 115.56V116.23C132.42 116.99 132.45 117.49 132.52 117.71C132.58 117.93 132.73 118.08 132.95 118.14C133.2 118.2 134.06 118.24 135.52 118.24H137.09C137.41 118.24 137.8 118.24 138.28 118.22C138.76 118.2 139.06 118.2 139.19 118.2C140.27 118.2 141.02 118.39 141.43 118.77C141.97 119.25 142.24 119.82 142.24 120.49C142.24 121.38 141.81 122.06 140.95 122.54C140.57 122.76 139.62 122.96 138.11 123.14C136.6 123.31 135.26 123.4 134.08 123.4C133.51 123.4 133.13 123.38 132.94 123.35C130.78 123.03 129.27 122.05 128.41 120.39C128.12 119.75 127.98 118.91 127.98 117.86C127.98 117.67 128.01 116.37 128.08 113.95C128.21 110.42 128.38 107.77 128.6 105.99C128.76 104.88 128.84 103.92 128.84 103.13C128.84 102.81 128.82 102.61 128.79 102.51V102.5Z" fill="url(#paint3_linear_991_145)"/>
<path d="M147.79 98.5004C148.14 98.4004 149.39 98.3604 151.56 98.3604H152.89C155.27 98.4204 156.85 98.5304 157.61 98.6904C158.37 98.8504 158.9 99.2003 159.18 99.7403C159.34 100.03 159.42 100.38 159.42 100.79C159.42 101.39 159.25 101.9 158.9 102.32C158.23 103.02 156.76 103.37 154.47 103.37C153.61 103.37 152.93 103.35 152.42 103.32C152.01 103.29 151.42 103.27 150.66 103.27C149.64 103.27 149.06 103.32 148.9 103.41C148.42 103.76 148.15 105.13 148.09 107.51V109.37L150.52 109.23C152.39 109.1 153.48 108.99 153.76 108.9C154.46 108.74 155.06 108.66 155.57 108.66C157 108.66 157.94 109.07 158.38 109.9C158.57 110.31 158.67 110.66 158.67 110.95C158.67 111.36 158.46 111.82 158.05 112.33C157.06 113.51 155 114.09 151.85 114.09H148.85L148.9 118V119.72C148.9 121.21 148.77 122.17 148.52 122.58C148.2 123.02 147.79 123.25 147.28 123.25C146.8 123.25 146.45 123.17 146.23 123.01C145.4 122.5 144.78 119.53 144.37 114.1C144.34 113.78 144.27 112.82 144.16 111.22C144.05 109.62 143.96 108.51 143.9 107.91C143.84 106.89 143.8 106.18 143.8 105.76C143.8 103.66 144.12 102.04 144.75 100.9C145.39 99.7604 146.4 98.9603 147.8 98.5203L147.79 98.5004Z" fill="url(#paint4_linear_991_145)"/>
<path d="M162.21 99.6405C162.72 99.2305 163.12 99.0205 163.4 99.0205C163.75 99.0205 164.19 99.2605 164.73 99.7305L165.54 100.441L165.59 105.061V107.201C165.59 109.931 165.54 112.211 165.45 114.021C165.35 115.551 165.31 116.711 165.31 117.501C165.31 118.171 165.34 118.531 165.41 118.601C165.57 118.761 166.74 118.871 168.94 118.931C171.04 118.991 172.42 119.191 173.09 119.531C173.76 119.861 174.09 120.511 174.09 121.461C174.09 122.791 173.09 123.621 171.09 123.941C170.45 124.041 169.72 124.081 168.9 124.081C166.01 124.081 164.04 123.791 162.99 123.221C161.11 122.271 160.18 119.881 160.18 116.071C160.18 114.801 160.28 113.381 160.47 111.831C160.57 110.881 160.69 108.991 160.85 106.161C160.95 103.941 161.09 102.391 161.28 101.541C161.47 100.691 161.79 100.051 162.23 99.6305L162.21 99.6405Z" fill="url(#paint5_linear_991_145)"/>
<path d="M185.67 99.0203C186.18 98.8903 186.59 98.8603 186.91 98.9203C186.97 98.9203 187.11 98.9403 187.32 98.9703C187.53 99.0003 187.81 99.0303 188.18 99.0403C188.55 99.0603 188.87 99.0803 189.16 99.1103C190.46 99.2403 191.38 99.4003 191.9 99.5903C192.42 99.7803 192.8 100.08 193.02 100.5C193.18 100.82 193.26 101.12 193.26 101.41C193.26 101.92 193.06 102.37 192.66 102.77C192.26 103.17 191.73 103.43 191.06 103.56L190.3 103.7L190.35 111.33L190.45 118.91L191.36 119.05C192.22 119.18 192.89 119.45 193.39 119.86C193.88 120.27 194.13 120.75 194.13 121.29C194.13 121.77 193.94 122.23 193.56 122.67C193.34 122.96 193.08 123.15 192.8 123.24C192.51 123.34 191.97 123.41 191.18 123.48C190.83 123.51 190.22 123.58 189.34 123.67C188.47 123.77 187.89 123.83 187.6 123.86C186.9 123.92 186.42 123.96 186.17 123.96C184.96 123.96 184.01 123.66 183.31 123.05C182.8 122.64 182.55 122.14 182.55 121.57C182.55 121.09 182.74 120.66 183.12 120.26C183.5 119.86 184.03 119.57 184.69 119.38L185.6 119.09L185.65 111.27V103.45H184.98C184.03 103.45 183.39 103.04 183.07 102.21C183.01 102.05 182.97 101.83 182.97 101.54C182.97 100.97 183.22 100.45 183.71 99.9903C184.2 99.5303 184.86 99.2003 185.69 99.0103L185.67 99.0203Z" fill="url(#paint6_linear_991_145)"/>
<path d="M208.63 98.4501C208.76 98.4501 208.92 98.4301 209.13 98.4001C209.34 98.3701 209.51 98.3401 209.65 98.3301C209.79 98.3101 209.9 98.3101 209.96 98.3101H210.1C210.45 98.3101 210.86 98.4401 211.34 98.6901C211.82 98.9401 212.13 99.2001 212.29 99.4501C212.48 99.8301 212.58 100.26 212.58 100.74C212.58 101.41 212.42 101.9 212.1 102.22C211.53 102.79 210.54 103.16 209.14 103.32C208.85 103.35 208.46 103.41 207.97 103.49C207.48 103.57 207.18 103.61 207.09 103.61L206.37 103.75L206.51 108.09C206.54 108.82 206.56 110.17 206.56 112.14C206.56 114.62 206.53 116.35 206.46 117.34C206.33 119.5 206.23 120.89 206.15 121.51C206.07 122.13 205.9 122.61 205.65 122.96C205.33 123.47 204.79 123.72 204.03 123.72C203.27 123.72 202.76 123.47 202.41 122.96C202.03 122.42 201.77 120.67 201.65 117.72C201.55 115.91 201.51 113.6 201.51 110.81V108.67L201.61 104.14L199.37 103.85C198.19 103.72 197.34 103.56 196.82 103.35C196.3 103.14 195.86 102.82 195.51 102.37C195.22 102.05 195.08 101.67 195.08 101.23C195.08 100.75 195.26 100.3 195.63 99.8701C196 99.4401 196.48 99.1601 197.08 99.0401C197.4 98.9801 197.75 98.9401 198.13 98.9401C198.8 98.9401 199.51 98.9901 200.28 99.0801C201.07 99.1801 201.76 99.2201 202.33 99.2201C202.97 99.2201 203.9 99.1201 205.14 98.9301C206.54 98.7101 207.7 98.5501 208.62 98.4501H208.63Z" fill="url(#paint7_linear_991_145)"/>
<path d="M222.91 103.22C222.27 103.06 221.72 102.98 221.24 102.98C219.81 102.98 218.81 103.49 218.24 104.51C217.92 105.05 217.76 106.1 217.76 107.66V110L218.76 110.52C219.4 110.84 220.14 111 221 111C222.05 111 222.92 110.78 223.62 110.33C225.18 109.41 225.96 108.28 225.96 106.95C225.96 106.57 225.9 106.2 225.77 105.85C225.61 105.31 225.25 104.78 224.67 104.25C224.1 103.73 223.51 103.38 222.91 103.23V103.22ZM218.24 98.2603C219.13 97.9403 220.02 97.7803 220.91 97.7803C221.01 97.7803 221.17 97.7803 221.41 97.8003C221.65 97.8203 221.83 97.8203 221.96 97.8203C223.55 97.8503 224.87 98.1203 225.92 98.6303C227.89 99.5803 229.32 101.01 230.21 102.92C230.66 103.87 230.88 105.11 230.88 106.64C230.85 108.23 230.64 109.44 230.26 110.26C229.85 111.09 229.16 111.96 228.21 112.88C227.26 113.8 226.33 114.48 225.45 114.93C224.5 115.41 223.46 115.64 222.35 115.64H221.49C220 115.64 219.01 115.59 218.53 115.5H218.39C218.2 115.5 218.1 115.91 218.1 116.74V118.93C218.1 119.98 217.96 120.73 217.67 121.17C217.32 121.71 216.88 121.98 216.34 121.98C214.97 121.98 214.15 120.74 213.86 118.26C213.54 115.34 213.38 111.71 213.38 107.39C213.38 106.34 213.41 105.53 213.48 104.96C213.73 103.34 214.27 101.94 215.1 100.77C215.93 99.5903 216.98 98.7503 218.25 98.2403L218.24 98.2603Z" fill="url(#paint8_linear_991_145)"/>
<g filter="url(#filter0_d_991_145)">
<path d="M226.798 133H95.2021C83.4925 133 74 143.893 74 157.33V157.34C74 170.777 83.4925 181.67 95.2021 181.67H226.798C238.508 181.67 248 170.777 248 157.34V157.33C248 143.893 238.508 133 226.798 133Z" fill="#050B15"/>
<path d="M95.2021 135H226.798C237.153 135 246 144.73 246 157.33V157.34C246 169.94 237.153 179.67 226.798 179.67H95.2021C84.8467 179.67 76 169.94 76 157.34V157.33C76 144.73 84.8467 135 95.2021 135Z" stroke="#FF8A8A" stroke-width="4"/>
</g>
<g filter="url(#filter1_d_991_145)">
<path d="M90.0781 158.375L90.0156 153.688L100.109 153.219L100.172 158.562L90.0781 158.375ZM120.359 151.938C120.359 152.75 120.286 153.49 120.141 154.156C120.005 154.812 119.786 155.417 119.484 155.969C119.182 156.521 118.792 157.031 118.312 157.5C117.833 157.969 117.255 158.417 116.578 158.844L120.297 165.469L113.266 166.844L110.859 160.188L108.922 160.25L108.641 166.75H101.922C101.974 164.375 102.021 162.01 102.062 159.656C102.115 157.302 102.172 154.938 102.234 152.562C102.255 151.365 102.276 150.177 102.297 149C102.318 147.823 102.359 146.635 102.422 145.438C103.151 145.167 103.87 144.943 104.578 144.766C105.286 144.589 105.995 144.453 106.703 144.359C107.422 144.255 108.146 144.188 108.875 144.156C109.615 144.115 110.37 144.094 111.141 144.094C112.328 144.094 113.474 144.26 114.578 144.594C115.693 144.917 116.677 145.406 117.531 146.062C118.385 146.719 119.068 147.536 119.578 148.516C120.099 149.495 120.359 150.635 120.359 151.938ZM113.359 152.438C113.359 152 113.297 151.599 113.172 151.234C113.057 150.87 112.88 150.557 112.641 150.297C112.411 150.026 112.12 149.818 111.766 149.672C111.422 149.516 111.016 149.438 110.547 149.438C110.339 149.438 110.135 149.453 109.938 149.484C109.74 149.505 109.547 149.542 109.359 149.594L109.109 155.406H109.484C109.932 155.406 110.385 155.349 110.844 155.234C111.312 155.12 111.729 154.943 112.094 154.703C112.469 154.464 112.771 154.156 113 153.781C113.24 153.406 113.359 152.958 113.359 152.438ZM140.547 155.969C140.547 156.917 140.438 157.833 140.219 158.719C140 159.594 139.682 160.417 139.266 161.188C138.859 161.958 138.359 162.667 137.766 163.312C137.182 163.948 136.521 164.495 135.781 164.953C135.052 165.411 134.255 165.771 133.391 166.031C132.526 166.281 131.609 166.406 130.641 166.406C129.703 166.406 128.807 166.286 127.953 166.047C127.109 165.807 126.318 165.474 125.578 165.047C124.839 164.609 124.167 164.089 123.562 163.484C122.969 162.87 122.458 162.193 122.031 161.453C121.615 160.703 121.286 159.901 121.047 159.047C120.818 158.193 120.703 157.302 120.703 156.375C120.703 155.469 120.812 154.583 121.031 153.719C121.25 152.844 121.562 152.021 121.969 151.25C122.385 150.479 122.885 149.771 123.469 149.125C124.052 148.479 124.703 147.922 125.422 147.453C126.151 146.984 126.938 146.62 127.781 146.359C128.625 146.099 129.516 145.969 130.453 145.969C131.964 145.969 133.339 146.203 134.578 146.672C135.828 147.141 136.891 147.812 137.766 148.688C138.651 149.552 139.333 150.604 139.812 151.844C140.302 153.073 140.547 154.448 140.547 155.969ZM133.609 156.375C133.609 155.927 133.542 155.495 133.406 155.078C133.281 154.651 133.094 154.276 132.844 153.953C132.594 153.62 132.281 153.354 131.906 153.156C131.542 152.948 131.12 152.844 130.641 152.844C130.151 152.844 129.714 152.932 129.328 153.109C128.943 153.286 128.609 153.531 128.328 153.844C128.057 154.146 127.849 154.505 127.703 154.922C127.557 155.328 127.484 155.76 127.484 156.219C127.484 156.656 127.547 157.094 127.672 157.531C127.797 157.969 127.984 158.365 128.234 158.719C128.484 159.073 128.792 159.359 129.156 159.578C129.531 159.797 129.964 159.906 130.453 159.906C130.943 159.906 131.38 159.812 131.766 159.625C132.161 159.427 132.495 159.167 132.766 158.844C133.036 158.51 133.245 158.13 133.391 157.703C133.536 157.276 133.609 156.833 133.609 156.375ZM160.328 149.625C160.328 150.396 160.292 151.245 160.219 152.172C160.146 153.099 160.026 154.057 159.859 155.047C159.693 156.036 159.474 157.042 159.203 158.062C158.943 159.073 158.615 160.047 158.219 160.984C157.823 161.922 157.359 162.802 156.828 163.625C156.307 164.438 155.703 165.151 155.016 165.766C154.339 166.37 153.578 166.844 152.734 167.188C151.891 167.542 150.953 167.719 149.922 167.719C148.714 167.719 147.661 167.521 146.766 167.125C145.88 166.74 145.12 166.219 144.484 165.562C143.849 164.896 143.328 164.125 142.922 163.25C142.516 162.365 142.198 161.432 141.969 160.453C141.74 159.464 141.578 158.458 141.484 157.438C141.401 156.406 141.359 155.417 141.359 154.469C141.359 153.01 141.432 151.557 141.578 150.109C141.724 148.651 141.932 147.198 142.203 145.75L149.516 146.031C149.234 147.667 148.99 149.312 148.781 150.969C148.583 152.615 148.484 154.271 148.484 155.938C148.484 156.115 148.49 156.38 148.5 156.734C148.521 157.078 148.552 157.469 148.594 157.906C148.635 158.333 148.693 158.776 148.766 159.234C148.849 159.682 148.958 160.094 149.094 160.469C149.229 160.844 149.391 161.151 149.578 161.391C149.776 161.63 150.005 161.75 150.266 161.75C150.568 161.75 150.839 161.609 151.078 161.328C151.318 161.036 151.526 160.651 151.703 160.172C151.891 159.693 152.052 159.141 152.188 158.516C152.323 157.891 152.438 157.24 152.531 156.562C152.625 155.885 152.698 155.208 152.75 154.531C152.812 153.854 152.859 153.224 152.891 152.641C152.932 152.057 152.958 151.542 152.969 151.094C152.979 150.646 152.984 150.312 152.984 150.094C152.984 149.281 152.969 148.474 152.938 147.672C152.917 146.859 152.88 146.052 152.828 145.25H160.141C160.266 146.688 160.328 148.146 160.328 149.625ZM182.828 144.594L181.703 165.781L173.516 166.531L169.141 155.188L168.453 166.75H161.422L161.984 144.594L169.797 144.219L175.203 155.469L175.453 144.844L182.828 144.594ZM201.812 154.594C201.812 156.052 201.625 157.37 201.25 158.547C200.875 159.714 200.349 160.755 199.672 161.672C199.005 162.578 198.208 163.359 197.281 164.016C196.354 164.672 195.339 165.214 194.234 165.641C193.13 166.057 191.953 166.37 190.703 166.578C189.464 166.776 188.188 166.875 186.875 166.875C186.385 166.875 185.906 166.865 185.438 166.844C184.969 166.812 184.49 166.771 184 166.719L184.438 145.75C185.583 145.385 186.76 145.13 187.969 144.984C189.188 144.828 190.396 144.75 191.594 144.75C193.083 144.75 194.453 144.974 195.703 145.422C196.953 145.87 198.031 146.516 198.938 147.359C199.844 148.203 200.547 149.234 201.047 150.453C201.557 151.672 201.812 153.052 201.812 154.594ZM195.406 155.594C195.417 155.031 195.354 154.49 195.219 153.969C195.094 153.448 194.88 152.99 194.578 152.594C194.286 152.188 193.911 151.865 193.453 151.625C192.995 151.375 192.448 151.24 191.812 151.219L191.188 160.906C191.812 160.812 192.38 160.609 192.891 160.297C193.401 159.974 193.839 159.583 194.203 159.125C194.578 158.656 194.865 158.141 195.062 157.578C195.271 157.005 195.385 156.417 195.406 155.812V155.594ZM223.969 152.281C223.969 153.115 223.818 153.911 223.516 154.672C223.214 155.422 222.812 156.13 222.312 156.797C221.823 157.453 221.26 158.062 220.625 158.625C220 159.177 219.365 159.677 218.719 160.125H223.656L223.281 166.625L208.656 166.125V160.438C209.208 160.25 209.786 160.026 210.391 159.766C211.005 159.495 211.604 159.188 212.188 158.844C212.781 158.5 213.339 158.115 213.859 157.688C214.391 157.26 214.854 156.797 215.25 156.297C215.656 155.786 215.974 155.234 216.203 154.641C216.443 154.047 216.562 153.406 216.562 152.719C216.562 152.323 216.49 151.974 216.344 151.672C216.208 151.37 216.016 151.12 215.766 150.922C215.516 150.714 215.224 150.562 214.891 150.469C214.568 150.365 214.219 150.312 213.844 150.312C213.531 150.312 213.214 150.349 212.891 150.422C212.568 150.484 212.25 150.578 211.938 150.703C211.625 150.828 211.328 150.984 211.047 151.172C210.776 151.349 210.531 151.552 210.312 151.781L208.938 145.656C209.323 145.271 209.766 144.948 210.266 144.688C210.766 144.427 211.292 144.219 211.844 144.062C212.396 143.896 212.958 143.776 213.531 143.703C214.104 143.63 214.667 143.594 215.219 143.594C216.448 143.594 217.594 143.818 218.656 144.266C219.719 144.703 220.641 145.312 221.422 146.094C222.214 146.865 222.833 147.781 223.281 148.844C223.74 149.906 223.969 151.052 223.969 152.281ZM225.609 158.375L225.547 153.688L235.641 153.219L235.703 158.562L225.609 158.375Z" fill="#FD7878"/>
</g>
<defs>
<filter id="filter0_d_991_145" x="70" y="133" width="182" height="56.6699" filterUnits="userSpaceOnUse" color-interpolation-filters="sRGB">
<feFlood flood-opacity="0" result="BackgroundImageFix"/>
<feColorMatrix in="SourceAlpha" type="matrix" values="0 0 0 0 0 0 0 0 0 0 0 0 0 0 0 0 0 0 127 0" result="hardAlpha"/>
<feOffset dy="4"/>
<feGaussianBlur stdDeviation="2"/>
<feComposite in2="hardAlpha" operator="out"/>
<feColorMatrix type="matrix" values="0 0 0 0 0 0 0 0 0 0 0 0 0 0 0 0 0 0 0.25 0"/>
<feBlend mode="normal" in2="BackgroundImageFix" result="effect1_dropShadow_991_145"/>
<feBlend mode="normal" in="SourceGraphic" in2="effect1_dropShadow_991_145" result="shape"/>
</filter>
<filter id="filter1_d_991_145" x="86.0156" y="143.594" width="153.688" height="32.125" filterUnits="userSpaceOnUse" color-interpolation-filters="sRGB">
<feFlood flood-opacity="0" result="BackgroundImageFix"/>
<feColorMatrix in="SourceAlpha" type="matrix" values="0 0 0 0 0 0 0 0 0 0 0 0 0 0 0 0 0 0 127 0" result="hardAlpha"/>
<feOffset dy="4"/>
<feGaussianBlur stdDeviation="2"/>
<feComposite in2="hardAlpha" operator="out"/>
<feColorMatrix type="matrix" values="0 0 0 0 0 0 0 0 0 0 0 0 0 0 0 0 0 0 0.25 0"/>
<feBlend mode="normal" in2="BackgroundImageFix" result="effect1_dropShadow_991_145"/>
<feBlend mode="normal" in="SourceGraphic" in2="effect1_dropShadow_991_145" result="shape"/>
</filter>
<linearGradient id="paint0_linear_991_145" x1="47.2697" y1="136.071" x2="272.401" y2="136.071" gradientUnits="userSpaceOnUse">
<stop stop-color="#00FFB8"/>
<stop offset="1" stop-color="#4C7CF5"/>
</linearGradient>
<linearGradient id="paint1_linear_991_145" x1="83.7972" y1="110.977" x2="229.082" y2="110.977" gradientUnits="userSpaceOnUse">
<stop/>
<stop offset="1" stop-color="#0F0D37"/>
</linearGradient>
<linearGradient id="paint2_linear_991_145" x1="83.7973" y1="110.695" x2="229.082" y2="110.695" gradientUnits="userSpaceOnUse">
<stop/>
<stop offset="1" stop-color="#0F0D37"/>
</linearGradient>
<linearGradient id="paint3_linear_991_145" x1="83.7973" y1="111.216" x2="229.082" y2="111.216" gradientUnits="userSpaceOnUse">
<stop/>
<stop offset="1" stop-color="#0F0D37"/>
</linearGradient>
<linearGradient id="paint4_linear_991_145" x1="83.7973" y1="110.766" x2="229.082" y2="110.766" gradientUnits="userSpaceOnUse">
<stop/>
<stop offset="1" stop-color="#0F0D37"/>
</linearGradient>
<linearGradient id="paint5_linear_991_145" x1="83.7972" y1="111.523" x2="229.082" y2="111.523" gradientUnits="userSpaceOnUse">
<stop/>
<stop offset="1" stop-color="#0F0D37"/>
</linearGradient>
<linearGradient id="paint6_linear_991_145" x1="83.7972" y1="111.389" x2="229.082" y2="111.389" gradientUnits="userSpaceOnUse">
<stop/>
<stop offset="1" stop-color="#0F0D37"/>
</linearGradient>
<linearGradient id="paint7_linear_991_145" x1="83.7973" y1="110.977" x2="229.082" y2="110.977" gradientUnits="userSpaceOnUse">
<stop/>
<stop offset="1" stop-color="#0F0D37"/>
</linearGradient>
<linearGradient id="paint8_linear_991_145" x1="83.7972" y1="109.867" x2="229.082" y2="109.867" gradientUnits="userSpaceOnUse">
<stop/>
<stop offset="1" stop-color="#0F0D37"/>
</linearGradient>
</defs>
</svg>
