<svg width="723" height="414" viewBox="0 0 723 414" fill="none" xmlns="http://www.w3.org/2000/svg">
<path d="M206.998 0C321.144 0 414 75.3565 414 167.983C414 205.054 399.631 238.438 369.631 271.335C326.203 321.322 229.093 382.207 206.998 391.516C185.527 400.566 188.007 386.423 188.989 380.818C189.018 380.657 189.044 380.504 189.07 380.358C189.593 377.247 192.022 362.639 192.022 362.639C192.72 357.354 193.443 349.156 191.355 343.921C189.034 338.16 179.859 335.168 173.117 333.715C73.6422 320.565 0 251.021 0 167.983C0 75.3565 92.8682 0 206.998 0ZM129.941 198.882H90.4892V127.252C90.4892 125.026 88.6836 123.22 86.4614 123.22H71.9377C69.7116 123.22 67.906 125.026 67.906 127.252V217.442C67.906 218.525 68.3386 219.505 69.033 220.227L69.0571 220.256L69.0886 220.287L69.1481 220.342C69.8743 221.041 70.8504 221.469 71.9338 221.469H129.941C132.167 221.469 133.965 219.66 133.965 217.434V202.914C133.965 200.688 132.167 198.882 129.941 198.882ZM150.421 123.223C148.195 123.223 146.386 125.028 146.386 127.246V217.444C146.386 219.666 148.195 221.468 150.421 221.468H164.941C167.167 221.468 168.973 219.666 168.973 217.444V127.246C168.973 125.028 167.167 123.223 164.941 123.223H150.421ZM250.361 123.223C248.134 123.223 246.329 125.028 246.329 127.246V180.833L204.996 125.012C204.901 124.87 204.794 124.735 204.682 124.604L204.655 124.58C204.575 124.489 204.496 124.409 204.413 124.33L204.337 124.262C204.27 124.199 204.198 124.139 204.123 124.084C204.1 124.061 204.074 124.042 204.048 124.022L204.02 124L203.885 123.907L203.809 123.858C203.77 123.83 203.73 123.806 203.686 123.786C203.615 123.743 203.544 123.699 203.472 123.663L203.424 123.64L203.345 123.604C203.27 123.568 203.194 123.532 203.115 123.504L202.984 123.457C202.905 123.429 202.825 123.401 202.742 123.381L202.67 123.361L202.603 123.342L202.373 123.29L202.202 123.27L202.144 123.26L202.042 123.248L201.988 123.243L201.85 123.234L201.782 123.231L201.639 123.223H187.123C184.897 123.223 183.087 125.028 183.087 127.246V217.444C183.087 219.666 184.897 221.468 187.123 221.468H201.639C203.869 221.468 205.674 219.666 205.674 217.444V163.873L247.059 219.765C247.345 220.17 247.698 220.5 248.083 220.761L248.122 220.793L248.372 220.944C248.412 220.968 248.448 220.984 248.488 221.004C248.547 221.039 248.615 221.071 248.678 221.099L248.876 221.182L248.995 221.226C249.091 221.262 249.178 221.289 249.269 221.317C249.289 221.317 249.309 221.325 249.329 221.329C249.658 221.416 250.003 221.468 250.361 221.468H264.88C267.11 221.468 268.912 219.666 268.912 217.444V127.246C268.912 125.028 267.11 123.223 264.88 123.223H250.361ZM349.087 141.776V127.256C349.087 125.03 347.289 123.22 345.063 123.22H287.052C285.965 123.22 284.984 123.657 284.258 124.359L284.238 124.377L284.211 124.403L284.147 124.474C283.457 125.197 283.028 126.173 283.028 127.252V217.442C283.028 218.525 283.461 219.505 284.155 220.227C284.171 220.247 284.191 220.271 284.211 220.287C284.227 220.307 284.25 220.327 284.27 220.342C284.992 221.037 285.973 221.469 287.052 221.469H345.063C347.289 221.469 349.087 219.66 349.087 217.438V202.914C349.087 200.692 347.289 198.882 345.063 198.882H305.615V183.636H345.063C347.289 183.636 349.087 181.831 349.087 179.605V165.085C349.087 162.859 347.289 161.049 345.063 161.049H305.615V145.807H345.063C347.289 145.807 349.087 144.006 349.087 141.776Z" fill="white"/>
<g filter="url(#filter0_b_936_67)">
<rect x="246" y="244" width="477" height="150" rx="32" fill="black"/>
<rect x="249" y="247" width="471" height="144" rx="29" stroke="white" stroke-width="6"/>
</g>
<path d="M294.59 296.08H304.766L309.854 317.008L314.366 335.92H314.654L319.838 317.008L325.886 296.08H335.294L341.438 317.008L346.718 335.92H347.006L351.422 317.008L356.606 296.08H366.302L352.862 346H341.054L334.526 323.248L330.494 309.232H330.302L326.366 323.248L319.742 346H308.222L294.59 296.08ZM369.453 360.496L396.045 274.96H405.069L378.477 360.496H369.453ZM454.828 347.152C450.092 347.152 446.124 346.32 442.924 344.656C439.724 342.992 436.94 340.688 434.572 337.744L441.292 331.6C443.148 333.84 445.196 335.6 447.436 336.88C449.74 338.096 452.396 338.704 455.404 338.704C458.476 338.704 460.748 338.128 462.22 336.976C463.756 335.76 464.524 334.096 464.524 331.984C464.524 330.384 463.98 329.04 462.892 327.952C461.868 326.8 460.044 326.064 457.42 325.744L452.812 325.168C447.692 324.528 443.66 323.056 440.716 320.752C437.836 318.384 436.396 314.896 436.396 310.288C436.396 307.856 436.844 305.712 437.74 303.856C438.636 301.936 439.884 300.336 441.484 299.056C443.148 297.712 445.1 296.688 447.34 295.984C449.644 295.28 452.172 294.928 454.924 294.928C459.404 294.928 463.052 295.632 465.868 297.04C468.748 298.448 471.308 300.4 473.548 302.896L467.116 309.04C465.836 307.504 464.14 306.192 462.028 305.104C459.98 303.952 457.612 303.376 454.924 303.376C452.044 303.376 449.9 303.952 448.492 305.104C447.148 306.256 446.476 307.76 446.476 309.616C446.476 311.536 447.084 312.976 448.3 313.936C449.516 314.896 451.468 315.6 454.156 316.048L458.764 316.624C464.268 317.456 468.268 319.088 470.764 321.52C473.324 323.888 474.604 327.088 474.604 331.12C474.604 333.552 474.124 335.76 473.164 337.744C472.268 339.664 470.956 341.328 469.228 342.736C467.5 344.144 465.42 345.232 462.988 346C460.556 346.768 457.836 347.152 454.828 347.152ZM499.593 346C495.945 346 493.193 345.072 491.337 343.216C489.481 341.296 488.553 338.608 488.553 335.152V304.624H480.777V296.08H485.001C486.729 296.08 487.913 295.696 488.553 294.928C489.257 294.16 489.609 292.912 489.609 291.184V282.448H499.017V296.08H509.481V304.624H499.017V337.456H508.713V346H499.593ZM557.408 346C554.656 346 552.544 345.232 551.072 343.696C549.6 342.096 548.704 340.08 548.384 337.648H547.904C546.944 340.784 545.184 343.152 542.624 344.752C540.064 346.352 536.96 347.152 533.312 347.152C528.128 347.152 524.128 345.808 521.312 343.12C518.56 340.432 517.184 336.816 517.184 332.272C517.184 327.28 518.976 323.536 522.56 321.04C526.208 318.544 531.52 317.296 538.496 317.296H547.52V313.072C547.52 310 546.688 307.632 545.024 305.968C543.36 304.304 540.768 303.472 537.248 303.472C534.304 303.472 531.904 304.112 530.048 305.392C528.192 306.672 526.624 308.304 525.344 310.288L519.104 304.624C520.768 301.808 523.104 299.504 526.112 297.712C529.12 295.856 533.056 294.928 537.92 294.928C544.384 294.928 549.344 296.432 552.8 299.44C556.256 302.448 557.984 306.768 557.984 312.4V337.456H563.264V346H557.408ZM536.288 339.184C539.552 339.184 542.24 338.48 544.352 337.072C546.464 335.6 547.52 333.648 547.52 331.216V324.016H538.688C531.456 324.016 527.84 326.256 527.84 330.736V332.464C527.84 334.704 528.576 336.4 530.048 337.552C531.584 338.64 533.664 339.184 536.288 339.184ZM576.111 304.624H568.527V296.08H576.111V287.824C576.111 283.792 577.167 280.656 579.279 278.416C581.391 276.112 584.559 274.96 588.783 274.96H597.039V283.504H586.575V296.08H597.039V304.624H586.575V346H576.111V304.624ZM608.924 304.624H601.34V296.08H608.924V287.824C608.924 283.792 609.98 280.656 612.092 278.416C614.204 276.112 617.372 274.96 621.596 274.96H629.852V283.504H619.388V296.08H629.852V304.624H619.388V346H608.924V304.624ZM654.797 347.152C650.061 347.152 646.093 346.32 642.893 344.656C639.693 342.992 636.909 340.688 634.541 337.744L641.261 331.6C643.117 333.84 645.165 335.6 647.405 336.88C649.709 338.096 652.365 338.704 655.373 338.704C658.445 338.704 660.717 338.128 662.189 336.976C663.725 335.76 664.493 334.096 664.493 331.984C664.493 330.384 663.949 329.04 662.861 327.952C661.837 326.8 660.013 326.064 657.389 325.744L652.781 325.168C647.661 324.528 643.629 323.056 640.685 320.752C637.805 318.384 636.365 314.896 636.365 310.288C636.365 307.856 636.813 305.712 637.709 303.856C638.605 301.936 639.853 300.336 641.453 299.056C643.117 297.712 645.069 296.688 647.309 295.984C649.613 295.28 652.141 294.928 654.893 294.928C659.373 294.928 663.021 295.632 665.837 297.04C668.717 298.448 671.277 300.4 673.517 302.896L667.085 309.04C665.805 307.504 664.109 306.192 661.997 305.104C659.949 303.952 657.581 303.376 654.893 303.376C652.013 303.376 649.869 303.952 648.461 305.104C647.117 306.256 646.445 307.76 646.445 309.616C646.445 311.536 647.053 312.976 648.269 313.936C649.485 314.896 651.437 315.6 654.125 316.048L658.733 316.624C664.237 317.456 668.237 319.088 670.733 321.52C673.293 323.888 674.573 327.088 674.573 331.12C674.573 333.552 674.093 335.76 673.133 337.744C672.237 339.664 670.925 341.328 669.197 342.736C667.469 344.144 665.389 345.232 662.957 346C660.525 346.768 657.805 347.152 654.797 347.152Z" fill="white"/>
<defs>
<filter id="filter0_b_936_67" x="181" y="179" width="607" height="280" filterUnits="userSpaceOnUse" color-interpolation-filters="sRGB">
<feFlood flood-opacity="0" result="BackgroundImageFix"/>
<feGaussianBlur in="BackgroundImageFix" stdDeviation="32.5"/>
<feComposite in2="SourceAlpha" operator="in" result="effect1_backgroundBlur_936_67"/>
<feBlend mode="normal" in="SourceGraphic" in2="effect1_backgroundBlur_936_67" result="shape"/>
</filter>
</defs>
</svg>
