<svg width="779" height="414" viewBox="0 0 779 414" fill="none" xmlns="http://www.w3.org/2000/svg">
<path d="M206.998 0C321.144 0 414 75.3565 414 167.983C414 205.054 399.631 238.438 369.631 271.335C326.203 321.322 229.093 382.207 206.998 391.516C185.527 400.566 188.007 386.423 188.989 380.818C189.018 380.657 189.044 380.504 189.07 380.358C189.593 377.247 192.022 362.639 192.022 362.639C192.72 357.354 193.443 349.156 191.355 343.921C189.034 338.16 179.859 335.168 173.117 333.715C73.6422 320.565 0 251.021 0 167.983C0 75.3565 92.8682 0 206.998 0ZM129.941 198.882H90.4892V127.252C90.4892 125.026 88.6836 123.22 86.4614 123.22H71.9377C69.7116 123.22 67.906 125.026 67.906 127.252V217.442C67.906 218.525 68.3386 219.505 69.033 220.227L69.0571 220.256L69.0886 220.287L69.1481 220.342C69.8743 221.041 70.8504 221.469 71.9338 221.469H129.941C132.167 221.469 133.965 219.66 133.965 217.434V202.914C133.965 200.688 132.167 198.882 129.941 198.882ZM150.421 123.223C148.195 123.223 146.386 125.028 146.386 127.246V217.444C146.386 219.666 148.195 221.468 150.421 221.468H164.941C167.167 221.468 168.973 219.666 168.973 217.444V127.246C168.973 125.028 167.167 123.223 164.941 123.223H150.421ZM250.361 123.223C248.134 123.223 246.329 125.028 246.329 127.246V180.833L204.996 125.012C204.901 124.87 204.794 124.735 204.682 124.604L204.655 124.58C204.575 124.489 204.496 124.409 204.413 124.33L204.337 124.262C204.27 124.199 204.198 124.139 204.123 124.084C204.1 124.061 204.074 124.042 204.048 124.022L204.02 124L203.885 123.907L203.809 123.858C203.77 123.83 203.73 123.806 203.686 123.786C203.615 123.743 203.544 123.699 203.472 123.663L203.424 123.64L203.345 123.604C203.27 123.568 203.194 123.532 203.115 123.504L202.984 123.457C202.905 123.429 202.825 123.401 202.742 123.381L202.67 123.361L202.603 123.342L202.373 123.29L202.202 123.27L202.144 123.26L202.042 123.248L201.988 123.243L201.85 123.234L201.782 123.231L201.639 123.223H187.123C184.897 123.223 183.087 125.028 183.087 127.246V217.444C183.087 219.666 184.897 221.468 187.123 221.468H201.639C203.869 221.468 205.674 219.666 205.674 217.444V163.873L247.059 219.765C247.345 220.17 247.698 220.5 248.083 220.761L248.122 220.793L248.372 220.944C248.412 220.968 248.448 220.984 248.488 221.004C248.547 221.039 248.615 221.071 248.678 221.099L248.876 221.182L248.995 221.226C249.091 221.262 249.178 221.289 249.269 221.317C249.289 221.317 249.309 221.325 249.329 221.329C249.658 221.416 250.003 221.468 250.361 221.468H264.88C267.11 221.468 268.912 219.666 268.912 217.444V127.246C268.912 125.028 267.11 123.223 264.88 123.223H250.361ZM349.087 141.776V127.256C349.087 125.03 347.289 123.22 345.063 123.22H287.052C285.965 123.22 284.984 123.657 284.258 124.359L284.238 124.377L284.211 124.403L284.147 124.474C283.457 125.197 283.028 126.173 283.028 127.252V217.442C283.028 218.525 283.461 219.505 284.155 220.227C284.171 220.247 284.191 220.271 284.211 220.287C284.227 220.307 284.25 220.327 284.27 220.342C284.992 221.037 285.973 221.469 287.052 221.469H345.063C347.289 221.469 349.087 219.66 349.087 217.438V202.914C349.087 200.692 347.289 198.882 345.063 198.882H305.615V183.636H345.063C347.289 183.636 349.087 181.831 349.087 179.605V165.085C349.087 162.859 347.289 161.049 345.063 161.049H305.615V145.807H345.063C347.289 145.807 349.087 144.006 349.087 141.776Z" fill="white"/>
<g filter="url(#filter0_b_936_68)">
<rect x="246" y="244" width="533" height="150" rx="32" fill="black"/>
<rect x="249" y="247" width="527" height="144" rx="29" stroke="white" stroke-width="6"/>
</g>
<path d="M295.668 296.08H305.844L310.932 317.008L315.444 335.92H315.732L320.916 317.008L326.964 296.08H336.372L342.516 317.008L347.796 335.92H348.084L352.5 317.008L357.684 296.08H367.38L353.94 346H342.132L335.604 323.248L331.572 309.232H331.38L327.444 323.248L320.82 346H309.3L295.668 296.08ZM370.531 360.496L397.123 274.96H406.147L379.555 360.496H370.531ZM434.619 347.152C431.163 347.152 427.995 346.544 425.115 345.328C422.299 344.112 419.899 342.384 417.915 340.144C415.931 337.84 414.395 335.088 413.307 331.888C412.219 328.624 411.675 325.008 411.675 321.04C411.675 317.072 412.219 313.488 413.307 310.288C414.395 307.024 415.931 304.272 417.915 302.032C419.899 299.728 422.299 297.968 425.115 296.752C427.995 295.536 431.163 294.928 434.619 294.928C438.075 294.928 441.211 295.536 444.027 296.752C446.907 297.968 449.339 299.728 451.323 302.032C453.307 304.272 454.843 307.024 455.931 310.288C457.019 313.488 457.563 317.072 457.563 321.04C457.563 325.008 457.019 328.624 455.931 331.888C454.843 335.088 453.307 337.84 451.323 340.144C449.339 342.384 446.907 344.112 444.027 345.328C441.211 346.544 438.075 347.152 434.619 347.152ZM434.619 338.512C438.203 338.512 441.083 337.424 443.259 335.248C445.435 333.008 446.523 329.68 446.523 325.264V316.816C446.523 312.4 445.435 309.104 443.259 306.928C441.083 304.688 438.203 303.568 434.619 303.568C431.035 303.568 428.155 304.688 425.979 306.928C423.803 309.104 422.715 312.4 422.715 316.816V325.264C422.715 329.68 423.803 333.008 425.979 335.248C428.155 337.424 431.035 338.512 434.619 338.512ZM507.75 347.152C503.014 347.152 499.046 346.32 495.846 344.656C492.646 342.992 489.862 340.688 487.494 337.744L494.214 331.6C496.07 333.84 498.118 335.6 500.358 336.88C502.662 338.096 505.318 338.704 508.326 338.704C511.398 338.704 513.67 338.128 515.142 336.976C516.678 335.76 517.446 334.096 517.446 331.984C517.446 330.384 516.902 329.04 515.814 327.952C514.79 326.8 512.966 326.064 510.342 325.744L505.734 325.168C500.614 324.528 496.582 323.056 493.638 320.752C490.758 318.384 489.318 314.896 489.318 310.288C489.318 307.856 489.766 305.712 490.662 303.856C491.558 301.936 492.806 300.336 494.406 299.056C496.07 297.712 498.022 296.688 500.262 295.984C502.566 295.28 505.094 294.928 507.846 294.928C512.326 294.928 515.974 295.632 518.79 297.04C521.67 298.448 524.23 300.4 526.47 302.896L520.038 309.04C518.758 307.504 517.062 306.192 514.95 305.104C512.902 303.952 510.534 303.376 507.846 303.376C504.966 303.376 502.822 303.952 501.414 305.104C500.07 306.256 499.398 307.76 499.398 309.616C499.398 311.536 500.006 312.976 501.222 313.936C502.438 314.896 504.39 315.6 507.078 316.048L511.686 316.624C517.19 317.456 521.19 319.088 523.686 321.52C526.246 323.888 527.526 327.088 527.526 331.12C527.526 333.552 527.046 335.76 526.086 337.744C525.19 339.664 523.878 341.328 522.15 342.736C520.422 344.144 518.342 345.232 515.91 346C513.478 346.768 510.758 347.152 507.75 347.152ZM552.515 346C548.867 346 546.115 345.072 544.259 343.216C542.403 341.296 541.475 338.608 541.475 335.152V304.624H533.699V296.08H537.923C539.651 296.08 540.835 295.696 541.475 294.928C542.179 294.16 542.531 292.912 542.531 291.184V282.448H551.939V296.08H562.403V304.624H551.939V337.456H561.635V346H552.515ZM610.33 346C607.578 346 605.466 345.232 603.994 343.696C602.522 342.096 601.626 340.08 601.306 337.648H600.826C599.866 340.784 598.106 343.152 595.546 344.752C592.986 346.352 589.882 347.152 586.234 347.152C581.05 347.152 577.05 345.808 574.234 343.12C571.482 340.432 570.106 336.816 570.106 332.272C570.106 327.28 571.898 323.536 575.482 321.04C579.13 318.544 584.442 317.296 591.418 317.296H600.442V313.072C600.442 310 599.61 307.632 597.946 305.968C596.282 304.304 593.69 303.472 590.17 303.472C587.226 303.472 584.826 304.112 582.97 305.392C581.114 306.672 579.546 308.304 578.266 310.288L572.026 304.624C573.69 301.808 576.026 299.504 579.034 297.712C582.042 295.856 585.978 294.928 590.842 294.928C597.306 294.928 602.266 296.432 605.722 299.44C609.178 302.448 610.906 306.768 610.906 312.4V337.456H616.186V346H610.33ZM589.21 339.184C592.474 339.184 595.162 338.48 597.274 337.072C599.386 335.6 600.442 333.648 600.442 331.216V324.016H591.61C584.378 324.016 580.762 326.256 580.762 330.736V332.464C580.762 334.704 581.498 336.4 582.97 337.552C584.506 338.64 586.586 339.184 589.21 339.184ZM629.033 304.624H621.449V296.08H629.033V287.824C629.033 283.792 630.089 280.656 632.201 278.416C634.313 276.112 637.481 274.96 641.705 274.96H649.961V283.504H639.497V296.08H649.961V304.624H639.497V346H629.033V304.624ZM661.846 304.624H654.262V296.08H661.846V287.824C661.846 283.792 662.902 280.656 665.014 278.416C667.126 276.112 670.294 274.96 674.518 274.96H682.774V283.504H672.31V296.08H682.774V304.624H672.31V346H661.846V304.624ZM707.719 347.152C702.983 347.152 699.015 346.32 695.815 344.656C692.615 342.992 689.831 340.688 687.463 337.744L694.183 331.6C696.039 333.84 698.087 335.6 700.327 336.88C702.631 338.096 705.287 338.704 708.295 338.704C711.367 338.704 713.639 338.128 715.111 336.976C716.647 335.76 717.415 334.096 717.415 331.984C717.415 330.384 716.871 329.04 715.783 327.952C714.759 326.8 712.935 326.064 710.311 325.744L705.703 325.168C700.583 324.528 696.551 323.056 693.607 320.752C690.727 318.384 689.287 314.896 689.287 310.288C689.287 307.856 689.735 305.712 690.631 303.856C691.527 301.936 692.775 300.336 694.375 299.056C696.039 297.712 697.991 296.688 700.231 295.984C702.535 295.28 705.063 294.928 707.815 294.928C712.295 294.928 715.943 295.632 718.759 297.04C721.639 298.448 724.199 300.4 726.439 302.896L720.007 309.04C718.727 307.504 717.031 306.192 714.919 305.104C712.871 303.952 710.503 303.376 707.815 303.376C704.935 303.376 702.791 303.952 701.383 305.104C700.039 306.256 699.367 307.76 699.367 309.616C699.367 311.536 699.975 312.976 701.191 313.936C702.407 314.896 704.359 315.6 707.047 316.048L711.655 316.624C717.159 317.456 721.159 319.088 723.655 321.52C726.215 323.888 727.495 327.088 727.495 331.12C727.495 333.552 727.015 335.76 726.055 337.744C725.159 339.664 723.847 341.328 722.119 342.736C720.391 344.144 718.311 345.232 715.879 346C713.447 346.768 710.727 347.152 707.719 347.152Z" fill="#00FF66"/>
<defs>
<filter id="filter0_b_936_68" x="181" y="179" width="663" height="280" filterUnits="userSpaceOnUse" color-interpolation-filters="sRGB">
<feFlood flood-opacity="0" result="BackgroundImageFix"/>
<feGaussianBlur in="BackgroundImageFix" stdDeviation="32.5"/>
<feComposite in2="SourceAlpha" operator="in" result="effect1_backgroundBlur_936_68"/>
<feBlend mode="normal" in="SourceGraphic" in2="effect1_backgroundBlur_936_68" result="shape"/>
</filter>
</defs>
</svg>
