<svg width="1096" height="616" viewBox="0 0 1096 616" fill="none" xmlns="http://www.w3.org/2000/svg">
<g filter="url(#filter0_f_14_2)">
<ellipse cx="548" cy="234" rx="248" ry="82" fill="#00FF66" fill-opacity="0.56"/>
</g>
<rect x="306" y="186" width="484" height="96" rx="48" fill="white" stroke="black" stroke-width="6"/>
<path d="M375.243 220.824H374.923L371.403 228.056L361.611 245.912L351.819 228.056L348.299 220.824H347.979V255H341.067V210.328H349.643L361.611 233.048H361.995L373.963 210.328H382.155V255H375.243V220.824ZM405.736 255.768C403.346 255.768 401.213 255.363 399.336 254.552C397.458 253.741 395.858 252.589 394.536 251.096C393.213 249.56 392.189 247.725 391.464 245.592C390.781 243.416 390.44 241.005 390.44 238.36C390.44 235.715 390.781 233.325 391.464 231.192C392.189 229.016 393.213 227.181 394.536 225.688C395.858 224.152 397.458 222.979 399.336 222.168C401.213 221.357 403.346 220.952 405.736 220.952C408.168 220.952 410.301 221.379 412.136 222.232C414.013 223.085 415.57 224.28 416.808 225.816C418.045 227.309 418.962 229.059 419.56 231.064C420.2 233.069 420.52 235.224 420.52 237.528V240.152H397.672V241.24C397.672 243.8 398.418 245.912 399.912 247.576C401.448 249.197 403.624 250.008 406.44 250.008C408.488 250.008 410.216 249.56 411.624 248.664C413.032 247.768 414.226 246.552 415.208 245.016L419.304 249.048C418.066 251.096 416.274 252.739 413.928 253.976C411.581 255.171 408.85 255.768 405.736 255.768ZM405.736 226.392C404.541 226.392 403.432 226.605 402.408 227.032C401.426 227.459 400.573 228.056 399.848 228.824C399.165 229.592 398.632 230.509 398.248 231.576C397.864 232.643 397.672 233.816 397.672 235.096V235.544H413.16V234.904C413.16 232.344 412.498 230.296 411.176 228.76C409.853 227.181 408.04 226.392 405.736 226.392ZM441.298 255.768C438.909 255.768 436.775 255.363 434.898 254.552C433.021 253.741 431.421 252.589 430.098 251.096C428.775 249.56 427.751 247.725 427.026 245.592C426.343 243.416 426.002 241.005 426.002 238.36C426.002 235.715 426.343 233.325 427.026 231.192C427.751 229.016 428.775 227.181 430.098 225.688C431.421 224.152 433.021 222.979 434.898 222.168C436.775 221.357 438.909 220.952 441.298 220.952C443.73 220.952 445.863 221.379 447.698 222.232C449.575 223.085 451.133 224.28 452.37 225.816C453.607 227.309 454.525 229.059 455.122 231.064C455.762 233.069 456.082 235.224 456.082 237.528V240.152H433.234V241.24C433.234 243.8 433.981 245.912 435.474 247.576C437.01 249.197 439.186 250.008 442.002 250.008C444.05 250.008 445.778 249.56 447.186 248.664C448.594 247.768 449.789 246.552 450.77 245.016L454.866 249.048C453.629 251.096 451.837 252.739 449.49 253.976C447.143 255.171 444.413 255.768 441.298 255.768ZM441.298 226.392C440.103 226.392 438.994 226.605 437.97 227.032C436.989 227.459 436.135 228.056 435.41 228.824C434.727 229.592 434.194 230.509 433.81 231.576C433.426 232.643 433.234 233.816 433.234 235.096V235.544H448.722V234.904C448.722 232.344 448.061 230.296 446.738 228.76C445.415 227.181 443.602 226.392 441.298 226.392ZM473.021 255C470.589 255 468.754 254.381 467.517 253.144C466.279 251.864 465.661 250.072 465.661 247.768V227.416H460.477V221.72H463.293C464.445 221.72 465.234 221.464 465.661 220.952C466.13 220.44 466.365 219.608 466.365 218.456V212.632H472.637V221.72H479.613V227.416H472.637V249.304H479.101V255H473.021ZM515.361 255.768C513.057 255.768 510.945 255.363 509.025 254.552C507.147 253.741 505.547 252.589 504.225 251.096C502.902 249.56 501.878 247.725 501.153 245.592C500.427 243.416 500.065 241.005 500.065 238.36C500.065 235.715 500.427 233.325 501.153 231.192C501.878 229.016 502.902 227.181 504.225 225.688C505.547 224.152 507.147 222.979 509.025 222.168C510.945 221.357 513.057 220.952 515.361 220.952C517.665 220.952 519.755 221.357 521.633 222.168C523.553 222.979 525.174 224.152 526.497 225.688C527.819 227.181 528.843 229.016 529.569 231.192C530.294 233.325 530.657 235.715 530.657 238.36C530.657 241.005 530.294 243.416 529.569 245.592C528.843 247.725 527.819 249.56 526.497 251.096C525.174 252.589 523.553 253.741 521.633 254.552C519.755 255.363 517.665 255.768 515.361 255.768ZM515.361 250.008C517.75 250.008 519.67 249.283 521.121 247.832C522.571 246.339 523.297 244.12 523.297 241.176V235.544C523.297 232.6 522.571 230.403 521.121 228.952C519.67 227.459 517.75 226.712 515.361 226.712C512.971 226.712 511.051 227.459 509.601 228.952C508.15 230.403 507.425 232.6 507.425 235.544V241.176C507.425 244.12 508.15 246.339 509.601 247.832C511.051 249.283 512.971 250.008 515.361 250.008ZM558.59 249.496H558.334C558.035 250.307 557.63 251.096 557.118 251.864C556.648 252.632 556.03 253.315 555.262 253.912C554.536 254.467 553.64 254.915 552.574 255.256C551.55 255.597 550.355 255.768 548.99 255.768C545.534 255.768 542.846 254.659 540.926 252.44C539.048 250.221 538.11 247.043 538.11 242.904V221.72H545.086V242.008C545.086 247.171 547.219 249.752 551.486 249.752C552.382 249.752 553.256 249.645 554.11 249.432C554.963 249.176 555.71 248.813 556.35 248.344C557.032 247.875 557.566 247.277 557.95 246.552C558.376 245.827 558.59 244.973 558.59 243.992V221.72H565.566V255H558.59V249.496ZM575.555 255V221.72H582.531V228.12H582.851C583.32 226.413 584.301 224.92 585.795 223.64C587.288 222.36 589.357 221.72 592.003 221.72H593.859V228.44H591.107C588.333 228.44 586.2 228.888 584.707 229.784C583.256 230.68 582.531 232.003 582.531 233.752V255H575.555ZM624.396 255C621.964 255 620.129 254.381 618.892 253.144C617.654 251.864 617.036 250.072 617.036 247.768V227.416H611.852V221.72H614.668C615.82 221.72 616.609 221.464 617.036 220.952C617.505 220.44 617.74 219.608 617.74 218.456V212.632H624.012V221.72H630.988V227.416H624.012V249.304H630.476V255H624.396ZM651.361 255.768C648.971 255.768 646.838 255.363 644.961 254.552C643.083 253.741 641.483 252.589 640.161 251.096C638.838 249.56 637.814 247.725 637.089 245.592C636.406 243.416 636.065 241.005 636.065 238.36C636.065 235.715 636.406 233.325 637.089 231.192C637.814 229.016 638.838 227.181 640.161 225.688C641.483 224.152 643.083 222.979 644.961 222.168C646.838 221.357 648.971 220.952 651.361 220.952C653.793 220.952 655.926 221.379 657.761 222.232C659.638 223.085 661.195 224.28 662.433 225.816C663.67 227.309 664.587 229.059 665.185 231.064C665.825 233.069 666.145 235.224 666.145 237.528V240.152H643.297V241.24C643.297 243.8 644.043 245.912 645.537 247.576C647.073 249.197 649.249 250.008 652.065 250.008C654.113 250.008 655.841 249.56 657.249 248.664C658.657 247.768 659.851 246.552 660.833 245.016L664.929 249.048C663.691 251.096 661.899 252.739 659.553 253.976C657.206 255.171 654.475 255.768 651.361 255.768ZM651.361 226.392C650.166 226.392 649.057 226.605 648.033 227.032C647.051 227.459 646.198 228.056 645.473 228.824C644.79 229.592 644.257 230.509 643.873 231.576C643.489 232.643 643.297 233.816 643.297 235.096V235.544H658.785V234.904C658.785 232.344 658.123 230.296 656.801 228.76C655.478 227.181 653.665 226.392 651.361 226.392ZM698.251 255C696.416 255 695.008 254.488 694.027 253.464C693.046 252.397 692.448 251.053 692.235 249.432H691.915C691.275 251.523 690.102 253.101 688.395 254.168C686.688 255.235 684.619 255.768 682.187 255.768C678.731 255.768 676.064 254.872 674.187 253.08C672.352 251.288 671.435 248.877 671.435 245.848C671.435 242.52 672.63 240.024 675.019 238.36C677.451 236.696 680.992 235.864 685.643 235.864H691.659V233.048C691.659 231 691.104 229.421 689.995 228.312C688.886 227.203 687.158 226.648 684.811 226.648C682.848 226.648 681.248 227.075 680.011 227.928C678.774 228.781 677.728 229.869 676.875 231.192L672.715 227.416C673.824 225.539 675.382 224.003 677.387 222.808C679.392 221.571 682.016 220.952 685.259 220.952C689.568 220.952 692.875 221.955 695.179 223.96C697.483 225.965 698.635 228.845 698.635 232.6V249.304H702.155V255H698.251ZM684.171 250.456C686.347 250.456 688.139 249.987 689.547 249.048C690.955 248.067 691.659 246.765 691.659 245.144V240.344H685.771C680.95 240.344 678.539 241.837 678.539 244.824V245.976C678.539 247.469 679.03 248.6 680.011 249.368C681.035 250.093 682.422 250.456 684.171 250.456ZM708.992 255V221.72H715.968V227.224H716.288C716.629 226.371 717.035 225.56 717.504 224.792C718.016 224.024 718.613 223.363 719.296 222.808C720.021 222.211 720.853 221.763 721.792 221.464C722.773 221.123 723.904 220.952 725.184 220.952C727.445 220.952 729.451 221.507 731.2 222.616C732.949 223.725 734.229 225.432 735.04 227.736H735.232C735.829 225.859 736.981 224.259 738.688 222.936C740.395 221.613 742.592 220.952 745.28 220.952C748.608 220.952 751.189 222.083 753.024 224.344C754.859 226.563 755.776 229.741 755.776 233.88V255H748.8V234.712C748.8 232.152 748.309 230.232 747.328 228.952C746.347 227.629 744.789 226.968 742.656 226.968C741.76 226.968 740.907 227.096 740.096 227.352C739.285 227.565 738.56 227.907 737.92 228.376C737.323 228.845 736.832 229.443 736.448 230.168C736.064 230.893 735.872 231.725 735.872 232.664V255H728.896V234.712C728.896 229.549 726.869 226.968 722.816 226.968C721.963 226.968 721.109 227.096 720.256 227.352C719.445 227.565 718.72 227.907 718.08 228.376C717.44 228.845 716.928 229.443 716.544 230.168C716.16 230.893 715.968 231.725 715.968 232.664V255H708.992Z" fill="black"/>
<rect x="668.422" y="275.515" width="152" height="58" rx="14" transform="rotate(-22.5096 668.422 275.515)" fill="#00FF66"/>
<path d="M719.045 295.846L709.586 299.767L712.051 310.73L706.493 313.033L704.028 302.07L698.056 304.544L695.851 299.223L702.769 296.356L700.269 285.477L694.297 287.951L692.092 282.63L699.01 279.763L696.545 268.8L702.043 266.521L704.508 277.485L713.968 273.564L711.503 262.601L717.061 260.298L719.526 271.261L725.497 268.787L727.703 274.108L720.785 276.975L723.285 287.854L729.256 285.38L731.461 290.701L724.544 293.568L727.009 304.531L721.51 306.81L719.045 295.846ZM717.727 290.158L715.287 279.253L705.827 283.173L708.267 294.078L717.727 290.158ZM771.579 286.061L742.372 298.165L739.015 290.065L747.218 273.918C747.953 272.459 748.551 271.172 749.013 270.057C749.458 268.902 749.762 267.853 749.925 266.908C750.11 265.907 750.147 264.992 750.033 264.161C749.959 263.314 749.743 262.457 749.384 261.59L749.041 260.762C748.714 259.974 748.27 259.349 747.71 258.889C747.15 258.428 746.532 258.107 745.856 257.925C745.18 257.743 744.466 257.693 743.715 257.773C743.002 257.838 742.311 258.009 741.641 258.286C740.656 258.695 739.854 259.212 739.235 259.837C738.657 260.447 738.206 261.142 737.883 261.922C737.583 262.647 737.402 263.438 737.341 264.294C737.264 265.111 737.291 265.955 737.42 266.825L728.45 267.078C728.335 265.463 728.43 263.854 728.735 262.249C729.024 260.605 729.583 259.057 730.413 257.605C731.266 256.097 732.425 254.716 733.891 253.462C735.358 252.207 737.155 251.139 739.283 250.257C741.53 249.326 743.651 248.817 745.647 248.729C747.643 248.64 749.46 248.903 751.1 249.517C752.78 250.114 754.253 251.051 755.521 252.327C756.772 253.563 757.765 255.068 758.5 256.842C759.235 258.616 759.61 260.354 759.623 262.058C759.636 263.761 759.399 265.475 758.914 267.201C758.451 268.871 757.786 270.555 756.92 272.253C756.053 273.951 755.136 275.694 754.168 277.481L748.981 286.697L768.492 278.611L771.579 286.061ZM792.484 278.229C787.084 280.467 782.308 280.252 778.154 277.586C774.001 274.92 770.528 270.216 767.735 263.476C764.942 256.736 764.07 250.955 765.119 246.132C766.169 241.309 769.394 237.779 774.794 235.541C780.194 233.303 784.971 233.518 789.124 236.184C793.277 238.851 796.75 243.554 799.544 250.294C802.337 257.034 803.208 262.816 802.159 267.638C801.109 272.461 797.884 275.991 792.484 278.229ZM789.372 270.72C791.737 269.74 793.014 268.195 793.202 266.085C793.39 263.975 792.83 261.343 791.523 258.19L788.289 250.386C786.982 247.232 785.516 244.976 783.891 243.618C782.266 242.259 780.271 242.07 777.906 243.05C775.541 244.03 774.264 245.575 774.076 247.685C773.889 249.795 774.448 252.427 775.755 255.58L778.989 263.384C780.296 266.538 781.762 268.794 783.387 270.152C785.012 271.511 787.008 271.7 789.372 270.72Z" fill="white"/>
<defs>
<filter id="filter0_f_14_2" x="0" y="-148" width="1096" height="764" filterUnits="userSpaceOnUse" color-interpolation-filters="sRGB">
<feFlood flood-opacity="0" result="BackgroundImageFix"/>
<feBlend mode="normal" in="SourceGraphic" in2="BackgroundImageFix" result="shape"/>
<feGaussianBlur stdDeviation="150" result="effect1_foregroundBlur_14_2"/>
</filter>
</defs>
</svg>
