<svg width="84" height="104" viewBox="0 0 84 104" fill="none" xmlns="http://www.w3.org/2000/svg">
<rect width="84" height="104" rx="19" fill="#00FF66"/>
<g clip-path="url(#clip0_465_30)">
<path d="M42 30.625C42.3149 30.625 42.617 30.7501 42.8397 30.9728C43.0624 31.1955 43.1875 31.4976 43.1875 31.8125V35.375H46.75C47.0649 35.375 47.367 35.5001 47.5897 35.7228C47.8124 35.9455 47.9375 36.2476 47.9375 36.5625C47.9375 36.8774 47.8124 37.1795 47.5897 37.4022C47.367 37.6249 47.0649 37.75 46.75 37.75H43.1875V41.3125C43.1875 41.6274 43.0624 41.9295 42.8397 42.1522C42.617 42.3749 42.3149 42.5 42 42.5C41.6851 42.5 41.383 42.3749 41.1603 42.1522C40.9376 41.9295 40.8125 41.6274 40.8125 41.3125V37.75H37.25C36.9351 37.75 36.633 37.6249 36.4103 37.4022C36.1876 37.1795 36.0625 36.8774 36.0625 36.5625C36.0625 36.2476 36.1876 35.9455 36.4103 35.7228C36.633 35.5001 36.9351 35.375 37.25 35.375H40.8125V31.8125C40.8125 31.4976 40.9376 31.1955 41.1603 30.9728C41.383 30.7501 41.6851 30.625 42 30.625Z" fill="black" fill-opacity="0.72"/>
<path d="M31.3125 14C31.6274 14 31.9295 14.1251 32.1522 14.3478C32.3749 14.5705 32.5 14.8726 32.5 15.1875V16.375H51.5V15.1875C51.5 14.8726 51.6251 14.5705 51.8478 14.3478C52.0705 14.1251 52.3726 14 52.6875 14C53.0024 14 53.3045 14.1251 53.5272 14.3478C53.7499 14.5705 53.875 14.8726 53.875 15.1875V16.375H56.25C57.5098 16.375 58.718 16.8754 59.6088 17.7662C60.4996 18.657 61 19.8652 61 21.125V47.25C61 48.5098 60.4996 49.718 59.6088 50.6088C58.718 51.4996 57.5098 52 56.25 52H27.75C26.4902 52 25.282 51.4996 24.3912 50.6088C23.5004 49.718 23 48.5098 23 47.25V21.125C23 19.8652 23.5004 18.657 24.3912 17.7662C25.282 16.8754 26.4902 16.375 27.75 16.375H30.125V15.1875C30.125 14.8726 30.2501 14.5705 30.4728 14.3478C30.6955 14.1251 30.9976 14 31.3125 14ZM25.375 23.5V47.25C25.375 47.8799 25.6252 48.484 26.0706 48.9294C26.516 49.3748 27.1201 49.625 27.75 49.625H56.25C56.8799 49.625 57.484 49.3748 57.9294 48.9294C58.3748 48.484 58.625 47.8799 58.625 47.25V23.5H25.375Z" fill="black" fill-opacity="0.72"/>
</g>
<path d="M29.9219 68L29.2499 65.864H26.2739L25.6139 68H24.0059L26.8139 59.624H28.7819L31.5659 68H29.9219ZM27.7859 61.064H27.7259L26.6579 64.508H28.8659L27.7859 61.064ZM36.5924 66.956H36.5324C36.4204 67.316 36.2084 67.604 35.8964 67.82C35.5844 68.036 35.2204 68.144 34.8044 68.144C34.0124 68.144 33.4044 67.86 32.9804 67.292C32.5644 66.724 32.3564 65.912 32.3564 64.856C32.3564 63.808 32.5644 63.004 32.9804 62.444C33.4044 61.876 34.0124 61.592 34.8044 61.592C35.2204 61.592 35.5844 61.7 35.8964 61.916C36.2084 62.124 36.4204 62.408 36.5324 62.768H36.5924V59.12H38.1284V68H36.5924V66.956ZM35.2964 66.872C35.6644 66.872 35.9724 66.784 36.2204 66.608C36.4684 66.432 36.5924 66.18 36.5924 65.852V63.86C36.5924 63.556 36.4684 63.312 36.2204 63.128C35.9724 62.944 35.6644 62.852 35.2964 62.852C34.8964 62.852 34.5724 62.988 34.3244 63.26C34.0844 63.524 33.9644 63.88 33.9644 64.328V65.408C33.9644 65.856 34.0844 66.212 34.3244 66.476C34.5724 66.74 34.8964 66.872 35.2964 66.872ZM43.7877 66.956H43.7277C43.6157 67.316 43.4037 67.604 43.0917 67.82C42.7797 68.036 42.4157 68.144 41.9997 68.144C41.2077 68.144 40.5997 67.86 40.1757 67.292C39.7597 66.724 39.5517 65.912 39.5517 64.856C39.5517 63.808 39.7597 63.004 40.1757 62.444C40.5997 61.876 41.2077 61.592 41.9997 61.592C42.4157 61.592 42.7797 61.7 43.0917 61.916C43.4037 62.124 43.6157 62.408 43.7277 62.768H43.7877V59.12H45.3237V68H43.7877V66.956ZM42.4917 66.872C42.8597 66.872 43.1677 66.784 43.4157 66.608C43.6637 66.432 43.7877 66.18 43.7877 65.852V63.86C43.7877 63.556 43.6637 63.312 43.4157 63.128C43.1677 62.944 42.8597 62.852 42.4917 62.852C42.0917 62.852 41.7677 62.988 41.5197 63.26C41.2797 63.524 41.1597 63.88 41.1597 64.328V65.408C41.1597 65.856 41.2797 66.212 41.5197 66.476C41.7677 66.74 42.0917 66.872 42.4917 66.872ZM51.887 68C51.359 68 50.955 67.864 50.675 67.592C50.403 67.312 50.267 66.916 50.267 66.404V62.96H49.343V61.736H49.823C50.055 61.736 50.211 61.684 50.291 61.58C50.379 61.468 50.423 61.304 50.423 61.088V60.02H51.803V61.736H53.087V62.96H51.803V66.776H52.991V68H51.887ZM56.8564 68.144C56.4084 68.144 56.0044 68.068 55.6444 67.916C55.2924 67.764 54.9884 67.544 54.7324 67.256C54.4844 66.968 54.2924 66.624 54.1564 66.224C54.0204 65.816 53.9524 65.36 53.9524 64.856C53.9524 64.352 54.0204 63.9 54.1564 63.5C54.2924 63.1 54.4844 62.76 54.7324 62.48C54.9884 62.192 55.2924 61.972 55.6444 61.82C56.0044 61.668 56.4084 61.592 56.8564 61.592C57.3044 61.592 57.7084 61.668 58.0684 61.82C58.4284 61.972 58.7324 62.192 58.9804 62.48C59.2364 62.76 59.4324 63.1 59.5684 63.5C59.7044 63.9 59.7724 64.352 59.7724 64.856C59.7724 65.36 59.7044 65.816 59.5684 66.224C59.4324 66.624 59.2364 66.968 58.9804 67.256C58.7324 67.544 58.4284 67.764 58.0684 67.916C57.7084 68.068 57.3044 68.144 56.8564 68.144ZM56.8564 66.908C57.2644 66.908 57.5844 66.784 57.8164 66.536C58.0484 66.288 58.1644 65.924 58.1644 65.444V64.28C58.1644 63.808 58.0484 63.448 57.8164 63.2C57.5844 62.952 57.2644 62.828 56.8564 62.828C56.4564 62.828 56.1404 62.952 55.9084 63.2C55.6764 63.448 55.5604 63.808 55.5604 64.28V65.444C55.5604 65.924 55.6764 66.288 55.9084 66.536C56.1404 66.784 56.4564 66.908 56.8564 66.908ZM21.0934 88.144C20.5414 88.144 20.0414 88.056 19.5934 87.88C19.1534 87.696 18.7734 87.424 18.4534 87.064C18.1414 86.704 17.9014 86.26 17.7334 85.732C17.5654 85.196 17.4814 84.576 17.4814 83.872C17.4814 83.168 17.5654 82.544 17.7334 82C17.9014 81.448 18.1414 80.988 18.4534 80.62C18.7734 80.244 19.1534 79.96 19.5934 79.768C20.0414 79.576 20.5414 79.48 21.0934 79.48C21.8454 79.48 22.4694 79.64 22.9654 79.96C23.4614 80.28 23.8574 80.764 24.1534 81.412L22.7974 82.132C22.6774 81.756 22.4814 81.456 22.2094 81.232C21.9374 81 21.5654 80.884 21.0934 80.884C20.5014 80.884 20.0294 81.084 19.6774 81.484C19.3334 81.884 19.1614 82.444 19.1614 83.164V84.484C19.1614 85.212 19.3334 85.772 19.6774 86.164C20.0294 86.548 20.5014 86.74 21.0934 86.74C21.5654 86.74 21.9494 86.612 22.2454 86.356C22.5494 86.1 22.7694 85.784 22.9054 85.408L24.1894 86.164C23.8854 86.788 23.4814 87.276 22.9774 87.628C22.4734 87.972 21.8454 88.144 21.0934 88.144ZM30.0526 88C29.7166 88 29.4486 87.904 29.2486 87.712C29.0566 87.512 28.9366 87.248 28.8886 86.92H28.8166C28.7126 87.328 28.5006 87.636 28.1806 87.844C27.8606 88.044 27.4646 88.144 26.9926 88.144C26.3526 88.144 25.8606 87.976 25.5166 87.64C25.1726 87.304 25.0006 86.856 25.0006 86.296C25.0006 85.648 25.2326 85.168 25.6966 84.856C26.1606 84.536 26.8206 84.376 27.6766 84.376H28.7446V83.92C28.7446 83.568 28.6526 83.296 28.4686 83.104C28.2846 82.912 27.9886 82.816 27.5806 82.816C27.2206 82.816 26.9286 82.896 26.7046 83.056C26.4886 83.208 26.3046 83.392 26.1526 83.608L25.2406 82.792C25.4726 82.432 25.7806 82.144 26.1646 81.928C26.5486 81.704 27.0566 81.592 27.6886 81.592C28.5366 81.592 29.1806 81.784 29.6206 82.168C30.0606 82.552 30.2806 83.104 30.2806 83.824V86.776H30.9046V88H30.0526ZM27.5086 87.028C27.8526 87.028 28.1446 86.952 28.3846 86.8C28.6246 86.648 28.7446 86.424 28.7446 86.128V85.3H27.7606C26.9606 85.3 26.5606 85.556 26.5606 86.068V86.272C26.5606 86.528 26.6406 86.72 26.8006 86.848C26.9686 86.968 27.2046 87.028 27.5086 87.028ZM33.6838 88C33.1558 88 32.7678 87.868 32.5198 87.604C32.2718 87.34 32.1478 86.968 32.1478 86.488V79.12H33.6838V86.776H34.5118V88H33.6838ZM38.2071 88.144C37.7431 88.144 37.3271 88.068 36.9591 87.916C36.5991 87.756 36.2911 87.536 36.0351 87.256C35.7871 86.968 35.5951 86.624 35.4591 86.224C35.3231 85.816 35.2551 85.36 35.2551 84.856C35.2551 84.36 35.3191 83.912 35.4471 83.512C35.5831 83.112 35.7751 82.772 36.0231 82.492C36.2711 82.204 36.5751 81.984 36.9351 81.832C37.2951 81.672 37.7031 81.592 38.1591 81.592C38.6471 81.592 39.0711 81.676 39.4311 81.844C39.7911 82.012 40.0871 82.24 40.3191 82.528C40.5511 82.816 40.7231 83.152 40.8351 83.536C40.9551 83.912 41.0151 84.316 41.0151 84.748V85.252H36.8511V85.408C36.8511 85.864 36.9791 86.232 37.2351 86.512C37.4911 86.784 37.8711 86.92 38.3751 86.92C38.7591 86.92 39.0711 86.84 39.3111 86.68C39.5591 86.52 39.7791 86.316 39.9711 86.068L40.7991 86.992C40.5431 87.352 40.1911 87.636 39.7431 87.844C39.3031 88.044 38.7911 88.144 38.2071 88.144ZM38.1831 82.744C37.7751 82.744 37.4511 82.88 37.2111 83.152C36.9711 83.424 36.8511 83.776 36.8511 84.208V84.304H39.4191V84.196C39.4191 83.764 39.3111 83.416 39.0951 83.152C38.8871 82.88 38.5831 82.744 38.1831 82.744ZM42.3665 88V81.736H43.9025V82.78H43.9625C44.0905 82.444 44.2905 82.164 44.5625 81.94C44.8425 81.708 45.2265 81.592 45.7145 81.592C46.3625 81.592 46.8585 81.804 47.2025 82.228C47.5465 82.652 47.7185 83.256 47.7185 84.04V88H46.1825V84.196C46.1825 83.748 46.1025 83.412 45.9425 83.188C45.7825 82.964 45.5185 82.852 45.1505 82.852C44.9905 82.852 44.8345 82.876 44.6825 82.924C44.5385 82.964 44.4065 83.028 44.2865 83.116C44.1745 83.196 44.0825 83.3 44.0105 83.428C43.9385 83.548 43.9025 83.692 43.9025 83.86V88H42.3665ZM53.3092 86.956H53.2492C53.1372 87.316 52.9252 87.604 52.6132 87.82C52.3012 88.036 51.9372 88.144 51.5212 88.144C50.7292 88.144 50.1212 87.86 49.6972 87.292C49.2812 86.724 49.0732 85.912 49.0732 84.856C49.0732 83.808 49.2812 83.004 49.6972 82.444C50.1212 81.876 50.7292 81.592 51.5212 81.592C51.9372 81.592 52.3012 81.7 52.6132 81.916C52.9252 82.124 53.1372 82.408 53.2492 82.768H53.3092V79.12H54.8452V88H53.3092V86.956ZM52.0132 86.872C52.3812 86.872 52.6892 86.784 52.9372 86.608C53.1852 86.432 53.3092 86.18 53.3092 85.852V83.86C53.3092 83.556 53.1852 83.312 52.9372 83.128C52.6892 82.944 52.3812 82.852 52.0132 82.852C51.6132 82.852 51.2892 82.988 51.0412 83.26C50.8012 83.524 50.6812 83.88 50.6812 84.328V85.408C50.6812 85.856 50.8012 86.212 51.0412 86.476C51.2892 86.74 51.6132 86.872 52.0132 86.872ZM61.2245 88C60.8885 88 60.6205 87.904 60.4205 87.712C60.2285 87.512 60.1085 87.248 60.0605 86.92H59.9885C59.8845 87.328 59.6725 87.636 59.3525 87.844C59.0325 88.044 58.6365 88.144 58.1645 88.144C57.5245 88.144 57.0325 87.976 56.6885 87.64C56.3445 87.304 56.1725 86.856 56.1725 86.296C56.1725 85.648 56.4045 85.168 56.8685 84.856C57.3325 84.536 57.9925 84.376 58.8485 84.376H59.9165V83.92C59.9165 83.568 59.8245 83.296 59.6405 83.104C59.4565 82.912 59.1605 82.816 58.7525 82.816C58.3925 82.816 58.1005 82.896 57.8765 83.056C57.6605 83.208 57.4765 83.392 57.3245 83.608L56.4125 82.792C56.6445 82.432 56.9525 82.144 57.3365 81.928C57.7205 81.704 58.2285 81.592 58.8605 81.592C59.7085 81.592 60.3525 81.784 60.7925 82.168C61.2325 82.552 61.4525 83.104 61.4525 83.824V86.776H62.0765V88H61.2245ZM58.6805 87.028C59.0245 87.028 59.3165 86.952 59.5565 86.8C59.7965 86.648 59.9165 86.424 59.9165 86.128V85.3H58.9325C58.1325 85.3 57.7325 85.556 57.7325 86.068V86.272C57.7325 86.528 57.8125 86.72 57.9725 86.848C58.1405 86.968 58.3765 87.028 58.6805 87.028ZM63.3196 88V81.736H64.8556V83.032H64.9156C64.9556 82.864 65.0156 82.704 65.0956 82.552C65.1836 82.392 65.2956 82.252 65.4316 82.132C65.5676 82.012 65.7276 81.916 65.9116 81.844C66.1036 81.772 66.3236 81.736 66.5716 81.736H66.9076V83.188H66.4276C65.9076 83.188 65.5156 83.264 65.2516 83.416C64.9876 83.568 64.8556 83.816 64.8556 84.16V88H63.3196Z" fill="#1D1D1F"/>
<defs>
<clipPath id="clip0_465_30">
<rect width="38" height="38" fill="white" transform="translate(23 14)"/>
</clipPath>
</defs>
</svg>
