<svg width="92" height="92" viewBox="0 0 92 92" fill="none" xmlns="http://www.w3.org/2000/svg">
<path d="M77.8837 16.7157C71.9181 13.9779 65.6232 12.0239 59.1559 10.9024C59.0973 10.8926 59.0371 10.9011 58.9836 10.9268C58.93 10.9526 58.8858 10.9943 58.8569 11.0462C58.0462 12.4837 57.1492 14.3639 56.5224 15.8359C49.5512 14.778 42.4602 14.778 35.4889 15.8359C34.7898 14.1961 33.9989 12.597 33.1199 11.0462C33.0904 10.9948 33.0461 10.9536 32.9927 10.928C32.9393 10.9023 32.8794 10.8934 32.8209 10.9024C26.3525 12.0193 20.057 13.9735 14.0932 16.7157C14.0421 16.7352 13.9995 16.7717 13.9724 16.8192C2.04692 34.6384 -1.22483 52.0207 0.379418 69.1844C0.385168 69.2649 0.436918 69.3454 0.500168 69.3972C7.44464 74.5411 15.2121 78.4686 23.4714 81.0122C23.5297 81.0306 23.5924 81.0299 23.6503 81.0103C23.7082 80.9906 23.7583 80.953 23.7934 80.9029C25.5644 78.4879 27.1399 75.9407 28.4969 73.2612C28.5156 73.2246 28.5263 73.1845 28.5282 73.1434C28.5301 73.1024 28.5232 73.0614 28.508 73.0233C28.4927 72.9852 28.4695 72.9507 28.4398 72.9223C28.4101 72.8939 28.3747 72.8722 28.3359 72.8587C25.8586 71.9066 23.4593 70.7627 21.1599 69.4374C21.1179 69.4131 21.0826 69.3788 21.0571 69.3375C21.0317 69.2962 21.0168 69.2492 21.014 69.2008C21.0111 69.1524 21.0203 69.104 21.0408 69.06C21.0613 69.016 21.0923 68.9777 21.1312 68.9487C21.6142 68.5864 22.0972 68.2069 22.5572 67.8274C22.5978 67.7948 22.6466 67.7738 22.6982 67.7667C22.7499 67.7596 22.8025 67.7667 22.8504 67.7872C37.9097 74.6642 54.2109 74.6642 69.0862 67.7872C69.1357 67.765 69.1904 67.7571 69.2442 67.7642C69.298 67.7713 69.3488 67.7932 69.3909 67.8274C69.8509 68.2069 70.3339 68.5864 70.8169 68.9487C70.8561 68.9773 70.8875 69.0151 70.9084 69.0589C70.9294 69.1026 70.9391 69.1508 70.9368 69.1992C70.9345 69.2477 70.9203 69.2948 70.8954 69.3363C70.8704 69.3779 70.8356 69.4126 70.7939 69.4374C68.4997 70.7746 66.0973 71.9171 63.6122 72.8529C63.5737 72.8677 63.5388 72.8905 63.5097 72.9197C63.4806 72.9489 63.458 72.9839 63.4434 73.0224C63.4287 73.0609 63.4224 73.1021 63.4247 73.1432C63.427 73.1844 63.438 73.2246 63.4569 73.2612C64.8369 75.9349 66.4182 78.4879 68.1547 80.9029C68.1897 80.953 68.2399 80.9906 68.2978 81.0103C68.3557 81.0299 68.4184 81.0306 68.4767 81.0122C76.7498 78.4766 84.5299 74.5486 91.4824 69.3972C91.517 69.3728 91.5457 69.3411 91.5666 69.3043C91.5874 69.2675 91.5999 69.2266 91.6032 69.1844C93.5237 49.3412 88.3889 32.1027 77.9987 16.8249C77.9882 16.7997 77.9725 16.7769 77.9527 16.7581C77.9329 16.7393 77.9094 16.7248 77.8837 16.7157ZM30.7452 58.7309C26.2084 58.7309 22.4767 54.5679 22.4767 49.4619C22.4767 44.3502 26.1394 40.1872 30.7452 40.1872C35.3854 40.1872 39.0827 44.3847 39.0137 49.4619C39.0137 54.5679 35.3509 58.7309 30.7452 58.7309ZM61.3122 58.7309C56.7812 58.7309 53.0437 54.5679 53.0437 49.4619C53.0437 44.3502 56.7064 40.1872 61.3122 40.1872C65.9524 40.1872 69.6554 44.3847 69.5807 49.4619C69.5807 54.5679 65.9524 58.7309 61.3122 58.7309Z" fill="white"/>
</svg>
