<svg width="92" height="92" viewBox="0 0 92 92" fill="none" xmlns="http://www.w3.org/2000/svg">
<path d="M46.0043 0C33.5113 0 31.9435 0.0546264 27.0368 0.27792C22.1396 0.502173 18.7969 1.27747 15.8721 2.41503C12.8466 3.58995 10.2801 5.16164 7.72329 7.71946C5.16451 10.2763 3.59283 12.8428 2.41407 15.8673C1.27364 18.7931 0.49738 22.1368 0.276961 27.032C0.0575002 31.9387 0 33.5075 0 46.0005C0 58.4934 0.0555848 60.0565 0.27792 64.9632C0.503131 69.8604 1.27843 73.203 2.41503 76.1279C3.59091 79.1534 5.1626 81.7198 7.72041 84.2767C10.2763 86.8355 12.8428 88.411 15.8663 89.5859C18.7931 90.7235 22.1368 91.4988 27.0329 91.723C31.9397 91.9463 33.5066 92.001 45.9986 92.001C58.4925 92.001 60.0555 91.9463 64.9623 91.723C69.8594 91.4988 73.2059 90.7235 76.1327 89.5859C79.1572 88.411 81.7199 86.8355 84.2758 84.2767C86.8345 81.7198 88.4062 79.1534 89.585 76.1289C90.7158 73.2031 91.4921 69.8594 91.7221 64.9642C91.9425 60.0575 92 58.4934 92 46.0005C92 33.5075 91.9425 31.9397 91.7221 27.0329C91.4921 22.1358 90.7158 18.7931 89.585 15.8682C88.4062 12.8428 86.8345 10.2763 84.2758 7.71946C81.717 5.16068 79.1582 3.589 76.1298 2.41503C73.1973 1.27747 69.8527 0.502173 64.9556 0.27792C60.0488 0.0546264 58.4867 0 45.9899 0H46.0043ZM41.8777 8.28967C43.1025 8.28775 44.469 8.28967 46.0043 8.28967C58.2864 8.28967 59.7422 8.33375 64.5923 8.55417C69.0774 8.75926 71.5116 9.50868 73.1331 10.1383C75.2798 10.9721 76.8103 11.9687 78.4193 13.5788C80.0293 15.1888 81.026 16.7221 81.8617 18.8688C82.4913 20.4884 83.2417 22.9226 83.4458 27.4077C83.6662 32.2569 83.7142 33.7136 83.7142 45.9899C83.7142 58.2663 83.6662 59.723 83.4458 64.5722C83.2407 69.0573 82.4913 71.4914 81.8617 73.1111C81.0279 75.2577 80.0293 76.7863 78.4193 78.3954C76.8093 80.0054 75.2807 81.002 73.1331 81.8358C71.5135 82.4683 69.0774 83.2158 64.5923 83.4209C59.7431 83.6413 58.2864 83.6892 46.0043 83.6892C33.7212 83.6892 32.2655 83.6413 27.4163 83.4209C22.9312 83.2139 20.497 82.4645 18.8746 81.8348C16.7279 81.0011 15.1945 80.0044 13.5845 78.3944C11.9745 76.7844 10.9778 75.2549 10.1421 73.1072C9.51252 71.4876 8.76213 69.0534 8.55801 64.5684C8.33759 59.7192 8.2935 58.2625 8.2935 45.9784C8.2935 33.6944 8.33759 32.2454 8.55801 27.3962C8.76309 22.9111 9.51252 20.4769 10.1421 18.8554C10.9759 16.7087 11.9745 15.1754 13.5845 13.5653C15.1945 11.9553 16.7279 10.9587 18.8746 10.123C20.4961 9.49047 22.9312 8.74297 27.4163 8.53692C31.6598 8.34525 33.3043 8.28775 41.8777 8.27817V8.28967ZM70.559 15.9277C67.5115 15.9277 65.0389 18.3973 65.0389 21.4458C65.0389 24.4933 67.5115 26.9659 70.559 26.9659C73.6065 26.9659 76.079 24.4933 76.079 21.4458C76.079 18.3983 73.6065 15.9257 70.559 15.9257V15.9277ZM46.0043 22.3773C32.9584 22.3773 22.3811 32.9546 22.3811 46.0005C22.3811 59.0464 32.9584 69.6188 46.0043 69.6188C59.0502 69.6188 69.6236 59.0464 69.6236 46.0005C69.6236 32.9546 59.0493 22.3773 46.0034 22.3773H46.0043ZM46.0043 30.667C54.4722 30.667 61.3378 37.5316 61.3378 46.0005C61.3378 54.4684 54.4722 61.334 46.0043 61.334C37.5354 61.334 30.6708 54.4684 30.6708 46.0005C30.6708 37.5316 37.5354 30.667 46.0043 30.667Z" fill="white"/>
</svg>
