<svg width="90" height="92" viewBox="0 0 90 92" fill="none" xmlns="http://www.w3.org/2000/svg">
<path d="M44.9996 0C69.8139 0 90 16.7459 90 37.3295C90 45.5675 86.8763 52.9863 80.3546 60.2966C70.9137 71.405 49.8028 84.9348 44.9996 87.0036C40.332 89.0146 40.871 85.8717 41.0846 84.6263C41.0908 84.5905 41.0966 84.5563 41.1021 84.5239C41.216 83.8325 41.7439 80.5865 41.7439 80.5865C41.8957 79.4119 42.0527 77.5901 41.599 76.427C41.0943 75.1466 39.0999 74.4817 37.6342 74.1589C16.0092 71.2365 0 55.7825 0 37.3295C0 16.7459 20.1887 0 44.9996 0ZM28.2481 44.1961H19.6716V28.2782C19.6716 27.7835 19.279 27.3823 18.796 27.3823H15.6386C15.1547 27.3823 14.7622 27.7835 14.7622 28.2782V48.3204C14.7622 48.5611 14.8562 48.7789 15.0072 48.9394L15.0124 48.9458L15.0193 48.9526L15.0322 48.965C15.1901 49.1202 15.4023 49.2154 15.6378 49.2154H28.2481C28.732 49.2154 29.1228 48.8133 29.1228 48.3186V45.092C29.1228 44.5973 28.732 44.1961 28.2481 44.1961ZM32.7003 27.3828C32.2164 27.3828 31.823 27.784 31.823 28.277V48.3209C31.823 48.8147 32.2164 49.2151 32.7003 49.2151H35.8568C36.3407 49.2151 36.7332 48.8147 36.7332 48.3209V28.277C36.7332 27.784 36.3407 27.3828 35.8568 27.3828H32.7003ZM54.4262 27.3828C53.9423 27.3828 53.5497 27.784 53.5497 28.277V40.1852L44.5643 27.7805C44.5436 27.7488 44.5203 27.7188 44.4962 27.6897L44.4901 27.6844C44.4729 27.6641 44.4556 27.6465 44.4375 27.6288L44.4211 27.6139C44.4065 27.5997 44.3909 27.5865 44.3745 27.5742C44.3695 27.569 44.364 27.5648 44.3583 27.5605L44.3521 27.5557L44.3229 27.535L44.3064 27.5239C44.2978 27.5177 44.2891 27.5124 44.2796 27.508C44.2641 27.4983 44.2486 27.4886 44.2331 27.4807L44.2227 27.4755L44.2054 27.4675C44.189 27.4595 44.1727 27.4516 44.1554 27.4454L44.127 27.4348C44.1097 27.4287 44.0925 27.4225 44.0743 27.4181L44.0587 27.4134L44.0441 27.4093L43.9941 27.3978L43.957 27.3934L43.9443 27.391L43.9221 27.3884L43.9104 27.3872L43.8804 27.3853L43.8656 27.3846L43.8345 27.3828H40.6789C40.195 27.3828 39.8016 27.784 39.8016 28.277V48.3209C39.8016 48.8147 40.195 49.2151 40.6789 49.2151H43.8345C44.3193 49.2151 44.7118 48.8147 44.7118 48.3209V36.4162L53.7085 48.8368C53.7706 48.9267 53.8474 48.9999 53.931 49.0581L53.9397 49.0652L53.994 49.0987C54.0026 49.104 54.0104 49.1075 54.019 49.1119C54.032 49.1198 54.0466 49.1269 54.0604 49.133L54.1036 49.1516L54.1295 49.1613C54.1502 49.1692 54.1691 49.1754 54.189 49.1816C54.1933 49.1816 54.1976 49.1833 54.2019 49.1842C54.2735 49.2036 54.3486 49.2151 54.4262 49.2151H57.5827C58.0675 49.2151 58.4591 48.8147 58.4591 48.3209V28.277C58.4591 27.784 58.0675 27.3828 57.5827 27.3828H54.4262ZM75.8885 31.5057V28.2791C75.8885 27.7844 75.4977 27.3823 75.0137 27.3823H62.4026C62.1662 27.3823 61.9531 27.4793 61.7953 27.6354L61.7908 27.6394L61.7849 27.6451L61.7711 27.661C61.621 27.8214 61.5278 28.0384 61.5278 28.2782V48.3204C61.5278 48.5611 61.6219 48.7789 61.7728 48.9394C61.7763 48.9438 61.7806 48.9491 61.7849 48.9526C61.7884 48.957 61.7935 48.9615 61.7979 48.965C61.9549 49.1193 62.1679 49.2154 62.4026 49.2154H75.0137C75.4977 49.2154 75.8885 48.8133 75.8885 48.3195V45.092C75.8885 44.5982 75.4977 44.1961 75.0137 44.1961H66.4381V40.8081H75.0137C75.4977 40.8081 75.8885 40.4069 75.8885 39.9122V36.6856C75.8885 36.1909 75.4977 35.7887 75.0137 35.7887H66.4381V32.4017H75.0137C75.4977 32.4017 75.8885 32.0013 75.8885 31.5057Z" fill="white"/>
</svg>
