<svg width="204" height="150" viewBox="0 0 204 150" fill="none" xmlns="http://www.w3.org/2000/svg">
<path d="M159.922 7.19267L16.224 70.9004C7.26372 74.8729 3.01016 85.8641 6.72338 95.45L21.1306 132.643C24.8438 142.229 35.1177 146.78 44.078 142.807L187.776 79.0993C196.736 75.1268 200.99 64.1356 197.277 54.5497L182.869 17.3566C179.156 7.77075 168.882 3.22019 159.922 7.19267Z" fill="#00FF66"/>
<path d="M66.0116 105.377L54.1448 110.638L57.2369 125.352L50.2661 128.442L47.174 113.73L39.6825 117.05L36.9166 109.909L45.5934 106.062L42.4586 91.462L34.9672 94.7821L32.2012 87.6413L40.8793 83.7937L37.7871 69.0813L44.6839 66.0228L47.7761 80.7366L59.6429 75.4746L56.5508 60.7622L63.5229 57.6715L66.615 72.384L74.1052 69.0638L76.8712 76.2047L68.1943 80.0509L71.3304 94.6519L78.8206 91.3318L81.5865 98.4726L72.9097 102.32L76.0019 117.033L69.1038 120.091L66.0116 105.377ZM64.3583 97.7439L61.2963 83.1093L49.4294 88.37L52.4915 103.005L64.3583 97.7439ZM131.912 92.2457L95.2723 108.489L91.0625 97.6191L101.352 75.9497C102.274 73.9917 103.025 72.2645 103.604 70.7682C104.162 69.2182 104.544 67.8104 104.747 66.5422C104.98 65.1988 105.025 63.9696 104.884 62.8557C104.791 61.719 104.52 60.5689 104.068 59.4054L103.638 58.2942C103.229 57.2367 102.672 56.3979 101.97 55.7806C101.266 55.162 100.491 54.7312 99.644 54.4869C98.796 54.2427 97.9003 54.1756 96.957 54.2829C96.0638 54.3702 95.197 54.5997 94.3566 54.9714C93.1197 55.5203 92.1149 56.2141 91.3384 57.0528C90.6121 57.8715 90.0464 58.8042 89.6412 59.8509C89.2649 60.8239 89.0391 61.8854 88.9626 63.0342C88.866 64.1306 88.8986 65.2633 89.0617 66.4308L77.8095 66.7703C77.6652 64.603 77.7844 62.4424 78.167 60.2898C78.5282 58.0835 79.2307 56.0061 80.2706 54.0575C81.3407 52.0337 82.7958 50.1804 84.6348 48.4975C86.4738 46.8133 88.7292 45.3801 91.3986 44.1964C94.2173 42.947 96.878 42.2626 99.3818 42.1445C101.884 42.0264 104.165 42.3793 106.222 43.2033C108.328 44.0045 110.177 45.262 111.768 46.9744C113.337 48.6331 114.583 50.6528 115.505 53.0335C116.427 55.4143 116.896 57.7467 116.912 60.0334C116.93 62.3189 116.633 64.6191 116.023 66.9354C115.443 69.1752 114.609 71.4365 113.523 73.7152C112.435 75.994 111.285 78.3331 110.071 80.7313L103.564 93.0992L128.039 82.2477L131.912 92.2457ZM158.135 81.7351C151.361 84.7385 145.369 84.45 140.159 80.8722C134.95 77.293 130.593 70.9816 127.088 61.9364C123.585 52.8913 122.492 45.1318 123.808 38.6606C125.125 32.1881 129.171 27.4508 135.944 24.4474C142.718 21.4445 148.71 21.7321 153.92 25.3103C159.13 28.8894 163.487 35.2009 166.99 44.2461C170.494 53.2912 171.588 61.0507 170.272 67.5219C168.955 73.9944 164.909 78.7317 158.135 81.7351ZM154.231 71.6579C157.198 70.3428 158.8 68.2694 159.036 65.4377C159.27 62.6061 158.569 59.0739 156.93 54.8426L152.873 44.3695C151.233 40.1368 149.394 37.1092 147.356 35.2868C145.317 33.463 142.814 33.2094 139.848 34.5245C136.882 35.8397 135.28 37.9131 135.044 40.7448C134.808 43.5764 135.51 47.1086 137.15 51.3399L141.207 61.813C142.846 66.0457 144.685 69.0732 146.724 70.8957C148.762 72.7195 151.265 72.9731 154.231 71.6579Z" fill="white"/>
</svg>
