<svg width="5000" height="5000" viewBox="0 0 5000 5000" fill="none" xmlns="http://www.w3.org/2000/svg">
<path d="M3884.42 303.998L3884.6 304.158L3884.78 304.313L4172.57 543.134C4222.48 584.551 4251.35 646.038 4251.35 710.893V4766C4251.35 4886.4 4153.75 4984 4033.35 4984H966C845.602 4984 748 4886.4 748 4766V234C748 113.602 845.602 16 966 16H3475.54C3528.65 16 3579.93 35.3871 3619.75 70.5209L3884.42 303.998Z" fill="#F6F6F6" stroke="#E2E2E2" stroke-width="32"/>
<path d="M4161.69 538.302L3568.23 37.6296C3561.62 32.0568 3553.26 29 3544.62 29C3524.39 29 3508 45.3941 3508 65.6172V567C3508 636.588 3564.41 693 3634 693H4208.71C4229.3 693 4246 676.303 4246 655.706C4246 647.468 4243.27 639.462 4238.24 632.937L4180.24 557.683C4174.76 550.581 4168.54 544.084 4161.69 538.302Z" fill="#D9D9D9" stroke="#E2E2E2" stroke-width="16"/>
<rect x="952" y="1836" width="3096" height="1327" rx="300" fill="#9A0000"/>
<path d="M1439.25 2875.36C1411.79 2875.36 1388.23 2865.78 1368.58 2846.6C1349.17 2827.19 1339.58 2803.63 1339.82 2775.93C1339.58 2748.94 1349.17 2725.86 1368.58 2706.68C1388.23 2687.51 1411.79 2677.92 1439.25 2677.92C1465.29 2677.92 1488.26 2687.51 1508.14 2706.68C1528.27 2725.86 1538.45 2748.94 1538.68 2775.93C1538.45 2794.4 1533.59 2811.21 1524.12 2826.36C1514.89 2841.27 1502.82 2853.23 1487.9 2862.22C1472.99 2870.98 1456.77 2875.36 1439.25 2875.36ZM1642.38 2864V2136.73H1956.3C2010.27 2136.73 2057.5 2147.38 2097.99 2168.69C2138.47 2189.99 2169.96 2219.94 2192.45 2258.53C2214.94 2297.12 2226.18 2342.22 2226.18 2393.83C2226.18 2445.91 2214.58 2491.01 2191.38 2529.13C2168.42 2567.24 2136.1 2596.6 2094.43 2617.2C2053 2637.79 2004.59 2648.09 1949.19 2648.09H1761.69V2494.68H1909.42C1932.62 2494.68 1952.39 2490.66 1968.72 2482.61C1985.3 2474.32 1997.96 2462.6 2006.72 2447.45C2015.72 2432.3 2020.22 2414.43 2020.22 2393.83C2020.22 2373 2015.72 2355.24 2006.72 2340.56C1997.96 2325.65 1985.3 2314.28 1968.72 2306.47C1952.39 2298.42 1932.62 2294.4 1909.42 2294.4H1839.82V2864H1642.38ZM2578.45 2864H2298.62V2136.73H2575.61C2650.42 2136.73 2715.05 2151.29 2769.51 2180.41C2824.19 2209.29 2866.33 2250.96 2895.93 2305.41C2925.76 2359.62 2940.67 2424.61 2940.67 2500.36C2940.67 2576.12 2925.87 2641.23 2896.28 2695.68C2866.69 2749.89 2824.79 2791.56 2770.57 2820.68C2716.36 2849.56 2652.32 2864 2578.45 2864ZM2496.07 2696.39H2571.35C2607.34 2696.39 2638 2690.59 2663.33 2678.99C2688.89 2667.39 2708.31 2647.38 2721.57 2618.97C2735.06 2590.56 2741.81 2551.03 2741.81 2500.36C2741.81 2449.7 2734.94 2410.16 2721.21 2381.76C2707.72 2353.35 2687.83 2333.34 2661.55 2321.74C2635.51 2310.14 2603.55 2304.34 2565.67 2304.34H2496.07V2696.39ZM3032.02 2864V2136.73H3543.39V2295.82H3229.47V2420.82H3512.14V2579.91H3229.47V2864H3032.02Z" fill="white"/>
</svg>
