<?xml version="1.0" encoding="UTF-8"?>
<!--Generator: Apple Native CoreSVG 232.5-->
<!DOCTYPE svg
PUBLIC "-//W3C//DTD SVG 1.1//EN"
       "http://www.w3.org/Graphics/SVG/1.1/DTD/svg11.dtd">
<svg version="1.1" xmlns="http://www.w3.org/2000/svg" xmlns:xlink="http://www.w3.org/1999/xlink" width="76.4258" height="48.2617">
 <g>
  <rect height="48.2617" opacity="0" width="76.4258" x="0" y="0"/>
  <path d="M0 16.7344C0 25.9766 6.86328 33.3594 15.7773 33.3594C20.043 33.3594 24.2266 31.6641 27.2891 28.1094L28.2461 28.1094C26.3867 34.8359 20.1523 41.125 11.6484 43.3945C10.6641 43.7227 9.84375 43.9688 9.40625 44.3242C8.77734 44.6797 8.42188 45.1992 8.42188 45.9922C8.42188 47.3594 9.43359 48.2617 10.9102 48.2617C12.0859 48.2617 12.9883 48.043 14.4648 47.5781C19.3867 46.0469 23.7891 43.2852 27.1797 39.7031C31.8555 34.8086 34.7266 28.2734 34.7266 20.5898C34.7266 7.54688 26.4688 0.0273438 16.7891 0.0273438C7.21875 0.0273438 0 7.32812 0 16.7344ZM41.7266 16.7344C41.7266 25.9766 48.5625 33.3594 57.4766 33.3594C61.7695 33.3594 65.9258 31.6641 69.0156 28.1094L69.9453 28.1094C68.1133 34.8359 61.8516 41.125 53.3203 43.3945C52.3359 43.7227 51.5703 43.9688 51.1055 44.3242C50.5039 44.6797 50.1211 45.1992 50.1211 45.9922C50.1211 47.3594 51.1328 48.2617 52.6367 48.2617C53.7852 48.2617 54.7148 48.043 56.1641 47.5781C61.0859 46.0469 65.4883 43.2852 68.8789 39.7031C73.5547 34.8086 76.4258 28.2734 76.4258 20.5898C76.4258 7.54688 68.168 0.0273438 58.4883 0.0273438C48.918 0.0273438 41.7266 7.32812 41.7266 16.7344Z" fill="#ffffff" fill-opacity="0.85"/>
 </g>
</svg>
