<?xml version="1.0" encoding="UTF-8"?>
<!--Generator: Apple Native CoreSVG 232.5-->
<!DOCTYPE svg
PUBLIC "-//W3C//DTD SVG 1.1//EN"
       "http://www.w3.org/Graphics/SVG/1.1/DTD/svg11.dtd">
<svg version="1.1" xmlns="http://www.w3.org/2000/svg" xmlns:xlink="http://www.w3.org/1999/xlink" width="76.4258" height="48.2617">
 <g>
  <rect height="48.2617" opacity="0" width="76.4258" x="0" y="0"/>
  <path d="M34.7266 31.5547C34.7266 22.3125 27.8633 14.9297 18.9766 14.9297C14.6836 14.9297 10.5273 16.625 7.4375 20.1797L6.50781 20.1797C8.33984 13.4531 14.6016 7.16406 23.1055 4.89453C24.1172 4.56641 24.8828 4.32031 25.3203 3.96484C25.9219 3.60938 26.332 3.08984 26.332 2.29688C26.332 0.929688 25.293 0.0273438 23.7891 0.0273438C22.668 0.0273438 21.7383 0.246094 20.2891 0.710938C15.3672 2.24219 10.9375 5.00391 7.57422 8.58594C2.87109 13.4805 0 20.0156 0 27.6992C0 40.7422 8.25781 48.2617 17.9375 48.2617C27.5078 48.2617 34.7266 40.9609 34.7266 31.5547ZM76.4258 31.5547C76.4258 22.3125 69.5625 14.9297 60.6758 14.9297C56.4102 14.9297 52.1992 16.625 49.1641 20.1797L48.207 20.1797C50.0391 13.4531 56.3008 7.16406 64.7773 4.89453C65.7891 4.56641 66.582 4.32031 67.0195 3.96484C67.6484 3.60938 68.0039 3.08984 68.0039 2.29688C68.0039 0.929688 67.0195 0.0273438 65.5156 0.0273438C64.3398 0.0273438 63.4648 0.246094 61.9609 0.710938C57.0664 2.24219 52.6367 5.00391 49.2461 8.58594C44.5703 13.4805 41.7266 20.0156 41.7266 27.6992C41.7266 40.7422 49.957 48.2617 59.6641 48.2617C69.2344 48.2617 76.4258 40.9609 76.4258 31.5547Z" fill="#ffffff" fill-opacity="0.85"/>
 </g>
</svg>
