<svg width="90" height="92" viewBox="0 0 90 92" fill="none" xmlns="http://www.w3.org/2000/svg">
<path d="M28.2713 86.25C62.2329 86.25 80.8163 57.483 80.8163 32.5786C80.8163 31.7693 80.8163 30.96 80.7803 30.1507C84.3818 27.5021 87.515 24.1545 90 20.3655C86.6867 21.8738 83.1213 22.867 79.3758 23.3452C83.1933 21.0277 86.1105 17.3123 87.515 12.8979C83.9496 15.0683 79.988 16.6133 75.7743 17.4594C72.389 13.7808 67.599 11.5 62.3049 11.5C52.1129 11.5 43.8295 19.9609 43.8295 30.3714C43.8295 31.8429 44.0096 33.2776 44.2977 34.6754C28.9556 33.9029 15.3421 26.3617 6.23049 14.9579C4.64586 17.7537 3.7455 20.9909 3.7455 24.4488C3.7455 30.9968 7.02281 36.7723 11.9568 40.1566C8.93157 40.0463 6.08643 39.2002 3.60144 37.8023C3.60144 37.8759 3.60144 37.9494 3.60144 38.0598C3.60144 47.1828 9.97599 54.8344 18.4034 56.5634C16.8547 57.0048 15.2341 57.2255 13.5414 57.2255C12.3529 57.2255 11.2005 57.1152 10.084 56.8944C12.425 64.3989 19.2677 69.8433 27.3349 69.9904C20.9964 75.0669 13.0372 78.0834 4.39376 78.0834C2.91717 78.0834 1.44058 78.0098 0 77.8259C8.13926 83.1232 17.8631 86.25 28.2713 86.25Z" fill="white"/>
</svg>
