<svg width="91" height="92" viewBox="0 0 91 92" fill="none" xmlns="http://www.w3.org/2000/svg">
<path d="M46.2877 11.4922C46.3197 11.4923 46.3543 11.4923 46.3912 11.4924L46.7895 11.4937C51.4121 11.5111 74.8408 11.6847 81.1577 13.4206C85.0301 14.4823 88.0794 17.6112 89.1143 21.583C89.6841 23.7651 90.0812 26.6653 90.358 29.6482L90.4117 30.2457C90.4552 30.7442 90.4955 31.2438 90.5327 31.7416L90.576 32.3379C90.9457 37.594 90.9889 42.5125 90.9939 43.5887L90.9944 43.7338C90.9945 43.7457 90.9945 43.7652 90.9945 43.7652V43.8467C90.9945 43.8467 90.9945 43.8661 90.9944 43.878L90.9939 44.0231C90.9887 45.1399 90.9424 50.3948 90.5327 55.8706L90.4866 56.4686L90.4375 57.0673C90.1589 60.3596 89.7411 63.6288 89.1143 66.0289C88.0794 70.0006 85.0301 73.1302 81.1577 74.1912C74.6303 75.9857 49.8311 76.1113 46.3912 76.1201L46.1264 76.1207C46.1046 76.1207 46.0855 76.1207 46.0691 76.1208L45.961 76.1208C45.961 76.1208 45.9362 76.1208 45.9198 76.1208L45.5976 76.1201C43.8592 76.1157 36.6657 76.0814 29.1323 75.817L28.1691 75.7819C28.0084 75.7759 27.8477 75.7697 27.6869 75.7635L26.7226 75.7245L25.7606 75.6828C19.5196 75.4028 13.5692 74.9437 10.8319 74.1912C6.95951 73.1302 3.91021 70.0006 2.87526 66.0289C2.24826 63.6288 1.83026 60.3596 1.5516 57.0673L1.50245 56.4686L1.45628 55.8706C1.06133 50.5939 1.004 45.5224 0.995678 44.1612L0.994683 43.9664C0.994613 43.9488 0.994555 43.9327 0.994507 43.9179V43.6939C0.994555 43.6792 0.994613 43.663 0.994683 43.6455L0.995678 43.4506C1.00321 42.2179 1.05095 37.942 1.35327 33.2265L1.39241 32.635C1.39915 32.5361 1.40602 32.437 1.413 32.3379L1.45628 31.7416C1.49354 31.2438 1.5338 30.7442 1.57732 30.2457L1.6311 29.6482C1.90799 26.6653 2.30526 23.7651 2.87526 21.583C3.91021 17.6112 6.95951 14.4823 10.8319 13.4206C13.5692 12.6684 19.5196 12.2095 25.7606 11.9296L26.7226 11.8879L27.6869 11.849C27.8477 11.8427 28.0084 11.8366 28.1691 11.8305L29.1323 11.7955C36.1848 11.548 42.9395 11.5022 45.1994 11.4937L45.5976 11.4924C45.6346 11.4923 45.6691 11.4923 45.7011 11.4922H46.2877ZM36.9947 29.9566V57.6553L60.3764 43.8067L36.9947 29.9566Z" fill="white"/>
</svg>
