<svg width="536" height="171" viewBox="0 0 536 171" fill="none" xmlns="http://www.w3.org/2000/svg">
<rect x="3" y="3" width="484" height="96" rx="48" fill="white" stroke="black" stroke-width="6"/>
<path d="M72.2425 37.824H71.9225L68.4025 45.056L58.6105 62.912L48.8185 45.056L45.2985 37.824H44.9785V72H38.0665V27.328H46.6425L58.6105 50.048H58.9945L70.9625 27.328H79.1545V72H72.2425V37.824ZM102.736 72.768C100.346 72.768 98.2128 72.3627 96.3355 71.552C94.4582 70.7413 92.8582 69.5893 91.5355 68.096C90.2128 66.56 89.1888 64.7253 88.4635 62.592C87.7808 60.416 87.4395 58.0053 87.4395 55.36C87.4395 52.7147 87.7808 50.3253 88.4635 48.192C89.1888 46.016 90.2128 44.1813 91.5355 42.688C92.8582 41.152 94.4582 39.9787 96.3355 39.168C98.2128 38.3573 100.346 37.952 102.736 37.952C105.168 37.952 107.301 38.3787 109.136 39.232C111.013 40.0853 112.57 41.28 113.808 42.816C115.045 44.3093 115.962 46.0587 116.56 48.064C117.2 50.0693 117.52 52.224 117.52 54.528V57.152H94.6715V58.24C94.6715 60.8 95.4182 62.912 96.9115 64.576C98.4475 66.1973 100.624 67.008 103.44 67.008C105.488 67.008 107.216 66.56 108.624 65.664C110.032 64.768 111.226 63.552 112.208 62.016L116.304 66.048C115.066 68.096 113.274 69.7387 110.928 70.976C108.581 72.1707 105.85 72.768 102.736 72.768ZM102.736 43.392C101.541 43.392 100.432 43.6053 99.4075 44.032C98.4262 44.4587 97.5728 45.056 96.8475 45.824C96.1648 46.592 95.6315 47.5093 95.2475 48.576C94.8635 49.6427 94.6715 50.816 94.6715 52.096V52.544H110.16V51.904C110.16 49.344 109.498 47.296 108.176 45.76C106.853 44.1813 105.04 43.392 102.736 43.392ZM138.298 72.768C135.909 72.768 133.775 72.3627 131.898 71.552C130.021 70.7413 128.421 69.5893 127.098 68.096C125.775 66.56 124.751 64.7253 124.026 62.592C123.343 60.416 123.002 58.0053 123.002 55.36C123.002 52.7147 123.343 50.3253 124.026 48.192C124.751 46.016 125.775 44.1813 127.098 42.688C128.421 41.152 130.021 39.9787 131.898 39.168C133.775 38.3573 135.909 37.952 138.298 37.952C140.73 37.952 142.863 38.3787 144.698 39.232C146.575 40.0853 148.133 41.28 149.37 42.816C150.607 44.3093 151.525 46.0587 152.122 48.064C152.762 50.0693 153.082 52.224 153.082 54.528V57.152H130.234V58.24C130.234 60.8 130.981 62.912 132.474 64.576C134.01 66.1973 136.186 67.008 139.002 67.008C141.05 67.008 142.778 66.56 144.186 65.664C145.594 64.768 146.789 63.552 147.77 62.016L151.866 66.048C150.629 68.096 148.837 69.7387 146.49 70.976C144.143 72.1707 141.413 72.768 138.298 72.768ZM138.298 43.392C137.103 43.392 135.994 43.6053 134.97 44.032C133.989 44.4587 133.135 45.056 132.41 45.824C131.727 46.592 131.194 47.5093 130.81 48.576C130.426 49.6427 130.234 50.816 130.234 52.096V52.544H145.722V51.904C145.722 49.344 145.061 47.296 143.738 45.76C142.415 44.1813 140.602 43.392 138.298 43.392ZM170.021 72C167.589 72 165.754 71.3813 164.517 70.144C163.279 68.864 162.661 67.072 162.661 64.768V44.416H157.477V38.72H160.293C161.445 38.72 162.234 38.464 162.661 37.952C163.13 37.44 163.365 36.608 163.365 35.456V29.632H169.637V38.72H176.613V44.416H169.637V66.304H176.101V72H170.021ZM212.361 72.768C210.057 72.768 207.945 72.3627 206.025 71.552C204.147 70.7413 202.547 69.5893 201.225 68.096C199.902 66.56 198.878 64.7253 198.153 62.592C197.427 60.416 197.065 58.0053 197.065 55.36C197.065 52.7147 197.427 50.3253 198.153 48.192C198.878 46.016 199.902 44.1813 201.225 42.688C202.547 41.152 204.147 39.9787 206.025 39.168C207.945 38.3573 210.057 37.952 212.361 37.952C214.665 37.952 216.755 38.3573 218.633 39.168C220.553 39.9787 222.174 41.152 223.497 42.688C224.819 44.1813 225.843 46.016 226.569 48.192C227.294 50.3253 227.657 52.7147 227.657 55.36C227.657 58.0053 227.294 60.416 226.569 62.592C225.843 64.7253 224.819 66.56 223.497 68.096C222.174 69.5893 220.553 70.7413 218.633 71.552C216.755 72.3627 214.665 72.768 212.361 72.768ZM212.361 67.008C214.75 67.008 216.67 66.2827 218.121 64.832C219.571 63.3387 220.297 61.12 220.297 58.176V52.544C220.297 49.6 219.571 47.4027 218.121 45.952C216.67 44.4587 214.75 43.712 212.361 43.712C209.971 43.712 208.051 44.4587 206.601 45.952C205.15 47.4027 204.425 49.6 204.425 52.544V58.176C204.425 61.12 205.15 63.3387 206.601 64.832C208.051 66.2827 209.971 67.008 212.361 67.008ZM255.59 66.496H255.334C255.035 67.3067 254.63 68.096 254.118 68.864C253.648 69.632 253.03 70.3147 252.262 70.912C251.536 71.4667 250.64 71.9147 249.574 72.256C248.55 72.5973 247.355 72.768 245.99 72.768C242.534 72.768 239.846 71.6587 237.926 69.44C236.048 67.2213 235.11 64.0427 235.11 59.904V38.72H242.086V59.008C242.086 64.1707 244.219 66.752 248.486 66.752C249.382 66.752 250.256 66.6453 251.11 66.432C251.963 66.176 252.71 65.8133 253.35 65.344C254.032 64.8747 254.566 64.2773 254.95 63.552C255.376 62.8267 255.59 61.9733 255.59 60.992V38.72H262.566V72H255.59V66.496ZM272.555 72V38.72H279.531V45.12H279.851C280.32 43.4133 281.301 41.92 282.795 40.64C284.288 39.36 286.357 38.72 289.003 38.72H290.859V45.44H288.107C285.333 45.44 283.2 45.888 281.707 46.784C280.256 47.68 279.531 49.0027 279.531 50.752V72H272.555ZM321.396 72C318.964 72 317.129 71.3813 315.892 70.144C314.654 68.864 314.036 67.072 314.036 64.768V44.416H308.852V38.72H311.668C312.82 38.72 313.609 38.464 314.036 37.952C314.505 37.44 314.74 36.608 314.74 35.456V29.632H321.012V38.72H327.988V44.416H321.012V66.304H327.476V72H321.396ZM348.361 72.768C345.971 72.768 343.838 72.3627 341.961 71.552C340.083 70.7413 338.483 69.5893 337.161 68.096C335.838 66.56 334.814 64.7253 334.089 62.592C333.406 60.416 333.065 58.0053 333.065 55.36C333.065 52.7147 333.406 50.3253 334.089 48.192C334.814 46.016 335.838 44.1813 337.161 42.688C338.483 41.152 340.083 39.9787 341.961 39.168C343.838 38.3573 345.971 37.952 348.361 37.952C350.793 37.952 352.926 38.3787 354.761 39.232C356.638 40.0853 358.195 41.28 359.433 42.816C360.67 44.3093 361.587 46.0587 362.185 48.064C362.825 50.0693 363.145 52.224 363.145 54.528V57.152H340.297V58.24C340.297 60.8 341.043 62.912 342.537 64.576C344.073 66.1973 346.249 67.008 349.065 67.008C351.113 67.008 352.841 66.56 354.249 65.664C355.657 64.768 356.851 63.552 357.833 62.016L361.929 66.048C360.691 68.096 358.899 69.7387 356.553 70.976C354.206 72.1707 351.475 72.768 348.361 72.768ZM348.361 43.392C347.166 43.392 346.057 43.6053 345.033 44.032C344.051 44.4587 343.198 45.056 342.473 45.824C341.79 46.592 341.257 47.5093 340.873 48.576C340.489 49.6427 340.297 50.816 340.297 52.096V52.544H355.785V51.904C355.785 49.344 355.123 47.296 353.801 45.76C352.478 44.1813 350.665 43.392 348.361 43.392ZM395.251 72C393.416 72 392.008 71.488 391.027 70.464C390.046 69.3973 389.448 68.0533 389.235 66.432H388.915C388.275 68.5227 387.102 70.1013 385.395 71.168C383.688 72.2347 381.619 72.768 379.187 72.768C375.731 72.768 373.064 71.872 371.187 70.08C369.352 68.288 368.435 65.8773 368.435 62.848C368.435 59.52 369.63 57.024 372.019 55.36C374.451 53.696 377.992 52.864 382.643 52.864H388.659V50.048C388.659 48 388.104 46.4213 386.995 45.312C385.886 44.2027 384.158 43.648 381.811 43.648C379.848 43.648 378.248 44.0747 377.011 44.928C375.774 45.7813 374.728 46.8693 373.875 48.192L369.715 44.416C370.824 42.5387 372.382 41.0027 374.387 39.808C376.392 38.5707 379.016 37.952 382.259 37.952C386.568 37.952 389.875 38.9547 392.179 40.96C394.483 42.9653 395.635 45.8453 395.635 49.6V66.304H399.155V72H395.251ZM381.171 67.456C383.347 67.456 385.139 66.9867 386.547 66.048C387.955 65.0667 388.659 63.7653 388.659 62.144V57.344H382.771C377.95 57.344 375.539 58.8373 375.539 61.824V62.976C375.539 64.4693 376.03 65.6 377.011 66.368C378.035 67.0933 379.422 67.456 381.171 67.456ZM405.992 72V38.72H412.968V44.224H413.288C413.629 43.3707 414.035 42.56 414.504 41.792C415.016 41.024 415.613 40.3627 416.296 39.808C417.021 39.2107 417.853 38.7627 418.792 38.464C419.773 38.1227 420.904 37.952 422.184 37.952C424.445 37.952 426.451 38.5067 428.2 39.616C429.949 40.7253 431.229 42.432 432.04 44.736H432.232C432.829 42.8587 433.981 41.2587 435.688 39.936C437.395 38.6133 439.592 37.952 442.28 37.952C445.608 37.952 448.189 39.0827 450.024 41.344C451.859 43.5627 452.776 46.7413 452.776 50.88V72H445.8V51.712C445.8 49.152 445.309 47.232 444.328 45.952C443.347 44.6293 441.789 43.968 439.656 43.968C438.76 43.968 437.907 44.096 437.096 44.352C436.285 44.5653 435.56 44.9067 434.92 45.376C434.323 45.8453 433.832 46.4427 433.448 47.168C433.064 47.8933 432.872 48.7253 432.872 49.664V72H425.896V51.712C425.896 46.5493 423.869 43.968 419.816 43.968C418.963 43.968 418.109 44.096 417.256 44.352C416.445 44.5653 415.72 44.9067 415.08 45.376C414.44 45.8453 413.928 46.4427 413.544 47.168C413.16 47.8933 412.968 48.7253 412.968 49.664V72H405.992Z" fill="black"/>
<rect x="363.422" y="92.5154" width="152" height="58" rx="14" transform="rotate(-22.5096 363.422 92.5154)" fill="#00FF66"/>
<path d="M416.045 112.846L406.585 116.766L409.05 127.73L403.493 130.033L401.028 119.07L395.056 121.544L392.851 116.223L399.768 113.356L397.269 102.477L391.297 104.951L389.092 99.63L396.01 96.7633L393.545 85.7998L399.043 83.5211L401.508 94.4847L410.968 90.5644L408.503 79.6009L414.061 77.2977L416.526 88.2612L422.497 85.7866L424.702 91.1077L417.785 93.9744L420.285 104.854L426.256 102.38L428.461 107.701L421.544 110.568L424.009 121.531L418.51 123.81L416.045 112.846ZM414.727 107.158L412.286 96.2531L402.826 100.173L405.267 111.078L414.727 107.158ZM468.579 103.061L439.371 115.165L436.015 107.065L444.218 90.918C444.953 89.4589 445.551 88.1718 446.013 87.0568C446.458 85.9024 446.762 84.8527 446.924 83.9078C447.11 82.9071 447.146 81.9915 447.033 81.1609C446.959 80.314 446.743 79.457 446.383 78.5898L446.04 77.7621C445.714 76.9737 445.27 76.3493 444.71 75.8887C444.149 75.4282 443.531 75.107 442.856 74.9252C442.18 74.7433 441.466 74.6927 440.714 74.7733C440.002 74.8376 439.311 75.0086 438.641 75.2863C437.655 75.6946 436.854 76.2117 436.235 76.8373C435.656 77.4467 435.205 78.1416 434.882 78.9221C434.582 79.6469 434.402 80.4375 434.341 81.294C434.264 82.1111 434.29 82.9546 434.42 83.8246L425.45 84.0781C425.335 82.4631 425.43 80.8535 425.735 79.2491C426.023 77.6054 426.583 76.0573 427.412 74.605C428.265 73.0969 429.425 71.7157 430.891 70.4615C432.357 69.2073 434.155 68.1392 436.283 67.2571C438.53 66.326 440.651 65.8165 442.647 65.7284C444.642 65.6404 446.46 65.9032 448.1 66.5168C449.779 67.1141 451.253 68.0506 452.521 69.3265C453.772 70.563 454.765 72.0681 455.5 73.8418C456.235 75.6155 456.609 77.3541 456.622 79.0575C456.636 80.7609 456.399 82.4753 455.913 84.2008C455.451 85.8704 454.786 87.5545 453.92 89.2529C453.053 90.9514 452.136 92.694 451.168 94.4809L445.981 103.697L465.492 95.6112L468.579 103.061ZM489.484 95.2289C484.084 97.4667 479.307 97.2524 475.154 94.5859C471.001 91.9194 467.528 87.2161 464.734 80.476C461.941 73.7358 461.07 67.9544 462.119 63.1318C463.169 58.3092 466.394 54.779 471.794 52.5412C477.194 50.3034 481.97 50.5177 486.124 53.1842C490.277 55.8506 493.75 60.5539 496.543 67.2941C499.336 74.0342 500.208 79.8156 499.159 84.6382C498.109 89.4608 494.884 92.991 489.484 95.2289ZM486.372 87.7201C488.737 86.74 490.014 85.195 490.202 83.085C490.389 80.975 489.83 78.3433 488.523 75.19L485.289 67.3857C483.982 64.2324 482.516 61.9764 480.891 60.6178C479.266 59.2592 477.27 59.0699 474.906 60.05C472.541 61.03 471.264 62.5751 471.076 64.6851C470.888 66.7951 471.448 69.4267 472.755 72.58L475.989 80.3844C477.296 83.5377 478.762 85.7936 480.387 87.1523C482.012 88.5109 484.007 88.7002 486.372 87.7201Z" fill="white"/>
</svg>
