<svg width="152" height="152" viewBox="0 0 152 152" fill="none" xmlns="http://www.w3.org/2000/svg">
<path d="M15.5901 86.1285C15.5622 86.0373 15.5445 85.9714 15.5344 85.9258L16.2716 86.2222C16.3045 86.3919 16.3222 86.511 16.3298 86.5794C16.378 87.0582 16.2082 87.3749 15.8206 87.5193L14.5692 87.993C14.5616 88.0386 14.559 88.1931 14.559 88.4515C14.559 88.7099 14.5261 89.0139 14.4552 89.361C14.4374 89.4572 14.4172 89.5484 14.3969 89.632L16.5705 88.8087L17.5306 89.5459L14.179 90.8151L13.229 90.0779C13.376 89.9158 13.571 89.6548 13.8092 89.3002C13.8826 89.1507 13.9358 88.9227 13.9713 88.6213C13.9814 88.5301 13.9916 88.3907 14.0017 88.2058L13.2924 88.4743L12.3348 87.7118C12.3778 87.6814 12.4361 87.6383 12.507 87.58C12.7578 87.3824 12.9377 87.2 13.0542 87.0328C13.1176 86.9467 13.186 86.7998 13.267 86.5971C13.3025 86.5084 13.3354 86.4172 13.3684 86.3235C13.4418 86.3539 13.5026 86.3818 13.5508 86.4096C13.6774 86.4806 13.7788 86.549 13.8598 86.6098C13.9941 86.7187 14.1005 86.8226 14.179 86.9214C14.1841 86.929 14.2044 86.9543 14.2348 86.9974L15.4457 86.5389C15.6002 86.4806 15.6509 86.3412 15.5952 86.1234L15.5901 86.1285ZM13.9333 87.1165C13.9409 87.0962 13.9333 87.0556 13.908 86.9872C13.8598 86.8606 13.8168 86.7668 13.7762 86.7111C13.7636 86.7136 13.7534 86.7212 13.7458 86.7314C13.7509 86.8023 13.723 86.9087 13.6622 87.0531C13.647 87.0987 13.6141 87.1646 13.5685 87.2558L13.9358 87.1165H13.9333Z" fill="white"/>
<path d="M18.2983 90.8578C18.3413 90.9692 18.3667 91.0579 18.3743 91.1263C18.3945 91.334 18.3287 91.4936 18.1767 91.6076C18.1311 91.6431 18.0931 91.6634 18.0728 91.676C17.9867 91.7166 17.7713 91.7216 17.4243 91.6938C17.0772 91.6659 16.7681 91.7622 16.4971 91.9876C16.2919 92.1574 16.2057 92.4994 16.2361 93.0162L16.3577 93.7027C16.4033 93.7255 16.4413 93.7382 16.4692 93.7407C16.5629 93.7508 16.6541 93.723 16.7428 93.6571C16.9151 93.5304 17.0569 93.2695 17.1709 92.8768C17.2216 92.7046 17.3077 92.5754 17.4293 92.4842C17.6041 92.355 17.8423 92.3094 18.1463 92.3448C18.24 92.355 18.3743 92.3879 18.5516 92.4436C18.5491 92.4234 18.5465 92.4056 18.5389 92.393C18.5161 92.2612 18.5161 92.1498 18.5389 92.051C18.5465 92.0054 18.5617 91.9724 18.582 91.9598C18.5921 91.9522 18.6073 91.9496 18.6276 91.9522L19.608 92.1548C19.5447 92.2764 19.5067 92.3727 19.4915 92.4462C19.4408 92.6767 19.4889 92.892 19.6333 93.0871C19.7397 93.2315 19.8917 93.343 20.0893 93.419C20.2844 93.4975 20.4491 93.5152 20.5833 93.4722C20.5276 93.4899 20.4769 93.5076 20.4263 93.5279C20.3072 93.5507 20.1957 93.5634 20.0919 93.5659C20.0741 93.5659 20.0032 93.5507 19.8791 93.5203L19.6992 93.4848C19.7093 93.5406 19.7169 93.5963 19.722 93.6495C19.7448 93.8623 19.7321 94.0523 19.684 94.2195C19.6561 94.3234 19.6131 94.3918 19.5599 94.4323L17.7333 95.7826L16.6643 95.2911L18.7467 93.7508C18.8911 93.6444 18.9291 93.4342 18.8607 93.12C18.8429 93.0364 18.7999 92.9275 18.7289 92.7907C18.7112 92.7628 18.6757 92.697 18.6175 92.5982C18.5997 92.5728 18.5541 92.5855 18.4807 92.6387C18.3084 92.7679 18.126 93.0694 17.936 93.5507C17.8929 93.6571 17.8271 93.7432 17.7359 93.8116C17.5509 93.9484 17.2672 94.0092 16.8771 93.994C16.5477 93.9788 16.2311 93.9307 15.9271 93.8446C15.8283 93.8091 15.6788 93.7584 15.4812 93.6951C15.4609 93.6698 15.4356 93.5304 15.4052 93.2796C15.3013 92.4512 15.4356 91.9015 15.8105 91.6228C15.9499 91.5215 16.2108 91.4708 16.5908 91.4708C16.9708 91.4708 17.2191 91.4278 17.3331 91.3442C17.48 91.2352 17.5231 91.0782 17.4623 90.8755C17.4471 90.8274 17.4192 90.7564 17.3812 90.6602L18.2932 90.8603L18.2983 90.8578Z" fill="white"/>
<path d="M21.8297 95.8157L20.4288 94.5971L21.5029 94.5312L23.104 95.9221L20.7531 98.6302L19.5649 98.4275L21.8323 95.8182L21.8297 95.8157Z" fill="white"/>
<path d="M24.548 96.7682L26.3745 98.0323L24.3605 100.946L22.99 100.811C22.9672 100.789 22.9343 100.763 22.8937 100.73C22.7493 100.599 22.6252 100.441 22.5188 100.264C22.458 100.165 22.4175 100.021 22.3972 99.8335C22.3997 99.7474 22.4073 99.6612 22.4175 99.5751L23.2459 99.5472C23.2003 99.6232 23.1699 99.679 23.1547 99.717C23.1015 99.8512 23.0989 99.9703 23.1471 100.069C23.2256 100.231 23.3143 100.348 23.4131 100.416C23.4384 100.434 23.4561 100.439 23.4637 100.426L25.0977 98.0652L23.5727 97.0063L24.5455 96.7656L24.548 96.7682Z" fill="white"/>
<path d="M25.1636 96.5377C25.232 96.5782 25.3536 96.5959 25.5309 96.5909C25.5917 96.5909 25.6753 96.5858 25.7817 96.5757C25.6221 96.6187 25.4904 96.6491 25.3865 96.6643C25.0825 96.7125 24.8444 96.6973 24.6747 96.6213C24.6443 96.6086 24.6088 96.5883 24.5657 96.563C24.3783 96.4541 24.1933 96.2818 24.0059 96.0462C23.9349 95.9373 23.8691 95.8258 23.8007 95.7143C23.8792 95.6915 23.9983 95.6586 24.1604 95.6206C24.4137 95.5674 24.7051 95.5446 25.0319 95.5522C25.498 95.5573 25.8856 95.6535 26.1997 95.8385C26.6608 96.107 27.0585 96.5706 27.3929 97.2267C27.4284 97.3002 27.4816 97.4117 27.55 97.5586L26.6532 97.7385C26.6633 97.6194 26.6608 97.5257 26.6456 97.4522C26.6 97.2141 26.4733 96.9633 26.2631 96.6998C25.9591 96.3173 25.6703 96.0462 25.3967 95.8866C25.2143 95.7802 25.0293 95.7042 24.8444 95.6586C24.7785 95.6434 24.7051 95.6333 24.624 95.6257C24.6417 95.7397 24.662 95.8537 24.6797 95.9651C24.8089 96.2337 24.9711 96.4237 25.1661 96.5377H25.1636Z" fill="white"/>
<path d="M27.4461 98.7349C27.5703 98.8667 27.6589 98.968 27.7096 99.0415C27.8743 99.2847 27.9224 99.495 27.8515 99.6723C27.8135 99.7432 27.6716 99.8547 27.4233 100.004C27.1953 100.141 27.0357 100.326 26.9445 100.554C26.9015 100.658 26.8685 100.779 26.8356 100.924C26.7647 101.223 26.8153 101.585 26.9825 102.008C27.0763 102.183 27.1725 102.358 27.2713 102.535C27.3271 102.51 27.3676 102.484 27.398 102.459C27.4943 102.378 27.5703 102.266 27.6285 102.127C27.7223 101.884 27.7476 101.577 27.6995 101.2C27.6767 101.025 27.702 100.84 27.778 100.648C27.9173 100.301 28.2036 100.007 28.6393 99.7635C29.0244 99.5481 29.2904 99.4722 29.4373 99.5279L31.0359 100.161L29.7109 103.495L28.5228 103.698L29.8123 100.45L28.7787 100.04C28.7255 100.017 28.69 100.04 28.6647 100.1C28.6571 100.204 28.6444 100.534 28.6241 101.081C28.614 101.397 28.5735 101.638 28.5076 101.8L28.4747 101.881C28.462 101.899 28.4544 101.912 28.4519 101.922C28.1757 102.396 27.664 102.71 26.9192 102.864C26.79 102.879 26.6608 102.895 26.5316 102.907C26.5063 102.897 26.4252 102.793 26.2909 102.593C25.8476 101.94 25.7235 101.37 25.916 100.883C25.9793 100.726 26.1617 100.551 26.4708 100.359C26.7773 100.166 26.9597 100.004 27.0129 99.8699C27.0915 99.6698 27.0332 99.4924 26.8356 99.3303C26.8103 99.3075 26.7317 99.2518 26.6 99.1631L27.4385 98.7324L27.4461 98.7349Z" fill="white"/>
<path d="M32.8877 100.74C32.9359 100.73 32.9865 100.73 33.0347 100.74C33.174 100.768 33.3235 100.867 33.4805 101.031C33.6275 101.183 33.6908 101.269 33.668 101.282L32.908 101.69C32.9004 101.657 32.8903 101.614 32.8776 101.563C32.8168 101.386 32.6597 101.269 32.414 101.219C32.2215 101.181 32.11 101.219 32.0897 101.333C32.0695 101.432 32.1075 101.561 32.2063 101.718C32.3051 101.877 32.4115 101.997 32.528 102.078C32.6825 102.184 32.8523 102.255 33.0321 102.293C33.1639 102.321 33.2956 102.326 33.4273 102.316C33.4755 102.311 33.5287 102.301 33.5819 102.285C33.4147 102.328 33.2221 102.392 33.0119 102.473C32.4849 102.675 32.1987 102.886 32.1531 103.104C32.0999 103.367 32.3304 103.686 32.8447 104.064C33.1132 104.208 33.3843 104.347 33.6528 104.489L34.2507 101.571L35.4084 101.158L34.7497 104.36L32.9688 104.955C32.9131 104.971 32.7281 104.905 32.414 104.75C31.4767 104.294 31.0561 103.828 31.1549 103.357C31.1499 103.352 31.1499 103.342 31.1549 103.329C31.2005 103.106 31.4032 102.929 31.7655 102.795C31.882 102.751 32.0593 102.706 32.3 102.663C31.7477 102.539 31.4513 102.28 31.4057 101.885C31.4057 101.87 31.4057 101.845 31.4133 101.809C31.4539 101.624 31.6464 101.411 31.996 101.173C32.3279 100.948 32.6268 100.803 32.8953 100.74H32.8877Z" fill="white"/>
<path d="M37.8809 102.211L36.0291 102.089L36.8423 101.385L38.9576 101.524L38.722 105.101L37.6529 105.661L37.8809 102.211Z" fill="white"/>
<path d="M41.2528 105.944C41.2097 105.927 41.1185 105.861 40.9817 105.742C40.4573 105.303 40.1761 104.865 40.1407 104.427C40.09 103.781 40.3636 103.203 40.9665 102.699C41.1439 102.55 41.2452 102.474 41.2731 102.471L39.8113 102.59L40.3687 101.787L44.0749 101.488L44.3637 105.06L43.3276 105.772C43.2769 105.721 43.1427 105.526 42.9273 105.187L42.2459 104.113C42.0711 103.834 41.8203 103.538 41.496 103.229C41.3389 103.117 41.1844 103.006 41.0273 102.889C40.9919 102.968 40.9589 103.049 40.9285 103.127C40.8905 103.335 40.8779 103.543 40.8956 103.753C40.9159 103.996 40.9741 104.199 41.0755 104.356C41.2604 104.645 41.4555 104.855 41.6581 104.984C41.7797 105.06 41.9368 105.103 42.1243 105.113L41.2553 105.947L41.2528 105.944ZM41.8633 102.426L42.1825 102.755C42.3295 102.904 42.4308 103.011 42.484 103.067C42.5144 103.099 42.6765 103.289 42.9679 103.637C43.0287 103.707 43.1199 103.809 43.2364 103.938L43.1072 102.327L41.8633 102.428V102.426Z" fill="white"/>
<path d="M42.6639 99.7585C42.6385 99.8016 42.6132 99.8472 42.5904 99.8979C42.5397 100.014 42.522 100.111 42.5347 100.187C42.5752 100.427 42.8817 100.501 43.4467 100.405C43.6873 100.364 43.9483 100.225 44.2295 99.9865C44.4499 99.7991 44.65 99.5888 44.8349 99.3583C44.8831 99.2899 44.9616 99.1835 45.0655 99.0391C45.0148 99.1455 44.9312 99.3025 44.8172 99.5077C44.612 99.8548 44.346 100.169 44.0192 100.453C43.6012 100.82 43.1604 101.043 42.6943 101.121C42.3979 101.172 42.0837 101.121 41.7443 100.977C41.6151 100.893 41.4808 100.807 41.3516 100.721L42.6639 99.7585Z" fill="white"/>
<path d="M46.1446 100.905C46.1826 100.872 46.2257 100.849 46.2738 100.834C46.4106 100.794 46.588 100.811 46.8058 100.885C47.006 100.953 47.1022 100.996 47.087 101.019L46.6057 101.733C46.5829 101.708 46.555 101.675 46.5196 101.635C46.3828 101.505 46.1928 101.475 45.9496 101.546C45.7596 101.599 45.681 101.685 45.714 101.797C45.7418 101.893 45.8356 101.989 45.9977 102.083C46.1599 102.177 46.3093 102.235 46.4487 102.25C46.6361 102.27 46.8185 102.258 46.9958 102.205C47.1225 102.167 47.2466 102.113 47.3581 102.04C47.3986 102.015 47.4392 101.982 47.4797 101.939C47.3505 102.055 47.2112 102.2 47.0617 102.372C46.6893 102.795 46.5348 103.114 46.5956 103.329C46.6716 103.588 47.0237 103.765 47.6545 103.859C47.9585 103.859 48.265 103.859 48.569 103.859L47.7406 100.996L48.5716 100.092L49.4785 103.231L48.1789 104.588C48.1384 104.629 47.9408 104.654 47.5912 104.664C46.55 104.697 45.9597 104.482 45.828 104.016C45.8229 104.013 45.8178 104.006 45.8128 103.993C45.7494 103.775 45.8483 103.522 46.1041 103.236C46.1877 103.142 46.3245 103.02 46.517 102.868C45.9698 103.015 45.5848 102.924 45.3618 102.6C45.3542 102.587 45.3441 102.562 45.334 102.526C45.2808 102.344 45.3542 102.068 45.5518 101.693C45.7418 101.341 45.9394 101.072 46.1472 100.89L46.1446 100.905Z" fill="white"/>
<path d="M50.1955 99.9828C50.1093 100.018 50.0435 100.041 49.9979 100.056L50.2259 99.2938C50.3931 99.2482 50.5096 99.2178 50.5755 99.2051C51.0492 99.1139 51.376 99.2532 51.5584 99.6256L52.1436 100.829C52.1917 100.834 52.3437 100.821 52.5996 100.799C52.8555 100.773 53.162 100.778 53.5141 100.819C53.6104 100.829 53.7041 100.839 53.7903 100.852L52.7693 98.7643L53.4179 97.7383L54.9885 100.961L54.3451 101.974C54.1677 101.842 53.8916 101.673 53.5167 101.467C53.3596 101.409 53.1291 101.376 52.8251 101.369C52.7339 101.369 52.5945 101.369 52.4096 101.376L52.7415 102.06L52.0701 103.084C52.0347 103.043 51.9865 102.99 51.9232 102.924C51.7028 102.691 51.5052 102.529 51.3279 102.43C51.2341 102.377 51.0847 102.319 50.8744 102.26C50.7832 102.232 50.6895 102.207 50.5907 102.184C50.616 102.106 50.6388 102.045 50.6616 101.994C50.7199 101.863 50.7781 101.754 50.8339 101.667C50.9301 101.523 51.0239 101.409 51.1151 101.323C51.1227 101.315 51.1429 101.295 51.186 101.26L50.616 100.097C50.5425 99.9473 50.4007 99.9119 50.1904 99.9879L50.1955 99.9828ZM51.3304 101.543C51.3101 101.538 51.2696 101.548 51.2063 101.581C51.0847 101.642 50.996 101.693 50.9428 101.738C50.9479 101.751 50.9555 101.761 50.9631 101.769C51.0315 101.759 51.1429 101.776 51.2924 101.822C51.338 101.835 51.4064 101.86 51.5027 101.898L51.3304 101.546V101.543Z" fill="white"/>
<path d="M54.9556 96.9488C55.0671 96.9032 55.1557 96.8753 55.2216 96.8677C55.4293 96.8424 55.5915 96.9057 55.708 97.0552C55.7435 97.1033 55.7663 97.1363 55.7789 97.1565C55.822 97.2427 55.8321 97.458 55.8119 97.8051C55.7916 98.1547 55.8955 98.4612 56.126 98.7272C56.2983 98.9299 56.6428 99.0084 57.1596 98.9653L57.8436 98.8285C57.8664 98.7804 57.8765 98.7424 57.8791 98.7171C57.8892 98.6233 57.8588 98.5321 57.7904 98.4435C57.6587 98.2737 57.3952 98.1369 57.0025 98.0305C56.8303 97.9849 56.6985 97.9013 56.6048 97.7797C56.4705 97.6075 56.4199 97.3693 56.4503 97.0679C56.4604 96.9741 56.4908 96.8373 56.5389 96.66C56.5187 96.6625 56.5009 96.6676 56.4883 96.6727C56.3591 96.698 56.2425 96.7005 56.1463 96.6803C56.0981 96.6727 56.0677 96.66 56.0551 96.6397C56.0449 96.6296 56.0424 96.6144 56.0449 96.5941L56.2248 95.6087C56.3464 95.6695 56.4452 95.7049 56.5187 95.7176C56.7517 95.7632 56.9645 95.71 57.1571 95.5631C57.2989 95.4541 57.4053 95.2996 57.4788 95.102C57.5523 94.9044 57.5675 94.7397 57.5219 94.6055C57.5396 94.6612 57.5599 94.7144 57.5801 94.7625C57.608 94.8816 57.6232 94.9931 57.6257 95.0995C57.6257 95.1172 57.6131 95.1881 57.5852 95.3123L57.5523 95.4921C57.608 95.4795 57.6612 95.4719 57.7144 95.4643C57.9272 95.4364 58.1172 95.444 58.2869 95.4896C58.3883 95.5149 58.4592 95.5555 58.4997 95.6087L59.888 97.4048L59.4193 98.484L57.836 96.4345C57.7245 96.2901 57.5143 96.2572 57.2001 96.3332C57.1191 96.3535 57.0101 96.4016 56.8733 96.4751C56.8455 96.4928 56.7821 96.5283 56.6833 96.5891C56.658 96.6093 56.6732 96.6549 56.7289 96.7259C56.8607 96.8956 57.1672 97.0704 57.6511 97.2503C57.7575 97.2908 57.8461 97.3541 57.9145 97.4453C58.0564 97.6252 58.1223 97.9115 58.1147 98.3016C58.1071 98.6309 58.064 98.9476 57.988 99.2516C57.9551 99.3504 57.9069 99.4999 57.8461 99.7C57.8208 99.7203 57.6815 99.7481 57.4307 99.7836C56.6048 99.9052 56.05 99.7836 55.7663 99.4137C55.6624 99.2769 55.6041 99.0185 55.5991 98.6385C55.5889 98.2585 55.5433 98.0128 55.4572 97.8988C55.3457 97.7544 55.1887 97.7139 54.986 97.7797C54.9404 97.7949 54.8669 97.8228 54.7732 97.8684L54.9505 96.9488H54.9556Z" fill="white"/>
<path d="M55.4268 95.5368C55.4825 95.4811 55.5332 95.3671 55.5762 95.1948C55.5914 95.1365 55.6066 95.0555 55.6244 94.9491C55.6244 95.1137 55.6193 95.248 55.6092 95.3544C55.5762 95.6609 55.5002 95.8864 55.3837 96.0308C55.3634 96.0561 55.3356 96.0865 55.2976 96.122C55.1456 96.274 54.9277 96.4083 54.6541 96.5299C54.5325 96.5679 54.4058 96.6059 54.2792 96.6413C54.2792 96.5603 54.2792 96.4361 54.2817 96.2715C54.2969 96.0105 54.3501 95.7243 54.4413 95.4101C54.568 94.9617 54.7605 94.6121 55.0189 94.3563C55.3989 93.9813 55.9486 93.7179 56.6681 93.5633C56.7492 93.5481 56.8682 93.5253 57.0304 93.5L56.9721 94.412C56.8606 94.3715 56.7669 94.3487 56.6934 94.3436C56.4502 94.3259 56.1741 94.3841 55.8676 94.5184C55.4192 94.7135 55.0822 94.9212 54.8568 95.1441C54.7073 95.2936 54.5857 95.4507 54.492 95.6204C54.4616 95.6787 54.4312 95.7496 54.4033 95.8256C54.5198 95.8383 54.6313 95.8484 54.7453 95.8585C55.0392 95.8028 55.2646 95.6939 55.4242 95.5368H55.4268Z" fill="white"/>
<path d="M60.7519 90.7031L63.5411 92.9553L63.3815 94.151L60.6936 91.9799L59.1204 93.9306C59.2065 94.0117 59.3155 94.1054 59.4497 94.2143C59.6119 94.3106 59.8652 94.3131 60.2123 94.227C60.3567 94.1687 60.5036 94.1079 60.6531 94.0446C60.6429 94.0243 60.6328 94.0015 60.6201 93.9762C60.5796 93.9154 60.5416 93.8673 60.4985 93.8318C60.3997 93.7533 60.2528 93.7634 60.0476 93.8571C60.0299 93.8673 60.002 93.8799 59.9665 93.9002L59.8525 93.1174C59.9615 93.049 60.04 93.0085 60.0957 92.9882C60.2807 92.9173 60.4251 92.9249 60.5264 93.0059C60.5821 93.0515 60.6252 93.1123 60.6531 93.1883C60.7392 93.429 60.7747 93.7077 60.7595 94.0294C60.7316 94.5665 60.7696 94.8781 60.8684 94.9566C61.1015 95.1466 61.3599 95.1821 61.6436 95.0681C61.7348 95.0301 61.8564 94.9515 62.0033 94.8375L62.2035 95.6178C62.13 95.671 62.0591 95.7217 61.9881 95.7698C61.6309 95.9421 61.332 95.9902 61.0913 95.9142C61.0179 95.8889 60.9571 95.8585 60.9089 95.8205C60.7949 95.7293 60.724 95.5899 60.6911 95.405C60.6911 95.2378 60.6885 95.0706 60.6885 94.8983C60.1236 95.1567 59.7005 95.1719 59.4193 94.9465C59.0292 94.6323 58.8595 94.0978 58.9051 93.3429C58.9203 93.1022 58.9405 92.9603 58.9735 92.9198L60.7569 90.7082L60.7519 90.7031Z" fill="white"/>
<path d="M65.6133 90.6382C65.5779 90.6661 65.4715 90.7091 65.3017 90.7699C64.6557 90.9979 64.1364 91.0157 63.7437 90.8231C63.1611 90.5369 62.8064 90.0074 62.6772 89.2322C62.6392 89.0042 62.6265 88.875 62.6392 88.8522L61.9932 90.1721L61.5879 89.2829L63.2219 85.9414L66.4417 87.5171L66.5279 88.7737C66.4569 88.7914 66.2213 88.8066 65.8211 88.8193L64.5468 88.8573C64.2175 88.8649 63.8375 88.9282 63.4043 89.0498C63.2295 89.1283 63.0521 89.2043 62.8697 89.2803C62.9204 89.3513 62.9711 89.4197 63.0243 89.4855C63.1813 89.6249 63.3561 89.7414 63.5436 89.8326C63.764 89.9415 63.9667 89.9897 64.1541 89.9846C64.4987 89.9719 64.7773 89.9137 64.9927 89.8022C65.1219 89.7363 65.2359 89.6249 65.3423 89.4653L65.6159 90.6382H65.6133ZM62.9001 88.3177L63.3435 88.2113C63.5487 88.1631 63.6905 88.1277 63.7665 88.1099C63.8096 88.0998 64.0579 88.0593 64.5037 87.9833C64.5949 87.9655 64.7292 87.9402 64.8989 87.9073L63.4473 87.1979L62.8976 88.3177H62.9001Z" fill="white"/>
<path d="M14.2323 62.2013C14.2677 62.1506 14.3564 62.0822 14.5033 61.9986C14.6503 61.915 14.7288 61.8795 14.7389 61.8973L14.8985 62.8194C14.8656 62.8194 14.8225 62.827 14.7719 62.8346C14.6705 62.8523 14.5971 62.8802 14.5515 62.9157C14.5135 62.9385 14.4349 63.0271 14.3159 63.1817C14.2652 63.245 14.3083 63.3185 14.4425 63.397C14.6021 63.4907 14.7592 63.5338 14.9163 63.5211C15.1671 63.5059 15.3596 63.4857 15.4863 63.4629C15.9727 63.3767 16.4185 63.1969 16.8213 62.9233C16.8999 62.8549 16.9784 62.7814 17.0569 62.7079L14.6781 61.2943L13.3228 63.5743L13.0011 62.6573L14.5844 59.9922L17.4547 61.6971L17.3407 63.5161C17.3407 63.5313 17.3331 63.5439 17.328 63.5591C17.2824 63.6351 17.1228 63.7466 16.8441 63.891C16.4996 64.0709 16.15 64.1975 15.7903 64.271C15.3571 64.3597 15.0201 64.3343 14.782 64.1925C14.5439 64.0506 14.3412 63.7947 14.174 63.4223C13.9789 62.9891 13.9663 62.6243 14.1436 62.3305C14.1765 62.2747 14.2069 62.2342 14.2297 62.2089L14.2323 62.2013Z" fill="white"/>
<path d="M16.9657 58.137C17.0671 58.0864 17.1481 58.0509 17.2089 58.0332C17.4015 57.9825 17.5535 58.0053 17.6725 58.099C17.8727 58.2637 17.9005 58.7096 17.7536 59.4366C17.7055 59.6798 17.7283 59.8394 17.8245 59.9154C18.0145 60.0725 18.2223 60.1232 18.4477 60.07C18.6352 59.9661 18.8201 59.8622 19.0051 59.7558L19.114 60.6324C19.1267 60.6805 19.0076 60.7666 18.7568 60.8908C18.4756 61.0276 18.2324 61.0681 18.0272 61.0124C17.9613 60.9946 17.9005 60.9642 17.8423 60.9161C17.7004 60.8021 17.6219 60.602 17.5991 60.3157C17.6016 60.184 17.6041 60.0497 17.6016 59.9154C17.0265 60.184 16.6009 60.2042 16.3223 59.9762C15.8916 59.6216 15.7877 58.9908 16.0107 58.0762C16.0892 57.7621 16.1601 57.5898 16.226 57.5645C16.3425 57.5493 16.454 57.5366 16.5503 57.5189C16.796 57.4758 16.9683 57.3948 17.0671 57.2732C17.176 57.1414 17.2292 56.954 17.2292 56.7082C17.2292 56.6424 17.2216 56.5309 17.2013 56.3738C17.3483 56.2776 17.442 56.2168 17.4927 56.1914C17.7131 56.0648 17.8853 56.0014 18.0145 56.004C18.1741 56.0242 18.3261 56.0952 18.468 56.2117L20.5403 57.9166L20.3528 59.125L17.8093 57.035C17.7131 56.9565 17.5357 57.0173 17.2697 57.2174C17.2469 57.3314 17.2216 57.4454 17.1937 57.5594C17.1076 57.8305 17.0063 58.0256 16.8872 58.1421C16.7884 58.2384 16.6161 58.3346 16.3679 58.4233C16.2817 58.4562 16.1728 58.4892 16.0411 58.5246C16.0613 58.626 16.0791 58.7096 16.0968 58.7729C16.1525 58.9528 16.2235 59.082 16.3172 59.1554C16.34 59.1757 16.3577 59.1884 16.3729 59.1934C16.5148 59.2669 16.7757 59.2568 17.1557 59.158C17.1963 59.1478 17.3736 59.0896 17.6953 58.9857C17.6877 58.973 17.6827 58.9604 17.6827 58.9477C17.6599 58.9173 17.632 58.8894 17.6016 58.8616C17.4597 58.745 17.2951 58.745 17.1076 58.8616C17.0797 58.8818 17.0443 58.9072 16.9987 58.9376L16.9708 58.1421L16.9657 58.137Z" fill="white"/>
<path d="M20.7632 59.7296C20.5707 59.5396 20.6061 59.3141 20.8645 59.0456C21.1331 58.772 21.3636 58.7314 21.5637 58.924C21.7563 59.1114 21.7233 59.3394 21.4599 59.608C21.1913 59.8816 20.9583 59.9221 20.7632 59.7296Z" fill="white"/>
<path d="M20.5909 54.535C20.6973 54.5021 20.7835 54.4818 20.8493 54.4742C21.0444 54.459 21.1964 54.5071 21.2927 54.6211C21.4624 54.8187 21.4092 55.2621 21.1407 55.9511C21.052 56.1817 21.0469 56.3438 21.1255 56.4375C21.2851 56.625 21.4827 56.7111 21.7132 56.6959C21.9159 56.6275 22.116 56.5566 22.3161 56.4831L22.268 57.3647C22.2756 57.4129 22.1439 57.4787 21.8728 57.5547C21.5739 57.6409 21.3256 57.6383 21.1305 57.5497C21.0697 57.5218 21.014 57.4787 20.9659 57.4205C20.8493 57.2811 20.8037 57.0709 20.8316 56.7846C20.8569 56.6554 20.8797 56.5237 20.9051 56.3919C20.292 56.5541 19.8689 56.5034 19.6359 56.2298C19.2736 55.8067 19.2812 55.1658 19.6587 54.3045C19.7904 54.0081 19.8892 53.8535 19.9601 53.8383C20.0792 53.8459 20.1881 53.851 20.2895 53.851C20.5377 53.851 20.7227 53.8003 20.8417 53.699C20.9709 53.5875 21.0571 53.4127 21.0976 53.1721C21.1103 53.1062 21.1229 52.9947 21.128 52.8377C21.2876 52.7693 21.394 52.7262 21.4472 52.7085C21.6853 52.6223 21.8677 52.5919 21.9919 52.6147C22.1464 52.6629 22.2832 52.7566 22.4048 52.8985L24.1503 54.9353L23.7525 56.093L21.6119 53.5926C21.5308 53.4989 21.3459 53.5267 21.0469 53.6762C21.0039 53.7851 20.9583 53.8941 20.9127 54.0005C20.7809 54.2538 20.6467 54.4261 20.5099 54.5223C20.3959 54.6009 20.2109 54.6642 19.95 54.7098C19.8588 54.725 19.7448 54.7402 19.6131 54.7503C19.6131 54.8517 19.6181 54.9378 19.6232 55.0037C19.646 55.1911 19.6967 55.3305 19.7727 55.4191C19.7929 55.4419 19.8081 55.4571 19.8208 55.4647C19.9475 55.5635 20.2084 55.5965 20.5985 55.5661C20.6391 55.5635 20.824 55.5382 21.1609 55.4901C21.1559 55.4774 21.1508 55.4622 21.1533 55.4495C21.1356 55.4141 21.1153 55.3811 21.0875 55.3507C20.9684 55.2114 20.8063 55.181 20.6011 55.2621C20.5681 55.2773 20.5301 55.295 20.482 55.3178L20.5935 54.5299L20.5909 54.535Z" fill="white"/>
<path d="M24.5987 51.3994L22.9875 52.3874L23.2687 51.3412L25.1205 50.2012L26.9749 53.2209L26.3847 54.3102L24.5961 51.3994H24.5987Z" fill="white"/>
<path d="M26.5848 50.2999L26.9901 49.4588C27.1143 49.469 27.2409 49.4791 27.3676 49.4842C27.6361 49.5399 27.8008 49.6336 27.8641 49.773L27.8819 49.8135C27.9275 49.9731 27.8869 50.3354 27.7628 50.8952C27.7071 51.141 27.7147 51.336 27.778 51.4779C27.7932 51.5134 27.8084 51.5463 27.8287 51.5742C27.9807 51.8072 28.2213 51.9694 28.5456 52.053C28.9763 52.1695 29.298 52.1796 29.5057 52.0859C29.564 52.0707 29.6527 51.977 29.7667 51.8098C29.8832 51.6426 29.9313 51.5463 29.9187 51.5159L28.9104 49.2815L29.6273 48.2656L30.7952 50.8547L30.2227 51.2879C30.2784 51.2778 30.3569 51.2626 30.4532 51.2448C30.6863 51.2119 30.9067 51.2423 31.1093 51.336C31.2157 51.3892 31.2689 51.4222 31.2613 51.4348L30.8611 52.2708C30.4887 51.9567 30.1441 51.8706 29.8325 52.0124C29.6552 52.0935 29.5235 52.2784 29.4399 52.5723C29.3689 52.8155 29.3335 52.9472 29.3335 52.9599C29.3056 52.9726 29.1637 52.9776 28.9104 52.97C28.0719 52.9523 27.5601 52.737 27.3752 52.3266C27.2992 52.1518 27.2916 51.9339 27.36 51.6704C27.5069 51.0979 27.5576 50.7534 27.5095 50.6368C27.5019 50.6191 27.4943 50.5963 27.4867 50.5735C27.4715 50.5583 27.4664 50.5482 27.4715 50.5406C27.3904 50.3632 27.2207 50.2695 26.9547 50.2568C26.8711 50.2568 26.7444 50.267 26.5823 50.2923L26.5848 50.2999Z" fill="white"/>
<path d="M27.968 48.3256C27.8692 48.2851 27.8084 48.237 27.7906 48.1863C27.783 48.166 27.7881 48.1432 27.8008 48.1103L28.4012 47.2287C28.4797 47.1122 28.6722 47.0032 28.9762 46.8994C29.0168 46.8842 29.0649 46.869 29.1181 46.8538C29.2195 46.8158 29.3537 46.8031 29.5159 46.8107C29.7008 46.8208 29.8072 46.8614 29.8274 46.9298C29.8401 46.9627 29.8351 46.9982 29.8123 47.0336L29.2372 48.0292C29.1764 48.1356 29.0041 48.237 28.7229 48.3358C28.6241 48.3712 28.5431 48.394 28.4772 48.4067C28.3353 48.4346 28.1656 48.4067 27.9655 48.3256H27.968ZM28.2315 47.71C28.2619 47.7936 28.3075 47.8468 28.3683 47.8671C28.4823 47.9026 28.6444 47.9026 28.8572 47.8671C28.918 47.857 28.9737 47.8418 29.0218 47.8266C29.1688 47.7734 29.2752 47.6948 29.336 47.591C29.3563 47.558 29.374 47.5124 29.3841 47.4491C29.3841 47.4263 29.3841 47.4086 29.3791 47.3959C29.3385 47.2819 29.1992 47.2515 28.9585 47.3098C28.8344 47.3427 28.7533 47.368 28.7153 47.3832C28.5126 47.4542 28.3657 47.5378 28.2694 47.6366C28.2593 47.6619 28.2467 47.6872 28.2289 47.71H28.2315Z" fill="white"/>
<path d="M40.4953 46.781C40.5561 46.7886 40.6575 46.8368 40.8019 46.9254C40.9463 47.0166 41.0121 47.0698 41.002 47.085L40.2648 47.6601C40.2471 47.6322 40.2217 47.5968 40.1913 47.5537C40.128 47.4726 40.0697 47.4194 40.014 47.3966C39.976 47.3738 39.862 47.3485 39.6695 47.3156C39.5909 47.3029 39.5453 47.3738 39.5403 47.5309C39.5327 47.7133 39.5707 47.8729 39.6517 48.0072C39.786 48.22 39.8899 48.3796 39.9709 48.4809C40.2775 48.8685 40.6448 49.1776 41.0755 49.4056C41.1743 49.441 41.2731 49.4765 41.3769 49.512L41.5036 46.7481L38.8563 46.6265L39.5149 45.9121L42.6107 46.054L42.4561 49.3878L40.7993 50.1428C40.7841 50.1478 40.7689 50.1529 40.7563 50.1504C40.6676 50.1478 40.4928 50.0566 40.2369 49.8793C39.9177 49.6589 39.6391 49.4106 39.406 49.1294C39.1248 48.79 38.9905 48.4784 39.0007 48.2022C39.0133 47.9261 39.1476 47.6272 39.3959 47.3029C39.6847 46.9254 40.0013 46.7456 40.3459 46.7608C40.4117 46.7633 40.4624 46.7684 40.4953 46.7785V46.781Z" fill="white"/>
<path d="M41.5163 50.293C41.5467 50.3031 41.5872 50.3158 41.6328 50.3284C41.9039 50.412 42.0837 50.526 42.1749 50.6755C42.218 50.7414 42.2383 50.792 42.2332 50.825L42.1496 51.4532L41.1261 51.8535L41.23 51.0454C41.2401 50.982 41.2249 50.9162 41.1844 50.8503C41.1439 50.8047 41.0552 50.7718 40.9159 50.754C40.8551 50.7464 40.8019 50.7414 40.7537 50.7439L41.5112 50.293H41.5163Z" fill="white"/>
<path d="M45.1643 46.5697C45.2808 46.6685 45.3618 46.7496 45.4125 46.8155C45.567 47.0156 45.6202 47.2107 45.5746 47.4032L45.5594 47.464C45.5417 47.4919 45.5316 47.5121 45.5291 47.5248C45.4708 47.6413 45.2934 47.7984 45.0046 48.0011C44.7336 48.1911 44.5816 48.3507 44.5487 48.4799C44.5259 48.5685 44.5284 48.6623 44.5537 48.7585C44.6854 49.2804 44.9236 49.6933 45.2656 49.9973C45.4885 50.1975 45.719 50.3241 45.9546 50.3824C46.0154 50.3976 46.0459 50.4001 46.056 50.39L46.9958 46.5647L48.1865 46.2227L47.1377 50.4837L45.2833 50.8789C45.2124 50.8967 45.03 50.8131 44.7387 50.6281C43.8875 50.0936 43.5429 49.5059 43.7 48.8624C43.7431 48.6901 43.8621 48.5305 44.0572 48.3836C44.4904 48.0543 44.7209 47.8288 44.7539 47.7021C44.7615 47.6743 44.7665 47.6464 44.7665 47.616C44.7817 47.4817 44.7133 47.3475 44.5639 47.2132C44.5157 47.1701 44.4397 47.1144 44.3308 47.046L45.1643 46.5723V46.5697Z" fill="white"/>
<path d="M49.2454 48.6022C49.1593 48.5591 49.096 48.5236 49.0554 48.4983L49.7901 48.1816C49.9396 48.2779 50.0409 48.3463 50.0941 48.3894C50.4842 48.6883 50.6008 49.0278 50.4412 49.4052L49.9269 50.6212C49.9573 50.6592 50.0688 50.7707 50.2638 50.948C50.4614 51.1279 50.6641 51.366 50.8794 51.6599C50.9377 51.741 50.9909 51.8195 51.0441 51.8904L51.9384 49.7776L53.1544 49.6104L51.7712 52.8708L50.5577 53.0279C50.54 52.81 50.4766 52.4908 50.3778 52.0728C50.3145 51.9183 50.1853 51.7207 49.9826 51.4826C49.9193 51.4116 49.823 51.3078 49.6913 51.171L49.4 51.8626L48.1662 52.0095C48.1738 51.9563 48.1814 51.8854 48.1865 51.7967C48.2144 51.4826 48.2017 51.2267 48.1586 51.0291C48.1384 50.9227 48.0776 50.7732 47.9813 50.5756C47.9433 50.487 47.8977 50.4008 47.847 50.3122C47.923 50.2792 47.9864 50.2564 48.0396 50.2438C48.1814 50.2032 48.3005 50.1779 48.4044 50.1652C48.5766 50.145 48.7286 50.1424 48.8578 50.1576C48.868 50.1576 48.8984 50.1627 48.9541 50.1703L49.4557 48.9923C49.519 48.8403 49.4506 48.7086 49.248 48.5971L49.2454 48.6022ZM48.8274 50.4642C48.8198 50.4464 48.7818 50.4236 48.7134 50.3932C48.5842 50.3375 48.4854 50.3046 48.4145 50.2944C48.4094 50.3071 48.4069 50.3172 48.4069 50.3299C48.4626 50.3755 48.5234 50.4718 48.5893 50.6136C48.6121 50.6567 48.64 50.7251 48.6754 50.8239L48.8274 50.4642Z" fill="white"/>
<path d="M51.946 48.366C51.908 48.2647 51.9029 48.1887 51.9308 48.1406C51.9409 48.1228 51.9612 48.1076 51.9941 48.0975L53.0505 47.948C53.1899 47.9303 53.4001 47.9987 53.6813 48.1558C53.7193 48.176 53.7624 48.2014 53.8105 48.2318C53.9068 48.2824 54.0056 48.3736 54.1095 48.5003C54.2235 48.6447 54.264 48.7486 54.2311 48.8119C54.2159 48.8423 54.1855 48.86 54.1424 48.8702L53.0201 49.1108C52.8985 49.1362 52.706 49.0779 52.4451 48.9335C52.3539 48.8828 52.2804 48.8372 52.2297 48.7992C52.1132 48.7131 52.0195 48.5687 51.9485 48.366H51.946ZM52.5793 48.1507C52.5363 48.2267 52.5287 48.2976 52.554 48.3584C52.6047 48.4674 52.7136 48.589 52.8808 48.7232C52.9315 48.7612 52.9796 48.7916 53.0227 48.817C53.1595 48.8904 53.2887 48.9183 53.4103 48.893C53.4457 48.8854 53.4913 48.8651 53.5471 48.8347C53.5648 48.822 53.5775 48.8094 53.5851 48.7967C53.6433 48.6878 53.5699 48.5662 53.3647 48.4268C53.2583 48.3559 53.1848 48.3128 53.1468 48.29C52.9593 48.1887 52.7972 48.1355 52.6604 48.1304C52.6351 48.1406 52.6072 48.1456 52.5768 48.1507H52.5793Z" fill="white"/>
<path d="M56.7771 57.4007L58.9811 55.3665C59.0925 55.2626 59.1407 55.1537 59.1204 55.0422C59.1027 54.9611 59.0571 54.8497 58.9811 54.7103C58.9608 54.6749 58.9279 54.6141 58.8721 54.5254L59.8272 54.571L62.0033 56.9295L59.4016 59.3311L58.2185 58.9638L60.7291 56.6458L59.7867 55.6249L59.8171 56.053L57.9576 57.7706L56.7771 57.4007Z" fill="white"/>
<path d="M60.5391 60.992C60.5543 61.0528 60.5796 61.1237 60.6277 61.2124C60.6404 61.2377 60.6632 61.2808 60.6961 61.3441L59.8297 61.0655C59.7284 61.0351 59.6575 60.8451 59.6245 60.498C59.5967 60.2193 59.6321 60.0471 59.7335 59.9761L62.1579 58.2383L63.2852 58.75L60.6252 60.6525C60.5289 60.7209 60.4985 60.8349 60.534 60.992H60.5391Z" fill="white"/>
<path d="M61.1319 61.9993L62.0565 62.3388C61.7221 62.6276 61.6664 62.9721 61.8868 63.3749C62.016 63.6054 62.1604 63.7346 62.3175 63.76C62.4315 63.7777 62.5556 63.7498 62.6873 63.6764C63.0116 63.499 63.2624 63.1773 63.4423 62.7162C63.7412 61.9512 63.7741 61.2241 63.5411 60.535C63.5157 60.4692 63.4803 60.3653 63.4347 60.2285L64.4201 60.4768L65.9579 63.2533L64.9445 62.962L64.4885 62.1361C64.4885 62.1792 64.4632 62.2856 64.41 62.4553C64.2175 63.0962 63.916 63.532 63.5081 63.7574C63.3612 63.8385 63.2269 63.8917 63.1003 63.917C62.5531 64.031 61.9324 63.8284 61.2433 63.3141C61.2053 63.2812 61.1775 63.2457 61.1547 63.2077C61.0533 63.0202 61.0128 62.7644 61.0356 62.4376C61.0584 62.1285 61.0888 61.9816 61.1293 61.9968L61.1319 61.9993Z" fill="white"/>
<path d="M39.7784 109.162C21.4041 109.162 6.45239 94.2126 6.45239 75.8358C6.45239 57.459 21.4016 42.5098 39.7784 42.5098C58.1552 42.5098 73.1044 57.459 73.1044 75.8358C73.1044 94.2126 58.1552 109.162 39.7784 109.162ZM39.7784 43.7638C22.0932 43.7638 7.70639 58.1506 7.70639 75.8358C7.70639 93.521 22.0932 107.91 39.7784 107.91C57.4636 107.91 71.8529 93.5235 71.8529 75.8358C71.8529 58.148 57.4661 43.7638 39.7784 43.7638Z" fill="white"/>
<path d="M11.9523 76.4111C11.5368 76.4111 11.1999 76.0741 11.1999 75.6587C11.1999 75.2432 11.5368 74.9062 11.9523 74.9062C12.3677 74.9062 12.7047 75.2457 12.7047 75.6587C12.7047 76.0716 12.3677 76.4111 11.9523 76.4111ZM11.9523 75.0101C11.5951 75.0101 11.3063 75.3015 11.3063 75.6587C11.3063 76.0159 11.5976 76.3047 11.9523 76.3047C12.3069 76.3047 12.6008 76.0159 12.6008 75.6587C12.6008 75.3015 12.3095 75.0101 11.9523 75.0101Z" fill="white"/>
<path d="M13.4267 74.779C13.0872 74.5409 12.654 74.8727 12.654 74.8727H12.6413C12.6413 74.8727 12.6287 74.8575 12.6211 74.8525C12.9757 74.4674 12.5729 73.6973 12.5729 73.6973C12.3399 73.3401 12.0283 72.4863 12.0283 72.4863C11.9725 72.8157 11.3392 73.7251 11.3392 73.7251C10.8984 74.4649 11.2987 74.8373 11.2987 74.8373C11.3063 74.8347 11.3139 74.8322 11.3215 74.8297C11.3063 74.8423 11.2911 74.8525 11.2784 74.8651C11.1695 74.7967 10.7768 74.5789 10.4855 74.7815C10.4855 74.7815 9.71278 75.5643 9.40372 75.6657C9.40372 75.6657 9.72292 75.8303 10.1764 76.2002C10.1764 76.2002 10.7363 76.8386 11.2277 76.413C11.2328 76.4181 11.2404 76.4231 11.248 76.4307C11.2024 76.4915 10.9364 76.8791 11.3392 77.5581C11.3392 77.5581 11.9751 78.4675 12.0283 78.7969C12.0283 78.7969 12.3399 77.9431 12.5729 77.5859C12.5729 77.5859 13.0391 76.8031 12.6819 76.4181C12.6819 76.4181 12.6844 76.4181 12.6844 76.4155C13.1759 76.8411 13.7357 76.2027 13.7357 76.2027C14.1892 75.8329 14.5084 75.6682 14.5084 75.6682C14.1993 75.5643 13.4267 74.7841 13.4267 74.7841V74.779ZM11.9548 76.603C11.4329 76.603 11.0099 76.1799 11.0099 75.6581C11.0099 75.1362 11.4355 74.7131 11.9548 74.7131C12.4741 74.7131 12.8997 75.1387 12.8997 75.6581C12.8997 76.1774 12.4767 76.603 11.9548 76.603Z" fill="white"/>
<path d="M67.3031 76.4111C66.8876 76.4111 66.5507 76.0741 66.5507 75.6587C66.5507 75.2432 66.8876 74.9062 67.3031 74.9062C67.7185 74.9062 68.0555 75.2457 68.0555 75.6587C68.0555 76.0716 67.7185 76.4111 67.3031 76.4111ZM67.3031 75.0101C66.9459 75.0101 66.6571 75.3015 66.6571 75.6587C66.6571 76.0159 66.9484 76.3047 67.3031 76.3047C67.6577 76.3047 67.9516 76.0159 67.9516 75.6587C67.9516 75.3015 67.6603 75.0101 67.3031 75.0101Z" fill="white"/>
<path d="M68.7749 74.779C68.4355 74.5409 68.0022 74.8727 68.0022 74.8727H67.9896C67.9896 74.8727 67.9744 74.8575 67.9693 74.8525C68.324 74.4674 67.9212 73.6973 67.9212 73.6973C67.6881 73.3401 67.3765 72.4863 67.3765 72.4863C67.3208 72.8157 66.6874 73.7251 66.6874 73.7251C66.2466 74.4649 66.6469 74.8373 66.6469 74.8373C66.6545 74.8347 66.6621 74.8322 66.6697 74.8297C66.6545 74.8423 66.6393 74.8525 66.6266 74.8651C66.5177 74.7967 66.125 74.5789 65.8337 74.7815C65.8337 74.7815 65.0611 75.5643 64.752 75.6657C64.752 75.6657 65.0712 75.8303 65.5246 76.2002C65.5246 76.2002 66.0845 76.8386 66.576 76.413C66.581 76.4181 66.5886 76.4231 66.5962 76.4307C66.5507 76.4915 66.2846 76.8791 66.6874 77.5581C66.6874 77.5581 67.3233 78.4675 67.3765 78.7969C67.3765 78.7969 67.6881 77.9431 67.9212 77.5859C67.9212 77.5859 68.3873 76.8031 68.0301 76.4181C68.0301 76.4181 68.0326 76.4181 68.0326 76.4155C68.5241 76.8411 69.084 76.2027 69.084 76.2027C69.5375 75.8329 69.8566 75.6682 69.8566 75.6682C69.5476 75.5643 68.7749 74.7841 68.7749 74.7841V74.779ZM67.3031 76.603C66.7812 76.603 66.3581 76.1799 66.3581 75.6581C66.3581 75.1362 66.7837 74.7131 67.3031 74.7131C67.8224 74.7131 68.248 75.1387 68.248 75.6581C68.248 76.1774 67.8249 76.603 67.3031 76.603Z" fill="white"/>
<path d="M39.4643 98.6554C26.79 98.6554 16.4793 88.3448 16.4793 75.6705C16.4793 62.9962 26.79 52.6855 39.4643 52.6855C52.1385 52.6855 62.4492 62.9962 62.4492 75.6705C62.4492 88.3448 52.1385 98.6554 39.4643 98.6554ZM39.4643 53.7394C27.3701 53.7394 17.5332 63.5764 17.5332 75.6705C17.5332 87.7646 27.3727 97.6015 39.4643 97.6015C51.5559 97.6015 61.3953 87.7646 61.3953 75.6705C61.3953 63.5764 51.5559 53.7394 39.4643 53.7394Z" fill="white"/>
<path d="M34.3039 88.5602C34.3039 88.5602 33.1512 88.8769 33.0144 90.5641C33.0144 90.5641 32.9865 92.2589 34.3875 93.2418C34.3875 93.2418 35.3552 93.9588 36.1177 93.8726C36.1177 93.8726 36.9284 94.0373 37.6403 92.2944C37.6403 92.2944 38.038 91.0328 38.0253 89.9612L38.2584 90.2348C38.2584 90.2348 38.19 92.6516 37.1336 93.6801C37.1336 93.6801 36.5712 94.7238 34.922 93.8726C34.922 93.8726 32.9181 93.0898 32.8497 90.6198C32.8497 90.6198 32.8649 88.7806 34.3469 88.3398C34.3469 88.3398 34.3748 88.4766 34.3064 88.5602H34.3039Z" fill="white"/>
<path d="M44.8577 83.3262C44.8577 83.3262 42.8387 83.4402 42.3345 85.4364C42.3345 85.4364 42.066 86.2902 42.4992 87.4656C42.4992 87.4656 42.8792 88.6816 42.5296 89.4214C42.5296 89.4214 43.6924 89.1123 43.8368 87.795C43.8368 87.795 43.9913 87.2706 43.7861 85.6948C43.7861 85.6948 43.7557 84.3674 44.9692 83.924L44.8552 83.3262H44.8577Z" fill="white"/>
<path d="M48.3487 84.7473L47.9459 84.1494C47.9459 84.1494 48.5817 83.5693 48.4373 82.675C48.4373 82.675 48.3436 82.0164 47.7989 82.0366C47.7989 82.0366 47.006 82.0974 47.3353 83.0854C47.3353 83.0854 46.1725 82.9208 46.0991 81.6845C46.0991 81.6845 46.1295 80.965 46.5728 80.7168C46.5728 80.7168 47.0769 80.3368 47.4696 80.5926C47.4696 80.5926 47.2441 79.7186 48.3563 78.6268C48.3563 78.6268 49.0656 77.7502 49.818 77.5957C49.818 77.5957 49.4152 77.8237 49.21 78.4292C49.21 78.4292 49.0555 78.799 49.1695 79.7161C49.1695 79.7161 49.2835 80.623 48.7464 81.0537C48.7464 81.0537 48.8173 81.188 49.1264 80.775C49.1264 80.775 49.3316 80.4457 49.6001 80.5268C49.6001 80.5268 49.2505 80.5673 49.3721 81.3906C49.3721 81.3906 49.6711 82.3381 49.3417 83.2754C49.3417 83.2754 48.9643 84.1216 48.3461 84.7397L48.3487 84.7473Z" fill="white"/>
<path d="M47.3581 77.4278C47.3581 77.4278 48.0371 75.3961 47.0288 73.296C47.0288 73.296 47.1251 74.132 46.7121 74.7501C46.7121 74.7501 46.1371 75.5456 46.1219 75.918C46.1219 75.918 46.1219 75.5481 45.6836 75.2872C45.6836 75.2872 45.8483 75.6722 45.5468 75.8622C45.5468 75.8622 45.1212 76.4525 45.1364 76.8376C45.1364 76.8376 45.1212 77.3721 45.3821 77.6204C45.3821 77.6204 45.41 77.0428 45.8204 77.058C45.8204 77.058 46.2891 77.0985 46.2587 77.8281C46.2587 77.8281 46.1067 78.7072 45.6811 79.3532C45.6811 79.3532 45.6127 78.7629 45.1592 78.2968C45.1592 78.2968 44.5816 77.8838 44.0876 78.1321C44.0876 78.1321 44.08 76.8325 44.3916 75.8546C44.3916 75.8546 44.7336 74.7982 45.5569 74.7425C45.5569 74.7425 45.9699 74.8109 46.0915 75.2086C46.0915 75.2086 46.0965 74.968 46.3651 74.4841C46.3651 74.4841 47.0972 73.3213 45.9952 70.5625C45.9952 70.5625 46.0915 71.5176 45.7621 72.1484C45.7621 72.1484 45.3796 72.9033 45.5696 73.2605C45.5696 73.2605 45.7064 73.6304 45.3644 73.8381C45.3644 73.8381 45.4328 73.5088 45.144 73.1237C45.144 73.1237 45.2276 73.4809 45.0908 73.5772C45.0908 73.5772 44.5132 74.1801 44.4043 74.5525C44.4043 74.5525 43.5809 73.4961 41.1515 73.2073L41.2756 73.5924C41.2756 73.5924 42.2636 73.6734 42.9501 74.2105C42.9501 74.2105 43.1984 74.6234 43.0591 75.0212C43.0591 75.0212 43.6493 75.2821 43.7304 75.9686C43.7304 75.9686 43.7709 76.944 43.7709 77.7394C43.7709 77.7394 43.852 79.2493 43.2769 79.8674C43.2769 79.8674 43.1528 80.0042 42.9755 80.06C42.9755 80.06 42.7297 80.141 42.8108 80.3336C42.8108 80.3336 42.8792 80.6224 43.168 80.5109C43.168 80.5109 43.6468 80.2905 43.9508 79.4114C43.9508 79.4114 44.1307 78.8617 44.1028 78.4513C44.1028 78.4513 44.6095 78.1346 45.0097 78.7122C45.0097 78.7122 45.3391 79.3025 45.2301 79.989C45.2301 79.989 45.0781 81.0328 44.954 81.6509C44.954 81.6509 44.6424 82.8821 44.9565 84.0626C44.9565 84.0626 45.1871 85.1621 46.2587 85.3977C46.2587 85.3977 46.6843 85.5497 47.0693 85.342C47.0693 85.342 47.0592 85.0785 46.8109 84.8657C46.8109 84.8657 45.5544 85.1241 45.3492 83.7637C45.3492 83.7637 44.9261 82.1474 45.9141 80.3462C45.9141 80.3462 46.9959 78.6362 47.3556 77.4354L47.3581 77.4278ZM43.9508 75.3961C43.9508 75.3961 43.7963 74.973 43.4568 74.7374C43.4568 74.7374 43.4973 74.4284 43.396 74.2333C43.396 74.2333 43.9001 74.4588 44.1889 74.8514C44.1889 74.8514 43.9533 75.2112 43.9533 75.3961H43.9508Z" fill="white"/>
<path d="M30.4101 84.6719L30.9143 84.0841C30.9143 84.0841 30.3063 83.5699 30.4507 82.6731C30.4507 82.6731 30.5444 82.0144 31.0891 82.0347C31.0891 82.0347 31.882 82.0955 31.5527 83.0835C31.5527 83.0835 32.7155 82.9188 32.7889 81.6825C32.7889 81.6825 32.7585 80.9631 32.3152 80.7148C32.3152 80.7148 31.8111 80.3348 31.4184 80.5907C31.4184 80.5907 31.6439 79.7167 30.5343 78.6248C30.5343 78.6248 29.8224 77.7483 29.0725 77.5938C29.0725 77.5938 29.4753 77.8217 29.6805 78.4272C29.6805 78.4272 29.8351 78.7971 29.7211 79.7141C29.7211 79.7141 29.6071 80.6211 30.1441 81.0517C30.1441 81.0517 30.0732 81.186 29.7641 80.7731C29.7641 80.7731 29.5589 80.4437 29.2904 80.5248C29.2904 80.5248 29.64 80.5653 29.5184 81.3887C29.5184 81.3887 29.2195 82.3361 29.5488 83.2735C29.5488 83.2735 29.7971 84.0461 30.4152 84.6617L30.4101 84.6719Z" fill="white"/>
<path d="M32.9739 80.3365C33.9619 82.1377 33.5413 83.7539 33.5413 83.7539C33.3361 85.1118 32.11 84.8863 32.11 84.8863C31.8617 85.0991 31.8212 85.3322 31.8212 85.3322C32.2063 85.5374 32.6319 85.3879 32.6319 85.3879C33.7035 85.1523 33.9315 84.0529 33.9315 84.0529C34.2481 82.8723 33.934 81.6411 33.934 81.6411C33.8099 81.023 33.6579 79.9793 33.6579 79.9793C33.5489 79.2927 33.8783 78.7025 33.8783 78.7025C34.276 78.1249 34.7852 78.4415 34.7852 78.4415C34.7573 78.8519 34.9372 79.4017 34.9372 79.4017C35.2387 80.2807 35.72 80.5011 35.72 80.5011C36.0088 80.6101 36.0772 80.3238 36.0772 80.3238C36.1583 80.1313 35.9125 80.0502 35.9125 80.0502C35.7327 79.9945 35.6111 79.8577 35.6111 79.8577C35.036 79.2395 35.1171 77.7297 35.1171 77.7297C35.1171 76.9342 35.1576 75.9589 35.1576 75.9589C35.2387 75.2723 35.8289 75.0114 35.8289 75.0114C35.6921 74.6137 35.9379 74.2007 35.9379 74.2007C36.6244 73.6662 37.6783 73.5826 37.6783 73.5826L37.8024 73.1975C35.3729 73.4863 34.4812 74.5427 34.4812 74.5427C34.3723 74.1729 33.7947 73.5674 33.7947 73.5674C33.6579 73.4711 33.7389 73.1139 33.7389 73.1139C33.4501 73.499 33.5185 73.8283 33.5185 73.8283C33.174 73.6231 33.3133 73.2507 33.3133 73.2507C33.5059 72.8935 33.1208 72.1386 33.1208 72.1386C32.7915 71.5078 32.8877 70.5527 32.8877 70.5527C31.7857 73.3115 32.5179 74.4743 32.5179 74.4743C32.7864 74.9582 32.7915 75.1989 32.7915 75.1989C32.9156 74.8011 33.326 74.7327 33.326 74.7327C34.1493 74.7885 34.4913 75.8449 34.4913 75.8449C34.8004 76.8227 34.7928 78.1223 34.7928 78.1223C34.2988 77.8766 33.7212 78.287 33.7212 78.287C33.2677 78.7531 33.1993 79.3434 33.1993 79.3434C32.7737 78.6974 32.6217 77.8183 32.6217 77.8183C32.5939 77.0913 33.0625 77.0482 33.0625 77.0482C33.4729 77.0355 33.5008 77.6106 33.5008 77.6106C33.7617 77.3649 33.7465 76.8278 33.7465 76.8278C33.7592 76.4427 33.3336 75.8525 33.3336 75.8525C33.0321 75.6599 33.1968 75.2774 33.1968 75.2774C32.756 75.5383 32.756 75.9082 32.756 75.9082C32.7433 75.5383 32.1657 74.7403 32.1657 74.7403C31.7528 74.1222 31.8491 73.2862 31.8491 73.2862C30.8408 75.3863 31.5197 77.4181 31.5197 77.4181C31.8795 78.6189 32.9612 80.3289 32.9612 80.3289L32.9739 80.3365ZM34.7041 74.8493C34.9929 74.4566 35.4971 74.2311 35.4971 74.2311C35.3932 74.4262 35.4363 74.7353 35.4363 74.7353C35.0968 74.9709 34.9423 75.3939 34.9423 75.3939C34.9423 75.209 34.7041 74.8493 34.7041 74.8493Z" fill="white"/>
<path d="M39.8772 55.0237C39.8772 55.2365 39.7049 55.4088 39.4921 55.4088C39.2793 55.4088 39.1071 55.2365 39.1071 55.0237C39.1071 54.8109 39.2793 54.6387 39.4921 54.6387C39.7049 54.6387 39.8772 54.8109 39.8772 55.0237Z" fill="white"/>
<path d="M39.4921 55.5742C39.4921 55.5742 39.9456 57.948 40.0697 58.7738C40.0697 58.7738 39.672 59.131 39.4795 59.3489C39.4795 59.3489 39.0969 58.9233 38.836 58.8144C38.836 58.8144 39.0564 57.5933 39.4947 55.5742H39.4921Z" fill="white"/>
<path d="M33.1537 89.784C33.1537 89.784 34.3368 89.8043 34.77 88.568C34.77 88.568 34.9651 87.9397 34.4913 87.3621C34.4913 87.3621 34.0176 86.8783 33.3893 87.0531C33.3893 87.0531 33.8124 86.3437 34.542 86.4881C34.542 86.4881 35.4059 86.6325 35.6744 87.7447C35.6744 87.7447 35.8695 88.8872 35.2513 89.5459C35.2513 89.5459 34.4179 90.7492 32.9865 90.544L33.1512 89.7815L33.1537 89.784Z" fill="white"/>
<path d="M45.0503 84.3226C45.0503 84.3226 44.3308 84.6418 44.3181 85.7843C44.3181 85.7843 44.3789 86.443 44.4423 86.9269C44.4423 86.9269 44.5791 87.9706 44.1535 88.6267C44.1535 88.6267 43.7532 89.2955 42.9704 89.7085C42.9704 89.7085 42.2079 90.0783 41.7645 90.1721C41.7645 90.1721 41.9292 89.7997 42.0432 89.4602C42.0432 89.4602 42.3016 88.8015 42.0128 87.7933C42.0128 87.7933 41.8988 87.3905 41.7975 86.8661C41.7975 86.8661 41.4377 85.7033 42.0964 84.5506C42.0964 84.5506 42.8691 83.0053 44.8147 82.9141V83.1345C44.8147 83.1345 43.4492 83.1345 42.408 84.4417C42.408 84.4417 41.8633 85.3157 41.9444 86.2733C41.9444 86.2733 42.0888 87.1169 42.2129 87.6843C42.2129 87.6843 42.5625 89.2069 42.1091 89.8149C42.1091 89.8149 43.0667 89.6705 43.8697 88.6419C43.8697 88.6419 44.3637 87.9731 44.2396 87.0054C44.2396 87.0054 44.0851 86.139 44.1155 85.5842C44.1155 85.5842 44.2497 84.4721 45.0224 84.1225L45.0503 84.3251V84.3226Z" fill="white"/>
<path d="M33.2449 89.5658C33.2449 89.5658 34.1519 89.5152 34.4913 88.5778C34.4913 88.5778 34.7599 87.7545 34.0708 87.3618C34.0708 87.3618 33.5236 87.1465 33.1031 87.3112C33.1031 87.3112 33.174 86.3536 34.2659 86.2193C34.2659 86.2193 35.4692 86.2092 35.8821 87.4125C35.8821 87.4125 36.1912 88.2764 35.758 89.2669C35.758 89.2669 34.9651 90.9034 32.9992 90.7388L33.0195 90.9237C33.0195 90.9237 34.5699 91.1669 35.6009 89.88C35.6009 89.88 36.5687 88.8818 36.0544 87.2554C36.0544 87.2554 35.4869 85.9685 34.2431 86.0724C34.2431 86.0724 32.9055 86.0825 32.8928 87.605C32.8928 87.605 33.6857 87.225 34.0987 87.6557C34.0987 87.6557 34.6484 88.1421 34.1215 88.8844C34.1215 88.8844 33.6376 89.3885 33.3083 89.3784L33.2475 89.5633L33.2449 89.5658Z" fill="white"/>
<path d="M32.3405 89.165C32.3405 89.165 31.4311 88.6051 31.2765 87.1231C31.2765 87.1231 31.1321 85.5879 32.7687 84.6329C32.7687 84.6329 34.3545 83.8399 35.7225 84.7165C35.7225 84.7165 36.9056 85.3853 37.5769 86.7431C37.5769 86.7431 37.886 87.2371 38.0304 88.4937L38.2888 88.7419C38.2888 88.7419 38.2609 87.2118 37.2831 85.9553C37.2831 85.9553 36.3153 84.4099 34.6155 84.111C34.6155 84.111 33.4425 83.9261 32.4748 84.5239C32.4748 84.5239 31.312 85.1623 31.084 86.6646C31.084 86.6646 30.8256 88.1998 32.2443 89.3601L32.3405 89.1675V89.165Z" fill="white"/>
<path d="M34.3723 88.2298C34.3723 88.2298 33.0929 88.3919 32.7383 90.0563C32.7383 90.0563 32.4621 91.2647 33.2044 92.5542C33.2044 92.5542 33.9999 94.0109 35.6339 94.4086C35.6339 94.4086 36.594 94.6138 37.1032 94.0641C37.1032 94.0641 38.0785 93.3775 38.3927 91.4826C38.3927 91.4826 38.5573 90.7403 38.5168 90.4667C38.5168 90.4667 39.4491 91.703 39.6568 92.2375C39.6568 92.2375 39.5327 93.527 38.5168 94.9558C38.5168 94.9558 37.6504 96.2174 36.2925 95.7665C36.2925 95.7665 34.4255 95.313 32.9561 93.1571C32.9561 93.1571 32.1353 91.9158 32.2696 90.6162C32.2696 90.6162 32.2291 89.3546 33.2323 88.4755C33.2323 88.4755 33.8757 87.941 34.3292 87.9258L34.3697 88.2272L34.3723 88.2298Z" fill="white"/>
<path d="M36.1152 87.5596C36.1152 87.5596 37.2273 87.6964 38.4205 88.7807C38.4205 88.7807 39.7784 90.0296 40.5207 90.853C40.5207 90.853 41.7696 92.2792 42.0989 92.5959C42.0989 92.5959 42.5524 93.0772 42.7855 93.0772C42.7855 93.0772 43.0059 93.214 44.3511 91.9246C44.3511 91.9246 45.6279 90.744 46.3955 89.0011C46.3955 89.0011 47.1783 87.547 47.2061 86.298C47.2061 86.298 47.2644 85.0136 46.5221 84.5703C46.5221 84.5703 46.018 84.1903 45.4505 84.1903L45.372 84.0484C45.372 84.0484 45.866 83.8939 46.7197 84.512C46.7197 84.512 47.4088 85.1099 47.3885 86.1587C47.3885 86.1587 47.4493 87.3646 46.4715 89.3102C46.4715 89.3102 45.6481 90.8758 44.8653 91.7092C44.8653 91.7092 43.4112 93.3939 42.7931 93.3534C42.7931 93.3534 42.6081 93.3736 42.2459 93.1178C42.2459 93.1178 42.0837 92.9354 40.7765 91.4027C40.7765 91.4027 39.8493 90.2602 39.0361 89.5078C39.0361 89.5078 37.6985 88.345 37.2957 88.1904C37.2957 88.1904 36.4623 87.6863 36.1025 87.737L36.1101 87.5622L36.1152 87.5596Z" fill="white"/>
<path d="M45.2605 83.3049C45.2605 83.3049 46.6083 83.2644 47.4316 84.2726C47.4316 84.2726 48.2549 85.1061 48.2651 86.6818C48.2651 86.6818 48.2853 88.0524 47.6571 89.5749C47.6571 89.5749 46.9883 91.295 46.1751 92.2628C46.1751 92.2628 44.8983 93.9424 44.1585 94.558C44.1585 94.558 43.2415 95.3712 42.8184 95.5358C42.8184 95.5358 42.3548 95.8246 41.6961 95.0925C41.6961 95.0925 41.3769 94.7936 40.964 93.7853C40.964 93.7853 40.1508 92.1589 39.2439 90.801C39.2439 90.801 37.7289 88.8124 36.1456 88.4425L36.1963 87.9384C36.1963 87.9384 37.3287 88.103 38.646 89.4204C38.646 89.4204 39.6847 90.3273 40.5105 91.4394C40.5105 91.4394 41.3744 92.582 41.7265 92.9949C41.7265 92.9949 42.2307 93.613 42.6537 93.6232C42.6537 93.6232 43.1984 93.7777 44.2396 92.7593C44.2396 92.7593 45.5772 91.5661 46.3701 90.0917C46.3701 90.0917 47.2365 88.7946 47.5431 87.1378C47.5431 87.1378 47.9129 85.8002 47.234 84.7793C47.234 84.7793 46.7907 83.956 45.3289 83.8318L45.258 83.3074L45.2605 83.3049Z" fill="white"/>
<path d="M45.1947 82.9013C45.1947 82.9013 46.3575 82.8405 47.4189 83.6943C47.4189 83.6943 48.298 84.4188 48.5007 85.3308C48.5007 85.3308 48.8908 86.2377 48.6349 87.8337C48.6349 87.8337 48.374 89.6603 47.3303 91.3196C47.3303 91.3196 46.3549 92.9663 45.7241 93.6807C45.7241 93.6807 44.8045 94.7649 43.8976 95.4641C43.8976 95.4641 43.0945 96.1912 42.5777 96.1304C42.5777 96.1304 41.6809 96.2317 40.8905 94.8333C40.8905 94.8333 40.3357 93.7009 40.0241 93.0423C40.0241 93.0423 39.292 91.5805 38.418 90.4684C38.418 90.4684 37.6453 89.3259 36.1127 88.7913L36.1051 88.6089C36.1051 88.6089 37.2375 88.8977 38.2989 90.02C39.3097 91.1625 39.2059 91.2461 39.7607 92.1201C39.7607 92.1201 40.3383 93.1183 40.5941 93.7364C40.5941 93.7364 40.9133 94.3545 41.1388 94.7548C41.1388 94.7548 41.572 95.5275 42.0964 95.7631C42.0964 95.7631 42.5397 96.062 43.1579 95.7225C43.1579 95.7225 44.0648 95.188 45.3517 93.7769C45.3517 93.7769 46.2485 92.7889 47.2771 91.0181C47.2771 91.0181 47.9763 89.7717 48.3385 88.1555C48.3385 88.1555 48.8123 86.6101 48.2245 85.1585C48.2245 85.1585 47.8344 84.1503 47.0187 83.6233C47.0187 83.6233 46.1117 83.0685 45.1972 83.0888V82.9013H45.1947Z" fill="white"/>
<path d="M34.2481 87.764C34.2481 87.764 32.9992 88.0655 32.4495 89.2055C32.4495 89.2055 31.8187 90.2898 32.2291 91.9111C32.2291 91.9111 32.6825 93.3804 33.8225 94.4774C33.8225 94.4774 35.2868 95.9543 37.0069 96.043C37.0069 96.043 37.9164 95.9847 38.5041 95.3159C38.5041 95.3159 39.3148 94.4926 39.8493 92.7218L39.9659 92.8915C39.9659 92.8915 39.6264 94.1075 38.6485 95.3514C38.6485 95.3514 38.0709 96.2178 36.9385 96.1848C36.9385 96.1848 36.0417 96.2583 34.7675 95.3818C34.7675 95.3818 33.1512 94.485 32.3684 92.623C32.3684 92.623 31.8339 91.6147 31.9453 90.5228C31.9453 90.5228 32.0365 89.0408 33.0575 88.258C33.0575 88.258 33.5717 87.7944 34.2 87.6602L34.2481 87.7666V87.764Z" fill="white"/>
<path d="M38.5776 88.9571C38.5776 88.9571 38.6587 87.3966 37.3008 85.5295C37.3008 85.5295 36.6168 84.5542 35.2716 84.0475C35.2716 84.0475 34.1316 83.6498 33.0879 83.9664C33.0879 83.9664 31.9757 84.1944 31.1929 85.4586C31.1929 85.4586 30.5951 86.5302 30.894 87.7234C30.894 87.7234 31.1524 88.8963 32.1708 89.5347L32.0061 90.2136C32.0061 90.2136 30.8003 89.7374 30.3696 88.2883C30.3696 88.2883 29.7895 86.7582 30.4633 85.3446C30.4633 85.3446 31.4184 83.3838 33.4349 83.2748C33.4349 83.2748 34.7092 82.8518 36.67 84.2527C36.67 84.2527 37.9797 85.1216 38.7904 86.5479C38.7904 86.5479 40.0267 88.6987 39.8519 90.1832L38.5751 88.9571H38.5776Z" fill="white"/>
<path d="M32.0188 90.3987C32.0188 90.3987 30.628 89.9858 30.0732 88.0655C30.0732 88.0655 29.5894 86.8166 30.1644 85.3751C30.1644 85.3751 30.8003 83.7006 32.4875 83.2471C32.4875 83.2471 34.2482 82.6543 35.6618 83.4092C35.6618 83.4092 37.2071 84.1084 38.4535 85.6234C38.4535 85.6234 39.2844 86.5683 39.9558 88.4759C39.9558 88.4759 40.3028 89.778 40.2344 90.6698L40.4371 90.8826C40.4371 90.8826 40.6702 88.4936 38.8994 85.9958C38.8994 85.9958 37.7872 84.0198 35.2894 83.1002C35.2894 83.1002 33.9746 82.5276 32.2139 83.1002C32.2139 83.1002 30.1138 83.7588 29.7008 86.2162C29.7008 86.2162 29.3841 87.7818 30.3595 89.2638C30.3595 89.2638 31.0663 90.424 31.9859 90.5887L32.0163 90.4038L32.0188 90.3987Z" fill="white"/>
<path d="M39.4617 59.9419C39.4617 59.9419 39.4997 59.6125 40.0951 59.2832C40.0951 59.2832 40.3788 59.1489 40.4928 58.9336C40.4928 58.9336 40.66 59.7975 40.1888 60.2307C40.1888 60.2307 39.7455 60.7044 39.4845 61.2187L39.4643 59.9419H39.4617Z" fill="white"/>
<path d="M39.4719 59.9419C39.4719 59.9419 39.444 59.6125 38.8461 59.2832C38.8461 59.2832 38.5649 59.1489 38.4484 58.9336C38.4484 58.9336 38.2812 59.7975 38.7524 60.2307C38.7524 60.2307 39.2185 60.7044 39.482 61.2187L39.4719 59.9419Z" fill="white"/>
<path d="M37.9569 61.2083H39.1096C39.1096 61.2083 38.8512 60.6206 38.2457 60.1367C38.2457 60.1367 38.4307 60.7245 37.9569 61.2083Z" fill="white"/>
<path d="M41.0147 61.2083H39.862C39.862 61.2083 40.1204 60.6206 40.7259 60.1367C40.7259 60.1367 40.5409 60.7245 41.0147 61.2083Z" fill="white"/>
<path opacity="0.99" d="M41.268 61.5176H37.6757C37.4173 61.5176 37.2071 61.7278 37.2071 61.9862C37.2071 62.2446 37.4173 62.4549 37.6757 62.4549H41.268C41.5264 62.4549 41.7367 62.2446 41.7367 61.9862C41.7367 61.7278 41.5264 61.5176 41.268 61.5176ZM37.734 62.1965C37.734 62.1965 37.2501 61.971 37.7543 61.7025L38.4332 61.7228C38.4332 61.7228 38.1976 62.0318 38.4839 62.1965H37.7315H37.734ZM39.9709 62.2066H38.9728C38.8335 62.2066 38.7195 62.0926 38.7195 61.9533C38.7195 61.814 38.8335 61.7 38.9728 61.7H39.9709C40.1103 61.7 40.2243 61.8114 40.2243 61.9533C40.2243 62.0952 40.1103 62.2066 39.9709 62.2066ZM41.2021 62.1965H40.4497C40.7385 62.0318 40.5004 61.7228 40.5004 61.7228L41.1793 61.7025C41.6835 61.971 41.1996 62.1965 41.1996 62.1965H41.2021Z" fill="white"/>
<path d="M37.6276 62.6289H39.2033C39.2033 62.6289 38.6055 63.3382 38.3597 63.7816C38.3597 63.7816 38.2888 63.4624 38.1444 63.2673C38.1444 63.2673 37.6707 62.7328 37.6301 62.6289H37.6276Z" fill="white"/>
<path d="M41.2123 62.6598L39.6365 62.6016C39.6365 62.6016 40.2065 63.3337 40.4371 63.7846C40.4371 63.7846 40.5207 63.468 40.6727 63.278C40.6727 63.278 41.1667 62.7612 41.2123 62.6598Z" fill="white"/>
<path d="M38.9525 82.0195H39.8215C39.8215 82.0195 39.8949 82.1665 39.7657 82.2045V82.5465C39.7657 82.5465 39.6999 82.6681 39.6365 82.6681H39.0995C39.0995 82.6681 39.0057 82.6123 39.0159 82.5186V82.1766C39.0159 82.1766 38.8765 82.1487 38.95 82.0195H38.9525Z" fill="white"/>
<path d="M39.1096 82.7695H39.6289L39.6467 82.9089C39.6467 82.9089 39.8215 83.0102 39.7201 83.2889C39.7201 83.2889 39.4237 83.945 39.3781 84.0007C39.3781 84.0007 39.064 83.4358 38.9905 83.1217C38.9905 83.1217 38.9829 82.9823 39.0919 82.8987L39.1096 82.7695Z" fill="white"/>
<path d="M39.7683 79.7812H39.0463V80.2449H39.7683V79.7812Z" fill="white"/>
<path d="M37.7695 78.0623C37.7695 78.0623 37.4553 78.4878 37.5845 79.3948C37.5845 79.3948 37.696 80.2283 38.6561 80.6893C38.6561 80.6893 39.8037 81.1884 40.6727 80.3752C40.6727 80.3752 41.7823 79.4505 41.116 78.1357C41.116 78.1357 41.5036 77.6366 41.2832 76.6562C41.2832 76.6562 41.5416 76.9147 41.5416 77.396C41.5416 77.396 41.6885 77.1731 41.6353 76.8969C41.6353 76.8969 41.9875 77.1376 41.9672 77.6569C41.9672 77.6569 41.9495 77.9711 41.4504 78.3789C41.4504 78.3789 41.3491 78.7665 41.6125 78.6424C41.6125 78.6424 42.2383 78.1864 42.2231 77.7279C42.2231 77.7279 42.6689 78.3232 42.446 78.769C42.446 78.769 42.2383 79.1997 42.0989 79.2808C42.0989 79.2808 42.3624 79.296 42.4587 79.0173C42.4587 79.0173 42.6385 79.7951 41.6657 79.9192C41.6657 79.9192 41.3617 79.9876 41.2351 79.9344C41.2351 79.9344 41.0552 80.1142 41.2199 80.17C41.2199 80.17 41.7189 80.4056 42.2889 80.018C42.2889 80.018 42.1217 80.6843 41.6227 80.9756C41.6227 80.9756 41.3871 81.044 41.1641 81.0035C41.1641 81.0035 41.2883 81.196 41.5517 81.1428C41.5517 81.1428 41.2604 81.657 40.7487 81.4772C40.7487 81.4772 40.3053 81.2973 40.0672 80.9072C40.0672 80.9072 39.7911 80.8514 39.8468 81.1276C39.8468 81.1276 39.9988 81.6266 40.6929 81.6976C40.6929 81.6976 40.2496 82.0852 39.6948 81.9611C39.6948 81.9611 39.3883 81.8648 39.1957 81.5583C39.1957 81.5583 39.2109 81.8344 39.3351 81.9737C39.3351 81.9737 38.9323 82.0421 38.5573 81.3759C38.5573 81.3759 38.4611 81.1251 38.5573 80.8768C38.5573 80.8768 38.5016 80.6007 38.2787 80.8059C38.2787 80.8059 38.0431 81.1402 38.418 81.7913C38.418 81.7913 37.2932 81.5836 37.4604 80.7501C37.4604 80.7501 37.2932 80.9173 37.2932 81.1656C37.2932 81.1656 36.8347 80.6944 37.0981 80.0838C37.0981 80.0838 37.2932 79.681 37.4883 79.638C37.4883 79.638 37.5009 79.3745 37.3337 79.4151C37.3337 79.4151 36.7105 79.7216 36.6827 80.4132C36.6827 80.4132 36.0291 79.4986 36.7105 78.8172C36.7105 78.8172 36.4065 78.8856 36.3229 79.0528C36.3229 79.0528 36.3356 78.1231 36.9613 78.0673C36.9613 78.0673 37.3363 78.0547 37.4477 78.2345C37.4477 78.2345 37.6428 78.0825 37.4756 77.928C37.4756 77.928 37.0323 77.5252 36.5611 77.9407C36.5611 77.9407 36.7004 77.1351 37.392 76.9983C37.392 76.9983 37.6276 77.0819 37.5997 77.3859C37.5997 77.3859 37.5313 77.7962 37.7669 78.0572L37.7695 78.0623Z" fill="white"/>
<path d="M37.8252 78.3203C37.8252 78.3203 37.6048 78.903 37.7847 79.4299C37.7847 79.4299 37.9924 80.3039 39.0209 80.6231C39.0209 80.6231 40.0469 80.803 40.6448 80.0962C40.6448 80.0962 41.3516 79.5008 41.0324 78.4039L40.7968 78.6116C40.7968 78.6116 40.8981 79.245 40.546 79.7339C40.546 79.7339 40.1305 80.3723 39.4364 80.3596C39.4364 80.3596 38.6181 80.3875 38.1317 79.5414C38.1317 79.5414 37.9367 78.9866 38.0481 78.5838L37.8252 78.3203Z" fill="white"/>
<path d="M39.1172 79.6369H39.7125C39.7125 79.6369 39.8139 79.5761 39.824 79.4672V79.2265C39.824 79.2265 39.862 79.0137 40.2217 78.8389C40.2217 78.8389 40.7132 78.6084 40.8779 78.3854C40.8779 78.3854 41.1135 78.2081 41.1565 77.7394C41.1565 77.7394 41.3085 77.628 41.1844 77.5874H40.6017C40.6017 77.5874 40.6575 78.0029 40.1989 78.0865C40.1989 78.0865 39.7835 78.0713 39.7277 77.7673V77.324C39.7277 77.324 39.7784 77.3341 39.824 77.286C39.824 77.286 39.8797 77.1745 39.7961 77.1289H39.1121C39.1121 77.1289 39.0209 77.1669 39.0387 77.2125C39.0387 77.2125 39.0209 77.3062 39.1299 77.3316V77.785C39.1299 77.785 39.0665 78.0814 38.6764 78.0992C38.6764 78.0992 38.3065 78.0612 38.3167 77.6001H37.6783C37.6783 77.6001 37.6225 77.7116 37.734 77.7293C37.734 77.7293 37.7897 78.3297 38.3623 78.6717C38.3623 78.6717 38.5193 78.7452 38.6764 78.8009C38.6764 78.8009 39.0209 78.8845 39.0387 79.2265L39.0463 79.5305C39.0463 79.5305 39.0463 79.5862 39.1172 79.6369Z" fill="white"/>
<path d="M37.5668 76.9501L37.5871 76.4688C37.5871 76.4688 37.2907 76.6891 37.1412 76.8943C37.1412 76.8943 37.4756 76.8766 37.5668 76.9501Z" fill="white"/>
<path d="M38.9728 76.876C38.9728 76.876 38.7321 76.5061 38.3065 76.23C38.3065 76.23 38.6029 76.0273 38.8968 76.0273C38.8968 76.0273 39.0437 76.3972 38.9703 76.8785L38.9728 76.876Z" fill="white"/>
<path d="M40.508 77.4511C40.508 77.4511 40.2496 77.0989 39.8975 77.0077L39.8417 75.9336C39.8417 75.9336 40.5815 76.23 40.508 77.4511Z" fill="white"/>
<path d="M40.5992 76.4892C40.5992 76.4892 40.7664 76.2105 40.3965 76.1016L40.5992 76.4892Z" fill="white"/>
<path d="M38.3623 77.3404C38.3623 77.3404 38.6587 77.0997 38.9525 77.082C38.9525 77.082 38.5472 76.7299 38.3243 76.6387L38.3623 77.3429V77.3404Z" fill="white"/>
<path d="M38.4915 77.8575C38.4915 77.8575 38.7499 77.6346 39.0108 77.5434C39.0108 77.5434 39.0488 77.4142 38.9551 77.3027C38.9551 77.3027 38.5295 77.4598 38.4281 77.6346C38.4281 77.6346 38.3825 77.8195 38.494 77.8575H38.4915Z" fill="white"/>
<path d="M39.9532 77.3125C39.9532 77.3125 40.2876 77.4594 40.4244 77.6646C40.4244 77.6646 40.5359 77.8774 40.2851 77.8876C40.2851 77.8876 40.0723 77.6469 39.9152 77.581C39.9152 77.581 39.8772 77.3961 39.9507 77.3125H39.9532Z" fill="white"/>
<path d="M39.0843 76.9135H39.7505C39.7505 76.9135 39.8443 76.8578 39.7505 76.7463V76.3207C39.7505 76.3207 39.8899 76.1738 39.7581 76.0801H39.1121C39.1121 76.0801 38.9829 76.227 39.14 76.3106L39.1501 76.7261C39.1501 76.7261 39.0311 76.8274 39.0868 76.911L39.0843 76.9135Z" fill="white"/>
<path d="M37.6783 77.3954H38.2533V76.9141H37.6504C37.6504 76.9141 37.5947 77.0255 37.734 77.0331V77.2738C37.734 77.2738 37.6327 77.3473 37.6783 77.3929V77.3954Z" fill="white"/>
<path d="M41.2072 77.3954H40.6347V76.9141H41.2351C41.2351 76.9141 41.2908 77.0255 41.1515 77.0331V77.2738C41.1515 77.2738 41.2528 77.3473 41.2072 77.3929V77.3954Z" fill="white"/>
<path d="M40.7208 76.7368H41.1971C41.1971 76.7368 41.2477 75.9692 41.3313 75.118C41.3313 75.118 41.4605 74.434 41.2528 73.9628C41.2528 73.9628 41.0299 73.3649 41.0172 73.1445C41.0172 73.1445 40.9209 73.5879 40.7816 73.8513C40.7816 73.8513 40.5384 74.4137 40.6473 75.1079C40.6473 75.1079 40.7208 76.486 40.7208 76.7368Z" fill="white"/>
<path d="M38.2432 76.7368H37.7669C37.7669 76.7368 37.7163 75.9692 37.6327 75.118C37.6327 75.118 37.5035 74.434 37.7112 73.9628C37.7112 73.9628 37.9341 73.3649 37.9468 73.1445C37.9468 73.1445 38.0431 73.5879 38.1824 73.8513C38.1824 73.8513 38.4256 74.4137 38.3167 75.1079C38.3167 75.1079 38.2432 76.486 38.2432 76.7368Z" fill="white"/>
<path d="M39.1375 75.9137H39.7404C39.7404 75.9137 39.9152 73.9149 39.9355 73.6388C39.9355 73.6388 40.0596 72.818 39.9532 72.3442C39.9532 72.3442 39.6365 71.3689 39.4491 70.918C39.4491 70.918 39.1375 71.8072 38.9829 72.3468C38.9829 72.3468 38.8385 72.6584 39.0184 73.6286C39.0184 73.6286 39.1881 75.673 39.1375 75.9137Z" fill="white"/>
<path d="M38.4636 74.7389C38.4636 74.7389 38.8765 74.8605 39.0412 74.8478L39.0539 75.2177C39.0539 75.2177 38.684 75.2455 38.4357 75.1493L38.4636 74.7363V74.7389Z" fill="white"/>
<path d="M39.8899 74.8605L39.862 75.2177C39.862 75.2177 40.4244 75.2303 40.5764 75.1493C40.5764 75.1493 40.5207 74.8605 40.5485 74.7363C40.5485 74.7363 40.2192 74.901 39.8899 74.8605Z" fill="white"/>
<path d="M41.4479 74.4903C41.4479 74.4903 41.4479 74.7994 41.4175 74.9337C41.4175 74.9337 42.4663 74.5537 42.94 74.1002L42.5904 73.8418C42.5904 73.8418 42.066 74.3257 41.4479 74.4903Z" fill="white"/>
<path d="M36.2393 73.9258C36.2393 73.9258 36.9081 74.3058 37.4756 74.4603L37.4553 74.8631C37.4553 74.8631 36.4369 74.625 35.9328 74.1437L36.2419 73.9283L36.2393 73.9258Z" fill="white"/>
<path d="M37.1133 64.523C37.1133 64.523 39.7379 64.3786 41.7975 64.523C41.7975 64.523 41.0552 63.6059 41.2528 63.1524C41.2528 63.1524 40.6879 63.7909 40.3991 64.3989C40.3991 64.3989 39.6264 63.421 39.4719 62.8535C39.4719 62.8535 39.102 63.7807 38.5953 64.376C38.5953 64.376 38.4509 64.0467 37.6479 63.2335C37.6479 63.2335 37.7087 64.0163 37.1133 64.5204V64.523Z" fill="white"/>
<path d="M42.56 65.2755C42.4055 64.7713 41.9115 64.7511 41.9115 64.7511C40.1001 64.6168 36.8144 64.7511 36.8144 64.7511C36.3305 64.9056 36.29 65.3489 36.29 65.3489C36.404 65.7593 37.0221 65.8531 37.0221 65.8531C38.8867 65.7087 42.0153 65.8531 42.0153 65.8531C42.6436 65.7289 42.56 65.2755 42.56 65.2755ZM36.9183 65.5516C36.9183 65.5516 36.6599 65.4604 36.6599 65.2552C36.6599 65.2552 36.6903 65.0627 36.9487 64.9715C36.9487 64.9715 37.2476 64.9487 37.9367 64.9487C37.9367 64.9487 37.5769 65.2324 37.9873 65.5643L36.9157 65.5516H36.9183ZM40.4599 65.5288H38.3901C37.7619 65.2172 38.3901 64.9284 38.3901 64.9284L40.4599 64.9056C41.1388 65.2299 40.4599 65.5288 40.4599 65.5288ZM41.9951 65.5516L40.9235 65.5643C41.3339 65.2349 40.9741 64.9487 40.9741 64.9487C41.6632 64.9487 41.9621 64.9715 41.9621 64.9715C42.2205 65.0627 42.2509 65.2552 42.2509 65.2552C42.2509 65.4604 41.9925 65.5516 41.9925 65.5516H41.9951Z" fill="white"/>
<path d="M42.8969 67.2302C42.8969 67.2302 38.6409 66.5716 36.1279 67.2302C36.1279 67.2302 36.8144 66.3664 36.8423 65.8445C36.8423 65.8445 37.4427 66.3689 37.6783 66.9262C37.6783 66.9262 38.4712 66.0624 38.5649 65.8344C38.5649 65.8344 39.2439 66.6881 39.4719 66.8958C39.4719 66.8958 39.8823 66.607 40.4599 65.8242C40.4599 65.8242 41.2123 66.7514 41.344 66.9769C41.344 66.9769 41.7037 66.2346 42.066 65.9053C42.066 65.9053 42.142 66.3005 42.8969 67.2302Z" fill="white"/>
<path d="M34.8485 68.7874C34.8485 68.7874 38.4104 67.7588 44.4549 68.7874C44.4549 68.7874 43.6113 67.9843 43.4771 67.2522C43.4771 67.2522 42.9096 67.8906 42.7981 68.4656C42.7981 68.4656 42.1496 67.3636 42.1395 67.199C42.1395 67.199 41.3263 68.2908 41.2731 68.3314C41.2731 68.3314 40.4295 67.2192 40.3256 67.0039C40.3256 67.0039 39.7176 68.0122 39.4187 68.2706C39.4187 68.2706 38.646 67.2623 38.5548 67.0039C38.5548 67.0039 38.0101 68.0122 37.8759 68.2807C37.8759 68.2807 37.2375 67.3434 36.9917 67.1078C36.9917 67.1078 36.6117 68.1692 36.3939 68.4251C36.3939 68.4251 36.0747 67.7259 35.5604 67.199C35.5604 67.199 35.5604 67.9311 34.8511 68.7848L34.8485 68.7874Z" fill="white"/>
<path d="M33.2931 70.5788C33.2931 70.5788 38.4307 68.2937 45.6583 70.5788C45.6583 70.5788 44.8451 69.3425 44.9135 68.8485C44.9135 68.8485 44.2396 69.7833 44.1864 70.0975C44.1864 70.0975 43.6088 68.9727 43.5404 68.7117C43.5404 68.7117 42.9932 69.5351 42.7728 69.7833C42.7728 69.7833 42.2636 68.9727 42.1141 68.5192C42.1141 68.5192 41.3313 69.4793 41.2756 69.6035C41.2756 69.6035 40.5055 68.5192 40.4117 68.3824C40.4117 68.3824 39.7252 69.1779 39.4111 69.5072C39.4111 69.5072 38.8613 68.5724 38.6435 68.3672C38.6435 68.3672 38.0811 69.3425 37.9417 69.5199C37.9417 69.5199 37.3388 68.7117 37.0779 68.4761C37.0779 68.4761 36.556 69.4109 36.3508 69.6972C36.3508 69.6972 35.5959 68.8055 35.4717 68.7092C35.4717 68.7092 35.0183 69.7656 34.8536 70.0139C34.8536 70.0139 34.5521 69.2463 34.0581 68.8333C34.0581 68.8333 34.0455 69.6972 33.2956 70.5763L33.2931 70.5788Z" fill="white"/>
<path d="M33.3564 70.8649C33.3564 70.8649 38.2027 68.4355 45.5595 70.8649C45.5595 70.8649 46.0813 71.8402 43.3073 73.8846L42.8969 73.6642C42.8969 73.6642 43.9128 73.0334 44.2548 72.5926C44.2548 72.5926 41.9064 71.8099 39.8493 71.8377L39.7809 71.6325C39.7809 71.6325 40.4801 71.6325 40.7132 71.1512C40.7132 71.1512 41.002 71.8225 41.7696 71.8935C41.7696 71.8935 42.5245 71.9897 43.0185 71.3159C43.0185 71.3159 43.0869 71.934 43.7887 72.2355C43.7887 72.2355 44.5436 72.5116 44.8324 71.8656C44.8324 71.8656 45.0528 71.3716 44.5309 71.0296C44.5309 71.0296 43.8317 70.6319 43.0059 71.2221C43.0059 71.2221 42.8691 70.5052 41.8937 70.3836C41.8937 70.3836 41.0476 70.381 40.7284 71.0017C40.7284 71.0017 40.6727 70.6724 40.2192 70.4115C40.2192 70.4115 39.4364 70.0948 38.7499 70.4393C38.7499 70.4393 38.4484 70.5761 38.2964 70.9207C38.2964 70.9207 38.1165 70.5786 37.582 70.4545C37.582 70.4545 36.8144 70.3177 36.2773 70.7712C36.2773 70.7712 35.9733 71.06 35.8796 71.2931C35.8796 71.2931 35.5908 70.9637 35.2741 70.8396C35.2741 70.8396 34.4356 70.6471 33.9568 71.1563C33.9568 71.1563 33.4349 71.7187 34.1367 72.1721C34.1367 72.1721 34.6028 72.3925 35.4819 71.939C35.4819 71.939 35.8669 71.7186 35.8948 71.4045C35.8948 71.4045 36.0595 71.7617 36.8017 71.7465C36.8017 71.7465 37.544 71.8022 38.0101 71.4045C38.0101 71.4045 38.228 71.212 38.3116 71.0878C38.3116 71.0878 38.6409 71.5565 39.1071 71.6655L39.0387 71.8174C39.0387 71.8174 36.5256 71.7085 34.3976 72.5597C34.3976 72.5597 35.3577 73.4666 35.9075 73.725L35.4692 73.9708C35.4692 73.9708 32.9029 72.3089 33.3564 70.8674V70.8649Z" fill="white"/>
<path d="M38.874 73.481C38.874 73.481 38.4003 73.5012 38.1748 73.5215L38.0507 73.182C38.0507 73.182 38.5143 73.0807 38.8335 73.1314L38.874 73.481Z" fill="white"/>
<path d="M40.1103 73.1622L40.0596 73.5017C40.0596 73.5017 40.5131 73.4814 40.7715 73.5321L40.9057 73.1723C40.9057 73.1723 40.4725 73.1217 40.1128 73.1622H40.1103Z" fill="white"/>
<path d="M39.4643 99.3452C26.4024 99.3452 15.7751 88.7179 15.7751 75.656C15.7751 62.5941 26.4024 51.9668 39.4643 51.9668C52.5261 51.9668 63.1535 62.5941 63.1535 75.656C63.1535 88.7179 52.5261 99.3452 39.4643 99.3452ZM39.4643 52.2328C26.5468 52.2328 16.0385 62.7411 16.0385 75.6585C16.0385 88.576 26.5468 99.0843 39.4643 99.0843C52.3817 99.0843 62.89 88.576 62.89 75.6585C62.89 62.7411 52.3817 52.2328 39.4643 52.2328Z" fill="white"/>
<path d="M39.7936 107.466C22.3668 107.466 8.19025 93.2899 8.19025 75.8631C8.19025 58.4363 22.3668 44.2598 39.7936 44.2598C57.2204 44.2598 71.3969 58.4363 71.3969 75.8631C71.3969 93.2899 57.2204 107.466 39.7936 107.466ZM39.7936 44.5106C22.5061 44.5106 8.44105 58.5756 8.44105 75.8631C8.44105 93.1506 22.5061 107.216 39.7936 107.216C57.081 107.216 71.1461 93.1506 71.1461 75.8631C71.1461 58.5756 57.0836 44.5106 39.7936 44.5106Z" fill="white"/>
<path d="M133.38 42.9551L121.691 49.5265L121.679 62.6923L133.355 69.2865L145.043 62.7151L145.056 49.5493L133.38 42.9576V42.9551ZM135.169 62.178C135.169 62.3021 135.153 62.4085 135.125 62.4972C135.098 62.5884 135.032 62.6593 134.93 62.7151C134.814 62.7835 134.621 62.8164 134.348 62.8164H132.265C131.908 62.8164 131.665 62.7556 131.536 62.6315C131.462 62.5732 131.419 62.5073 131.404 62.4313C131.389 62.3528 131.384 62.2565 131.384 62.1451V57.2152C131.384 57.0353 131.391 56.9239 131.404 56.8783C131.432 56.7769 131.503 56.6807 131.619 56.592C131.721 56.5059 131.865 56.4375 132.05 56.3919C132.582 56.2677 132.911 56.174 133.041 56.1081C133.342 55.9511 133.491 55.6648 133.491 55.2519V49.7317C133.491 49.5417 133.57 49.372 133.727 49.2276C133.884 49.0832 134.084 49.0097 134.325 49.0097C134.566 49.0097 134.771 49.0832 134.928 49.2276C135.085 49.372 135.163 49.5392 135.163 49.7317V62.178H135.169Z" fill="white"/>
<path d="M135.559 69.6515L145.545 63.0801L133.856 69.6515L133.844 82.8173L145.52 89.409L135.546 82.8173L135.559 69.6515Z" fill="white"/>
<path d="M121.273 63.0801L109.584 69.6515L109.572 82.8173L121.248 89.4115L132.937 82.8401L132.949 69.6743L121.273 63.0826V63.0801ZM126.499 72.8258C126.499 73.0614 126.492 73.2337 126.474 73.3451C126.446 73.4693 126.368 73.5757 126.239 73.6643C126.112 73.7555 125.962 73.8113 125.788 73.8315C125.618 73.8543 125.496 73.8645 125.425 73.8645H123.966C123.725 73.8645 123.576 73.8594 123.515 73.8467C123.401 73.8239 123.28 73.7682 123.153 73.6795C123.024 73.601 122.93 73.4997 122.869 73.3755C122.798 73.2641 122.765 73.1349 122.765 72.9905V71.5971C122.765 71.473 122.745 71.3615 122.702 71.2602C122.641 71.1589 122.527 71.0575 122.355 70.9562C122.142 70.8219 121.825 70.7561 121.407 70.7561H119.53C119.186 70.7561 118.902 70.8169 118.674 70.941C118.327 71.131 118.152 71.4071 118.152 71.7643V80.7374C118.152 80.8717 118.16 81.0287 118.172 81.2086C118.172 81.3885 118.251 81.5455 118.408 81.6798C118.666 81.9027 119.039 82.0167 119.528 82.0167H123.168C123.47 82.0167 123.698 81.999 123.857 81.9635C123.999 81.9407 124.156 81.8698 124.328 81.7457C124.615 81.5329 124.757 81.2593 124.757 80.9223V79.7139C124.757 79.4251 124.82 79.1971 124.949 79.0299C125.061 78.8729 125.296 78.7918 125.656 78.7918C125.927 78.7918 126.135 78.8754 126.279 79.0451C126.403 79.2225 126.467 79.4353 126.467 79.681V82.2473C126.467 82.4829 126.459 82.6399 126.446 82.7185C126.418 82.7945 126.325 82.8933 126.168 83.0174C125.927 83.2074 125.598 83.3037 125.182 83.3037H117.357C116.994 83.2733 116.759 83.2023 116.647 83.0858C116.518 82.9642 116.44 82.8401 116.412 82.7185C116.366 82.607 116.343 82.4601 116.343 82.2802V70.4039C116.343 70.0138 116.516 69.7275 116.863 69.5477C116.946 69.5046 117.098 69.4666 117.314 69.4337C117.514 69.3982 117.691 69.3805 117.848 69.3805H125.349C125.595 69.3805 125.788 69.3855 125.932 69.3957C126.061 69.421 126.175 69.4767 126.277 69.5629C126.373 69.6642 126.436 69.7605 126.464 69.8491C126.482 69.9505 126.489 70.0847 126.489 70.2494V72.8182L126.499 72.8258Z" fill="white"/>
<path d="M133.36 83.2637L121.671 89.8351L121.658 103.001L133.334 109.595L145.023 103.024L145.036 89.8579L133.36 83.2662V83.2637ZM139.037 91.0613C138.852 91.2057 138.637 91.2791 138.391 91.2791H136.435C136.217 91.2791 136.081 91.2867 136.025 91.2994C135.923 91.3222 135.799 91.3779 135.657 91.4666C135.442 91.611 135.336 91.8289 135.336 92.1177V103.052C135.336 103.239 135.305 103.396 135.247 103.518C135.176 103.654 135.07 103.751 134.928 103.804C134.771 103.862 134.555 103.89 134.284 103.89H132.678C132.433 103.89 132.263 103.877 132.167 103.852C132.053 103.842 131.944 103.786 131.842 103.685C131.728 103.586 131.662 103.482 131.65 103.368C131.622 103.257 131.609 103.145 131.609 103.031V92.2469C131.609 91.9226 131.51 91.6769 131.31 91.5097C131.194 91.4185 131.052 91.3526 130.88 91.3095C130.707 91.2741 130.507 91.2563 130.277 91.2563H128.493C128.207 91.2563 127.956 91.1955 127.743 91.0714C127.525 90.9599 127.419 90.8029 127.419 90.6027C127.419 90.3899 127.533 90.2151 127.766 90.0809C127.979 89.9567 128.237 89.8959 128.536 89.8959H138.335C138.594 89.8959 138.824 89.9567 139.022 90.0809C139.224 90.205 139.326 90.3595 139.326 90.5495C139.326 90.7395 139.232 90.9093 139.042 91.0537L139.037 91.0613Z" fill="white"/>
<path d="M91.9879 44.2441H91.9853C91.5908 44.2441 91.2709 44.564 91.2709 44.9585V107.233C91.2709 107.627 91.5908 107.947 91.9853 107.947H91.9879C92.3824 107.947 92.7023 107.627 92.7023 107.233V44.9585C92.7023 44.564 92.3824 44.2441 91.9879 44.2441Z" fill="white"/>
</svg>
