<svg width="313" height="69" viewBox="0 0 313 69" fill="none" xmlns="http://www.w3.org/2000/svg">
<path d="M272.229 3.30273H25.1979C13.061 3.30273 3.22205 13.1223 3.22205 25.2353C3.22205 37.3484 13.061 47.1679 25.1979 47.1679H272.229C284.366 47.1679 294.205 37.3484 294.205 25.2353C294.205 13.1223 284.366 3.30273 272.229 3.30273Z" fill="white" stroke="black" stroke-width="6"/>
<path d="M80.285 34.8313V14.4194H89.0753C90.9703 14.4194 92.4354 14.975 93.4705 16.0863C94.5057 17.1975 95.0235 18.689 95.0235 20.5605C95.0235 22.4321 94.5057 23.9235 93.4705 25.0348C92.4354 26.146 90.9703 26.7017 89.0753 26.7017H83.596V34.8313H80.285ZM83.596 23.8066H88.8702C89.7103 23.8066 90.3646 23.5921 90.8334 23.1632C91.3022 22.7148 91.5366 22.0812 91.5366 21.2624V19.8587C91.5366 19.0399 91.3022 18.416 90.8334 17.9871C90.3646 17.5387 89.7103 17.3145 88.8702 17.3145H83.596V23.8066ZM98.1349 34.8313V19.6247H101.329V22.5491H101.475C101.69 21.7693 102.14 21.0869 102.823 20.5021C103.507 19.9172 104.454 19.6247 105.665 19.6247H106.515V22.6953H105.255C103.986 22.6953 103.009 22.9 102.325 23.3094C101.661 23.7188 101.329 24.3232 101.329 25.1225V34.8313H98.1349ZM115.186 35.1823C114.092 35.1823 113.116 34.9972 112.256 34.6266C111.396 34.2561 110.664 33.7297 110.059 33.0475C109.453 32.3456 108.984 31.5072 108.652 30.5326C108.339 29.5383 108.183 28.4366 108.183 27.228C108.183 26.0195 108.339 24.9275 108.652 23.9528C108.984 22.9585 109.453 22.1202 110.059 21.4378C110.664 20.736 111.396 20.1999 112.256 19.8295C113.116 19.459 114.092 19.2738 115.186 19.2738C116.3 19.2738 117.276 19.4688 118.116 19.8587C118.976 20.2486 119.689 20.7945 120.255 21.4963C120.822 22.1787 121.242 22.978 121.515 23.8943C121.808 24.8106 121.955 25.7951 121.955 26.8479V28.0469H111.494V28.544C111.494 29.7137 111.836 30.6788 112.52 31.4391C113.223 32.1798 114.219 32.5504 115.509 32.5504C116.446 32.5504 117.237 32.3456 117.882 31.9362C118.527 31.5268 119.073 30.9712 119.523 30.2694L121.398 32.1117C120.831 33.0475 120.011 33.7982 118.937 34.3634C117.862 34.9095 116.612 35.1823 115.186 35.1823ZM115.186 21.7595C114.639 21.7595 114.132 21.857 113.663 22.052C113.213 22.2469 112.823 22.5198 112.491 22.8708C112.178 23.2217 111.934 23.6408 111.758 24.1282C111.582 24.6156 111.494 25.1518 111.494 25.7366V25.9413H118.585V25.6489C118.585 24.4792 118.282 23.5434 117.677 22.8415C117.071 22.1202 116.241 21.7595 115.186 21.7595ZM130.325 35.1823C128.88 35.1823 127.668 34.9287 126.692 34.4219C125.715 33.9152 124.865 33.2134 124.142 32.3164L126.194 30.4448C126.76 31.127 127.385 31.6635 128.069 32.0532C128.772 32.4238 129.583 32.6088 130.501 32.6088C131.438 32.6088 132.132 32.4334 132.581 32.0825C133.05 31.7119 133.284 31.2052 133.284 30.5618C133.284 30.0743 133.118 29.6648 132.786 29.3336C132.474 28.9827 131.917 28.7583 131.116 28.661L129.71 28.4855C128.147 28.2904 126.916 27.8422 126.018 27.1403C125.139 26.4188 124.699 25.3565 124.699 23.9528C124.699 23.212 124.836 22.5588 125.109 21.9935C125.383 21.4086 125.764 20.9212 126.252 20.5313C126.76 20.1219 127.356 19.8099 128.04 19.5955C128.743 19.3811 129.514 19.2738 130.354 19.2738C131.722 19.2738 132.835 19.4883 133.695 19.9172C134.574 20.3461 135.355 20.9407 136.039 21.701L134.076 23.5726C133.685 23.1047 133.167 22.705 132.523 22.3736C131.898 22.0227 131.175 21.8473 130.354 21.8473C129.475 21.8473 128.821 22.0227 128.391 22.3736C127.981 22.7246 127.776 23.1827 127.776 23.7481C127.776 24.3329 127.961 24.7716 128.333 25.064C128.704 25.3565 129.299 25.5709 130.12 25.7074L131.526 25.8828C133.206 26.1364 134.427 26.6336 135.189 27.3743C135.971 28.0958 136.361 29.0704 136.361 30.2986C136.361 31.0393 136.215 31.7119 135.922 32.3164C135.648 32.9013 135.248 33.408 134.72 33.8371C134.193 34.2661 133.558 34.5974 132.816 34.8313C132.073 35.0653 131.243 35.1823 130.325 35.1823ZM141.581 16.9051C140.916 16.9051 140.428 16.7492 140.116 16.4372C139.823 16.1253 139.676 15.7256 139.676 15.2382V14.7411C139.676 14.2537 139.823 13.8541 140.116 13.5421C140.428 13.2302 140.916 13.0742 141.581 13.0742C142.245 13.0742 142.724 13.2302 143.017 13.5421C143.31 13.8541 143.456 14.2537 143.456 14.7411V15.2382C143.456 15.7256 143.31 16.1253 143.017 16.4372C142.724 16.7492 142.245 16.9051 141.581 16.9051ZM139.969 19.6247H143.163V34.8313H139.969V19.6247ZM157.305 32.3164H157.159C156.827 33.2134 156.28 33.9152 155.518 34.4219C154.776 34.9287 153.896 35.1823 152.881 35.1823C150.947 35.1823 149.453 34.49 148.398 33.106C147.343 31.7023 146.816 29.743 146.816 27.228C146.816 24.7131 147.343 22.7635 148.398 21.3794C149.453 19.9757 150.947 19.2738 152.881 19.2738C153.896 19.2738 154.776 19.5273 155.518 20.0342C156.28 20.5216 156.827 21.2234 157.159 22.1397H157.305V13.1912H160.499V34.8313H157.305V32.3164ZM153.848 32.4334C154.824 32.4334 155.645 32.1994 156.309 31.7315C156.973 31.244 157.305 30.6107 157.305 29.8307V24.6254C157.305 23.8455 156.973 23.2217 156.309 22.7538C155.645 22.2664 154.824 22.0227 153.848 22.0227C152.734 22.0227 151.845 22.3834 151.182 23.1047C150.517 23.8066 150.185 24.7424 150.185 25.9121V28.544C150.185 29.7137 150.517 30.6591 151.182 31.3806C151.845 32.0825 152.734 32.4334 153.848 32.4334ZM171.042 35.1823C169.948 35.1823 168.971 34.9972 168.112 34.6266C167.252 34.2561 166.519 33.7297 165.914 33.0475C165.308 32.3456 164.84 31.5072 164.508 30.5326C164.195 29.5383 164.039 28.4366 164.039 27.228C164.039 26.0195 164.195 24.9275 164.508 23.9528C164.84 22.9585 165.308 22.1202 165.914 21.4378C166.519 20.736 167.252 20.1999 168.112 19.8295C168.971 19.459 169.948 19.2738 171.042 19.2738C172.155 19.2738 173.132 19.4688 173.972 19.8587C174.831 20.2486 175.544 20.7945 176.111 21.4963C176.677 22.1787 177.097 22.978 177.371 23.8943C177.664 24.8106 177.81 25.7951 177.81 26.8479V28.0469H167.35V28.544C167.35 29.7137 167.691 30.6788 168.375 31.4391C169.079 32.1798 170.075 32.5504 171.364 32.5504C172.302 32.5504 173.093 32.3456 173.738 31.9362C174.382 31.5268 174.929 30.9712 175.378 30.2694L177.254 32.1117C176.687 33.0475 175.866 33.7982 174.792 34.3634C173.718 34.9095 172.467 35.1823 171.042 35.1823ZM171.042 21.7595C170.495 21.7595 169.987 21.857 169.518 22.052C169.069 22.2469 168.678 22.5198 168.346 22.8708C168.033 23.2217 167.789 23.6408 167.614 24.1282C167.438 24.6156 167.35 25.1518 167.35 25.7366V25.9413H174.441V25.6489C174.441 24.4792 174.138 23.5434 173.532 22.8415C172.927 22.1202 172.097 21.7595 171.042 21.7595ZM181.346 34.8313V19.6247H184.54V22.1397H184.686C185.018 21.3209 185.516 20.6385 186.18 20.0926C186.864 19.5468 187.792 19.2738 188.964 19.2738C190.527 19.2738 191.738 19.7905 192.597 20.8237C193.476 21.8375 193.916 23.2899 193.916 25.181V34.8313H190.722V25.5904C190.722 23.212 189.765 22.0227 187.851 22.0227C187.44 22.0227 187.03 22.0812 186.62 22.1982C186.229 22.2956 185.878 22.4516 185.565 22.6661C185.252 22.8805 184.999 23.1535 184.803 23.4849C184.627 23.8163 184.54 24.2062 184.54 24.6546V34.8313H181.346ZM202.562 34.8313C201.449 34.8313 200.609 34.5485 200.042 33.9833C199.476 33.3984 199.192 32.5796 199.192 31.5268V22.2274H196.819V19.6247H198.108C198.636 19.6247 198.997 19.5078 199.192 19.2738C199.407 19.0399 199.515 18.6597 199.515 18.1333V15.4722H202.386V19.6247H205.58V22.2274H202.386V32.2287H205.346V34.8313H202.562ZM223.793 17.3438V34.8313H220.482V17.3438H214.387V14.4194H229.887V17.3438H223.793ZM236.941 35.1823C235.847 35.1823 234.87 34.9972 234.011 34.6266C233.151 34.2561 232.419 33.7297 231.813 33.0475C231.207 32.3456 230.738 31.5072 230.406 30.5326C230.094 29.5383 229.938 28.4366 229.938 27.228C229.938 26.0195 230.094 24.9275 230.406 23.9528C230.738 22.9585 231.207 22.1202 231.813 21.4378C232.419 20.736 233.151 20.1999 234.011 19.8295C234.87 19.459 235.847 19.2738 236.941 19.2738C238.054 19.2738 239.031 19.4688 239.871 19.8587C240.73 20.2486 241.443 20.7945 242.01 21.4963C242.576 22.1787 242.996 22.978 243.27 23.8943C243.563 24.8106 243.709 25.7951 243.709 26.8479V28.0469H233.249V28.544C233.249 29.7137 233.591 30.6788 234.274 31.4391C234.977 32.1798 235.974 32.5504 237.263 32.5504C238.201 32.5504 238.992 32.3456 239.636 31.9362C240.281 31.5268 240.828 30.9712 241.277 30.2694L243.153 32.1117C242.586 33.0475 241.766 33.7982 240.691 34.3634C239.617 34.9095 238.367 35.1823 236.941 35.1823ZM236.941 21.7595C236.394 21.7595 235.886 21.857 235.417 22.052C234.968 22.2469 234.577 22.5198 234.245 22.8708C233.932 23.2217 233.688 23.6408 233.512 24.1282C233.337 24.6156 233.249 25.1518 233.249 25.7366V25.9413H240.34V25.6489C240.34 24.4792 240.037 23.5434 239.431 22.8415C238.826 22.1202 237.995 21.7595 236.941 21.7595ZM258.409 34.8313C257.569 34.8313 256.924 34.5974 256.475 34.1295C256.025 33.642 255.752 33.0278 255.655 32.2872H255.508C255.215 33.2426 254.678 33.9636 253.896 34.4512C253.115 34.9387 252.168 35.1823 251.054 35.1823C249.472 35.1823 248.251 34.7729 247.392 33.954C246.551 33.1352 246.132 32.0336 246.132 30.6495C246.132 29.1289 246.678 27.9884 247.772 27.228C248.886 26.4677 250.507 26.0875 252.636 26.0875H255.391V24.8008C255.391 23.865 255.137 23.1437 254.629 22.6368C254.121 22.13 253.33 21.8765 252.256 21.8765C251.357 21.8765 250.624 22.0715 250.058 22.4614C249.491 22.8513 249.013 23.3484 248.622 23.9528L246.718 22.2274C247.225 21.3696 247.938 20.6678 248.857 20.1219C249.775 19.5565 250.976 19.2738 252.461 19.2738C254.433 19.2738 255.948 19.732 257.002 20.6483C258.057 21.5645 258.585 22.8805 258.585 24.5961V32.2287H260.196V34.8313H258.409ZM251.963 32.7551C252.959 32.7551 253.779 32.5408 254.424 32.1117C255.068 31.6635 255.391 31.0685 255.391 30.3278V28.1346H252.695C250.487 28.1346 249.384 28.8168 249.384 30.1816V30.708C249.384 31.3902 249.608 31.907 250.058 32.2579C250.527 32.5892 251.161 32.7551 251.963 32.7551ZM263.326 34.8313V19.6247H266.52V22.1397H266.667C266.823 21.7498 267.008 21.3794 267.223 21.0284C267.458 20.6775 267.731 20.3753 268.044 20.1219C268.376 19.849 268.757 19.6443 269.187 19.5078C269.636 19.3518 270.154 19.2738 270.74 19.2738C271.775 19.2738 272.693 19.5273 273.494 20.0342C274.295 20.541 274.881 21.3209 275.252 22.3736H275.34C275.613 21.5158 276.141 20.7848 276.922 20.1804C277.703 19.576 278.71 19.2738 279.94 19.2738C281.464 19.2738 282.645 19.7905 283.486 20.8237C284.325 21.8375 284.746 23.2899 284.746 25.181V34.8313H281.552V25.5612C281.552 24.3914 281.327 23.5141 280.878 22.9293C280.428 22.3249 279.715 22.0227 278.739 22.0227C278.329 22.0227 277.938 22.0812 277.567 22.1982C277.195 22.2956 276.864 22.4516 276.571 22.6661C276.297 22.8805 276.072 23.1535 275.897 23.4849C275.721 23.8163 275.633 24.1965 275.633 24.6254V34.8313H272.439V25.5612C272.439 23.2022 271.511 22.0227 269.655 22.0227C269.264 22.0227 268.874 22.0812 268.483 22.1982C268.112 22.2956 267.78 22.4516 267.487 22.6661C267.194 22.8805 266.96 23.1535 266.784 23.4849C266.608 23.8163 266.52 24.1965 266.52 24.6254V34.8313H263.326Z" fill="black"/>
<path d="M295.994 20.0648L243.548 41.7561C240.278 43.1086 238.726 46.8509 240.081 50.1147L245.339 62.7783C246.694 66.0421 250.444 67.5915 253.714 66.2389L306.16 44.5476C309.431 43.195 310.983 39.4527 309.628 36.1889L304.369 23.5254C303.014 20.2616 299.265 18.7122 295.994 20.0648Z" fill="#00FF66"/>
<path d="M261.719 53.4951L257.388 55.2863L258.517 60.296L255.973 61.3484L254.844 56.3391L252.11 57.4695L251.1 55.0382L254.267 53.7282L253.123 48.7572L250.389 49.8877L249.379 47.4564L252.547 46.1463L251.418 41.137L253.935 40.0957L255.064 45.1055L259.395 43.3138L258.266 38.3045L260.811 37.2522L261.94 42.2615L264.673 41.1311L265.683 43.5624L262.516 44.872L263.661 49.8433L266.394 48.7129L267.404 51.1442L264.237 52.4542L265.366 57.4636L262.848 58.5049L261.719 53.4951ZM261.116 50.8961L259.998 45.9133L255.667 47.7045L256.785 52.6873L261.116 50.8961ZM285.771 49.0241L272.399 54.5547L270.862 50.8536L274.618 43.4756C274.954 42.8089 275.228 42.2209 275.44 41.7114C275.643 41.1836 275.783 40.7043 275.857 40.2725C275.942 39.8151 275.958 39.3966 275.907 39.0173C275.873 38.6303 275.774 38.2387 275.609 37.8426L275.452 37.4642C275.303 37.1042 275.1 36.8186 274.843 36.6084C274.586 36.3978 274.303 36.2511 273.994 36.1679C273.685 36.0848 273.358 36.0619 273.014 36.0985C272.688 36.1282 272.371 36.2063 272.065 36.3329C271.613 36.5198 271.246 36.756 270.963 37.0416C270.698 37.3203 270.491 37.6379 270.344 37.9943C270.206 38.3255 270.124 38.687 270.096 39.0781C270.061 39.4514 270.073 39.8371 270.132 40.2346L266.025 40.3502C265.973 39.6123 266.016 38.8766 266.156 38.1437C266.288 37.3925 266.544 36.6852 266.924 36.0217C267.314 35.3327 267.845 34.7016 268.516 34.1286C269.188 33.5552 270.011 33.0672 270.985 32.6642C272.014 32.2388 272.985 32.0058 273.899 31.9655C274.812 31.9253 275.644 32.0455 276.395 32.3261C277.164 32.5989 277.839 33.027 278.419 33.61C278.992 34.1748 279.447 34.8625 279.783 35.6731C280.12 36.4837 280.291 37.2778 280.297 38.0564C280.303 38.8346 280.195 39.6177 279.972 40.4064C279.761 41.169 279.456 41.9389 279.06 42.7148C278.663 43.4907 278.243 44.2871 277.799 45.1036L275.425 49.3147L284.357 45.6199L285.771 49.0241ZM295.342 45.4454C292.87 46.468 290.683 46.3698 288.781 45.1516C286.88 43.933 285.29 41.784 284.011 38.7043C282.732 35.6246 282.333 32.9827 282.814 30.7794C283.294 28.5756 284.771 26.9626 287.243 25.94C289.715 24.9176 291.902 25.0155 293.804 26.2338C295.705 27.4525 297.295 29.6014 298.574 32.6811C299.853 35.7608 300.252 38.4028 299.772 40.6061C299.291 42.8098 297.814 44.4228 295.342 45.4454ZM293.917 42.0143C295 41.5665 295.585 40.8606 295.67 39.8965C295.756 38.9323 295.5 37.7297 294.902 36.289L293.421 32.7231C292.823 31.282 292.152 30.2511 291.408 29.6306C290.664 29.0097 289.75 28.9233 288.667 29.3711C287.585 29.8189 287 30.5249 286.914 31.489C286.828 32.4531 287.085 33.6557 287.683 35.0964L289.164 38.6623C289.762 40.1035 290.433 41.1343 291.177 41.7548C291.921 42.3758 292.835 42.4621 293.917 42.0143Z" fill="white"/>
<path d="M19.7652 24.2981V15.2407C19.7652 14.9279 19.8942 14.6522 20.153 14.4148C20.4114 14.177 20.7384 14.0586 21.1357 14.0586C21.533 14.0586 21.8673 14.1775 22.1266 14.4148C22.385 14.6526 22.5144 14.9279 22.5144 15.2407V35.6593C22.5144 35.8608 22.4911 36.0362 22.4453 36.1843C22.3988 36.3319 22.2927 36.4507 22.1266 36.5398C21.9367 36.6522 21.618 36.7079 21.1702 36.7079H17.7489C17.1627 36.7079 16.7637 36.6069 16.551 36.4054C16.4302 36.3118 16.3582 36.2021 16.3353 36.0764C16.312 35.9467 16.3012 35.7899 16.3012 35.6063V27.5168C16.3012 27.2216 16.3124 27.0375 16.3353 26.9657C16.381 26.8003 16.4988 26.6436 16.6886 26.496C16.8551 26.353 17.0906 26.2429 17.3956 26.167C18.2683 25.9651 18.8119 25.8111 19.0245 25.7032C19.5184 25.4435 19.7656 24.9753 19.7656 24.2989L19.7652 24.2981Z" fill="#00FF66"/>
<path d="M28.2815 14.2503C28.4195 14.1784 28.6667 14.1159 29.0243 14.0621C29.3518 14.0039 29.6455 13.9746 29.9044 13.9746H42.2273C42.6292 13.9746 42.9484 13.9841 43.1841 14.0013C43.3957 14.0418 43.5852 14.1336 43.7518 14.2771C43.9116 14.4429 44.0151 14.5997 44.0609 14.7475C44.0893 14.9133 44.1039 15.133 44.1039 15.4057V19.6197C44.1039 20.0053 44.0893 20.2896 44.0609 20.4727C44.0142 20.6743 43.886 20.8492 43.674 20.9974C43.4675 21.1451 43.2217 21.2369 42.9351 21.2727C42.6544 21.3084 42.4562 21.3265 42.3417 21.3265H39.9441C39.548 21.3265 39.3022 21.3179 39.2047 21.2994C39.0151 21.2636 38.8173 21.1719 38.6113 21.0241C38.3989 20.8944 38.2446 20.7286 38.1471 20.527C38.0326 20.3439 37.9754 20.1328 37.9754 19.8954V17.6109C37.9754 17.4093 37.9406 17.2254 37.8715 17.0599C37.7735 16.8941 37.5839 16.7282 37.3015 16.5628C36.9503 16.3436 36.4316 16.2337 35.7462 16.2337H32.6613C32.0967 16.2337 31.6273 16.3345 31.2533 16.5361C30.683 16.8497 30.3979 17.2999 30.3979 17.8867V32.6098C30.3979 32.8295 30.4091 33.0868 30.4319 33.3824C30.4319 33.6776 30.5614 33.9358 30.8206 34.1546C31.246 34.522 31.8589 34.7057 32.6587 34.7057H38.6406C39.1351 34.7057 39.5123 34.6769 39.7715 34.618C40.0059 34.5823 40.2641 34.464 40.5447 34.2625C41.0149 33.9129 41.2503 33.4624 41.2503 32.9113V30.9292C41.2503 30.4544 41.356 30.0802 41.568 29.8065C41.7516 29.547 42.138 29.4172 42.7281 29.4172C43.175 29.4172 43.5161 29.5566 43.7514 29.8339C43.9574 30.1245 44.0604 30.4718 44.0604 30.8753V35.0872C44.0604 35.4729 44.049 35.7301 44.0265 35.8599C43.9798 35.9851 43.8278 36.1482 43.5696 36.3497C43.1727 36.6632 42.6324 36.8195 41.9484 36.8195H29.0934C28.4998 36.7696 28.1107 36.6513 27.9269 36.4635C27.7134 36.2625 27.5839 36.0614 27.5383 35.8599C27.4632 35.6767 27.4261 35.4368 27.4261 35.1402V15.6543C27.4261 15.0137 27.7112 14.5454 28.2811 14.2499L28.2815 14.2503Z" fill="#00FF66"/>
<path d="M49.0046 14.9722C49.0046 14.6215 49.1941 14.3359 49.5732 14.1158C49.9239 13.9142 50.3455 13.8125 50.8395 13.8125H66.936C67.3608 13.8125 67.7372 13.9138 68.0645 14.1158C68.3978 14.3187 68.5645 14.575 68.5645 14.8847C68.5645 15.1945 68.4084 15.4758 68.0975 15.7136C67.7921 15.9523 67.4382 16.0711 67.0353 16.0711H63.8223C63.4652 16.0711 63.2408 16.0828 63.1488 16.1047C62.9817 16.1405 62.7793 16.2327 62.544 16.3804C62.1924 16.6182 62.0166 16.9745 62.0166 17.4497V35.3896C62.0166 35.6989 61.968 35.9548 61.8705 36.1563C61.7556 36.3807 61.5812 36.5379 61.3463 36.627C61.0881 36.7206 60.736 36.7681 60.2892 36.7681H57.6502C57.2487 36.7681 56.9685 36.748 56.8083 36.7078C56.6187 36.6891 56.4406 36.5977 56.2749 36.4323C56.0858 36.271 55.9805 36.0983 55.9572 35.9137C55.9114 35.7305 55.8885 35.5463 55.8885 35.3622V17.6711C55.8885 17.1378 55.7251 16.7341 55.3977 16.4606C55.2077 16.3128 54.9724 16.2025 54.6908 16.1306C54.4092 16.0724 54.0792 16.0431 53.6996 16.0431H50.7704C50.2993 16.0431 49.8886 15.9423 49.5384 15.7407C49.1817 15.5563 49.0041 15.3004 49.0041 14.9722H49.0046Z" fill="#00FF66"/>
</svg>
